<svg xmlns="http://www.w3.org/2000/svg" viewBox="0 0 442.98 389.54"><defs><style>.cls-1{fill:#eef5ff;}.cls-2{fill:#ceddef;}.cls-3{fill:#fff;}.cls-12,.cls-4{fill:#357ded;}.cls-16,.cls-5{fill:none;}.cls-6{fill:#93bbe5;}.cls-7{fill:#f89d13;}.cls-8{fill:#5c93bc;}.cls-10,.cls-11,.cls-12,.cls-13,.cls-8,.cls-9{fill-rule:evenodd;}.cls-9{fill:#ff7200;}.cls-10,.cls-24{fill:#236cd8;}.cls-11{fill:#71a3d1;}.cls-13{fill:#ffa000;}.cls-14{fill:#bccddd;}.cls-15{fill:#a36d4f;}.cls-16{stroke:#d17e11;stroke-miterlimit:10;stroke-width:1.54px;}.cls-17{fill:#363435;}.cls-18{fill:#a66534;}.cls-19{fill:#965b2f;}.cls-20{fill:#754725;}.cls-21{fill:#703123;}.cls-22{fill:#153d68;}.cls-23,.cls-33{fill:#184785;}.cls-25{fill:#307175;}.cls-26{fill:#2f7d7f;}.cls-27{fill:#245e5e;}.cls-28{fill:#d17e11;}.cls-29{fill:#a9cbf7;}.cls-30{fill:#77aad8;}.cls-31{fill:#296ed3;}.cls-32{fill:#aacaf9;}.cls-33{font-size:24.97px;font-family:Montserrat-Bold, Montserrat Bold;font-weight:700;}</style></defs><g id="OBJECTS"><path class="cls-1" d="M603.76,321.85c-29,80.17-56.68,76-56.68,76L361.7,397l-109.08-.52s-71.89,27.65-67.74-38.7c1.2-19.18,11.18-35.82,24.49-51.79l1.52-1.8c11.24-13.2,24.63-26,37.07-39.42,23.9-25.82,44.31-54,39.22-92.24C276.12,89.59,424,41.21,472.43,146.27S632.79,241.66,603.76,321.85Z" transform="translate(-179.14 -47.85)"/><ellipse class="cls-2" cx="224.39" cy="363.69" rx="218.59" ry="25.85"/><rect class="cls-3" x="19.15" y="227.56" width="143.35" height="87.58" rx="3.19"/><path class="cls-4" d="M22.34,227.56h137a3.19,3.19,0,0,1,3.19,3.19v5.81a0,0,0,0,1,0,0H19.15a0,0,0,0,1,0,0v-5.81A3.19,3.19,0,0,1,22.34,227.56Z"/><path class="cls-4" d="M258,306v1l0,15.93a.39.39,0,0,0,.39.4l18.76-.08V307.5a.67.67,0,0,0-.67-.67l-6.46,0-7.36,0-.28-.52-.35-.66a.45.45,0,0,0-.42-.24h-3.15A.47.47,0,0,0,258,306Z" transform="translate(-179.14 -47.85)"/><polygon class="cls-3" points="100.57 261.32 80.65 261.32 79.27 274.8 99.19 274.8 100.57 261.32"/><path class="cls-4" d="M258.67,323.47l20.21.08a.54.54,0,0,0,.54-.43l2-9.7.46-2.26a.71.71,0,0,0-.7-.82h-.48L261,310.25a.53.53,0,0,0-.54.43l-2.3,11.3-.06.29-.08.37A.73.73,0,0,0,258.67,323.47Z" transform="translate(-179.14 -47.85)"/><polyline class="cls-5" points="79.38 275.99 79.38 275.62 79.38 259.29"/><path class="cls-6" d="M297.64,306v1l0,15.93a.39.39,0,0,0,.39.4l18.76-.08V307.5a.67.67,0,0,0-.67-.67l-6.46,0-7.36,0-.28-.52-.35-.66a.45.45,0,0,0-.42-.24h-3.15A.47.47,0,0,0,297.64,306Z" transform="translate(-179.14 -47.85)"/><polygon class="cls-3" points="140.21 261.32 120.29 261.32 118.91 274.8 138.83 274.8 140.21 261.32"/><path class="cls-6" d="M298.31,323.47l20.21.08a.53.53,0,0,0,.54-.43l2-9.7.46-2.26a.71.71,0,0,0-.7-.82h-.48l-19.72-.08a.53.53,0,0,0-.54.43l-2.3,11.3-.06.29-.08.37A.73.73,0,0,0,298.31,323.47Z" transform="translate(-179.14 -47.85)"/><polyline class="cls-5" points="119.03 275.99 119.03 275.62 119.03 259.29"/><path class="cls-7" d="M258,333.36v.95l0,15.94a.38.38,0,0,0,.39.39l18.76-.07V334.9a.67.67,0,0,0-.67-.67l-6.46,0-7.36,0-.28-.52-.35-.66a.47.47,0,0,0-.42-.24h-3.15A.48.48,0,0,0,258,333.36Z" transform="translate(-179.14 -47.85)"/><polygon class="cls-3" points="100.57 288.73 80.65 288.73 79.27 302.2 99.19 302.2 100.57 288.73"/><path class="cls-7" d="M258.67,350.87l20.21.08a.54.54,0,0,0,.54-.42l2-9.71.46-2.26a.71.71,0,0,0-.7-.82h-.48L261,337.66a.52.52,0,0,0-.54.42l-2.3,11.31-.06.28-.08.38A.73.73,0,0,0,258.67,350.87Z" transform="translate(-179.14 -47.85)"/><polyline class="cls-5" points="79.38 303.39 79.38 303.02 79.38 286.69"/><path class="cls-6" d="M297.64,333.36v.95l0,15.94a.38.38,0,0,0,.39.39l18.76-.07V334.9a.67.67,0,0,0-.67-.67l-6.46,0-7.36,0-.28-.52-.35-.66a.47.47,0,0,0-.42-.24h-3.15A.48.48,0,0,0,297.64,333.36Z" transform="translate(-179.14 -47.85)"/><polygon class="cls-3" points="140.21 288.73 120.29 288.73 118.91 302.2 138.83 302.2 140.21 288.73"/><path class="cls-6" d="M298.31,350.87l20.21.08a.53.53,0,0,0,.54-.42l2-9.71.46-2.26a.71.71,0,0,0-.7-.82h-.48l-19.72-.08a.52.52,0,0,0-.54.42l-2.3,11.31-.06.28-.08.38A.73.73,0,0,0,298.31,350.87Z" transform="translate(-179.14 -47.85)"/><polyline class="cls-5" points="119.03 303.39 119.03 303.02 119.03 286.69"/><path class="cls-6" d="M236.32,296.55H208.83a1.81,1.81,0,0,1-1.8-1.8h0a1.81,1.81,0,0,1,1.8-1.8h27.49a1.81,1.81,0,0,1,1.8,1.8h0A1.81,1.81,0,0,1,236.32,296.55Z" transform="translate(-179.14 -47.85)"/><path class="cls-6" d="M236.32,309.44H208.83a1.81,1.81,0,0,1-1.8-1.8h0a1.81,1.81,0,0,1,1.8-1.8h27.49a1.81,1.81,0,0,1,1.8,1.8h0A1.81,1.81,0,0,1,236.32,309.44Z" transform="translate(-179.14 -47.85)"/><path class="cls-6" d="M236.32,322.33H208.83a1.81,1.81,0,0,1-1.8-1.8h0a1.81,1.81,0,0,1,1.8-1.8h27.49a1.81,1.81,0,0,1,1.8,1.8h0A1.81,1.81,0,0,1,236.32,322.33Z" transform="translate(-179.14 -47.85)"/><path class="cls-6" d="M236.32,335.22H208.83a1.81,1.81,0,0,1-1.8-1.8h0a1.81,1.81,0,0,1,1.8-1.8h27.49a1.81,1.81,0,0,1,1.8,1.8h0A1.81,1.81,0,0,1,236.32,335.22Z" transform="translate(-179.14 -47.85)"/><path class="cls-6" d="M236.32,348.11H208.83a1.81,1.81,0,0,1-1.8-1.8h0a1.81,1.81,0,0,1,1.8-1.8h27.49a1.81,1.81,0,0,1,1.8,1.8h0A1.81,1.81,0,0,1,236.32,348.11Z" transform="translate(-179.14 -47.85)"/><path class="cls-6" d="M323.52,296.55h-72a1.8,1.8,0,0,1-1.8-1.8h0a1.8,1.8,0,0,1,1.8-1.8h72a1.8,1.8,0,0,1,1.79,1.8h0A1.8,1.8,0,0,1,323.52,296.55Z" transform="translate(-179.14 -47.85)"/><path class="cls-6" d="M210.67,271.88l-7.51-7.55-14.78,0-.1,32.18,22.32,0Z" transform="translate(-179.14 -47.85)"/><polygon class="cls-3" points="24 224.01 31.53 224.03 24.02 216.48 24 224.01"/><circle class="cls-7" cx="199.44" cy="281.49" r="5.79" transform="translate(-297.11 368.79) rotate(-77.75)"/><path class="cls-3" d="M197.86,283.81l-1-2.27a.38.38,0,0,1,.2-.51.39.39,0,0,1,.5.2l.63,1.44,4.43-2.84a.38.38,0,0,1,.53.11.39.39,0,0,1-.12.54Z" transform="translate(-179.14 -47.85)"/><path class="cls-8" d="M258.32,173.7l3.69-3.36.88-3a48,48,0,0,1,17.23-23.84l2-1.37-3.7,3.36-2,1.37a47.75,47.75,0,0,0-18.1,26.86m83.85-19,3.7-3.36.36-20.75-3.69,3.37Zm22.16-27.95c-2-1.9-3.8-3.62-6-5.38C331.69,99.63,292.8,97.39,265,118c2.33-1.29,4.42-2.46,6.85-3.58a79.13,79.13,0,0,1,85.89,12.91l2.93,2.78,2,2,3.7-3.36Z" transform="translate(-179.14 -47.85)"/><path class="cls-9" d="M337,221.88l3.69-3.36a47.68,47.68,0,0,1-16.5,9.52l-.67.21-3.7,3.37A47.65,47.65,0,0,0,337,221.88m117.91-74.22,3.7-3.37,2.42-18.5-21.48-5.23-3.7,3.36,21.49,5.24Z" transform="translate(-179.14 -47.85)"/><polygon class="cls-8" points="256.68 76.08 260.38 72.71 260.15 72.89 259.93 73.07 259.7 73.25 259.48 73.43 259.26 73.61 259.03 73.8 258.81 73.98 258.59 74.17 258.37 74.35 258.15 74.54 257.93 74.73 254.23 78.09 254.45 77.9 254.67 77.72 254.89 77.53 255.11 77.35 255.33 77.16 255.56 76.98 255.78 76.8 256 76.62 256.23 76.44 256.45 76.26 256.68 76.08"/><path class="cls-8" d="M454.8,217.2l-18.73,1.71-3.7,3.36,18.74-1.7a49.72,49.72,0,0,0,7.53,5.9,48.5,48.5,0,0,0,64.08-11.24l.52-.7,3.7-3.36A47.89,47.89,0,0,1,495.54,230a48.56,48.56,0,0,1-38.94-11.16Zm94.86,12.68c7.29-6.63,11.12-15.78,13.93-25.09L545.43,212l-10.15-19.26-3.69,3.36,10.14,19.27,18.16-7.18-1.08,3.41A77.83,77.83,0,0,1,549.66,229.88Z" transform="translate(-179.14 -47.85)"/><path class="cls-10" d="M561.26,202.83l3.7-3.37.9-4.78a78.63,78.63,0,0,0-118.74-79.41l-2.9,1.86-3.7,3.37a85.93,85.93,0,0,1,8.88-5.16,78.61,78.61,0,0,1,112.35,85.1Z" transform="translate(-179.14 -47.85)"/><path class="cls-8" d="M447,216.48l3.7-3.36-30.92-30.9-3.52,3.52Zm-19.39,23.66,3.7-3.37.38-21.92L428,218.22ZM370.41,132.82l-19.81,1.81L346.9,138l19.82-1.81,28,28,3.53-3.53Z" transform="translate(-179.14 -47.85)"/><path class="cls-10" d="M333.7,259l3.69-3.36,3-17.94-26.25-7.43a48.78,48.78,0,0,1-24.85-3.69,48.06,48.06,0,0,1-28.51-49.65l.17-1.37-17,6.72-11.06-21-3.69,3.36,11,21,17-6.73c-.15.3-.44,4.79-.46,5.49a48,48,0,0,0,52.33,49.35l1.32-.13L336.73,241Z" transform="translate(-179.14 -47.85)"/><path class="cls-11" d="M270.86,151.62a48.47,48.47,0,0,1,68.25,0l3.06,3.06.37-20.74,20.09-1.84-2-2a78.92,78.92,0,0,0-111.29,0,77.83,77.83,0,0,0-18.21,28.59L242.36,180l16-6.31a47.77,47.77,0,0,1,12.54-22.08" transform="translate(-179.14 -47.85)"/><path class="cls-12" d="M270.86,219.87a48.32,48.32,0,0,1-13.57-41l-17,6.73-11-21A78.6,78.6,0,0,0,333.7,259l3-17.93-26.25-7.44a48.25,48.25,0,0,1-39.62-13.73" transform="translate(-179.14 -47.85)"/><polygon class="cls-11" points="215.61 159.42 248.48 192.29 248.86 170.37 267.87 168.63 237.13 137.89 215.61 159.42"/><polygon class="cls-11" points="215.61 116.38 187.57 88.34 167.76 90.15 167.4 111.2 194.09 137.9 215.61 116.38"/><path class="cls-12" d="M459.8,144.31a48.15,48.15,0,0,1,72.81,44.17l11.19,21.25,17.46-6.9A78.63,78.63,0,0,0,440.52,120.5l21.71,5.28Z" transform="translate(-179.14 -47.85)"/><path class="cls-11" d="M518.64,219.87a48.48,48.48,0,0,1-67.53.7l-18.74,1.7L432,244.34a79,79,0,0,0,108.17-3,78,78,0,0,0,19.73-33.23l-18.16,7.18-10.14-19.27a47.88,47.88,0,0,1-13,23.8" transform="translate(-179.14 -47.85)"/><path class="cls-13" d="M360.63,241.39l34.12-34.13,21.52-21.52,34.12-34.12a47.65,47.65,0,0,1,4.49-4l2.43-18.5-21.49-5.24a79,79,0,0,0-6.95,6.18l-34.12,34.12-21.52,21.52-34.12,34.13a47.74,47.74,0,0,1-19.32,11.75l22,6.23-3.22,19a78.12,78.12,0,0,0,22.07-15.5" transform="translate(-179.14 -47.85)"/><ellipse class="cls-14" cx="206.95" cy="370.73" rx="95.41" ry="11.48"/><path class="cls-3" d="M391.47,363.58l15.6,14.11,12.69-9.08,7.68,9.08c15.7-4,26.88-9,36-14.45l-9.92-6.1-32.8-3.64Z" transform="translate(-179.14 -47.85)"/><path class="cls-7" d="M370.16,311.56l19.09,1.78,5.29-19.59.95,33.32-3.21,35.23c1.64,12.23,70.3,7.82,71.12.94,1.58-13.19,0-23.91,0-28.13,4.52-.44,16.06-4,15.72-13.21C478.38,302,473.19,262,459.72,254c-6.64-3.82-21.47-7.2-21.47-7.2l-24.15-.16c-6.58.92-16.88,3.52-23.73,11.89A31.37,31.37,0,0,0,384.64,270C381.65,279.75,377.21,293,370.16,311.56Z" transform="translate(-179.14 -47.85)"/><path class="cls-3" d="M423.25,260.12l-5.54,6.95c-5.36-6.54-5.57-13.77-5.54-19.64l2.37-4,.48,3.23C416.45,252.43,423.25,260.12,423.25,260.12Z" transform="translate(-179.14 -47.85)"/><polygon class="cls-7" points="284.26 287.26 244.86 291.39 233.48 297.36 284.75 296.22 284.26 287.26"/><path class="cls-15" d="M406.14,324.5c2.56-.84,4.34,1.74,6.48,1.18s5.59-1.75,6.81-1.18c2.17,1,3.7,11.88,0,13.31s-14.11,1.67-14.11,1.67-5.83-3.84-5.47-4.37S406.14,324.5,406.14,324.5Z" transform="translate(-179.14 -47.85)"/><path class="cls-3" d="M425.47,259.77l5.55,7c5.36-6.54,5.56-13.77,5.54-19.64l-2.38-4-.48,3.23C432.27,252.08,425.47,259.77,425.47,259.77Z" transform="translate(-179.14 -47.85)"/><path class="cls-16" d="M449.67,275.85v34.77L419.43,324.5s6.84,18.25,1.25,29" transform="translate(-179.14 -47.85)"/><path class="cls-17" d="M411.07,219.34s-3.94-3.54-2.39-5.71c11.42-15.95,41.41-3.86,24.4,21.49C426.88,242,415.34,221.36,411.07,219.34Z" transform="translate(-179.14 -47.85)"/><path class="cls-18" d="M411,215.72s-1.12,12.67.07,17.85c1.1,4.82,4.54,7.53,5.75,7.7L415,251.57s7.55,7.16,9.62,7.56,8.86-9,8.86-9l-1.17-18.25c.79-.54,6.38-1.66,5.53-5.92-.56-2.84-4.18-2.15-5.95-.94.11-1.44-1.78-2.23-2.61-6.93S418.37,215.73,411,215.72Z" transform="translate(-179.14 -47.85)"/><path class="cls-19" d="M416.77,241.27s9.55,3.67,14.71-5.82c0,0-1.16,11.66-15.3,9.08Z" transform="translate(-179.14 -47.85)"/><path class="cls-20" d="M432.81,228.72a.32.32,0,0,1-.29-.2.33.33,0,0,1,.17-.43l3.63-1.48a.32.32,0,0,1,.42.17.33.33,0,0,1-.17.43l-3.63,1.48A.28.28,0,0,1,432.81,228.72Z" transform="translate(-179.14 -47.85)"/><path class="cls-20" d="M418.89,230.55c-.91,0-2.6-.13-2.75-1.11s1.66-5.06,2-5.86a.32.32,0,0,1,.43-.16.32.32,0,0,1,.16.43c-.81,1.78-2.06,4.86-2,5.5.06.4,1.39.61,2.55.55a.32.32,0,0,1,.34.3.32.32,0,0,1-.31.34Z" transform="translate(-179.14 -47.85)"/><path class="cls-17" d="M413.45,224.87a1,1,0,1,0,1.9.07,1,1,0,1,0-1.9-.07Z" transform="translate(-179.14 -47.85)"/><path class="cls-20" d="M425.17,221.74a.32.32,0,0,1-.27-.16,1.6,1.6,0,0,0-1-.78,3.62,3.62,0,0,0-2.3.54.32.32,0,0,1-.34-.54,4.14,4.14,0,0,1,2.78-.62,2.24,2.24,0,0,1,1.43,1.07.32.32,0,0,1-.11.44A.34.34,0,0,1,425.17,221.74Z" transform="translate(-179.14 -47.85)"/><path class="cls-20" d="M415.62,221.06a.37.37,0,0,1-.22-.08h0a2.11,2.11,0,0,0-1.37-.55,1,1,0,0,0-.72.46.33.33,0,0,1-.46.07.32.32,0,0,1-.06-.45,1.64,1.64,0,0,1,1.17-.72,2.72,2.72,0,0,1,1.87.71.31.31,0,0,1,0,.45A.32.32,0,0,1,415.62,221.06Z" transform="translate(-179.14 -47.85)"/><path class="cls-21" d="M422.43,232.45c-4.77,1.14-7.08.21-7.08.21s.33,3.19,3.28,3.48C422.84,236.55,422.43,232.45,422.43,232.45Z" transform="translate(-179.14 -47.85)"/><path class="cls-3" d="M415.53,232.72s.22.59.29.71.61.46,2.65.59a11.25,11.25,0,0,0,3.91-.55,4.24,4.24,0,0,0,0-1q-.41.11-.81.18a13.14,13.14,0,0,1-6.07.09Z" transform="translate(-179.14 -47.85)"/><path class="cls-17" d="M421.4,225.48a1,1,0,1,0,2,.07,1,1,0,0,0-.94-1.11A1,1,0,0,0,421.4,225.48Z" transform="translate(-179.14 -47.85)"/><path class="cls-6" d="M348.73,362.2l-20.94-53.84a7,7,0,0,1,6.36-9.7h65.23a6.88,6.88,0,0,1,6.5,4.77l18,54.3,21,.1c1.71,0,3.09,2.57,3.09,4.32h0l-23.12-.28Z" transform="translate(-179.14 -47.85)"/><path class="cls-3" d="M379.67,329.56c.38,3.92-2.82,7.07-7.18,7.18s-8.61-2.9-9.37-6.89c-.79-4.18,2.48-7.74,7.27-7.78S379.27,325.47,379.67,329.56Z" transform="translate(-179.14 -47.85)"/><polygon class="cls-22" points="217.56 350.25 230.76 361.47 216.69 363.45 202.23 356.36 217.56 350.25"/><path class="cls-22" d="M311.93,338.5s-10,3.57-10,14.79c-.08,21.48,43.41,45.17,43.41,45.17l57.88-38.35,3.63-1.47S328.68,329.29,311.93,338.5Z" transform="translate(-179.14 -47.85)"/><path class="cls-4" d="M355.85,401.52s-27.26-5.82-36-1.61-21.47,9.11-17.16,12.25,20.22,7.39,29.41,6.56c3.28-.3,7.89-.8,12.48-1.51a6.72,6.72,0,0,0,.73.05.64.64,0,0,0,.49-.25c7.84-1.29,15.24-3.23,15.36-5.91C361.4,406.71,355.85,401.52,355.85,401.52Z" transform="translate(-179.14 -47.85)"/><path class="cls-23" d="M339.82,401.07S421.6,347.43,425,346.31s11.44-6.42,19.53-4.19,15.35,9.49,19,20.09c2.07,6.06,3.05,16.4,3.51,24.15a35.78,35.78,0,0,1-8.39,25.54,22.86,22.86,0,0,1-10.19,7.24c-.85.26-1.74.49-2.65.69-15.46,3.35-31.35-3.59-40-16.81l-1.91-2.9s-53.5,19.65-54.33,19.37Z" transform="translate(-179.14 -47.85)"/><path class="cls-4" d="M401.14,404.54s-24.29-8.38-30.33-6.43,4.16,16.39,22.34,17.55,27.54-3.12,26.29-8.76S401.14,404.54,401.14,404.54Z" transform="translate(-179.14 -47.85)"/><path class="cls-24" d="M400.85,407.62s-24.29-8.38-30.33-6.43,4.16,16.39,22.34,17.55,27.54-3.12,26.29-8.77S400.85,407.62,400.85,407.62Z" transform="translate(-179.14 -47.85)"/><ellipse class="cls-14" cx="332.02" cy="357.69" rx="33.42" ry="7.86"/><path class="cls-25" d="M539.19,248a.77.77,0,0,0-.75-.56c-7.26.12-16.37.14-22.52,4.63-5.73,4.18-6.59,11.57-6.46,18.15a.78.78,0,0,0,1.23.6l.06,0A21.15,21.15,0,0,0,539.19,248Z" transform="translate(-179.14 -47.85)"/><path class="cls-26" d="M504,277.75c.06-5.06-1.12-10.18-5-13.69-4.46-4-10.9-6.32-16.16-9.05-.54-.28-1.4.2-1.13.87,2.38,6.06,2,13.46,6.25,18.72a13.9,13.9,0,0,0,15,4.33.72.72,0,0,0,.49-.48A.7.7,0,0,0,504,277.75Z" transform="translate(-179.14 -47.85)"/><path class="cls-26" d="M551,294.23c-3.58-2.77-8.18-2.49-12.51-2.3a35.94,35.94,0,0,0-14,3c-7.61,3.62-13,11.61-10.2,20.06a.74.74,0,0,0,.51.9c7.25,2.3,10.75-2.55,15.12-7.37a46.12,46.12,0,0,1,20.72-13C551.12,295.36,551.45,294.6,551,294.23Z" transform="translate(-179.14 -47.85)"/><path class="cls-26" d="M568.32,312.3l-.27-.13c-3.08-1.32-5.84-3.83-8.64-6.25,0,0,0,0,0,0-3.07-2.65-6.19-5.16-9.84-5.82a.15.15,0,0,0-.09,0,10.82,10.82,0,0,0-5.42.45c-7.77,2.59-12.54,10.67-13.31,18.45a.77.77,0,0,0,.12.45s0,.07,0,.12a.84.84,0,0,0,.69,1.07,60.39,60.39,0,0,0,19.69-1.35c5.78-1.22,12.31-2.2,17.33-5.54A.78.78,0,0,0,568.32,312.3Z" transform="translate(-179.14 -47.85)"/><path class="cls-26" d="M556.77,327.18c-8.49-1.7-26-6-27.24,7.52a.64.64,0,0,0,.57.71c7.71,9,22.7,1.87,27.13-7.09A.78.78,0,0,0,556.77,327.18Z" transform="translate(-179.14 -47.85)"/><path class="cls-25" d="M503,300c-2.25-5-7.48-10.14-12.63-12a.78.78,0,0,0-1,.75c.09,9.82-2.32,25.28,8.36,30.72a.71.71,0,0,0,.23.06.75.75,0,0,0,1.3,0C502.53,313.58,506,306.69,503,300Z" transform="translate(-179.14 -47.85)"/><path class="cls-26" d="M475.13,306.21a18.81,18.81,0,0,0-19.54-2.11c-8.42,4.28-6.91,14.43-8.19,22.24a.77.77,0,0,0,1.28.75c8.33-7.3,19.94-10.17,26.29-19.73h0A.68.68,0,0,0,475.13,306.21Z" transform="translate(-179.14 -47.85)"/><path class="cls-25" d="M475.18,314a.74.74,0,0,0-.95-.28.73.73,0,0,0-1-.21c-4.17,2.29-9.06,5.48-9.89,10.53-1,6,2.4,11.88,2.79,17.81.05.81,1.34,1.11,1.51.2,1.07-5.69,7-8.29,9.14-13.41C478.6,324.38,477.66,317.74,475.18,314Z" transform="translate(-179.14 -47.85)"/><path class="cls-25" d="M500.92,348.88C496,342,491,336.12,482.47,334a.78.78,0,0,0-.87,1.13c1.91,2.88,1.87,6.15,3.48,9a11.64,11.64,0,0,0,4.15,4c3.63,2.3,8.31,4.38,12.35,2.06A.77.77,0,0,0,500.92,348.88Z" transform="translate(-179.14 -47.85)"/><path class="cls-26" d="M512,340.76a.68.68,0,0,0-.09-.22c-3.36-5.38-3.51-12.21-8.16-16.84a.78.78,0,0,0-1.21.16c-2.28,3.65-3.38,8-1.57,12.12,2,4.43,6.08,5.64,10.57,6.11C512.3,342.17,512.44,341.2,512,340.76Z" transform="translate(-179.14 -47.85)"/><path class="cls-26" d="M521.41,280.66c-1-.8-2.24,0-3.19.4a24.15,24.15,0,0,0-5.08,2.79,11.85,11.85,0,0,0-5.1,8.88.86.86,0,0,0,0,.28c0,.1,0,.2,0,.31a.77.77,0,0,0,1.47.31c3.73-.82,6.68-3.22,9.12-6.1C519.73,286.21,523.65,282.54,521.41,280.66Z" transform="translate(-179.14 -47.85)"/><path class="cls-26" d="M523.1,341.38c-.12-.11-.21-.24-.33-.35,1-6.57,1.37-14.18-5.1-18a.78.78,0,0,0-1.13.46,19.36,19.36,0,0,0,5.47,19C522.73,343.15,523.82,342.06,523.1,341.38Z" transform="translate(-179.14 -47.85)"/><path class="cls-25" d="M567.66,311.53c-2.85-1.27-5.53-3.45-8.25-5.61,0,0,0,0,0,0-3.13-2.48-6.3-4.91-9.84-5.82a.15.15,0,0,0-.09,0,10.82,10.82,0,0,0-5.42.45c-7.77,2.59-12.54,10.67-13.31,18.45a.77.77,0,0,0,.12.45s0,.07,0,.12a.85.85,0,0,0,.66-.37.69.69,0,0,0,.42-.22c2.52-2.69,5.22-5.2,7.86-7.77a37.73,37.73,0,0,1,4-3.82c3.08-2.2,5.73-1.79,9-.85a55.27,55.27,0,0,1,10.9,5.05c1.31.74,2.59,2,4.08,1.31a.72.72,0,0,0,.39-.68A.67.67,0,0,0,567.66,311.53Z" transform="translate(-179.14 -47.85)"/><path class="cls-27" d="M499.48,337.45c-.73-3-1.55-6-2.57-9,0,0,0,0,0-.07a42.17,42.17,0,0,0,1.63-14.33.71.71,0,0,0,.59-.52,24.77,24.77,0,0,0,1.13-8.68c-.05-1-1.59-1-1.54,0a23.79,23.79,0,0,1-.49,6,42.81,42.81,0,0,0-1.48-6.8c-.29-.94-1.78-.54-1.48.41a40.29,40.29,0,0,1,.68,21.42,40.47,40.47,0,0,0-5.68-10.28c-5.7-7.31-16.07-11.74-24.28-8.3a.69.69,0,0,0-.55-.63,12,12,0,0,0-9.19,1.4.77.77,0,0,0,.78,1.33,10.47,10.47,0,0,1,7.42-1.36,16.29,16.29,0,0,0-5.16,4.71c-.58.8.75,1.57,1.33.78,3.93-5.47,11.09-7.19,17.36-5.15a20,20,0,0,1,5.05,2.5c-6.56-.14-11.54,4.25-16,8.62a.77.77,0,0,0,1.09,1.09c.89-.86,1.8-1.74,2.73-2.57a17.58,17.58,0,0,0-.14,4.7c.1,1,1.64,1,1.54,0a16.45,16.45,0,0,1,.44-6,.61.61,0,0,0,0-.3c3.18-2.5,6.72-4.33,11.08-4a.63.63,0,0,0,.7-.51,31,31,0,0,1,8.23,10.46c4,7.87,6.22,16.87,7.5,25.88a16.65,16.65,0,0,1-8.19-4.93c-.67-.74-1.76.36-1.09,1.09a18.73,18.73,0,0,0,3.77,3.14,18.31,18.31,0,0,1-2.66-.19c-1-.15-1.38,1.33-.4,1.49a20.51,20.51,0,0,0,4.43.22.75.75,0,0,0,.64-.43,18.2,18.2,0,0,0,3.58,1.22h.15c.56,4.36.9,8.71,1.1,12.93.05,1,1.59,1,1.54,0A133,133,0,0,0,499.48,337.45Z" transform="translate(-179.14 -47.85)"/><path class="cls-27" d="M525,305.79c-1.39,1-2.7,2.08-4,3.21a23.86,23.86,0,0,1,3.56-7.61c.57-.82-.77-1.59-1.33-.78a25.09,25.09,0,0,0-4.1,9.45.79.79,0,0,0,.11.58,50.2,50.2,0,0,0-8.72,11.41q-.63-8-1-15.94c-.18-3.78-.47-8-.58-12.37,1.78-2.4,3.67-4.76,6.43-6.06.9-.42.12-1.75-.77-1.33a16.28,16.28,0,0,0-5.7,4.92c0-2,0-4.1.15-6.14a.77.77,0,0,0,0-.71c.78-10.87,4-21.14,14.45-25.94.9-.42.12-1.74-.78-1.33a22.9,22.9,0,0,0-6.64,4.58,10.11,10.11,0,0,1,.71-4.37c.36-.93-1.13-1.33-1.49-.41a11.66,11.66,0,0,0-.62,6.19l0,.08c-4.43,5.28-6.26,12.35-6.92,19.66l-6.7-7.77a.63.63,0,0,0,.36-.64,11.53,11.53,0,0,0-2.07-6c-.57-.8-1.9,0-1.33.78a10,10,0,0,1,1.74,4.32l-2.48-2.88c-.65-.75-1.74.34-1.09,1.09l11.41,13.24c-.17,2.69-.19,5.39-.15,8l-.1.14a.61.61,0,0,0,.11.89c.06,2.6.16,5.13.26,7.51q.74,18.42,2.77,36.74c-2.78-1.53-4.3-4.42-5.68-7.18-.44-.89-1.77-.11-1.33.77,1.58,3.18,3.4,6.5,6.77,8a.9.9,0,0,0,.42.06q1.32,11.76,3.15,23.46c.16,1,1.64.56,1.49-.41q-3-19.2-4.63-38.58a.67.67,0,0,0,.36-.33,48.51,48.51,0,0,1,14.67-17.08C526.6,306.55,525.84,305.21,525,305.79Z" transform="translate(-179.14 -47.85)"/><path class="cls-27" d="M550.51,307a18.81,18.81,0,0,0-8.87,2.05,30.23,30.23,0,0,1,3.69-3.37c.78-.59,0-1.93-.77-1.33a33,33,0,0,0-6.74,6.91.78.78,0,0,0-.13.3c-5.21,4.09-9.06,10.33-11.46,16.29A71.14,71.14,0,0,0,522.86,339a23.28,23.28,0,0,1-1.87-4.66,5.25,5.25,0,0,0-2-3.16c-.84-.53-1.62.8-.78,1.33,1.25.78,1.54,3,2,4.33a14.12,14.12,0,0,0,1.69,3.55.76.76,0,0,0,.6.32c-1.86,9.31-2.38,19-3.27,28.31-.1,1,1.44,1,1.54,0,.83-8.68,1.37-17.56,2.94-26.19a.69.69,0,0,0,.32-.21c2.91-3.21,5.92-6.44,9.59-8.67a10.65,10.65,0,0,0,3.84,2.29c.94.32,1.34-1.16.41-1.48A9.07,9.07,0,0,1,535,333.2a19.35,19.35,0,0,1,3.21-1.33.77.77,0,0,0-.41-1.48,20.25,20.25,0,0,0-4.18,1.79.8.8,0,0,0-.59.35,40.59,40.59,0,0,0-8.82,7.61c.51-2.43,1.09-4.83,1.83-7.2a49.85,49.85,0,0,1,7.11-14.56h.09a29.8,29.8,0,0,1,5.36-1.25c1-.13.57-1.61-.4-1.48a29.47,29.47,0,0,0-3.39.68c4-4.63,9.21-7.89,15.67-7.77A.77.77,0,0,0,550.51,307Z" transform="translate(-179.14 -47.85)"/><polygon class="cls-7" points="358.52 307.14 357.3 314.77 355.1 328.44 350.32 358.23 315.29 358.23 310.5 328.44 308.3 314.77 307.08 307.14 358.52 307.14"/><polygon class="cls-28" points="321.7 314.77 320.48 307.14 307.08 307.14 308.3 314.77 310.5 328.44 315.29 358.23 328.69 358.23 323.9 328.44 321.7 314.77"/><path class="cls-29" d="M600.59,360.89h-3.37v-3.38a1.31,1.31,0,0,0-2.62,0v3.38h-3.37a1.3,1.3,0,0,0-1.31,1.3,1.32,1.32,0,0,0,1.31,1.32h3.37v3.36a1.31,1.31,0,1,0,2.62,0v-3.36h3.37a1.32,1.32,0,0,0,1.31-1.32A1.3,1.3,0,0,0,600.59,360.89Z" transform="translate(-179.14 -47.85)"/><path class="cls-29" d="M189.81,243.05h-3.36v-3.38a1.32,1.32,0,0,0-2.63,0v3.38h-3.37a1.3,1.3,0,0,0-1.31,1.3,1.32,1.32,0,0,0,1.31,1.32h3.37V249a1.32,1.32,0,1,0,2.63,0v-3.36h3.36a1.32,1.32,0,0,0,1.31-1.32A1.3,1.3,0,0,0,189.81,243.05Z" transform="translate(-179.14 -47.85)"/><path class="cls-29" d="M565.15,362.2a5.87,5.87,0,1,0,5.87-5.88A5.89,5.89,0,0,0,565.15,362.2Zm2.25,0a3.62,3.62,0,1,1,3.62,3.61A3.63,3.63,0,0,1,567.4,362.2Z" transform="translate(-179.14 -47.85)"/><path class="cls-29" d="M563,266.72a5.87,5.87,0,1,0,5.86-5.87A5.87,5.87,0,0,0,563,266.72Zm2.25,0a3.62,3.62,0,1,1,3.61,3.62A3.62,3.62,0,0,1,565.26,266.72Z" transform="translate(-179.14 -47.85)"/><path class="cls-29" d="M197.13,220.43a5.87,5.87,0,1,0,5.87-5.87A5.89,5.89,0,0,0,197.13,220.43Zm2.25,0a3.62,3.62,0,1,1,3.62,3.62A3.63,3.63,0,0,1,199.38,220.43Z" transform="translate(-179.14 -47.85)"/><path class="cls-29" d="M203.49,242.88a1.48,1.48,0,0,0-1.48,1.48,1.46,1.46,0,0,0,1.48,1.47h14.79a1.47,1.47,0,0,0,1.49-1.47,1.49,1.49,0,0,0-1.49-1.48Z" transform="translate(-179.14 -47.85)"/><path class="cls-29" d="M224.62,242.88a1.49,1.49,0,0,0-1.48,1.48,1.47,1.47,0,0,0,1.48,1.47h2.72a1.46,1.46,0,0,0,1.48-1.47,1.48,1.48,0,0,0-1.48-1.48Z" transform="translate(-179.14 -47.85)"/><path class="cls-29" d="M564.59,337a1.48,1.48,0,0,0-1.48,1.48,1.46,1.46,0,0,0,1.48,1.47h14.8a1.46,1.46,0,0,0,1.48-1.47,1.48,1.48,0,0,0-1.48-1.48Z" transform="translate(-179.14 -47.85)"/><path class="cls-29" d="M585.73,337a1.48,1.48,0,0,0-1.48,1.48,1.46,1.46,0,0,0,1.48,1.47h2.71a1.46,1.46,0,0,0,1.48-1.47,1.48,1.48,0,0,0-1.48-1.48Z" transform="translate(-179.14 -47.85)"/><path class="cls-29" d="M286.56,201a1.49,1.49,0,0,0-1.48,1.49,1.47,1.47,0,0,0,1.48,1.47h14.79a1.48,1.48,0,0,0,1.49-1.47,1.49,1.49,0,0,0-1.49-1.49Z" transform="translate(-179.14 -47.85)"/><path class="cls-29" d="M307.69,201a1.49,1.49,0,0,0-1.48,1.49,1.47,1.47,0,0,0,1.48,1.47h2.72a1.47,1.47,0,0,0,1.48-1.47,1.49,1.49,0,0,0-1.48-1.49Z" transform="translate(-179.14 -47.85)"/><path class="cls-30" d="M410.31,97.47l.57-1.73-4-2.7-3,1.93a14,14,0,0,0-4.27-2.43l.14-3.55-5-2.42-.57,1.72-.74,3.47a14,14,0,0,0-4.74,1.3l-2.41-2.6-3.85,1.71-.58,1.73,1.93,3a14,14,0,0,0-2.43,4.27l-3-1.87-.58,1.73-.7,5.55,3.47.75a14.32,14.32,0,0,0,1.3,4.74l-2,.68-.57,1.73,3.44,4.42,3-1.92a14.18,14.18,0,0,0,4.27,2.43l-.14,3.54,5.56.7.57-1.73.17-1.74a14,14,0,0,0,4.74-1.3l2.41,2.61,4.42-3.44.58-1.73-2.5-1.25a14.21,14.21,0,0,0,2.43-4.27l3.54.14.58-1.73.12-3.83-3.47-.74a14,14,0,0,0-1.3-4.74ZM400.23,113a8.84,8.84,0,1,1,1.56-12.41A8.86,8.86,0,0,1,400.23,113Z" transform="translate(-179.14 -47.85)"/><path class="cls-6" d="M410.88,95.74l-3.44-4.43-3,1.93a14.09,14.09,0,0,0-4.27-2.43l.14-3.55-5.56-.69L394,90a14.32,14.32,0,0,0-4.74,1.3l-2.41-2.6-4.42,3.44,1.92,3A14,14,0,0,0,382,99.42l-3.54-.14-.7,5.56,3.47.74a14.08,14.08,0,0,0,1.3,4.74l-2.61,2.41,3.44,4.42,3-1.92a14.21,14.21,0,0,0,4.27,2.43l-.14,3.54,5.56.7.74-3.47a14,14,0,0,0,4.74-1.3l2.41,2.61,4.43-3.44-1.93-3a14.21,14.21,0,0,0,2.43-4.27l3.55.14.69-5.56-3.46-.74a14.43,14.43,0,0,0-1.3-4.74ZM400.8,111.22a8.84,8.84,0,1,1,1.56-12.41A8.86,8.86,0,0,1,400.8,111.22Z" transform="translate(-179.14 -47.85)"/><path class="cls-28" d="M411,61.91l.44-1.77-2.91-3.27-3.32,1.28a14.33,14.33,0,0,0-3.71-3.25l.86-3.46L397,49.62l-1.44,3.26a14.36,14.36,0,0,0-4.92.31l-1.84-3-4.62.7-.43,1.77,1.29,3.32a14.21,14.21,0,0,0-3.26,3.71l-3.46-.86L377,62.33l-.43,1.78,3.25,1.44a14.14,14.14,0,0,0,.32,4.92l-2.62.06L377,72.31l2.48,5,3.32-1.29a14.17,14.17,0,0,0,3.7,3.26l-.85,3.46L391,84.6l1.44-3.25a14.11,14.11,0,0,0,4.92-.32l1.84,3,5.05-2.48.43-1.77L403,78.28a14.29,14.29,0,0,0,3.25-3.7l3.46.85,1.82-5.32.43-1.77-3.69.34a14.35,14.35,0,0,0-.31-4.92ZM397.92,75.08A8.87,8.87,0,1,1,402,63.2,8.88,8.88,0,0,1,397.92,75.08Z" transform="translate(-179.14 -47.85)"/><path class="cls-7" d="M411.41,60.14l-2.48-5-3.32,1.29a14,14,0,0,0-3.71-3.26l.86-3.46-5.32-1.81L396,51.1a14.14,14.14,0,0,0-4.92.32l-1.84-3.05-5.05,2.48,1.29,3.32a14.17,14.17,0,0,0-3.26,3.7L378.76,57,377,62.33l3.26,1.44a14.1,14.1,0,0,0,.31,4.92l-3,1.84,2.48,5,3.32-1.28a14.29,14.29,0,0,0,3.7,3.25L386.12,81l5.32,1.82,1.43-3.26a14.4,14.4,0,0,0,4.93-.31l1.84,3,5-2.47-1.28-3.32a14.56,14.56,0,0,0,3.26-3.71l3.45.86,1.82-5.32-3.26-1.44a14.36,14.36,0,0,0-.31-4.92ZM398.35,73.3a8.87,8.87,0,1,1,4-11.87A8.88,8.88,0,0,1,398.35,73.3Z" transform="translate(-179.14 -47.85)"/><path class="cls-31" d="M447.45,70.49l.69-2.09-6.13-2-2.86,3.21a16.87,16.87,0,0,0-5.77-1.46l-1-4.19-6-1.12-.7,2.1.25,4.29a17,17,0,0,0-5.12,3L417.16,70l-3.37,3.35-.69,2.09,3.21,2.86a17.11,17.11,0,0,0-1.47,5.77L411.35,83l-.69,2.1,1,6.71,4.29-.25a17.22,17.22,0,0,0,3,5.12l-1.57,1.56-.69,2.09,5.44,4.06,2.86-3.2a17.21,17.21,0,0,0,5.77,1.46l1,4.18,6.71-1,.7-2.09-.94-2.2a17.18,17.18,0,0,0,5.11-3l3.66,2.26,4.06-5.44.69-2.09-3.9-.77a17.05,17.05,0,0,0,1.47-5.77l4.18-1,.69-2.09L452.52,79l-4.29.25a17.13,17.13,0,0,0-3.05-5.12Zm-6.8,21.33a10.71,10.71,0,1,1-2.17-15A10.7,10.7,0,0,1,440.65,91.82Z" transform="translate(-179.14 -47.85)"/><path class="cls-4" d="M448.14,68.4l-5.44-4.06-2.86,3.21a17.05,17.05,0,0,0-5.77-1.47l-1-4.18-6.71,1,.25,4.29a17.22,17.22,0,0,0-5.12,3l-3.66-2.26-4.06,5.44L417,76.24A17,17,0,0,0,415.54,82l-4.19,1,1,6.71,4.29-.24a17.33,17.33,0,0,0,3.05,5.11l-2.27,3.66,5.44,4.06,2.86-3.21a17.29,17.29,0,0,0,5.77,1.47l1,4.18,6.71-1-.25-4.29a17,17,0,0,0,5.12-3l3.65,2.27,4.06-5.44-3.2-2.86A17.34,17.34,0,0,0,450,84.62l4.18-1-1-6.72-4.29.25a17.22,17.22,0,0,0-3-5.12Zm-6.79,21.32a10.71,10.71,0,1,1-2.17-15A10.71,10.71,0,0,1,441.35,89.72Z" transform="translate(-179.14 -47.85)"/><rect class="cls-4" x="59.56" y="35.82" width="76.94" height="40.64" rx="3.26"/><path class="cls-32" d="M238.7,93.25v33.48A3.27,3.27,0,0,0,242,130h70.42a3.27,3.27,0,0,0,3.26-3.26V93.25Z" transform="translate(-179.14 -47.85)"/><path class="cls-23" d="M250.59,88.64a2.5,2.5,0,1,1-2.5-2.5A2.49,2.49,0,0,1,250.59,88.64Z" transform="translate(-179.14 -47.85)"/><path class="cls-23" d="M260.11,88.64a2.5,2.5,0,1,1-2.5-2.5A2.49,2.49,0,0,1,260.11,88.64Z" transform="translate(-179.14 -47.85)"/></g><g id="TEXTS"><text class="cls-33" transform="translate(78.46 70.16)">{...}</text></g></svg>