<svg xmlns="http://www.w3.org/2000/svg" viewBox="0 0 420.56 314.18">
  <defs>
    <style>
      .cls-1 {
        isolation: isolate;
      }

      .cls-2 {
        fill: #fdeacf;
      }

      .cls-3 {
        fill: #49263e;
      }

      .cls-4 {
        fill: #fff;
      }

      .cls-5 {
        fill: #aedff4;
      }

      .cls-6 {
        fill: #4cb7d8;
      }

      .cls-7 {
        fill: #b1e8fc;
      }

      .cls-8 {
        fill: #dcf4ff;
      }

      .cls-9 {
        fill: #ff424d;
      }

      .cls-10 {
        fill: #21111d;
      }

      .cls-11 {
        fill: #fecc86;
      }

      .cls-12, .cls-18 {
        opacity: 0.3;
      }

      .cls-12, .cls-22 {
        mix-blend-mode: multiply;
      }

      .cls-13 {
        fill: #f99247;
      }

      .cls-14 {
        opacity: 0.5;
      }

      .cls-15 {
        fill: #f3fffe;
      }

      .cls-16 {
        fill: #fe9f73;
      }

      .cls-17 {
        fill: #f07162;
      }

      .cls-19 {
        fill: #5fb28a;
      }

      .cls-20 {
        fill: #7fc6a6;
      }

      .cls-21 {
        fill: #ffb357;
      }

      .cls-23 {
        fill: #d4eef4;
      }

      .cls-24 {
        fill: #fd7583;
      }

      .cls-25 {
        fill: #fec786;
      }

      .cls-26 {
        fill: #ef293d;
      }

      .cls-27 {
        fill: #f75553;
      }

      .cls-28 {
        fill: #aac9f8;
      }

      .cls-29 {
        fill: #258d8c;
      }

      .cls-30 {
        fill: #fbfdfc;
      }

      .cls-31 {
        fill: #e2f2f1;
      }

      .cls-32 {
        fill: #33192c;
      }

      .cls-33 {
        fill: #fc4963;
      }

      .cls-34 {
        fill: #f7d6b2;
      }

      .cls-35 {
        fill: #4c222e;
      }
    </style>
  </defs>
  <g class="cls-1">
    <g id="Layer_1" data-name="Layer 1">
      <path class="cls-2" d="M117.48,347.19c7.45-31,50.37-78,103.06-81.49,64.28-4.26,58.78-82.08,178.6-67,32.93,4.16,76.3,38.26,102.77,92.45,19.71,40.36,59.44,99.16-4.18,198.2h-256l-85.07-.32s-63.91-39.26-39.22-141.88" transform="translate(-111.81 -175.74)"/>
      <path class="cls-3" d="M250.75,256.55l166.36-.3a5.41,5.41,0,0,1,5.4,5.44l.4,221.94a5.42,5.42,0,0,1-5.39,5.46l-166.36.3a5.41,5.41,0,0,1-5.4-5.44L245.36,262A5.42,5.42,0,0,1,250.75,256.55Z" transform="translate(-111.81 -175.74)"/>
      <polygon class="cls-4" points="145.16 299.36 145.16 91.28 299.54 91.28 299.54 261.78 263.35 299.36 145.16 299.36"/>
      <rect class="cls-5" x="231.67" y="97.92" width="56.76" height="68.06"/>
      <path class="cls-6" d="M334.15,242.14A24.78,24.78,0,0,0,309.42,267v0h49.47v0A24.78,24.78,0,0,0,334.15,242.14Zm0,18.65a4.4,4.4,0,1,1,4.38-4.39A4.39,4.39,0,0,1,334.15,260.79Z" transform="translate(-111.81 -175.74)"/>
      <g>
        <rect class="cls-7" x="157.31" y="102.3" width="58.15" height="2.62"/>
        <rect class="cls-7" x="157.31" y="113.9" width="58.15" height="2.62"/>
      </g>
      <g>
        <rect class="cls-7" x="157.31" y="127.03" width="58.15" height="2.62"/>
        <rect class="cls-7" x="157.31" y="138.63" width="58.15" height="2.62"/>
      </g>
      <g>
        <rect class="cls-7" x="157.31" y="151.77" width="58.15" height="2.62"/>
        <rect class="cls-7" x="157.31" y="163.36" width="58.15" height="2.62"/>
      </g>
      <polygon class="cls-8" points="299.54 261.78 263.35 299.36 263.35 261.78 299.54 261.78"/>
      <g>
        <path class="cls-7" d="M299,404.94H269.12v-30H299Zm-27.76-2.17h25.6v-25.7h-25.6Z" transform="translate(-111.81 -175.74)"/>
        <g>
          <rect class="cls-7" x="194.77" y="198.83" width="91.62" height="3.08"/>
          <rect class="cls-7" x="194.77" y="212.45" width="91.62" height="3.08"/>
        </g>
        <path class="cls-9" d="M283.69,400.69l-9-13.78a.7.7,0,0,1,.18-1,.66.66,0,0,1,.93.19l7.56,11.59L293,372.42a.67.67,0,0,1,.87-.39.69.69,0,0,1,.38.89Z" transform="translate(-111.81 -175.74)"/>
      </g>
      <g>
        <path class="cls-7" d="M299,446.16H269.12v-30H299ZM271.28,444h25.6V418.3h-25.6Z" transform="translate(-111.81 -175.74)"/>
        <g>
          <rect class="cls-7" x="194.77" y="240.24" width="91.62" height="3.08"/>
          <rect class="cls-7" x="194.77" y="253.86" width="91.62" height="3.08"/>
        </g>
        <path class="cls-9" d="M284.53,440.59,273.6,424.13a.88.88,0,0,1,.23-1.19.81.81,0,0,1,1.15.23l9.16,13.75,11.91-31.38a.82.82,0,0,1,1.08-.48.86.86,0,0,1,.47,1.11Z" transform="translate(-111.81 -175.74)"/>
      </g>
      <path class="cls-4" d="M154.44,323.88a107.49,107.49,0,0,1,14,0,3.71,3.71,0,0,0,4-3.77,5.73,5.73,0,0,0-1.17-3.14c-3.21-4.57-8.79-.2-8.74,2.12,0,0-1.13-3.5-4.55-2.89s-2.22,5.7-2.22,5.7a2.77,2.77,0,0,0-1.87.29A.91.91,0,0,0,154.44,323.88Z" transform="translate(-111.81 -175.74)"/>
      <path class="cls-4" d="M134.92,344.62c9.7-1.17,10.2,10.27,10.2,10.27s5.5-6.07,8.49,1.33c0,0,5.92-3,8.76.6a2.7,2.7,0,0,1,0,3.39H123.45" transform="translate(-111.81 -175.74)"/>
      <path class="cls-4" d="M443.17,322.54a2.34,2.34,0,0,1,.34-2.05c.83-1.14,2.34-2.11,5-2.28,0,0-2.92-13,8.42-14.42,11.65-1.4,12.25,12.35,12.25,12.35s6.61-7.3,10.21,1.59c0,0,7.11-3.6,10.52.73a3.26,3.26,0,0,1,0,4.08Z" transform="translate(-111.81 -175.74)"/>
      <polyline class="cls-10" points="25.31 313.12 394.91 313.12 394.91 314.18 25.31 314.18"/>
      <g>
        <g>
          <path class="cls-11" d="M465.35,228.69a35.51,35.51,0,1,0-60.77,25.05h0s10.75,11.54,14.38,24.11c0,0,6.21,2.11,10.89,2.23,4.68-.12,10.89-2.23,10.89-2.23,3.63-12.57,14.37-24.11,14.37-24.11h0A35.6,35.6,0,0,0,465.35,228.69Z" transform="translate(-111.81 -175.74)"/>
          <path class="cls-6" d="M429.83,298.8h0a5.53,5.53,0,0,1-5.52-5.54h11A5.53,5.53,0,0,1,429.83,298.8Z" transform="translate(-111.81 -175.74)"/>
          <path class="cls-6" d="M306.19,99.26h23.68a0,0,0,0,1,0,0v9.12A10.64,10.64,0,0,1,319.22,119h-2.39a10.64,10.64,0,0,1-10.64-10.64V99.26a0,0,0,0,1,0,0Z"/>
          <g class="cls-12">
            <path class="cls-11" d="M465.35,228.69A35.55,35.55,0,0,0,459.42,209c-10.38,25.69-26.95,43-50.81,49.67A67.33,67.33,0,0,1,418,275h23.66c4.26-11.42,13.43-21.27,13.43-21.27h0A35.6,35.6,0,0,0,465.35,228.69Z" transform="translate(-111.81 -175.74)"/>
          </g>
        </g>
        <path class="cls-13" d="M435.64,275.15l-1-.28c0-.12,3.35-12.35,5.65-24.87,4-21.72,1.69-26.33,0-27.14s-3.14-.68-4.11.44l-.21.26a6.58,6.58,0,0,1,3.23,4.64c.39,2.52-.73,5-2.51,5.61a1.65,1.65,0,0,1-2-.87c-1.13-1.73-1.49-6-.22-8.91a11.64,11.64,0,0,0-4.41-.77h-1a11.68,11.68,0,0,0-4.41.77c1.27,2.87.92,7.18-.22,8.91a1.65,1.65,0,0,1-2,.87c-1.78-.57-2.9-3.09-2.51-5.61a6.65,6.65,0,0,1,3.23-4.64c-.07-.09-.13-.18-.2-.26-1-1.12-2.36-1.27-4.12-.44s-4,5.42,0,27.14c2.29,12.52,5.61,24.75,5.64,24.87l-1,.28c0-.13-3.35-12.39-5.66-24.95-3.18-17.34-3-26.6.61-28.3,2.79-1.31,4.46-.34,5.36.71a4.17,4.17,0,0,1,.36.47,12.47,12.47,0,0,1,4.93-.88h1a12.47,12.47,0,0,1,4.93.88,4.17,4.17,0,0,1,.36-.47c.9-1.05,2.57-2,5.36-.71,3.59,1.7,3.79,11,.61,28.3C439,262.76,435.67,275,435.64,275.15Zm-12-50.65a5.36,5.36,0,0,0-2.71,3.87c-.34,2.2.65,4.07,1.79,4.44.11,0,.39.12.77-.46C424.48,230.88,424.74,227,423.66,224.5Zm11.74,0c-1.08,2.48-.82,6.38.15,7.85.38.58.67.49.77.46,1.14-.37,2.13-2.24,1.79-4.44A5.3,5.3,0,0,0,435.4,224.5Z" transform="translate(-111.81 -175.74)"/>
        <path class="cls-10" d="M417.82,275.26c-.28-.82-.41-1.11-.69-1.77l-.15-.35c-4.44-10.4-12.52-19.13-12.6-19.22l0,0A35.84,35.84,0,1,1,459.79,209l-.44.29a35.3,35.3,0,1,0-54.59,44.22l.35.35h0c1.55,1.73,8.41,9.72,12.38,19l.15.36c.29.66.42,1,.71,1.79Z" transform="translate(-111.81 -175.74)"/>
        <path class="cls-10" d="M405,212.23l-.51-.15c0-.08,2.65-8.86,11.49-12.16l.18.5C407.62,203.62,405.06,212.15,405,212.23Z" transform="translate(-111.81 -175.74)"/>
        <path class="cls-10" d="M406.67,215.4l-.51-.14c0-.09,2.65-8.87,11.49-12.17l.18.5C409.25,206.79,406.69,215.32,406.67,215.4Z" transform="translate(-111.81 -175.74)"/>
        <path class="cls-10" d="M431.12,295h-2.58a10.85,10.85,0,0,1-10.81-10.86v-9.44h23.94v.53H418.26v8.91a10.31,10.31,0,0,0,10.28,10.33h2.58a10.15,10.15,0,0,0,7.21-3l.37.38A10.71,10.71,0,0,1,431.12,295Z" transform="translate(-111.81 -175.74)"/>
        <path class="cls-10" d="M430,299.06c-5.13,0-5.87-5-5.88-5.05l.53-.07a5.3,5.3,0,0,0,5.52,4.59l0,.53Z" transform="translate(-111.81 -175.74)"/>
        <path class="cls-10" d="M454.19,248.64l-.31-.42a15.15,15.15,0,0,0,5.43-9.38l.52.06A15.69,15.69,0,0,1,454.19,248.64Z" transform="translate(-111.81 -175.74)"/>
        <path class="cls-10" d="M453.15,246.1l-.31-.42a11,11,0,0,0,4-6.84l.52.06A11.28,11.28,0,0,1,453.15,246.1Z" transform="translate(-111.81 -175.74)"/>
        <path class="cls-10" d="M416.9,279.76v-.53c.2,0,20.16-.26,26.49-2.63l.18.5C437.16,279.5,417.73,279.75,416.9,279.76Z" transform="translate(-111.81 -175.74)"/>
        <path class="cls-10" d="M416.91,284.22v-.52c.22,0,21.88-.44,25.93-2.62l.25.47C438.92,283.79,417.8,284.21,416.91,284.22Z" transform="translate(-111.81 -175.74)"/>
        <path class="cls-10" d="M418,288.81v-.53c.2,0,19.64-.21,24.84-2.91l.24.47C437.76,288.6,418.8,288.8,418,288.81Z" transform="translate(-111.81 -175.74)"/>
      </g>
      <path class="cls-13" d="M385.27,223.08h-.07L372.64,222a.79.79,0,0,1,.13-1.58l12.57,1.07a.8.8,0,0,1-.07,1.59Z" transform="translate(-111.81 -175.74)"/>
      <path class="cls-13" d="M391.77,203a.79.79,0,0,1-.44-.14l-10.41-7.15a.8.8,0,0,1-.21-1.1.79.79,0,0,1,1.1-.21l10.41,7.15a.79.79,0,0,1-.45,1.45Z" transform="translate(-111.81 -175.74)"/>
      <path class="cls-13" d="M406.57,175.74l4.75,11.73a.8.8,0,0,1-.44,1,1,1,0,0,1-.29.05.79.79,0,0,1-.74-.49l-4.74-11.73" transform="translate(-111.81 -175.74)"/>
      <path class="cls-13" d="M473.77,225.36a.79.79,0,0,1,0-1.58l12.59-.84a.8.8,0,0,1,.1,1.59l-12.59.83Z" transform="translate(-111.81 -175.74)"/>
      <path class="cls-13" d="M467.65,205.15a.8.8,0,0,1-.66-.36.79.79,0,0,1,.23-1.1l10.54-6.95a.78.78,0,0,1,1.09.23.79.79,0,0,1-.22,1.09l-10.54,7A.9.9,0,0,1,467.65,205.15Z" transform="translate(-111.81 -175.74)"/>
      <path class="cls-13" d="M457.24,176.4l-5,11.64a.79.79,0,0,1-.73.48.7.7,0,0,1-.31-.07.8.8,0,0,1-.42-1l5-11.64" transform="translate(-111.81 -175.74)"/>
      <path class="cls-13" d="M432.08,181.58a.8.8,0,0,1-.79.78h0a.79.79,0,0,1-.78-.81" transform="translate(-111.81 -175.74)"/>
      <g class="cls-14">
        <ellipse class="cls-15" cx="446.36" cy="206.77" rx="4.17" ry="8.71" transform="matrix(0.54, -0.84, 0.84, 0.54, -81.76, 293.08)"/>
      </g>
      <rect class="cls-7" x="233.7" y="100.36" width="52.69" height="63.19"/>
      <g>
        <path class="cls-16" d="M365,326.61c-6.12-1-5.65-8.08-5.65-8.08l.56-21.53v-.4l25.31-4.73.08,9.91V306l.07,8.41v1.55l-.38,6.2s1.26,10.2,2,17.15H363Z" transform="translate(-111.81 -175.74)"/>
        <path class="cls-17" d="M379.36,321s-.72,11.79-15.43,12.53l1-6.92S374.43,328.78,379.36,321Z" transform="translate(-111.81 -175.74)"/>
        <path d="M386.71,305.73l-6.35,1.15L379.19,308s.82-10.62,2.06-12.67S386.71,305.73,386.71,305.73Z" transform="translate(-111.81 -175.74)"/>
        <path class="cls-16" d="M377.85,309.46a5.27,5.27,0,1,0,5.41-5.15A5.29,5.29,0,0,0,377.85,309.46Z" transform="translate(-111.81 -175.74)"/>
        <path d="M386.71,305.73s2.05-10.25-1-14.17-20.89-11.11-23.13-9.25-.11,4.25-.11,4.25-7.17-2.52-9,3.88,13.69,9.55,23.05,6.78A20.7,20.7,0,0,1,386.71,305.73Z" transform="translate(-111.81 -175.74)"/>
      </g>
      <g class="cls-18">
        <rect class="cls-7" x="157.31" y="172.39" width="131.11" height="16.37"/>
      </g>
      <g>
        <polygon class="cls-16" points="96.71 267.16 88.15 267.28 88.03 259.19 96.55 258.12 96.71 267.16"/>
        <polygon class="cls-16" points="81.98 267.16 73.43 267.28 73.31 259.19 81.83 258.12 81.98 267.16"/>
        <path class="cls-19" d="M194.7,372.84c.28,8.36,1.51,41.06,4.1,62.45a2.81,2.81,0,0,0,2.78,2.47,21.18,21.18,0,0,0,6.16-.93,2.83,2.83,0,0,0,2-2.65l1-65.1a3.83,3.83,0,0,0,0-.47l0-.32a2.8,2.8,0,0,0-3.77-2.2l-10.45,4A2.81,2.81,0,0,0,194.7,372.84Z" transform="translate(-111.81 -175.74)"/>
        <path class="cls-20" d="M183.21,371.15s-.71,40.21,1.15,65a2.36,2.36,0,0,0,2.18,2.19,21.08,21.08,0,0,0,7-.65,2.35,2.35,0,0,0,1.75-2.09l5-57.66,3-16Z" transform="translate(-111.81 -175.74)"/>
        <path class="cls-10" d="M184.51,438.07Z" transform="translate(-111.81 -175.74)"/>
        <path class="cls-21" d="M180,358.35c.17,1.61,1.13,25.44,3.79,27.41s28.15.07,28.75-2.25-.66-27.23-.66-27.23Z" transform="translate(-111.81 -175.74)"/>
        <path class="cls-21" d="M208.8,347.13c.35,0,14,6.45,14,6.45l-3,5.26-7.71-2Z" transform="translate(-111.81 -175.74)"/>
        <path class="cls-21" d="M183.88,322.43c3.36-.35,12.19-.37,12.19-.37s1.16.35.79.16c9.68,2.06,10.51,9.35,10.51,9.35l4,21.11,5.28.47c1.6,3.31,0,12.06,0,12.06l-25.72,2s-5.58.72-10.06-5.47c-3-4.09-3.6-16.38-3.29-25.33C177.67,336.43,178.66,323,183.88,322.43Z" transform="translate(-111.81 -175.74)"/>
        <path class="cls-10" d="M209.31,349.76a.17.17,0,0,0,.2-.06l1.15-1.84v-.06l-3.12-16.26a9.7,9.7,0,0,0-1.79-4.16c-1.42-2-4.27-4.57-9.78-5.5a.16.16,0,0,0-.18.14.15.15,0,0,0,.13.18c5.39.91,8.17,3.41,9.56,5.35a9.66,9.66,0,0,1,1.74,4h0l3.11,16.2-1.09,1.72a.18.18,0,0,0,.06.23Z" transform="translate(-111.81 -175.74)"/>
        <path class="cls-10" d="M215,350a.16.16,0,0,0,.21-.08.16.16,0,0,0-.08-.21l-4.62-2a.16.16,0,0,0-.21.09.16.16,0,0,0,.08.21l4.62,2Z" transform="translate(-111.81 -175.74)"/>
        <path class="cls-21" d="M185.34,328.41l3.14-5.28L194,324.8l2.23-2.38s.47,2.2.46,2.38a14.32,14.32,0,0,1-2.84,2.76C193.52,327.54,185.34,328.41,185.34,328.41Z" transform="translate(-111.81 -175.74)"/>
        <path class="cls-10" d="M185.79,386.51a.19.19,0,0,0,.19-.18.19.19,0,0,0-.18-.2c-2.64-.19-3-2.45-3.6-6.19-.11-.67-.22-1.36-.36-2.11-.89-5-1.29-17-1.29-17.11a.2.2,0,0,0-.19-.19h0a.2.2,0,0,0-.18.2c0,.12.4,12.18,1.3,17.17.13.74.25,1.43.35,2.11.61,3.78,1,6.29,4,6.5Z" transform="translate(-111.81 -175.74)"/>
        <g>
          <path class="cls-9" d="M227.18,338.21l3.6,1.69.24.12,3.6,1.69L218.3,384.1a2.19,2.19,0,0,1-3,1.21L206.16,381a2.2,2.2,0,0,1-1-3.07Z" transform="translate(-111.81 -175.74)"/>
          <path class="cls-13" d="M226.64,339l7.77,3.65a1.6,1.6,0,0,0,2.13-.78l1.76-3.76-10.67-5-1.76,3.77A1.62,1.62,0,0,0,226.64,339Z" transform="translate(-111.81 -175.74)"/>
          <path class="cls-10" d="M228.29,340l5.8,2.73a2.05,2.05,0,0,0,2.73-1l1.65-3.54-.35-.16-1.65,3.53a1.66,1.66,0,0,1-2.21.8l-5.81-2.73Z" transform="translate(-111.81 -175.74)"/>
          <g class="cls-22">
            <ellipse class="cls-23" cx="130.49" cy="140.08" rx="21.53" ry="21.61"/>
          </g>
          <ellipse class="cls-15" cx="237.99" cy="302.95" rx="8.09" ry="3.87" transform="translate(-201.09 -76.04) rotate(-20.01)"/>
          <polygon class="cls-10" points="106.09 208.86 106.46 209 122.55 166.89 122.19 166.75 106.09 208.86"/>
          <path class="cls-10" d="M259.86,309.55l.38-.09a14.9,14.9,0,0,0-4.86-7.7l-.24.31A14.5,14.5,0,0,1,259.86,309.55Z" transform="translate(-111.81 -175.74)"/>
          <path class="cls-10" d="M257.73,311.22l.38-.09a14.87,14.87,0,0,0-4.86-7.7l-.24.31A14.5,14.5,0,0,1,257.73,311.22Z" transform="translate(-111.81 -175.74)"/>
          <path class="cls-11" d="M233.16,335.39A21.59,21.59,0,1,1,261.8,325,21.64,21.64,0,0,1,233.16,335.39Zm31.74-8.94a25,25,0,1,0-33.19,12.06A25.09,25.09,0,0,0,264.9,326.45Z" transform="translate(-111.81 -175.74)"/>
          <path class="cls-10" d="M231.63,338.69a25.23,25.23,0,1,0,2.66-46.79l.12.37a24.57,24.57,0,0,1,18.39,1.05A24.84,24.84,0,1,1,219.28,325l-.36.14A25.09,25.09,0,0,0,231.63,338.69Z" transform="translate(-111.81 -175.74)"/>
        </g>
        <path class="cls-16" d="M226.81,360.7a.83.83,0,0,0-.76-.82l-2.58-.17a.19.19,0,0,1-.17-.14h0a.19.19,0,0,1,.17-.24l3.82-.25a.63.63,0,0,0,.58-.83h0a1,1,0,0,0-1-.72l-3.89.26a.19.19,0,0,1-.2-.14v-.06a.19.19,0,0,1,.13-.24l4.17-1.12a.82.82,0,0,0,.59-1,.78.78,0,0,0-1-.58l-4.2,1.14a.19.19,0,0,1-.24-.14l0-.19a.2.2,0,0,1,.11-.23l3.73-1.55a.82.82,0,0,0,.46-1,.77.77,0,0,0-1-.44s-3.15,1.18-4.08,1.43l-.87,0c1.27,1.2-.17-.43-1.21-.64s-4.22,2.61-4.22,2.61a1.58,1.58,0,0,0,.23,1.2,65,65,0,0,0,1.36,6.45l4.72-1.45a11.48,11.48,0,0,1,4.2-.48l.36,0A.79.79,0,0,0,226.81,360.7Z" transform="translate(-111.81 -175.74)"/>
        <path class="cls-21" d="M216.7,353.15s1.55,4.06,0,12.06l-5.3.29,1.27-9.78Z" transform="translate(-111.81 -175.74)"/>
        <path class="cls-21" d="M189.61,321.56s-5.88-.41-8.74,1.09c-4.27,2.24-3.24,15.94-3.24,15.94s3.62-1.83,3.86-2.47S189.61,321.56,189.61,321.56Z" transform="translate(-111.81 -175.74)"/>
        <path class="cls-10" d="M191.49,352.36a.13.13,0,0,0,.09,0,.17.17,0,0,0,.13-.19c0-.12-2.32-11.64-3.21-18.87a.16.16,0,0,0-.18-.14.15.15,0,0,0-.14.18c.89,7.25,3.19,18.78,3.21,18.89A.15.15,0,0,0,191.49,352.36Z" transform="translate(-111.81 -175.74)"/>
        <path class="cls-10" d="M207.36,352.63a.11.11,0,0,1-.09,0,.17.17,0,0,1-.18-.15c0-.13-.77-13.39-1.54-17.78a.16.16,0,0,1,.13-.19.18.18,0,0,1,.19.14c.77,4.4,1.54,17.68,1.55,17.81A.16.16,0,0,1,207.36,352.63Z" transform="translate(-111.81 -175.74)"/>
        <path class="cls-10" d="M187.17,351.13h0l4.3,1.14a.16.16,0,0,0,.08-.32l-4.29-1.14a.17.17,0,0,0-.11.31Z" transform="translate(-111.81 -175.74)"/>
        <path class="cls-10" d="M185.89,352.31l.06,0c.23,0,23.16.09,30.63,1a20,20,0,0,1,.53,7.74.16.16,0,0,0,.15.17.15.15,0,0,0,.17-.15c.45-5.27-.54-7.86-.58-8l0-.09h-.09c-7.39-.89-30.53-1-30.77-1a.16.16,0,0,0-.16.16A.15.15,0,0,0,185.89,352.31Z" transform="translate(-111.81 -175.74)"/>
        <path class="cls-10" d="M195.24,366.68c9.36,0,20.82-1.21,21.52-1.29a.18.18,0,0,0,.17-.2.19.19,0,0,0-.21-.17c-.25,0-25.61,2.71-32,.2S178,348.82,178,348.68a.19.19,0,0,0-.19-.18.18.18,0,0,0-.18.19c0,.59.45,14.32,7,16.88C186.7,366.4,190.73,366.68,195.24,366.68Z" transform="translate(-111.81 -175.74)"/>
        <path class="cls-16" d="M195.8,308.92l1,6.53s.42,2.2-1.45,2.76l.8,2.89a2.34,2.34,0,0,1-1.19,2.71,5.79,5.79,0,0,1-1.76.55,3.68,3.68,0,0,1-3.92-1.95,30.76,30.76,0,0,1-.35-4.84l-.36-1.93-.87-7.57Z" transform="translate(-111.81 -175.74)"/>
        <path class="cls-10" d="M187.68,307.31s-2,1.47-.27,5.76l.77-.55-.63-2.33Z" transform="translate(-111.81 -175.74)"/>
        <path class="cls-10" d="M191.14,312.18a.09.09,0,0,1-.07,0,.09.09,0,0,1,0-.13s1.07-1.5,2.35-.74a.1.1,0,0,1,0,.13.1.1,0,0,1-.13,0c-1.14-.67-2.07.63-2.11.69A.07.07,0,0,1,191.14,312.18Z" transform="translate(-111.81 -175.74)"/>
        <path class="cls-10" d="M194.68,311.86a.07.07,0,0,1-.07,0,.09.09,0,0,1,0-.13s.79-.92,1.41-.52a.09.09,0,0,1,0,.12.09.09,0,0,1-.13,0c-.49-.3-1.16.48-1.17.49A.09.09,0,0,1,194.68,311.86Z" transform="translate(-111.81 -175.74)"/>
        <path d="M192.91,313.07a.28.28,0,0,1-.23.32.28.28,0,0,1-.32-.23.28.28,0,0,1,.23-.32A.28.28,0,0,1,192.91,313.07Z" transform="translate(-111.81 -175.74)"/>
        <path d="M195.77,312.36a.28.28,0,0,1-.23.32.29.29,0,0,1-.32-.24.28.28,0,0,1,.24-.31A.27.27,0,0,1,195.77,312.36Z" transform="translate(-111.81 -175.74)"/>
        <path class="cls-16" d="M189.74,313.65a1.66,1.66,0,1,1-3.28.49,1.66,1.66,0,1,1,3.28-.49Z" transform="translate(-111.81 -175.74)"/>
        <path class="cls-17" d="M188.13,314.93a.7.7,0,0,1-.72-.42.66.66,0,0,1,.14-.8.78.78,0,0,1,.87-.1.75.75,0,0,0-.39-.36,1,1,0,0,0-.74.07,0,0,0,0,1-.06,0,0,0,0,0,1,0-.06,1.09,1.09,0,0,1,.81-.06.91.91,0,0,1,.51.54l.06.15-.13-.1a.73.73,0,0,0-.89,0,.58.58,0,0,0-.12.69.58.58,0,0,0,.62.36h0a0,0,0,0,1,0,0,0,0,0,0,1,0,.05Z" transform="translate(-111.81 -175.74)"/>
        <path class="cls-10" d="M196.94,314.37s1.25,4.33-1.63,4.92c-4.13.85-4.89-1.49-5.43-3.41l-.64-4.05-.05-1.19h0a2.13,2.13,0,0,1,.7,1.13c.23,1,.83,3.54,1.09,3.62S196.23,314,196.94,314.37Z" transform="translate(-111.81 -175.74)"/>
        <path class="cls-17" d="M194.15,314.79l-.05,0a.06.06,0,0,1,0-.07l.87-.44-.61-2.13a0,0,0,0,1,0-.05,0,0,0,0,1,.06,0l.63,2.2-.94.48Z" transform="translate(-111.81 -175.74)"/>
        <path class="cls-10" d="M189.2,310.72l-.94-.63-.54,2.18a1.32,1.32,0,0,1,1.26,1.11c.18,1.1-.16,2.9,2.11,5.08s-.7-3.65-.75-3.87S189.2,310.72,189.2,310.72Z" transform="translate(-111.81 -175.74)"/>
        <path class="cls-10" d="M187.68,307.31c.75-1,3.72-2,6.09-1h0a3,3,0,0,1,2.17,3.52l0,0a1,1,0,0,1,.05.16,3.14,3.14,0,0,0-.38-.35l-1.09-.6a5.27,5.27,0,0,0-2.31-.3,7.25,7.25,0,0,0-2.41.56,10.6,10.6,0,0,0,.47,3.88c.81,3.29-1.24-.54-2-2a3.66,3.66,0,0,0-.09,1S186.18,309.33,187.68,307.31Z" transform="translate(-111.81 -175.74)"/>
        <path class="cls-16" d="M196.07,310.76a13.45,13.45,0,0,0-.24-1.64c-.11-.28-3.2-.68-4.8-.21s1.83,1.79,1.87,1.79S196.07,310.76,196.07,310.76Z" transform="translate(-111.81 -175.74)"/>
        <polygon class="cls-16" points="78.3 133.66 76.51 132.42 78.31 134.35 78.3 133.66"/>
        <path class="cls-24" d="M195.87,320.21l.25,1.7s-1.46,1.24-2.39,1.9a23.49,23.49,0,0,0-4.62-2.28l-.18-2.51c-3.43-.39-7,1.92-6.1,3s5.54,1.46,6.78,1.86,4.32,1.35,4.32,1.35a35.29,35.29,0,0,0,3-3.2l2.22.62C199.21,320.43,195.87,320.21,195.87,320.21Z" transform="translate(-111.81 -175.74)"/>
        <path d="M193.93,325.4a.13.13,0,0,0,.09,0l3.88-3.95a.13.13,0,0,0-.18-.18l-3.88,3.95a.14.14,0,0,0,0,.18A.09.09,0,0,0,193.93,325.4Z" transform="translate(-111.81 -175.74)"/>
        <polygon class="cls-9" points="108.41 175.04 106.17 179.08 109.6 177.96 108.41 175.04"/>
        <g>
          <path class="cls-25" d="M199.83,443.16h7.47l3-3.4,5.55,3.4h1.19a.89.89,0,0,1,.87.7.87.87,0,0,1-.84,1.05H199.72a.23.23,0,0,1-.23-.24v-1.16A.35.35,0,0,1,199.83,443.16Z" transform="translate(-111.81 -175.74)"/>
          <path class="cls-26" d="M199.89,443.17V440a2.62,2.62,0,0,1,3.18-.85,4.22,4.22,0,0,0,5.45-.45l6.35,2.9s1.74.6,2.21,1.56Z" transform="translate(-111.81 -175.74)"/>
          <rect x="88.02" y="264.27" width="0.13" height="3.14"/>
          <path d="M205.67,440.05a2.19,2.19,0,0,0,.39,0l0-.13a4.32,4.32,0,0,1-2.93-.79l-.08.11A4.64,4.64,0,0,0,205.67,440.05Z" transform="translate(-111.81 -175.74)"/>
          <polygon points="89.63 266.84 89.7 266.73 88.89 266.17 88.82 266.27 89.63 266.84"/>
          <polygon points="90.21 266.68 90.28 266.57 89.47 266.01 89.4 266.12 90.21 266.68"/>
          <path d="M217.69,444.76a.95.95,0,0,0-.59-1.66H199.92a.5.5,0,0,0-.49.51v.87h.12v-.87a.38.38,0,0,1,.37-.38H217.1a.82.82,0,0,1,.51,1.43Z" transform="translate(-111.81 -175.74)"/>
          <path d="M217,443.19l.12-.05a3.19,3.19,0,0,0-1.66-1.34c-1.28-.56-6.89-3.12-6.95-3.15l-.05.12c.05,0,5.67,2.59,6.95,3.15A3.11,3.11,0,0,1,217,443.19Z" transform="translate(-111.81 -175.74)"/>
        </g>
        <g>
          <path class="cls-25" d="M185,443.16h7.47l3-3.4,5.54,3.4h1.2a.88.88,0,0,1,0,1.75H184.85a.23.23,0,0,1-.23-.24v-1.16A.35.35,0,0,1,185,443.16Z" transform="translate(-111.81 -175.74)"/>
          <path class="cls-9" d="M185,443.17V440a2.62,2.62,0,0,1,3.18-.85,4.22,4.22,0,0,0,5.45-.45l6.35,2.9s1.74.6,2.21,1.56Z" transform="translate(-111.81 -175.74)"/>
          <rect x="73.15" y="264.27" width="0.13" height="3.14"/>
          <path d="M190.8,440.05a2.34,2.34,0,0,0,.39,0l0-.13a4.36,4.36,0,0,1-2.94-.79l-.07.11A4.64,4.64,0,0,0,190.8,440.05Z" transform="translate(-111.81 -175.74)"/>
          <polygon points="74.76 266.84 74.83 266.73 74.02 266.17 73.95 266.27 74.76 266.84"/>
          <polygon points="75.34 266.68 75.41 266.57 74.6 266.01 74.53 266.12 75.34 266.68"/>
          <path d="M202.82,444.76a.95.95,0,0,0-.59-1.66H185a.5.5,0,0,0-.49.51v.87h.13v-.87a.37.37,0,0,1,.36-.38h17.19a.8.8,0,0,1,.79.81.84.84,0,0,1-.28.62Z" transform="translate(-111.81 -175.74)"/>
          <path d="M202.17,443.19l.12-.05a3.25,3.25,0,0,0-1.66-1.34c-1.28-.56-6.9-3.12-6.95-3.15l-.05.12c.05,0,5.67,2.59,7,3.15A3.18,3.18,0,0,1,202.17,443.19Z" transform="translate(-111.81 -175.74)"/>
        </g>
      </g>
      <path class="cls-4" d="M138.68,470.93l6.13-3.22h90.1s-4.32,10.9-.7,19.15l-83,.7-7.66-.7-6.75-4.2" transform="translate(-111.81 -175.74)"/>
      <path class="cls-27" d="M135.4,477.36c0,6.21,5.35,11.26,11.93,11.26H237a1.06,1.06,0,0,0,0-2.12H147.33c-5.41,0-9.82-4.1-9.82-9.14" transform="translate(-111.81 -175.74)"/>
      <path class="cls-27" d="M137.51,477.36c0-5,4.41-9.14,9.82-9.14H237a1.07,1.07,0,0,0,0-2.13H147.33c-6.58,0-11.93,5.06-11.93,11.27" transform="translate(-111.81 -175.74)"/>
      <path class="cls-28" d="M233.69,477.59h-44a.23.23,0,0,1-.23-.23.23.23,0,0,1,.23-.24h44a.23.23,0,0,1,.23.24A.23.23,0,0,1,233.69,477.59Z" transform="translate(-111.81 -175.74)"/>
      <path class="cls-28" d="M183.49,477.59H140.74a.23.23,0,0,1-.24-.23.24.24,0,0,1,.24-.24h42.75a.23.23,0,0,1,.23.24A.23.23,0,0,1,183.49,477.59Z" transform="translate(-111.81 -175.74)"/>
      <path class="cls-28" d="M163.82,481.82H141.89a.24.24,0,0,1-.24-.24.23.23,0,0,1,.24-.23h21.93a.23.23,0,0,1,.24.23A.24.24,0,0,1,163.82,481.82Z" transform="translate(-111.81 -175.74)"/>
      <path class="cls-28" d="M233.69,481.82H167a.24.24,0,0,1-.24-.24.23.23,0,0,1,.24-.23h66.65a.23.23,0,0,1,.23.23A.23.23,0,0,1,233.69,481.82Z" transform="translate(-111.81 -175.74)"/>
      <path class="cls-10" d="M135.63,477.36c0,6.08,5.25,11,11.7,11H237a.83.83,0,0,0,0-1.66.23.23,0,0,1-.23-.23.23.23,0,0,1,.23-.24,1.3,1.3,0,0,1,0,2.6H147.33c-6.71,0-12.17-5.16-12.17-11.5" transform="translate(-111.81 -175.74)"/>
      <path class="cls-10" d="M135.16,477.36c0-6.34,5.46-11.5,12.17-11.5H237a1.3,1.3,0,1,1,0,2.59.23.23,0,0,1-.23-.23A.23.23,0,0,1,237,468a.83.83,0,1,0,0-1.65H147.33c-6.45,0-11.7,4.95-11.7,11" transform="translate(-111.81 -175.74)"/>
      <path class="cls-20" d="M222.78,473.13s2.83,7.06,1.2,12.26l-2.29-3.56a30.7,30.7,0,0,0-2.53,3.56s-1.75-11.61-5.15-12.26Z" transform="translate(-111.81 -175.74)"/>
      <path class="cls-28" d="M233.69,473.36h-91.8a.23.23,0,0,1-.24-.23.24.24,0,0,1,.24-.24h91.8a.23.23,0,0,1,.23.24A.23.23,0,0,1,233.69,473.36Z" transform="translate(-111.81 -175.74)"/>
      <path class="cls-4" d="M137.43,464.46l77,.65,7.11-.65,6.26-3.9v-6l-1.74-4.93-5.69-3H136.79" transform="translate(-111.81 -175.74)"/>
      <path class="cls-29" d="M134.85,445.18h83.22c6.1,0,11.07,4.69,11.07,10.46s-5,10.45-11.07,10.45H134.85" transform="translate(-111.81 -175.74)"/>
      <path class="cls-29" d="M134.85,464.12h83.22c5,0,9.1-3.8,9.1-8.48s-4.08-8.49-9.1-8.49H134.85" transform="translate(-111.81 -175.74)"/>
      <path class="cls-28" d="M202.43,455.87H161.59a.23.23,0,0,1-.24-.23.24.24,0,0,1,.24-.24h40.84a.23.23,0,0,1,.23.24A.23.23,0,0,1,202.43,455.87Z" transform="translate(-111.81 -175.74)"/>
      <path class="cls-28" d="M224.18,455.87H184.51a.23.23,0,0,1-.24-.23.24.24,0,0,1,.24-.24h39.67a.24.24,0,0,1,.24.24A.23.23,0,0,1,224.18,455.87Z" transform="translate(-111.81 -175.74)"/>
      <path class="cls-28" d="M223.12,459.8H202.76a.24.24,0,1,1,0-.48h20.36a.24.24,0,0,1,0,.48Z" transform="translate(-111.81 -175.74)"/>
      <path class="cls-28" d="M137.92,451.48h85.2a.23.23,0,0,1,.23.23.23.23,0,0,1-.23.24h-85.2" transform="translate(-111.81 -175.74)"/>
      <path class="cls-10" d="M134.85,445h83.22c6.23,0,11.3,4.79,11.3,10.69s-5.07,10.69-11.3,10.69H134.85" transform="translate(-111.81 -175.74)"/>
      <path class="cls-10" d="M134.85,465.86h83.22c6,0,10.83-4.59,10.83-10.22s-4.86-10.22-10.83-10.22H134.85" transform="translate(-111.81 -175.74)"/>
      <path class="cls-6" d="M186.61,459.56s-2.83,7.06-1.2,12.26l2.29-3.56a30.7,30.7,0,0,1,2.53,3.56s1.75-11.61,5.15-12.26Z" transform="translate(-111.81 -175.74)"/>
      <path class="cls-28" d="M137.92,459.32h61.85a.24.24,0,0,1,0,.48H137.92" transform="translate(-111.81 -175.74)"/>
      <path class="cls-29" d="M137.79,401.83s.85-11.87,5.44-9.57,8.34,17.43,8.84,17.88.35,14.28.35,14.28l-5.34-2.7s-1.43-33.05-9.29-19.89" transform="translate(-111.81 -175.74)"/>
      <path class="cls-20" d="M142.94,377.25A47.2,47.2,0,0,1,156,402.33c2.81,15.84-6.06,20.51-6.06,20.51S148.71,389.52,142.94,377.25Z" transform="translate(-111.81 -175.74)"/>
      <path class="cls-29" d="M162,425s1.73-33.72,10.41-48.35c0,0-15.25,9.13-20.3,33.1-.29,1.35-.46,2.85-.67,4.29a22.67,22.67,0,0,0-.32,4.16c.06,2.35.38,4.37.48,5.85C152.44,436.82,162,425,162,425Z" transform="translate(-111.81 -175.74)"/>
      <path class="cls-20" d="M161.73,410.65a27.49,27.49,0,0,1,5.33-13.25c2.11-2.78,4.56-4.9,6.47-3.39,4.24,3.36,5.09,24.2,5.09,24.2s-4.79-14.43-6.89-13.48-4,20.54-4,20.54l-7.84.66Z" transform="translate(-111.81 -175.74)"/>
      <path class="cls-10" d="M151,423.8a59.34,59.34,0,0,1,2.74-21,54.79,54.79,0,0,1,7.39-14.74,48.15,48.15,0,0,1,11.19-11.53l.14.21a47.82,47.82,0,0,0-11.13,11.48,56.51,56.51,0,0,0-10.08,35.57Z" transform="translate(-111.81 -175.74)"/>
      <path class="cls-10" d="M149.84,422.84c0-.08-.32-8.44-1.35-18.18-.94-9-2.69-21-5.67-27.36l.23-.11c3,6.36,4.75,18.43,5.69,27.44,1,9.76,1.35,18.12,1.36,18.2Z" transform="translate(-111.81 -175.74)"/>
      <path class="cls-10" d="M137.68,401.76c1.41-2.33,2.73-3.36,3.92-3.05,2,.5,3.48,4.53,4.56,12,.8,5.51,1,11,1,11H147c0-.05-.24-5.48-1-11-1-7.23-2.56-11.31-4.37-11.77-1.07-.28-2.3.71-3.64,2.93" transform="translate(-111.81 -175.74)"/>
      <path class="cls-10" d="M160,425.94l-.25,0,1.87-15.27A27.64,27.64,0,0,1,167,397.33c1.84-2.43,3.48-3.75,4.86-3.93a2.36,2.36,0,0,1,1.79.51c1.78,1.42,3.19,5.94,4.18,13.44.74,5.57,1,10.8,1,10.85l-.26,0c0-.21-.89-20.82-5-24.11a2.08,2.08,0,0,0-1.6-.45c-1.31.16-2.89,1.45-4.69,3.82a27.32,27.32,0,0,0-5.3,13.19Z" transform="translate(-111.81 -175.74)"/>
      <polygon class="cls-10" points="54.9 234.68 54.67 234.57 56.32 231.36 56.55 231.48 54.9 234.68"/>
      <polygon class="cls-10" points="54.9 236.65 54.67 236.52 56.32 233.52 56.54 233.65 54.9 236.65"/>
      <polygon class="cls-10" points="39.25 215.47 37.84 212.37 38.07 212.26 39.48 215.36 39.25 215.47"/>
      <polygon class="cls-10" points="39.25 216.98 38.05 214.81 38.27 214.69 39.47 216.86 39.25 216.98"/>
      <polygon class="cls-10" points="32.49 219.11 30.1 217.88 30.21 217.66 32.61 218.88 32.49 219.11"/>
      <polygon class="cls-10" points="32.48 220.15 31.07 219.28 31.2 219.06 32.62 219.93 32.48 220.15"/>
      <path class="cls-27" d="M144.36,420.86s.44,24.66,7,24.08h11.18c6.58.58,7-24.08,7-24.08A113.22,113.22,0,0,0,144.36,420.86Z" transform="translate(-111.81 -175.74)"/>
      <polygon class="cls-10" points="48.14 256.07 47.95 255.89 55.15 248.28 55.33 248.45 48.14 256.07"/>
      <polygon class="cls-10" points="49.26 257.92 49.07 257.75 53.03 253.18 53.22 253.35 49.26 257.92"/>
      <g>
        <g>
          <path class="cls-16" d="M454.38,337.22a8,8,0,0,0-5-.59,3.43,3.43,0,0,0-2.46,3.12l-.07,1.42,7.46-2.74s1.13.61,1,.44S454.38,337.22,454.38,337.22Z" transform="translate(-111.81 -175.74)"/>
          <g>
            <path class="cls-16" d="M446.91,339.58l-.32,6s-.2,2.14,1.66,2.51l-.5,2.84a2.23,2.23,0,0,0,1.39,2.49,6.13,6.13,0,0,0,1.75.37,3.58,3.58,0,0,0,3.6-2.23,30,30,0,0,0-.11-4.67l.17-1.88.14-7.34Z" transform="translate(-111.81 -175.74)"/>
            <path class="cls-10" d="M451.92,342.69s.05,0,.06,0a.09.09,0,0,0,0-.13s-1.17-1.33-2.33-.49a.09.09,0,0,0,0,.13.08.08,0,0,0,.12,0c1-.75,2.06.41,2.1.46Z" transform="translate(-111.81 -175.74)"/>
            <path class="cls-10" d="M448.28,342a.11.11,0,0,0,.07,0,.09.09,0,0,0,0-.12s-.85-.81-1.41-.38a.09.09,0,0,0,0,.13.09.09,0,0,0,.13,0c.44-.34,1.16.36,1.17.36Z" transform="translate(-111.81 -175.74)"/>
            <path d="M450.1,343a.27.27,0,0,0,.25.28.28.28,0,0,0,.29-.25.28.28,0,0,0-.26-.29A.28.28,0,0,0,450.1,343Z" transform="translate(-111.81 -175.74)"/>
            <path d="M447.28,342.54a.27.27,0,1,0,.53,0,.28.28,0,0,0-.25-.29A.27.27,0,0,0,447.28,342.54Z" transform="translate(-111.81 -175.74)"/>
            <path class="cls-10" d="M454.38,337.13a2.85,2.85,0,0,1,2.74,2c.47,2-.57,3-.62,3.61s.14,4.61-2.64,4.16l-.4-6.64,1.11-2.57Z" transform="translate(-111.81 -175.74)"/>
            <path class="cls-16" d="M452.31,343a1.61,1.61,0,1,0,3.21.17,1.61,1.61,0,1,0-3.21-.17Z" transform="translate(-111.81 -175.74)"/>
            <path class="cls-17" d="M454,344.06a.67.67,0,0,0,.66-.47.63.63,0,0,0-.22-.75.75.75,0,0,0-.84,0,.73.73,0,0,1,.35-.38,1,1,0,0,1,.71,0,0,0,0,0,0,.06,0s0,0,0-.05a1,1,0,0,0-.78,0,.85.85,0,0,0-.44.56l-.05.15.12-.1a.68.68,0,0,1,.85-.06.54.54,0,0,1,.18.64.57.57,0,0,1-.56.41h0a0,0,0,0,0,0,.09Z" transform="translate(-111.81 -175.74)"/>
            <path class="cls-17" d="M452.68,346.51s-.32,3.58-4.8,3.69l.37-2.1A4.26,4.26,0,0,0,452.68,346.51Z" transform="translate(-111.81 -175.74)"/>
            <path class="cls-17" d="M449.06,344.72a.05.05,0,0,0,.05,0,0,0,0,0,0,0-.06l-.87-.35.39-2.09s0-.05,0-.05,0,0-.05,0l-.41,2.17.95.37Z" transform="translate(-111.81 -175.74)"/>
            <polygon class="cls-16" points="342.62 171.66 342.47 168.62 341.71 168.66 341.55 171.69 342.62 171.66"/>
          </g>
          <path class="cls-10" d="M454,337a4.73,4.73,0,0,1-.52,3.34c-1,2.05,2.25-.67,2.25-.67S455.65,336.64,454,337Z" transform="translate(-111.81 -175.74)"/>
        </g>
        <path class="cls-10" d="M453.45,340.38s-6.78-.77-7.12-2.39a1.21,1.21,0,0,1,1.27-1.58s-.18-2.29,1.84-1.51,5.84.9,6.81,2.87S453.45,340.38,453.45,340.38Z" transform="translate(-111.81 -175.74)"/>
        <path class="cls-10" d="M453.53,341.53l-.36,1.23-.27-.39a4.92,4.92,0,0,1,0-2.66c.45-.84,2,.48,2,.48Z" transform="translate(-111.81 -175.74)"/>
        <path class="cls-30" d="M447.85,345.41l1.87-.07s-.23.77-.91.79A1.07,1.07,0,0,1,447.85,345.41Z" transform="translate(-111.81 -175.74)"/>
        <polygon class="cls-16" points="345.01 310.98 353.4 311.09 353.52 303.15 345.16 302.1 345.01 310.98"/>
        <polygon class="cls-16" points="326.02 310.98 334.41 311.09 334.53 303.15 326.17 302.1 326.02 310.98"/>
        <g>
          <path class="cls-16" d="M437.59,415.35c1.28,1.65,1.62,0,1.62,0,.77.82,1.17.66,1.36.39a.74.74,0,0,0,.1-.69c-.23-.74-1-3-1.49-4.37.12-.95,1.71-.55,2.5-.07.41.24,1.11.3.47-.78a12.52,12.52,0,0,0-2.34-2.27l.83-5.29-7.36.34s-.28,6.09-.33,7a12.48,12.48,0,0,0,1.55,5c1.35,1.77,1.49.71,1.49.71C437.57,417.08,437.59,415.35,437.59,415.35Z" transform="translate(-111.81 -175.74)"/>
          <path class="cls-17" d="M438.12,413.37a.09.09,0,0,1,.07-.1.11.11,0,0,1,.14.07,13.88,13.88,0,0,0,1,2,.11.11,0,0,1,0,.15.1.1,0,0,1-.15,0,13.19,13.19,0,0,1-1-2Z" transform="translate(-111.81 -175.74)"/>
          <path class="cls-17" d="M436.72,413.4a.12.12,0,0,1,.09-.11.11.11,0,0,1,.13.08,6.8,6.8,0,0,0,.75,1.92.11.11,0,0,1-.19.11,6.7,6.7,0,0,1-.77-2Z" transform="translate(-111.81 -175.74)"/>
          <path class="cls-17" d="M435.14,413.67a.11.11,0,0,1,.08-.11.12.12,0,0,1,.14.08,5.57,5.57,0,0,0,.73,1.67.12.12,0,0,1,0,.16.11.11,0,0,1-.15,0,6.12,6.12,0,0,1-.76-1.74Z" transform="translate(-111.81 -175.74)"/>
        </g>
        <path class="cls-31" d="M432.6,404.91l.13,2.58a6.87,6.87,0,0,0,3.8.83l-.62-3.41Z" transform="translate(-111.81 -175.74)"/>
        <path class="cls-32" d="M452.65,397.08s-1.11,52.69-4.94,83.1a17.07,17.07,0,0,1-11.53-1.4l-.27-77.66L435,389.48Z" transform="translate(-111.81 -175.74)"/>
        <path class="cls-3" d="M466.12,397.59s2.25,51.94-.26,82.55a13.05,13.05,0,0,1-11.31.4l-7.91-74.62-3.36-20Z" transform="translate(-111.81 -175.74)"/>
        <path d="M459.38,481.72a16.47,16.47,0,0,0,6.55-1.43l.08,0,0-.09c2.15-11.68.78-69.21.76-69.79a.18.18,0,0,0-.17-.17h0a.18.18,0,0,0-.17.18c0,.58,1.38,57.78-.74,69.62-.72.33-6.11,2.63-11.08.37a.17.17,0,0,0-.14.32A11.78,11.78,0,0,0,459.38,481.72Z" transform="translate(-111.81 -175.74)"/>
        <path d="M444,480.75a17,17,0,0,0,3.71-.4.17.17,0,0,0,.14-.21.18.18,0,0,0-.21-.14,17.79,17.79,0,0,1-11.31-1.33l-.27-73.06c0-.1-.18-.31-.18-.41v.23a.18.18,0,0,0-.18.18l.28,73.27.09.05A17.89,17.89,0,0,0,444,480.75Z" transform="translate(-111.81 -175.74)"/>
        <path class="cls-9" d="M438.29,352.43s-4.18,1.71-4.88,5-2.51,43.49-1.26,47.44h6.14Z" transform="translate(-111.81 -175.74)"/>
        <path class="cls-31" d="M468.29,375.58l-2.79,31.66s-16.55,3.67-29.4-3.1c0,0,2.06-49.14,2.46-51.14.48-2.34,13.29-2.53,18.64-2,0,0,8.29-.21,12.72,2.25Z" transform="translate(-111.81 -175.74)"/>
        <path class="cls-9" d="M468.62,368.44v40.67s-10.58,2-15.71,0c0,0,0-56.62,2.13-58.34.26,0,5.53.11,9.29.57S468.62,368.44,468.62,368.44Z" transform="translate(-111.81 -175.74)"/>
        <path class="cls-9" d="M446.54,350.77s-1.06,49.79-2.11,57.19a27.11,27.11,0,0,1-9.71-1.62s1-51.94,2.39-53.32S446.54,350.77,446.54,350.77Z" transform="translate(-111.81 -175.74)"/>
        <path class="cls-31" d="M454.36,350.84s-6.64-.16-7.75.05a26.81,26.81,0,0,0,1,2.73c.14.11,4.44,1,4.44,1s1.47-.87,1.54-1.16S454.36,350.84,454.36,350.84Z" transform="translate(-111.81 -175.74)"/>
        <path d="M468.62,381.53a.17.17,0,0,0,.17-.18V373a.17.17,0,0,0-.17-.18.18.18,0,0,0-.18.18v8.38A.18.18,0,0,0,468.62,381.53Z" transform="translate(-111.81 -175.74)"/>
        <path d="M452.91,409.28h0a.18.18,0,0,0,.17-.17c-.09-36.05.91-48.57.92-48.7a.16.16,0,0,0-.16-.18.17.17,0,0,0-.19.16c0,.12-1,12.65-.92,48.72A.18.18,0,0,0,452.91,409.28Z" transform="translate(-111.81 -175.74)"/>
        <path d="M434.72,406.52h0a.18.18,0,0,0,.17-.18c-.35-15.47,2.46-48.93,2.49-49.26a.18.18,0,0,0-.16-.19.17.17,0,0,0-.19.16c0,.34-2.84,33.81-2.49,49.3A.18.18,0,0,0,434.72,406.52Z" transform="translate(-111.81 -175.74)"/>
        <path d="M446.31,361.11a.18.18,0,0,0,.18-.17l.23-10.36h-.19c-.36,0-8.84.73-11.34,3.65a.17.17,0,0,0,0,.25.19.19,0,0,0,.25,0c2.2-2.57,9.6-3.38,10.9-3.51l-.22,10a.17.17,0,0,0,.17.18Z" transform="translate(-111.81 -175.74)"/>
        <path class="cls-25" d="M482.13,387.83a11.59,11.59,0,0,1,3.06-10.8,24.64,24.64,0,0,1,1.23,5.3c.24,2.37-1,5.5-3,8.78A8.6,8.6,0,0,1,482.13,387.83Z" transform="translate(-111.81 -175.74)"/>
        <g>
          <path class="cls-10" d="M468.07,355.63a.11.11,0,0,1-.09,0,6.91,6.91,0,0,0-3.07-2.19.12.12,0,0,1,.07-.23,7.23,7.23,0,0,1,3.19,2.27.12.12,0,0,1,0,.17A.08.08,0,0,1,468.07,355.63Z" transform="translate(-111.81 -175.74)"/>
          <path class="cls-10" d="M467.85,356.75a.12.12,0,0,1-.1-.05,7.1,7.1,0,0,0-3.07-2.19.12.12,0,0,1,.07-.23,7.15,7.15,0,0,1,3.19,2.28.11.11,0,0,1,0,.16A.11.11,0,0,1,467.85,356.75Z" transform="translate(-111.81 -175.74)"/>
        </g>
        <path d="M463,481.29a.18.18,0,0,0,.18-.17l.31-20.84a.18.18,0,0,0-.18-.18h0a.18.18,0,0,0-.18.17l-.31,20.84a.18.18,0,0,0,.18.18Z" transform="translate(-111.81 -175.74)"/>
        <path d="M443.82,480.75a.17.17,0,0,0,.17-.16l1.17-20.3a.19.19,0,0,0-.17-.19.17.17,0,0,0-.18.17l-1.17,20.29a.18.18,0,0,0,.17.19Z" transform="translate(-111.81 -175.74)"/>
        <g>
          <g>
            <polygon class="cls-25" points="405.07 264.25 394.84 276.31 292.09 188.44 302.32 176.38 405.07 264.25"/>
            <polygon class="cls-13" points="401.92 267.96 397.99 272.6 295.24 184.73 299.17 180.09 401.92 267.96"/>
            <polygon class="cls-6" points="397.35 257.64 387.11 269.7 384.09 267.11 394.32 255.06 397.35 257.64"/>
            <path class="cls-33" d="M517.26,450.72h0a7.87,7.87,0,0,1-11.12.9l-7.22-6.18,10.23-12.05,7.22,6.17A7.93,7.93,0,0,1,517.26,450.72Z" transform="translate(-111.81 -175.74)"/>
            <path class="cls-34" d="M393.81,345.16l10.08,19h0a2.4,2.4,0,0,0,3.39-.3,2.43,2.43,0,0,0-.24-3.41c1,.86,2.7.52,3.78-.76s1.16-3,.16-3.87a2.43,2.43,0,0,0,3.15-3.71h0Z" transform="translate(-111.81 -175.74)"/>
            <path class="cls-25" d="M403.89,364.18s3.35-.74,3.15-3.71l2.14,1.83L406,366Z" transform="translate(-111.81 -175.74)"/>
            <path class="cls-25" d="M411,355.84s3.34-.74,3.15-3.71l2.14,1.83-3.15,3.71Z" transform="translate(-111.81 -175.74)"/>
            <path class="cls-13" d="M407,360.47a4.49,4.49,0,0,0,3.94-4.63l2.33,2-3.93,4.64Z" transform="translate(-111.81 -175.74)"/>
            <path class="cls-9" d="M397.16,351.48a4.55,4.55,0,0,0,3.4-4l-6.75-2.31Z" transform="translate(-111.81 -175.74)"/>
          </g>
          <path d="M517.47,450.9c2.69-3.21,2.3-6.18,1.49-8.11a10.06,10.06,0,0,0-2.41-3.43L414.26,351.89l-.05,0-20.95-7.19,6.49,12.25.47-.25-5.85-11.05L414,352.37l102.21,87.4a9.82,9.82,0,0,1,2.27,3.24c1.08,2.6.6,5.14-1.41,7.54Z" transform="translate(-111.81 -175.74)"/>
          <polygon points="371.7 256.17 312.61 205.57 312.26 205.98 371.36 256.58 371.7 256.17"/>
          <polygon points="384.18 257.17 384.28 256.63 378.4 255.54 378.3 256.07 384.18 257.17"/>
          <polygon points="399.07 272.09 399.17 271.56 395.83 270.93 395.73 271.46 399.07 272.09"/>
          <polygon points="401.03 274.32 401.13 273.79 397.79 273.17 397.69 273.7 401.03 274.32"/>
          <polygon points="385.77 259.91 385.87 259.38 379.99 258.28 379.89 258.81 385.77 259.91"/>
          <polygon points="387.34 269.89 397.55 257.82 397.14 257.47 386.93 269.54 387.34 269.89"/>
        </g>
        <g>
          <path class="cls-16" d="M458.52,412.57c-2.07.28-1.17-1.12-1.17-1.12-1.13,0-1.3-.35-1.25-.68a.76.76,0,0,1,.41-.56c.68-.36,2.77-1.46,4.12-2.06.58-.77-.83-1.6-1.74-1.82-.46-.11-1-.56.21-.88a12.54,12.54,0,0,1,3.26,0l3.11-4.36,5,5.43s-4.05,4.53-4.65,5.22a12.41,12.41,0,0,1-4.62,2.49c-2.2.31-1.57-.54-1.57-.54C457.32,413.82,458.52,412.57,458.52,412.57Z" transform="translate(-111.81 -175.74)"/>
          <path class="cls-17" d="M459.52,410.8a.12.12,0,0,0,0-.13.11.11,0,0,0-.15-.05,14.86,14.86,0,0,1-2.07.73.11.11,0,0,0-.08.13.11.11,0,0,0,.14.08,13.21,13.21,0,0,0,2.11-.74Z" transform="translate(-111.81 -175.74)"/>
          <path class="cls-17" d="M460.5,411.8a.12.12,0,0,0,0-.14.1.1,0,0,0-.15,0,7.09,7.09,0,0,1-1.87.84.11.11,0,0,0,.05.21,6.94,6.94,0,0,0,1.94-.87Z" transform="translate(-111.81 -175.74)"/>
          <path class="cls-17" d="M461.43,413.11a.11.11,0,0,0,0-.14.11.11,0,0,0-.15,0,5.86,5.86,0,0,1-1.69.68.1.1,0,0,0-.08.13.11.11,0,0,0,.13.09,6,6,0,0,0,1.75-.71Z" transform="translate(-111.81 -175.74)"/>
        </g>
        <path class="cls-31" d="M469.77,407.56l-1.36,1.52s-5.07-4.38-5.44-5c.09-.09,1.53-2.2,1.53-2.2Z" transform="translate(-111.81 -175.74)"/>
        <path class="cls-9" d="M461.09,351.16s8.63-.79,12.94,6.37c3.93,6.55,11.44,15.74,12.39,24.8.76,7.32-12.93,21.9-16.5,25.39L463.59,401s10.07-16,10.86-18c.71-1.8-14-21.31-14-21.31Z" transform="translate(-111.81 -175.74)"/>
        <path d="M469.92,407.9a.15.15,0,0,0,.11,0,.17.17,0,0,0,0-.25c-1.44-1.67-5.55-6-6.23-6.68,3.51-5.43,10.8-17.88,10.8-18.23a.18.18,0,0,0-.17-.18h0a.18.18,0,0,0-.18.14c-.2.55-7,12.36-10.83,18.19l-.07.12.09.1c.05.05,4.76,5,6.32,6.77A.2.2,0,0,0,469.92,407.9Z" transform="translate(-111.81 -175.74)"/>
        <path d="M477.89,384.23a.18.18,0,1,0,0-.36,8.92,8.92,0,0,1-3.29-1.29c-.58-2.4-8.87-14.12-9.23-14.63a.18.18,0,1,0-.29.21c.09.12,8.8,12.44,9.19,14.57l0,.08.06,0A9.68,9.68,0,0,0,477.89,384.23Z" transform="translate(-111.81 -175.74)"/>
        <path d="M482.13,370.55a.17.17,0,0,0,.1,0,.17.17,0,0,0,0-.24l-9.5-14.75A13.63,13.63,0,0,0,461.92,351a.17.17,0,0,0-.15.2.18.18,0,0,0,.19.15,13.27,13.27,0,0,1,10.55,4.39L482,370.47A.17.17,0,0,0,482.13,370.55Z" transform="translate(-111.81 -175.74)"/>
        <g>
          <path class="cls-25" d="M465.35,487.84H458.1l-2.94-3.29-5.38,3.29h-1.15a.85.85,0,0,0,0,1.7h16.85a.22.22,0,0,0,.22-.23v-1.13A.33.33,0,0,0,465.35,487.84Z" transform="translate(-111.81 -175.74)"/>
          <path class="cls-35" d="M465.28,487.85v-3.06a2.54,2.54,0,0,0-3.08-.83,4.08,4.08,0,0,1-5.29-.43l-6.15,2.81s-1.69.58-2.14,1.51Z" transform="translate(-111.81 -175.74)"/>
          <rect x="353.41" y="309.05" width="0.12" height="3.05"/>
          <path d="M459.68,484.82a3.39,3.39,0,0,1-.38,0l0-.12a4.29,4.29,0,0,0,2.85-.77l.07.11A4.45,4.45,0,0,1,459.68,484.82Z" transform="translate(-111.81 -175.74)"/>
          <polygon points="351.98 311.54 351.91 311.43 352.69 310.89 352.76 310.99 351.98 311.54"/>
          <polygon points="351.41 311.38 351.35 311.28 352.13 310.73 352.2 310.84 351.41 311.38"/>
          <path d="M448,489.4a.93.93,0,0,1-.31-.7.9.9,0,0,1,.89-.91h16.66a.48.48,0,0,1,.47.49v.84h-.12v-.84a.37.37,0,0,0-.35-.37H448.6a.79.79,0,0,0-.77.79.8.8,0,0,0,.27.6Z" transform="translate(-111.81 -175.74)"/>
          <path d="M448.65,487.88l-.11-.06a3,3,0,0,1,1.61-1.29c1.24-.55,6.68-3,6.74-3.06l.05.12c-.06,0-5.5,2.51-6.74,3.05A3.11,3.11,0,0,0,448.65,487.88Z" transform="translate(-111.81 -175.74)"/>
        </g>
        <g>
          <path class="cls-25" d="M446.26,487.84H439l-2.94-3.29-5.37,3.29h-1.16a.86.86,0,0,0-.84.69.84.84,0,0,0,.81,1h16.85a.23.23,0,0,0,.23-.23v-1.13A.34.34,0,0,0,446.26,487.84Z" transform="translate(-111.81 -175.74)"/>
          <path class="cls-35" d="M446.2,487.85v-3.06a2.54,2.54,0,0,0-3.08-.83,4.08,4.08,0,0,1-5.29-.43l-6.15,2.81s-1.69.58-2.15,1.51Z" transform="translate(-111.81 -175.74)"/>
          <rect x="334.33" y="309.05" width="0.12" height="3.05"/>
          <path d="M440.6,484.82a3,3,0,0,1-.38,0v-.12a4.28,4.28,0,0,0,2.85-.77l.07.11A4.43,4.43,0,0,1,440.6,484.82Z" transform="translate(-111.81 -175.74)"/>
          <polygon points="332.89 311.54 332.82 311.43 333.61 310.89 333.68 310.99 332.89 311.54"/>
          <polygon points="332.33 311.38 332.26 311.28 333.05 310.73 333.12 310.84 332.33 311.38"/>
          <path d="M428.94,489.4a.93.93,0,0,1-.31-.7.89.89,0,0,1,.88-.91h16.67a.48.48,0,0,1,.47.49v.84h-.12v-.84a.37.37,0,0,0-.35-.37H429.51a.78.78,0,0,0-.76.79.8.8,0,0,0,.27.6Z" transform="translate(-111.81 -175.74)"/>
          <path d="M429.57,487.88l-.11-.06a3,3,0,0,1,1.61-1.29c1.24-.55,6.68-3,6.73-3.06l.05.12c-.05,0-5.5,2.51-6.73,3.05A3,3,0,0,0,429.57,487.88Z" transform="translate(-111.81 -175.74)"/>
        </g>
      </g>
    </g>
  </g>
</svg>
