<svg id="Illustration" xmlns="http://www.w3.org/2000/svg" xmlns:xlink="http://www.w3.org/1999/xlink" viewBox="0 0 2781.99 2772.29"><defs><style>.cls-1{fill:url(#linear-gradient);}.cls-2{fill:#91b3fa;}.cls-3{fill:#7d97f4;}.cls-4{fill:url(#linear-gradient-2);}.cls-5{fill:url(#linear-gradient-3);}.cls-6{fill:url(#linear-gradient-4);}.cls-7{opacity:0.61;}.cls-58,.cls-59,.cls-8{fill:#fff;}.cls-9{opacity:0.74;}.cls-10{fill:url(#linear-gradient-5);}.cls-11{fill:url(#linear-gradient-6);}.cls-12{fill:url(#linear-gradient-7);}.cls-13{fill:url(#linear-gradient-8);}.cls-14{fill:url(#linear-gradient-9);}.cls-15{fill:url(#linear-gradient-10);}.cls-16{fill:url(#linear-gradient-11);}.cls-17{fill:url(#linear-gradient-12);}.cls-18{fill:url(#linear-gradient-13);}.cls-19{fill:url(#linear-gradient-14);}.cls-20{fill:url(#linear-gradient-15);}.cls-21{fill:url(#linear-gradient-16);}.cls-22{fill:url(#linear-gradient-17);}.cls-23{fill:url(#linear-gradient-18);}.cls-24{fill:url(#linear-gradient-19);}.cls-25{fill:url(#linear-gradient-20);}.cls-26{fill:url(#linear-gradient-21);}.cls-27{fill:url(#linear-gradient-22);}.cls-28{fill:url(#linear-gradient-23);}.cls-29{fill:url(#linear-gradient-24);}.cls-30{fill:url(#linear-gradient-25);}.cls-31{opacity:0.23;fill:url(#linear-gradient-26);}.cls-32{fill:url(#linear-gradient-27);}.cls-33{fill:url(#linear-gradient-28);}.cls-34{fill:url(#linear-gradient-29);}.cls-35{fill:url(#linear-gradient-30);}.cls-36{fill:url(#linear-gradient-31);}.cls-37{fill:url(#linear-gradient-32);}.cls-38{fill:url(#linear-gradient-33);}.cls-39{fill:url(#linear-gradient-34);}.cls-40{fill:url(#linear-gradient-35);}.cls-41{fill:url(#linear-gradient-36);}.cls-42{fill:url(#linear-gradient-37);}.cls-43{fill:url(#linear-gradient-38);}.cls-44{fill:url(#linear-gradient-39);}.cls-45{fill:url(#linear-gradient-40);}.cls-46{fill:url(#linear-gradient-41);}.cls-47{fill:url(#linear-gradient-42);}.cls-48{fill:url(#linear-gradient-43);}.cls-49{fill:url(#linear-gradient-44);}.cls-50{fill:url(#linear-gradient-45);}.cls-51{fill:url(#linear-gradient-46);}.cls-52{fill:url(#linear-gradient-47);}.cls-53{fill:url(#linear-gradient-48);}.cls-54{fill:url(#linear-gradient-49);}.cls-55{fill:url(#linear-gradient-50);}.cls-56{fill:url(#linear-gradient-51);}.cls-57{fill:url(#linear-gradient-52);}.cls-58{opacity:0.14;}.cls-59{opacity:0.77;}</style><linearGradient id="linear-gradient" x1="3490.77" y1="3634.02" x2="1550.24" y2="1568.29" gradientUnits="userSpaceOnUse"><stop offset="0" stop-color="#dae3fe"/><stop offset="1" stop-color="#e9effd"/></linearGradient><linearGradient id="linear-gradient-2" x1="1419.44" y1="603.04" x2="1132.53" y2="2898.3" gradientUnits="userSpaceOnUse"><stop offset="0" stop-color="#ff928e"/><stop offset="1" stop-color="#fe7062"/></linearGradient><linearGradient id="linear-gradient-3" x1="3439.15" y1="3206.93" x2="1577.58" y2="2206.09" gradientUnits="userSpaceOnUse"><stop offset="0" stop-color="#4f52ff"/><stop offset="1" stop-color="#4042e2"/></linearGradient><linearGradient id="linear-gradient-4" x1="2135.2" y1="2172.36" x2="3269.49" y2="978.02" xlink:href="#linear-gradient-3"/><linearGradient id="linear-gradient-5" x1="2465.18" y1="490.21" x2="1616.28" y2="1320.66" gradientUnits="userSpaceOnUse"><stop offset="0" stop-color="#2b3582"/><stop offset="1" stop-color="#150e42"/></linearGradient><linearGradient id="linear-gradient-6" x1="1965.62" y1="1545.18" x2="1882.77" y2="1626.22" gradientTransform="translate(545.49 -484.84) rotate(16.84)" gradientUnits="userSpaceOnUse"><stop offset="0" stop-color="#09005d"/><stop offset="1" stop-color="#1a0f91"/></linearGradient><linearGradient id="linear-gradient-7" x1="2287.94" y1="1369.06" x2="2205.09" y2="1450.11" gradientTransform="translate(2947.83 -1125.52) rotate(73.15)" xlink:href="#linear-gradient-6"/><linearGradient id="linear-gradient-8" x1="2590.34" y1="1495.33" x2="2507.49" y2="1576.38" gradientTransform="translate(2520.43 -1421.12) rotate(58.28)" xlink:href="#linear-gradient-6"/><linearGradient id="linear-gradient-9" x1="2378.88" y1="791.11" x2="2296.03" y2="872.16" gradientTransform="matrix(1, 0, 0, 1, 0, 0)" xlink:href="#linear-gradient-6"/><linearGradient id="linear-gradient-10" x1="3155.24" y1="1066.67" x2="3072.39" y2="1147.72" gradientTransform="translate(1346.42 -1670.08) rotate(37.98)" xlink:href="#linear-gradient-6"/><linearGradient id="linear-gradient-11" x1="1981.52" y1="3215.4" x2="2170.52" y2="3215.4" gradientTransform="translate(-1140.73)" xlink:href="#linear-gradient-3"/><linearGradient id="linear-gradient-12" x1="1981.51" y1="3178.36" x2="2165.19" y2="3178.36" gradientTransform="translate(-1140.73)" xlink:href="#linear-gradient-6"/><linearGradient id="linear-gradient-13" x1="1998.97" y1="3126.64" x2="2052.21" y2="3126.64" gradientTransform="translate(-1140.73)" gradientUnits="userSpaceOnUse"><stop offset="0" stop-color="#febbba"/><stop offset="1" stop-color="#ff928e"/></linearGradient><linearGradient id="linear-gradient-14" x1="1604.74" y1="3211.33" x2="1677.17" y2="3211.33" gradientTransform="translate(-1140.73)" xlink:href="#linear-gradient-3"/><linearGradient id="linear-gradient-15" x1="1605.27" y1="3155.56" x2="1711.58" y2="3155.56" gradientTransform="translate(-1140.73)" xlink:href="#linear-gradient-6"/><linearGradient id="linear-gradient-16" x1="1660.52" y1="3082.26" x2="1724.15" y2="3082.26" xlink:href="#linear-gradient-13"/><linearGradient id="linear-gradient-17" x1="-136.02" y1="3794.76" x2="1158.4" y2="2393.58" xlink:href="#linear-gradient-3"/><linearGradient id="linear-gradient-18" x1="-719.11" y1="4255.23" x2="-81.9" y2="3761.48" gradientTransform="translate(-1140.73)" xlink:href="#linear-gradient-2"/><linearGradient id="linear-gradient-19" x1="871.44" y1="1967.23" x2="891.46" y2="2290.84" xlink:href="#linear-gradient-3"/><linearGradient id="linear-gradient-20" x1="1952.01" y1="2154.87" x2="1725.52" y2="2355.43" xlink:href="#linear-gradient-13"/><linearGradient id="linear-gradient-21" x1="-829.44" y1="4112.84" x2="-192.24" y2="3619.09" gradientTransform="translate(-1140.73)" xlink:href="#linear-gradient-2"/><linearGradient id="linear-gradient-22" x1="-625.4" y1="4376.17" x2="11.8" y2="3882.42" gradientTransform="translate(-1140.73)" xlink:href="#linear-gradient-2"/><linearGradient id="linear-gradient-23" x1="2376.59" y1="2173.84" x2="2554.96" y2="2173.84" xlink:href="#linear-gradient-13"/><linearGradient id="linear-gradient-24" x1="2203.21" y1="1697.17" x2="2201.27" y2="2030.26" xlink:href="#linear-gradient-13"/><linearGradient id="linear-gradient-25" x1="1549.62" y1="2120.66" x2="558.78" y2="2487.63" gradientTransform="matrix(1, 0, 0, 1, 0, 0)" xlink:href="#linear-gradient-6"/><linearGradient id="linear-gradient-26" x1="2590.08" y1="1890.33" x2="3447.45" y2="1890.33" gradientTransform="translate(-1604.74 -455)" gradientUnits="userSpaceOnUse"><stop offset="0" stop-color="#b37cff"/><stop offset="1" stop-color="#f895e7"/></linearGradient><linearGradient id="linear-gradient-27" x1="2541.75" y1="1890.33" x2="3495.77" y2="1890.33" gradientTransform="translate(-1140.73)" xlink:href="#linear-gradient-6"/><linearGradient id="linear-gradient-28" x1="1979.3" y1="3441.43" x2="1815.34" y2="3658.34" gradientTransform="translate(-1279.79 -1480.94) rotate(-8.21)" xlink:href="#linear-gradient-13"/><linearGradient id="linear-gradient-29" x1="1021.08" y1="1678.1" x2="1589.96" y2="1750.02" gradientTransform="matrix(1, 0, 0, 1, 0, 0)" xlink:href="#linear-gradient-6"/><linearGradient id="linear-gradient-30" x1="1739.16" y1="3613.21" x2="1870.68" y2="3478.28" gradientTransform="translate(-1279.79 -1480.94) rotate(-8.21)" xlink:href="#linear-gradient-13"/><linearGradient id="linear-gradient-31" x1="2041.45" y1="2255.87" x2="1814.96" y2="2456.43" xlink:href="#linear-gradient-13"/><linearGradient id="linear-gradient-32" x1="2536.01" y1="2152.89" x2="2599.89" y2="2152.89" xlink:href="#linear-gradient-13"/><linearGradient id="linear-gradient-33" x1="-3735.99" y1="3071.78" x2="-4311.66" y2="3697.95" gradientTransform="matrix(-1, 0, 0, 1, -1038.07, 0)" xlink:href="#linear-gradient-3"/><linearGradient id="linear-gradient-34" x1="-3922.85" y1="3118.29" x2="-3871.71" y2="3118.29" gradientTransform="matrix(-1, 0, 0, 1, -1038.07, 0)" xlink:href="#linear-gradient-13"/><linearGradient id="linear-gradient-35" x1="-4044.1" y1="2727.3" x2="-3875.02" y2="2727.3" gradientTransform="matrix(-1, 0, 0, 1, -1038.07, 0)" xlink:href="#linear-gradient-6"/><linearGradient id="linear-gradient-36" x1="-3865.13" y1="2953.06" x2="-4440.8" y2="3579.22" gradientTransform="matrix(-1, 0, 0, 1, -1038.07, 0)" xlink:href="#linear-gradient-3"/><linearGradient id="linear-gradient-37" x1="-4107.13" y1="3115.67" x2="-4062.98" y2="3115.67" gradientTransform="matrix(-1, 0, 0, 1, -1038.07, 0)" xlink:href="#linear-gradient-13"/><linearGradient id="linear-gradient-38" x1="-4154.72" y1="2721.77" x2="-3914.69" y2="2721.77" gradientTransform="matrix(-1, 0, 0, 1, -1038.07, 0)" xlink:href="#linear-gradient-6"/><linearGradient id="linear-gradient-39" x1="2561.53" y1="2594.07" x2="3031.9" y2="1883.51" xlink:href="#linear-gradient-2"/><linearGradient id="linear-gradient-40" x1="-3712.43" y1="1784.27" x2="-3451.2" y2="1784.27" gradientTransform="matrix(-1, 0, 0, 1, -1038.07, 0)" xlink:href="#linear-gradient-13"/><linearGradient id="linear-gradient-41" x1="13957.17" y1="1740.48" x2="14132.46" y2="2139.32" gradientTransform="translate(-11485.85)" xlink:href="#linear-gradient-13"/><linearGradient id="linear-gradient-42" x1="-3452.45" y1="1607.66" x2="-3379.31" y2="1495.2" gradientTransform="matrix(-1, 0, 0, 1, -1038.07, 0)" xlink:href="#linear-gradient-13"/><linearGradient id="linear-gradient-43" x1="2698.38" y1="2684.66" x2="3168.75" y2="1974.09" xlink:href="#linear-gradient-2"/><linearGradient id="linear-gradient-44" x1="-4284.06" y1="2154.3" x2="-3953.47" y2="2154.3" gradientTransform="matrix(-1, 0, 0, 1, -1038.07, 0)" xlink:href="#linear-gradient-13"/><linearGradient id="linear-gradient-45" x1="-3853.45" y1="1919.26" x2="-3671.67" y2="2676.68" gradientTransform="matrix(-1, 0, 0, 1, -1038.07, 0)" xlink:href="#linear-gradient-6"/><linearGradient id="linear-gradient-46" x1="-3739.64" y1="1799.87" x2="-3778.36" y2="1969.88" gradientTransform="matrix(-1, 0, 0, 1, -1038.07, 0)" xlink:href="#linear-gradient-3"/><linearGradient id="linear-gradient-47" x1="-3759.9" y1="1871.18" x2="-3778.42" y2="1982.28" gradientTransform="matrix(-1, 0, 0, 1, -1038.07, 0)" xlink:href="#linear-gradient-3"/><linearGradient id="linear-gradient-48" x1="-3978.01" y1="2119.64" x2="-3875.02" y2="2119.64" gradientTransform="matrix(-1, 0, 0, 1, -1038.07, 0)" xlink:href="#linear-gradient-13"/><linearGradient id="linear-gradient-49" x1="2975.64" y1="1997.94" x2="2892.24" y2="1697.69" gradientTransform="matrix(1, 0, 0, 1, 0, 0)" xlink:href="#linear-gradient-13"/><linearGradient id="linear-gradient-50" x1="-8389.27" y1="-4109.27" x2="-8438.11" y2="-4270.37" gradientTransform="matrix(-0.75, -0.67, -0.67, 0.75, -6164.4, -803.17)" xlink:href="#linear-gradient-13"/><linearGradient id="linear-gradient-51" x1="-8433.33" y1="-4389.96" x2="-8392.48" y2="-4156.92" gradientTransform="matrix(-0.75, -0.67, -0.67, 0.75, -6164.4, -803.17)" xlink:href="#linear-gradient-6"/><linearGradient id="linear-gradient-52" x1="-8439.2" y1="-4110.02" x2="-8483.14" y2="-4254.96" gradientTransform="matrix(-0.75, -0.67, -0.67, 0.75, -6164.4, -803.17)" xlink:href="#linear-gradient-13"/></defs><path class="cls-1" d="M2906.47,2806.82c-71.64,73.84-135.73,117.24-184.81,150C2243,3276.41,1694.24,3238.48,1525.09,3207c-272.91-50.8-501.61-140.81-699.54-319.64-449.77-406.34-427.89-1254-84.22-1779.1,40.75-62.26,383.91-570.92,932.21-642.59,13.41-1.75,23.41-2.75,32.18-3.68,84.82-9,610.44-56.38,1039,302.69,61.35,51.4,170.53,137.87,251.64,285.51C3286.65,1578.61,3332.22,2368,2906.47,2806.82Z" transform="translate(-464.01 -455)"/><path class="cls-2" d="M2882.25,1579.84c-.82-3.53-1.64-7.06-2.5-10.59-129.59-533.5-671.86-859.78-1211.2-728.77L1905.76,1817Z" transform="translate(-464.01 -455)"/><path class="cls-2" d="M1902.86,1813.25l950.62,326.38c59.06-171.49,72.44-361.07,28.94-550.88-1.37-6-2.81-11.92-4.28-17.85Z" transform="translate(-464.01 -455)"/><path class="cls-3" d="M1905.75,1817l193.19,986.2q9.29-1.81,18.56-3.8c356.77-76.9,628.12-334.41,738.88-656Z" transform="translate(-464.01 -455)"/><path class="cls-4" d="M1782.22,1735.63,1581.59,763.44c-453.63,93.61-772.17,479.34-800,920.35L1776.68,1742A5.34,5.34,0,0,0,1782.22,1735.63Z" transform="translate(-464.01 -455)"/><path class="cls-5" d="M1906.36,1812.84,903.61,1779.51c-4.29,87.85,3.61,161.48,23.61,251.48,93.34,419.9,436.8,719.47,838.82,777Z" transform="translate(-464.01 -455)"/><path class="cls-6" d="M1757.6,2811a1001.65,1001.65,0,0,0,342.66-7.5h0l-192.15-986.39Z" transform="translate(-464.01 -455)"/><g class="cls-7"><path class="cls-8" d="M1547.46,2718.77a6.59,6.59,0,0,1-2.55-.51,981.23,981.23,0,0,1-362.77-260.07c-101.82-116.59-175.08-258.27-211.87-409.72-3.3-13.58-6.34-27.36-9-40.95a6.67,6.67,0,0,1,13.09-2.6c2.66,13.41,5.66,27,8.91,40.4,36.28,149.37,108.54,289.11,209,404.09A967.9,967.9,0,0,0,1550,2705.93a6.67,6.67,0,0,1-2.55,12.84Z" transform="translate(-464.01 -455)"/></g><g class="cls-7"><path class="cls-8" d="M2273,2723.07a6.68,6.68,0,0,1-2.47-12.88c248.23-98.52,445.57-298.83,541.41-549.57a6.67,6.67,0,0,1,12.47,4.76c-97.17,254.22-297.26,457.32-549,557.21A6.44,6.44,0,0,1,2273,2723.07Z" transform="translate(-464.01 -455)"/></g><g class="cls-7"><path class="cls-8" d="M2686.85,1243.75a6.68,6.68,0,0,1-5.33-2.65c-119.93-158.85-283.75-275-473.75-336a6.67,6.67,0,0,1,4.08-12.71c192.63,61.83,358.72,179.64,480.32,340.7a6.68,6.68,0,0,1-5.32,10.69Z" transform="translate(-464.01 -455)"/></g><g class="cls-9"><path class="cls-8" d="M1327.83,1679.14l-.44,0L816.84,1646.2,818,1639c13.43-86.56,35.54-170.38,69.56-263.77a6.67,6.67,0,1,1,12.53,4.57c-32.76,90-54.37,170.9-67.76,254l496,32a6.67,6.67,0,0,1-.42,13.33Z" transform="translate(-464.01 -455)"/></g><g class="cls-9"><path class="cls-8" d="M1728.29,1704.94c-.24,0-.47,0-.71,0l-104.15-6.73a6.67,6.67,0,1,1,.86-13.32l100.71,6.52-108.32-507.17a6.68,6.68,0,0,1,13.06-2.79l109,510.54a10.73,10.73,0,0,1-10.48,13Zm-2.57-10.19h0Z" transform="translate(-464.01 -455)"/></g><polygon class="cls-10" points="1448.36 1149.01 1443.56 1140.23 1768.05 962.93 2069.59 1095.47 2328.46 841.55 2328.99 841.24 2633.04 661.8 2638.13 670.42 2334.6 849.55 2071.77 1107.36 1768.53 974.07 1448.36 1149.01"/><circle class="cls-11" cx="1909.96" cy="1599.62" r="34.89" transform="translate(-845.59 167.11) rotate(-16.84)"/><circle class="cls-12" cx="2232.29" cy="1423.5" r="34.89" transform="translate(-241.01 2692.5) rotate(-73.15)"/><circle class="cls-13" cx="2534.68" cy="1549.77" r="34.89" transform="translate(-580.2 2436.14) rotate(-58.28)"/><circle class="cls-14" cx="2323.23" cy="845.55" r="34.89"/><circle class="cls-15" cx="3099.59" cy="1121.11" r="34.89" transform="translate(-497.47 1689.97) rotate(-37.98)"/><path class="cls-16" d="M1024.45,3206.26c-32.38,2.8-88.57,7.34-132.87,9.29-26.63,1.18-42-1.43-50.79-5,0,1,0,1.94.08,2.81a9.18,9.18,0,0,0,8.71,8.66,1557,1557,0,0,0,174,.17,6.52,6.52,0,0,0,5.31-9.8A52.43,52.43,0,0,0,1024.45,3206.26Z" transform="translate(-464.01 -455)"/><path class="cls-17" d="M891.58,3215.55c44.3-2,100.49-6.49,132.87-9.29-31.83-39.06-132.87-65.38-132.87-65.38H863c-19.62,28.29-22.46,55.23-22.25,69.7C849.62,3214.12,865,3216.73,891.58,3215.55Z" transform="translate(-464.01 -455)"/><path class="cls-18" d="M858.24,3094.29l2.67,52.85a12.07,12.07,0,0,0,10.3,11.35,47,47,0,0,0,21.44-1.78,14.28,14.28,0,0,0,9.6-11l9.23-51.45Z" transform="translate(-464.01 -455)"/><path class="cls-19" d="M487.59,3215.16c-14-2-20.39-9.25-23.06-17l0,.21c-2.07,8.22,2.72,16.75,12.3,20.8,11.57,4.9,24.22,5.74,34,5.33,10.54-.43,20.22-4.79,25.53-11.77l.08-.11C525.85,3217.81,511,3218.42,487.59,3215.16Z" transform="translate(-464.01 -455)"/><path class="cls-20" d="M553.79,3094H530.26c-35.85-.73-58.36,74.88-65.73,104.16,2.67,7.8,9,15.09,23.06,17,23.42,3.26,38.26,2.65,48.84-2.59,19.37-25.48,29-62.81,33.59-84.59C575.26,3103.21,553.79,3094,553.79,3094Z" transform="translate(-464.01 -455)"/><path class="cls-21" d="M533.28,3044.91l-13.07,52a14.11,14.11,0,0,0,7.34,16c7.31,3.75,17.61,7.69,27.07,6.55a11.78,11.78,0,0,0,9.61-7.86l19.18-54.68Z" transform="translate(-464.01 -455)"/><path class="cls-22" d="M517.69,3059.93c16.26,14.42,69.15,16.33,69.15,16.33,190.49-457.2,268.41-522.15,268.41-522.15-27.5,172.56-4.43,554.61-4.43,554.61,31.43,13.87,72,0,72,0a2944.58,2944.58,0,0,1,97.27-723.14c-128.75-2.9-197.21-46.95-219.57-64.64C693.16,2494,517.69,3059.93,517.69,3059.93Z" transform="translate(-464.01 -455)"/><path class="cls-23" d="M833.18,1795.16c-24.37,121.56-15.64,339.12-9.9,438.36,1.61,27.89-17.86,66.56-33.6,92.93a8.28,8.28,0,0,0,3.34,11.64c26.35,13.54,115.62,55.51,219.07,60.74a14.75,14.75,0,0,0,14.84-11c76.74-286.53,165.88-469.63,165.88-469.63C1094.4,1761,833.18,1795.16,833.18,1795.16Z" transform="translate(-464.01 -455)"/><path class="cls-24" d="M868.25,2543.28A6.1,6.1,0,0,1,863,2534c1-1.68,25.67-41.51,75.53-65.57a6.1,6.1,0,1,1,5.3,11c-46.48,22.43-70.17,60.55-70.41,60.93A6.1,6.1,0,0,1,868.25,2543.28Z" transform="translate(-464.01 -455)"/><path class="cls-25" d="M680.32,2144c7.83,56.62,31,118.39,77.22,184l17.59-14.34s-20.3-82.37-8.76-175.86C737.83,2132.27,704.12,2138,680.32,2144Z" transform="translate(-464.01 -455)"/><path class="cls-26" d="M860.4,1945.15l-27.22-150s-181.87,139-152.86,348.87c23.8-6,57.51-11.76,86-6.2C774.68,2070.49,799.52,1997.39,860.4,1945.15Z" transform="translate(-464.01 -455)"/><path class="cls-27" d="M1192.81,1918.17l-70.2,151.18c11.35,91.27,60.38,130.74,113.25,145.88a321,321,0,0,1,23.58-98.46C1191.88,2047,1192.81,1918.17,1192.81,1918.17Z" transform="translate(-464.01 -455)"/><path class="cls-28" d="M1259.44,2116.77a321,321,0,0,0-23.58,98.46c141.05,54.72,178.37-51.41,178.37-51.41l-26.07-4.6C1329.29,2165.42,1288.17,2146.44,1259.44,2116.77Z" transform="translate(-464.01 -455)"/><path class="cls-29" d="M1128.13,1731.52l-33.89,124.58a24.23,24.23,0,0,1-32.41,16.13c-14.53-5.81-33-13.74-48.85-22.31a32.67,32.67,0,0,1-11.52-46.94l70.46-105.06Z" transform="translate(-464.01 -455)"/><path class="cls-30" d="M1478.88,2080.45l-868.4,316.06a66.5,66.5,0,0,0-37.79,90l2.64,5.8a61.8,61.8,0,0,0,82.21,30.5l843.21-390.07Z" transform="translate(-464.01 -455)"/><ellipse class="cls-31" cx="1414.02" cy="1435.33" rx="428.68" ry="420.95"/><path class="cls-32" d="M1878,1421.92c-263.44,0-477,209.72-477,468.41s213.57,468.4,477,468.4,477-209.71,477-468.4S2141.48,1421.92,1878,1421.92Zm0,868c-224.75,0-406.94-178.91-406.94-399.6s182.19-399.6,406.94-399.6S2285,1669.64,2285,1890.33,2102.78,2289.93,1878,2289.93Z" transform="translate(-464.01 -455)"/><path class="cls-2" d="M1437.29,1948.35a3.2,3.2,0,0,1-3.18-2.8c-1.42-11.16-2.42-22.46-3-33.58a3.22,3.22,0,0,1,3-3.36,3,3,0,0,1,3.36,3.05c.53,10.95,1.52,22.09,2.92,33.09a3.21,3.21,0,0,1-2.78,3.58A2.68,2.68,0,0,1,1437.29,1948.35Zm3.27-131a3.77,3.77,0,0,1-.57-.05,3.19,3.19,0,0,1-2.58-3.72,430.94,430.94,0,0,1,25.73-88.08h0c68.76-166.81,231.62-274.6,414.88-274.6a451.92,451.92,0,0,1,240.25,68.66,3.21,3.21,0,0,1-3.41,5.43A445.48,445.48,0,0,0,1878,1457.33c-180.66,0-341.19,106.24-409,270.64v0a424.83,424.83,0,0,0-25.35,86.75A3.2,3.2,0,0,1,1440.56,1817.38Z" transform="translate(-464.01 -455)"/><path class="cls-33" d="M1202.28,1636.86C1202.58,1639,1174,1779,1174,1779l-79.61-18,7.37-136.74S1197.11,1601.05,1202.28,1636.86Z" transform="translate(-464.01 -455)"/><path class="cls-34" d="M1119.67,1654.75l-9.51,71.68a9.67,9.67,0,0,0,0,2.74c.8,5.62,5,24.75,24.29,19.28,17.52-5,33.59-9.23,44.68-5.84a10.1,10.1,0,0,1,6.95,11.68c-2.6,12.72-9,41.28-18.33,65.24a10.07,10.07,0,0,1-12.23,6c-15.1-4.4-46.68-14.58-70.17-28.71a10.11,10.11,0,0,1-4.92-9.09c.76-18.1,2.88-73.1,1.1-88.52-1.68-14.48-19.44-23.15-27.16-26.26a9.92,9.92,0,0,1-5.52-5.54c-3.57-9-8.5-29.68,17.62-38.17a10.12,10.12,0,0,0,6.4-13.08c-3.87-10.77-5.5-27.2,14.7-36.26,20.54-9.2,35.87,1.75,44.15,10.64a10.1,10.1,0,0,0,12.88,1.52c2.37-1.49,5.41-2,9.09.31a10,10,0,0,0,14.09-4.27c4.92-10.09,14.94-20.9,35-17.46,35.67,6.11,39.71,45.64,30.3,68.8s-47.71,14.35-66.93,2.67c-14.6-8.88-33.55.43-41.8,5.4A10,10,0,0,0,1119.67,1654.75Z" transform="translate(-464.01 -455)"/><path class="cls-35" d="M1078.33,1725.3s14.67-41.07-.4-51.13-37.38-4.83-32.47,24.92C1051.57,1736.09,1078.33,1725.3,1078.33,1725.3Z" transform="translate(-464.01 -455)"/><path class="cls-36" d="M767.88,2311.19,850,2304.5l35.55,32.77s-8.41,11.63-34.7,4.95-62.32-8.32-62.32-8.32-36.3,16.36-36.75-14.26Z" transform="translate(-464.01 -455)"/><path class="cls-37" d="M1403.77,2183.24c7.1,5.54,31.43-6,46.31-14a17.13,17.13,0,0,0,8.28-20.24c-3.58-11.29-9.55-25.87-16.9-27.71C1429.25,2118.2,1374.52,2160.38,1403.77,2183.24Z" transform="translate(-464.01 -455)"/><path class="cls-2" d="M627.61,2510.68a3.27,3.27,0,0,1-1.05-.18c-33.92-11.73-41.81-31.77-42.45-46.52-.93-21.55,12.61-41.55,33.69-49.77l104.27-40.66a3.2,3.2,0,0,1,2.33,6l-104.28,40.66c-18.52,7.22-30.42,24.71-29.6,43.52.8,18.57,13.63,32.27,38.14,40.74a3.21,3.21,0,0,1-1,6.24Z" transform="translate(-464.01 -455)"/><path class="cls-2" d="M755.36,2367.21a3.2,3.2,0,0,1-1.17-6.19l13.52-5.27a3.2,3.2,0,1,1,2.33,6L756.52,2367A3.14,3.14,0,0,1,755.36,2367.21Z" transform="translate(-464.01 -455)"/><path class="cls-38" d="M2879.89,3118.43s6,33.75,8.89,67.16a23,23,0,0,1-22,24.94c-44.49,1.85-139.66,5.46-173.81,3.93a7.48,7.48,0,0,1-6.59-10.26,16.76,16.76,0,0,1,8.57-9l157.2-72.25Z" transform="translate(-464.01 -455)"/><path class="cls-39" d="M2884.78,3098.6,2880,3139s-27.54,12.82-46.35-1.62l11.41-45Z" transform="translate(-464.01 -455)"/><path class="cls-40" d="M2881.18,2339.63c2.07,10.54,11.1,526.09-44,757.12a7.86,7.86,0,0,0,4.6,9.13,136.8,136.8,0,0,0,44.88,9.12,13.51,13.51,0,0,0,13.4-9.7c15.76-53.6,91.24-322.17,101.09-578.73,11-286.68,0-9.76,0-9.76l-6.46-177.21Z" transform="translate(-464.01 -455)"/><path class="cls-41" d="M3060.73,3136s9.49,17,18.67,62.31a14,14,0,0,1-12.35,16.82c-14.69,1.44-37.31,3.3-55.43,3.18a14,14,0,0,1-13.86-15.62c2-16.53,8.26-43.64,27.57-64.78Z" transform="translate(-464.01 -455)"/><path class="cls-42" d="M3069.06,3084.11l-11.19,61s-11.07,8.23-33,2.27l5.35-65.69Z" transform="translate(-464.01 -455)"/><path class="cls-43" d="M3099.3,2355.45c45.07,272-9.78,672.29-28.28,750.63a12.21,12.21,0,0,1-9.86,9.28c-8.26,1.37-21.85,2.49-35.26-1.41a11.2,11.2,0,0,1-8.05-10.31c-2.48-63.34,2-452.18-40-605.85a34.87,34.87,0,0,0-13.46-19.26l-81.51-58-6.25-93.67Z" transform="translate(-464.01 -455)"/><path class="cls-44" d="M2812.1,1840c135.07-2.23,284.11,35.47,284.11,35.47,40.26,234.92,7,505.89,7,505.89-104.57,27.42-222.53-16.76-222.53-16.76-17.38-98.2-98.47-374.55-98.47-374.55-66-8.19-120.36-27.23-165.13-52.4,34.15-39.58,50.25-90,57.24-119.73C2722.12,1832.8,2770.44,1840.73,2812.1,1840Z" transform="translate(-464.01 -455)"/><path class="cls-45" d="M2413.13,1641.09c13.27-16,30.06-8.44,30.06-8.44,19.88,84,124.1,152,231.17,185.31-7,29.78-23.09,80.15-57.24,119.73C2439.42,1837.78,2413.13,1641.09,2413.13,1641.09Z" transform="translate(-464.01 -455)"/><path class="cls-46" d="M2416.35,1645.17c-1.39,4.41,14.69,11.13,24.15-6.92.33-8.65,5.6-45.72.43-52.77-27.54-37.53-80.92-84.59-80.92-84.59-9,8.9-1.59,17.65-1.59,17.65l25.9,27c-5.42,9.78-12,18-15.12,29.89a36.24,36.24,0,0,0,3.62,26.7c4.54,8.19,10.74,18.84,16.61,27.17C2400.52,1645.05,2416.35,1645.17,2416.35,1645.17Z" transform="translate(-464.01 -455)"/><path class="cls-47" d="M2395.65,1563l23.59,20,7.41,19.92-21,23.34s-7.07-39.52-12.33-48.07S2390.75,1565.52,2395.65,1563Z" transform="translate(-464.01 -455)"/><path class="cls-48" d="M3044.4,2006.29l51.81-130.78s126.16,85.72,146.91,194.41c-23.84,1.75-67.22,7.95-109.68,29.39C3124.11,2048,3044.4,2006.29,3044.4,2006.29Z" transform="translate(-464.01 -455)"/><path class="cls-49" d="M2934.15,2129.36s141.65,80.06,189.44,11.7c9.92-14.19,12.3-28.3,9.85-41.75,42.46-21.44,85.84-27.64,109.68-29.39,6.25,32.76,3,67.61-16.31,102.83-83.72,153.15-311.41-8.46-311.41-8.46Z" transform="translate(-464.01 -455)"/><path class="cls-50" d="M2951.17,2230.64l-77.31-270a7.86,7.86,0,0,0-6.66-5.66c-14-1.64-54.59-6.23-101.45-10.19-56.45-4.78-122-8.64-161.17-5.35a7.89,7.89,0,0,0-6.45,11.36c22.27,45.07,113.89,228.38,159.78,288.43a7.93,7.93,0,0,0,6.37,3.13l179.37-1.67A7.9,7.9,0,0,0,2951.17,2230.64Z" transform="translate(-464.01 -455)"/><path class="cls-51" d="M2757.73,1921.4l-56.05-9.33a4,4,0,0,0-4.48,5.22l5.55,16.82a4,4,0,0,0,3.28,2.72L2760,1944a4,4,0,0,0,4.45-4.91l-3.44-14.67A4,4,0,0,0,2757.73,1921.4Z" transform="translate(-464.01 -455)"/><path class="cls-52" d="M2799.7,1968.85l-4.62-24a5.56,5.56,0,0,0-4.9-4.48L2677,1928.83a5.56,5.56,0,0,0-6,6.83l7.2,30a5.56,5.56,0,0,0,5.12,4.26l110.63,5.56A5.56,5.56,0,0,0,2799.7,1968.85Z" transform="translate(-464.01 -455)"/><path class="cls-53" d="M2932.49,2165.41s10.77-44.28,6.42-60-12.76-35.91-40.81-31.42-61.15,16.31-61.15,16.31,1.67,20.46,23,13.86l-13.23,10.23s1.89,16.38,19.9,7.63l-12.29,13.57s7.73,13.45,21,4.82S2894.91,2170.74,2932.49,2165.41Z" transform="translate(-464.01 -455)"/><path class="cls-54" d="M2948.92,1730.39l43,124.28a4.48,4.48,0,0,1-2,5.4c-11.71,6.47-53.92,25.2-104.78-7a21.07,21.07,0,0,1-9.71-15.06l-13.92-107.57Z" transform="translate(-464.01 -455)"/><path class="cls-55" d="M2855.4,1615.29s-47.19,88.84-41.14,124.72,64.54,33.31,115.61,4.17l35.69-95.93Z" transform="translate(-464.01 -455)"/><path class="cls-56" d="M2927.62,1697.07a3.66,3.66,0,0,1-1.6-5.36c3.78-5.78,10.87-17.56,13.13-27.88,0,0,8.48-5.43-21.6-12.63s-74.93-18.37-84.35-44c-9.2-25,15-87.74,53.49-37.72a3.66,3.66,0,0,0,5.8,0c6.31-8.22,22.92-25.29,46-14.94,21.57,9.68,24,25.49,23.71,33.46a3.64,3.64,0,0,0,4.31,3.73c10.91-2.08,37.08-3.87,49.3,23,10.07,22.12,3.52,34.64-2.43,40.77a3.65,3.65,0,0,0,1.56,6.06c7.17,2.19,16.43,8.27,15.5,25.07-1.28,23.22-27.24,21.17-34.63,20.11a3.67,3.67,0,0,0-3.26,1.15c-6.33,7-34.89,36.8-65.79,40.39a3.7,3.7,0,0,1-3.88-4.88l13.38-38.88a3.68,3.68,0,0,0-2-4.56Z" transform="translate(-464.01 -455)"/><path class="cls-57" d="M2922.24,1702.59s33.6-23.06,36.06-3.64-30.26,28.12-46.47,20.88Z" transform="translate(-464.01 -455)"/><path class="cls-2" d="M1301.82,1128.32l129.13,8.79a6.49,6.49,0,0,0,5-11.2l-123.83-91.7Z" transform="translate(-464.01 -455)"/><path class="cls-2" d="M564.09,715l727.27-4.45c16.65-.1,30.18,12.24,30.05,27.41l-3.06,366.17c-.13,15.27-14,27.45-30.75,27l-719.39-19.71c-16-.43-28.75-12.27-29-26.84l-4.81-342C534.23,727.51,547.54,715.14,564.09,715Z" transform="translate(-464.01 -455)"/><path class="cls-58" d="M586.62,737.44l681-3.89c15.59-.09,28.26,10.69,28.14,24l-2.87,319.93c-.12,13.34,11.29,32.1-4.38,31.7l-698-25.34c-15-.38-26.91-10.72-27.11-23.46l-4.5-298.82C558.66,748.33,571.11,737.53,586.62,737.44Z" transform="translate(-464.01 -455)"/><path class="cls-59" d="M1288.52,1109.13l-719.59-19.71a5.42,5.42,0,0,1-5.49-5.09l-4.81-342a4.84,4.84,0,0,1,1.62-3.67,5.8,5.8,0,0,1,4-1.56l727.26-4.45a5.9,5.9,0,0,1,4,1.52,4.82,4.82,0,0,1,1.65,3.7L1294.16,1104A5.43,5.43,0,0,1,1288.52,1109.13Zm-719.29-25,719.38,19.7,2.82-366-727.14,4.56Z" transform="translate(-464.01 -455)"/><path class="cls-59" d="M606,820.19c0,13,7.55,23.46,16.85,23.46h618.58c9.3,0,16.85-10.5,16.85-23.46s-7.55-23.45-16.85-23.45H622.89C613.59,796.74,606,807.24,606,820.19Z" transform="translate(-464.01 -455)"/><path class="cls-59" d="M639.92,883.65h579.94c12.62,0,22.85,6.3,22.85,14.07s-10.23,14.07-22.85,14.07H639.92c-12.62,0-22.84-6.3-22.84-14.07S627.3,883.65,639.92,883.65Z" transform="translate(-464.01 -455)"/><path class="cls-59" d="M617.08,961.8c0,7.76,10.21,14,22.8,14h580c12.6,0,22.81-6.28,22.81-14v-8.68c0-7.89-10.55-14.23-23.36-14l-580,8.68C627,948,617.08,954.18,617.08,961.8Z" transform="translate(-464.01 -455)"/><path class="cls-59" d="M642.21,1006.08h579.94c12.62,0,22.85,6.3,22.85,14.07s-10.23,14.06-22.85,14.06H642.21c-12.62,0-22.85-6.29-22.85-14.06S629.59,1006.08,642.21,1006.08Z" transform="translate(-464.01 -455)"/></svg>