<svg id="OBJECTS" xmlns="http://www.w3.org/2000/svg" xmlns:xlink="http://www.w3.org/1999/xlink" viewBox="0 0 431.84 343.27"><defs><style>.cls-1,.cls-11,.cls-12,.cls-20{fill:none;}.cls-2{fill:#b1d9b0;}.cls-21,.cls-3,.cls-9{fill:#fff;}.cls-4{fill:#a0c49e;}.cls-5{fill:#d4761d;}.cls-6{fill:#db9023;}.cls-7{fill:#487fe0;}.cls-8{fill:#27376a;}.cls-24,.cls-9{opacity:0.28;}.cls-10{opacity:0.4;}.cls-11,.cls-12{stroke:#487fe0;stroke-width:0.96px;}.cls-11,.cls-12,.cls-20{stroke-miterlimit:10;}.cls-12{stroke-dasharray:3.84 3.84;}.cls-13{fill:#9cc1f8;}.cls-14{fill:#263d74;}.cls-15{fill:#eff6ff;}.cls-16{fill:#dee7f7;}.cls-17{fill:#e8a33c;}.cls-18{fill:#db7929;}.cls-19{clip-path:url(#clip-path);}.cls-20{stroke:#263d74;stroke-width:1.21px;}.cls-21{opacity:0.7;}.cls-22{fill:#c4f1c3;}.cls-23{fill:#803b13;}.cls-24{fill:#d0e9f6;}.cls-25{fill:#c4dbfd;}.cls-26{opacity:0.22;}</style><clipPath id="clip-path" transform="translate(-40.77 -81.75)"><path class="cls-1" d="M157.65,321.25c.31-4.23-60-11.14-60-5.28,0,0,.07.93.21,2.58l-.21,0c1.56,18,7.14,79.06,11.36,79.33,4.95.3,33.6.75,35.7,0,1.84-.67,10.55-57.09,12.91-74.28l-.27-.05C157.54,322.43,157.62,321.63,157.65,321.25Z"/></clipPath></defs><path class="cls-2" d="M202,341.83c0-.66-29.9-31.66-60.73-44.83S87.94,267.37,87,243c-.91-23.3,3.11-36.75,18-57.23,12-16.55,18.89-23.13,22-26.46a.71.71,0,0,1,1.22.59c-1.67,10.72-7.85,46.18,13.6,68.4,20.5,21.21,41.73,26,58.34,58.16S202,341.83,202,341.83Z" transform="translate(-40.77 -81.75)"/><path class="cls-3" d="M127,159.33A113.05,113.05,0,0,0,114.23,186a84.35,84.35,0,0,0-3.32,14.35,63.65,63.65,0,0,0-.3,14.66,53.3,53.3,0,0,0,3.47,14.15,62.22,62.22,0,0,0,7.1,12.78c5.67,8,12.68,15,20,21.6s15,12.87,22.61,19.2c3.81,3.17,7.6,6.36,11.31,9.67a126.75,126.75,0,0,1,10.61,10.51,51.69,51.69,0,0,1,8.47,12.35,77.63,77.63,0,0,1,5.25,14,97.27,97.27,0,0,1,2.73,14.64c.53,4.93-.82-5-3.64-14.38a77,77,0,0,0-5.43-13.69,50.21,50.21,0,0,0-8.48-11.9c-6.69-7.2-14.31-13.54-21.94-19.82s-15.39-12.47-22.78-19.12-14.39-13.82-20.13-22a64.53,64.53,0,0,1-7.21-13.17,51.66,51.66,0,0,1-3.4-14.64,65.1,65.1,0,0,1,.58-15,83.59,83.59,0,0,1,3.62-14.48A109,109,0,0,1,127,159.33Z" transform="translate(-40.77 -81.75)"/><path class="cls-3" d="M158.39,262.76a25,25,0,0,0-.87,4.57,20.44,20.44,0,0,0,.08,4.56,16.44,16.44,0,0,0,1.16,4.4,24,24,0,0,0,2.19,4.08,13.65,13.65,0,0,1-2.87-3.77,14.88,14.88,0,0,1-.93-2.22,17.2,17.2,0,0,1-.5-2.37A15,15,0,0,1,158.39,262.76Z" transform="translate(-40.77 -81.75)"/><path class="cls-3" d="M108.64,252.46a26.39,26.39,0,0,1,7.48-.54,31.21,31.21,0,0,1,7.43,1.3,30.66,30.66,0,0,1,6.93,3,32.81,32.81,0,0,1,3.14,2.08,16.48,16.48,0,0,1,1.45,1.2c.47.4.94.82,1.4,1.24a49.85,49.85,0,0,0-6.33-3.9,38.59,38.59,0,0,0-6.85-2.75,40.33,40.33,0,0,0-7.23-1.48A38.3,38.3,0,0,0,108.64,252.46Z" transform="translate(-40.77 -81.75)"/><path class="cls-3" d="M118.36,208a12.55,12.55,0,0,0-2.92.49,6.13,6.13,0,0,0-2.44,1.34,2.53,2.53,0,0,0-.49.49,2.86,2.86,0,0,0-.42.55c-.12.19-.26.39-.37.59s-.19.44-.3.65a14.16,14.16,0,0,0-.47,1.39c-.12.48-.2,1-.34,1.47a13.13,13.13,0,0,1-.1-1.54,7.46,7.46,0,0,1,.24-1.55,5.49,5.49,0,0,1,1.64-2.73,5.68,5.68,0,0,1,2.89-1.35A6.53,6.53,0,0,1,118.36,208Z" transform="translate(-40.77 -81.75)"/><path class="cls-4" d="M158.52,139.17,162.4,131s-20-19-25.83-20.08c-6.45-1.17-26.51,36.6-7,81.5A239.67,239.67,0,0,0,150.46,230l6.3-2.67-3.89,6.19a253.55,253.55,0,0,0,17.68,22.84c14.16-46.75,11.35-77.68,11.35-77.68L171.64,177l7.66-5.62s-6.45-28.18-10.8-31.89S158.52,139.17,158.52,139.17Z" transform="translate(-40.77 -81.75)"/><path class="cls-3" d="M134.58,111.48c2,7.29,3.85,14.6,5.79,21.91L146,155.33l11,43.95s17.26,73.54,15.21,66.26l-5.87-21.88c-3.85-14.61-7.5-29.27-11.2-43.92-3.55-14.68-7.17-29.35-10.6-44.06l-5.1-22.07C137.83,126.23,136.14,118.87,134.58,111.48Z" transform="translate(-40.77 -81.75)"/><path class="cls-3" d="M134.59,155.46a9.5,9.5,0,0,1,4.87.29,12.07,12.07,0,0,1,4.31,2.44,15.05,15.05,0,0,1,3,3.9,23.53,23.53,0,0,1,1,2.23c.23.78.48,1.56.67,2.34-.4-.71-.73-1.44-1.1-2.15s-.79-1.38-1.23-2a18.67,18.67,0,0,0-1.41-1.87,14.21,14.21,0,0,0-5.54-4.15A13.08,13.08,0,0,0,134.59,155.46Z" transform="translate(-40.77 -81.75)"/><path class="cls-3" d="M165.63,190.93a12.66,12.66,0,0,0-3.78,3.65,16.68,16.68,0,0,0-2.22,4.69l-.37,1.26-.25,1.29c-.21.85-.22,1.74-.36,2.61l-.15,2.66c0,.89,0,1.78,0,2.69-.18-.88-.3-1.78-.46-2.67s-.12-1.81-.13-2.72a19.1,19.1,0,0,1,.81-5.4,14.3,14.3,0,0,1,2.55-4.87A10.07,10.07,0,0,1,165.63,190.93Z" transform="translate(-40.77 -81.75)"/><polygon class="cls-5" points="253.84 18.56 200.9 17.69 200.16 24.68 252.89 27.61 253.84 18.56"/><polygon class="cls-6" points="200.16 24.68 196.16 62.8 248.62 68.3 252.89 27.61 200.16 24.68"/><path class="cls-7" d="M280.13,93l-.5.66a44,44,0,0,0-2.4,3.74,26.64,26.64,0,0,0-2,4.06,25.92,25.92,0,0,0,3.2-3.17,43.91,43.91,0,0,0,2.75-3.49c.19-.26.36-.54.55-.81Z" transform="translate(-40.77 -81.75)"/><path class="cls-8" d="M282.57,89.47c-3.75-2.49-7.24-2.55-5.55,1s6.26,6.63,9.13,4.61S282.57,89.47,282.57,89.47Z" transform="translate(-40.77 -81.75)"/><path class="cls-7" d="M280.53,90.46s2-8.42,4.24-8.69,6.9,3.14,6.83,5.69-7.36,5.48-7.36,5.48Z" transform="translate(-40.77 -81.75)"/><path class="cls-9" d="M284.54,117c-3.76-.16-7.55-.22-11.31-.5-.72,0-8.64-1.11-8.41-.29-.26-.94-1.44-1.74-2.33-.9-.88,1.23-2.14,1.46-3.76.7a1.47,1.47,0,0,0-2.29.05c-.93,1.18-4.73-1-6.38-.6-1.91.45-3.17,2.11-4.26,3.61s1.24,3.22,2.32,1.71c2.68-3.71,6.24,0,9.32-1.83,1.69,1.45,3.86.86,5.7-.45,1.11.73,2.72.3,4.48.28,5.4-.08,11.13.85,16.58,1.09C286,119.93,286.4,117.06,284.54,117Z" transform="translate(-40.77 -81.75)"/><path class="cls-9" d="M284.09,127.56c-5.48-1.74-11.26-1.67-16.95-2-6.32-.34-12.52-.5-18.69,1.11a1.44,1.44,0,0,0,.77,2.78c5.91-1.54,11.87-1.34,17.92-1,5.42.29,11,.21,16.18,1.87C285.09,130.9,285.85,128.12,284.09,127.56Z" transform="translate(-40.77 -81.75)"/><path class="cls-9" d="M282,136.88c-1.25.54-5.1-1-6.64-1.17-2.85-.29-5.76-.27-8.63-.38l-18.89-.7c-1.86-.07-1.86,2.81,0,2.88l21.73.81a53,53,0,0,1,9.73,1.1c1.71.39,2.51.66,4.15,0S283.68,136.15,282,136.88Z" transform="translate(-40.77 -81.75)"/><g class="cls-10"><path class="cls-11" d="M296.3,349.58l1.6,1.06" transform="translate(-40.77 -81.75)"/><path class="cls-12" d="M301.16,352.68c58.94,35.41,179,32.87,170.55-55.05-8.66-90.4-102.74-19.54-53.78-10.86,31.8,5.63,46.56-71.53,33.1-109.78S350.18,78.73,232,83.36c-101.58,4-128.56,28.15-128.56,28.15s-59.63,34-58.66,93.63c.9,56,26.51,78.56,46.7,80.66" transform="translate(-40.77 -81.75)"/><path class="cls-11" d="M93.39,285.94c.64,0,1.28,0,1.92,0" transform="translate(-40.77 -81.75)"/></g><path class="cls-7" d="M103.59,110.36c-5,2.12-35.82,33.33-35.82,33.33l19.61,7.24a3,3,0,0,0,3.87-1.88Z" transform="translate(-40.77 -81.75)"/><path class="cls-7" d="M103.59,110.36l-61.3,22.8a2.34,2.34,0,0,0,0,4.38l8.44,3.11Z" transform="translate(-40.77 -81.75)"/><polygon class="cls-13" points="9.96 58.9 18.36 77.14 27 61.93 62.83 28.61 9.96 58.9"/><polygon class="cls-8" points="18.36 77.14 33.15 64.2 27 61.93 18.36 77.14 18.36 77.14"/><path class="cls-2" d="M296.94,317.52c6.54,12.12,99-27.25,76.19-40.27-16.57-9.45-14.37-11.62,4.71-33.27s53.11-79.74,32-94.32c-44.22-30.54-63.22,107-73.59,103.42s-7.25-18.6-18.83-15.38S293.75,311.61,296.94,317.52Z" transform="translate(-40.77 -81.75)"/><path class="cls-3" d="M405.42,147.13c-7.75,17.89-16.4,35.38-25.5,52.63S361,233.91,350.68,250.45c-5.2,8.26-10.66,16.35-16.26,24.35l-4.24,6-4.35,5.88c-1.43,2-2.95,3.89-4.44,5.83s-3,3.85-4.56,5.72c-6.13,7.6-12.6,14.94-19.43,21.91s-7.31,6.46-.68-.66,13-14.49,18.95-22.17a559.18,559.18,0,0,0,33.39-47.85q7.81-12.33,15.19-24.94c4.92-8.4,9.65-16.91,14.37-25.43s9.27-17.13,13.72-25.79S401.19,155.91,405.42,147.13Z" transform="translate(-40.77 -81.75)"/><path class="cls-3" d="M387.63,168.9a8.29,8.29,0,0,1,1.36,4,16.27,16.27,0,0,1-.13,4.3c-.1.72-.28,1.41-.42,2.11s-.39,1.37-.62,2-.51,1.33-.79,2-.61,1.28-1,1.9c.14-.7.35-1.37.52-2.06l.51-2c.3-1.37.62-2.72.81-4.09a24.72,24.72,0,0,0,.34-4.12A11.92,11.92,0,0,0,387.63,168.9Z" transform="translate(-40.77 -81.75)"/><path class="cls-3" d="M381.22,221.39a12.45,12.45,0,0,0-3.23-.61,11.22,11.22,0,0,0-1.64,0,11,11,0,0,0-1.61.18,16.47,16.47,0,0,0-6,2.34,27.51,27.51,0,0,0-5,4.13c-.72.83-1.47,1.64-2.17,2.49s-1.34,1.76-2.06,2.62c.53-1,1.12-1.93,1.68-2.9s1.33-1.8,2-2.7a22.1,22.1,0,0,1,5.08-4.46,14.89,14.89,0,0,1,6.4-2.25,10.73,10.73,0,0,1,1.7-.05,10.61,10.61,0,0,1,4.87,1.23Z" transform="translate(-40.77 -81.75)"/><path class="cls-3" d="M318.89,263.74a28.48,28.48,0,0,1,4,6.23,26.42,26.42,0,0,1,2.25,7.09,18.17,18.17,0,0,1-.31,7.45,16.49,16.49,0,0,1-1.37,3.47,16.16,16.16,0,0,1-2.17,3,18.45,18.45,0,0,0,2.82-6.64,20.33,20.33,0,0,0,.08-7.13,32.51,32.51,0,0,0-2-6.94,34.15,34.15,0,0,0-1.51-3.32C320.13,265.86,319.53,264.79,318.89,263.74Z" transform="translate(-40.77 -81.75)"/><path class="cls-14" d="M163.36,168.47c-21.72,1.19-21.47,22.65-21.07,49.54.14,9.24-.63,24.19.12,37,3.53,60.51-.12,56.31,110.26,60.23,45,1.59,85,3.46,94.58-6.71,10.31-10.89,8.23-33.94,10.76-73.73,1.17-20.57,6.4-61.82-9.29-63.42-31.61-3.24-58.91-3.67-94.12-4.45C220.91,166.21,182.83,167.4,163.36,168.47Z" transform="translate(-40.77 -81.75)"/><path class="cls-15" d="M168.86,176.21c-20.15,1.25-19.32,20.39-18.94,45.17.12,8.52-.59,22.3.1,34.14,3.27,55.78,1.28,50.79,103.19,54.4,41.51,1.47,78.44,3.69,85.94-5.06,6.1-7.12,2.76-31.21,5.1-67.89-.82-26.64,5.35-57.26-6.33-57.74C293.35,177.38,205.6,173.93,168.86,176.21Z" transform="translate(-40.77 -81.75)"/><path class="cls-14" d="M231.68,311.7s4.65,22.42-2.15,22.15-25.84-1.73-25.84,8.7c0,14,87.49,14.42,87.49.36,0-8-15.79-9.17-23.26-9.29-5-.08-3.27-4.75-1.2-22.06Z" transform="translate(-40.77 -81.75)"/><path class="cls-16" d="M180.65,394.38c10.07-12.55,15.79-14.92,24.63-14.69,30.42.8,91.48,1.34,94.21,3.75,3.55,3.13-10.27,34-15.64,38.21-6.59,5.16-111,5.9-111.88-8.73C171.59,406.77,176.8,399.17,180.65,394.38Z" transform="translate(-40.77 -81.75)"/><path class="cls-3" d="M187.42,390.91c4.87-6.1,10.86-9.28,19-9.07,27.89.73,86.42,2.85,89.64,3.82,3.48,1.06-8.56,28.21-13.48,31.92-6,4.56-111.09,2.19-107.06-8.5C177.42,404,184,395.21,187.42,390.91Z" transform="translate(-40.77 -81.75)"/><path class="cls-16" d="M200,386s-4.81,3.81-4.23,4.36,7.6.21,7.6.21l4.16-4.36S201,385.21,200,386Z" transform="translate(-40.77 -81.75)"/><path class="cls-16" d="M210.59,386.57l-3.18,4.36s6.83.14,7.94.23c.57,0,3.08-4.36,3.08-4.36Z" transform="translate(-40.77 -81.75)"/><path class="cls-16" d="M223,386.93a41.61,41.61,0,0,1-3.51,5.1l7,.2,3.38-5.11Z" transform="translate(-40.77 -81.75)"/><path class="cls-16" d="M190.79,394.56s-4.81,3.81-4.23,4.36,7.6.22,7.6.22l4.16-4.37S191.75,393.77,190.79,394.56Z" transform="translate(-40.77 -81.75)"/><path class="cls-16" d="M202.34,395.15l-4.16,4.33s6.75,1.13,7.43.41c1-1.1,3.59-4.54,3.59-4.54Z" transform="translate(-40.77 -81.75)"/><path class="cls-16" d="M215,395.55c-1.31,1.84-4.26,5-4.26,5l8.07.23,3.36-4.59Z" transform="translate(-40.77 -81.75)"/><path class="cls-16" d="M184.16,403.56,181,407.92s6.75,1.67,7.44.59,3.58-4.73,3.58-4.73Z" transform="translate(-40.77 -81.75)"/><path class="cls-16" d="M197.14,403.93c-.88,1.33-4.22,5.08-4.22,5.08l6.38.18,4-5.09Z" transform="translate(-40.77 -81.75)"/><path class="cls-16" d="M233.77,387.06a51.63,51.63,0,0,0-3.45,4.59l7.37.43,3.61-4.8Z" transform="translate(-40.77 -81.75)"/><path class="cls-16" d="M244.67,387.55l-3.17,4.36s8.14,1,8.76.35a24.62,24.62,0,0,0,2.26-4.49Z" transform="translate(-40.77 -81.75)"/><path class="cls-16" d="M256.92,387.58a47.7,47.7,0,0,1-3.12,5.08l9,.26,2.3-5.14Z" transform="translate(-40.77 -81.75)"/><path class="cls-16" d="M227.26,396.49l-4.08,4.37c.59.54,7.6.21,7.6.21l4.16-4.36S228.86,396.2,227.26,396.49Z" transform="translate(-40.77 -81.75)"/><path class="cls-16" d="M239.79,396.22l-3.67,5,8.7.09a28.62,28.62,0,0,1,2.81-4.9Z" transform="translate(-40.77 -81.75)"/><path class="cls-16" d="M252,396.6c-.44,1.17-2.59,5.1-2.59,5.1l8.76.25,2.65-5.35Z" transform="translate(-40.77 -81.75)"/><polygon class="cls-16" points="207.15 323.66 205.65 328.75 213.63 328.98 215.53 323.9 207.15 323.66"/><path class="cls-16" d="M269.82,388.45c.52-.13,20.82,2,20.82,2s-6.18,14.39-7.3,14.43a43.65,43.65,0,0,1-5-.62l2-4.94-14.07-1.17Z" transform="translate(-40.77 -81.75)"/><polygon class="cls-16" points="234.18 326.57 232.48 329.97 237.96 330.42 239.73 327.03 234.18 326.57"/><polygon class="cls-16" points="229.46 325.92 226.58 330.2 230.45 330.2 232.85 326.32 229.46 325.92"/><polygon class="cls-16" points="226.58 326 224.53 330.2 218.59 330.03 220.73 325.83 226.58 326"/><polygon class="cls-16" points="230.45 319.58 228.4 323.78 222.46 323.61 224.6 319.41 230.45 319.58"/><polygon class="cls-16" points="203.03 323.98 200.78 328.18 165.34 327.16 167.5 322.96 203.03 323.98"/><path class="cls-14" d="M183.27,405.26" transform="translate(-40.77 -81.75)"/><path class="cls-17" d="M296.3,315.5c-.43,8.42-1.13,25.72.25,26,1.81.33,23.64,0,23.64,0l5.76-3.69V315.5Z" transform="translate(-40.77 -81.75)"/><path class="cls-5" d="M296.3,315.5c-.43,7.62-1.13,23.28.25,23.5,1.81.31,23.64,0,23.64,0l5.76-3.33V315.5Z" transform="translate(-40.77 -81.75)"/><path class="cls-6" d="M326,311.42h-29.4s-.11,1.63-.25,4.08H326Z" transform="translate(-40.77 -81.75)"/><polygon class="cls-6" points="285.18 253.92 278.68 251.81 279.42 257.25 285.18 253.92"/><path class="cls-14" d="M127.75,389.62l1.71,2.33a.48.48,0,0,0,.85-.14c.36-1.14.83-2.95.28-3A10,10,0,0,0,127.75,389.62Z" transform="translate(-40.77 -81.75)"/><path class="cls-6" d="M126.36,336.65a110.45,110.45,0,0,0-3-11.41c-1.41-2.74-12.36,7-12.36,7s.26,2.33.77,6A22.24,22.24,0,0,0,126.36,336.65Z" transform="translate(-40.77 -81.75)"/><path class="cls-14" d="M111.78,338.27c1.72,12.49,6.3,40.7,13.52,49.28,1.92-.29,4.47-.7,7.09-1.18,2.18-9.44-2.6-34.77-6-49.72A22.24,22.24,0,0,1,111.78,338.27Z" transform="translate(-40.77 -81.75)"/><path class="cls-5" d="M125.3,387.55c1.07,1.27,2.17,2.57,3.38,2.42,2.32-.29,3.1-.93,3.71-3.6C129.77,386.85,127.22,387.26,125.3,387.55Z" transform="translate(-40.77 -81.75)"/><path class="cls-5" d="M97.65,285.84s12,47.45,14.49,48.4,11.87-.54,12.79-2.32-2.64-57.87-14.92-58.69C103.37,272.79,95.57,277.79,97.65,285.84Z" transform="translate(-40.77 -81.75)"/><path class="cls-5" d="M126.26,311.66a1.83,1.83,0,0,1-1.72-.4c-2-1.64-3-7.5-.51-16.88,3.13-11.86-13.6-19.42-13.77-19.49a.46.46,0,0,1-.23-.61.47.47,0,0,1,.61-.24c.17.08,17.62,8,14.28,20.58-2.72,10.28-1.06,14.91.2,15.93a.89.89,0,0,0,1,.15,1.26,1.26,0,0,0,.79-.93c.17-1-1-2.5-1.47-3a.46.46,0,1,1,.66-.64c.2.2,2,2.09,1.72,3.77a2.15,2.15,0,0,1-1.28,1.6A1.56,1.56,0,0,1,126.26,311.66Z" transform="translate(-40.77 -81.75)"/><path class="cls-14" d="M132.53,388.13s-1.46,6-6.64,5.69-7-3.83-6.15-7.6S132.53,388.13,132.53,388.13Z" transform="translate(-40.77 -81.75)"/><polygon class="cls-6" points="78.97 304.47 91.76 306.38 93.19 299.99 80.52 297.65 78.97 304.47"/><polygon class="cls-18" points="99.53 213.89 80.52 297.65 93.19 299.99 111.68 216.89 99.53 213.89"/><path class="cls-3" d="M131.66,378.7c.59-3.29,1.25-6.56,1.87-9.84l2-9.82c1.33-6.53,2.78-13.05,4.16-19.58s2.92-13,4.44-19.52l2.32-9.74c.82-3.24,1.59-6.49,2.44-9.72-.58,3.29-1.24,6.56-1.86,9.84l-2,9.82c-1.34,6.53-2.78,13.05-4.17,19.58s-2.91,13-4.44,19.52L134.1,369C133.29,372.22,132.51,375.47,131.66,378.7Z" transform="translate(-40.77 -81.75)"/><path class="cls-3" d="M127.15,377.12c.59-3.29,1.25-6.56,1.87-9.84l2-9.81c1.34-6.54,2.79-13.06,4.17-19.59s2.91-13,4.44-19.52l2.32-9.74c.81-3.24,1.59-6.49,2.44-9.72-.58,3.29-1.24,6.56-1.86,9.84l-2,9.82c-1.34,6.54-2.78,13.05-4.17,19.58s-2.91,13-4.44,19.53l-2.32,9.74C128.78,370.64,128,373.89,127.15,377.12Z" transform="translate(-40.77 -81.75)"/><path class="cls-4" d="M150,287.55,149,283l-2.67,3.9A8.5,8.5,0,0,0,150,287.55Z" transform="translate(-40.77 -81.75)"/><path class="cls-6" d="M152.45,298.64,150,287.55a8.5,8.5,0,0,1-3.68-.65l-6,8.74Z" transform="translate(-40.77 -81.75)"/><path class="cls-14" d="M157.36,326c.33-2.43.58-4.08.58-4.67,0-7.48-59.51-9.4-60.26-6.72,0,0,0,3.62.23,6.72C104.53,319.86,120.82,318.75,157.36,326Z" transform="translate(-40.77 -81.75)"/><path class="cls-14" d="M155.31,323.22c-2.47,19-10.08,71.89-11.73,72.53-1.94.75-28.45.3-33,0-3.78-.26-8.75-57.67-10.36-77.55-1,.12-1.78.27-2.5.42,1.55,18,7.13,79.06,11.36,79.32,4.95.3,33.59.75,35.69,0,1.84-.66,10.55-57.08,12.92-74.27Z" transform="translate(-40.77 -81.75)"/><g class="cls-19"><line class="cls-20" x1="96.58" y1="193.8" x2="35.79" y2="295.81"/><line class="cls-20" x1="102.87" y1="200.09" x2="42.08" y2="302.1"/><line class="cls-20" x1="109.16" y1="206.38" x2="48.38" y2="308.39"/><line class="cls-20" x1="115.45" y1="212.68" x2="54.67" y2="314.68"/><line class="cls-20" x1="121.74" y1="218.97" x2="60.96" y2="320.97"/><line class="cls-20" x1="128.04" y1="225.26" x2="67.25" y2="327.27"/><line class="cls-20" x1="134.33" y1="231.55" x2="73.54" y2="333.56"/><line class="cls-20" x1="140.62" y1="237.84" x2="79.84" y2="339.85"/><line class="cls-20" x1="128.68" y1="327.15" x2="99.53" y2="212.04"/><line class="cls-20" x1="122.45" y1="331.14" x2="93.3" y2="216.03"/><line class="cls-20" x1="113.55" y1="331.14" x2="84.4" y2="216.03"/><line class="cls-20" x1="104.65" y1="331.14" x2="75.5" y2="216.03"/><line class="cls-20" x1="95.75" y1="331.14" x2="66.6" y2="216.03"/><line class="cls-20" x1="86.85" y1="331.14" x2="57.71" y2="216.03"/><line class="cls-20" x1="77.96" y1="331.14" x2="48.81" y2="216.03"/></g><path class="cls-14" d="M140.79,385.31a132.39,132.39,0,0,1-26.48.17l-9.39-.88c1.34,7.94,2.7,13.28,3.94,13.35,5,.31,33.6.75,35.69,0,.56-.2,1.75-5.55,3.21-13.38Z" transform="translate(-40.77 -81.75)"/><path class="cls-5" d="M343.69,403.26c3.48,1.61,68.73.41,70.67.29.92-.05,3-1.18,2.57-3.08-1-4.54-.64-9.87.41-12.18,1.17-2.59-3.13-4.55-6.72-4.55-11.52,0-72-5.15-68.29,4,1.51,3.71,4.44,7.08.75,12.33A2.08,2.08,0,0,0,343.69,403.26Z" transform="translate(-40.77 -81.75)"/><path class="cls-16" d="M343.33,399.68h73.45c-.76-4.2-.45-8.87.46-11.15H342.67C344.18,391.85,346.37,395,343.33,399.68Z" transform="translate(-40.77 -81.75)"/><path class="cls-3" d="M344.72,391.53c6-.24,12-.36,17.95-.45s12-.09,17.95-.14,12,0,17.94.14l9,.16c3,.1,6,.16,9,.29-3,.13-6,.19-9,.29l-9,.16c-6,.09-12,.09-17.94.14s-12,0-17.95-.14S350.71,391.77,344.72,391.53Z" transform="translate(-40.77 -81.75)"/><path class="cls-3" d="M344.72,394.52c6-.24,12-.36,17.95-.45s12-.09,17.95-.14,12,.05,17.94.14l9,.16c3,.1,6,.16,9,.29-3,.13-6,.19-9,.29l-9,.16c-6,.09-12,.09-17.94.14s-12,0-17.95-.14S350.71,394.76,344.72,394.52Z" transform="translate(-40.77 -81.75)"/><path class="cls-3" d="M344.72,397.51c6-.24,12-.36,17.95-.45s12-.09,17.95-.14,12,.05,17.94.14l9,.16c3,.1,6,.16,9,.29-3,.13-6,.19-9,.29l-9,.16c-6,.09-12,.09-17.94.14s-12,0-17.95-.14S350.71,397.75,344.72,397.51Z" transform="translate(-40.77 -81.75)"/><path class="cls-2" d="M345,367.05l.22,17.26h69.4V367.79a1.39,1.39,0,0,0-1.37-1.38c-9.11,0-56.83-.73-66.88-.73A1.37,1.37,0,0,0,345,367.05Z" transform="translate(-40.77 -81.75)"/><path class="cls-21" d="M347,384.3h5.44l1.05-18.78h-6.77Z" transform="translate(-40.77 -81.75)"/><path class="cls-22" d="M356.9,370.53s-.56,8.59,0,8.93,54.63.74,55,0,.38-7.94,0-8.93C411.34,369.09,357.55,369,356.9,370.53Z" transform="translate(-40.77 -81.75)"/><path class="cls-23" d="M383.32,345.27s-1.84,1.06-1.29,1.58a3.19,3.19,0,0,0,1.81.5c.36,0,.64-.53.56-1l-.37-1.1Z" transform="translate(-40.77 -81.75)"/><path class="cls-18" d="M386.56,316.54a.71.71,0,0,0,1,0c2.21-2,11.09-9.24,17.1-2,6.91,8.37-8.85,34.32-15.18,33.52a7.94,7.94,0,0,1-4.89-2.14,1.92,1.92,0,0,0-1.95-.54c-3.49,1-5.46,2.06-9.23-3.31-4.22-6-10.19-24.29-1.37-28.52C379.41,310.08,385,314.89,386.56,316.54Z" transform="translate(-40.77 -81.75)"/><path class="cls-18" d="M383.33,308l3-1.55s1.42,12.33,1.1,11.4A76.92,76.92,0,0,0,383.33,308Z" transform="translate(-40.77 -81.75)"/><path class="cls-2" d="M386.31,312.68s-.9-7,6.08-8.87l7-1.87s-2.17,10-8.75,10.46Z" transform="translate(-40.77 -81.75)"/><path class="cls-5" d="M412.92,353v8.39a4.87,4.87,0,0,1-4.88,4.88H350.51c-2.69,0-3.68-1.68-3.69-4.37,0-5.2-.8-13.28,1.89-13.86,3.62-.78,44.73-1.2,59.75.09A4.87,4.87,0,0,1,412.92,353Z" transform="translate(-40.77 -81.75)"/><path class="cls-6" d="M350,350.64c-.95,1-1.24,12.36,1.25,13.18,1.2.39,55.08,1.12,57.58-.08,2.14-1,2.1-13.1.37-13.49S350,350.64,350,350.64Z" transform="translate(-40.77 -81.75)"/><path class="cls-24" d="M325.73,375.33l10.71-10.25s-5.68-.24-5-.8a24.9,24.9,0,0,0,2.1-4.39l-4.44.11c-1.43,2.25-4.38,7-3.27,6.57,1.44-.61,5.61-.37,5.61-.37l-6,9.13Z" transform="translate(-40.77 -81.75)"/><path class="cls-7" d="M372.14,120.76c5.1,1.43,16.42-1.67,24.82-4.44a2.22,2.22,0,0,0-.06-1.7c-3.27-4.46-25.54-15.9-33-19a2.9,2.9,0,0,0-2.05,0C363.05,104.19,366.06,119.06,372.14,120.76Z" transform="translate(-40.77 -81.75)"/><path class="cls-25" d="M372.14,120.76c-6.08-1.7-9.09-16.57-10.34-25.18a3,3,0,0,0-1.4,1l-.4.53s-16.44,21.47-12.47,25.47,31.86,23.13,35.84,17.09c3.45-5.23,12.41-18.36,13.59-23.38C388.56,119.09,377.24,122.19,372.14,120.76Z" transform="translate(-40.77 -81.75)"/><path class="cls-14" d="M203.54,229.91a186.31,186.31,0,0,1,6.87,28.31c1.72,11.66-3.52,23.94-2.81,23.51s20.64-2.75,40.78-2.42c16.73.28,32.23,1.63,38,2.19a1.21,1.21,0,0,0,1.15-1.8c-7.61-13.83-2.87-30.88,1.76-44.52l3.21-9.44Z" transform="translate(-40.77 -81.75)"/><path class="cls-7" d="M185.47,229.4c4.79,5.09,41.54,15.1,58.54,17.26,14.9,1.89,65.28-13.15,72.42-17.26s-56.06-21.71-68.86-21.64S178.48,222,185.47,229.4Z" transform="translate(-40.77 -81.75)"/><line class="cls-11" x1="275.66" y1="147.64" x2="275.66" y2="172.45"/><path class="cls-7" d="M316.38,245.86s-8.14,10.38-5.26,12.36S316.38,245.86,316.38,245.86Z" transform="translate(-40.77 -81.75)"/><path class="cls-7" d="M316.64,247.47s-3.76,12.65-.35,13.42S316.64,247.47,316.64,247.47Z" transform="translate(-40.77 -81.75)"/><path class="cls-7" d="M316.38,245.86s10.69,10.8,6.32,11.36S316.38,245.86,316.38,245.86Z" transform="translate(-40.77 -81.75)"/><path class="cls-14" d="M314.08,245.86a2.3,2.3,0,1,1,2.3,2.3A2.3,2.3,0,0,1,314.08,245.86Z" transform="translate(-40.77 -81.75)"/><polygon class="cls-5" points="142.79 227.32 143.98 235.23 160.24 239.69 176.05 208.95 162.75 201.13 142.79 227.32"/><path class="cls-5" d="M186.45,287.85c0,.06-.11.09-.13.16-.16.64-.69,3.88,4.57,3.79,5.85-.1,9.3-2.74,15.55,2.52,7.91,6.65,8.2,14.23,11.52,14.75s5.65-25.7,0-29.57C212.51,275.78,188.12,284.3,186.45,287.85Z" transform="translate(-40.77 -81.75)"/><path class="cls-6" d="M221,267.14S179.89,288.47,187,289.06s21.82-7,25-1.23,1.39,22,6.35,21.22S232.63,261.8,221,267.14Z" transform="translate(-40.77 -81.75)"/><path class="cls-6" d="M203.12,286.08c-.49.6-17.49,23.56-17.49,23.56l15.8,4.31L213,290.53v-.93a9.9,9.9,0,0,0-2.86-3.91l-.28.22-3.49-.72Z" transform="translate(-40.77 -81.75)"/><g class="cls-26"><path class="cls-14" d="M317.12,196.14c-2.47,2-4.52,4.52-6.8,6.72s-4.53,4.45-6.94,6.53c-.72.62.25,1.91,1,1.33,5-3.84,10.76-8.07,14.1-13.51C319.06,196.29,317.85,195.55,317.12,196.14Z" transform="translate(-40.77 -81.75)"/><path class="cls-14" d="M330.36,223.9a10.34,10.34,0,0,0-3.34.62l-.93.27a.47.47,0,0,0-.51-.17,2.6,2.6,0,0,0-1.52,1.3.73.73,0,0,0,.43,1.07,6.73,6.73,0,0,0,3.1-.39,10.14,10.14,0,0,0,3.18-1.17A.83.83,0,0,0,330.36,223.9Z" transform="translate(-40.77 -81.75)"/><path class="cls-14" d="M201.79,206.39c-5.73-2.55-10.9-5.83-14.36-11.25a.6.6,0,0,0-1,.61c2.66,6.1,7.93,11.29,14.67,12.36C202,208.26,202.85,206.86,201.79,206.39Z" transform="translate(-40.77 -81.75)"/><path class="cls-14" d="M171.58,227.91a13.85,13.85,0,0,0-4.22-.3,16.12,16.12,0,0,0-4.22.33.82.82,0,0,0,0,1.56,16.13,16.13,0,0,0,4.22.34,14.52,14.52,0,0,0,4.22-.3A.85.85,0,0,0,171.58,227.91Z" transform="translate(-40.77 -81.75)"/><path class="cls-14" d="M189.94,253.35a101.34,101.34,0,0,0-10.27,15.53c-.3.56.45,1.19.91.7a53.67,53.67,0,0,0,10.22-15.73C191,253.38,190.26,253,189.94,253.35Z" transform="translate(-40.77 -81.75)"/><path class="cls-14" d="M310.13,272.64c-.72-1.22-1.69-2.32-2.49-3.49a42,42,0,0,1-2.24-3.68c-.32-.59-1.15-.07-.88.51,1.12,2.52,2.64,5.5,4.83,7.26C309.76,273.57,310.43,273.16,310.13,272.64Z" transform="translate(-40.77 -81.75)"/><path class="cls-14" d="M247.57,186.72c0-.81-1.18-.79-1.24,0-.09,1.14-.18,2.27-.3,3.41a9.84,9.84,0,0,0-.07,3.11.7.7,0,0,0,1.34,0,9.82,9.82,0,0,0,.22-3.11C247.52,189,247.55,187.85,247.57,186.72Z" transform="translate(-40.77 -81.75)"/><path class="cls-14" d="M222.33,199.35a24.43,24.43,0,0,1-1.57-3.5c-.21-.77-1.55-.65-1.45.2a6.43,6.43,0,0,0,1.81,4.24A.78.78,0,0,0,222.33,199.35Z" transform="translate(-40.77 -81.75)"/><path class="cls-14" d="M280.27,200.56a4,4,0,0,0-1.46,1.29c-.47.53-.89,1.1-1.34,1.65-.63.79.49,1.93,1.13,1.13.46-.58.95-1.14,1.38-1.74a4.1,4.1,0,0,0,1-1.79A.56.56,0,0,0,280.27,200.56Z" transform="translate(-40.77 -81.75)"/><path class="cls-14" d="M331.83,251a1,1,0,0,0-.77-.37c-.3-.06-.58-.12-.88-.16a1.27,1.27,0,0,1-.63-.27.74.74,0,0,0-1,1.05,3.44,3.44,0,0,0,1.45,1,1.79,1.79,0,0,0,1.89-.48A.71.71,0,0,0,331.83,251Z" transform="translate(-40.77 -81.75)"/></g></svg>