<svg xmlns="http://www.w3.org/2000/svg" viewBox="0 0 454.61 448.71"><defs><style>.cls-1{fill:#ebebeb;}.cls-2{fill:#f5f5f5;}.cls-3{fill:#e0e0e0;}.cls-4{fill:#fff;}.cls-5{fill:#263238;}.cls-6{fill:#ff725e;}.cls-7{opacity:0.3;}.cls-8{fill:#fafafa;}.cls-9{fill:#ffbe9d;}.cls-10{fill:#455a64;}.cls-11{fill:#eb996e;}.cls-12{opacity:0.6;}.cls-13{opacity:0.5;}</style></defs><g id="Background_Complete" data-name="Background Complete"><path class="cls-1" d="M577,44.72l-5.25,55.21a3.54,3.54,0,0,0,2.79,4L663,117.27a3.57,3.57,0,0,0,3.88-3.2l6.44-42.64a3.55,3.55,0,0,0-2.77-4.2L616.1,59.4A3.2,3.2,0,0,1,613.91,58L606,46.17a3.16,3.16,0,0,0-2.16-1.41l-22.93-3.47A3.59,3.59,0,0,0,577,44.72Z" transform="translate(-232.85 -41.26)"/><rect class="cls-2" x="572.83" y="53.59" width="97.71" height="65.09" transform="translate(-213 -133.2) rotate(8.59)"/><path class="cls-1" d="M569.68,51.27l-2.77,68.23a2.26,2.26,0,0,0,1.8,2.41l94.16,14.23a2.28,2.28,0,0,0,2.46-1.87l14.88-66.4A2.3,2.3,0,0,0,678.47,65L572.2,48.92A2.33,2.33,0,0,0,569.68,51.27Z" transform="translate(-232.85 -41.26)"/><path class="cls-1" d="M421.44,389.19l-11.95,38.35a2.63,2.63,0,0,0,1.49,3.28l63.75,24a2.65,2.65,0,0,0,3.35-1.64l11-29.22a2.63,2.63,0,0,0-1.46-3.44L448.33,406a2.48,2.48,0,0,1-1.42-1.37L442.78,395a2.48,2.48,0,0,0-1.41-1.36l-16.53-6.23A2.65,2.65,0,0,0,421.44,389.19Z" transform="translate(-232.85 -41.26)"/><rect class="cls-2" x="411.36" y="402.38" width="74.43" height="47.13" transform="translate(-53.87 -172.06) rotate(20.64)"/><path class="cls-1" d="M415,392.64l-12,48a1.67,1.67,0,0,0,1,2l67.89,25.58a1.69,1.69,0,0,0,2.1-.93l20.74-44.7a1.71,1.71,0,0,0-.87-2.34l-76.62-28.86A1.7,1.7,0,0,0,415,392.64Z" transform="translate(-232.85 -41.26)"/><path class="cls-1" d="M248.23,68.26l2.68,43.45a2.93,2.93,0,0,0,2.93,2.75h78.23a2.93,2.93,0,0,0,2.93-2.93V77.69a2.92,2.92,0,0,0-2.95-2.93l-48.11.31a2.93,2.93,0,0,1-2.08-.85L273.5,66a2.91,2.91,0,0,0-2.06-.85H251.16A2.94,2.94,0,0,0,248.23,68.26Z" transform="translate(-232.85 -41.26)"/><rect class="cls-2" x="16.68" y="28.36" width="85.47" height="51.07"/><path class="cls-1" d="M242.73,74.2l6.53,53.26a1.88,1.88,0,0,0,1.87,1.66h83.3a1.89,1.89,0,0,0,1.88-1.74l4.19-53.26a1.88,1.88,0,0,0-1.88-2h-94A1.88,1.88,0,0,0,242.73,74.2Z" transform="translate(-232.85 -41.26)"/><path class="cls-1" d="M257.35,315.4s-6.34-.46-5.76,13.76a163,163,0,0,0,2,21.79s-.19,3.16-2.63,2.54-7-3.69-9.31-1.4-1.51,6,1.61,10.33,9.61,14,10.19,14.84.81,2.47-.92,2.31-13.42-4.11-15,1.55,9.11,16.2,10.25,17.37,1.21,1.92.74,2.63-4.26-1-7.63-2-7.45-1.55-8.07,1.79S237,414,254.56,424.3l8.46,4.22,8-5.1c16.47-12,20.16-22.17,19.21-25.43s-4.95-2.29-8.2-1-6.87,3.39-7.4,2.73-.54-1.4.48-2.68,10.57-12.84,8.46-18.32-13.33-.36-15,0-1.64-1.3-1.15-2.22,6-11.19,8.66-15.78,3.14-8.3.56-10.43-6.75,1.45-9.11,2.31-2.87-2.26-2.87-2.26a165.61,165.61,0,0,0-.16-21.88c-.84-14.21-7.25-13.06-7.25-13.06" transform="translate(-232.85 -41.26)"/><path class="cls-3" d="M257.85,328.13l0,.3c0,.21,0,.5.07.87.05.79.13,1.91.23,3.36.19,2.92.44,7.14.73,12.36.58,10.43,1.26,24.85,1.95,40.78s1.34,30.36,1.86,40.8c.26,5.2.48,9.42.63,12.36.07,1.44.13,2.57.17,3.36q0,.56,0,.87a2.25,2.25,0,0,1,0,.3,2.29,2.29,0,0,1,0-.3c0-.21,0-.5-.07-.87-.05-.78-.13-1.91-.23-3.36-.19-2.91-.44-7.13-.73-12.35-.58-10.44-1.26-24.86-1.95-40.79s-1.34-30.35-1.86-40.79c-.27-5.21-.48-9.43-.63-12.36-.07-1.45-.13-2.58-.17-3.36,0-.38,0-.67,0-.88A2.33,2.33,0,0,1,257.85,328.13Z" transform="translate(-232.85 -41.26)"/><path class="cls-3" d="M248,356.64a4.18,4.18,0,0,1,.52.44c.33.3.79.74,1.35,1.29,1.11,1.11,2.61,2.68,4.24,4.44l4.13,4.52,1.26,1.37a2.69,2.69,0,0,1,.44.52,3,3,0,0,1-.53-.43c-.32-.3-.78-.74-1.33-1.3-1.11-1.12-2.59-2.7-4.21-4.46l-4.17-4.5-1.27-1.36C248.09,356.85,247.93,356.66,248,356.64Z" transform="translate(-232.85 -41.26)"/><path class="cls-3" d="M260.73,368.94c-.06-.06,3-3.3,6.91-7.23s7.08-7.07,7.14-7-3,3.3-6.91,7.24S260.8,369,260.73,368.94Z" transform="translate(-232.85 -41.26)"/><path class="cls-3" d="M260.7,393.46a3.16,3.16,0,0,1,.59-.38l1.65-.93c1.4-.78,3.32-1.87,5.4-3.15s3.93-2.49,5.27-3.38l1.57-1.06a2.78,2.78,0,0,1,.61-.35,3.23,3.23,0,0,1-.53.46c-.36.27-.87.67-1.52,1.14-1.3.94-3.14,2.19-5.23,3.47s-4,2.34-5.46,3.08l-1.7.84A3.41,3.41,0,0,1,260.7,393.46Z" transform="translate(-232.85 -41.26)"/><path class="cls-3" d="M246.68,384.88a2.43,2.43,0,0,1,.59.27c.37.2.89.49,1.53.86,1.29.73,3.06,1.76,5,2.91s3.69,2.22,4.95,3c.63.39,1.14.71,1.48.94a2.28,2.28,0,0,1,.52.39,2.91,2.91,0,0,1-.58-.28c-.37-.19-.89-.49-1.54-.85-1.28-.73-3-1.76-5-2.92s-3.7-2.21-4.95-3c-.63-.39-1.14-.71-1.48-.94A2.81,2.81,0,0,1,246.68,384.88Z" transform="translate(-232.85 -41.26)"/><path class="cls-3" d="M243.9,406.52a3.7,3.7,0,0,1,.75.36l2,1.08c1.65.93,3.93,2.24,6.43,3.69s4.76,2.79,6.39,3.77l1.92,1.18a4.24,4.24,0,0,1,.68.47,4,4,0,0,1-.75-.36l-2-1.09c-1.65-.93-3.93-2.23-6.43-3.69s-4.76-2.79-6.39-3.77L244.59,407A5,5,0,0,1,243.9,406.52Z" transform="translate(-232.85 -41.26)"/><path class="cls-3" d="M261.67,416.69a5.49,5.49,0,0,1,.74-.49l2.06-1.25c1.73-1.06,4.12-2.53,6.72-4.22s4.91-3.28,6.58-4.44l2-1.38a4.32,4.32,0,0,1,.74-.47,3.71,3.71,0,0,1-.67.57c-.44.36-1.1.86-1.92,1.46-1.63,1.21-3.93,2.84-6.53,4.53s-5,3.14-6.79,4.15c-.88.5-1.6.9-2.11,1.16A4.36,4.36,0,0,1,261.67,416.69Z" transform="translate(-232.85 -41.26)"/><polygon class="cls-3" points="41.54 390.03 18.13 390.03 25.77 447.86 33.9 447.86 41.54 390.03"/><path class="cls-2" d="M252.2,438.4s0,.08.12.21a1.54,1.54,0,0,0,.57.4,2.85,2.85,0,0,0,2.47-.3c.95-.52,1.77-1.55,3-2a6.69,6.69,0,0,1,4.3.08,18.22,18.22,0,0,1,4,1.95,27.37,27.37,0,0,0,3.26,1.74,8.94,8.94,0,0,0,2.4.7,5,5,0,0,0,.68.05l.24,0a12.51,12.51,0,0,1-3.21-1,30.29,30.29,0,0,1-3.19-1.81,18,18,0,0,0-4.08-2,6.81,6.81,0,0,0-4.54-.05,6,6,0,0,0-1.71,1.06c-.48.39-.91.76-1.34,1a2.76,2.76,0,0,1-2.28.39A2.3,2.3,0,0,1,252.2,438.4Z" transform="translate(-232.85 -41.26)"/><path class="cls-2" d="M253.05,449.05s.19-.24.55-.62a5.38,5.38,0,0,1,1.87-1.19,8.64,8.64,0,0,1,3.26-.49,34.92,34.92,0,0,1,4.07.56,14.13,14.13,0,0,0,4.17.17,11.08,11.08,0,0,0,3.28-.94,9.85,9.85,0,0,0,2-1.17,3,3,0,0,0,.63-.56,21.17,21.17,0,0,1-2.71,1.49,12,12,0,0,1-3.21.83,14.24,14.24,0,0,1-4.07-.2,32.09,32.09,0,0,0-4.12-.53,8.33,8.33,0,0,0-3.37.59,4.94,4.94,0,0,0-1.88,1.34,3.91,3.91,0,0,0-.35.52C253.07,449,253,449,253.05,449.05Z" transform="translate(-232.85 -41.26)"/><path class="cls-2" d="M271.74,454.75a2,2,0,0,0-.65-.33,6.66,6.66,0,0,0-1.94-.42,12.2,12.2,0,0,0-2.93.17c-1.09.17-2.26.48-3.49.74a14.63,14.63,0,0,1-3.49.39,7.55,7.55,0,0,1-2.76-.6,6.38,6.38,0,0,1-2.1-1.56,1.64,1.64,0,0,0,.4.61,5,5,0,0,0,1.58,1.2,7.56,7.56,0,0,0,2.87.7,14.16,14.16,0,0,0,3.58-.37c1.24-.26,2.4-.57,3.47-.77a13.81,13.81,0,0,1,2.86-.24A10.65,10.65,0,0,1,271.74,454.75Z" transform="translate(-232.85 -41.26)"/><path class="cls-2" d="M255.12,462.77a3.8,3.8,0,0,1,2.27-.23,10.77,10.77,0,0,1,2.38.89,9.13,9.13,0,0,0,3.09.85,9.25,9.25,0,0,0,5.6-1.3,7.87,7.87,0,0,0,1.39-1.07c.28-.3.43-.48.41-.5a19.29,19.29,0,0,1-1.94,1.34,9.64,9.64,0,0,1-5.43,1.15c-2.22-.13-3.92-1.45-5.45-1.63a3.48,3.48,0,0,0-1.77.16A1.2,1.2,0,0,0,255.12,462.77Z" transform="translate(-232.85 -41.26)"/><path class="cls-2" d="M256.42,473.87a4.55,4.55,0,0,0,2-.39c1.17-.39,2.63-1.29,4.33-2a7,7,0,0,1,2.49-.52,4.12,4.12,0,0,1,3.44,1.7s0-.2-.22-.49a3.21,3.21,0,0,0-1.1-1,4.42,4.42,0,0,0-2.12-.57,7,7,0,0,0-2.63.51c-1.76.71-3.17,1.63-4.29,2.08S256.42,473.81,256.42,473.87Z" transform="translate(-232.85 -41.26)"/><path class="cls-2" d="M257.57,479a5.4,5.4,0,0,0,1.48.48,27.08,27.08,0,0,0,7.46.74,5.54,5.54,0,0,0,1.55-.19c0-.11-2.37,0-5.26-.3S257.6,478.92,257.57,479Z" transform="translate(-232.85 -41.26)"/></g><g id="Background_Simple" data-name="Background Simple"><path class="cls-2" d="M673.61,208l-2-3.23c-16.54-27.26-46.44-43.69-78-41.69a82,82,0,0,0-12.07,1.65C553,170.86,528,192.54,517.67,220.3c-6.08,16.32-7.78,35.12-19.32,48.08-15,16.87-40.5,17.4-62.92,16.7s-47.92-.11-62.87,16.83c-9.35,10.6-12.33,25.68-11.57,39.88,2,37.6,28.19,71.22,61.51,87.93s72.55,18.21,109,10.86c51.08-10.3,99.66-38.58,128.86-82.26S697,255.13,673.61,208Z" transform="translate(-232.85 -41.26)"/><circle class="cls-2" cx="332.84" cy="117.99" r="75.24" transform="translate(-218.79 228.65) rotate(-45)"/></g><g id="Window"><rect class="cls-4" x="69.63" y="46.8" width="331.83" height="291.82"/><path class="cls-5" d="M634.31,379.88c0-1.86-.09-116.18-.22-291.83l.22.22-331.8,0h0l.26-.26c0,106.06,0,205.93,0,291.83l-.23-.23,331.83.23-331.83.23h-.23v-.23c0-85.9,0-185.77,0-291.83v-.26h.29l331.8,0h.22v.22C634.4,263.7,634.31,378,634.31,379.88Z" transform="translate(-232.85 -41.26)"/><path class="cls-6" d="M373.77,162.69V215h63.61V162.69a4.51,4.51,0,0,0-4.51-4.51H378.28A4.51,4.51,0,0,0,373.77,162.69Z" transform="translate(-232.85 -41.26)"/><path class="cls-6" d="M361,252.25l14.21-39.08L437.38,215l-9.27,35.65A3.13,3.13,0,0,1,425,253l-16.11-.34-2.64,3.76a3.58,3.58,0,0,1-3.05,1.5l-38.93-1.65A3.5,3.5,0,0,1,361,252.25Z" transform="translate(-232.85 -41.26)"/><polygon class="cls-2" points="144.32 126.13 144.32 131.48 144.32 167.09 200.24 170.17 199.99 126.13 144.32 126.13"/><path class="cls-5" d="M377.18,167.39s.07,0,.24,0h.77l3,0,11.37-.06,40.29-.12h.24v.24c.08,12.76.17,27.3.26,42.65,0,.47,0,.93,0,1.38v.28l-.27,0-55.92-3.12-.2,0v-.19c0-12.43.07-22.66.09-29.81,0-3.56.05-6.35.07-8.27q0-1.4,0-2.16c0-.49,0-.72,0-.72s0,.26,0,.76,0,1.23,0,2.16c0,1.91,0,4.69.07,8.23,0,7.15.05,17.38.09,29.81l-.2-.22,55.91,3-.27.27c0-.46,0-.92,0-1.38-.07-15.36-.15-29.89-.21-42.66l.23.23-40.14-.12-11.42-.06-3,0h-1.06Z" transform="translate(-232.85 -41.26)"/><path class="cls-1" d="M380.1,177.6c0-1.36,0-7.22,0-7.22,15.63,0,33.14.06,48.77,0,.44,7.73.53,18.18,1,25.91" transform="translate(-232.85 -41.26)"/><path class="cls-3" d="M429.84,196.31a1.78,1.78,0,0,1-.07-.49c0-.36-.06-.83-.11-1.42-.08-1.24-.18-3.05-.28-5.34-.21-4.58-.34-11.07-.75-18.65l.24.23h-15c-14,0-26.38-.05-33.74-.12l.15-.15c0,2.25-.06,4-.07,5.33,0,.58,0,1,0,1.41a2.2,2.2,0,0,1,0,.48,2.2,2.2,0,0,1,0-.48c0-.37,0-.83,0-1.42,0-1.28,0-3.07-.07-5.32v-.14h.15c7.36-.06,19.73-.1,33.74-.1l15,0h.23v.23c.38,7.6.44,14.09.57,18.67.06,2.25.1,4,.14,5.34,0,.59,0,1.06,0,1.43A2.3,2.3,0,0,1,429.84,196.31Z" transform="translate(-232.85 -41.26)"/><polygon class="cls-4" points="135.78 136.53 147.32 170.17 200.24 170.17 192.33 136.34 135.78 136.53"/><path class="cls-5" d="M368.63,177.79a1,1,0,0,1,.25,0h.79l3.07,0,11.63-.1,40.81-.26h.19l.05.19L433,210c.11.46.22.92.32,1.36l.08.32h-.33l-52.92-.05H380l0-.14-8.32-24.63c-1-2.9-1.73-5.17-2.26-6.74l-.58-1.75c-.13-.39-.18-.58-.18-.58s.09.21.23.62l.63,1.78c.56,1.57,1.36,3.85,2.38,6.76l8.49,24.41-.19-.14,52.92-.06-.25.32c-.11-.44-.22-.9-.32-1.37L425,177.66l.23.19H384.56l-11.7,0h-4.23Z" transform="translate(-232.85 -41.26)"/><g class="cls-7"><path d="M433,212.13c-.33-.32-.87-.22-1.32-.1a208.09,208.09,0,0,0-58.56,25.51l-7.43,8.59c.94,1.48,3,1.74,4.69,1.85l24.94,1.63c5.8.38,11.6.75,17.41.73,3.45,0,7.22-.29,9.74-2.65a13.87,13.87,0,0,0,3-5.2,129.65,129.65,0,0,0,7.72-29.1A1.38,1.38,0,0,0,433,212.13Z" transform="translate(-232.85 -41.26)"/></g><polygon class="cls-2" points="147.32 172.82 132.52 204.81 188.06 205.93 200.24 170.17 147.32 172.82"/><path class="cls-5" d="M380.17,214.08l.24,0,.73-.05,2.86-.18,10.84-.61,38.24-2,.35,0-.12.33-12.15,35.77-.07.18h-.2l-55.52-1.16h-.32l.13-.28c4.57-9.77,8.3-17.76,10.9-23.33l3-6.38.79-1.65c.18-.37.29-.55.29-.55s-.08.21-.25.6l-.76,1.7-2.92,6.45-10.68,23.33-.18-.29,55.52,1h0l-.25.18,12.21-35.75.23.31L395,213.47l-10.88.48-2.9.11-.75,0Z" transform="translate(-232.85 -41.26)"/><polygon class="cls-8" points="147.07 170.17 131.02 187.84 186.19 188.25 199.99 170.17 147.07 170.17"/><path class="cls-5" d="M379.92,211.42l.25,0,.74,0,2.91,0,10.95-.07,38.07-.1h.5l-.3.39-13.79,18.1-.08.1h-1.81l-53.49-.48h-.42l.28-.31,11.83-12.89,3.22-3.48.85-.89c.19-.2.29-.29.29-.29a3,3,0,0,1-.27.34l-.82.94-3.16,3.55-11.66,13-.14-.31,53.49.33h1.69l-.21.1,13.81-18.08.19.4-38-.1-11-.07-2.94,0-.77,0A.76.76,0,0,1,379.92,211.42Z" transform="translate(-232.85 -41.26)"/><polyline class="cls-2" points="145.33 154.76 140.59 140 189.77 140 196.66 167"/><path class="cls-5" d="M429.51,208.25a2.53,2.53,0,0,1-.17-.49c-.1-.37-.24-.86-.41-1.47-.36-1.33-.86-3.2-1.48-5.54-1.25-4.8-3-11.53-5.06-19.43l.23.18-18.41,0-30.77-.07.18-.25c1.42,4.53,2.57,8.22,3.39,10.82.38,1.25.68,2.24.89,3l.22.77a1,1,0,0,1,.06.27.85.85,0,0,1-.11-.25l-.27-.76-1-2.92-3.54-10.77-.09-.26h.27l30.77-.06,18.41,0h.19l0,.18c2,7.93,3.67,14.67,4.88,19.48.57,2.35,1,4.23,1.35,5.57.14.62.25,1.11.34,1.49A3.17,3.17,0,0,1,429.51,208.25Z" transform="translate(-232.85 -41.26)"/><path class="cls-4" d="M407.37,193.26a7.66,7.66,0,0,0-2.51-1.56c-1.84-.56-3.83.36-5.31,1.59s-2.67,2.81-4.25,3.92l17.25.28Z" transform="translate(-232.85 -41.26)"/><path class="cls-4" d="M416.41,188.08c-.63-.92-2.68-2.08-4-1.22h0a2.63,2.63,0,0,0-1.71,2,3.12,3.12,0,0,0,2.47,3.29,3.16,3.16,0,0,0,3-1A2.68,2.68,0,0,0,416.41,188.08Z" transform="translate(-232.85 -41.26)"/><polygon class="cls-8" points="147.07 170.17 130.52 154.76 184.68 155.2 200.24 170.17 147.07 170.17"/><path class="cls-5" d="M379.92,211.42l.27,0,.76,0,3,0,11-.08,38.13-.09-.17.42-15.57-14.95.18.07h-1l-53.16-.5.13-.32,12,11.31,3.26,3.11.85.82a3.55,3.55,0,0,1,.28.29,2.29,2.29,0,0,1-.3-.24l-.87-.78-3.32-3-12.18-11.22-.36-.33h.48l53.16.35h1.11l.07.07,15.55,15,.45.43h-.62l-38.21-.1-11-.07-2.94,0-.75,0A.67.67,0,0,1,379.92,211.42Z" transform="translate(-232.85 -41.26)"/><path class="cls-8" d="M377.55,201.94h35.51" transform="translate(-232.85 -41.26)"/><path class="cls-5" d="M413.06,201.94c0,.15-7.95.26-17.76.26s-17.75-.11-17.75-.26,7.95-.26,17.75-.26S413.06,201.8,413.06,201.94Z" transform="translate(-232.85 -41.26)"/><path class="cls-8" d="M381.48,205.6H417" transform="translate(-232.85 -41.26)"/><path class="cls-5" d="M417,205.6c0,.15-8,.27-17.75.27s-17.75-.12-17.75-.27,7.95-.26,17.75-.26S417,205.46,417,205.6Z" transform="translate(-232.85 -41.26)"/><path class="cls-8" d="M385,209.13h35.5" transform="translate(-232.85 -41.26)"/><path class="cls-5" d="M420.51,209.13c0,.15-7.95.26-17.75.26s-17.75-.11-17.75-.26,7.94-.26,17.75-.26S420.51,209,420.51,209.13Z" transform="translate(-232.85 -41.26)"/><path class="cls-8" d="M379.44,223.28h36.64" transform="translate(-232.85 -41.26)"/><path class="cls-5" d="M416.08,223.28c0,.14-8.2.26-18.32.26s-18.32-.12-18.32-.26,8.2-.26,18.32-.26S416.08,223.14,416.08,223.28Z" transform="translate(-232.85 -41.26)"/><path class="cls-8" d="M383.61,219.11h36.64" transform="translate(-232.85 -41.26)"/><path class="cls-5" d="M420.25,219.11c0,.14-8.2.26-18.32.26s-18.32-.12-18.32-.26,8.2-.26,18.32-.26S420.25,219,420.25,219.11Z" transform="translate(-232.85 -41.26)"/><path class="cls-5" d="M635.27,118c0,.14-73.68.26-164.54.26s-164.55-.12-164.55-.26,73.66-.26,164.55-.26S635.27,117.84,635.27,118Z" transform="translate(-232.85 -41.26)"/><path class="cls-6" d="M325.06,104.32a3.41,3.41,0,1,1-3.4-3.4A3.41,3.41,0,0,1,325.06,104.32Z" transform="translate(-232.85 -41.26)"/><path class="cls-6" d="M336.24,104.32a3.41,3.41,0,1,1-3.4-3.4A3.41,3.41,0,0,1,336.24,104.32Z" transform="translate(-232.85 -41.26)"/><path class="cls-6" d="M347.42,104.32a3.41,3.41,0,1,1-3.4-3.4A3.41,3.41,0,0,1,347.42,104.32Z" transform="translate(-232.85 -41.26)"/><path class="cls-5" d="M451.76,110.32l0-5.18-2.54,4.27h-.9l-2.53-4.16v5.07h-1.88v-8.64h1.66l3.23,5.37,3.19-5.37h1.64l0,8.64Z" transform="translate(-232.85 -41.26)"/><path class="cls-5" d="M462.14,103.68l-3,7a2.74,2.74,0,0,1-2.75,2.08,3,3,0,0,1-1.86-.6l.71-1.37a1.68,1.68,0,0,0,1.08.42c.53,0,.83-.24,1.09-.83l0-.06-2.87-6.69h2l1.86,4.51,1.88-4.51Z" transform="translate(-232.85 -41.26)"/><path class="cls-5" d="M472.05,103.28v2.29h4v1.6h-4v3.15h-2v-8.64h6.53v1.6Z" transform="translate(-232.85 -41.26)"/><path class="cls-5" d="M477.45,101.68a1.09,1.09,0,0,1,1.19-1.07,1.08,1.08,0,0,1,1.2,1,1.2,1.2,0,0,1-2.39,0Zm.23,2h1.93v6.64h-1.93Z" transform="translate(-232.85 -41.26)"/><path class="cls-5" d="M481.4,101.16h1.92v9.16H481.4Z" transform="translate(-232.85 -41.26)"/><path class="cls-5" d="M491.58,107.54h-5a1.77,1.77,0,0,0,1.9,1.34,2.25,2.25,0,0,0,1.67-.65l1,1.12a3.49,3.49,0,0,1-2.74,1.07c-2.3,0-3.79-1.44-3.79-3.42a3.38,3.38,0,0,1,3.54-3.42,3.29,3.29,0,0,1,3.46,3.45A4.75,4.75,0,0,1,491.58,107.54Zm-5.05-1.12h3.28a1.66,1.66,0,0,0-3.28,0Z" transform="translate(-232.85 -41.26)"/><path class="cls-5" d="M492.26,109.7l.64-1.38a4.61,4.61,0,0,0,2.31.64c.89,0,1.22-.23,1.22-.6,0-1.09-4,0-4-2.63,0-1.26,1.14-2.15,3.08-2.15a5.45,5.45,0,0,1,2.55.58l-.64,1.37a3.8,3.8,0,0,0-1.91-.49c-.87,0-1.24.27-1.24.61,0,1.14,4,0,4,2.66,0,1.23-1.14,2.11-3.13,2.11A5.71,5.71,0,0,1,492.26,109.7Z" transform="translate(-232.85 -41.26)"/><path class="cls-3" d="M618.87,143.74a2.88,2.88,0,0,0,.56-.11,1.89,1.89,0,0,0,1.16-1.09,2.83,2.83,0,0,0,.13-1.2c0-.46,0-1,0-1.49,0-1.09,0-2.33,0-3.74s0-3,0-4.67c0-.42,0-.87,0-1.3a1.78,1.78,0,0,0-.54-1.11,1.74,1.74,0,0,0-1.19-.5h-1.47l-13.55,0-78.46.08a1.67,1.67,0,0,0-1.66,1.53v11.25a2.11,2.11,0,0,0,.21,1.22,1.61,1.61,0,0,0,.9.74,1.66,1.66,0,0,0,.59.1h25.61l35.28.06,23.78.08,6.46.05,1.69,0,.57,0-.57,0-1.69,0-6.46,0-23.78.08-35.28,0-20.83,0h-4.78a2.2,2.2,0,0,1-.76-.12,2.15,2.15,0,0,1-1.18-1,2.6,2.6,0,0,1-.28-1.47V130.14a2.19,2.19,0,0,1,2.18-2l78.46.08,13.55,0h1.48a2,2,0,0,1,1.36.58,2.06,2.06,0,0,1,.61,1.29c0,.47,0,.89,0,1.32,0,1.71,0,3.27,0,4.67s0,2.65,0,3.74c0,.54,0,1,0,1.49a3.06,3.06,0,0,1-.16,1.24,2,2,0,0,1-1.25,1.11A1.46,1.46,0,0,1,618.87,143.74Z" transform="translate(-232.85 -41.26)"/><path class="cls-3" d="M529.57,138l.26-.54a2.49,2.49,0,0,0,1.61.57c.85,0,1.21-.33,1.21-.76,0-1.19-3-.44-3-2.26,0-.75.59-1.39,1.87-1.39a2.83,2.83,0,0,1,1.57.43l-.23.56a2.54,2.54,0,0,0-1.34-.4c-.83,0-1.19.35-1.19.78,0,1.19,3,.44,3,2.24,0,.75-.6,1.39-1.9,1.39A2.85,2.85,0,0,1,529.57,138Z" transform="translate(-232.85 -41.26)"/><path class="cls-3" d="M537.59,137h-3a1.25,1.25,0,0,0,1.34,1.08,1.39,1.39,0,0,0,1.07-.45l.37.43a2,2,0,0,1-3.45-1.29,1.81,1.81,0,0,1,1.86-1.88,1.78,1.78,0,0,1,1.83,1.9A1.65,1.65,0,0,1,537.59,137Zm-3-.49H537a1.19,1.19,0,0,0-2.37,0Z" transform="translate(-232.85 -41.26)"/><path class="cls-3" d="M541.37,136.36v2.23h-.64v-.49a1.35,1.35,0,0,1-1.21.54c-.84,0-1.37-.45-1.37-1.09s.38-1.09,1.48-1.09h1.07v-.13c0-.57-.33-.89-1-.89a1.89,1.89,0,0,0-1.17.39l-.28-.5a2.47,2.47,0,0,1,1.53-.47C540.79,134.86,541.37,135.34,541.37,136.36Zm-.67,1.1v-.52h-1c-.66,0-.85.26-.85.58s.31.6.82.6A1.08,1.08,0,0,0,540.7,137.46Z" transform="translate(-232.85 -41.26)"/><path class="cls-3" d="M544.6,134.86v.65h-.15a1.11,1.11,0,0,0-1.17,1.25v1.84h-.67v-3.7h.64v.62A1.42,1.42,0,0,1,544.6,134.86Z" transform="translate(-232.85 -41.26)"/><path class="cls-3" d="M545.05,136.74a1.85,1.85,0,0,1,2-1.88,1.67,1.67,0,0,1,1.51.78L548,136a1.16,1.16,0,0,0-1-.53,1.31,1.31,0,0,0,0,2.61,1.16,1.16,0,0,0,1-.53l.51.32a1.67,1.67,0,0,1-1.51.8A1.86,1.86,0,0,1,545.05,136.74Z" transform="translate(-232.85 -41.26)"/><path class="cls-3" d="M552.85,136.46v2.13h-.67v-2.05c0-.73-.36-1.08-1-1.08a1.1,1.1,0,0,0-1.17,1.23v1.9h-.67v-5.18H550v2a1.61,1.61,0,0,1,1.3-.55A1.43,1.43,0,0,1,552.85,136.46Z" transform="translate(-232.85 -41.26)"/><path class="cls-3" d="M553.78,138.15a.47.47,0,0,1,.48-.47.45.45,0,0,1,.46.47.47.47,0,0,1-.46.49A.48.48,0,0,1,553.78,138.15Z" transform="translate(-232.85 -41.26)"/><path class="cls-3" d="M555.37,138.15a.47.47,0,1,1,.93,0,.47.47,0,1,1-.93,0Z" transform="translate(-232.85 -41.26)"/><path class="cls-3" d="M557,138.15a.47.47,0,0,1,.48-.47.45.45,0,0,1,.46.47.47.47,0,0,1-.46.49A.48.48,0,0,1,557,138.15Z" transform="translate(-232.85 -41.26)"/><path class="cls-5" d="M354,236.63a2.81,2.81,0,0,1-.29-.63c-.17-.43-.42-1.05-.71-1.87-.6-1.62-1.41-4-2.24-7a70.54,70.54,0,0,1-2.69-24,51.47,51.47,0,0,1,2.72-13,43.83,43.83,0,0,1,4.83-9.75,36.92,36.92,0,0,1,4.64-5.69c.59-.63,1.13-1,1.46-1.36a2.69,2.69,0,0,1,.54-.43,3.76,3.76,0,0,1-.47.51c-.31.34-.82.78-1.39,1.42a40.46,40.46,0,0,0-4.47,5.75,44.41,44.41,0,0,0-4.68,9.71,52,52,0,0,0-2.66,12.92,73.34,73.34,0,0,0,2.52,23.83c.79,3,1.54,5.37,2.08,7,.25.78.46,1.41.62,1.89A4.2,4.2,0,0,1,354,236.63Z" transform="translate(-232.85 -41.26)"/><path class="cls-6" d="M508.05,168.64V221h63.61V168.64a4.51,4.51,0,0,0-4.51-4.51H512.56A4.51,4.51,0,0,0,508.05,168.64Z" transform="translate(-232.85 -41.26)"/><g class="cls-7"><path d="M508.05,168.64V221h63.61V168.64a4.51,4.51,0,0,0-4.51-4.51H512.56A4.51,4.51,0,0,0,508.05,168.64Z" transform="translate(-232.85 -41.26)"/></g><polyline class="cls-2" points="278.18 151.3 278.61 132.08 334.27 132.08 334.27 143.04"/><path class="cls-5" d="M567.12,184.3a5.23,5.23,0,0,1,0-.74c0-.54,0-1.26-.05-2.16,0-1.94,0-4.66-.08-8.06l.17.17-32,.09-23.7,0,.21-.22c-.16,5.76-.3,10.55-.4,14-.06,1.63-.11,2.94-.14,3.88,0,.42,0,.76-.05,1s0,.35-.05.35a1.35,1.35,0,0,1,0-.35c0-.27,0-.6,0-1,0-.94,0-2.25,0-3.89.06-3.4.13-8.2.22-13.95v-.22h.22l23.7,0,32,.09h.18v.17c0,3.4-.06,6.12-.08,8.06,0,.9,0,1.62-.05,2.16A3.24,3.24,0,0,1,567.12,184.3Z" transform="translate(-232.85 -41.26)"/><rect class="cls-2" x="282.23" y="126.89" width="48.64" height="5.19"/><path class="cls-5" d="M515.08,168.15s.07,0,.23,0l.7,0,2.76,0,10.29-.07,34.66-.11H564v5.45c-.52.52-.16.14-.28.26H548.2l-13.72,0-19.4-.11H515v-.11q0-2.51.06-3.9c0-.4,0-.73,0-1a1.64,1.64,0,0,1,0-.31,2.37,2.37,0,0,1,0,.35c0,.26,0,.59,0,1,0,.9,0,2.18.06,3.83l-.11-.11,19.4-.11,13.72,0h15.5c-.11.11.28-.26-.24.26v-5.19l.26.26-34.48-.12-10.34-.07-2.82,0-.74,0Z" transform="translate(-232.85 -41.26)"/><path class="cls-5" d="M569.38,234.08c0,.14-12.16.26-27.15.26s-27.15-.12-27.15-.26,12.15-.26,27.15-.26S569.38,233.93,569.38,234.08Z" transform="translate(-232.85 -41.26)"/><path class="cls-6" d="M503.16,183.11,508.05,221h63.61V184.3H542.77l-5.6-4.93H506.44A3.31,3.31,0,0,0,503.16,183.11Z" transform="translate(-232.85 -41.26)"/><path class="cls-5" d="M554.16,199.14c0,.14-7,.26-15.56.26s-15.56-.12-15.56-.26,7-.27,15.56-.27S554.16,199,554.16,199.14Z" transform="translate(-232.85 -41.26)"/><path class="cls-5" d="M554.16,202.86c0,.14-7,.26-15.56.26S523,203,523,202.86s7-.26,15.56-.26S554.16,202.72,554.16,202.86Z" transform="translate(-232.85 -41.26)"/><path class="cls-6" d="M363.87,282.32v52.34h63.62V282.32a4.51,4.51,0,0,0-4.51-4.51h-54.6A4.51,4.51,0,0,0,363.87,282.32Z" transform="translate(-232.85 -41.26)"/><g class="cls-7"><path d="M363.87,282.32v52.34h63.62V282.32a4.51,4.51,0,0,0-4.51-4.51h-54.6A4.51,4.51,0,0,0,363.87,282.32Z" transform="translate(-232.85 -41.26)"/></g><polyline class="cls-2" points="134.01 264.97 134.43 245.76 190.1 245.76 190.1 256.72"/><path class="cls-5" d="M423,298a3.29,3.29,0,0,1-.05-.75c0-.53,0-1.25,0-2.15,0-1.94,0-4.67-.08-8.06l.18.17-32,.09-23.71,0,.22-.22c-.17,5.76-.31,10.55-.4,14-.06,1.64-.11,2.95-.15,3.89,0,.42,0,.75-.05,1a2,2,0,0,1,0,.35,1.6,1.6,0,0,1,0-.35c0-.27,0-.6,0-1,0-.95,0-2.25,0-3.89,0-3.41.12-8.2.21-14v-.21h.22l23.71,0,32,.09h.17V287c0,3.39-.06,6.12-.08,8.06,0,.9,0,1.62,0,2.15A6.09,6.09,0,0,1,423,298Z" transform="translate(-232.85 -41.26)"/><rect class="cls-2" x="138.05" y="240.57" width="48.64" height="5.19"/><path class="cls-5" d="M370.9,281.82h.23l.71,0,2.76,0,10.28-.07,34.66-.11h.26V287c-.52.52-.15.14-.27.26H404l-13.73,0-19.4-.11h-.11V287c0-1.68,0-3,.07-3.9,0-.4,0-.73,0-1s0-.32,0-.32a1.55,1.55,0,0,1,0,.36c0,.26,0,.59,0,1,0,.9,0,2.18.06,3.83l-.11-.11,19.4-.11,13.73,0h15.5c-.12.11.27-.26-.25.26v-5.2l.26.26L385.07,282l-10.35-.07-2.81,0-.74,0A.91.91,0,0,1,370.9,281.82Z" transform="translate(-232.85 -41.26)"/><path class="cls-5" d="M425.2,347.75c0,.15-12.16.27-27.15.27s-27.15-.12-27.15-.27,12.16-.26,27.15-.26S425.2,347.61,425.2,347.75Z" transform="translate(-232.85 -41.26)"/><path class="cls-6" d="M359,296.79l4.89,37.87h63.62V298H398.6L393,293.05H362.26A3.31,3.31,0,0,0,359,296.79Z" transform="translate(-232.85 -41.26)"/><path class="cls-5" d="M410,312.81c0,.15-7,.26-15.56.26s-15.56-.11-15.56-.26,7-.26,15.56-.26S410,312.67,410,312.81Z" transform="translate(-232.85 -41.26)"/><path class="cls-5" d="M410,316.54c0,.14-7,.26-15.56.26s-15.56-.12-15.56-.26,7-.26,15.56-.26S410,316.4,410,316.54Z" transform="translate(-232.85 -41.26)"/><path class="cls-6" d="M516,282.35v52.34h63.62V282.35a4.51,4.51,0,0,0-4.51-4.51H520.47A4.51,4.51,0,0,0,516,282.35Z" transform="translate(-232.85 -41.26)"/><g class="cls-7"><path d="M516,282.35v52.34h63.62V282.35a4.51,4.51,0,0,0-4.51-4.51H520.47A4.51,4.51,0,0,0,516,282.35Z" transform="translate(-232.85 -41.26)"/></g><polyline class="cls-2" points="286.09 265.01 286.51 245.79 342.18 245.79 342.18 256.76"/><path class="cls-5" d="M575,298a6,6,0,0,1,0-.74c0-.54,0-1.26,0-2.16,0-1.93-.05-4.66-.08-8.06l.17.17-32,.09-23.71,0,.22-.21c-.16,5.75-.3,10.54-.4,13.95-.06,1.64-.11,2.94-.14,3.88,0,.42,0,.76-.06,1a1,1,0,0,1,0,.34,1.29,1.29,0,0,1,0-.35c0-.26,0-.6,0-1,0-.94,0-2.25,0-3.89.05-3.4.13-8.19.22-13.95v-.22h.21l23.71,0,32,.09h.18v.17c0,3.4-.06,6.13-.07,8.06,0,.9,0,1.62,0,2.16A4.2,4.2,0,0,1,575,298Z" transform="translate(-232.85 -41.26)"/><rect class="cls-2" x="290.14" y="240.6" width="48.64" height="5.19"/><path class="cls-5" d="M523,281.86s.07,0,.23,0l.7,0,2.76,0,10.28-.08,34.66-.11h.26v5.45c-.52.52-.15.14-.27.26h-15.5l-13.73,0L523,287.16h-.12v-.11q0-2.51.06-3.9c0-.4,0-.73,0-1a1,1,0,0,1,0-.31s0,.12,0,.35,0,.59,0,1c0,.91,0,2.18.07,3.83l-.11-.11,19.39-.11,13.73,0h15.5c-.11.12.27-.26-.25.26v-5.19l.26.26L537.15,282l-10.34-.08-2.82,0-.74,0Z" transform="translate(-232.85 -41.26)"/><path class="cls-5" d="M577.28,347.79c0,.14-12.15.26-27.14.26s-27.15-.12-27.15-.26,12.15-.26,27.15-.26S577.28,347.64,577.28,347.79Z" transform="translate(-232.85 -41.26)"/><path class="cls-6" d="M511.06,296.82,516,334.69h63.62V298H550.68l-5.6-4.92H514.34A3.31,3.31,0,0,0,511.06,296.82Z" transform="translate(-232.85 -41.26)"/><path class="cls-5" d="M562.06,312.85c0,.14-7,.26-15.56.26s-15.56-.12-15.56-.26,7-.26,15.56-.26S562.06,312.7,562.06,312.85Z" transform="translate(-232.85 -41.26)"/><path class="cls-5" d="M562.06,316.57c0,.15-7,.26-15.56.26s-15.56-.11-15.56-.26,7-.26,15.56-.26S562.06,316.43,562.06,316.57Z" transform="translate(-232.85 -41.26)"/><path class="cls-5" d="M344.08,198.37a4.15,4.15,0,0,1-.05-1.08,27.26,27.26,0,0,1,.2-2.92,37.56,37.56,0,0,1,2.36-9.38,37.09,37.09,0,0,1,4.68-8.45,26.29,26.29,0,0,1,1.85-2.27,4.45,4.45,0,0,1,.77-.76c.07.06-.93,1.22-2.32,3.24a42.15,42.15,0,0,0-7,17.67C344.23,196.85,344.17,198.37,344.08,198.37Z" transform="translate(-232.85 -41.26)"/><path class="cls-5" d="M347.27,194.47a4.35,4.35,0,0,1-.77,1.25l-.94,1.27-.57.74-.31.39-.16.2-.08.1,0,.05,0,0h0c.08,0-.75,0-.4,0h0a8.56,8.56,0,0,1-1.82-3.08,3,3,0,0,1-.25-1.46,15.58,15.58,0,0,0,2.45,4.19h0l-.39,0h0l0,0,0,0,.08-.1.16-.2.31-.38.59-.72,1-1.2C346.81,194.82,347.21,194.42,347.27,194.47Z" transform="translate(-232.85 -41.26)"/><path class="cls-3" d="M556,241.16c0,.14-7.62.26-17,.26s-17-.12-17-.26,7.62-.27,17-.27S556,241,556,241.16Z" transform="translate(-232.85 -41.26)"/><path class="cls-3" d="M564.79,353.8c0,.15-7.63.26-17,.26s-17-.11-17-.26,7.62-.26,17-.26S564.79,353.66,564.79,353.8Z" transform="translate(-232.85 -41.26)"/><path class="cls-3" d="M405.59,355.62c0,.14-7.62.26-17,.26s-17-.12-17-.26,7.62-.26,17-.26S405.59,355.47,405.59,355.62Z" transform="translate(-232.85 -41.26)"/></g><g id="Character"><path class="cls-9" d="M271.77,276.25c-1,4.4-6,6.71-9.07,10s-7.62,6-12,4.73a10.58,10.58,0,0,1-6.22-6c-2.88-6.3-1.52-13.69.64-20.27s5.08-13.1,5.2-20l14.51,4.87,3.58-4.41S272.5,273,271.77,276.25Z" transform="translate(-232.85 -41.26)"/><path class="cls-9" d="M328.3,238.73s8.77,35.15,17.16,40.31c10.6,6.52,16.8-1.23,16.8-1.23l16.61-30.39-11.33-2.84-11,13.9-7.7-21.05Z" transform="translate(-232.85 -41.26)"/><path class="cls-9" d="M315.54,384.89c0,1.17,1.4,18.55,1.4,18.55a67.13,67.13,0,0,0-2.79,16.82c-.38,16.22-.24,51.14-.24,51.14h17.31v-2s9.13-60.93,8.81-66.9l-1.22-22.65-23.28,5" transform="translate(-232.85 -41.26)"/><path class="cls-9" d="M301.46,357.88l-28.81,4.87s2.9,7.89,3.11,8.66c.76,2.82,2.42,10.11,1.44,16.94-1.24,8.71-2.34,19.28-1.79,24.26S281.36,470,281.36,470l17.17.54,4.17-96.43Z" transform="translate(-232.85 -41.26)"/><path class="cls-9" d="M289.41,150.07,289.25,202,311.51,203l.65-12.62s7.9,1.57,9.94-5.78c1.31-4.69,1-40.93,1-40.93Z" transform="translate(-232.85 -41.26)"/><path class="cls-5" d="M326,147.34c-3.51,1-4.27,6.73-4.27,6.73l-5.5,12.15c-2.8-2.19-6.56-2.07-7.27,2.86-.52,3.55,3.91,4.27,3.91,4.27-2.58,4.38-4.33,7.93-8.07,12.1-4.06,4.51-6.33,5-10.74,5h-4.85s-2.37-7.71-6.77-27c-4.88-21.39,20.41-18.63,25.1-24.09C315.19,130.5,337.06,144.18,326,147.34Z" transform="translate(-232.85 -41.26)"/><path class="cls-5" d="M282.91,165.51c-4.1-2.75-4.47-10.46-2.08-15.08a14.86,14.86,0,0,1,12.63-7.85,6.22,6.22,0,0,0,2.07-.24,5.7,5.7,0,0,0,2.21-2.1c3.66-4.76,7.27-9.44,14.1-9.44a7.81,7.81,0,0,1,4.29,1.06,6.77,6.77,0,0,1,2.58,3.42,14.46,14.46,0,0,1,4-1.44,4.92,4.92,0,0,1,4,1,3,3,0,0,1,.63,3.84,4.86,4.86,0,0,1,4.85,4c.36,2.28-2.9,3.88-3.24,4.06,0,0,1.79,3.75-2.49,6-1.72.9-3.95-.19-4.21-.32" transform="translate(-232.85 -41.26)"/><path class="cls-10" d="M299.16,170.5a10.38,10.38,0,0,1-1.7,7.55c-.15-.07.57-1.66,1-3.74S299,170.5,299.16,170.5Z" transform="translate(-232.85 -41.26)"/><path class="cls-10" d="M301.85,168a14.48,14.48,0,0,1-1.38,7.41,21.19,21.19,0,0,1,.62-3.72A21.24,21.24,0,0,1,301.85,168Z" transform="translate(-232.85 -41.26)"/><path class="cls-10" d="M309.56,159.39c.06.07-.57.53-1.37,1.47a14.16,14.16,0,0,0-2.4,4.14,32.92,32.92,0,0,0-1.33,4.67,7.87,7.87,0,0,1-.55,2,6.82,6.82,0,0,1,.16-2,22.69,22.69,0,0,1,1.19-4.79,12.34,12.34,0,0,1,2.63-4.21A4.45,4.45,0,0,1,309.56,159.39Z" transform="translate(-232.85 -41.26)"/><path class="cls-10" d="M312.68,153.56c.07,0,.29.5.43,1.4a9.25,9.25,0,0,1-.19,3.55,9.06,9.06,0,0,1-1.5,3.21c-.55.73-1,1.08-1,1a20,20,0,0,0,2-4.39A18.94,18.94,0,0,0,312.68,153.56Z" transform="translate(-232.85 -41.26)"/><path class="cls-10" d="M286.12,166.52c-.08.13-.76-.1-1.53-.53s-1.32-.88-1.24-1,.75.1,1.52.53S286.19,166.38,286.12,166.52Z" transform="translate(-232.85 -41.26)"/><path class="cls-10" d="M296.87,161c.15,0,.06,1.12-.64,2.26s-1.61,1.73-1.7,1.61.6-.86,1.22-1.91S296.71,160.94,296.87,161Z" transform="translate(-232.85 -41.26)"/><path class="cls-10" d="M300.18,159.2a4.48,4.48,0,0,1-1,2.7c-.9,1.35-2,2.08-2.1,2s.79-1,1.63-2.27A22.74,22.74,0,0,1,300.18,159.2Z" transform="translate(-232.85 -41.26)"/><path class="cls-10" d="M316.61,137.48s-.42-.32-1.22-.78a8.2,8.2,0,0,0-3.73-1,9.93,9.93,0,0,0-5.47,1.47,13.59,13.59,0,0,0-4.66,5.19,23.52,23.52,0,0,0-1.89,4.86l-.09.33-.3-.16a11,11,0,0,0-5-1.27,12,12,0,0,0-4,.61,17.34,17.34,0,0,0-3.3,1.65,3.55,3.55,0,0,1,.75-.66,10.47,10.47,0,0,1,2.44-1.31,11.58,11.58,0,0,1,4.16-.75A11.32,11.32,0,0,1,299.5,147l-.38.16a22.66,22.66,0,0,1,1.91-5,14,14,0,0,1,4.89-5.37,10.11,10.11,0,0,1,5.76-1.42,7.9,7.9,0,0,1,3.82,1.17,6.74,6.74,0,0,1,.86.68C316.54,137.36,316.63,137.46,316.61,137.48Z" transform="translate(-232.85 -41.26)"/><path class="cls-10" d="M328.32,140.3s.62-.17,1.27.58a2.18,2.18,0,0,1,.52,1.62,2.52,2.52,0,0,1-1.3,1.85,3.63,3.63,0,0,1-2.7.37,7.83,7.83,0,0,1-2.79-1.35,27.94,27.94,0,0,0-2.73-1.87,11.47,11.47,0,0,0-3.29-1.16,14,14,0,0,0-6.71.46,18.24,18.24,0,0,0-5,2.53,48.36,48.36,0,0,0-4,3.35,5.13,5.13,0,0,1,.88-1.1A22.08,22.08,0,0,1,305.4,143a17.8,17.8,0,0,1,5-2.69,14.06,14.06,0,0,1,7-.52,11.53,11.53,0,0,1,3.45,1.23,25.65,25.65,0,0,1,2.76,1.93,7.86,7.86,0,0,0,2.59,1.32,3.24,3.24,0,0,0,2.4-.27,2.17,2.17,0,0,0,1.18-1.54,2,2,0,0,0-.37-1.45A1.9,1.9,0,0,0,328.32,140.3Z" transform="translate(-232.85 -41.26)"/><path class="cls-5" d="M270.16,315.38s-.81,21.38,0,27.89-.36,45.79-.36,45.79,30.17,8.79,38.31-1.62c0,0-3.3-47.75-3.62-49.05s-3-33.85-3-33.85Z" transform="translate(-232.85 -41.26)"/><path class="cls-5" d="M339,304.54c1.78,5.53,5.53,26.36,5.53,26.36v55.21s-26.14,9.44-36.55,4.77l-6.46-55.42V306.74L323,298.36Z" transform="translate(-232.85 -41.26)"/><path class="cls-10" d="M322.39,342.91a6.72,6.72,0,0,1-1.22,0c-.78-.05-1.91-.13-3.3-.25l-10.88-1-10.88-1-3.29-.31a6.52,6.52,0,0,1-1.21-.17,6.11,6.11,0,0,1,1.22,0c.78,0,1.91.07,3.31.15,2.79.16,6.65.45,10.9.85s8.08.82,10.86,1.14l3.29.4A5.24,5.24,0,0,1,322.39,342.91Z" transform="translate(-232.85 -41.26)"/><path class="cls-10" d="M302.8,341.16c.14,0,1.4,11.11,2.82,24.83s2.47,24.87,2.34,24.89-1.4-11.1-2.82-24.84S302.67,341.18,302.8,341.16Z" transform="translate(-232.85 -41.26)"/><path class="cls-10" d="M303.18,340.86a17.41,17.41,0,0,1-3.06,2.73,17.59,17.59,0,0,1-3.36,2.34,16.56,16.56,0,0,1,3.06-2.73A17.25,17.25,0,0,1,303.18,340.86Z" transform="translate(-232.85 -41.26)"/><path class="cls-10" d="M343.73,327.29a9,9,0,0,1-2.08-1.11,28.3,28.3,0,0,1-4.47-3.54,28.77,28.77,0,0,1-3.7-4.36,8.92,8.92,0,0,1-1.18-2,14.48,14.48,0,0,1,1.46,1.85,40.16,40.16,0,0,0,3.76,4.2,39.28,39.28,0,0,0,4.32,3.61A17,17,0,0,1,343.73,327.29Z" transform="translate(-232.85 -41.26)"/><path class="cls-10" d="M301.8,335.9a2.77,2.77,0,0,1-.44-.71c-.26-.47-.6-1.18-1-2.06a34,34,0,0,1-2.56-14.72,21.2,21.2,0,0,1,.22-2.27c.08-.53.14-.82.18-.81s0,1.19-.06,3.09a41.38,41.38,0,0,0,.6,7.41,40.8,40.8,0,0,0,1.95,7.17C301.37,334.79,301.87,335.86,301.8,335.9Z" transform="translate(-232.85 -41.26)"/><path class="cls-10" d="M333.59,259.34c-.26-.79-3.17-17.44-3.17-17.44l21.41-.53s-9.4-36.72-14.52-39.43c-7.94-4.2-25.39-4.71-25.39-4.71H289.45s-24.84,6.87-29.33,14.27L244.26,242l20.61,7.57,3.58-4.41,3.56,31.1s-2.12,28-2.12,32.25.27,6.87.27,6.87,46.7-12.68,58.07-9,13.06,7.17,13.06,7.17,1-12.47-1.62-17.22Z" transform="translate(-232.85 -41.26)"/><path class="cls-5" d="M269,249.57c-.08,0-.29-1.49-.77-3.87a70.13,70.13,0,0,0-2.49-9.13,76.89,76.89,0,0,0-3.7-8.73l-1.3-2.56a4.45,4.45,0,0,1-.44-1,3.92,3.92,0,0,1,.61.87c.36.58.86,1.43,1.44,2.51a60.35,60.35,0,0,1,3.85,8.72,55.84,55.84,0,0,1,2.37,9.23c.2,1.21.33,2.19.39,2.87A3.92,3.92,0,0,1,269,249.57Z" transform="translate(-232.85 -41.26)"/><path class="cls-5" d="M313.11,261.28a2.7,2.7,0,0,1-.12.46c-.12.35-.26.78-.44,1.29s-.43,1.25-.75,2-.64,1.68-1.08,2.64c-.83,1.95-1.94,4.22-3.27,6.69s-3,5.08-4.81,7.74A89.33,89.33,0,0,1,297,289.3c-1.86,2.1-3.61,3.92-5.16,5.37-.76.74-1.49,1.36-2.11,1.92s-1.18,1-1.65,1.4l-1.06.85a1.64,1.64,0,0,1-.4.27,2.54,2.54,0,0,1,.33-.35c.28-.24.61-.55,1-.91s1-.88,1.58-1.46,1.32-1.22,2.06-2c1.51-1.48,3.23-3.31,5.06-5.41s3.71-4.53,5.57-7.16,3.44-5.26,4.81-7.68,2.48-4.69,3.35-6.61c.46-.95.82-1.84,1.15-2.61s.61-1.43.83-2,.37-.92.51-1.26S313.09,261.27,313.11,261.28Z" transform="translate(-232.85 -41.26)"/><path class="cls-5" d="M330.6,216.41c.09,0-.25,1.48-.5,3.87a79.29,79.29,0,0,0-.27,9.38c.09,3.67.31,7,.51,9.38q.14,1.68.24,2.85a5.23,5.23,0,0,1,0,1.05,3.72,3.72,0,0,1-.23-1c-.11-.67-.25-1.63-.39-2.83-.29-2.4-.57-5.73-.66-9.41a60.4,60.4,0,0,1,.42-9.43,26.06,26.06,0,0,1,.54-2.82A4.54,4.54,0,0,1,330.6,216.41Z" transform="translate(-232.85 -41.26)"/><g class="cls-7"><path d="M263.13,230.4s1.33,12.79,1.74,19.17l3.58-4.41S264.94,232,263.13,230.4Z" transform="translate(-232.85 -41.26)"/></g><g class="cls-7"><path d="M296.12,275.54a71.51,71.51,0,0,0-6.37,13,57.68,57.68,0,0,0,16.57-22C302,268.19,298.58,271.64,296.12,275.54Z" transform="translate(-232.85 -41.26)"/></g><path class="cls-6" d="M249,301.64a1.69,1.69,0,0,1-2.11-1.46l-4.47-42.25a5.24,5.24,0,0,1,3.85-5.61l22.31-6,3.72,32.52L270.59,296Z" transform="translate(-232.85 -41.26)"/><g class="cls-7"><path d="M270.59,296c-1.37-2.68-.84-5.84-.53-8.83,1.44-13.82-4.53-27.26-1.53-40.82,0,0,3.06,25.85,3.72,32.52Z" transform="translate(-232.85 -41.26)"/></g><path class="cls-5" d="M268.76,250.14a5,5,0,0,1-.65.22l-1.89.53-7,1.87L254.42,254l-2.69.7a7.71,7.71,0,0,0-2.67,1,7,7,0,0,0-2.08,2.11,5,5,0,0,0-.8,2.92c.12,2.19.25,4.46.38,6.78.49,9.26.93,17.65,1.25,23.79.13,3,.24,5.45.32,7.21,0,.81,0,1.47.06,2a3.51,3.51,0,0,1,0,.68,2.91,2.91,0,0,1-.09-.68c0-.5-.09-1.15-.16-1.95-.11-1.77-.28-4.21-.48-7.21-.36-6.14-.85-14.52-1.4-23.79-.13-2.32-.25-4.59-.37-6.78a5.38,5.38,0,0,1,.89-3.2,7.4,7.4,0,0,1,2.24-2.25,6.42,6.42,0,0,1,1.4-.67c.5-.16,1-.25,1.42-.38l2.69-.67,4.84-1.21,7-1.71,1.91-.44A3.06,3.06,0,0,1,268.76,250.14Z" transform="translate(-232.85 -41.26)"/><path class="cls-5" d="M271.06,267.62a10.64,10.64,0,0,1-2.19.82c-1.37.43-3.29,1-5.42,1.51s-4.08.95-5.5,1.21a11,11,0,0,1-2.32.31,10.18,10.18,0,0,1,2.24-.67l5.45-1.35,5.45-1.37A11,11,0,0,1,271.06,267.62Z" transform="translate(-232.85 -41.26)"/><path class="cls-5" d="M271.44,271.29a17.6,17.6,0,0,1-4.62,1.63,18,18,0,0,1-4.83.77,33.07,33.07,0,0,1,4.7-1.28A34.21,34.21,0,0,1,271.44,271.29Z" transform="translate(-232.85 -41.26)"/><path class="cls-11" d="M360.48,272.13A43.35,43.35,0,0,0,359,265.2c-1.28-3.7-2.75-6.56-2.59-6.64a7.88,7.88,0,0,1,1.08,1.81,33.38,33.38,0,0,1,2,4.67,21.59,21.59,0,0,1,1.06,5A6,6,0,0,1,360.48,272.13Z" transform="translate(-232.85 -41.26)"/><path class="cls-9" d="M367.54,244.58s-2.17-13.41-1-15.53l8.82-11s1.51,2.08.87,3.92a21.11,21.11,0,0,1-2.59,4.42s5-.13,6.45,1.68a9.09,9.09,0,0,1,1,3.65,2.13,2.13,0,0,1-.48,1.53l-1.26,1.55c2.46,10.37-.66,12.87-.66,12.87Z" transform="translate(-232.85 -41.26)"/><path class="cls-11" d="M377.49,226.8c0,.06-.24.29-.65.68a4.48,4.48,0,0,0-1.24,1.69,12.86,12.86,0,0,0-.59,2.1c-.11.55-.06.88-.13.91s-.26-.34-.24-.94a7,7,0,0,1,.48-2.25,3.8,3.8,0,0,1,1.49-1.8C377.1,226.86,377.45,226.74,377.49,226.8Z" transform="translate(-232.85 -41.26)"/><path class="cls-9" d="M366.17,231.51c0-.37-.31-.06-.64.11a2.75,2.75,0,0,0-.86,1.15,8.17,8.17,0,0,0-.11,4.65c.44,2.07,1.68,3.24,2.74,5.07" transform="translate(-232.85 -41.26)"/><path class="cls-11" d="M373.94,226.27c.13.12-.9,1-1.78,2.35a5.15,5.15,0,0,0-.73,1.86c-.08.5,0,.84-.12.85s-.23-.3-.24-.88a3.92,3.92,0,0,1,.65-2.11,6.88,6.88,0,0,1,1.46-1.6C373.6,226.39,373.9,226.22,373.94,226.27Z" transform="translate(-232.85 -41.26)"/><path class="cls-11" d="M367.3,240.44a5.5,5.5,0,0,1-.44-1.59c-.22-1-.5-2.37-.69-3.92a13.57,13.57,0,0,1,.13-5.63c.14,0-.05,2.51.38,5.57S367.47,240.42,367.3,240.44Z" transform="translate(-232.85 -41.26)"/><path class="cls-11" d="M380.09,228.3a3.61,3.61,0,0,1,.63,1.45,12.7,12.7,0,0,1,.38,1.67,3.62,3.62,0,0,1-.24,2.17,2.49,2.49,0,0,1-.74.93,1.74,1.74,0,0,1-.53.26.7.7,0,0,1-.36,0,.52.52,0,0,1-.35-.25,7.14,7.14,0,0,1-.45-1.71,3.32,3.32,0,0,1,0-1.58,8.06,8.06,0,0,1,.36,1.51,10.86,10.86,0,0,0,.5,1.53s0,0,.15,0a1.74,1.74,0,0,0,.38-.2,2,2,0,0,0,.57-.74,3.36,3.36,0,0,0,.23-1.89c-.06-.61-.17-1.17-.26-1.64A8.22,8.22,0,0,1,380.09,228.3Z" transform="translate(-232.85 -41.26)"/><path class="cls-6" d="M313.84,469.77v19.85l39.82-.61c-.3-4-22.05-11.64-22.05-11.64l.43-7.6Z" transform="translate(-232.85 -41.26)"/><g class="cls-12"><path class="cls-4" d="M320.31,475.57a1.72,1.72,0,0,0-1.09,2,1.55,1.55,0,0,0,1.84,1.17,1.82,1.82,0,0,0,1.15-2.1,1.59,1.59,0,0,0-2-1" transform="translate(-232.85 -41.26)"/></g><path class="cls-5" d="M313.84,489.62l.06-3.42,38.15.7s1.79.79,1.61,2.11Z" transform="translate(-232.85 -41.26)"/><path class="cls-5" d="M331.6,477.75c0,.21-1,.32-1.92,1s-1.44,1.55-1.62,1.47.09-1.27,1.25-2.07S331.64,477.56,331.6,477.75Z" transform="translate(-232.85 -41.26)"/><path class="cls-5" d="M336.85,479.59c0,.2-.79.56-1.44,1.44s-.82,1.81-1,1.8-.33-1.17.49-2.25S336.84,479.39,336.85,479.59Z" transform="translate(-232.85 -41.26)"/><path class="cls-5" d="M339.21,484.65c-.18,0-.46-1,0-2.12s1.39-1.59,1.47-1.42-.47.78-.85,1.72S339.4,484.62,339.21,484.65Z" transform="translate(-232.85 -41.26)"/><path class="cls-5" d="M331.22,472.11c-.08.19-1-.08-2.08,0s-1.95.48-2.05.3.71-.92,2-1S331.31,471.94,331.22,472.11Z" transform="translate(-232.85 -41.26)"/><path class="cls-5" d="M331.43,477.72a3,3,0,0,0,.09-1.21,6.78,6.78,0,0,0-1.06-3.13,6.09,6.09,0,0,0-1.57-1.65,1.35,1.35,0,0,0-1.35-.24,1.54,1.54,0,0,0-.79,1.31,5.24,5.24,0,0,0,3.52,4.64,5,5,0,0,0,5.41-1.6,3.58,3.58,0,0,0,.71-1.23,1.33,1.33,0,0,0,0-.79.93.93,0,0,0-.54-.57,1.69,1.69,0,0,0-1.25.12,7.34,7.34,0,0,0-.93.53,8.41,8.41,0,0,0-2.29,2.26,3,3,0,0,0-.55,1.07,11.45,11.45,0,0,1,3-3c.54-.3,1.24-.74,1.81-.55.25.11.34.4.23.75a3.58,3.58,0,0,1-.63,1,4.55,4.55,0,0,1-4.84,1.4,4.76,4.76,0,0,1-3.17-4,1,1,0,0,1,.47-.86.9.9,0,0,1,.89.17,5.82,5.82,0,0,1,1.49,1.48,7,7,0,0,1,1.17,2.9C331.41,477.29,331.38,477.72,331.43,477.72Z" transform="translate(-232.85 -41.26)"/><polygon class="cls-6" points="65.59 428.16 66.41 434.33 65.86 448.27 47.71 448.71 47.06 434.33 47.83 428.16 65.59 428.16"/><path class="cls-5" d="M289.74,488.48c-.11,0,.15-4.26.58-9.52s.87-9.54,1-9.54-.15,4.25-.58,9.52S289.85,488.47,289.74,488.48Z" transform="translate(-232.85 -41.26)"/><polygon class="cls-5" points="65.85 445.95 47.7 446.33 47.71 448.71 65.86 448.27 65.85 445.95"/><path class="cls-5" d="M280.49,479.2a2.56,2.56,0,0,1,.47-.74,12.18,12.18,0,0,1,1.61-1.73,12.41,12.41,0,0,1,2.94-2,9.66,9.66,0,0,1,11.3,2.09,8.27,8.27,0,0,1,1.33,2,2.22,2.22,0,0,1,.29.82,19.4,19.4,0,0,0-1.9-2.53,9.67,9.67,0,0,0-6.8-2.79,11.06,11.06,0,0,0-6.9,2.7C281.31,478.26,280.57,479.26,280.49,479.2Z" transform="translate(-232.85 -41.26)"/></g><g id="Plant"><path class="cls-6" d="M622.56,464.34c-2.37-.12-3.07-3.47-2.19-5.67s2.63-4.17,2.66-6.54c0-2.07-1.29-3.94-1.42-6-.22-3.71,3.37-6.73,3.52-10.45.12-2.9-1.89-5.66-1.41-8.51.53-3.07,3.73-5.08,4.46-8.11.78-3.22-1.45-6.62-.6-9.82s4.61-5.53,4.08-8.78a31.35,31.35,0,0,0-1.12-3.07c-.67-2.43.65-5,2.26-6.91s3.57-3.66,4.57-6c1.52-3.56.46-7.89,2.26-11.32,1.5-2.86,4.84-4.78,5.26-8,1.7,2.87,0,6.54.43,9.85.25,2.16,1.37,4.11,2,6.18a16,16,0,0,1-1.26,12.87c-1.45,2.55-3.69,5-3.57,7.89.13,3.55,3.69,6.12,4.31,9.62.9,5-4.43,9.5-3.69,14.53.19,1.3.78,2.52.89,3.83.38,4.44-4.66,7.58-5.43,12-.56,3.23,1.31,6.57.54,9.77-.6,2.46-2.72,4.66-2.2,7.14a16.6,16.6,0,0,0,1.36,3,5.72,5.72,0,0,1-.9,5.9,5,5,0,0,1-5.73,1.18" transform="translate(-232.85 -41.26)"/><g class="cls-13"><path class="cls-4" d="M638.32,461.85a16.6,16.6,0,0,1-1.36-3c-.52-2.48,1.6-4.68,2.2-7.14.77-3.2-1.1-6.54-.54-9.77.77-4.4,5.81-7.54,5.43-12-.11-1.31-.7-2.53-.89-3.83-.74-5,4.59-9.53,3.69-14.53-.62-3.5-4.18-6.07-4.31-9.62-.12-2.93,2.12-5.34,3.57-7.89a16,16,0,0,0,1.26-12.87c-.68-2.07-1.8-4-2-6.18-.39-3.31,1.27-7-.43-9.85-.42,3.19-3.76,5.11-5.26,8-1.8,3.43-.74,7.76-2.26,11.32-1,2.32-3,4-4.57,6s-2.93,4.48-2.26,6.91a31.35,31.35,0,0,1,1.12,3.07c.53,3.25-3.23,5.59-4.08,8.78s1.38,6.6.6,9.82c-.73,3-3.93,5-4.46,8.11-.48,2.85,1.53,5.61,1.41,8.51-.15,3.72-3.74,6.74-3.52,10.45.13,2.06,1.44,3.93,1.42,6,0,2.37-1.77,4.33-2.66,6.54s-.18,5.55,2.19,5.67l9.13,4.59a5,5,0,0,0,5.73-1.18A5.72,5.72,0,0,0,638.32,461.85Z" transform="translate(-232.85 -41.26)"/></g><path class="cls-6" d="M635.22,459.68a6.52,6.52,0,0,1-.92-3.51c.25-1.36,2.54-2.55,3.11-4.86.75-3-.59-8.27,0-11.29.77-4.09,5-6.79,4.84-10.86-.05-1.19.11-4.39,0-5.57-.46-4.59,3.57-7.66,3-12.21-.41-3.18-3.7-6.91-3.71-10.17,0-2.69,1.93-5,3.21-7.49a16.8,16.8,0,0,0,1.46-11.94c-.51-1.85-1.38-3.58-1.52-5.55-.21-3,1.28-6.51,0-9.05-.45,3-3.27,5-4.6,7.68-1.61,3.28-.86,7.2-2.24,10.58-.89,2.19-2.58,3.91-4,5.8s-2.57,4.31-2.09,6.5c.21.95.71,1.78.83,2.76.34,3-2.85,5.36-3.65,8.35s.93,6,.18,9c-.7,2.83-3.47,6.67-4,9.53-.5,2.67,1.92,4.4,1.73,7.07-.25,3.43-3.69,7.59-3.62,11,0,1.89,1.62,2.49,1.54,4.39-.1,2.19-1.93,6.54-2.73,8.63a5.91,5.91,0,0,0,.57,5.87l10.2,5.06C637.31,467.23,637.11,462.8,635.22,459.68Z" transform="translate(-232.85 -41.26)"/><path class="cls-5" d="M642.07,382.69a.57.57,0,0,1,0,.22c0,.18,0,.4,0,.67,0,.58,0,1.44-.11,2.55a12.5,12.5,0,0,1-.92,3.93,20,20,0,0,1-3.07,4.38,8.16,8.16,0,0,0-1.45,2.66,9,9,0,0,0-.37,3.27c.11,2.3.82,4.7,1.15,7.31a11.14,11.14,0,0,1-.13,4.06,7.29,7.29,0,0,1-.8,2,19.65,19.65,0,0,0-1.07,1.79,6.64,6.64,0,0,0-.06,4.14c.14.72.31,1.45.39,2.2a8.86,8.86,0,0,1,0,2.3,18.53,18.53,0,0,1-1.41,4.28,37,37,0,0,0-1.58,4,10.47,10.47,0,0,0-.35,4.08,17.66,17.66,0,0,1,.14,4,12.28,12.28,0,0,1-1.28,3.64,14.61,14.61,0,0,0-1.29,3.31c-.43,2.25.21,4.42.16,6.41a16.94,16.94,0,0,1-1.17,5.23,18.29,18.29,0,0,0-1,3.87,5.65,5.65,0,0,0,.26,2.49c.21.53.37.8.35.81a4.42,4.42,0,0,1-.43-.78,5.49,5.49,0,0,1-.33-2.53,17.26,17.26,0,0,1,.93-3.93,17.06,17.06,0,0,0,1.1-5.16c0-1-.13-2-.24-3.07a11.43,11.43,0,0,1,0-3.4c.44-2.37,2.17-4.39,2.53-6.94a18.37,18.37,0,0,0-.16-4,10.85,10.85,0,0,1,.36-4.22c.78-2.78,2.47-5.31,3-8.25a8.39,8.39,0,0,0,.06-2.18c-.09-.73-.24-1.45-.39-2.17a7.08,7.08,0,0,1,.09-4.39,18.14,18.14,0,0,1,1.11-1.83,7.41,7.41,0,0,0,.75-1.85,10.8,10.8,0,0,0,.14-3.92c-.32-2.57-1-5-1.12-7.35a9.16,9.16,0,0,1,.41-3.37,8.37,8.37,0,0,1,1.52-2.74,20.51,20.51,0,0,0,3.09-4.3,12.45,12.45,0,0,0,1-3.86c.13-1.09.15-1.95.19-2.53,0-.28,0-.49,0-.67S642.07,382.69,642.07,382.69Z" transform="translate(-232.85 -41.26)"/><path class="cls-6" d="M608,465.5c-3.32.49-5.2-4-4.58-7.26s2.5-6.49,1.88-9.79c-.53-2.86-2.86-5.1-3.6-7.91-1.33-5.08,2.82-10.26,2-15.45-.63-4-4.17-7.31-4.28-11.41-.11-4.39,3.77-8.05,4-12.44.2-4.68-3.82-8.78-3.51-13.45s4.87-8.92,3.24-13.28c-.54-1.45-1.7-2.58-2.39-3.95-1.6-3.18-.46-7.06,1.24-10.19s3.95-6.06,4.69-9.54c1.13-5.35-1.52-11.06,0-16.3,1.29-4.37,5.39-7.94,5.1-12.49,3.13,3.52,1.84,9,3.28,13.54.94,2.93,3,5.32,4.55,8a22.73,22.73,0,0,1,1.78,18.17c-1.32,3.94-3.76,7.88-2.8,11.91,1.17,4.88,6.79,7.48,8.62,12.15,2.61,6.68-3.54,14.38-1.14,21.14.62,1.75,1.78,3.28,2.29,5.06,1.74,6.05-4.38,11.78-4.24,18.08.1,4.64,3.61,8.76,3.41,13.39-.15,3.57-2.49,7.21-1.09,10.5.61,1.42,1.83,2.48,2.7,3.76a8,8,0,0,1,.38,8.41,7,7,0,0,1-7.62,3.21" transform="translate(-232.85 -41.26)"/><g class="cls-13"><path class="cls-4" d="M629.14,457.74c-.87-1.28-2.09-2.34-2.7-3.76-1.4-3.29.94-6.93,1.09-10.5.2-4.63-3.31-8.75-3.41-13.39-.14-6.3,6-12,4.24-18.08-.51-1.78-1.67-3.31-2.29-5.06-2.4-6.76,3.75-14.46,1.14-21.14-1.83-4.67-7.45-7.27-8.62-12.15-1-4,1.48-8,2.8-11.91a22.73,22.73,0,0,0-1.78-18.17c-1.52-2.68-3.61-5.07-4.55-8-1.44-4.49-.15-10-3.28-13.54.29,4.55-3.81,8.12-5.1,12.49-1.56,5.24,1.1,11,0,16.3-.74,3.48-3,6.41-4.69,9.54s-2.84,7-1.24,10.19c.69,1.37,1.85,2.5,2.39,3.95,1.63,4.36-2.93,8.63-3.24,13.28s3.71,8.77,3.51,13.45c-.18,4.39-4.06,8.05-4,12.44.11,4.1,3.65,7.37,4.28,11.41.81,5.19-3.34,10.37-2,15.45.74,2.81,3.07,5,3.6,7.91.62,3.3-1.26,6.5-1.88,9.79s1.26,7.75,4.58,7.26l13.91,3.86a7,7,0,0,0,7.62-3.21A8,8,0,0,0,629.14,457.74Z" transform="translate(-232.85 -41.26)"/></g><path class="cls-6" d="M624.25,455.58A9.27,9.27,0,0,1,622,451c0-2,2.82-4.23,3-7.58.21-4.35-3.09-11.3-3.13-15.64,0-5.89,5.09-10.78,3.73-16.37-.39-1.64-1-6.12-1.52-7.72-1.89-6.23,2.85-11.6.79-17.74-1.44-4.29-7-8.55-7.92-13.06-.74-3.73,1.28-7.53,2.39-11.27a23.71,23.71,0,0,0-1.26-16.93c-1.2-2.43-2.88-4.58-3.61-7.28-1.13-4.14,0-9.37-2.54-12.52.19,4.23-3.18,7.76-4.28,11.9-1.32,5,.78,10.2-.2,15.26-.64,3.29-2.5,6.13-3.91,9.13s-2.38,6.68-1.12,9.58c.55,1.26,1.48,2.26,1.91,3.59,1.28,4-2.48,8.21-2.77,12.57s2.93,8.05,2.72,12.43c-.2,4.12-3,10.2-2.94,14.31,0,3.82,3.87,5.56,4.34,9.32.6,4.82-3,11.51-2,16.21.57,2.6,2.92,3,3.33,5.66.47,3.06-.88,9.59-1.42,12.7a8.35,8.35,0,0,0,2.4,8l15.52,4.22C629.22,465.47,627.73,459.39,624.25,455.58Z" transform="translate(-232.85 -41.26)"/><path class="cls-5" d="M612.66,347a38.39,38.39,0,0,1,.8,4.79,17.88,17.88,0,0,1-.21,5.7,14.57,14.57,0,0,1-1.22,3.36c-.55,1.13-1.23,2.28-1.84,3.53a11.4,11.4,0,0,0-1.3,4.1,12.8,12.8,0,0,0,.38,4.65c.78,3.17,2.42,6.3,3.6,9.83a15.7,15.7,0,0,1,.92,5.63,11,11,0,0,1-.56,2.92,25.12,25.12,0,0,0-1,2.78c-.47,1.93.26,3.92,1.06,5.8.4,1,.82,1.92,1.14,2.94a12.18,12.18,0,0,1,.55,3.17,25.28,25.28,0,0,1-.77,6.3,50.25,50.25,0,0,0-1.09,6,15.29,15.29,0,0,0,0,3,15.9,15.9,0,0,0,.6,2.82,25.42,25.42,0,0,1,1.31,5.55,17.49,17.49,0,0,1-.78,5.37,20.13,20.13,0,0,0-.87,5,15.87,15.87,0,0,0,.83,4.61c.43,1.46.9,2.86,1.16,4.24a15.2,15.2,0,0,1,.19,4c-.08,1.26-.23,2.44-.37,3.54a25.7,25.7,0,0,0-.31,5.65A7.88,7.88,0,0,0,616,465.6c.44.69.73,1,.71,1a7.11,7.11,0,0,1-.78-1,7.77,7.77,0,0,1-1.15-3.4,25.45,25.45,0,0,1,.24-5.69c.13-1.11.27-2.28.34-3.53a14.65,14.65,0,0,0-.22-3.93,40.86,40.86,0,0,0-1.18-4.21,16.13,16.13,0,0,1-.86-4.7,20.63,20.63,0,0,1,.86-5,16.87,16.87,0,0,0,.75-5.26,25.82,25.82,0,0,0-1.3-5.47,16.13,16.13,0,0,1-.62-2.89,15.22,15.22,0,0,1,0-3,49.28,49.28,0,0,1,1.09-6.05,25.3,25.3,0,0,0,.76-6.2,11.76,11.76,0,0,0-.53-3.07c-.31-1-.73-1.94-1.13-2.9a18,18,0,0,1-1-2.95,6.9,6.9,0,0,1,0-3.1,27.64,27.64,0,0,1,1-2.83,10.45,10.45,0,0,0,.55-2.8,15.41,15.41,0,0,0-.89-5.5c-1.15-3.48-2.79-6.63-3.57-9.86a13.13,13.13,0,0,1-.36-4.76,11.66,11.66,0,0,1,1.35-4.2c.63-1.26,1.31-2.4,1.87-3.52a14.14,14.14,0,0,0,1.23-3.29,17.93,17.93,0,0,0,.27-5.63c-.13-1.55-.34-2.75-.46-3.56l-.14-.93C612.67,347.14,612.66,347,612.66,347Z" transform="translate(-232.85 -41.26)"/><path class="cls-6" d="M605.91,467.69c-1.89.93-3.88-1.37-4.14-3.46s.24-4.37-.77-6.22c-.87-1.61-2.7-2.5-3.68-4.05-1.78-2.78-.3-6.68-1.79-9.63-1.15-2.3-3.91-3.57-4.76-6-.92-2.6.69-5.55,0-8.21-.79-2.84-4-4.52-4.71-7.37s1.2-6.28-.63-8.58a26.63,26.63,0,0,0-2.19-1.9c-1.57-1.59-1.63-4.13-1.23-6.33s1.2-4.39,1-6.62c-.35-3.42-3.05-6.33-3.13-9.77-.07-2.86,1.69-5.79.64-8.45,2.56,1.5,2.85,5.06,4.58,7.46,1.13,1.57,2.84,2.6,4.27,3.91A14.28,14.28,0,0,1,593.88,403c0,2.6-.73,5.44.63,7.66,1.64,2.7,5.5,3.16,7.5,5.61,2.86,3.49.66,9.29,3.41,12.87.7.93,1.69,1.62,2.34,2.58,2.22,3.29-.34,7.91,1,11.65,1,2.75,3.85,4.54,4.63,7.35.6,2.17-.1,4.8,1.38,6.49a15,15,0,0,0,2.34,1.74,5.06,5.06,0,0,1,1.85,5,4.41,4.41,0,0,1-3.94,3.39" transform="translate(-232.85 -41.26)"/><g class="cls-13"><path class="cls-4" d="M617.07,459a15,15,0,0,1-2.34-1.74c-1.48-1.69-.78-4.32-1.38-6.49-.78-2.81-3.67-4.6-4.63-7.35-1.3-3.74,1.26-8.36-1-11.65-.65-1-1.64-1.65-2.34-2.58-2.75-3.58-.55-9.38-3.41-12.87-2-2.45-5.86-2.91-7.5-5.61-1.36-2.22-.66-5.06-.63-7.66a14.28,14.28,0,0,0-4.58-10.54c-1.43-1.31-3.14-2.34-4.27-3.91-1.73-2.4-2-6-4.58-7.46,1,2.66-.71,5.59-.64,8.45.08,3.44,2.78,6.35,3.13,9.77.23,2.23-.56,4.42-1,6.62s-.34,4.74,1.23,6.33a26.63,26.63,0,0,1,2.19,1.9c1.83,2.3-.08,5.74.63,8.58s3.92,4.53,4.71,7.37c.73,2.66-.88,5.61,0,8.21.85,2.43,3.61,3.7,4.76,6,1.49,2.95,0,6.85,1.79,9.63,1,1.55,2.81,2.44,3.68,4.05,1,1.85.5,4.13.77,6.22s2.25,4.39,4.14,3.46l9.07-.38a4.41,4.41,0,0,0,3.94-3.39A5.06,5.06,0,0,0,617.07,459Z" transform="translate(-232.85 -41.26)"/></g><path class="cls-6" d="M613.73,458.61a5.81,5.81,0,0,1-2.23-2.33c-.4-1.16.87-3.08.32-5.12-.71-2.63-4-6.16-4.89-8.75-1.17-3.51,1-7.44-.94-10.52-.55-.9-1.8-3.46-2.4-4.33-2.33-3.36-.54-7.48-3-10.76-1.69-2.29-5.86-3.76-7.26-6.29-1.17-2.09-.69-4.76-.75-7.21a15,15,0,0,0-4-9.89,25.75,25.75,0,0,1-3.58-3.65c-1.47-2.26-1.82-5.61-3.93-7,.93,2.5-.41,5.26-.26,7.95.17,3.23,2.44,6,2.83,9.17.25,2.09-.32,4.15-.58,6.22s-.14,4.46,1.18,6a23.89,23.89,0,0,1,1.84,1.79c1.54,2.15.1,5.39.77,8.06s3.31,4.24,4,6.91c.68,2.5.18,6.68,1,9.13.76,2.28,3.39,2.58,4.39,4.74,1.29,2.77.42,7.47,1.94,10.09.85,1.44,2.33,1.23,3.09,2.74.87,1.74,1.33,5.91,1.61,7.88a5.23,5.23,0,0,0,3,4.31l10.1-.48C618.61,463.56,616.54,460.21,613.73,458.61Z" transform="translate(-232.85 -41.26)"/><path class="cls-5" d="M585.81,395.88a1.15,1.15,0,0,1,.11.17l.3.51c.25.45.62,1.12,1,2a11.33,11.33,0,0,1,1,3.46,18.11,18.11,0,0,1-.49,4.73,7.11,7.11,0,0,0,0,2.68,7.94,7.94,0,0,0,1.12,2.69c1.08,1.74,2.67,3.29,4.06,5.18a9.68,9.68,0,0,1,1.65,3.21,6.55,6.55,0,0,1,.23,1.88,16.56,16.56,0,0,0-.06,1.85,5.9,5.9,0,0,0,1.74,3.23c.42.49.86,1,1.26,1.54a7.59,7.59,0,0,1,.94,1.81,16.14,16.14,0,0,1,.76,3.94,30.37,30.37,0,0,0,.51,3.79,9.27,9.27,0,0,0,1.48,3.31,16.72,16.72,0,0,1,1.86,3.08,10.76,10.76,0,0,1,.57,3.39,13.43,13.43,0,0,0,.43,3.12c.64,1.93,2.07,3.33,2.89,4.9a15.16,15.16,0,0,1,1.35,4.57,16.37,16.37,0,0,0,.89,3.44,5.06,5.06,0,0,0,1.27,1.82c.39.32.63.46.61.48a3.75,3.75,0,0,1-.66-.42,4.82,4.82,0,0,1-1.36-1.82,15.82,15.82,0,0,1-1-3.45,15.32,15.32,0,0,0-1.37-4.48c-.81-1.52-2.27-2.9-3-4.94s-.21-4.35-1-6.47a15.88,15.88,0,0,0-1.83-3,9.6,9.6,0,0,1-1.55-3.44c-.59-2.5-.37-5.19-1.26-7.68a7.54,7.54,0,0,0-.9-1.71c-.37-.53-.81-1-1.23-1.52a6.23,6.23,0,0,1-1.83-3.45,16.62,16.62,0,0,1,.07-1.9,7,7,0,0,0-.21-1.77,9.75,9.75,0,0,0-1.59-3.09c-1.35-1.86-2.94-3.43-4-5.22a8.45,8.45,0,0,1-1.14-2.8,7.53,7.53,0,0,1,0-2.8,17.7,17.7,0,0,0,.55-4.66,11.35,11.35,0,0,0-.91-3.41c-.37-.91-.72-1.59-1-2-.1-.22-.19-.39-.25-.53S585.8,395.89,585.81,395.88Z" transform="translate(-232.85 -41.26)"/><polygon class="cls-10" points="358.56 418.44 362.49 426.43 410.35 426.43 415.75 418.44 358.56 418.44"/><polygon class="cls-10" points="363.63 423.68 370.8 448.41 403.04 448.44 409.53 423.72 363.63 423.68"/><path class="cls-5" d="M643,467.63c0,.11-10.68.21-23.85.21s-23.85-.1-23.85-.21,10.67-.2,23.85-.2S643,467.52,643,467.63Z" transform="translate(-232.85 -41.26)"/></g><g id="Floor"><path class="cls-5" d="M646.84,489.7c0,.14-88.61.26-197.9.26S251,489.84,251,489.7s88.59-.26,197.91-.26S646.84,489.55,646.84,489.7Z" transform="translate(-232.85 -41.26)"/></g></svg>