<svg xmlns="http://www.w3.org/2000/svg" xmlns:xlink="http://www.w3.org/1999/xlink" viewBox="0 0 560 527.53">
  <defs>
    <style>
      .cls-1, .cls-11, .cls-12, .cls-19, .cls-21, .cls-6 {
        fill: none;
      }

      .cls-2 {
        fill: #fff;
      }

      .cls-3 {
        clip-path: url(#clip-path);
      }

      .cls-4 {
        fill: #e5ebfa;
      }

      .cls-5 {
        fill: #8674fc;
      }

      .cls-6 {
        stroke: #5700dd;
      }

      .cls-11, .cls-12, .cls-19, .cls-21, .cls-6 {
        stroke-miterlimit: 10;
      }

      .cls-11, .cls-12, .cls-21, .cls-6 {
        stroke-width: 0.53px;
      }

      .cls-7 {
        fill: #2c2d40;
      }

      .cls-8 {
        fill: #eeb422;
      }

      .cls-9 {
        fill: #5700dd;
      }

      .cls-10 {
        fill: #e47573;
      }

      .cls-11 {
        stroke: #eeb422;
      }

      .cls-12 {
        stroke: #bfcdf2;
      }

      .cls-13 {
        fill: #bfcdf2;
      }

      .cls-14 {
        fill: #ff7673;
        opacity: 0.32;
        isolation: isolate;
      }

      .cls-15 {
        clip-path: url(#clip-path-2);
      }

      .cls-16 {
        fill: #c33c4c;
      }

      .cls-17 {
        clip-path: url(#clip-path-3);
      }

      .cls-18 {
        fill: #1b283e;
      }

      .cls-19, .cls-21 {
        stroke: #2c2d40;
      }

      .cls-20 {
        clip-path: url(#clip-path-4);
      }
    </style>
    <clipPath id="clip-path" transform="translate(0 -2.58)">
      <path class="cls-1" d="M270.7,201.71c0,50.49-43.7,91.44-97.6,91.44s-97.6-41-97.6-91.44S62.66,76.2,172.09,76.2,270.7,151.19,270.7,201.71Z"/>
    </clipPath>
    <clipPath id="clip-path-2" transform="translate(0 -2.58)">
      <path class="cls-1" d="M485.9,201.71c0,50.49-43.69,91.44-97.59,91.44s-97.6-41-97.6-91.44S334.4,76,388.31,76,485.9,151.19,485.9,201.71Z"/>
    </clipPath>
    <clipPath id="clip-path-3" transform="translate(0 -2.58)">
      <path class="cls-1" d="M270.7,423.41c0,50.51-43.7,91.45-97.6,91.45s-97.6-40.94-97.6-91.45,43.69-119.83,97.6-119.83S270.7,372.9,270.7,423.41Z"/>
    </clipPath>
    <clipPath id="clip-path-4" transform="translate(0 -2.58)">
      <path class="cls-1" d="M497,413c0,50.51-43.7,91.45-97.6,91.45s-97.6-40.94-97.6-91.45,43.7-119.83,97.6-119.83S497,362.47,497,413Z"/>
    </clipPath>
  </defs>
  <g id="Layer_2" data-name="Layer 2">
    <rect class="cls-2" width="560" height="527.42"/>
  </g>
  <g id="Layer_1" data-name="Layer 1">
    <g id="Layer_1-2" data-name="Layer 1">
      <g class="cls-3">
        <g>
          <ellipse class="cls-4" cx="173.1" cy="199.12" rx="97.6" ry="91.45"/>
          <g>
            <g>
              <path class="cls-5" d="M233.21,160.56A215.85,215.85,0,0,0,191,145.21a357.57,357.57,0,0,0-50.27-8.63s26.79,18.76,44.87,22.26S233.21,160.56,233.21,160.56Z" transform="translate(0 -2.58)"/>
              <g>
                <path class="cls-6" d="M220.53,157.93a36.86,36.86,0,0,1,6.18-23.73c1.8-2.69,4.13-5.29,7.36-6.28,1-.29,2.29-.26,2.6.64a1.47,1.47,0,0,1,0,.78c-.42,2.24-2.47,3.86-4.19,5.44a35.57,35.57,0,0,0-11.83,25.44" transform="translate(0 -2.58)"/>
                <path class="cls-7" d="M247.16,131.9c2.48-.85,5.17-1.46,7.56-.49a2.46,2.46,0,0,1,1.24.86,2.13,2.13,0,0,1,.23,1.56c-.37,2-2.19,3.45-4,4.52-4.46,2.64-9.61,4.07-14.21,6.47a34.72,34.72,0,0,0-13.76,12.93c-1.24,2-2.18,1.81-1.51-.51a38,38,0,0,1,12.83-18.86A39.1,39.1,0,0,1,247.16,131.9Z" transform="translate(0 -2.58)"/>
                <path class="cls-6" d="M241.25,145.69c3.91-2.07,8.6-3.71,12.8-2.23.67.23,1.39.65,1.47,1.32a1.64,1.64,0,0,1-.32,1c-1.23,2-3.58,3.11-5.86,4-4.63,1.71-9.5,2.8-14.14,4.48-3.5,1.27-12.29,7.48-12.29,7.48s7.43-8.53,8.75-9.65A55.29,55.29,0,0,1,241.25,145.69Z" transform="translate(0 -2.58)"/>
                <path class="cls-7" d="M241.35,155.83a13.46,13.46,0,0,1,6.88.79,2.71,2.71,0,0,1,1.75,1.87,2,2,0,0,1-.24,1.2,4.92,4.92,0,0,1-4.08,2.26,18.29,18.29,0,0,1-4.94-.62,39.25,39.25,0,0,0-7.71-.86,62.54,62.54,0,0,0-7.71,1c1.16-1.81,5.33-3.05,7.42-3.76A35.87,35.87,0,0,1,241.35,155.83Z" transform="translate(0 -2.58)"/>
              </g>
              <g>
                <path class="cls-8" d="M215.21,159.3a21.09,21.09,0,0,1-3.6-20.22c2.36-6.6,7.86-11.69,12.37-17.24a67.66,67.66,0,0,0,9.45-15.43c4,7.74,3.28,17.65-.85,25.35-2.66,5-6.81,9.06-10.43,13.45S215.5,153.76,215.21,159.3Z" transform="translate(0 -2.58)"/>
                <path class="cls-9" d="M233.43,106.41a12.92,12.92,0,0,1-.16,7.34,30.24,30.24,0,0,1-3.14,6.81c-2.58,4.33-6.19,7.93-9.11,11.85a34.19,34.19,0,0,0-6.54,12.93,25.18,25.18,0,0,0-.89,7.17,16.4,16.4,0,0,0,1.68,7.07,15.8,15.8,0,0,1-2.33-7,25.16,25.16,0,0,1,.56-7.44A33.64,33.64,0,0,1,220,131.64c3.13-3.93,6.61-7.49,9.32-11.6a30.28,30.28,0,0,0,3.38-6.48A13.33,13.33,0,0,0,233.43,106.41Z" transform="translate(0 -2.58)"/>
              </g>
              <g>
                <path class="cls-10" d="M162.93,149.51a21.08,21.08,0,0,0,3.6-20.2c-2.37-6.61-7.87-11.71-12.38-17.24a67.94,67.94,0,0,1-9.45-15.44c-4,7.73-3.28,17.65.86,25.36,2.66,5,6.8,9,10.43,13.43S162.63,144,162.93,149.51Z" transform="translate(0 -2.58)"/>
                <path class="cls-9" d="M144.7,96.63a13.22,13.22,0,0,0,.76,7.17,29.57,29.57,0,0,0,3.37,6.48c2.71,4.11,6.19,7.67,9.32,11.61a33.54,33.54,0,0,1,6.48,13.46,24.83,24.83,0,0,1,.56,7.44,15.64,15.64,0,0,1-2.33,7,16.4,16.4,0,0,0,1.69-7.06,25.25,25.25,0,0,0-.89-7.18,34.11,34.11,0,0,0-6.55-12.94c-3-3.91-6.53-7.52-9.1-11.85a30.48,30.48,0,0,1-3.15-6.81A13,13,0,0,1,144.7,96.63Z" transform="translate(0 -2.58)"/>
              </g>
              <g>
                <path class="cls-8" d="M154.43,148.39a16.59,16.59,0,0,0-2.7-15.93c-3.53-4.37-9-6.88-13.83-10a57,57,0,0,1-11.14-9.31c-1,6.72,2.27,14,7.43,18.72,3.31,3.08,7.49,5.16,11.37,7.58S152.73,144.3,154.43,148.39Z" transform="translate(0 -2.58)"/>
                <path class="cls-9" d="M126.73,113.2a10.64,10.64,0,0,0,2.47,5.18,24.6,24.6,0,0,0,4.25,4c3.1,2.39,6.64,4.26,10,6.46a28.09,28.09,0,0,1,8.43,8.49,20.29,20.29,0,0,1,2.41,5.43,12.15,12.15,0,0,1,.16,5.84,12.89,12.89,0,0,0-.64-5.71,20.61,20.61,0,0,0-2.6-5.15,28.72,28.72,0,0,0-8.34-8.09c-3.24-2.22-6.85-4.08-9.9-6.69a25.69,25.69,0,0,1-4.14-4.33A10.46,10.46,0,0,1,126.73,113.2Z" transform="translate(0 -2.58)"/>
              </g>
              <g>
                <path class="cls-10" d="M218.32,107.43a4.83,4.83,0,0,0-.44-2.4.8.8,0,0,0-.64-.45c-.39,0-.56.44-.64.79-.76,3.74.33,8.72,1.58,12.31C218.46,114.27,218.32,110.81,218.32,107.43Z" transform="translate(0 -2.58)"/>
                <path class="cls-10" d="M223,104.76a4.73,4.73,0,0,0,.11-2.39.74.74,0,0,0-.53-.58c-.28,0-.64.31-.79.65-1.59,3.51-1.61,8.59-1.24,12.34C221.59,111.48,222.23,108.07,223,104.76Z" transform="translate(0 -2.58)"/>
                <path class="cls-10" d="M231.05,111.26a5.71,5.71,0,0,0,2.29-1.19.71.71,0,0,0,.25-.73c-.14-.32-.62-.35-1-.3-4,.57-8.66,3.19-11.87,5.49C224.24,113.66,227.65,112.39,231.05,111.26Z" transform="translate(0 -2.58)"/>
                <path class="cls-10" d="M229,116.2a5.7,5.7,0,0,0,2.48-.79.71.71,0,0,0,.38-.65c-.07-.36-.56-.46-.93-.47-4.07-.13-9.14,1.66-12.73,3.37C221.83,117.4,225.48,116.79,229,116.2Z" transform="translate(0 -2.58)"/>
                <path class="cls-10" d="M227.62,119.43a5.55,5.55,0,0,0,2.53-.61.72.72,0,0,0,.43-.64c0-.35-.52-.48-.89-.53-4.05-.39-9.24,1.07-12.95,2.54C220.35,120.15,224,119.74,227.62,119.43Z" transform="translate(0 -2.58)"/>
                <path class="cls-10" d="M225,123.16a5.55,5.55,0,0,0,2.53-.61.71.71,0,0,0,.44-.64c0-.35-.51-.48-.89-.53-4-.39-9.25,1.07-13,2.53C217.76,123.88,221.43,123.48,225,123.16Z" transform="translate(0 -2.58)"/>
                <path class="cls-10" d="M222.8,127a5.76,5.76,0,0,0,2.48-.62c.24-.15.48-.37.43-.64s-.51-.49-.89-.52c-4-.4-9.24,1-12.94,2.52C215.58,127.75,219.22,127.33,222.8,127Z" transform="translate(0 -2.58)"/>
                <path class="cls-10" d="M220.67,131a5.76,5.76,0,0,0,2.48-.62.72.72,0,0,0,.43-.65c0-.34-.51-.47-.89-.51-4-.39-9.24,1-12.95,2.52C213.41,131.74,217.07,131.32,220.67,131Z" transform="translate(0 -2.58)"/>
                <path class="cls-10" d="M218.92,135.35a5.55,5.55,0,0,0,2.53-.61c.24-.15.47-.38.44-.64s-.52-.49-.89-.53c-4.05-.39-9.24,1.06-13,2.52C211.66,136.07,215.32,135.65,218.92,135.35Z" transform="translate(0 -2.58)"/>
                <path class="cls-10" d="M217.25,140a5.57,5.57,0,0,0,2.53-.63.71.71,0,0,0,.44-.63c0-.36-.51-.49-.89-.53-4.05-.39-9.24,1.06-13,2.53C210,140.71,213.65,140.26,217.25,140Z" transform="translate(0 -2.58)"/>
                <path class="cls-10" d="M215.86,144a5.71,5.71,0,0,0,2.54-.63c.23-.14.47-.37.43-.63s-.52-.49-.89-.53c-4-.39-9.24,1.06-12.95,2.53C208.6,144.75,212.26,144.3,215.86,144Z" transform="translate(0 -2.58)"/>
                <path class="cls-10" d="M214.56,149.15a5.62,5.62,0,0,0,2.48-.62c.23-.14.47-.37.43-.63s-.51-.49-.89-.53c-4.05-.39-9.24,1-13,2.53C207.3,149.87,211,149.45,214.56,149.15Z" transform="translate(0 -2.58)"/>
                <path class="cls-10" d="M213.64,155.13a5.57,5.57,0,0,0,2.47-.61.7.7,0,0,0,.43-.64c0-.35-.5-.49-.89-.53-4-.39-9.24,1.07-13,2.53C206.37,155.85,210.05,155.45,213.64,155.13Z" transform="translate(0 -2.58)"/>
                <path class="cls-10" d="M213.77,110.57a4.92,4.92,0,0,0-1.17-2.19.8.8,0,0,0-.77-.26c-.36.12-.4.57-.36.92.45,3.79,3.06,8.24,5.37,11.33C216.05,117.07,214.85,113.8,213.77,110.57Z" transform="translate(0 -2.58)"/>
                <path class="cls-10" d="M211.14,114.05a5,5,0,0,0-1.18-2.2.84.84,0,0,0-.77-.26c-.35.13-.39.57-.35.93.44,3.79,3,8.24,5.36,11.33C213.41,120.55,212.21,117.28,211.14,114.05Z" transform="translate(0 -2.58)"/>
                <path class="cls-10" d="M208.08,118.29a5,5,0,0,0-1.36-2.1.8.8,0,0,0-.78-.2c-.35.14-.35.6-.28.94.76,3.76,3.71,8,6.29,10.91C210.89,124.6,209.39,121.43,208.08,118.29Z" transform="translate(0 -2.58)"/>
                <path class="cls-10" d="M205.22,122.5a4.75,4.75,0,0,0-1.51-2,.81.81,0,0,0-.79-.16c-.33.17-.29.62-.21,1,1,3.68,4.32,7.73,7.09,10.46C208.5,128.61,206.79,125.53,205.22,122.5Z" transform="translate(0 -2.58)"/>
                <path class="cls-10" d="M203.43,126.86a5.16,5.16,0,0,0-1.46-2,.84.84,0,0,0-.79-.15c-.34.18-.3.63-.21,1,1,3.7,4.32,7.74,7.09,10.48C206.71,133,205,130,203.43,126.86Z" transform="translate(0 -2.58)"/>
                <path class="cls-10" d="M201.64,131.24a5.24,5.24,0,0,0-1.51-2,.88.88,0,0,0-.8-.16c-.33.17-.3.63-.21,1,1,3.7,4.31,7.74,7.09,10.47C204.91,137.35,203.21,134.29,201.64,131.24Z" transform="translate(0 -2.58)"/>
                <path class="cls-10" d="M199.84,135.62a4.91,4.91,0,0,0-1.51-2,.81.81,0,0,0-.79-.16c-.33.17-.31.62-.21,1,1,3.68,4.31,7.74,7.08,10.46C203.12,141.73,201.41,138.67,199.84,135.62Z" transform="translate(0 -2.58)"/>
                <path class="cls-10" d="M197.92,146.94a5,5,0,0,0-1.51-2,.83.83,0,0,0-.79-.15c-.33.16-.31.62-.21,1,1,3.69,4.31,7.73,7.09,10.46C201.2,153.05,199.5,150,197.92,146.94Z" transform="translate(0 -2.58)"/>
                <path class="cls-10" d="M198.89,141.22a5.18,5.18,0,0,0-1.51-2,.83.83,0,0,0-.8-.16c-.34.17-.3.62-.2,1,1,3.68,4.3,7.72,7.07,10.46C202.16,147.34,200.45,144.3,198.89,141.22Z" transform="translate(0 -2.58)"/>
                <path class="cls-9" d="M224.83,109.28c-.69,1-1.4,1.91-2.11,2.86L220.66,115l-2,3-1.84,2.94a104,104,0,0,0-6.72,12.35,83.19,83.19,0,0,0-4.95,13.16l-.88,3.38-.7,3.44-.59,3.45c-.11,1.2-.24,2.32-.39,3.5v-3.59l.28-3.52.53-3.49.72-3.47a74.44,74.44,0,0,1,4.68-13.4,90.91,90.91,0,0,1,7.11-12.36l2.14-2.87,2.17-2.84,2.29-2.74C223.24,111,224,110.15,224.83,109.28Z" transform="translate(0 -2.58)"/>
              </g>
              <g>
                <path class="cls-8" d="M175.33,104.27a5.12,5.12,0,0,1,.89-2.31.81.81,0,0,1,.73-.35c.38.07.47.53.47.88,0,3.81-2,8.52-3.89,11.85C173.9,111,174.68,107.59,175.33,104.27Z" transform="translate(0 -2.58)"/>
                <path class="cls-8" d="M171.28,100.86a4.67,4.67,0,0,1,.36-2.39.76.76,0,0,1,.63-.48c.28,0,.58.42.65.76.89,3.74-.06,8.74-1.24,12.35C171.34,107.7,171.36,104.24,171.28,100.86Z" transform="translate(0 -2.58)"/>
                <path class="cls-8" d="M162.07,105.89a5.26,5.26,0,0,1-2-1.55.7.7,0,0,1-.13-.71c.2-.29.68-.24,1-.12,3.86,1.2,7.91,4.6,10.62,7.38C168.34,109.41,165.2,107.59,162.07,105.89Z" transform="translate(0 -2.58)"/>
                <path class="cls-8" d="M163.14,111.11a5.54,5.54,0,0,1-2.29-1.2.7.7,0,0,1-.25-.73c.14-.32.62-.34,1-.3,4,.57,8.66,3.17,11.88,5.46C170,113.49,166.54,112.23,163.14,111.11Z" transform="translate(0 -2.58)"/>
                <path class="cls-8" d="M163.89,114.53a5.69,5.69,0,0,1-2.37-1,.7.7,0,0,1-.3-.71c.11-.33.59-.38,1-.36,4.05.29,8.88,2.59,12.26,4.66C170.91,116.44,167.33,115.43,163.89,114.53Z" transform="translate(0 -2.58)"/>
                <path class="cls-8" d="M165.73,118.63a5.43,5.43,0,0,1-2.37-1,.73.73,0,0,1-.31-.7c.12-.35.61-.4,1-.37,4.05.28,8.89,2.59,12.26,4.65C172.74,120.56,169.21,119.53,165.73,118.63Z" transform="translate(0 -2.58)"/>
                <path class="cls-8" d="M167.17,122.77a5.58,5.58,0,0,1-2.38-1c-.19-.19-.39-.45-.29-.7s.59-.4,1-.36c4.06.28,8.89,2.58,12.26,4.65C174.18,124.72,170.66,123.69,167.17,122.77Z" transform="translate(0 -2.58)"/>
                <path class="cls-8" d="M168.57,127.08a5.53,5.53,0,0,1-2.38-1,.74.74,0,0,1-.31-.71c.13-.33.61-.39,1-.36,4.07.29,8.89,2.59,12.26,4.66C175.51,129,172,128,168.57,127.08Z" transform="translate(0 -2.58)"/>
                <path class="cls-8" d="M169.41,131.64a5.57,5.57,0,0,1-2.38-1,.74.74,0,0,1-.31-.71c.13-.35.61-.39,1-.37,4.06.3,8.9,2.59,12.26,4.66C176.41,133.53,172.88,132.54,169.41,131.64Z" transform="translate(0 -2.58)"/>
                <path class="cls-8" d="M170.18,136.45a5.64,5.64,0,0,1-2.39-1,.7.7,0,0,1-.3-.7c.11-.34.59-.39,1-.36,4.06.28,8.89,2.58,12.26,4.65C177.23,138.32,173.65,137.35,170.18,136.45Z" transform="translate(0 -2.58)"/>
                <path class="cls-8" d="M170.76,140.71a5.6,5.6,0,0,1-2.38-1,.73.73,0,0,1-.31-.71c.13-.33.61-.38,1-.35,4.06.28,8.89,2.58,12.26,4.65C177.76,142.61,174.23,141.6,170.76,140.71Z" transform="translate(0 -2.58)"/>
                <path class="cls-8" d="M171,146a5.72,5.72,0,0,1-2.37-1,.7.7,0,0,1-.31-.71c.12-.34.6-.39,1-.37,4.06.29,8.9,2.6,12.26,4.66C178.06,147.89,174.53,146.85,171,146Z" transform="translate(0 -2.58)"/>
                <path class="cls-8" d="M170.82,152a5.46,5.46,0,0,1-2.38-1,.73.73,0,0,1-.31-.71c.13-.33.61-.39,1-.35,4.07.28,8.9,2.58,12.26,4.65C177.83,153.87,174.31,152.9,170.82,152Z" transform="translate(0 -2.58)"/>
                <path class="cls-8" d="M179.21,108.12a5,5,0,0,1,1.58-2,.76.76,0,0,1,.79-.13c.34.18.29.62.17,1-1.15,3.66-4.57,7.59-7.42,10.23C175.72,114.14,177.54,111.12,179.21,108.12Z" transform="translate(0 -2.58)"/>
                <path class="cls-8" d="M181.14,112a5.12,5.12,0,0,1,1.58-2,.8.8,0,0,1,.79-.11c.34.17.29.62.17,1-1.16,3.66-4.57,7.6-7.42,10.24C177.65,118,179.47,115,181.14,112Z" transform="translate(0 -2.58)"/>
                <path class="cls-8" d="M183.34,116.67a5.34,5.34,0,0,1,1.73-1.84.82.82,0,0,1,.8-.07c.33.2.24.65.1,1-1.46,3.59-5.19,7.24-8.27,9.66C179.35,122.41,181.42,119.54,183.34,116.67Z" transform="translate(0 -2.58)"/>
                <path class="cls-8" d="M185.33,121.29a5.26,5.26,0,0,1,1.87-1.73.83.83,0,0,1,.81,0c.3.23.19.67,0,1-1.71,3.45-5.72,6.87-9,9.1C180.94,126.75,183.21,124,185.33,121.29Z" transform="translate(0 -2.58)"/>
                <path class="cls-8" d="M186.27,125.89a5.24,5.24,0,0,1,1.87-1.72.81.81,0,0,1,.8,0c.3.23.19.67,0,1-1.72,3.46-5.71,6.88-9,9.1C181.88,131.36,184.14,128.62,186.27,125.89Z" transform="translate(0 -2.58)"/>
                <path class="cls-8" d="M187.2,130.5a5.16,5.16,0,0,1,1.87-1.75.81.81,0,0,1,.8,0c.3.23.19.67,0,1-1.72,3.46-5.72,6.88-9,9.1C182.81,135.93,185.07,133.22,187.2,130.5Z" transform="translate(0 -2.58)"/>
                <path class="cls-8" d="M188.13,135.1a5.3,5.3,0,0,1,1.86-1.72.85.85,0,0,1,.82,0c.3.23.17.67,0,1-1.72,3.46-5.71,6.88-9,9.1C183.73,140.57,186,137.83,188.13,135.1Z" transform="translate(0 -2.58)"/>
                <path class="cls-8" d="M187.84,146.56a5.21,5.21,0,0,1,1.87-1.71.85.85,0,0,1,.82,0c.29.21.18.66,0,1-1.72,3.46-5.73,6.89-9,9.11C183.41,152,185.73,149.3,187.84,146.56Z" transform="translate(0 -2.58)"/>
                <path class="cls-8" d="M188,140.77a5.21,5.21,0,0,1,1.87-1.71.81.81,0,0,1,.8,0c.3.22.19.66,0,1-1.71,3.46-5.71,6.89-9,9.11C183.61,146.25,185.89,143.51,188,140.77Z" transform="translate(0 -2.58)"/>
                <path class="cls-9" d="M168.57,105c.62,1,1.24,2,1.85,3l1.73,3.09,1.6,3.17,1.49,3.2a89.75,89.75,0,0,1,4.58,13.37,73.13,73.13,0,0,1,2,13.95v3.59l-.13,3.51-.4,3.51c-.18,1.19-.39,2.31-.6,3.45.07-1.19.16-2.39.26-3.49l.09-3.49v-3.48l-.22-3.48a81.46,81.46,0,0,0-2.3-13.77,102.27,102.27,0,0,0-4.24-13.3L173,114.59l-1.41-3.22-1.48-3.19C169.58,107.11,169.07,106,168.57,105Z" transform="translate(0 -2.58)"/>
              </g>
              <g>
                <path class="cls-7" d="M194.66,159.14c1-4.39-.4-8.95-2.48-13s-4.66-7.86-6.47-12c-4.24-9.7-3.52-20.82-.11-30.81a77.11,77.11,0,0,0,4.12,32.29c1.42,4,3.19,8,4.37,12.09A20.4,20.4,0,0,1,194.66,159.14Z" transform="translate(0 -2.58)"/>
                <path class="cls-7" d="M197.58,162.44c2.21-7.86-1.64-15.93-3.53-23.92a51.2,51.2,0,0,1,7.31-40.08c.11,4.5-1.74,9.15-2.73,13.55a94.76,94.76,0,0,0-1.47,33.19C197.89,150.7,198.8,157.06,197.58,162.44Z" transform="translate(0 -2.58)"/>
                <path class="cls-7" d="M199.84,159.77c2.48-9.9-.69-20.33.77-30.45,1.67-11.48,9.3-21.77,10-33.34,1.81,7.8-.53,15.93-3.19,23.51s-5.88,15.18-6.19,23.16C201,148.88,202.45,154,199.84,159.77Z" transform="translate(0 -2.58)"/>
              </g>
              <path class="cls-6" d="M258.78,120.38a3.29,3.29,0,1,1-3.39-3.09h.1a3.2,3.2,0,0,1,3.29,3.09Z" transform="translate(0 -2.58)"/>
              <path class="cls-11" d="M194.91,105.79a3.29,3.29,0,1,1-3.4-3.08h.12a3.19,3.19,0,0,1,3.28,3.08Z" transform="translate(0 -2.58)"/>
              <ellipse class="cls-12" cx="122.48" cy="127.81" rx="3.29" ry="3.09"/>
              <path class="cls-7" d="M243.67,128.39a1.65,1.65,0,1,1-1.69-1.54H242A1.59,1.59,0,0,1,243.67,128.39Z" transform="translate(0 -2.58)"/>
              <path class="cls-5" d="M183.66,92.77A1.65,1.65,0,1,1,182,91.23H182A1.59,1.59,0,0,1,183.66,92.77Z" transform="translate(0 -2.58)"/>
              <path class="cls-8" d="M132.47,136.39a1.65,1.65,0,1,1-1.7-1.54h0a1.6,1.6,0,0,1,1.65,1.54Z" transform="translate(0 -2.58)"/>
            </g>
            <g>
              <path class="cls-10" d="M204.16,217.39l-41.65-63.82-26.73-8.08s-7.07,12.53-9.44,19.64-1.83,13.51-3.71,15.22-17,14-17,14A20.35,20.35,0,0,0,119.73,205c.44,3.82.5,7.7.58,11.59,1.77.69,5.66,2.39,5.66,3.42s-3.71.91-5.55.79a60.82,60.82,0,0,0,1.17,10.68c.89,4.07,2.73,8.37,6.71,10.21a15.9,15.9,0,0,0,6.18,1.09,80.78,80.78,0,0,0,21.25-2.14l22.73,37.76,45.15-29.36Z" transform="translate(0 -2.58)"/>
              <path class="cls-7" d="M233.21,160.56a32.19,32.19,0,0,1,4.27,20.34c-.08.55-.29,1.19-.88,1.3a1.24,1.24,0,0,1-.84-.26,5.45,5.45,0,0,1-2.48-4,33.84,33.84,0,0,1-2.65,18.69,83.66,83.66,0,0,1-9.89,16.61,37.55,37.55,0,0,0-4.65,7.53,11,11,0,0,0-.31,8.52,4.54,4.54,0,0,1-3.88-1.75c1,1.28,2,3.3.63,4.27-.9.64-2.19.25-3.22-.15a33.23,33.23,0,0,1-8-4,26.31,26.31,0,0,1-7-8.94,85.07,85.07,0,0,1-8.66-24.16c-4-.44-8.48-.73-12.5-1.19a134.46,134.46,0,0,1,.73-14.74,9.27,9.27,0,0,1-7.2-4.78,21.3,21.3,0,0,1-1.88-8.06c-3.18,0-6.73-.76-8.94-2.91a10.58,10.58,0,0,1-3.2-8.14,12,12,0,0,1-9.76.4,11,11,0,0,1-6.61-6.82,35.94,35.94,0,0,0-5.69,6.33,1.48,1.48,0,0,0-.13.21c-2.32-3.29-1.85-7.84.38-11.16a20.37,20.37,0,0,1,9.8-7.18s15.37,10.68,45.42,17.13S233.21,160.56,233.21,160.56Z" transform="translate(0 -2.58)"/>
              <g>
                <path class="cls-10" d="M205.79,189a19.82,19.82,0,0,1-8.14,14.52,11.65,11.65,0,0,1-5,2.28c-4.21.61-8.3-2.34-9.9-6s-1.24-7.86-.28-11.74c1.23-5,3.94-10.39,9.16-12C200,173.53,206.24,182,205.79,189Z" transform="translate(0 -2.58)"/>
                <path class="cls-10" d="M187.22,201.35a10.41,10.41,0,0,0,4.54-3.29,1.91,1.91,0,0,0,.49-1c.06-.69-.57-1.2-1.14-1.71l-3.44-2.73a1.22,1.22,0,0,1-.58-1.55c.88-3.85,1.94-8,5.21-10.5a6.1,6.1,0,0,1,3-1.31,6,6,0,0,1,4.52,1.76,14.87,14.87,0,0,1,2.71,4s1.59,8-4,13.31S187.22,201.35,187.22,201.35Z" transform="translate(0 -2.58)"/>
                <path class="cls-7" d="M202.6,185a16.4,16.4,0,0,0-3.22-3.69,5.24,5.24,0,0,0-4.14-1.2,6.88,6.88,0,0,0-3.54,2.45,13.48,13.48,0,0,0-2.18,4,39.62,39.62,0,0,0-1.34,4.64,2.74,2.74,0,0,0-.08.37h0a8.42,8.42,0,0,0,.77.69c.65.53,1.24,1.08,1.92,1.65l1,.83a4.24,4.24,0,0,1,1,1.2,1.9,1.9,0,0,1,0,1.82,4.56,4.56,0,0,1-.92,1.09,9.65,9.65,0,0,1-4.57,2.47,11.27,11.27,0,0,0,3.71-3.18,4.09,4.09,0,0,0,.57-.91.54.54,0,0,0-.13-.56,10.78,10.78,0,0,0-1.77-1.38c-.69-.49-1.38-1-2.05-1.49a6.6,6.6,0,0,1-1.16-.95,2,2,0,0,1-.45-1.19,4.12,4.12,0,0,1,.1-.86,36.5,36.5,0,0,1,1.3-4.93,14.34,14.34,0,0,1,2.68-4.63,10.54,10.54,0,0,1,2.14-1.8,6.53,6.53,0,0,1,2.78-1,6.3,6.3,0,0,1,5.18,2.06A12.23,12.23,0,0,1,202.6,185Z" transform="translate(0 -2.58)"/>
              </g>
              <g>
                <path class="cls-13" d="M208.54,166.91a39.71,39.71,0,0,0,2.09,5.26,28.09,28.09,0,0,0,2.83,4.78,3.9,3.9,0,0,0,2,1.47c.75.14.94-.18,1-1.2a23.54,23.54,0,0,0-.07-5.5A.63.63,0,0,1,217,171a.66.66,0,0,1,.71.44,11.11,11.11,0,0,0,3.71,5.44,4.15,4.15,0,0,0,.64.46,1.37,1.37,0,0,0,.56.18c.1,0,.12,0,.18-.15a3.06,3.06,0,0,0,.09-.74,10.39,10.39,0,0,0-.36-3.33h0a.37.37,0,0,1,.26-.45h0a.39.39,0,0,1,.4.15,19.53,19.53,0,0,0,2.16,2.65,5.69,5.69,0,0,0,3,1.59A5.51,5.51,0,0,1,225,176a15.21,15.21,0,0,1-2.48-2.53l.66-.32a11.29,11.29,0,0,1,.62,3.59,4.09,4.09,0,0,1-.06,1,1.23,1.23,0,0,1-1.09.93,3,3,0,0,1-2-.81,11.67,11.67,0,0,1-4.23-6l1.24-.25a24.38,24.38,0,0,1,0,5.79,2.75,2.75,0,0,1-.62,1.64,1.93,1.93,0,0,1-1.93.47,4.67,4.67,0,0,1-2.47-2,29.1,29.1,0,0,1-4.12-10.65Z" transform="translate(0 -2.58)"/>
                <path class="cls-13" d="M216.58,189.63q-.62,1.85-1.08,3.69a36.14,36.14,0,0,0-.74,3.7,2.15,2.15,0,0,0,.2,1.43c.12.16.18.17.27.17a1.39,1.39,0,0,0,.56-.27,7.61,7.61,0,0,0,2.47-2.64h0a.6.6,0,0,1,.79-.23.55.55,0,0,1,.25.76,4.18,4.18,0,0,0-.51,3.39,2.17,2.17,0,0,0,1.17,1.19,2.11,2.11,0,0,0,1.85-.09,2.15,2.15,0,0,1-2,.5,2.66,2.66,0,0,1-1.77-1.32,3.61,3.61,0,0,1-.42-2.14,6.54,6.54,0,0,1,.57-2l1.06.49a8,8,0,0,1-2.7,3.14,2.43,2.43,0,0,1-1.24.48,1.61,1.61,0,0,1-1.39-.71,3.06,3.06,0,0,1-.32-2.29,21.41,21.41,0,0,1,1.16-3.75A20.81,20.81,0,0,1,216.58,189.63Z" transform="translate(0 -2.58)"/>
                <path class="cls-13" d="M199.32,209a15.77,15.77,0,0,0,.91,3.36,12.92,12.92,0,0,0,1.58,3,1.92,1.92,0,0,0,1.09.75.81.81,0,0,0,.93-.3,4.77,4.77,0,0,0,.53-1.42,7.23,7.23,0,0,0,.2-1.6h1.12a3.75,3.75,0,0,0,.55,2.91,1.63,1.63,0,0,0,1.29.59,2.78,2.78,0,0,0,1.49-.72,2.43,2.43,0,0,1-1.4,1.13,2.11,2.11,0,0,1-1.93-.46,3,3,0,0,1-1-1.68,7.35,7.35,0,0,1-.16-1.81.58.58,0,0,1,1.16,0h0a7.05,7.05,0,0,1-.12,1.89,5.56,5.56,0,0,1-.7,1.88,2,2,0,0,1-1.05.76,2.56,2.56,0,0,1-1.23,0,2.93,2.93,0,0,1-1.76-1.29,10.19,10.19,0,0,1-1.39-3.42A10.33,10.33,0,0,1,199.32,209Z" transform="translate(0 -2.58)"/>
                <path class="cls-13" d="M169.59,157.31a20.87,20.87,0,0,0,3.12,4.88,20.19,20.19,0,0,0,4.26,3.88,25.6,25.6,0,0,0,2.47,1.48c.78.44,1.8.64,2.12.32a4,4,0,0,0,.33-2.25,9.64,9.64,0,0,0-.56-2.65l1.24-.36a8.29,8.29,0,0,0,4.2,5.2,7.34,7.34,0,0,0,3.31,1,2.9,2.9,0,0,0,.77-.14,2.11,2.11,0,0,0,.33-.18.46.46,0,0,0,.13-.18,2.85,2.85,0,0,0-.26-1.55h0a.28.28,0,0,1,.19-.36.33.33,0,0,1,.24,0c.7.42,1.46.82,2.23,1.19a9.45,9.45,0,0,0,2.4.82,8.39,8.39,0,0,1-2.48-.53c-.82-.29-1.61-.61-2.4-1l.42-.38a3,3,0,0,1,.43,2,1.16,1.16,0,0,1-.35.59,2.64,2.64,0,0,1-.49.29,3,3,0,0,1-1,.28,8.16,8.16,0,0,1-3.89-.85,9.84,9.84,0,0,1-3.11-2.39,8.55,8.55,0,0,1-1.8-3.47.61.61,0,0,1,.43-.77.65.65,0,0,1,.8.42h0a9.62,9.62,0,0,1,.63,3,9.77,9.77,0,0,1,0,1.53,2.33,2.33,0,0,1-.78,1.71,2.29,2.29,0,0,1-1.95.37,5.53,5.53,0,0,1-1.53-.62,18,18,0,0,1-2.55-1.67,20.67,20.67,0,0,1-4.17-4.29A18.21,18.21,0,0,1,169.59,157.31Z" transform="translate(0 -2.58)"/>
                <path class="cls-13" d="M145.77,143.43a5.33,5.33,0,0,0,.07,2.83,3.9,3.9,0,0,0,1.58,2.1,3.46,3.46,0,0,0,2.48.58,2.84,2.84,0,0,0,2-1.27h0a.66.66,0,0,1,.88-.23.69.69,0,0,1,.31.4,5.74,5.74,0,0,0,3,3.43,13.14,13.14,0,0,0,2.39.93c.84.28,1.72.43,2.6.65a18.87,18.87,0,0,1-2.71-.07,11,11,0,0,1-2.7-.65,7.33,7.33,0,0,1-2.38-1.52,5.16,5.16,0,0,1-1.5-2.47l1.24.15a4,4,0,0,1-2.95,1.86,4.44,4.44,0,0,1-4.85-3.75A4.87,4.87,0,0,1,145.77,143.43Z" transform="translate(0 -2.58)"/>
              </g>
              <path class="cls-7" d="M143.17,182.75a20.11,20.11,0,0,1-7.58,4,10.8,10.8,0,0,1-4.35.79,7.65,7.65,0,0,1-4.23-1.65v-.31a17.67,17.67,0,0,1,4.08-1.19,34.57,34.57,0,0,1,3.94-.11,29.58,29.58,0,0,0,4-.6,27.37,27.37,0,0,0,4-1.2Z" transform="translate(0 -2.58)"/>
              <polygon class="cls-7" points="129.42 182.83 132.32 172.94 130.69 183.1 129.42 182.83"/>
              <path class="cls-7" d="M128,161a40.24,40.24,0,0,0-1.84,4.87,23.65,23.65,0,0,1,14.72,2.39,24.56,24.56,0,0,1,10.94,10.86s-2.6-10.44-10.36-14.89C132.69,159.18,128,161,128,161Z" transform="translate(0 -2.58)"/>
              <path class="cls-7" d="M155.5,240.77a66,66,0,0,0,22.1-17.38,73.13,73.13,0,0,1-17.85,24.24" transform="translate(0 -2.58)"/>
              <path class="cls-5" d="M267.2,298.2s-35-50.64-46.67-54.51-35.77,13.22-51.59,25.3-34.31,32.63-34.31,32.63Z" transform="translate(0 -2.58)"/>
              <path class="cls-14" d="M153.49,199.46c-.36,3.59-5.51,6-11.5,5.46s-10.54-3.85-10.18-7.41,5.51-6,11.49-5.47S153.86,195.91,153.49,199.46Z" transform="translate(0 -2.58)"/>
              <path class="cls-7" d="M118.65,202.16a14.43,14.43,0,0,1,6.27,1.47l-.9.37a12.11,12.11,0,0,0,.27-5.92,6.89,6.89,0,0,1,1,6.31l-.23.7-.68-.33C122.5,203.86,120.6,203.09,118.65,202.16Z" transform="translate(0 -2.58)"/>
            </g>
          </g>
        </g>
      </g>
      <g class="cls-15">
        <g>
          <ellipse class="cls-5" cx="388.31" cy="199.12" rx="97.6" ry="91.45"/>
          <g>
            <g>
              <path class="cls-13" d="M341.47,160.56a215.85,215.85,0,0,1,42.26-15.35A357.46,357.46,0,0,1,434,136.58s-26.8,18.76-44.88,22.26S341.47,160.56,341.47,160.56Z" transform="translate(0 -2.58)"/>
              <g>
                <path class="cls-10" d="M370.53,217.39l41.65-63.82,26.72-8.1S446,158,448.33,165.11a143,143,0,0,1,4.1,18.15l7.88,7a8.34,8.34,0,0,1-1.28,12,8.19,8.19,0,0,1-.74.53l-3.38,2.2s.67,42.32-36,35.64l-22.65,37.78-45.15-29.36Z" transform="translate(0 -2.58)"/>
                <path class="cls-7" d="M341.47,160.56a32.18,32.18,0,0,0-4.26,20.34c.08.55.29,1.19.87,1.3a1.28,1.28,0,0,0,.85-.26,5.43,5.43,0,0,0,2.48-4,33.76,33.76,0,0,0,2.66,18.69A83.66,83.66,0,0,0,354,213.25a37.36,37.36,0,0,1,4.67,7.53,11.14,11.14,0,0,1,.31,8.52,4.51,4.51,0,0,0,3.86-1.75c-1,1.28-2,3.3-.62,4.27.9.64,2.17.25,3.23-.15a33.6,33.6,0,0,0,8-4,26.29,26.29,0,0,0,6.95-8.94,84.69,84.69,0,0,0,8.58-24.16c4-.44,8.5-.73,12.51-1.19a134.45,134.45,0,0,0-.72-14.74c39.59-6.24,36.65-27.26,37.6-30.31a35.5,35.5,0,0,1,5.68,6.33c.1.16.06,0,.15.2,2.31-3.28,1.84-7.83-.39-11.15a20.41,20.41,0,0,0-9.79-7.18s-15.39,10.68-45.44,17.13S341.47,160.56,341.47,160.56Z" transform="translate(0 -2.58)"/>
                <path class="cls-7" d="M390.21,192.49a130.34,130.34,0,0,1-46.86,80.13c-6,4.85-12.37,9.22-18.79,13.58l-18.28,12.46c-9-7.18-13.6-17.47-14.26-28.48a46.47,46.47,0,0,1,10.33-31,85.66,85.66,0,0,0-10.49,12.43c-3.07-10.9,2-22.44,9.07-31.59s16.15-16.75,23.08-26,11.53-19.94,16.08-30.47L360,167.67c7.31,1.51,14.85,3.08,21,6.94S391.25,185.54,390.21,192.49Z" transform="translate(0 -2.58)"/>
                <g>
                  <path class="cls-10" d="M368.88,189A19.84,19.84,0,0,0,377,203.51a11.54,11.54,0,0,0,5,2.28c4.19.61,8.3-2.34,9.9-6s1.23-7.86.28-11.74c-1.23-5-3.94-10.39-9.16-12C374.68,173.53,368.44,182,368.88,189Z" transform="translate(0 -2.58)"/>
                  <path class="cls-10" d="M387.46,201.35a10.25,10.25,0,0,1-4.54-3.29,1.9,1.9,0,0,1-.48-1c-.06-.69.56-1.2,1.13-1.71l3.45-2.73a1.72,1.72,0,0,0,.57-.63,1.6,1.6,0,0,0,0-.92c-.88-3.85-1.94-8-5.21-10.5a6.1,6.1,0,0,0-3.06-1.31,5.9,5.9,0,0,0-4.51,1.76,14.27,14.27,0,0,0-2.71,4s-1.61,8,3.95,13.31S387.46,201.35,387.46,201.35Z" transform="translate(0 -2.58)"/>
                  <path class="cls-7" d="M372.09,185a12.25,12.25,0,0,1,2.47-4.48,6.28,6.28,0,0,1,5.2-2.06,6.66,6.66,0,0,1,2.76,1,10.92,10.92,0,0,1,2.14,1.81,14.34,14.34,0,0,1,2.68,4.63,36.54,36.54,0,0,1,1.31,4.93,3.54,3.54,0,0,1,.09.86,1.87,1.87,0,0,1-.45,1.19,6.61,6.61,0,0,1-1.15.95c-.67.51-1.36,1-2.05,1.49a10.86,10.86,0,0,0-1.78,1.38.54.54,0,0,0-.13.56,5.35,5.35,0,0,0,.57.91,11.37,11.37,0,0,0,3.71,3.18,9.81,9.81,0,0,1-4.59-2.47,5.27,5.27,0,0,1-.91-1.09,1.9,1.9,0,0,1,0-1.82,4.38,4.38,0,0,1,1-1.2l1-.83c.63-.57,1.24-1.12,1.91-1.65a7.26,7.26,0,0,0,.78-.69h0a1.66,1.66,0,0,0-.09-.37,41.61,41.61,0,0,0-1.33-4.64,13.39,13.39,0,0,0-2.19-4,6.79,6.79,0,0,0-3.53-2.45,5.24,5.24,0,0,0-4.14,1.2A15.76,15.76,0,0,0,372.09,185Z" transform="translate(0 -2.58)"/>
                </g>
                <path class="cls-7" d="M419.18,240.77a65.65,65.65,0,0,1-22.09-17.38,73.24,73.24,0,0,0,17.84,24.24" transform="translate(0 -2.58)"/>
                <path class="cls-13" d="M307.48,298.2s35-50.64,46.72-54.51S390,256.91,405.77,269s34.32,32.63,34.32,32.63Z" transform="translate(0 -2.58)"/>
                <path class="cls-14" d="M421.19,199.46c.37,3.59,5.52,6,11.5,5.46s10.54-3.85,10.19-7.41-5.52-6-11.51-5.47S420.83,195.91,421.19,199.46Z" transform="translate(0 -2.58)"/>
                <path class="cls-7" d="M446.92,182c0,2.22-1.24,4-2.76,4s-2.76-1.82-2.76-4,1.24-4.05,2.76-4.05S446.92,179.76,446.92,182Z" transform="translate(0 -2.58)"/>
                <path class="cls-7" d="M424.1,177.44c9-1.65,24.87-10.25,24.87-10.25s-1.23-3.91-2-5.53A71.9,71.9,0,0,1,424.1,177.44Z" transform="translate(0 -2.58)"/>
                <path class="cls-16" d="M453.63,216.78a29.47,29.47,0,0,1-15.52,1.81,55.92,55.92,0,0,0,16.51-8.15C456.11,212.36,456,215.83,453.63,216.78Z" transform="translate(0 -2.58)"/>
                <path class="cls-16" d="M438.64,218.18A117.78,117.78,0,0,0,451,222.31a2.73,2.73,0,0,0,1.67.08,2.11,2.11,0,0,0,1.14-1.74,6.34,6.34,0,0,0-1.42-5.14" transform="translate(0 -2.58)"/>
                <g>
                  <path class="cls-13" d="M432.41,141.73a23.07,23.07,0,0,1-2.31,7.35,31.91,31.91,0,0,1-4.46,6.42,47.15,47.15,0,0,1-12.48,9.57,67,67,0,0,1-14.85,5.73,71.19,71.19,0,0,1-7.81,1.48,61.78,61.78,0,0,1-7.92.47q3.93-.34,7.82-1.07A75.15,75.15,0,0,0,412.47,164a48.73,48.73,0,0,0,12.37-9.15A28.5,28.5,0,0,0,432.41,141.73Z" transform="translate(0 -2.58)"/>
                  <path class="cls-13" d="M398.67,157.1c-.88.53-1.75,1.07-2.66,1.59l-2.73,1.44-2.83,1.31-2.9,1.19A69.33,69.33,0,0,1,363,167.11l-3.14-.09-3.12-.2-3.11-.4c-1-.15-2-.34-3.06-.53,1,0,2.07.13,3.1.21l3.11.1h3.1l3.09-.1a91.48,91.48,0,0,0,24.23-4.4l2.92-1,2.87-1.13,2.84-1.19C396.76,157.94,397.68,157.51,398.67,157.1Z" transform="translate(0 -2.58)"/>
                  <path class="cls-13" d="M370.22,208.11A107.47,107.47,0,0,1,347.81,237c3.84-4.78,7.71-9.47,11.44-14.29S366.51,213,370.22,208.11Z" transform="translate(0 -2.58)"/>
                  <path class="cls-13" d="M358.21,183.14a57.85,57.85,0,0,1-3.85,12.29,90.93,90.93,0,0,1-6.12,11.43,253.34,253.34,0,0,1-15.39,21,179.75,179.75,0,0,0-15,21.07,75.81,75.81,0,0,0-5.6,11.54,54.47,54.47,0,0,0-3.22,12.39,50.67,50.67,0,0,1,2.61-12.58A75,75,0,0,1,317,248.42a165.33,165.33,0,0,1,14.85-21.36c5.4-6.78,10.82-13.52,15.56-20.7a90.28,90.28,0,0,0,6.4-11.17A63.41,63.41,0,0,0,358.21,183.14Z" transform="translate(0 -2.58)"/>
                  <path class="cls-13" d="M348.49,174.64c-1.59,2.61-3.3,5.16-4.94,7.72s-3.52,5-5.31,7.52c-3.6,5-7.42,9.78-11.31,14.55s-8,9.36-12.25,13.84q-3.18,3.36-6.44,6.64c-2.18,2.19-4.42,4.32-6.69,6.4l6.18-6.82q3.12-3.41,6.19-6.86c4.07-4.61,8.1-9.24,12-14s7.76-9.49,11.53-14.35c1.9-2.39,3.71-4.78,5.59-7.29Z" transform="translate(0 -2.58)"/>
                </g>
              </g>
            </g>
            <path class="cls-7" d="M402.05,103.44a15.67,15.67,0,0,1-2,11l-4.26,8a6.08,6.08,0,0,0-.77,3.36h0a1.5,1.5,0,0,1-1.23,1.62l-10.33,2.06a2,2,0,0,1-2.35-1.43h0a12.65,12.65,0,0,1,1.48-9.44l4.43-7.62a7.13,7.13,0,0,0,1.24-4.85q-1.08-4.78-6.12-3.8c-2.8.55-4.17,2-4.11,4.42a1.89,1.89,0,0,1-1.55,1.88l-10,2a2,2,0,0,1-2.35-1.44l0-.16a14.88,14.88,0,0,1,3.19-11.46,20,20,0,0,1,12.23-6.86,21.07,21.07,0,0,1,14,1.57A15.86,15.86,0,0,1,402.05,103.44ZM399,138.25a7,7,0,0,1-1.17,5.74,7.87,7.87,0,0,1-5.12,3.31,8.21,8.21,0,0,1-6.12-1.09,7.37,7.37,0,0,1-3.55-4.78,7,7,0,0,1,1.16-5.73,7.87,7.87,0,0,1,5.13-3.36,8.34,8.34,0,0,1,6.13,1.09A7.41,7.41,0,0,1,399,138.25Z" transform="translate(0 -2.58)"/>
            <path class="cls-8" d="M428.92,116.55a9.89,9.89,0,0,1-4.79,4.78L419.26,124a3.86,3.86,0,0,0-1.55,1.42h0a1,1,0,0,1-1.23.42l-5.79-2.15a1.08,1.08,0,0,1-.66-1.41v0h0a8,8,0,0,1,4-4.24l4.82-2.4a4.54,4.54,0,0,0,2.32-2,2.46,2.46,0,0,0-.92-3.44,2.29,2.29,0,0,0-.75-.29,2.71,2.71,0,0,0-3.57.94,1.25,1.25,0,0,1-1.42.45L409,109.17a1.07,1.07,0,0,1-.67-1.38l.06-.14a9.6,9.6,0,0,1,5.56-4.64,12.38,12.38,0,0,1,8.38.37,11.56,11.56,0,0,1,6.35,5A8.7,8.7,0,0,1,428.92,116.55Zm-13.61,16.14a4.54,4.54,0,0,1-2.57,2.46,5,5,0,0,1-3.71.06,4.5,4.5,0,0,1-2.63-2.39,4.08,4.08,0,0,1-.06-3.45,4.49,4.49,0,0,1,2.56-2.46,5,5,0,0,1,3.72,0,4.45,4.45,0,0,1,2.62,2.39,4.13,4.13,0,0,1,0,3.39Z" transform="translate(0 -2.58)"/>
            <path class="cls-8" d="M358.24,118.85a9.52,9.52,0,0,1,2.86,6l.74,5.21a3.69,3.69,0,0,0,.81,1.89h0a.85.85,0,0,1,0,1.2l-4.32,4.2a1.28,1.28,0,0,1-1.65,0h0a7.64,7.64,0,0,1-2.59-5.06l-.52-5.09a4.31,4.31,0,0,0-1.09-2.76,2.83,2.83,0,0,0-3.88-.44,2.68,2.68,0,0,0-.45.44,2.35,2.35,0,0,0-.52,3.35l.06.07a1,1,0,0,1-.1,1.4l-4.18,4.07a1.28,1.28,0,0,1-1.73,0,8.83,8.83,0,0,1-2.48-6.58,10.63,10.63,0,0,1,3.57-7.18,12,12,0,0,1,7.42-3.59A10.23,10.23,0,0,1,358.24,118.85ZM369,136.79a4.24,4.24,0,0,1,1.45,3.15,4.15,4.15,0,0,1-1.34,3.21,5.07,5.07,0,0,1-6.79.11,4.33,4.33,0,0,1-.23-6.26l.11-.1a5.06,5.06,0,0,1,6.8-.11Z" transform="translate(0 -2.58)"/>
            <g>
              <ellipse class="cls-12" cx="349.61" cy="141.04" rx="3.29" ry="3.09"/>
              <path class="cls-13" d="M337.79,151.59a1.6,1.6,0,0,1-1.59,1.64,1.59,1.59,0,1,1-.1-3.18h.06A1.59,1.59,0,0,1,337.79,151.59Z" transform="translate(0 -2.58)"/>
            </g>
            <g>
              <ellipse class="cls-12" cx="445.88" cy="118.54" rx="3.29" ry="3.09"/>
              <path class="cls-13" d="M434.07,129.11a1.65,1.65,0,1,1-1.68-1.56h0a1.59,1.59,0,0,1,1.65,1.52Z" transform="translate(0 -2.58)"/>
            </g>
            <g>
              <ellipse class="cls-12" cx="351.98" cy="92.35" rx="3.29" ry="3.09"/>
              <path class="cls-13" d="M354.14,106.86a1.63,1.63,0,0,1-1.6,1.64,1.59,1.59,0,1,1-.1-3.18h.05a1.6,1.6,0,0,1,1.65,1.54Z" transform="translate(0 -2.58)"/>
            </g>
            <g>
              <path class="cls-9" d="M433.31,114.47a18.54,18.54,0,0,1,2.64-2.82,31.17,31.17,0,0,1,3-2.39,29.52,29.52,0,0,1,3.25-2,18.84,18.84,0,0,1,3.6-1.56,19.56,19.56,0,0,1-2.64,2.82,33,33,0,0,1-3,2.39,28.39,28.39,0,0,1-3.25,2A18.59,18.59,0,0,1,433.31,114.47Z" transform="translate(0 -2.58)"/>
              <path class="cls-9" d="M430.15,106.37a6.49,6.49,0,0,1,1-2,10.8,10.8,0,0,1,3.08-3,7.11,7.11,0,0,1,2.12-.95,6.54,6.54,0,0,1-1,2A10.32,10.32,0,0,1,434,104.1a10,10,0,0,1-1.71,1.33A6.79,6.79,0,0,1,430.15,106.37Z" transform="translate(0 -2.58)"/>
              <path class="cls-9" d="M407.83,101.42a16.59,16.59,0,0,1,.91-3.59,26.33,26.33,0,0,1,1.43-3.27,25.47,25.47,0,0,1,1.83-3.1,16.87,16.87,0,0,1,2.36-2.84,16,16,0,0,1-.92,3.53,27.65,27.65,0,0,1-3.26,6.38A18.11,18.11,0,0,1,407.83,101.42Z" transform="translate(0 -2.58)"/>
              <path class="cls-9" d="M405.07,95.17a4.34,4.34,0,0,1-.29-1.74,5.5,5.5,0,0,1,.28-1.56,4.81,4.81,0,0,1,.7-1.44A4.17,4.17,0,0,1,407,89.16a4.33,4.33,0,0,1,.28,1.74,5.16,5.16,0,0,1-.27,1.56,6,6,0,0,1-.7,1.44A4.83,4.83,0,0,1,405.07,95.17Z" transform="translate(0 -2.58)"/>
              <path class="cls-9" d="M334,105.12a9.74,9.74,0,0,1,2.92.92,14,14,0,0,1,4.71,3.57,8.7,8.7,0,0,1,1.63,2.53,15,15,0,0,1-2.73-1.33,27.47,27.47,0,0,1-2.38-1.6q-1.14-.87-2.19-1.83A15,15,0,0,1,334,105.12Z" transform="translate(0 -2.58)"/>
              <path class="cls-9" d="M331.87,112.35a6.93,6.93,0,0,1,2.27.16,9.71,9.71,0,0,1,3.9,1.71,6.2,6.2,0,0,1,1.62,1.57,7.16,7.16,0,0,1-2.35-.2,9.69,9.69,0,0,1-2-.65,9.93,9.93,0,0,1-1.84-1.07A6.1,6.1,0,0,1,331.87,112.35Z" transform="translate(0 -2.58)"/>
              <path class="cls-9" d="M319.5,141.18a26.67,26.67,0,0,1,4.54-.72c1.51-.13,3-.17,4.52-.16s3,.12,4.53.29a25.73,25.73,0,0,1,4.52.85,26.82,26.82,0,0,1-4.54.72c-1.51.13-3,.16-4.53.15A40.5,40.5,0,0,1,324,142,28.69,28.69,0,0,1,319.5,141.18Z" transform="translate(0 -2.58)"/>
              <path class="cls-9" d="M329.83,135.64a8.32,8.32,0,0,1,2.57-.5,12.1,12.1,0,0,1,5,.8,7.72,7.72,0,0,1,2.25,1.28,9.67,9.67,0,0,1-2.57.25,17.17,17.17,0,0,1-4.85-.78A9.93,9.93,0,0,1,329.83,135.64Z" transform="translate(0 -2.58)"/>
            </g>
          </g>
        </g>
      </g>
      <g class="cls-17">
        <g>
          <ellipse class="cls-5" cx="173.1" cy="420.84" rx="97.6" ry="91.45"/>
          <g>
            <g>
              <path class="cls-13" d="M221.89,389.05a216.53,216.53,0,0,0-42.26-15.36,357.44,357.44,0,0,0-50.28-8.62s26.8,18.74,44.87,22.25S221.89,389.05,221.89,389.05Z" transform="translate(0 -2.58)"/>
              <g>
                <path class="cls-10" d="M192.83,445.87l-41.66-63.82-26.72-8.12s-7.08,12.51-9.43,19.64a143.09,143.09,0,0,0-4.09,18.16,21.76,21.76,0,0,0-7.93,7,27.28,27.28,0,0,0-4.55,11.89l9.89,2.83s-.66,42.33,36,35.64L167,506.9l45.13-29.36Z" transform="translate(0 -2.58)"/>
                <path class="cls-7" d="M221.89,389.05a32,32,0,0,1,4.25,20.27c-.07.56-.28,1.2-.86,1.32a1.27,1.27,0,0,1-.86-.27,5.4,5.4,0,0,1-2.47-4,33.89,33.89,0,0,1-2.66,18.68,84.26,84.26,0,0,1-9.9,16.62,37,37,0,0,0-4.66,7.53,11,11,0,0,0-.31,8.52,4.57,4.57,0,0,1-3.86-1.75c1,1.28,2,3.3.62,4.26-.91.64-2.18.26-3.23-.16a33.2,33.2,0,0,1-8-4A26.13,26.13,0,0,1,183,447.2,84.42,84.42,0,0,1,174.43,423c-4-.45-8.5-.73-12.51-1.2a139.42,139.42,0,0,1,.72-14.73c-39.59-6.24-36.64-27.26-37.59-30.31a35.16,35.16,0,0,0-5.68,6.33l-.15.2c-2.32-3.29-1.85-7.83.38-11.17a20.38,20.38,0,0,1,9.8-7.1s15.39,10.68,45.44,17.12S221.89,389.05,221.89,389.05Z" transform="translate(0 -2.58)"/>
                <path class="cls-7" d="M144.17,469.25a65.89,65.89,0,0,0,22.1-17.37,73.34,73.34,0,0,1-17.84,24.24" transform="translate(0 -2.58)"/>
                <path class="cls-13" d="M255.87,526.69s-35-50.64-46.71-54.52-35.77,13.22-51.58,25.31-34.3,32.63-34.3,32.63Z" transform="translate(0 -2.58)"/>
                <ellipse class="cls-14" cx="131.32" cy="426.96" rx="6.47" ry="10.88" transform="matrix(0.08, -1, 1, 0.08, -305.02, 520.01)"/>
                <path class="cls-7" d="M116.39,410.47c0,2.24,1.23,4,2.75,4s2.76-1.81,2.76-4-1.23-4-2.76-4S116.39,408.25,116.39,410.47Z" transform="translate(0 -2.58)"/>
                <path class="cls-7" d="M139.26,405.93c-9.06-1.66-24.88-10.25-24.88-10.25s1.24-3.92,2-5.53A72.06,72.06,0,0,0,139.26,405.93Z" transform="translate(0 -2.58)"/>
                <path class="cls-7" d="M222.57,389.65c1.42,4.58,3.08,9.47,7.1,12.38,2.47,1.81,5.68,2.63,8.54,3.94a20.72,20.72,0,0,1,10.62,10.48,14.88,14.88,0,0,1-1.38,14.18c4.64-1.5,10,1.64,11.74,6s.63,9.23-1.61,13.33c5.05-1.58,10.92,1.39,13.12,5.92s1.12,10.09-1.91,14.2-7.74,6.91-12.7,8.71a3.74,3.74,0,0,1,2.27,3.76,8.72,8.72,0,0,1-1.78,4.25A35.53,35.53,0,0,1,235,501.13c-2.4.52-5.68.36-6.36-1.87a3,3,0,0,1-.45,3.72,9.39,9.39,0,0,1-3.65,2.09,46.62,46.62,0,0,1-13.25,3.47,19.38,19.38,0,0,1-13-3.32c-3.59-2.7-5.62-7.41-4.21-11.52a16.77,16.77,0,0,1-15.64-.07,14.67,14.67,0,0,1-7.64-12.77c0-3.28,1.93-7,5.39-7.49-4.34-.35-7.42-4.5-7.95-8.55a15.51,15.51,0,0,1,10-16,7.77,7.77,0,0,1-3.22-10,15.26,15.26,0,0,1,2.4-3.15c14-15.38,26.91-34.75,44.47-46.54" transform="translate(0 -2.58)"/>
                <g>
                  <path class="cls-10" d="M194.47,417.48A19.86,19.86,0,0,1,186.32,432a11.5,11.5,0,0,1-5,2.27c-4.19.61-8.3-2.39-9.89-6s-1.24-7.86-.3-11.74c1.24-5,3.95-10.39,9.17-12C188.67,402,194.92,410.51,194.47,417.48Z" transform="translate(0 -2.58)"/>
                  <path class="cls-10" d="M175.89,429.82a10.31,10.31,0,0,0,4.54-3.28,1.75,1.75,0,0,0,.48-1c.07-.69-.55-1.25-1.12-1.69l-3.45-2.73a1.6,1.6,0,0,1-.57-.64,1.45,1.45,0,0,1,0-.92c.86-3.85,1.93-8,5.19-10.5a6.18,6.18,0,0,1,3.06-1.3,5.81,5.81,0,0,1,4.51,1.76,13.92,13.92,0,0,1,2.71,4s1.61,8-3.94,13.3S175.89,429.82,175.89,429.82Z" transform="translate(0 -2.58)"/>
                  <path class="cls-7" d="M191.27,413.51a16.21,16.21,0,0,0-3.22-3.7,5.21,5.21,0,0,0-4.14-1.19,6.73,6.73,0,0,0-3.53,2.39,12.85,12.85,0,0,0-2.19,4,39.57,39.57,0,0,0-1.33,4.64,1.18,1.18,0,0,0-.09.37h0a7.31,7.31,0,0,0,.78.68c.64.54,1.24,1.1,1.92,1.65l.95.84a4.57,4.57,0,0,1,1,1.2,1.86,1.86,0,0,1,0,1.8,5.12,5.12,0,0,1-.92,1.1,9.72,9.72,0,0,1-4.59,2.47,11.37,11.37,0,0,0,3.71-3.17,4.67,4.67,0,0,0,.57-.92.49.49,0,0,0-.12-.55,11.36,11.36,0,0,0-1.78-1.39c-.69-.48-1.39-1-2.06-1.49a7.38,7.38,0,0,1-1.15-.94,1.89,1.89,0,0,1-.44-1.2,3.9,3.9,0,0,1,.12-.75,36.93,36.93,0,0,1,1.31-4.93,14.24,14.24,0,0,1,2.69-4.64,10.49,10.49,0,0,1,2.14-1.79,6.59,6.59,0,0,1,2.76-1,6.31,6.31,0,0,1,5.19,2.07A11.86,11.86,0,0,1,191.27,413.51Z" transform="translate(0 -2.58)"/>
                </g>
                <path class="cls-7" d="M110.05,441.73a55.68,55.68,0,0,1,13.84,6.35,54.3,54.3,0,0,0-14.52-2.87Z" transform="translate(0 -2.58)"/>
                <path class="cls-2" d="M118.86,417.74s-5.39,9.13-.41,9.13S118.86,417.74,118.86,417.74Z" transform="translate(0 -2.58)"/>
              </g>
            </g>
            <g>
              <ellipse class="cls-12" cx="226.84" cy="380.36" rx="3.29" ry="3.09"/>
              <path class="cls-13" d="M238.64,390.93a1.61,1.61,0,0,0,1.59,1.64,1.64,1.64,0,0,0,1.7-1.55,1.61,1.61,0,0,0-1.6-1.63h-.05a1.6,1.6,0,0,0-1.64,1.55Z" transform="translate(0 -2.58)"/>
            </g>
            <g>
              <ellipse class="cls-12" cx="150.38" cy="315.96" rx="3.29" ry="3.09"/>
              <path class="cls-13" d="M137.37,333.18a1.6,1.6,0,0,0,1.58,1.65,1.59,1.59,0,1,0,.12-3.18H139A1.59,1.59,0,0,0,137.37,333.18Z" transform="translate(0 -2.58)"/>
            </g>
            <g>
              <path class="cls-12" d="M208.08,323.41a3.29,3.29,0,1,0,3.39-3.08h-.1a3.19,3.19,0,0,0-3.29,3.08Z" transform="translate(0 -2.58)"/>
              <path class="cls-13" d="M209.21,335.35A1.61,1.61,0,0,0,210.8,337a1.64,1.64,0,0,0,1.7-1.55,1.62,1.62,0,0,0-1.6-1.63h-.05a1.58,1.58,0,0,0-1.64,1.54Z" transform="translate(0 -2.58)"/>
            </g>
            <g>
              <path class="cls-13" d="M136.59,379.11a40.23,40.23,0,0,0,17.5,14.51,42.54,42.54,0,0,0,11.14,3.12,40.66,40.66,0,0,0,5.84.42,44.47,44.47,0,0,0,5.88-.31,35,35,0,0,1-5.86.89,39.65,39.65,0,0,1-6-.09,37.69,37.69,0,0,1-11.56-2.94,36,36,0,0,1-9.9-6.44,39.52,39.52,0,0,1-4-4.3A32.17,32.17,0,0,1,136.59,379.11Z" transform="translate(0 -2.58)"/>
              <path class="cls-13" d="M154.79,382.91a110.66,110.66,0,0,0,14.47,6.3,103.34,103.34,0,0,0,15.22,4.13,105.94,105.94,0,0,0,15.68,1.93l4,.14h4l4-.14,4-.28c-1.32.22-2.63.41-3.95.6l-4,.41-4,.19h-4a95.3,95.3,0,0,1-15.9-1.67,92.41,92.41,0,0,1-15.32-4.47A79.6,79.6,0,0,1,154.79,382.91Z" transform="translate(0 -2.58)"/>
              <path class="cls-13" d="M212.14,404.78a28.93,28.93,0,0,1,7.35.93,19.21,19.21,0,0,1,6.79,3.09,11,11,0,0,1,2.6,2.71,7.71,7.71,0,0,1,1.23,3.59,7.34,7.34,0,0,1-.7,3.74,6,6,0,0,1-2.75,2.81l-.18-1a15.65,15.65,0,0,1,6,1.85,11.34,11.34,0,0,1,4.52,4.35,9,9,0,0,1,.88,6.14,7.91,7.91,0,0,1-3.53,5.14l-.25-1a9.21,9.21,0,0,1,5.62,2.47,8.28,8.28,0,0,1,2.73,5.27,7.77,7.77,0,0,1-1.79,5.55,8.59,8.59,0,0,1-5,3.09,8.65,8.65,0,0,0,4.65-3.3,7.14,7.14,0,0,0-1.22-10,8.58,8.58,0,0,0-5.07-2.07l-1.64-.08,1.38-.86a6.87,6.87,0,0,0,3-4.5,7.85,7.85,0,0,0-.83-5.37,10.79,10.79,0,0,0-4.06-3.9,14.76,14.76,0,0,0-5.54-1.77l-1.93-.21,1.73-.82a5.57,5.57,0,0,0,2.91-5.5,8,8,0,0,0-3.28-5.78,20.31,20.31,0,0,0-6.42-3.23A31.38,31.38,0,0,0,212.14,404.78Z" transform="translate(0 -2.58)"/>
              <path class="cls-13" d="M208,433.55a33,33,0,0,1,7.14,1.77,15.58,15.58,0,0,1,6.19,4,9.93,9.93,0,0,1,2.47,6.86,8.69,8.69,0,0,1-1,3.59,7,7,0,0,1-2.71,2.75l-.09-1a10.46,10.46,0,0,1,6.67,6.81,9.77,9.77,0,0,1-2.25,9.13l-.3-.89a11.72,11.72,0,0,1,9,10,10.3,10.3,0,0,1-1.77,6.62,11.29,11.29,0,0,1-5.32,4.33,10.44,10.44,0,0,0-2.15-19.89l-.9-.22.61-.67a8.65,8.65,0,0,0,1.91-8.1,9.37,9.37,0,0,0-5.86-6.1l-1.24-.41,1.09-.58a6.44,6.44,0,0,0,3.19-5.49,9.08,9.08,0,0,0-2.05-6.31,16,16,0,0,0-5.74-4.11A37.86,37.86,0,0,0,208,433.55Z" transform="translate(0 -2.58)"/>
              <path class="cls-13" d="M195,446.15a10.22,10.22,0,0,1,7.5,9.28,9.51,9.51,0,0,1-2,6,11.16,11.16,0,0,1-5.26,3.84l-.25-1.11a4.3,4.3,0,0,1,4,2,5.09,5.09,0,0,1,.7,4.2,7.37,7.37,0,0,1-2.36,3.46,14.19,14.19,0,0,1-3.49,2.2l-.07-.89A3.39,3.39,0,0,1,196,478.3a5.05,5.05,0,0,1-1.54,3.44,7.8,7.8,0,0,1-6.94,2.14,7.79,7.79,0,0,0,6.47-2.53,4.4,4.4,0,0,0,1.23-3A2.48,2.48,0,0,0,193.5,476l-1.18-.3,1.1-.59a15.71,15.71,0,0,0,3.21-2.13,6.31,6.31,0,0,0,2-3,3.92,3.92,0,0,0-.61-3.25,3.16,3.16,0,0,0-2.81-1.51l-5.52.55,5.27-1.67a9.84,9.84,0,0,0,6.76-8.77A10.18,10.18,0,0,0,195,446.15Z" transform="translate(0 -2.58)"/>
            </g>
            <polygon class="cls-18" points="188.58 348.18 180.48 361.91 176.21 355.87 186.79 357.38 191.82 358.08 189.55 361.5 178.28 378.38 184.04 359.08 186.79 363.21 176.21 364.72 170.31 365.57 171.94 358.68 175.61 343.29 188.58 348.18"/>
            <polygon class="cls-18" points="238.48 360.53 234.46 367.36 232.33 364.36 237.6 365.1 240.1 365.46 238.96 367.17 233.36 375.55 236.23 365.96 237.6 368.02 232.33 368.76 229.4 369.18 230.2 365.76 232.02 358.09 238.48 360.53"/>
            <polygon class="cls-18" points="135.81 342.27 131.49 349.78 129.76 347.42 135.02 348.01 137.03 348.23 136.15 349.64 130.78 358.16 133.89 348.7 135.02 350.32 129.76 350.9 127.32 351.17 128.01 348.55 129.77 341.92 135.81 342.27"/>
            <polygon class="cls-18" points="219.98 360.53 215.95 367.36 213.83 364.36 219.09 365.1 221.6 365.46 220.47 367.17 214.86 375.55 217.73 365.96 219.09 368.02 213.83 368.76 210.89 369.18 211.71 365.76 213.52 358.09 219.98 360.53"/>
            <path class="cls-13" d="M218.91,351.69H140.55a8.52,8.52,0,0,1,2.11-8,11.37,11.37,0,0,1,8.82-3.27,13.91,13.91,0,0,1,4.1-12.34c3.31-3.42,9-3.9,14-3.59,1.88-3.67,6.82-6.52,11.14-6.83a13.14,13.14,0,0,1,9.75,3.65c2.55,2.39,2.73,3.94,3.5,7.24A14.1,14.1,0,0,1,201,329a10.5,10.5,0,0,1,3.24,1.95,14.75,14.75,0,0,1,5.22,8.93,10.66,10.66,0,0,1,6.93,3.59A12.3,12.3,0,0,1,218.91,351.69Z" transform="translate(0 -2.58)"/>
            <path class="cls-7" d="M251.26,363.78H196.61a6,6,0,0,1,1.48-5.6,7.87,7.87,0,0,1,6.18-2.28,9.66,9.66,0,0,1,2.85-8.6c2.31-2.39,6.32-2.73,9.74-2.49a10.14,10.14,0,0,1,7.77-4.78,9.21,9.21,0,0,1,6.81,2.54c1.77,1.68,1.9,2.75,2.47,5.05a9.89,9.89,0,0,1,5,.31,6.93,6.93,0,0,1,2.26,1.36,10.18,10.18,0,0,1,3.64,6.22,7.46,7.46,0,0,1,4.84,2.5A8.5,8.5,0,0,1,251.26,363.78Z" transform="translate(0 -2.58)"/>
            <path class="cls-19" d="M164,344.58H119.82a4.82,4.82,0,0,1,1.24-4.52,6.41,6.41,0,0,1,5-1.84,7.84,7.84,0,0,1,2.31-7c1.87-1.93,5.1-2.2,7.87-2a8.11,8.11,0,0,1,6.27-3.84,7.37,7.37,0,0,1,5.5,2.05c1.44,1.35,1.54,2.22,2,4.09a7.72,7.72,0,0,1,4,.24,5.65,5.65,0,0,1,1.82,1.1,8.27,8.27,0,0,1,2.92,5,6,6,0,0,1,3.91,2A6.94,6.94,0,0,1,164,344.58Z" transform="translate(0 -2.58)"/>
          </g>
        </g>
      </g>
      <g class="cls-20">
        <g>
          <ellipse class="cls-4" cx="399.44" cy="410.41" rx="97.6" ry="91.45"/>
          <path class="cls-5" d="M347.52,373.23a216.5,216.5,0,0,1,42.26-15.35,355.88,355.88,0,0,1,50.27-8.63S413.26,368,395.18,371.5,347.52,373.23,347.52,373.23Z" transform="translate(0 -2.58)"/>
          <g>
            <ellipse class="cls-21" cx="332.67" cy="353.7" rx="3.29" ry="3.09"/>
            <path class="cls-21" d="M435.64,327a3.29,3.29,0,1,0,3.39-3.08h-.1a3.19,3.19,0,0,0-3.29,3.08Z" transform="translate(0 -2.58)"/>
            <ellipse class="cls-21" cx="334.43" cy="336.35" rx="3.29" ry="3.09"/>
            <path class="cls-7" d="M344.47,364.26a1.65,1.65,0,0,0,3.29.12,1.6,1.6,0,0,0-1.58-1.65h-.06A1.6,1.6,0,0,0,344.47,364.26Z" transform="translate(0 -2.58)"/>
            <path class="cls-7" d="M428.91,315.27a1.61,1.61,0,0,0,1.58,1.65,1.59,1.59,0,1,0,.12-3.18h-.06A1.59,1.59,0,0,0,428.91,315.27Z" transform="translate(0 -2.58)"/>
            <path class="cls-7" d="M436,342.24a1.62,1.62,0,0,0,1.6,1.64,1.64,1.64,0,0,0,1.69-1.55,1.61,1.61,0,0,0-1.6-1.63h0a1.59,1.59,0,0,0-1.65,1.54Z" transform="translate(0 -2.58)"/>
          </g>
          <path class="cls-7" d="M440.05,349.25a49.61,49.61,0,0,0,13.39,1.84c6.19-.24,14.3-4.38,14.3-4.38s-2.23,13.16-7,17.27c5.3-.67,10.43-3.19,13-7.62a26.35,26.35,0,0,1,1.49,8.47,16.27,16.27,0,0,1-6.81,11.85,28.4,28.4,0,0,1-13.61,5.07" transform="translate(0 -2.58)"/>
          <path class="cls-10" d="M376.58,430.06l41.65-63.83,26.72-8.1s7.08,12.55,9.39,19.64A112.69,112.69,0,0,1,458.05,393l9.9,16.61a4.36,4.36,0,0,1-1.73,6.05,4,4,0,0,1-.74.32L461,417.66s-1.11,23-1.88,26.49c-.89,4.05-2.72,8.37-6.69,10.2a16.33,16.33,0,0,1-6.19,1.09A80.63,80.63,0,0,1,425,453.3l-22.58,37.78-45.14-29.36Z" transform="translate(0 -2.58)"/>
          <path class="cls-7" d="M347.52,373.23c-8.56,14.59.13,30.11,2.61,36a84.27,84.27,0,0,0,9.89,16.6,37.44,37.44,0,0,1,4.67,7.54,11.07,11.07,0,0,1,.31,8.51,4.53,4.53,0,0,0,3.86-1.74c-1,1.28-2,3.3-.63,4.27.9.63,2.19.25,3.23-.16a33.11,33.11,0,0,0,8-4,26.19,26.19,0,0,0,6.94-8.92,85.11,85.11,0,0,0,8.6-24.17c4-.45-11.92,12.58,8,3.07s16.44-21.1,15.85-25.94c2.93-.12,29.69-19.27,31.25-17a2.25,2.25,0,0,0,.15.19c2.31-3.28,1.84-7.82-.38-11.16a20.51,20.51,0,0,0-9.8-7.11s-15.37,10.66-45.4,17.12S347.52,373.23,347.52,373.23Z" transform="translate(0 -2.58)"/>
          <g>
            <path class="cls-10" d="M384.06,401.07a19.84,19.84,0,0,0,8.16,14.51,11.41,11.41,0,0,0,5,2.27c4.19.61,8.3-2.33,9.9-6s1.23-7.87.28-11.75c-1.24-5-3.94-10.38-9.17-12C389.86,385.59,383.63,394.1,384.06,401.07Z" transform="translate(0 -2.58)"/>
            <path class="cls-10" d="M402.64,413.41a10.43,10.43,0,0,1-4.54-3.27,2,2,0,0,1-.48-1,2.43,2.43,0,0,1,1.13-1.71l3.45-2.71a1.7,1.7,0,0,0,.57-.65,1.57,1.57,0,0,0,0-.91c-.88-3.86-1.94-8-5.21-10.51a6.09,6.09,0,0,0-3.06-1.3,5.91,5.91,0,0,0-4.51,1.76,14.32,14.32,0,0,0-2.71,4s-1.6,8,4,13.3S402.64,413.41,402.64,413.41Z" transform="translate(0 -2.58)"/>
            <path class="cls-7" d="M387.27,397.1a12.34,12.34,0,0,1,2.47-4.5,6.31,6.31,0,0,1,5.2-2.06,6.82,6.82,0,0,1,2.76,1,10.28,10.28,0,0,1,2.14,1.81,14,14,0,0,1,2.68,4.62,37.07,37.07,0,0,1,1.31,4.94,4.09,4.09,0,0,1,.09.85,1.9,1.9,0,0,1-.45,1.2,7.61,7.61,0,0,1-1.15,1c-.67.5-1.36,1-2.05,1.48a10.4,10.4,0,0,0-1.78,1.39.53.53,0,0,0-.13.55,4.11,4.11,0,0,0,.59.9,11,11,0,0,0,3.71,3.19,9.68,9.68,0,0,1-4.58-2.47,4.85,4.85,0,0,1-.92-1.1,1.9,1.9,0,0,1,0-1.82,4.19,4.19,0,0,1,1-1.19l1-.84c.63-.56,1.23-1.11,1.91-1.65a8.32,8.32,0,0,0,.77-.68h0a2.22,2.22,0,0,0-.09-.37,41.61,41.61,0,0,0-1.33-4.64,13,13,0,0,0-2.18-4,6.86,6.86,0,0,0-3.54-2.45,5.21,5.21,0,0,0-4.14,1.19A16.13,16.13,0,0,0,387.27,397.1Z" transform="translate(0 -2.58)"/>
          </g>
          <g>
            <path class="cls-13" d="M372.19,379.59a30.69,30.69,0,0,1-1.51,5.48,29.39,29.39,0,0,1-2.61,5.16,4.71,4.71,0,0,1-2.48,2,2,2,0,0,1-1.94-.48,2.88,2.88,0,0,1-.62-1.64,23.21,23.21,0,0,1,0-5.77l1.24.25a11.89,11.89,0,0,1-4.24,6,3.11,3.11,0,0,1-2,.81,1.24,1.24,0,0,1-1.09-.93,5.57,5.57,0,0,1,0-1,11.19,11.19,0,0,1,.63-3.58l.65.31a13.81,13.81,0,0,1-2.48,2.53,5.34,5.34,0,0,1-3.29,1.29,5.69,5.69,0,0,0,3-1.59,18.73,18.73,0,0,0,2.15-2.65.38.38,0,0,1,.52-.07.36.36,0,0,1,.14.37h0a10.12,10.12,0,0,0-.37,3.33,6.36,6.36,0,0,0,.08.75c.08.15.09.13.2.14a1.22,1.22,0,0,0,.55-.17,5.75,5.75,0,0,0,.64-.46,11.07,11.07,0,0,0,3.71-5.45.65.65,0,0,1,.8-.41.59.59,0,0,1,.46.67,24.09,24.09,0,0,0,0,5.5c.09,1,.27,1.3,1,1.19a4,4,0,0,0,2-1.48,30.35,30.35,0,0,0,2.83-4.78A40.83,40.83,0,0,0,372.19,379.59Z" transform="translate(0 -2.58)"/>
            <path class="cls-13" d="M364.16,402.3a21.06,21.06,0,0,1,1.8,3.46,20.63,20.63,0,0,1,1.17,3.75,3,3,0,0,1-.33,2.29,1.58,1.58,0,0,1-1.37.72,2.62,2.62,0,0,1-1.24-.48,8.23,8.23,0,0,1-2.71-3.15l1.07-.49a6.28,6.28,0,0,1,.57,2,3.59,3.59,0,0,1-.42,2.15A2.6,2.6,0,0,1,361,413.9a2.11,2.11,0,0,1-2-.5,2.11,2.11,0,0,0,1.85.1,2.23,2.23,0,0,0,1.16-1.2,4.1,4.1,0,0,0-.51-3.37.57.57,0,0,1,.27-.77.59.59,0,0,1,.78.23h0A8.06,8.06,0,0,0,365,411a1.42,1.42,0,0,0,.55.27c.09,0,.15,0,.28-.16a2.19,2.19,0,0,0,.21-1.44c-.19-1.2-.45-2.47-.74-3.69S364.57,403.52,364.16,402.3Z" transform="translate(0 -2.58)"/>
            <path class="cls-13" d="M381.41,421.64a10.6,10.6,0,0,1-1.53,7,3,3,0,0,1-1.77,1.29,2.6,2.6,0,0,1-1.24,0,1.94,1.94,0,0,1-1.05-.77,6,6,0,0,1-.69-1.86,6.4,6.4,0,0,1-.11-1.9h0a.56.56,0,0,1,.59-.53h0a.58.58,0,0,1,.54.56,7.36,7.36,0,0,1-.17,1.81,3,3,0,0,1-1,1.67,2.13,2.13,0,0,1-1.92.47,2.53,2.53,0,0,1-1.41-1.2,2.83,2.83,0,0,0,1.48.72,1.62,1.62,0,0,0,1.31-.59,3.79,3.79,0,0,0,.55-2.91h1.15a7.87,7.87,0,0,0,.2,1.6,4.84,4.84,0,0,0,.54,1.41.82.82,0,0,0,.92.31,2,2,0,0,0,1.1-.76,13.67,13.67,0,0,0,1.58-3A16.26,16.26,0,0,0,381.41,421.64Z" transform="translate(0 -2.58)"/>
            <path class="cls-13" d="M411.13,370a17.61,17.61,0,0,1-2.57,5.26,20.88,20.88,0,0,1-4.16,4.29,18,18,0,0,1-2.55,1.66,5.32,5.32,0,0,1-1.54.63,2.08,2.08,0,0,1-2.73-2.09,13,13,0,0,1,0-1.53,9.71,9.71,0,0,1,.65-3h0a.63.63,0,0,1,.8-.37h0a.62.62,0,0,1,.41.73,8.66,8.66,0,0,1-1.82,3.47,9.84,9.84,0,0,1-3.1,2.39,8.16,8.16,0,0,1-3.89.85,3.46,3.46,0,0,1-1.05-.27,3.76,3.76,0,0,1-.47-.3,1.29,1.29,0,0,1-.37-.58,3,3,0,0,1,.45-2l.4.38a24.71,24.71,0,0,1-2.38,1,8.38,8.38,0,0,1-2.48.52,9.57,9.57,0,0,0,2.4-.81,25.16,25.16,0,0,0,2.24-1.19.29.29,0,0,1,.4.07.27.27,0,0,1,0,.26h0a2.83,2.83,0,0,0-.26,1.54.49.49,0,0,0,.14.18,2,2,0,0,0,.32.18,2.57,2.57,0,0,0,.78.15,7.55,7.55,0,0,0,3.32-1,8.39,8.39,0,0,0,4.18-5.19l1.23.34a9.69,9.69,0,0,0-.55,2.66c0,.85,0,2,.33,2.25a2.56,2.56,0,0,0,2.12-.32,23.81,23.81,0,0,0,2.47-1.49,19.93,19.93,0,0,0,4.27-3.87A21.32,21.32,0,0,0,411.13,370Z" transform="translate(0 -2.58)"/>
            <path class="cls-13" d="M435,356.09a4.78,4.78,0,0,1,.58,3,4.3,4.3,0,0,1-1.6,2.78,4.35,4.35,0,0,1-3.26,1,3.88,3.88,0,0,1-2.93-1.86l1.23-.15a5.44,5.44,0,0,1-1.49,2.47,7.36,7.36,0,0,1-2.4,1.52,10.89,10.89,0,0,1-2.69.65,17.5,17.5,0,0,1-2.71.07c.88-.21,1.75-.37,2.59-.63a13.58,13.58,0,0,0,2.38-.95,5.77,5.77,0,0,0,3.07-3.43.62.62,0,0,1,.74-.46h0a.64.64,0,0,1,.41.29h0a2.8,2.8,0,0,0,2,1.26,3.38,3.38,0,0,0,2.47-.58,4,4,0,0,0,1.59-2.1A5.26,5.26,0,0,0,435,356.09Z" transform="translate(0 -2.58)"/>
          </g>
          <path class="cls-7" d="M425.23,453.43a65.65,65.65,0,0,1-22.09-17.38,73.12,73.12,0,0,0,17.8,24.25" transform="translate(0 -2.58)"/>
          <path class="cls-5" d="M313.53,510.86s35-50.64,46.72-54.51,35.76,13.23,51.57,25.31,34.31,32.62,34.31,32.62Z" transform="translate(0 -2.58)"/>
          <path class="cls-14" d="M427.24,412.12c.37,3.59,5.52,6,11.49,5.47s10.55-3.85,10.18-7.41-5.5-6-11.49-5.47S426.88,408.57,427.24,412.12Z" transform="translate(0 -2.58)"/>
          <path class="cls-7" d="M462.08,414.82c-2,.94-3.85,1.7-5.7,2.6l-.68.33-.23-.7a6.89,6.89,0,0,1,1-6.3,12,12,0,0,0,.29,5.92l-.92-.38A14.8,14.8,0,0,1,462.08,414.82Z" transform="translate(0 -2.58)"/>
          <path class="cls-7" d="M453.7,394.79c0,2-1.24,3.71-2.86,3.71s-2.87-1.66-2.87-3.71,1.24-3.71,2.87-3.71S453.7,392.75,453.7,394.79Z" transform="translate(0 -2.58)"/>
          <path class="cls-7" d="M460.2,432.49c-2.19.21-4.46.6-6.69,1s-4.45.82-6.65,1.41c2.05-1,4.19-1.77,6.32-2.56s4.28-1.54,6.56-2.18Z" transform="translate(0 -2.58)"/>
          <path class="cls-7" d="M456.32,384.39a18.92,18.92,0,0,1-10,4.58,46.86,46.86,0,0,1-11.29.13A29.19,29.19,0,0,0,454.57,378,29.6,29.6,0,0,1,456.32,384.39Z" transform="translate(0 -2.58)"/>
          <path class="cls-19" d="M393,311.48a47.21,47.21,0,0,0-27.77,9,22,22,0,0,0-5.58,5.6c-4,6.17-2.15,14.79,3.44,19.76s14.17,6.35,21.56,4.34a31.75,31.75,0,0,0,17.66-13.16,17.9,17.9,0,0,0,3.58-10.13c-.14-7.18-7.42-13.07-15.08-13.38S376,317.72,372,323.8a16.54,16.54,0,0,0-3.08,9.72,10.52,10.52,0,0,0,5,8.69c3.37,1.93,7.67,1.69,11.48.73A33.92,33.92,0,0,0,403.14,332c2.82-3.34,4.95-7.74,3.55-11.8-1.68-4.92-8.22-7.29-13.61-6.08s-9.61,5.1-12.77,9.35c-3.32,4.47-5.85,9.91-4.78,15.28,1.36,6.87,8.66,11.83,16.08,12.31s14.72-2.83,20.2-7.58a20.44,20.44,0,0,0,6-7.85,10.19,10.19,0,0,0-.8-9.36,12.59,12.59,0,0,0-7.16-4.55A20.35,20.35,0,0,0,387.9,330,17.67,17.67,0,0,0,391.25,352a20.81,20.81,0,0,0,23.51,2.25,20.48,20.48,0,0,0,8.31-9.63c2.3-5.48,2-12.2-2-16.74-3.81-4.29-10.33-5.89-16.21-5s-11.13,4-15.55,7.72c-7.2,6.1-12.7,14.73-12.16,23.82.19,3,1.32,6.32,4.21,7.65a8.62,8.62,0,0,0,6.81-.26,14.63,14.63,0,0,0,8.12-17.44c-2.06-6.67-8.84-11.55-16.15-12.57s-15,1.64-19.35,7.11S356,352.45,360.32,358s13.18,7.51,19.44,4a18.26,18.26,0,0,0,5.14-4.44c4.83-5.8,6.77-14.6,1.92-20.33a21.38,21.38,0,0,0-7.64-5.19c-4.8-2.17-10.78-3.71-15.28-1-4.95,2.95-5.52,9.83-2.84,14.67a10.3,10.3,0,0,0,15.74,3.77,20.4,20.4,0,0,0,5.81-6.7c5.13-8.66,6.92-18.81,12.38-27.27a11.83,11.83,0,0,1,3.71-4c3.83-2.25,8.87-.75,12.86,1.2,6.54,3.22,12.81,8.13,14.38,14.89a17.79,17.79,0,0,1-3,13.78,35.43,35.43,0,0,1-11,9.95c-6.33,4-13.71,6.86-21.31,6.61s-15.37-4.16-18.35-10.76a20.51,20.51,0,0,1-1.24-11.11c1.13-8.51,12.76-23,12.58-21.66s-14.84,7.72-20.48,13.08c-4.27,4-8.66,9.17-7.49,14.72.73,3.35,3.39,6,6.19,8.14A44.21,44.21,0,0,0,402.78,356c5.46-2.07,10.6-5.43,13.32-10.31,3.26-5.84,2.48-13.23-1.1-18.88s-9.81-9.56-16.53-11.55A52.26,52.26,0,0,0,377.6,314c6.09-1.67,12.24-3.36,18.56-3.68s13,.87,18,4.44a21.67,21.67,0,0,1,8.66,20c-.83,7.48-5.07,14.35-10.89,19.58a26.57,26.57,0,0,1-22.33,7.07c-15.17-1.65-28.92-13.16-31-27.32a20.92,20.92,0,0,1,1.69-12.32c3.81-7.69,13.26-11.77,22.27-12.2A29.5,29.5,0,0,1,396.51,312a17,17,0,0,1,9.12,9.85c1.38,4.51.23,9.37-1.72,13.68a43.1,43.1,0,0,1-24.41,22.19,35.43,35.43,0,0,1-17.16,2.05,23,23,0,0,1-14.75-8.05,17.41,17.41,0,0,1-2-18c2.56-5.34,7.86-9.26,13.74-11.23A42.67,42.67,0,0,1,377.88,321" transform="translate(0 -2.58)"/>
        </g>
      </g>
    </g>
  </g>
</svg>
