<svg xmlns="http://www.w3.org/2000/svg" width="659.587" height="665.795" viewBox="0 0 659.587 665.795">
  <g id="Group_3" data-name="Group 3" transform="translate(-27.644 -291.379)">
    <g id="Group_5" data-name="Group 5">
      <path id="Path_23" data-name="Path 23" d="M329.793,0c182.14,0,329.793,145.074,329.793,324.032S511.933,648.065,329.793,648.065,0,502.991,0,324.032,147.654,0,329.793,0Z" transform="translate(27.644 291.379)" fill="#9ea5b4"/>
      <path id="Path_1" data-name="Path 1" d="M219.7,566.208,165.461,618.2,125.577,723.047l64.5-3.659s14.733-1.045,21.114-10.972S219.7,566.208,219.7,566.208Z" fill="#eebd8d"/>
      <rect id="Rectangle_3" data-name="Rectangle 3" width="327.571" height="408.596" rx="4" transform="translate(198.432 428.006)" fill="#68a0bd"/>
      <rect id="Rectangle_4" data-name="Rectangle 4" width="286.921" height="372.713" transform="translate(223.441 442.989)" fill="#eaeaea"/>
      <path id="Path_2" data-name="Path 2" d="M132.928,703.721,90.478,804.73h72.855L195.619,718.4,133.6,701.948" fill="#eebd8d"/>
      <rect id="Rectangle_5" data-name="Rectangle 5" width="285.028" height="366.796" transform="translate(219.703 448.907)" fill="#fff"/>
      <rect id="Rectangle_6" data-name="Rectangle 6" width="124.439" height="29.966" transform="translate(299.998 428.006)" fill="#eaeaea"/>
      <rect id="Rectangle_7" data-name="Rectangle 7" width="192.508" height="42.496" transform="translate(289.19 510.91)" fill="#eaeaea"/>
      <rect id="Rectangle_8" data-name="Rectangle 8" width="43.252" height="42.496" transform="translate(236.366 510.91)" fill="#eaeaea"/>
      <rect id="Rectangle_9" data-name="Rectangle 9" width="192.508" height="42.496" transform="translate(289.19 563.16)" fill="#eaeaea"/>
      <rect id="Rectangle_10" data-name="Rectangle 10" width="43.252" height="42.496" transform="translate(236.366 563.16)" fill="#eaeaea"/>
      <rect id="Rectangle_11" data-name="Rectangle 11" width="192.508" height="42.496" transform="translate(289.19 613.411)" fill="#eaeaea"/>
      <rect id="Rectangle_12" data-name="Rectangle 12" width="43.252" height="42.496" transform="translate(236.366 615.411)" fill="#eaeaea"/>
      <rect id="Rectangle_13" data-name="Rectangle 13" width="192.508" height="42.498" transform="translate(289.19 667.66)" fill="#eaeaea"/>
      <rect id="Rectangle_14" data-name="Rectangle 14" width="43.252" height="42.498" transform="translate(236.366 667.66)" fill="#eaeaea"/>
      <rect id="Rectangle_15" data-name="Rectangle 15" width="192.508" height="42.496" transform="translate(289.19 719.912)" fill="#eaeaea"/>
      <rect id="Rectangle_16" data-name="Rectangle 16" width="43.252" height="42.496" transform="translate(236.366 719.912)" fill="#eaeaea"/>
      <path id="Path_3" data-name="Path 3" d="M273.952,523.654l-3.565-3.5-15.511,15.241-9.28-9.118-3.565,3.5,9.281,9.117-.028.028,3.565,3.5.028-.027.027.027,3.565-3.5-.027-.028Z" fill="#78ba43"/>
      <path id="Path_4" data-name="Path 4" d="M273.952,578.343l-3.565-3.5-15.511,15.241-9.28-9.118-3.565,3.5,9.281,9.117-.028.028,3.565,3.5.028-.027.027.027,3.565-3.5-.027-.028Z" fill="#78ba43"/>
      <path id="Path_5" data-name="Path 5" d="M273.952,629.025l-3.565-3.5-15.511,15.241-9.28-9.118-3.565,3.5,9.281,9.116-.028.027,3.565,3.5.028-.025.027.025,3.565-3.5-.027-.027Z" fill="#78ba43"/>
      <path id="Path_6" data-name="Path 6" d="M266.638,693.013l-4.178-4.105,7.77-7.634-3.564-3.5L258.9,685.4l-7.769-7.634-3.565,3.5,7.77,7.634-4.178,4.105-3.563,3.5-.028.028,3.565,3.5.027-.028.028.028,3.565-3.5-.028-.028,4.178-4.1,4.177,4.1-.028.028,3.565,3.5.028-.028.027.028,3.564-3.5-.027-.028Z" fill="#ef4b41"/>
      <path id="Path_7" data-name="Path 7" d="M266.638,745.263l-4.178-4.1,7.77-7.634-3.564-3.5-7.769,7.634-7.769-7.634-3.565,3.5,7.77,7.634-4.178,4.1-3.563,3.5-.028.028,3.565,3.5.027-.025.028.025,3.565-3.5-.028-.028,4.178-4.1,4.177,4.1-.028.028,3.565,3.5.028-.025.027.025,3.564-3.5-.027-.028Z" fill="#ef4b41"/>
      <path id="Path_8" data-name="Path 8" d="M198.432,677.771s4.609-8.02,21.271-41.112,0-39.546,0-39.546l-44.936,52.433-48.1,69.444S198.432,733.5,198.432,677.771Z" fill="#fcc897"/>
      <path id="Path_9" data-name="Path 9" d="M159.429,718.99H126.669L90.478,804.73h32.76Z" fill="#fcc897"/>
      <path id="Path_10" data-name="Path 10" d="M138.391,907.971H33.627l73.645-168.409h88.348Z" fill="#78ba43"/>
      <path id="Path_11" data-name="Path 11" d="M197.29,727.635h-78.35l-4.318,11.926h78.349Z" fill="#fcf28f"/>
      <path id="Path_12" data-name="Path 12" d="M377.41,639.028l88.308,32.817,48.927,100.406-64.5-3.659s-14.732-1.046-21.115-10.973c-4.852-7.547-26.908-63.712-39.722-94.258,0,0-13.687-6.884-15.8-12.567C371.245,644.748,377.41,639.028,377.41,639.028Z" fill="#fcc897"/>
      <path id="Path_13" data-name="Path 13" d="M361.607,490.529a22.55,22.55,0,0,1-22.459-19.37h-39.09V452.212l46.3-.377a22.923,22.923,0,0,1,30.22-.248L424.5,451.2v19.954H384.064A22.55,22.55,0,0,1,361.607,490.529Zm-55.683-25.134h38.9v2.881a16.784,16.784,0,0,0,33.563,0V465.4h40.244v-8.381l-44.391.355-.865-.839a16.969,16.969,0,0,0-23.734.2l-.852.852-42.865.349Z" fill="#eaeaea"/>
      <path id="Path_14" data-name="Path 14" d="M504.731,483h-34.7v-34.1Z" fill="#eaeaea"/>
      <path id="Path_15" data-name="Path 15" d="M389.3,663.361l46.435,16.169,17.981,40.382-46,2.84Z" fill="#deaf84"/>
      <path id="Path_16" data-name="Path 16" d="M570.166,691.111l-4.314,23.969-203.63-35.408-13.955-10.362-8.009-5.948,9.736-2.845,16.541-4.825.071.011Z" fill="#ef4b41"/>
      <path id="Path_17" data-name="Path 17" d="M569.157,698.536l-1.988,9.225L362.222,672.353l.21-9.733Z" fill="#fff" opacity="0.2"/>
      <path id="Path_18" data-name="Path 18" d="M446.667,772.251l-20.378-9.843L377.41,669.924s17.922-6.563,31.61,14.941l19.746,29.243,12.349,2.872,7.83-22.229,17.751,32.8Z" fill="#fcc897"/>
      <path id="Path_19" data-name="Path 19" d="M440.464,766.055l5.377,14.167,72.1-1.681-9.243-18.5Z" fill="#fcc897"/>
      <path id="Path_20" data-name="Path 20" d="M501.831,957.174H606.6L532.95,788.765H444.6Z" fill="#78ba43"/>
      <path id="Path_21" data-name="Path 21" d="M442.931,776.838h78.35l4.318,11.926h-78.35Z" fill="#fcf28f"/>
      <path id="Path_22" data-name="Path 22" d="M366.607,655.7l-4.385,23.969-13.955-10.362,1.728-8.793,16.541-4.825Z" fill="#fcc897"/>
    </g>
  </g>
</svg>
