<svg id="Layer_1" data-name="Layer 1" xmlns="http://www.w3.org/2000/svg" xmlns:xlink="http://www.w3.org/1999/xlink" viewBox="0 0 1646.19 1113.04"><defs><style>.cls-1{fill:none;}.cls-2{opacity:0.2;}.cls-3{fill:#371a45;}.cls-4{fill:#fff;}.cls-5{isolation:isolate;}.cls-6{fill:#22a7f0;}.cls-7{opacity:0.35;}.cls-8{opacity:0.25;}.cls-9{fill:#00bdff;}.cls-10{fill:#0f0b56;}.cls-11{opacity:0.5;}.cls-12{opacity:0.7;}.cls-13{fill:#111a28;}.cls-14{clip-path:url(#clip-path);}.cls-15{fill:#5ce205;}.cls-16{fill:#54a520;}.cls-17{opacity:0.4;}.cls-18{opacity:0.6;}.cls-19{font-size:356.96px;fill:#1b1464;stroke:#1b1464;stroke-miterlimit:10;stroke-width:21px;font-family:Comfortaa-Bold, Comfortaa;font-weight:700;}.cls-20{letter-spacing:-0.04em;}.cls-21{letter-spacing:-0.02em;}</style><clipPath id="clip-path" transform="translate(-218.31 80.54)"><ellipse class="cls-1" cx="617.76" cy="225.54" rx="200.47" ry="201.74"/></clipPath></defs><g class="cls-2"><ellipse class="cls-3" cx="203.15" cy="1062.52" rx="197.68" ry="48.02"/></g><rect class="cls-4" x="280.24" y="740.21" width="282.83" height="221.26" rx="79" transform="translate(625.01 1782.22) rotate(-180)"/><path class="cls-3" d="M532.62,967.37H310.69a36.48,36.48,0,0,1-36.32-36.54v-160a36.48,36.48,0,0,1,36.32-36.55H532.62a36.48,36.48,0,0,1,36.32,36.55v160A36.48,36.48,0,0,1,532.62,967.37ZM310.69,746.11a24.69,24.69,0,0,0-24.58,24.74v160a24.69,24.69,0,0,0,24.58,24.73H532.62a24.69,24.69,0,0,0,24.58-24.73v-160a24.69,24.69,0,0,0-24.58-24.74Z" transform="translate(-218.31 80.54)"/><g class="cls-5"><path class="cls-4" d="M270.12,949.8c41.64,56.83,140.7,55,168.66,55a77.43,77.43,0,0,0,11.94-.88c18.63-2.93,24.9-12.16,24.9-12.16s62.94-7.45,93.5-47.66c17.36-22.86,16.28-43.76,12.12-57.54a56.22,56.22,0,0,0-8.08-16.82s41.32-.93,69.08-31.68,24.08-98.74,8.34-109a40.73,40.73,0,0,0-31.48-5.59s-4.62-18.64-21.29-10.25-10.18,36.33-10.18,36.33a41.07,41.07,0,0,0-2.86,14.77,57.37,57.37,0,0,0,2.86,18.76c-31.09,16.09-46,2.18-63.5-11.52-.73-.58-1.48-1.16-2.23-1.73-7.1-5.45-17.22-11.35-29.68-16.57a196.59,196.59,0,0,0-75-14.88c-111.73,0-151.73,57.75-156.35,88.5s16.66,36.32,16.66,36.32-.54.34-1.46,1C268.23,869.71,232.82,898.94,270.12,949.8Z" transform="translate(-218.31 80.54)"/></g><path class="cls-3" d="M432.79,1009.94c-34.72,0-126.23-1.69-166.81-57.07-14.12-19.27-19.88-37.82-17.1-55.13,2.65-16.46,12.55-27.83,19.23-33.81-7-5.21-15.6-16.17-12.33-37.86,1.16-7.75,7.5-34.92,40-59.16,29.63-22.06,71.61-33.73,121.4-33.73,48.28,0,88.24,17.51,107.8,32.5,1.67,1.28,3.31,2.58,4.93,3.86,15.28,12.05,27.51,21.69,51.55,10.77-1.62-6.53-3.59-19.11.81-31.24-1.22-6.7-4.45-31.62,13.22-40.5,7.85-4,13.69-2.84,17.21-1.22,5,2.33,8,6.78,9.64,10.22a46.27,46.27,0,0,1,31,7.12c9,5.87,12.34,22.12,13.53,31.28,3.51,27.2-1.58,64.18-20.86,85.53-21.49,23.8-50.25,30.63-64.33,32.58,6.52,13.1,15.39,41.64-8.51,73.12-28.74,37.81-83.47,47.69-94.93,49.38-3.14,3.36-11.07,9.94-26.76,12.41a83.83,83.83,0,0,1-12.73.94h-6ZM417.21,743.52c-101.71,0-146.2,50.29-151.28,84.1-3.89,25.84,12.72,30.51,12.88,30.55a5.18,5.18,0,0,1,1.42,9.39c-.05,0-.5.32-1.26.84-3.92,2.79-17.12,13.38-20,31-2.32,14.47,2.8,30.39,15.23,47.34h0c38.9,53.09,131.52,52.95,161.93,52.87h2.6a72,72,0,0,0,11.15-.83c15.85-2.49,21.27-9.72,21.49-10a5,5,0,0,1,3.59-2.15c.61-.07,61.18-7.71,90-45.67,27.65-36.4,5-66.78,4.07-68.06a5.2,5.2,0,0,1-.58-5.39,5.15,5.15,0,0,1,4.52-2.94c.38,0,39.51-1.32,65.39-30,17-18.79,21.38-53.21,18.27-77.23-1.88-14.61-6-22-8.92-23.94a35.38,35.38,0,0,0-27.27-5,5.13,5.13,0,0,1-6.4-3.71c-.44-1.67-2.33-6.42-5.71-8-2.14-1-4.93-.61-8.3,1.08-12.82,6.45-7.53,30.31-7.47,30.55a5.17,5.17,0,0,1-.26,3.13c-5.65,13.82,0,29.62.07,29.78a5.17,5.17,0,0,1-2.47,6.38c-32.44,16.78-49.69,3.18-66.37-10-1.59-1.25-3.19-2.51-4.82-3.76C500.5,759.89,462.93,743.52,417.21,743.52Z" transform="translate(-218.31 80.54)"/><g class="cls-5"><rect class="cls-4" x="294.77" y="857.9" width="246.57" height="41.61" rx="14.86" transform="translate(617.81 1837.94) rotate(-180)"/></g><path class="cls-3" d="M520.67,903.93H315.44a25.23,25.23,0,0,1,0-50.46H520.67a25.23,25.23,0,0,1,0,50.46Zm-205.23-41.6a16.37,16.37,0,0,0,0,32.74H520.67a16.37,16.37,0,0,0,0-32.74Z" transform="translate(-218.31 80.54)"/><path class="cls-3" d="M334.12,801.53l-6.46,20a5.94,5.94,0,1,1-11.29-3.68,6.45,6.45,0,0,1,.79-1.6l12.06-17.22a2.77,2.77,0,0,1,3.86-.68A2.8,2.8,0,0,1,334.12,801.53Z" transform="translate(-218.31 80.54)"/><path class="cls-4" d="M352.21,853.26v58.58c0,10.87,8.51,19.76,18.9,19.76H474.34c10.4,0,18.9-8.89,18.9-19.76V853.26c0-10.86-8.5-19.75-18.9-19.75H371.11A19.08,19.08,0,0,0,353.18,847,20.75,20.75,0,0,0,352.21,853.26Z" transform="translate(-218.31 80.54)"/><path class="cls-3" d="M473.82,936H371.64a23.94,23.94,0,0,1-23.83-24v-59a23.93,23.93,0,0,1,23.83-24H473.82a23.93,23.93,0,0,1,23.83,24v59A23.94,23.94,0,0,1,473.82,936Zm-102.18-98.1a15.1,15.1,0,0,0-15,15.13v59a15.1,15.1,0,0,0,15,15.13H473.82a15.1,15.1,0,0,0,15-15.13v-59a15.1,15.1,0,0,0-15-15.13Z" transform="translate(-218.31 80.54)"/><ellipse class="cls-6" cx="167.85" cy="963.1" rx="16.3" ry="17.04"/><path class="cls-4" d="M369.85,882.56a17.93,17.93,0,0,0,.32,3.38,16.18,16.18,0,0,1,32,0,17.93,17.93,0,0,0,.32-3.38c0-9.41-7.3-17-16.3-17S369.85,873.15,369.85,882.56Z" transform="translate(-218.31 80.54)"/><g class="cls-7"><path class="cls-3" d="M369.86,882.55c0,9.41,7.3,17,16.3,17s16.3-7.62,16.3-17a17.92,17.92,0,0,0-.59-4.56,16.13,16.13,0,0,1-31.42,0A17.92,17.92,0,0,0,369.86,882.55Z" transform="translate(-218.31 80.54)"/></g><path class="cls-3" d="M386.16,904c-11.42,0-20.7-9.63-20.7-21.47s9.28-21.46,20.7-21.46,20.7,9.63,20.7,21.46S397.57,904,386.16,904Zm0-34.07c-6.56,0-11.9,5.65-11.9,12.6s5.34,12.61,11.9,12.61,11.9-5.66,11.9-12.61S392.72,870,386.16,870Z" transform="translate(-218.31 80.54)"/><path class="cls-3" d="M432.35,936a4.42,4.42,0,0,1-4.4-4.43v-30a28.59,28.59,0,0,1,10.7-22.36l2.63-2.07a19.64,19.64,0,0,0,7.32-15.38V833.51a4.4,4.4,0,1,1,8.8,0V861.8a28.59,28.59,0,0,1-10.7,22.36l-2.62,2.07a19.61,19.61,0,0,0-7.32,15.38v30A4.42,4.42,0,0,1,432.35,936Z" transform="translate(-218.31 80.54)"/><g class="cls-5"><path class="cls-4" d="M305.29,815.2s32.4,7,54.15,28.41,32.88,50.41,13.89,61.95c-26.85,16.3-56.62-38.69-97.51-41.24" transform="translate(-218.31 80.54)"/></g><path class="cls-3" d="M305.66,813.43A86.19,86.19,0,0,1,320.85,817a107.84,107.84,0,0,1,14.46,5.82,104.89,104.89,0,0,1,26,17.68,99,99,0,0,1,19.37,25.08,57.48,57.48,0,0,1,5.65,15.41c1.08,5.48,1.16,11.68-1.33,17.47a22.65,22.65,0,0,1-5.36,7.56,26.17,26.17,0,0,1-7.59,4.93,23.38,23.38,0,0,1-9,1.85,28.8,28.8,0,0,1-8.78-1.46,59.91,59.91,0,0,1-14.57-7.55c-4.38-3-8.47-6.14-12.5-9.29-8.05-6.3-15.81-12.66-24.18-17.72s-17.28-8.82-26.49-9.37a4.43,4.43,0,0,1,.52-8.85h0A56.71,56.71,0,0,1,293.14,862a84.38,84.38,0,0,1,14.42,7.11c9,5.51,17.13,12,25,18.37,4,3.16,7.9,6.27,11.92,9a51.33,51.33,0,0,0,12.35,6.61,16.52,16.52,0,0,0,12,0,17.94,17.94,0,0,0,5.18-3.29,14.57,14.57,0,0,0,3.47-4.78c1.67-3.63,1.84-8.15,1-12.64a49.74,49.74,0,0,0-4.67-13.33,91.58,91.58,0,0,0-17.5-23.44,98.5,98.5,0,0,0-24-16.92A221.2,221.2,0,0,0,304.91,817l-.09,0a1.82,1.82,0,0,1-1.09-2.32A1.8,1.8,0,0,1,305.66,813.43Z" transform="translate(-218.31 80.54)"/><g class="cls-5"><path class="cls-4" d="M450.72,931.66v72.22c18.63-2.93,24.9-12.16,24.9-12.16s62.94-7.45,93.5-47.66,9.81-68.52,4-74.36c-19.55-19.8-51.06,2.69-72.32,25.15C480.55,916.27,450.72,931.66,450.72,931.66Z" transform="translate(-218.31 80.54)"/></g><path class="cls-3" d="M450.72,1008.31a4.38,4.38,0,0,1-2.86-1.06,4.46,4.46,0,0,1-1.54-3.37V931.66a4.43,4.43,0,0,1,2.39-3.94c.29-.15,29.43-15.32,49-35.93,12-12.65,35.32-33.91,57.08-34.14h.36a28.82,28.82,0,0,1,21.18,8.92c1.33,1.34,31.94,33.3-3.67,80.18-28.82,37.93-84,47.59-94.74,49.14-2.93,3.16-10.84,9.91-26.47,12.37A5.31,5.31,0,0,1,450.72,1008.31Zm4.4-74v64.15c12.32-3.1,16.69-9,16.9-9.29a4.53,4.53,0,0,1,3.08-1.86c.61-.07,61.48-7.73,90.52-46,31-40.81,5.52-67.44,4.42-68.55a20.3,20.3,0,0,0-15.21-6.31c-13.53.14-32,11.58-50.8,31.39C486.59,916.32,462.73,930.15,455.12,934.32Z" transform="translate(-218.31 80.54)"/><g class="cls-5"><path class="cls-4" d="M270.12,949.8c41.64,56.83,140.7,55,168.66,55a77.43,77.43,0,0,0,11.94-.88c18.63-2.93,24.9-12.16,24.9-12.16,10.64-17.23,4.32-51.22-21.3-59.15a33.23,33.23,0,0,0-3.6-.91c-20.22-4.19-51.68,3.79-62.58-2.35-11.58-6.52-52.46-33-80-53-12.36-9-23.52-11.81-32.06-12.18C268.23,869.71,232.82,898.94,270.12,949.8Z" transform="translate(-218.31 80.54)"/></g><path class="cls-3" d="M432.79,1009.2c-34.62,0-125.85-1.69-166.22-56.77-14-19.1-19.71-37.46-17-54.57,3.42-21.31,19.17-34,23.92-37.33a4.41,4.41,0,0,1,2.73-.81c11.67.52,23.26,4.9,34.43,13,27.94,20.29,68.9,46.68,79.6,52.71,4.63,2.61,16.21,1.9,27.4,1.22,11.71-.71,23.81-1.44,33.92.65a38.73,38.73,0,0,1,4,1c12,3.72,21.26,12.87,26.06,25.77,5.1,13.71,4.18,29.4-2.33,39.95l-.11.16c-.3.44-7.57,10.85-27.85,14a82.4,82.4,0,0,1-12.62.93h-6ZM277.38,868.66c-5,3.85-16.45,14.24-19.08,30.62-2.36,14.66,2.81,30.78,15.36,47.89h0c39.12,53.39,132,53.22,162.52,53.17h2.6A72.23,72.23,0,0,0,450,999.5c15.57-2.44,21.29-9.41,21.92-10.25,5-8.19,5.58-21,1.48-32-3.82-10.27-11.07-17.51-20.41-20.41a32.41,32.41,0,0,0-3.16-.8c-9-1.86-20.51-1.16-31.65-.48-13.6.82-25.35,1.54-32.23-2.35-11.13-6.26-51.79-32.44-80.45-53.25C296.28,873.19,286.81,869.4,277.38,868.66Z" transform="translate(-218.31 80.54)"/><path class="cls-3" d="M280.24,965.16a3.68,3.68,0,0,1-3.48-2.54c-17.41-53.37,33.56-85.77,34.08-86.09a3.65,3.65,0,0,1,5,1.2,3.7,3.7,0,0,1-1.19,5.08c-1.92,1.2-46.55,29.72-31,77.5a3.7,3.7,0,0,1-2.34,4.66A3.55,3.55,0,0,1,280.24,965.16Z" transform="translate(-218.31 80.54)"/><path class="cls-3" d="M549.67,966.69a3.64,3.64,0,0,1-1.84-.5,3.71,3.71,0,0,1-1.33-5.05c4.45-7.71,10.06-31.16-2.23-50.58-13.33-21-30.95-24.45-31.13-24.48a3.69,3.69,0,0,1,1.3-7.27c.85.16,21,4,36,27.78,13,20.51,9.22,46.42,2.4,58.26A3.69,3.69,0,0,1,549.67,966.69Z" transform="translate(-218.31 80.54)"/><path class="cls-3" d="M541.49,868.13l-12.72-6.25a4.4,4.4,0,0,1-2.42-3.31v-.07h0a149.14,149.14,0,0,0-2.59-14.8c-1.11-4.94-2.46-9.83-4-14.64a133.67,133.67,0,0,0-5.47-14.14A107.61,107.61,0,0,0,507,801.66l0-.08a2.37,2.37,0,0,1,.73-3.25,2.34,2.34,0,0,1,3.14.59,112.62,112.62,0,0,1,8.53,13.42,136.07,136.07,0,0,1,6.69,14.39q2.94,7.37,5.2,15a157.51,157.51,0,0,1,3.79,15.58h0l-2.43-3.38,12.72,6.24a4.45,4.45,0,0,1,2,5.93A4.4,4.4,0,0,1,541.49,868.13Z" transform="translate(-218.31 80.54)"/><path class="cls-3" d="M575.12,874a4.35,4.35,0,0,1-3.11-1.3c-33.58-33.89-15.62-82-14.84-84.06a4.39,4.39,0,0,1,5.69-2.53,4.43,4.43,0,0,1,2.52,5.72h0c-.17.45-16.63,44.85,12.86,74.62a4.44,4.44,0,0,1,0,6.26A4.38,4.38,0,0,1,575.12,874Z" transform="translate(-218.31 80.54)"/><path class="cls-3" d="M592.35,781a10.2,10.2,0,0,0,.33,1c.14.38.32.77.48,1.16.35.78.72,1.56,1.14,2.33a39.12,39.12,0,0,0,2.8,4.5,41.19,41.19,0,0,0,3.41,4.18,44,44,0,0,0,4,3.77l.1.09a2.85,2.85,0,0,1,.29,4,2.8,2.8,0,0,1-3.5.62,50.06,50.06,0,0,1-5.27-3.32,48.46,48.46,0,0,1-4.88-4,47.26,47.26,0,0,1-4.39-4.65c-.69-.82-1.35-1.69-2-2.58-.32-.46-.64-.9-1-1.39s-.58-.91-1-1.63l-.46-.89a5.31,5.31,0,0,1,2.24-7.16,5.24,5.24,0,0,1,7.11,2.24A5.42,5.42,0,0,1,592.35,781Z" transform="translate(-218.31 80.54)"/><path class="cls-3" d="M601.3,763c-9.42,0-16.06-6.21-18.63-10.29a5.93,5.93,0,0,1,1.83-8.15,5.85,5.85,0,0,1,8.07,1.79,10.55,10.55,0,0,0,12.62,4.14,5.85,5.85,0,0,1,7.45,3.67,5.92,5.92,0,0,1-3.65,7.5A23.52,23.52,0,0,1,601.3,763Z" transform="translate(-218.31 80.54)"/><path class="cls-3" d="M628,908.9a4.33,4.33,0,0,1-2.59-.86c-1.1-.8-26.86-20.17-26.86-52.77,0-10.33,3.38-17.81,7.29-26.47,5.84-12.92,13.11-29,13.11-63.8V391.16a4.4,4.4,0,1,1,8.8,0V765c0,36.71-8,54.49-13.89,67.47-3.64,8-6.5,14.39-6.5,22.8,0,28,23,45.46,23.26,45.63a4.45,4.45,0,0,1,.93,6.19A4.38,4.38,0,0,1,628,908.9Z" transform="translate(-218.31 80.54)"/><g class="cls-5"><path class="cls-4" d="M639.78,791.67s-27.47,2-31.79-26.67c-5.09-33.8,11.11-41.56,11.11-41.56s10.44-3.73,30.09,11.8" transform="translate(-218.31 80.54)"/></g><path class="cls-3" d="M639.91,793.53a27.39,27.39,0,0,1-6.14.46,33.51,33.51,0,0,1-6.11-.78A29.52,29.52,0,0,1,607.91,778a34.71,34.71,0,0,1-2.55-5.89,21,21,0,0,1-.85-3.05l-.72-3.08c-1.32-7.85-2-16-.55-24.3a51.06,51.06,0,0,1,1.46-6.2l1.14-3.06c.41-1,.93-2,1.4-3s1.13-1.94,1.72-2.9a33.62,33.62,0,0,1,2.1-2.73,24.71,24.71,0,0,1,2.49-2.53c.48-.39.91-.79,1.46-1.17.27-.19.51-.37.81-.56l.47-.29.26-.15.39-.2-.38.2a12,12,0,0,1,1.81-.83c.47-.15,1-.31,1.39-.43a26.27,26.27,0,0,1,2.61-.53,28.33,28.33,0,0,1,4.91-.24,44,44,0,0,1,9.12,1.28c1.48.3,2.87.78,4.31,1.16s2.78.93,4.15,1.43,2.7,1.07,4,1.64l3.92,1.81a5.19,5.19,0,0,1,2.52,6.85,5.11,5.11,0,0,1-6.76,2.56l-.2-.09-3.55-1.59-3.58-1.45c-1.19-.44-2.39-.85-3.59-1.26s-2.41-.76-3.6-1a35.18,35.18,0,0,0-7.08-1.06,23.19,23.19,0,0,0-3.26.09c-.5.07-1,.14-1.41.24-.23.05-.4.11-.58.16s-.45.19-.07,0l-.38.2-.12.07-.35.24c-.25.15-.52.4-.78.59a15.46,15.46,0,0,0-1.54,1.5,22.26,22.26,0,0,0-1.41,1.74c-.42.66-.85,1.3-1.24,2s-.75,1.41-1.07,2.14l-.91,2.28a40.58,40.58,0,0,0-1.27,4.88c-1.41,6.68-1.18,14-.25,21.18l.47,2.51a14.4,14.4,0,0,0,.55,2.48,27.09,27.09,0,0,0,1.75,4.66,17.29,17.29,0,0,0,1.13,2.18l1.36,2c.46.67,1.07,1.22,1.59,1.84a11.65,11.65,0,0,0,.83.89l.92.8a29.59,29.59,0,0,0,8.56,5.15,46.81,46.81,0,0,0,10.16,2.69l.19,0a1.87,1.87,0,0,1,.08,3.68Z" transform="translate(-218.31 80.54)"/><g class="cls-8"><path class="cls-3" d="M271.05,951.24c41.14,56.83,139,55,166.61,55a75.4,75.4,0,0,0,11.79-.88c18.41-2.93,24.6-12.16,24.6-12.16s62.17-7.45,92.36-47.66c17.15-22.87,16.08-43.76,12-57.54-10.86,29.86-80.56,111.72-201.26,81.91s-86.87-100.61-86.87-100.61c38.41,14,78.41,52.75,78.41,52.75a111.7,111.7,0,0,0,43.21,10.84c26.48,1.07,67.56-7.2,75.41-31.61a29.74,29.74,0,0,0,1.22-11.73c-18,8.87-33.18,11.64-44,12.47C415.29,904.23,382,895,382,895h0s-4.91,5.61-6.7,6.12c-5.42,1.52-10.55-2.19-14.39-6.68l-.05-.05c-.39-.37-.78-.75-1.16-1.14-10-10.26-15.51-24.72-26.57-33.84-6.76-5.55-15.07-8.66-22.71-12.86s-15.06-10.1-17.69-18.52c-2.79-8.93,1-19.54,8.8-24.51a26.64,26.64,0,0,1,9.09-3,13.66,13.66,0,0,1,10.2-.48c5.42,2,7.11,7.35,3.29,11.76-.22.24-.43.48-.66.69-3.71,3.81-8.27,5.38-1.43,9.18,9.78,5.44,19.77,9.73,29,16.11.94.65,1.88,1.32,2.8,2,.56-19.76,16.93-28.79,16.93-28.79a177.5,177.5,0,0,0,124-19.36,3.5,3.5,0,0,1,4.26.6l0,0a139.42,139.42,0,0,1,34.69,66.26c18.39,5.76,37.77,10.1,56.78,7.17a78.54,78.54,0,0,0,50-30,81.27,81.27,0,0,0,15.73-57c-11.46,5.69-26.08-.18-33.69-10.59s-9.48-24.13-8.95-37.12a13.06,13.06,0,0,1-15.45,5.54,13.46,13.46,0,0,1-8.08-14.52c-4.28,10.29-7,23.35.26,31.69,2.5,2.87,5.89,4.75,8.73,7.28,7.2,6.37,10.29,16.18,13.07,25.47-5.44.45-10.61-2.64-14.65-6.39s-7.38-8.24-11.68-11.69a31.54,31.54,0,0,0-3.92-2.71,57.85,57.85,0,0,0,2.83,18.76c-1.49.79-3,1.5-4.38,2.15a43.78,43.78,0,0,1-.37,8.27c-.78,6.77-3.89,13.52-9.42,17.33s-13,4.25-19.7,2.77c-15.66-3.45-28-15.82-37-29.33-5.94-8.9-10.85-18.52-16.24-27.79l-1.27-.77a4.87,4.87,0,0,1-1.57-.57c-1.27-.58-2.55-1.14-3.87-1.71l-.4-.17a192.25,192.25,0,0,0-74.1-14.88c-110.36,0-149.88,57.74-154.45,88.49s16.46,36.33,16.46,36.33-.52.34-1.43,1C269.19,871.15,234.21,900.38,271.05,951.24Z" transform="translate(-218.31 80.54)"/></g><path class="cls-9" d="M599.24,450.48c0,13.89,11.21,16,25,16,10,0,18.67-1.1,22.64-7a15.56,15.56,0,0,0,2.36-9c0-13.9-11.19-34.35-25-34.35-10.12,0-18.85,11-22.78,22.35A37.25,37.25,0,0,0,599.24,450.48Z" transform="translate(-218.31 80.54)"/><path class="cls-3" d="M624.25,471.14c-8.87,0-29.65,0-29.65-20.66,0-15.72,12.45-39,29.65-39s29.66,23.32,29.66,39C653.91,471.14,633.13,471.14,624.25,471.14Zm0-50.33c-10.09,0-20.35,17.26-20.35,29.67,0,7.49,3.15,11.29,20.35,11.29s20.36-3.8,20.36-11.29C644.61,438.07,634.35,420.81,624.25,420.81Z" transform="translate(-218.31 80.54)"/><g class="cls-2"><path class="cls-10" d="M601.48,438.48c15.24.55,28.5,8.23,41.49,18.46a21.08,21.08,0,0,0,3.93,2.5,15.56,15.56,0,0,0,2.36-9c0-13.9-11.19-34.35-25-34.35C614.14,416.13,605.41,427.13,601.48,438.48Z" transform="translate(-218.31 80.54)"/></g><path class="cls-4" d="M564,654.24h0a3.21,3.21,0,0,1-3.59-2.8l-13.2-94.18a3.26,3.26,0,0,1,2.67-3.73h0c18.12-2.73,35,10.42,37.62,29.36L592,615C594.65,634,582.11,651.51,564,654.24Z" transform="translate(-218.31 80.54)"/><path class="cls-3" d="M563.53,655.33a4.15,4.15,0,0,1-2.47-.83,4.37,4.37,0,0,1-1.7-2.92l-13.2-94.17a4.33,4.33,0,0,1,3.56-4.93,33,33,0,0,1,24.89,6.37,35.8,35.8,0,0,1,13.92,23.89L593,614.86c2.73,19.49-10.23,37.62-28.89,40.43A4.3,4.3,0,0,1,563.53,655.33Zm-8.89-101.1a31.09,31.09,0,0,0-4.61.34,2.21,2.21,0,0,0-1.78,2.55l13.2,94.17a2.24,2.24,0,0,0,.87,1.51,2,2,0,0,0,1.51.39h0c17.52-2.64,29.69-19.7,27.12-38L586.45,583a33.72,33.72,0,0,0-13.1-22.49A31.08,31.08,0,0,0,554.64,554.23Z" transform="translate(-218.31 80.54)"/><g class="cls-8"><path class="cls-3" d="M589.88,600,592,615c2.66,18.94-9.88,36.5-28,39.23a3.2,3.2,0,0,1-3.59-2.8l-3.52-25a3.14,3.14,0,0,0,3.12,1.52l2.14-.33C576.46,625.44,587.3,614,589.88,600Z" transform="translate(-218.31 80.54)"/></g><path class="cls-3" d="M563.52,660.18a8.86,8.86,0,0,1-5.34-1.8,9.2,9.2,0,0,1-3.59-6.12l-13.2-94.17A9.21,9.21,0,0,1,549,547.68,37.78,37.78,0,0,1,577.49,555a40.62,40.62,0,0,1,15.81,27.1l4.5,32.11c3.1,22.11-11.68,42.7-32.94,45.9h0A10.2,10.2,0,0,1,563.52,660.18ZM553.39,559.1l12.44,88.74c13.44-3.49,22.42-17.26,20.35-32l-4.5-32.11a28.88,28.88,0,0,0-11.21-19.28A26.25,26.25,0,0,0,553.39,559.1Z" transform="translate(-218.31 80.54)"/><path class="cls-4" d="M252.53,598.21h0a3.2,3.2,0,0,1,3.59,2.8l13.2,94.17a3.28,3.28,0,0,1-2.67,3.74h0c-18.12,2.72-35-10.43-37.62-29.37l-4.5-32.11C221.87,618.5,234.41,600.93,252.53,598.21Z" transform="translate(-218.31 80.54)"/><path class="cls-3" d="M261.88,700.34a33.12,33.12,0,0,1-20-6.75A35.82,35.82,0,0,1,228,669.7l-4.5-32.11c-2.73-19.49,10.23-37.63,28.89-40.43a4.09,4.09,0,0,1,3.09.79,4.38,4.38,0,0,1,1.7,2.91L270.36,695A4.34,4.34,0,0,1,266.8,700,32.69,32.69,0,0,1,261.88,700.34ZM253,599.24a1.37,1.37,0,0,0-.29,0h0c-17.52,2.63-29.69,19.69-27.12,38l4.5,32.11a33.69,33.69,0,0,0,13.1,22.49,30.91,30.91,0,0,0,23.32,6,2.21,2.21,0,0,0,1.78-2.54l-13.2-94.17a2.25,2.25,0,0,0-.87-1.51A2,2,0,0,0,253,599.24Z" transform="translate(-218.31 80.54)"/><g class="cls-8"><path class="cls-3" d="M265.66,669.05l3.66,26.13a3.28,3.28,0,0,1-2.68,3.74A32.12,32.12,0,0,1,241,691.54a35.08,35.08,0,0,1-12-22L227.14,656a32.76,32.76,0,0,0,32.71,15.65l3.29-.5A3.21,3.21,0,0,0,265.66,669.05Z" transform="translate(-218.31 80.54)"/></g><path class="cls-3" d="M261.87,705.18A37.85,37.85,0,0,1,239,697.47a40.6,40.6,0,0,1-15.81-27.09l-4.5-32.12c-3.1-22.11,11.68-42.7,32.94-45.89a8.8,8.8,0,0,1,6.68,1.7,9.2,9.2,0,0,1,3.59,6.12l13.2,94.17a9.19,9.19,0,0,1-7.62,10.4A38.34,38.34,0,0,1,261.87,705.18ZM250.69,604.6c-13.44,3.5-22.42,17.27-20.35,32l4.5,32.12A28.88,28.88,0,0,0,246.05,688a26.28,26.28,0,0,0,17.08,5.33Z" transform="translate(-218.31 80.54)"/><ellipse class="cls-4" cx="408.28" cy="626.22" rx="155.14" ry="162.13" transform="translate(-237.56 93.53) rotate(-1.78)"/><path class="cls-3" d="M408.53,789.42c-36.48,0-71.6-13.22-99.93-37.84-33-28.66-52.9-69-56.09-113.66-6.41-89.75,58.25-168,144.14-174.47,40.52-3,80,10.24,111.3,37.41,33,28.66,52.91,69,56.1,113.66h0c6.41,89.74-58.25,168-144.14,174.47C416.11,789.27,412.31,789.42,408.53,789.42ZM408,465.15c-3.73,0-7.46.14-11.21.42-84.74,6.37-148.53,83.62-142.2,172.2C257.76,681.84,277.42,721.69,310,750c30.84,26.79,69.83,39.9,109.77,36.89,84.73-6.37,148.52-83.62,142.19-172.2h0c-3.14-44.07-22.81-83.92-55.37-112.21C478.63,478.19,444,465.15,408,465.15Z" transform="translate(-218.31 80.54)"/><g class="cls-7"><path class="cls-3" d="M559.91,592.32A168.62,168.62,0,0,1,563,614.59c6.37,89.31-57.73,166.92-143.17,173.35S259.94,727.16,253.55,637.85c-.18-2.57-.31-5.14-.37-7.68,16.05,77.93,85,133.68,163.19,127.81C499.36,751.73,562.19,678.36,559.91,592.32Z" transform="translate(-218.31 80.54)"/></g><path class="cls-3" d="M408.52,794.26c-37.63,0-73.85-13.63-103.06-39-34-29.51-54.47-71-57.75-117-6.6-92.41,60-173,148.58-179.65,41.79-3.15,82.57,10.56,114.81,38.57,34,29.51,54.47,71.05,57.75,117h0c6.6,92.4-60.05,173-148.58,179.65Q414.38,794.26,408.52,794.26ZM408,470q-5.41,0-10.86.41c-82.09,6.17-143.88,81.1-137.75,167,3.06,42.78,22.14,81.45,53.72,108.89,29.86,26,67.6,38.63,106.26,35.73,82.1-6.17,143.89-81.1,137.75-167h0c-3-42.77-22.13-81.44-53.71-108.88C476.37,482.62,442.84,470,408,470Z" transform="translate(-218.31 80.54)"/><path class="cls-3" d="M562.8,618.78a150.48,150.48,0,0,1-19.28,87.65c-11,19.35-60,55.92-123.85,62.33-59.19,6-115.92-22.15-130.07-39.21a149.17,149.17,0,0,1-33.93-82.8c-7.19-83.64,58.58-124.58,143.39-132.3S555.61,535.14,562.8,618.78Z" transform="translate(-218.31 80.54)"/><g class="cls-11"><ellipse class="cls-4" cx="511.91" cy="611.96" rx="28.68" ry="19.91" transform="translate(-355.41 1156.55) rotate(-85.65)"/></g><g class="cls-11"><ellipse class="cls-4" cx="492.51" cy="670.8" rx="13.14" ry="10.84" transform="translate(-470.98 1121.79) rotate(-80.15)"/></g><g class="cls-12"><path class="cls-13" d="M526.22,543.47c20.38,17,33.68,41.72,36.58,75.31a150.63,150.63,0,0,1-19.27,87.65c-11,19.35-60,55.91-123.86,62.34-22.54,2.27-44.72-.41-64.33-5.54,78.3-9.64,138-54.47,151.62-78.47a190.81,190.81,0,0,0,24.46-111.24A170.24,170.24,0,0,0,526.22,543.47Z" transform="translate(-218.31 80.54)"/></g><path class="cls-3" d="M261.1,578.8a4.41,4.41,0,0,1-3.79-6.66c23.6-44.2,74.27-72.93,139.05-78.83,64.32-5.85,119,12.48,150.14,50.31a4.45,4.45,0,0,1,.31,5.68,4.39,4.39,0,0,1-6.08,1l-.47-.33-.39-.48c-29.22-35.66-81.24-52.91-142.72-47.31-61.83,5.63-110,32.72-132.15,74.31l-.37.59A4.4,4.4,0,0,1,261.1,578.8Z" transform="translate(-218.31 80.54)"/><g class="cls-11"><path class="cls-4" d="M294.43,693.36s-31.87-80.25,7.84-117,100.94-42.19,99.86-38c0,0-66.29,23.32-88,81.73C297.41,665.16,294.43,693.36,294.43,693.36Z" transform="translate(-218.31 80.54)"/></g><path class="cls-9" d="M441,130.4c-1,1.8-1.89,3.61-2.78,5.42-48.07,97.29-10.83,216,85,267.62S737.89,420.25,791.61,326q1.5-2.64,2.93-5.34a201.88,201.88,0,0,0,22.19-70.14C826.57,171.06,788.5,90.13,715,49.12c-.89-.5-1.8-1-2.72-1.49s-1.84-1-2.76-1.46C634.82,7.44,546.82,20.53,486.62,72.88A201.07,201.07,0,0,0,441,130.4Z" transform="translate(-218.31 80.54)"/><g class="cls-14"><path class="cls-15" d="M509.06,334.54a34,34,0,0,1,15.36-24.37c10.75-6.76,13.58-22.17,15.35-33.23,1.43-8.92,7.23-15.72,15.73-9.3,19.55,14.75,49.07-6,55.33-26.55,5.57-22,.89-41.52-9.76-60.67-7.39-13.29-23.59-17.69-36.88-11.61-15.65,7.17-39.06-17.05-41.14-32.49-.24-1.76-.36-4.13.3-5.51,6.64-14,28.07-14.25,34.86-.94,4.39,8.62,13.88,12,22.57,7.64,16-8,20.71-.81,25.62,14.88,1.59,5.05,1.35,14.11,7.63,10.43s11.57-11,8.62-18.27C615.47,126.81,608.84,108,604.78,89c-.26-1.25-1.44-3-2.28-3.06C583,83.33,585.79,58.06,582.36,43.84c-1.2-5-.11-7.27,3.14-9.14s4.76.4,5.92,3.94c2,5.93,3.86,11.88,5.84,17.79,1,3,1.29,7.6,4.63,7.2,3.9-.46,6-5.17,5.92-9.5-.3-12.42-3.17-26.35-10.39-36.59C592,9.78,581.14,4,572.28,9.56c-11,6.94-19.42,6-31.09-.49-4.9-2.71-10.16-5.65-15.38-7.39C517-1.27,510.86-8.65,508.87-17.8a23.72,23.72,0,0,0-18.19-17.86C485-36.91,481.42-40.18,480-47.14c-2.62-12.39-12-22-23.53-26.24-17.14-6.37-31.45-5.8-44.36,6.84-3.52,3.45-7.05,2-10.38,1.15-8.69-2.14-18-3.85-26.24-6.17-6.25-1.76-15.37,1-19.58,5.94-2.84,3.34-6,3.63-9.17,3.09-4.3-.74-8.95-1-13-1.55-9.83-1.43-14.09.49-19.53,9.29-2.3,8.71,3.16,20.59,11.27,23a35.15,35.15,0,0,0,7.92,1.3c7.63.34,8.77,5.21,5.94,14.84C333.2,5,339.2,35.84,361.06,44.19c5.31,2,8.21,4.23,5.47,12.71-1.43,4.45-2.32,9.72-.26,14.41,4.73,10.76,7.1,22.81,3.53,34.13-2.81,8.9,5.56,15.91,13.72,11.4a259.61,259.61,0,0,0,25.81-16.49c6.4-4.62,9.93-3,12.35,5.49,2.09,7.32,5.67,14.8,7.22,21.86,2,9,9.26,15.39,17.6,8.77,9.48-5.7,14.55-7.83,24.09-5.12,3.38,1,7.23-.26,10.59-2.68s7.37-5.18,8.94,1.79c1.47,6.57-3.88,6-6.34,7.92a138.32,138.32,0,0,1-14,9c-8.18,4.92-9.31,13.06-4.3,20.85,4.89,7.61,14.32,14,23.38,8.11,6.09-3.65,12.09-7.5,18.16-11.16,2.87-1.74,5.62-4.88,8,1.75,2.55,7-1.44,7.43-4.1,9.13-10.63,6.8-21.29,13.49-32.14,19.9a20.74,20.74,0,0,0-8.14,26.84c9.48,20,7,41.32-.76,63.28a269,269,0,0,0-7.86,27.21c-4.54,18.48,3.36,46.47,23.64,52.07,8.08,2.06,14.95-3.45,17.5-10.89C505.39,348,507.2,341.17,509.06,334.54Z" transform="translate(-218.31 80.54)"/><path class="cls-15" d="M897.09,218.1c9-17.39,8.09-31.24-11.23-39.39Q843.1,158.55,801.56,136c-4.66-2.53-9.44-5.56-13.8-.43-3.68,4.33-3.59,9.93-2,15.89,2.92,10.58-4.9,13-12.28,16.34-6.22,2.82-12.86-1.22-17.77-6.46-4.31-4.61.38-10,1.42-15,.73-3.46,2.82-7.11.27-10.25s-5.51-.33-7.88,1.23c-4.76,3.12-9.23,3.5-14.33.39-4.46-2.73-9.33-2.72-13,2.44s-3.23,11.53-1.31,17.39c7.8,23.86,16.66,48.1,24.29,71.32,3.28,10,14.1,13.65,22.69,17.55s8.57,13.68,4.59,20.94c-1.64,3-3.44,5.16-6.18,3.95-10.9-4.79-20.34,3-28.63,8.51-6.37,4.2-15,6.69-22.4,2.53-8.83-5-16.2-4.66-25.19.44-7,4-17,10-25.57,7.32-11.18-3.54-18,29.12-16,37.65,5.55,23.35,13.31,48.36,21.34,71.39,4.37,12.51,4.79,25,.41,37.06-2.19,6-4,13.12-5.67,19.81-1,4.14-4.17,9.13-2,12.44,2.66,4.13,6.91,0,10.18-1.82,11-6.25,18.17-18.34,21.69-30.16,2.61-8.76,5.62-17.75,7.68-26.58,4.11-17.58,10.87-36.15,27.37-45.94,15-9.74,21.19-40.72,17.19-56.48-1-4.11-6.17-8.63-2-13.1,4.34-4.65,10.14-10.71,15.77-8.27,11.53,5,24.55-2,33.75-8.72,9-6.56,18-13.17,28-18.32,14.6-7.45,19.1-24.34,24.45-38.15,4.54-11.71,22.09-24.45,34.62-22.47C890.51,199.86,893.2,210.52,897.09,218.1Z" transform="translate(-218.31 80.54)"/><path class="cls-15" d="M251.72,186.8a5.1,5.1,0,0,0-.36,1.06c-.62,5.57-7.06,11.1-2.2,16.18,4.65,4.85,14.09,10,21,6.47,10.47-3,14.56-2.27,23.39,3,7.11,4.23,16.43,4.36,22.21-2.59,6.66-7.53,6.37-18.16,3.36-27.12-4.69-14-17.69-28.77-33.08-28.34S256.66,173.09,251.72,186.8Z" transform="translate(-218.31 80.54)"/><path class="cls-15" d="M706.94,32.3c-3.56-2.1-7.35-4.34-10.71-6.25-7.17-4.08-19.47-15.34-26.43-3.83-10,16.47-12.45,32-6.86,49.36,4.76,14.76,10.61,30.65,15.12,46.25,3.77,13.08,8.87,14.85,17.46,7.77,5-4.08,10.63-7.79,12.73-14.5C711.7,100.09,720,92,730,86.91c5.53-2.82,11.48-7.08,9.9-17.33-1.37-8.85-3-20-11.61-24.71-7-3.84-14.23-8.31-21.35-12.5Z" transform="translate(-218.31 80.54)"/><path class="cls-15" d="M762.88,116.54c6.1,4,11.36,6.84,17.18,4.59a7.8,7.8,0,0,0,5.11-5.86c.78-4.08-2.44-5-4.55-6.3-3.53-2.26-7.21-4.16-10.8-6.33-6.39-3.85-13.73-6-16.16,3.74C751.42,115.36,760.68,112.87,762.88,116.54Z" transform="translate(-218.31 80.54)"/><path class="cls-15" d="M370.14,140.31c-8.86-1-22.11,5.3-26.6,11.86-2.86,4.18,1,6.77,3.18,7.22,6.63,1.36,22.5-6.51,26.61-12.52C374.84,144.67,373.68,141.93,370.14,140.31Z" transform="translate(-218.31 80.54)"/><path class="cls-15" d="M460.51,286.66c1.67-7.61,2.56-17.55-4.5-22.61-5.28-3.78-6.26,4.17-7.45,8.55-2.05,7.54-3.08,17.51,4.28,22.61C458.74,299.3,458.3,290.55,460.51,286.66Z" transform="translate(-218.31 80.54)"/><path class="cls-15" d="M313.7,4.93c-1.64,9.32,6.42,27.37,13.54,29.4,1.87.53,5.17-1.58,4.25-4.11-2.85-8.82-5.12-19.53-12.67-25.2C317.47,4,314.44,2.47,313.7,4.93Z" transform="translate(-218.31 80.54)"/><path class="cls-15" d="M313.51,147.06c2.69,0,7.51,6.67,9.45-1.87,2.07-9.11-3.76-12.62-9.8-14.1-3.22-.79-8-5.84-9.82.38C300.56,139.31,306.13,145.55,313.51,147.06Z" transform="translate(-218.31 80.54)"/><path class="cls-15" d="M230.74,189.65c.37,2.93-5.72,6.75.13,8.47,6.09,1.8,9.43-3.77,11-9.67.91-3.39,5.33-8.72.55-10.35C234.17,175.27,233.58,184.42,230.74,189.65Z" transform="translate(-218.31 80.54)"/><path class="cls-15" d="M621.34,81.81c-1.85,6.37-5.06,15.88,1.75,20.39,4.27,2.84,5.09-4.13,5.88-7.77,1.4-6.47,5.25-16.18-.94-21.18C622.69,68.94,623.91,80.11,621.34,81.81Z" transform="translate(-218.31 80.54)"/><path class="cls-15" d="M339.66,113c-1.8,6.55-3.71,13.16,2.8,15.53,5.2,1.89,4.9-4.92,6.33-8.44,2.48-6.11,1.38-12.13-3-14.48C340.43,102.79,341.4,110.54,339.66,113Z" transform="translate(-218.31 80.54)"/><path class="cls-15" d="M632.51,98.64c-1.11,4.22-.7,7.61,2.77,9.33,2.36,1.18,4.21.46,5.17-2.81,1.19-4.09.5-7.75-2.27-10.08C635.23,92.59,633.65,95.25,632.51,98.64Z" transform="translate(-218.31 80.54)"/><path class="cls-16" d="M484.85,368.46c-23-6.35-30.59-36.87-25.9-55.94A269.15,269.15,0,0,1,466.9,285c8.66-24.48,8.94-43.8.89-60.81a23.92,23.92,0,0,1,9.41-31c11.82-7,23.33-14.26,32-19.83.52-.33,1.08-.63,1.65-.92,2-1,2.32-1.2,1.16-4.39a9.19,9.19,0,0,0-.8-1.73c-.38.21-.89.55-1.27.81l-1.29.84c-2.88,1.73-5.73,3.51-8.59,5.28-3.18,2-6.37,4-9.47,5.82A16.38,16.38,0,0,1,478,181.5c-5.64-1.21-11.32-5.52-15.18-11.52-3.12-4.85-4.2-9.86-3.12-14.5,1-4.4,3.94-8.16,8.47-10.88l2.42-1.45a108.58,108.58,0,0,0,11.24-7.32,12.11,12.11,0,0,1,3.23-1.66c2.36-.9,2.4-.92,1.94-3a6.46,6.46,0,0,0-.65-1.88,16.36,16.36,0,0,0-3.29,2c-4.47,3.22-9.2,4.34-13.33,3.17-8.39-2.39-12.57-.62-21.4,4.68-4,3.13-8.45,4.06-12.46,2.62C431,140,427.23,135,425.77,128.4A91.9,91.9,0,0,0,422,116.55c-1.18-3.21-2.41-6.52-3.35-9.82-1.35-4.73-2.62-5.51-3-5.63s-1.46-.27-4.42,1.87a261,261,0,0,1-26.14,16.7c-4.92,2.72-10.49,2.34-14.52-1s-5.51-8.8-3.8-14.22c2.94-9.31,1.8-20-3.4-31.85-2-4.63-2-10.09.14-16.7s.45-7.17-3.55-8.7C335,37.69,330.14,4,336.2-16.61c1.8-6.13,1.39-8.53.73-9.46s-2.39-1.19-3.73-1.25a38.21,38.21,0,0,1-8.68-1.42c-9.64-2.81-16.31-16.13-13.47-26.88l.13-.47.25-.41c6.05-9.77,11.57-12.39,22.7-10.77,1.7.25,3.51.42,5.42.61,2.53.25,5.15.51,7.7,1,2.84.5,4.52-.05,6.18-2,5-5.86,15.46-9,22.88-7,4.85,1.36,10.21,2.54,15.4,3.69,3.55.78,7.21,1.59,10.75,2.46l1.16.3c3,.81,4.45,1.09,6.21-.63,12.77-12.51,27.93-14.91,47.71-7.55,13.26,4.93,22.82,15.61,25.55,28.59,1.13,5.35,3.53,8,8.28,9A26.91,26.91,0,0,1,512-18.49,22.76,22.76,0,0,0,526.82-1.38c5.42,1.81,10.88,4.83,15.7,7.5l.22.12c11.44,6.34,18.47,6.48,27.84.59,10.44-6.58,23-.36,29.45,8.84,9.06,12.85,10.77,29.56,11,38.38.14,5.67-2.88,12.09-8.76,12.79-5.41.65-6.84-4.9-7.53-7.57-.16-.62-.31-1.25-.5-1.81-1.31-3.89-2.59-7.81-3.86-11.72-.66-2-1.33-4.06-2-6.09a11,11,0,0,0-1-2.32l-.31.16c-1.62.94-2.59,1.5-1.61,5.59a103.06,103.06,0,0,1,1.81,11.6c1.84,15.45,4,26.51,15.63,28.07,2.67.36,4.56,3.54,5,5.58,3.49,16.32,9.11,33.8,17.7,55,3.54,8.72-2.34,17.81-10,22.28-2.4,1.41-4.59,1.67-6.53.79-3.38-1.53-4.22-5.8-5-9.57a31.77,31.77,0,0,0-.8-3.47c-2.53-8.08-5-13.78-8.73-15.39-2.74-1.17-6.8-.38-12.41,2.42-10.1,5.06-21.64,1.17-26.85-9-2.56-5-8.09-8.08-14.4-8-5.1.07-11.65,2.43-14.71,8.85a9.16,9.16,0,0,0,0,3.7c1.23,9.14,11.36,22.19,21.67,27.92,4,2.23,9.86,4.4,15,2.06,15.35-7,33-1.45,41,13,12.2,21.95,15.4,42,10.06,63l0,.15c-4.19,13.76-17.76,27.19-32.26,32-10.37,3.4-20.33,2.06-28-3.77-2.27-1.71-4.2-2.26-5.75-1.63-2.26.92-4.18,4.39-4.89,8.86-2.15,13.39-5.39,28.27-16.81,35.46a30.59,30.59,0,0,0-13.89,22l-1.1,4.1c-1.51,5.47-3.08,11.13-4.91,16.48-2.52,7.34-9.13,13.73-17.58,13.49A17.75,17.75,0,0,1,484.85,368.46Zm37.87-61c9.15-5.76,12-19,13.89-31,1.11-7,4.33-12,8.82-13.82,2.59-1.06,6.78-1.49,12,2.45,7.69,5.8,16.32,4.72,22.21,2.79,12.44-4.07,24.5-15.94,28.1-27.63,4.88-19.34,1.87-37.84-9.46-58.23-6.38-11.47-20.46-15.87-32.76-10.24-6,2.73-13.12,1.93-20.72-2.29-12.23-6.8-23.42-21.47-24.93-32.7-.42-3.16-.23-5.63.58-7.35,3.63-7.6,11.45-12.4,20.42-12.52,8.74-.12,16.51,4.29,20.19,11.51s11.31,9.71,18.29,6.22c7.48-3.75,13.13-4.57,17.77-2.58,6,2.57,9.19,9.32,12.34,19.38a40.56,40.56,0,0,1,1,4.15,22.46,22.46,0,0,0,1.3,4.8,4.62,4.62,0,0,0,.69-.34c4.24-2.48,9.67-8.33,7.27-14.27-8.74-21.55-14.47-39.37-18-56.07a2.52,2.52,0,0,0-.33-.66c-16.73-2.73-18.76-19.81-20.4-33.58a97.6,97.6,0,0,0-1.67-10.85c-1.48-6.16-.09-10,4.65-12.7a6.48,6.48,0,0,1,5.75-.75c2.71,1,4,3.86,4.82,6.47.66,2,1.33,4.07,2,6.11,1.27,3.89,2.54,7.79,3.84,11.67.24.7.44,1.47.64,2.26a17,17,0,0,0,.85,2.71c1.6-.47,2.89-3.23,2.82-6.16-.2-8.08-1.73-23.35-9.81-34.81-4.09-5.81-13.27-11.86-20.82-7.1-13.05,8.21-23.16,5.78-34.33-.4l-.22-.13c-4.81-2.66-9.77-5.4-14.63-7a29.07,29.07,0,0,1-19-21.8A20.53,20.53,0,0,0,490-32.5c-7.22-1.6-11.53-6.17-13.18-14-2.28-10.8-10.32-19.72-21.5-23.88-17.67-6.56-29.93-4.73-41,6.12-4.44,4.35-9.19,3.09-12.33,2.25l-1.05-.28c-3.45-.85-7.08-1.65-10.59-2.42-5.27-1.16-10.73-2.36-15.75-3.78s-12.87.92-16.28,4.93c-3.13,3.69-7.1,5.06-12.15,4.18-2.32-.4-4.82-.65-7.23-.89-1.9-.18-3.87-.38-5.71-.65-8.53-1.23-11.49.08-16.08,7.38-1.61,7.2,3.06,16.79,9.17,18.57a31.32,31.32,0,0,0,7.18,1.17c4,.18,6.94,1.51,8.66,4,2.89,4.08,1.63,10.18.2,15-6,20.58.62,48.62,19.85,56,6.83,2.6,10.7,6.45,7.38,16.72-1.62,5-1.75,9-.38,12.1,5.85,13.31,7.08,25.56,3.66,36.41-.92,2.9-.26,5.62,1.75,7.29s4.75,1.76,7.37.31a253.33,253.33,0,0,0,25.49-16.29c4-2.86,7.32-3.75,10.26-2.72,4.18,1.47,6,6.38,7,10,.88,3.06,2.06,6.26,3.2,9.34A97.22,97.22,0,0,1,432,127c1,4.3,3.3,7.71,6,8.67,2,.71,4.15.12,6.51-1.74l.34-.24c10-6,15.88-8.5,26.6-5.45,2.18.62,5.05-.18,7.86-2.2,2.47-1.78,5.85-4.21,9.34-2.88s4.29,5.28,4.58,6.58c1.69,7.52-3.43,9.5-5.89,10.45a8.69,8.69,0,0,0-1.61.73,113.1,113.1,0,0,1-11.9,7.78l-2.4,1.43c-3,1.82-4.89,4.11-5.51,6.81-.67,2.88.11,6.18,2.26,9.52,3,4.6,7.12,7.86,11.14,8.72a10.09,10.09,0,0,0,7.91-1.63c3.18-1.91,6.34-3.87,9.49-5.83,2.88-1.79,5.76-3.58,8.66-5.33.34-.2.68-.44,1-.67,1.71-1.14,4-2.72,6.81-1.8s4.1,3.79,4.85,5.88c3.1,8.54-1.69,11-4.25,12.34-.39.2-.78.4-1.14.63-8.75,5.59-20.33,12.92-32.24,19.95a17.49,17.49,0,0,0-6.87,22.68c8.84,18.66,8.64,39.55-.63,65.74a258.38,258.38,0,0,0-7.76,26.9c-4,16.15,2.38,42.95,21.31,48.17,6.73,1.72,11.81-3.36,13.67-8.81,1.77-5.17,3.31-10.73,4.81-16.11l.94-3.4A37.16,37.16,0,0,1,522.72,307.44Z" transform="translate(-218.31 80.54)"/><path class="cls-16" d="M664.21,473.29a6.7,6.7,0,0,1-4.24-3.11c-2.41-3.76-.78-8.18.54-11.74a32.41,32.41,0,0,0,1.08-3.25c1.54-6.13,3.45-13.75,5.77-20.13,4-10.93,3.84-22.67-.42-34.88-9-25.78-16.41-50.58-21.44-71.71-1.76-7.39,2.25-31.05,10.66-39,3.62-3.4,7.09-3.25,9.37-2.53,6.86,2.17,15.65-2.84,22.07-6.5l1-.55c10.17-5.77,18.64-5.9,28.34-.44,7.71,4.34,16.54-.75,19.07-2.42.85-.56,1.72-1.15,2.6-1.75,7.89-5.35,17.7-12,29.08-7l.16.06c.15-.08.77-.51,1.92-2.62,2.13-3.87,2.76-8.11,1.69-11.34a8.44,8.44,0,0,0-4.78-5.1l-2.87-1.27c-8.1-3.55-18.18-8-21.55-18.21-3.7-11.24-7.76-23-11.69-34.29-4.22-12.15-8.58-24.72-12.61-37-2.59-7.94-2-14.94,1.75-20.26,4.27-6.08,10.71-7.33,17.24-3.34,3.82,2.33,7,2.24,10.91-.33.31-.2.62-.43.94-.66,1.92-1.37,7-5,11.17.09,3.05,3.75,1.84,7.86,1,10.85-.2.71-.42,1.41-.56,2.11a28.8,28.8,0,0,1-1.66,4.87c-1.7,4.15-2,5.69-.56,7.23,2.39,2.56,8.57,8.25,14.11,5.73L774,164c7.37-3.25,10.55-5,8.69-11.73-2.21-8-1.36-14.19,2.61-18.85,5.82-6.85,12.57-3.15,17-.7l.72.39c27.86,15.14,56.17,29.5,84,42.63,9.11,3.84,15,9.22,17.39,16,2.73,7.58,1.23,16.69-4.56,27.87l-2.86,5.51-2.83-5.52c-.8-1.56-1.55-3.24-2.28-4.87-2.81-6.28-5.46-12.22-11.13-13.11-11.06-1.75-27.17,10.24-31.14,20.45-.68,1.76-1.34,3.56-2,5.39-4.74,12.84-10.11,27.41-23.94,34.45-9.84,5.11-18.85,11.7-27.56,18.07-14.27,10.44-26.69,13.49-36.91,9.07-3.38-1.47-7.86,2.91-12.16,7.52-1.15,1.23-1,2.13.85,5.64a20.39,20.39,0,0,1,1.93,4.46c4.1,16.16-2,49.2-18.67,60.05-16.08,9.54-22.27,28.47-25.87,43.89-1.54,6.57-3.59,13.24-5.58,19.69-.73,2.37-1.46,4.74-2.16,7.09-4.31,14.46-12.76,26.14-23.2,32.05-.55.3-1.13.68-1.72,1.07-2.08,1.36-4.6,3-7.33,2.93A6.43,6.43,0,0,1,664.21,473.29ZM761.79,283.1c8,3.46,18.3.65,30.61-8.36,8.9-6.51,18.11-13.25,28.41-18.59,11.61-5.92,16.31-18.65,20.85-31,.69-1.86,1.37-3.7,2.06-5.48,4.91-12.67,23.84-26.73,38.11-24.48,8.38,1.32,12.28,8.67,15.23,15.18,2.55-6.6,3-12,1.4-16.5-1.81-5.06-6.34-9.06-14-12.27C856.43,168.4,828,154,800,138.79l-.74-.4c-5.24-2.87-7-3.29-9.1-.78-2.51,2.95-2.92,7.06-1.3,12.94,3.42,12.42-5.66,16.43-12.29,19.36l-1.76.78c-6.56,3-14.36.36-21.42-7.19-4.51-4.81-2.31-10.18-.7-14.11a22.28,22.28,0,0,0,1.31-3.75c.19-.91.45-1.77.7-2.61.8-2.71,1-3.92.23-4.93a2.33,2.33,0,0,0-.26-.27,10.27,10.27,0,0,0-2.23,1.36c-.4.28-.79.56-1.16.8-6,3.93-11.8,4.07-17.74.44-4.76-2.9-7.23-.5-8.68,1.56-3.18,4.52-2.24,10.39-.89,14.51,4,12.26,8.36,24.8,12.57,36.92,3.94,11.36,8,23.11,11.73,34.39,2.46,7.51,10.37,11,18,14.33,1,.43,2,.86,2.94,1.3a14.8,14.8,0,0,1,8.23,8.94c1.62,4.91.82,11.08-2.16,16.5-2.89,5.27-6.34,7.07-10.26,5.35-8.14-3.59-15.66,1.52-22.92,6.45-.91.62-1.8,1.22-2.68,1.8-8.77,5.79-18.38,6.78-25.72,2.65-7.69-4.33-13.87-4.21-22,.43l-1,.55c-7.44,4.24-17.63,10.05-27.15,7-.43-.13-1.44-.44-3.08,1.09-6.32,5.94-10.18,26.94-8.79,32.74,5,20.92,12.32,45.5,21.25,71.07,4.76,13.66,4.9,26.86.39,39.24-2.2,6.07-4.07,13.51-5.57,19.49a39,39,0,0,1-1.29,3.92c-.82,2.2-1.83,4.95-1.17,6a3.26,3.26,0,0,0,.22.3c.7,0,2.59-1.22,3.61-1.89.73-.47,1.43-.93,2.08-1.29,9-5.1,16.36-15.4,20.2-28.27.7-2.37,1.44-4.76,2.18-7.15,2-6.35,4-12.91,5.45-19.25,3.9-16.68,10.7-37.2,28.75-47.91,13.87-9,19.5-38.51,15.83-53a16.72,16.72,0,0,0-1.37-3c-1.64-3.09-4.39-8.26.12-13.1,3.65-3.9,9.36-10,15.73-9.85A9.92,9.92,0,0,1,761.79,283.1Zm-7.14-145.32Z" transform="translate(-218.31 80.54)"/><path class="cls-16" d="M291.94,216.27c-8.31-4.94-11.45-5.38-20.61-2.74-8.75,4.19-19.62-2.18-24.47-7.25s-2.13-10.44-.41-14.08a16.84,16.84,0,0,0,1.73-4.7,5.81,5.81,0,0,1,.45-1.61l.08-.19c4.9-13.61,19.7-33,37.26-33.47,16.89-.5,31,15,36.21,30.53,4,11.87,2.53,22.91-3.94,30.22a18.63,18.63,0,0,1-15.1,6.66A23.14,23.14,0,0,1,291.94,216.27Zm-5.79-57.59c-13,.36-26.44,15.44-31.41,29.2-.06.17-.13.34-.19.5l0,.06a22.16,22.16,0,0,1-2.28,6.53c-1.9,4-2.21,5.33-.77,6.83,3.8,4,11.9,8.55,17.26,5.83l.55-.22c11-3.2,16.08-2.55,25.92,3.31,5.52,3.28,13.25,4,18.18-2,7.05-8,4.26-19.39,2.73-23.94-4.23-12.59-15.68-25.77-28.83-26.14C286.9,158.67,286.52,158.67,286.15,158.68Zm-31.6,29.55h0Z" transform="translate(-218.31 80.54)"/><path class="cls-16" d="M684.53,132.54c-4.23-1.32-7.17-5.58-9.55-13.81-2.85-9.87-6.27-19.93-9.58-29.66-1.94-5.71-3.77-11.11-5.51-16.49-5.77-17.9-3.49-34.43,7.17-52,2.07-3.43,4.78-5.55,8.05-6.29,6.57-1.49,13.44,3,18.95,6.62,1.37.9,2.66,1.75,3.75,2.37,3,1.7,6.31,3.66,9.51,5.55l3.39,2.07h0l4.2,2.51c4.92,2.94,10,6,14.9,8.66,9.9,5.42,11.8,17.69,13.18,26.65l.06.4c2.11,13.69-7.86,18.78-11.62,20.7-7.13,3.64-16.42,10.46-20.12,22.28-2.11,6.71-7.2,10.77-11.68,14.35-.7.56-1.4,1.11-2.08,1.67-2.7,2.23-6.56,5-10.68,4.84A8.81,8.81,0,0,1,684.53,132.54ZM694.66,28.86c-1.28-.73-2.65-1.63-4.1-2.58-4.5-3-10.1-6.64-14-5.74a6.54,6.54,0,0,0-4,3.36C662.79,40,660.77,54.4,666,70.59c1.72,5.33,3.55,10.7,5.48,16.39,3.33,9.8,6.77,19.93,9.67,30,2.15,7.45,4.24,9.12,5.29,9.44,1.47.46,3.91-.67,7.06-3.27.7-.58,1.43-1.16,2.15-1.74,4.14-3.29,8-6.41,9.55-11.23,4.38-14,15.11-21.89,23.34-26.1,5.92-3,9.35-6.4,8.18-14l-.06-.4c-1.31-8.47-2.79-18.08-9.91-22-5-2.73-10.13-5.8-15.1-8.78-2.12-1.26-4.23-2.53-6.34-3.77l-2.17-1.28,0-.06C700.27,32.11,697.32,30.38,694.66,28.86Z" transform="translate(-218.31 80.54)"/><path class="cls-16" d="M761.13,119.24l-.6-.38-.38-.63a8.44,8.44,0,0,0-2.43-1c-3-.94-9.35-2.9-7.17-11.65,1.11-4.46,3.27-7.39,6.42-8.7,3.8-1.59,8.54-.61,14.5,3,1.47.89,3,1.73,4.46,2.58,2.11,1.19,4.29,2.42,6.42,3.79.29.19.62.36.95.55,2,1.09,6.11,3.38,5,9.08a11,11,0,0,1-7.1,8.26,14.38,14.38,0,0,1-5.74,1C770.47,125,765.81,122.3,761.13,119.24Zm-1.71-16.39c-1.17.49-2.06,1.94-2.65,4.31-.7,2.82-.37,2.92,2.85,3.92,1.82.57,4,1.26,5.51,3.08,6,3.86,9.79,5.51,13.78,4a4.66,4.66,0,0,0,3.11-3.45c.19-1,.21-1.1-1.81-2.22-.46-.25-.9-.5-1.31-.76-2-1.27-4-2.4-6.11-3.61-1.55-.87-3.09-1.75-4.62-2.67-3.56-2.15-5.83-2.75-7.25-2.79A3.55,3.55,0,0,0,759.42,102.85Z" transform="translate(-218.31 80.54)"/><path class="cls-16" d="M346.08,162.56a8.86,8.86,0,0,1-6.28-5,7.51,7.51,0,0,1,1.1-7.23c5.34-7.8,20-14.35,29.61-13.24l.5.06.45.21c2.88,1.31,4.82,3.35,5.48,5.74a6.61,6.61,0,0,1-1,5.59c-4.3,6.29-19.43,14.3-28.06,14.06A11.52,11.52,0,0,1,346.08,162.56Zm.1-8.56c-.34.5-.51.95-.43,1.15a2.58,2.58,0,0,0,1.61,1.08c5.14,1.05,19.75-5.95,23.33-11.19.09-.13.08-.17.07-.2-.06-.25-.47-.82-1.51-1.38C361.4,142.85,349.76,148.77,346.18,154Z" transform="translate(-218.31 80.54)"/><path class="cls-16" d="M451,297.87c-4.86-3.37-9.77-10.64-5.55-26.12.15-.55.29-1.15.44-1.78.9-3.75,2-8.42,5.67-9.79,1.36-.51,3.56-.71,6.29,1.24,9.9,7.09,6.79,21.28,5.77,25.94l-.11.48-.24.42a17.36,17.36,0,0,0-1.15,3.4c-.82,3-1.75,6.39-4.83,7.52a5.29,5.29,0,0,1-2,.32A8.08,8.08,0,0,1,451,297.87Zm3.13-31.19a3.46,3.46,0,0,0-.39-.25,23.28,23.28,0,0,0-1.62,5.06c-.16.7-.32,1.36-.49,2-2.59,9.49-1.58,15.92,3,19.09.15.11.28.19.39.26a24.09,24.09,0,0,0,.91-2.87,24.3,24.3,0,0,1,1.51-4.4C459.51,275.91,458.43,269.74,454.15,266.68Z" transform="translate(-218.31 80.54)"/><path class="cls-16" d="M326.37,37.43c-9.1-2.58-17.65-22.72-15.83-33.06l.09-.37A4.86,4.86,0,0,1,313.78.64c2.86-.95,5.82.94,7,1.79,7.29,5.49,10.11,14.75,12.6,22.92.4,1.32.79,2.62,1.16,3.76a5.93,5.93,0,0,1-1.33,6.12,7.45,7.45,0,0,1-5.48,2.4A5.2,5.2,0,0,1,326.37,37.43Zm2.07-6.21h0Zm-1.23-4c-2.31-7.58-4.69-15.42-10.31-19.64l-.22-.16c-.2,8.6,6.58,22.12,11.26,23.73a1.64,1.64,0,0,0,.41-.22C328,29.74,327.59,28.5,327.21,27.24Z" transform="translate(-218.31 80.54)"/><path class="cls-16" d="M314.66,151a13.51,13.51,0,0,0-1.3-.7h-.15l-.34-.07a17.15,17.15,0,0,1-11.72-8.07,13.91,13.91,0,0,1-.86-11.69,7.12,7.12,0,0,1,3.81-4.84c2.85-1.21,5.7.29,7.78,1.38a11.43,11.43,0,0,0,2,.94c13.39,3.28,13.37,12.66,12.16,18-.28,1.25-1.14,5-4.2,6.39a5.44,5.44,0,0,1-2.35.46A10.75,10.75,0,0,1,314.66,151Zm-8.25-18.6-.05.17a7.51,7.51,0,0,0,.37,6.43,10.84,10.84,0,0,0,7.19,4.86,9.67,9.67,0,0,1,3.93,1.54,15.29,15.29,0,0,0,1.45.77,8.28,8.28,0,0,0,.53-1.69c.9-3.95.72-8.25-7.43-10.25a15.1,15.1,0,0,1-3.49-1.49,16.39,16.39,0,0,0-2.24-1A5.81,5.81,0,0,0,306.41,132.39Z" transform="translate(-218.31 80.54)"/><path class="cls-16" d="M230,201.22c-.88-.26-3.54-1.05-4.53-3.57s.35-4.71,1.32-6.32a11.37,11.37,0,0,0,.78-1.46l-.11-.86.5-.91a29.65,29.65,0,0,0,1.56-3.71c1.65-4.38,4.7-12.52,14-9.35a6.18,6.18,0,0,1,3.9,3.4c1.21,2.88-.23,6-1.38,8.45a16.82,16.82,0,0,0-1,2.39c-1,3.82-3.09,8.86-7.17,11.18a9.52,9.52,0,0,1-5,1.22A11,11,0,0,1,230,201.22Zm5.52-14.55c-.47,1.26-1,2.56-1.55,3.77a10.26,10.26,0,0,1-1.68,4.2l-.27.45a3.36,3.36,0,0,0,2.66-.26c1.65-.93,3.15-3.56,4.13-7.22a21.42,21.42,0,0,1,1.38-3.47,18,18,0,0,0,1.2-3C238.6,180.2,237.78,180.58,235.49,186.67Z" transform="translate(-218.31 80.54)"/><path class="cls-16" d="M621.76,104.22c-8-5.27-5-15.41-3-22.11l.53-1.84.64-.42a14.58,14.58,0,0,0,.91-3.1c.63-2.85,1.29-5.79,3.83-6.69,1.51-.53,3.15-.09,4.88,1.3,6.45,5.21,4.19,14,2.55,20.48-.28,1.09-.55,2.13-.76,3.1l-.25,1.21c-.67,3.36-1.5,7.54-4.49,8.8a4.32,4.32,0,0,1-1.8.33A5.73,5.73,0,0,1,621.76,104.22Zm3.75-26.41c-.47,2.07-.91,4-2.06,5.33l-.1.34c-2.14,7.33-3.54,13.65,1.06,16.7a1.94,1.94,0,0,0,.38.21c.69-.81,1.3-3.85,1.57-5.19.09-.46.17-.89.26-1.29.22-1,.5-2.13.8-3.28,1.77-6.94,2.83-12.48-.9-15.5l-.24-.18A22.13,22.13,0,0,0,625.51,77.81Z" transform="translate(-218.31 80.54)"/><path class="cls-16" d="M341.37,131.59c-9.22-3.35-6.6-12.87-4.87-19.17l.21-.77.32-.46a12.39,12.39,0,0,0,.6-2.21c.54-2.42,1.2-5.45,3.92-6.71a6.22,6.22,0,0,1,5.72.52c5.82,3.11,7.66,10.74,4.49,18.55a18,18,0,0,0-.7,2.57c-.62,2.66-1.38,6-4.16,7.5a5.76,5.76,0,0,1-3,.7A7.89,7.89,0,0,1,341.37,131.59Zm2.53-21.21a14.61,14.61,0,0,1-1.27,4c-2.2,8-2,10.13.92,11.2l.32.09a16,16,0,0,0,.94-3.17,24.53,24.53,0,0,1,1-3.55c1.87-4.58,1.26-8.83-1.47-10.37C344.17,109.1,344,109.85,343.9,110.38Z" transform="translate(-218.31 80.54)"/><path class="cls-16" d="M634.21,110.14c-4.23-2.1-5.58-6.18-4-12.12l0-.16c.82-2.42,2.08-5.29,4.65-6,1.09-.31,2.82-.32,4.85,1.39,3.42,2.88,4.52,7.48,3,12.61-.69,2.37-1.87,3.94-3.51,4.66a5,5,0,0,1-2.16.42A7,7,0,0,1,634.21,110.14Zm.61-10.81c-1.31,5.06.53,6,1.52,6.47a1.63,1.63,0,0,0,1,.27c.12,0,.49-.44.83-1.59.67-2.3,1-5.47-1.5-7.54a2.75,2.75,0,0,0-.51-.36A8.14,8.14,0,0,0,634.82,99.33Z" transform="translate(-218.31 80.54)"/></g><g class="cls-17"><path class="cls-4" d="M597.69,65.9c-44.42-2.39-105.12,21.5-120.1,74.44-14.22,50.21,34.54,18.91,62.44-10.57C563,105.47,628.2,67.54,597.69,65.9Z" transform="translate(-218.31 80.54)"/></g><g class="cls-18"><path class="cls-4" d="M717.77,65.34c-.9-.51-1.81-1-2.72-1.49s-1.84-1-2.77-1.46C637.57,23.66,549.57,36.75,489.38,89.1a200.93,200.93,0,0,0-45.65,57.52c-1,1.79-1.89,3.6-2.78,5.42a201.83,201.83,0,0,0-19.28,115.44A202,202,0,0,1,438.2,135.82c.89-1.81,1.83-3.62,2.78-5.42a201.07,201.07,0,0,1,45.64-57.52c60.2-52.35,148.2-65.44,222.91-26.71.92.47,1.85,1,2.76,1.46s1.83,1,2.72,1.5c57.78,32.23,93.64,89.14,101.57,150.61A201.24,201.24,0,0,0,717.77,65.34Z" transform="translate(-218.31 80.54)"/></g><ellipse class="cls-1" cx="399.45" cy="306.08" rx="200.47" ry="201.74"/><path class="cls-3" d="M566.24,425.5l-.1,0c-15.85-4.49-25.78-7.84-39.26-14.7C455.2,375.1,410.35,300.1,412.6,219.7c3.2-113.84,97.84-203.84,211-200.62s202.56,98.46,199.36,212.29S725.08,435.21,612,432A205.14,205.14,0,0,1,566.24,425.5ZM422.13,220c-2.15,76.67,40.62,148.19,109,182.22,12.89,6.56,22,9.63,37.54,14a195.75,195.75,0,0,0,43.55,6.17c107.87,3.07,198.11-82.75,201.16-191.3S731.16,31.74,623.29,28.67,425.18,111.42,422.13,220ZM567.42,420.86h0Z" transform="translate(-218.31 80.54)"/><g class="cls-7"><path class="cls-3" d="M525.24,389c95.83,51.57,214.66,16.81,268.38-77.44,1-1.76,2-3.54,2.93-5.33a201.7,201.7,0,0,0,22-121.1,202,202,0,0,1-20.24,57.61q-1.43,2.7-2.92,5.34c-53.72,94.25-172.56,129-268.39,77.44-59.33-31.92-96.19-89.57-104.28-151.93C406.86,257.9,446,346.36,525.24,389Z" transform="translate(-218.31 80.54)"/></g><text class="cls-19" transform="translate(511.69 984.03) scale(0.94 1)">d<tspan class="cls-20" x="250.94" y="0">r</tspan><tspan class="cls-21" x="410.14" y="0">e</tspan><tspan x="624.68" y="0">am</tspan></text></svg>