<svg xmlns="http://www.w3.org/2000/svg" xmlns:xlink="http://www.w3.org/1999/xlink" viewBox="0 0 2803.11 2800"><defs><style>.cls-1{fill:url(#linear-gradient);}.cls-2{fill:url(#linear-gradient-2);}.cls-3{isolation:isolate;}.cls-4{fill:#f4f7fa;}.cls-5{clip-path:url(#clip-path);}.cls-6{opacity:0.8;}.cls-13,.cls-16,.cls-17,.cls-40,.cls-6{mix-blend-mode:soft-light;}.cls-17,.cls-40,.cls-7{fill:#fff;}.cls-8{clip-path:url(#clip-path-2);}.cls-9{fill:#d8dee8;}.cls-10{fill:url(#linear-gradient-5);}.cls-11{fill:url(#linear-gradient-6);}.cls-12{fill:url(#linear-gradient-7);}.cls-14{fill:url(#linear-gradient-8);}.cls-15{fill:url(#linear-gradient-9);}.cls-16,.cls-17{opacity:0.5;}.cls-18{fill:url(#linear-gradient-10);}.cls-19{fill:url(#linear-gradient-11);}.cls-20{fill:url(#linear-gradient-12);}.cls-21{fill:url(#linear-gradient-13);}.cls-22{fill:url(#linear-gradient-14);}.cls-23{fill:url(#linear-gradient-15);}.cls-24{opacity:0.3;fill:url(#linear-gradient-16);}.cls-24,.cls-36,.cls-37{mix-blend-mode:multiply;}.cls-25{fill:url(#linear-gradient-17);}.cls-26{fill:url(#linear-gradient-18);}.cls-27{fill:url(#linear-gradient-19);}.cls-28{fill:url(#linear-gradient-20);}.cls-29{fill:url(#linear-gradient-21);}.cls-30{fill:url(#linear-gradient-22);}.cls-31{fill:url(#linear-gradient-23);}.cls-32{fill:url(#linear-gradient-24);}.cls-33{fill:url(#linear-gradient-25);}.cls-34{fill:url(#linear-gradient-26);}.cls-35{fill:url(#linear-gradient-27);}.cls-36,.cls-37{opacity:0.1;}.cls-36{fill:url(#linear-gradient-28);}.cls-37{fill:url(#linear-gradient-29);}.cls-38{fill:url(#linear-gradient-30);}.cls-39{fill:url(#linear-gradient-31);}.cls-40{opacity:0.4;}</style><linearGradient id="linear-gradient" x1="2355.19" y1="2538.19" x2="3085.58" y2="565.56" gradientUnits="userSpaceOnUse"><stop offset="0" stop-color="#e38ddd"/><stop offset="1" stop-color="#9571f6"/></linearGradient><linearGradient id="linear-gradient-2" x1="1814.5" y1="2343.44" x2="3231.22" y2="2343.44" gradientUnits="userSpaceOnUse"><stop offset="0" stop-color="#ff9085"/><stop offset="1" stop-color="#fb6fbb"/></linearGradient><clipPath id="clip-path" transform="translate(-480.19 -518.57)"><path class="cls-1" d="M2952.77,747.13c-32.09-26.55-80.77-41-121.92-43.92-291.69-20.67-334.26,589-289.55,725.3s15.74,181-214,252.29-119.52,208.55-91.52,288.82,83.45,148.08-84,227.84-109.27,129.17-109.27,129.17,308.84,315.92,291.78,214.77,13.85-253.86,290.75-265.46c119.27-5,301.91-61.9,342.35-189.6,9.42-29.74,16-75.16,8.81-105.94-9.94-42.7-38-76.34-53.52-116.53-36.27-93.65,54.68-162.23,107-224.83,27.33-32.67,54.64-66.19,75.57-103.45,43.44-77.35,27.18-160.32-20.13-231.62-22.68-34.2-54.21-70.48-64.11-111.26-10.62-43.82-1.36-103.67,1.17-148.75,2-35.34,5.34-70.56,3.35-106C3021.85,872.05,3006.42,791.52,2952.77,747.13Z"/></clipPath><clipPath id="clip-path-2" transform="translate(-480.19 -518.57)"><path class="cls-2" d="M3208.78,1645.16c-21.22-35.84-62.13-65.92-99.87-82.59-267.49-118.15-513.85,441.19-517.89,584.54s-46.44,175.65-286.74,165-183,155.81-183.84,240.82,28.42,167.58-156.16,186-146.54,84.58-146.54,84.58,183.73,401.78,201.9,300.83,98.93-234.21,363.42-151.43c113.93,35.66,305.05,43.92,386.32-62.57,18.92-24.79,40.46-65.32,44.13-96.71,5.1-43.54-9.89-84.68-10.94-127.76-2.43-100.4,106.36-134.16,176.79-175.35,36.77-21.51,73.82-43.8,106.12-71.78,67.06-58.09,79.82-141.67,59.43-224.78-9.77-39.85-27.17-84.66-22.68-126.38,4.83-44.83,33.8-98,51.43-139.58,13.82-32.59,28.9-64.59,39-98.61C3231.51,1786.08,3244.24,1705.08,3208.78,1645.16Z"/></clipPath><linearGradient id="linear-gradient-5" x1="1297.81" y1="2009.46" x2="879.63" y2="2055.08" gradientTransform="matrix(-1, 0, 0, 1, 3475.88, 0)" gradientUnits="userSpaceOnUse"><stop offset="0" stop-color="#444b8c"/><stop offset="1" stop-color="#26264f"/></linearGradient><linearGradient id="linear-gradient-6" x1="1666.27" y1="955.35" x2="632.23" y2="4475.65" xlink:href="#linear-gradient-5"/><linearGradient id="linear-gradient-7" x1="1278.79" y1="868.65" x2="63.51" y2="4160.02" gradientTransform="matrix(-1, 0, 0, 1, 3475.88, 0)" gradientUnits="userSpaceOnUse"><stop offset="0" stop-color="#ffc444"/><stop offset="1" stop-color="#f36f56"/></linearGradient><linearGradient id="linear-gradient-8" x1="8520.35" y1="8207.98" x2="7689.1" y2="8991.82" gradientTransform="translate(99.95 18234.43) rotate(180)" gradientUnits="userSpaceOnUse"><stop offset="0" stop-color="#311944"/><stop offset="1" stop-color="#893976"/></linearGradient><linearGradient id="linear-gradient-9" x1="734.92" y1="1379.3" x2="1401.03" y2="774.82" xlink:href="#linear-gradient-2"/><linearGradient id="linear-gradient-10" x1="-555.61" y1="1904.91" x2="-423.61" y2="2039.27" gradientTransform="matrix(-1, 0, 0, 1, 854.2, 0)" xlink:href="#linear-gradient-7"/><linearGradient id="linear-gradient-11" x1="-228.42" y1="3181.15" x2="-229.53" y2="2883.08" gradientTransform="matrix(-1, 0, 0, 1, 854.2, 0)" gradientUnits="userSpaceOnUse"><stop offset="0" stop-color="#aa80f9"/><stop offset="1" stop-color="#6165d7"/></linearGradient><linearGradient id="linear-gradient-12" x1="-3291.85" y1="3485.67" x2="-3290" y2="3331" gradientTransform="matrix(-1, 0.08, 0.08, 1, -2506.73, 65.44)" xlink:href="#linear-gradient-7"/><linearGradient id="linear-gradient-13" x1="-52.69" y1="3180.49" x2="-53.8" y2="2882.43" xlink:href="#linear-gradient-11"/><linearGradient id="linear-gradient-14" x1="-3113" y1="3487.79" x2="-3111.16" y2="3333.13" gradientTransform="matrix(-1, 0.08, 0.08, 1, -2506.73, 65.44)" xlink:href="#linear-gradient-7"/><linearGradient id="linear-gradient-15" x1="-193.5" y1="2500.86" x2="-84.25" y2="3059.42" gradientTransform="matrix(-1, 0, 0, 1, 854.2, 0)" xlink:href="#linear-gradient-8"/><linearGradient id="linear-gradient-16" x1="-3381.01" y1="2988.26" x2="-3216.34" y2="2988.26" gradientTransform="matrix(-1, 0.08, 0.08, 1, -2506.73, 65.44)" xlink:href="#linear-gradient-8"/><linearGradient id="linear-gradient-17" x1="-3288.05" y1="3011.78" x2="-3038.06" y2="3011.78" gradientTransform="matrix(-1, 0.08, 0.08, 1, -2506.73, 65.44)" xlink:href="#linear-gradient-8"/><linearGradient id="linear-gradient-18" x1="-354.06" y1="1982.42" x2="-169.7" y2="3166.39" xlink:href="#linear-gradient-11"/><linearGradient id="linear-gradient-19" x1="-3055.27" y1="3471.79" x2="-2870.92" y2="4655.77" gradientTransform="matrix(-1, 0.08, 0.08, 1, -2506.73, 65.44)" xlink:href="#linear-gradient-11"/><linearGradient id="linear-gradient-20" x1="-2785.65" y1="3041.45" x2="-3343.55" y2="2240.5" gradientTransform="matrix(-1, 0.08, 0.08, 1, -2506.73, 65.44)" xlink:href="#linear-gradient-11"/><linearGradient id="linear-gradient-21" x1="166.74" y1="2291.74" x2="62.94" y2="2431.95" gradientTransform="matrix(-1, 0, 0, 1, 854.2, 0)" xlink:href="#linear-gradient-7"/><linearGradient id="linear-gradient-22" x1="-2839.42" y1="3438.18" x2="-2655.06" y2="4622.16" gradientTransform="matrix(-1, 0.08, 0.08, 1, -2506.73, 65.44)" xlink:href="#linear-gradient-11"/><linearGradient id="linear-gradient-23" x1="-4483.36" y1="5296.96" x2="-4483.36" y2="5137.47" gradientTransform="matrix(-0.78, 0.63, 0.63, 0.78, -5831.11, 622.2)" xlink:href="#linear-gradient-7"/><linearGradient id="linear-gradient-24" x1="-3255.74" y1="2098.1" x2="-3322.45" y2="1928.67" gradientTransform="matrix(-1, 0.08, 0.08, 1, -2506.73, 65.44)" gradientUnits="userSpaceOnUse"><stop offset="0" stop-color="#444b8c"/><stop offset="1" stop-color="#3e4177"/></linearGradient><linearGradient id="linear-gradient-25" x1="-4596.1" y1="5250.99" x2="-4521.53" y2="5106" gradientTransform="matrix(-0.78, 0.63, 0.63, 0.78, -5831.11, 622.2)" xlink:href="#linear-gradient-7"/><linearGradient id="linear-gradient-26" x1="1316.53" y1="2041.58" x2="2659.58" y2="2041.58" gradientTransform="matrix(1, 0, 0, 1, 0, 0)" xlink:href="#linear-gradient-8"/><linearGradient id="linear-gradient-27" x1="2133.06" y1="4683.12" x2="1972.92" y2="1909.2" gradientUnits="userSpaceOnUse"><stop offset="0" stop-color="#f36f56"/><stop offset="1" stop-color="#ffc444"/></linearGradient><linearGradient id="linear-gradient-28" x1="1497.7" y1="1895.52" x2="2464.01" y2="1895.52" xlink:href="#linear-gradient-27"/><linearGradient id="linear-gradient-29" x1="1463.54" y1="2149.04" x2="2429.1" y2="2149.04" xlink:href="#linear-gradient-27"/><linearGradient id="linear-gradient-30" x1="1938.14" y1="2242.64" x2="1722.29" y2="3611.43" xlink:href="#linear-gradient-27"/><linearGradient id="linear-gradient-31" x1="2009.14" y1="817.49" x2="2055.24" y2="2190.18" xlink:href="#linear-gradient-27"/></defs><g class="cls-3"><g id="Illustration"><path class="cls-4" d="M3190.62,1602.77c-30.3-373.57-45.45-560.36-116-681.22-201.91-346-788.94-428.32-1159.7-396.77C1418.59,567,850.75,852.35,600.81,1403.28c-227,500.39-122.35,1066.8,219.72,1437.31,627.07,679.22,1920.57,557.95,2236.55,112.27,126.1-177.87,135.19-462,148.54-879.3C3212.05,1872.67,3199.53,1712.58,3190.62,1602.77Z" transform="translate(-480.19 -518.57)"/><path class="cls-1" d="M2952.77,747.13c-32.09-26.55-80.77-41-121.92-43.92-291.69-20.67-334.26,589-289.55,725.3s15.74,181-214,252.29-119.52,208.55-91.52,288.82,83.45,148.08-84,227.84-109.27,129.17-109.27,129.17,308.84,315.92,291.78,214.77,13.85-253.86,290.75-265.46c119.27-5,301.91-61.9,342.35-189.6,9.42-29.74,16-75.16,8.81-105.94-9.94-42.7-38-76.34-53.52-116.53-36.27-93.65,54.68-162.23,107-224.83,27.33-32.67,54.64-66.19,75.57-103.45,43.44-77.35,27.18-160.32-20.13-231.62-22.68-34.2-54.21-70.48-64.11-111.26-10.62-43.82-1.36-103.67,1.17-148.75,2-35.34,5.34-70.56,3.35-106C3021.85,872.05,3006.42,791.52,2952.77,747.13Z" transform="translate(-480.19 -518.57)"/><g class="cls-5"><g class="cls-6"><path class="cls-7" d="M2018.21,2503.94a4.31,4.31,0,0,1-3.45-7.88c1.3-.68,131.32-69.07,276.36-181.71,133.64-103.79,307.75-267.45,378.25-457.69,58.88-158.9,112.57-421.57,147.32-720.67,31.15-268.21,36.07-466.57,22.83-503.39a4.31,4.31,0,0,1,8.12-2.92c15.49,43.07,5.66,265.91-22.39,507.3-34.82,299.76-88.69,563.16-147.79,722.67-71.22,192.2-246.59,357.11-381.17,461.61-145.64,113.08-276.23,181.76-277.53,182.44A5.38,5.38,0,0,1,2018.21,2503.94Z" transform="translate(-480.19 -518.57)"/><path class="cls-7" d="M2816.21,1188c-2.23.8-4.5.18-5.32-2-1.08-3-109.82-295.5-250-361.55a4.15,4.15,0,0,1-2-5.61,4.33,4.33,0,0,1,5.77-2c143.43,67.56,249.91,354,254.38,366.16.82,2.24-.5,4.24-2.74,5Z" transform="translate(-480.19 -518.57)"/><path class="cls-7" d="M2763.19,1527.25a4.32,4.32,0,0,1-4.21-7.39c.8-.66,80.86-66.33,179.64-121.44,133.47-74.46,235.76-95.25,304-61.78a4.31,4.31,0,0,1-3.8,7.74c-157.06-77-471.23,179.54-474.38,182.14A4.45,4.45,0,0,1,2763.19,1527.25Z" transform="translate(-480.19 -518.57)"/><path class="cls-7" d="M2414.63,2220.72a4.08,4.08,0,0,1-1.4.25,4.3,4.3,0,0,1-4.37-4.24c0-1.25-2.24-126.78-28.52-259-24.08-121.26-73.82-273.15-174-308.15a4.32,4.32,0,0,1,2.84-8.15c83.52,29.19,144,135.08,179.63,314.73,26.41,133,28.63,259.21,28.65,260.47A4.3,4.3,0,0,1,2414.63,2220.72Z" transform="translate(-480.19 -518.57)"/><path class="cls-7" d="M2592.85,2017.93a4.31,4.31,0,0,1-4-7.52c13.89-10.27,341.53-251.14,469.3-228.14a4.31,4.31,0,1,1-1.53,8.49c-124.15-22.35-459.27,224.09-462.64,226.58A4,4,0,0,1,2592.85,2017.93Z" transform="translate(-480.19 -518.57)"/></g></g><path class="cls-2" d="M3208.78,1645.16c-21.22-35.84-62.13-65.92-99.87-82.59-267.49-118.15-513.85,441.19-517.89,584.54s-46.44,175.65-286.74,165-183,155.81-183.84,240.82,28.42,167.58-156.16,186-146.54,84.58-146.54,84.58,183.73,401.78,201.9,300.83,98.93-234.21,363.42-151.43c113.93,35.66,305.05,43.92,386.32-62.57,18.92-24.79,40.46-65.32,44.13-96.71,5.1-43.54-9.89-84.68-10.94-127.76-2.43-100.4,106.36-134.16,176.79-175.35,36.77-21.51,73.82-43.8,106.12-71.78,67.06-58.09,79.82-141.67,59.43-224.78-9.77-39.85-27.17-84.66-22.68-126.38,4.83-44.83,33.8-98,51.43-139.58,13.82-32.59,28.9-64.59,39-98.61C3231.51,1786.08,3244.24,1705.08,3208.78,1645.16Z" transform="translate(-480.19 -518.57)"/><g class="cls-8"><g class="cls-6"><path class="cls-7" d="M1734.89,2982.11a4.31,4.31,0,0,1-.58-8.59c1.45-.2,146.94-20.56,321.54-77.48,160.88-52.44,380.1-147.53,510.81-302.7,109.17-129.6,248.58-358.61,382.48-628.31,120.07-241.84,191.83-426.84,191.83-466a4.31,4.31,0,1,1,8.62,0c0,45.78-84.65,252.14-192.72,469.81-134.2,270.29-274,499.93-383.61,630-132.05,156.76-352.88,252.6-514.88,305.39-175.31,57.13-321.44,77.58-322.9,77.77A4,4,0,0,1,1734.89,2982.11Z" transform="translate(-480.19 -518.57)"/><path class="cls-7" d="M2931.1,2014.68a4.21,4.21,0,0,1-4.31-4.17c0-3.14-3.35-315.45-112.95-425a4.27,4.27,0,0,1,0-6.07,4.31,4.31,0,0,1,6.1,0c112.11,112.11,115.39,418.07,115.47,431.05a4.2,4.2,0,0,1-4.28,4.23Z" transform="translate(-480.19 -518.57)"/><path class="cls-7" d="M2766.4,2315.11a4.32,4.32,0,0,1-1.45-8.38c1-.34,98.53-35.06,210.14-53.49,150.79-24.9,254.08-9.85,307,44.74a4.31,4.31,0,1,1-6.19,6c-121.74-125.59-504.18,9.5-508,10.88A4.35,4.35,0,0,1,2766.4,2315.11Z" transform="translate(-480.19 -518.57)"/><path class="cls-7" d="M2203.76,2849.73a4.24,4.24,0,0,1-1.4-.23,4.31,4.31,0,0,1-2.68-5.48c.4-1.18,40.79-120.05,60.81-253.4,18.37-122.25,23-282-59.45-348.84a4.31,4.31,0,0,1,5.43-6.7c68.72,55.72,89.76,175.81,62.54,356.94-20.16,134.1-60.77,253.6-61.17,254.79A4.33,4.33,0,0,1,2203.76,2849.73Z" transform="translate(-480.19 -518.57)"/><path class="cls-7" d="M2440.09,2719.21a4.31,4.31,0,0,1-1.24-8.44c16.54-5,406.36-120.76,518.81-55.88a4.31,4.31,0,1,1-4.31,7.47c-109.27-63-508,55.47-512,56.67A4.48,4.48,0,0,1,2440.09,2719.21Z" transform="translate(-480.19 -518.57)"/></g></g><path class="cls-9" d="M2312.1,637.53,2309,659.59a172.48,172.48,0,0,0-30.08,4L2270.6,643a11,11,0,0,0-14.35-6l-35.37,14.57a11.16,11.16,0,0,0-6.15,14.42l8.38,20.84a179.07,179.07,0,0,0-24.21,18.48l-17.78-13.78a11.12,11.12,0,0,0-15.55,2L2141.81,724a11.07,11.07,0,0,0,1.8,15.58l17.83,13.87a177.59,177.59,0,0,0-12,28.16l-22.63-3a11.37,11.37,0,0,0-12.64,9.63l-5.69,38.34a11,11,0,0,0,9.38,12.58l22.7,3a176.21,176.21,0,0,0,3.41,30.44l-21.3,8.88a11.51,11.51,0,0,0-6.3,14.75l14.19,36.06a11,11,0,0,0,14.54,6.1l21.31-8.92a175.46,175.46,0,0,0,18.25,24.58l-14.19,18.43a11.42,11.42,0,0,0,1.84,16l30.44,23.88a11.17,11.17,0,0,0,15.78-2.15l14-18.31a171.86,171.86,0,0,0,28.33,11.91l-3.19,22.86a11.2,11.2,0,0,0,9.54,12.79l38.43,5a11.41,11.41,0,0,0,12.68-9.88l3.1-22.68a173.83,173.83,0,0,0,30.72-4l8.43,21a11.06,11.06,0,0,0,14.62,6.13l35.85-15.18a11.53,11.53,0,0,0,6.1-14.91l-8.43-20.81a178.71,178.71,0,0,0,24.64-19.15l17.51,13.62a11.08,11.08,0,0,0,15.68-2.14l23.47-31.11a11.41,11.41,0,0,0-2.07-15.86L2470.65,916a178.23,178.23,0,0,0,11.78-29l21.71,2.85a11.15,11.15,0,0,0,12.46-9.71l4.92-38.45a11.17,11.17,0,0,0-9.57-12.54l-21.64-2.84a176.47,176.47,0,0,0-4-30.75l20.07-8.4a11.16,11.16,0,0,0,6-14.56l-14.66-35.44a11,11,0,0,0-14.43-6l-20.19,8.41a175,175,0,0,0-18.63-24.29l13.34-17.41a11.07,11.07,0,0,0-2-15.49l-30.16-23.16a11,11,0,0,0-15.45,2l-13.42,17.43a171.21,171.21,0,0,0-28.11-11.5l3-21.9A10.94,10.94,0,0,0,2362.2,633l-37.67-4.94A11.11,11.11,0,0,0,2312.1,637.53ZM2179.28,816.22c10.89-75.76,80.43-128.87,155.37-119s127.59,79,117.52,154.83c-10.12,76.33-79.8,130.49-155.57,120.55S2168.33,892.44,2179.28,816.22Z" transform="translate(-480.19 -518.57)"/><path class="cls-9" d="M1734.47,625.57l-4.76,34.11a267.69,267.69,0,0,0-46.51,6.16L1670.31,634a16.91,16.91,0,0,0-22.18-9.2l-54.69,22.53a17.24,17.24,0,0,0-9.51,22.29l13,32.22a276.9,276.9,0,0,0-37.42,28.58L1532,709.13a17.19,17.19,0,0,0-24,3.18l-36.74,47A17.12,17.12,0,0,0,1474,783.4l27.57,21.43a274,274,0,0,0-18.5,43.55l-35-4.59a17.58,17.58,0,0,0-19.54,14.9l-8.8,59.28a17,17,0,0,0,14.51,19.45l35.09,4.6a271.45,271.45,0,0,0,5.28,47.07l-32.93,13.73a17.79,17.79,0,0,0-9.74,22.81l21.93,55.75a17,17,0,0,0,22.48,9.43l33-13.79a270.91,270.91,0,0,0,28.22,38l-22,28.51a17.66,17.66,0,0,0,2.85,24.65l47.07,36.93a17.27,17.27,0,0,0,24.39-3.33l21.69-28.31a265.55,265.55,0,0,0,43.81,18.41l-4.94,35.35a17.36,17.36,0,0,0,14.76,19.78l59.42,7.79a17.64,17.64,0,0,0,19.61-15.27l4.79-35.08a268.06,268.06,0,0,0,47.49-6.26l13,32.41a17.12,17.12,0,0,0,22.62,9.48l55.42-23.48a17.81,17.81,0,0,0,9.44-23l-13-32.18a276.63,276.63,0,0,0,38.09-29.61l27.08,21a17.12,17.12,0,0,0,24.24-3.3l36.29-48.11a17.63,17.63,0,0,0-3.2-24.51l-26.84-20.8a274.28,274.28,0,0,0,18.21-44.76l33.56,4.41a17.25,17.25,0,0,0,19.27-15l7.62-59.44a17.3,17.3,0,0,0-14.81-19.4L2010,917.5a271.69,271.69,0,0,0-6.17-47.54l31-13a17.26,17.26,0,0,0,9.22-22.52l-22.67-54.79a17.05,17.05,0,0,0-22.32-9.26l-31.21,13a270.82,270.82,0,0,0-28.8-37.56l20.62-26.92a17.1,17.1,0,0,0-3.13-23.95L1910,659.17a17,17,0,0,0-23.89,3.15l-20.75,27a264.84,264.84,0,0,0-43.46-17.79l4.63-33.85a16.9,16.9,0,0,0-14.56-19.07l-58.25-7.64A17.19,17.19,0,0,0,1734.47,625.57ZM1529.12,901.86C1546,784.72,1653.47,702.6,1769.35,717.8s197.27,122.1,181.7,239.4c-15.65,118-123.39,201.75-240.54,186.38S1512.19,1019.7,1529.12,901.86Z" transform="translate(-480.19 -518.57)"/><path class="cls-10" d="M1678.74,955.87,1424,3073.41c-3.82,31.75,18.06,60.21,48.72,63.25l1061.12,116.5c65,4,100.59-29.17,104.6-62.93l267.47-2251.3c4-33.57-27.9-64-93.18-64L1741.94,897.51C1710.94,898,1682.54,924.29,1678.74,955.87Z" transform="translate(-480.19 -518.57)"/><path class="cls-11" d="M1631,952.23,1374.82,3080.36c-3.84,31.91,18.12,60.51,48.89,63.58l1100.08,109.52c34.49,3.44,66.1-21.51,70.13-55.45l269-2262.93c4-33.74-21.32-60.87-56.18-60.28L1694.43,893.57C1663.32,894.09,1634.81,920.49,1631,952.23Z" transform="translate(-480.19 -518.57)"/><path class="cls-9" d="M1651.86,1069.61l-237.43,1973.2c-3.59,29.81,17,56.49,45.78,59.29L2494.8,3202.67c32.06,3.12,61.44-20.17,65.2-51.76l248.57-2090.42c3.73-31.43-19.78-56.85-52.17-56.51l-1045.21,11.13C1682.09,1015.42,1655.43,1040,1651.86,1069.61Z" transform="translate(-480.19 -518.57)"/><path class="cls-12" d="M2206.66,950.76c-1.35,11.33,6.78,20.4,18.17,20.26s21.77-9.47,23.13-20.82-6.8-20.42-18.21-20.25S2208,939.44,2206.66,950.76Z" transform="translate(-480.19 -518.57)"/><g class="cls-13"><path class="cls-7" d="M1830.73,2394.15c211.8-391.6,528.21-508.81,623.47-912.39,51.49-218.16,16.41-426.95-42.68-600.29l395.19-6.67c34.86-.59,60.19,26.53,56.18,60.28L2593.92,3198c-4,33.94-35.64,58.89-70.13,55.45L1659,3167.36C1652.62,2816.48,1736.32,2568.7,1830.73,2394.15Z" transform="translate(-480.19 -518.57)"/></g><path class="cls-14" d="M586.56,1176.8c0-208.07,181.51-376.73,399.33-376.71,211.38,0,378.2,159.81,378.2,356.88s-166.82,365.35-378.2,376.16C768.07,1544.27,586.56,1384.88,586.56,1176.8Z" transform="translate(-480.19 -518.57)"/><path class="cls-15" d="M610,1160.21C610,952.13,786.3,783.47,997.82,783.5c205.26,0,367.26,159.8,367.26,356.87s-162,365.36-367.26,376.17C786.3,1527.68,610,1368.29,610,1160.21Z" transform="translate(-480.19 -518.57)"/><g class="cls-16"><path class="cls-7" d="M670.39,1158.62c0-174.81,148.08-316.51,325.79-316.49,172.45,0,308.55,134.26,308.55,299.83s-136.1,307-308.55,316C818.47,1467.36,670.39,1333.44,670.39,1158.62Z" transform="translate(-480.19 -518.57)"/></g><path class="cls-17" d="M983.94,869c172.46,0,308.56,134.25,308.56,299.82a303,303,0,0,1-21.82,112.52,304.45,304.45,0,0,0,34-139.38c0-165.57-136.1-299.81-308.55-299.83-137.06,0-256.42,84.3-303.89,203.06C746.05,940.79,857.46,869,983.94,869Z" transform="translate(-480.19 -518.57)"/><path class="cls-7" d="M848.83,1115.84v152.57c0,44.12,37.12,78.91,82.76,77.72l113.17-3c45.09-1.18,81.53-37.51,81.53-81.16V1111Zm104.23,157.73,21-63.73A27.5,27.5,0,0,1,959,1185.36c0-15.66,13.13-28.6,29.31-28.91s29.26,12.11,29.26,27.74a28.88,28.88,0,0,1-15.07,25.06l20.95,62.68Z" transform="translate(-480.19 -518.57)"/><path class="cls-7" d="M1094.12,1097.82c-12,.21-21.75-9.09-21.75-20.75,0-44.85-37.65-80.85-84.08-80.26-46.59.6-84.62,37.81-84.62,83,0,11.74-9.87,21.42-22.06,21.62s-22.1-9.16-22.1-20.92c0-68.69,57.93-125.23,128.78-126,70.48-.79,127.54,53.91,127.54,121.94C1115.83,1088,1106.11,1097.62,1094.12,1097.82Z" transform="translate(-480.19 -518.57)"/><path class="cls-18" d="M1356.23,1968.09s-7.7-28.86-2.25-36.24,38.81-36.88,35.6-27.26a62.08,62.08,0,0,1-8,16s18,8.33,6.42,20.84-15.4,15.39-16,26.62S1363.93,1983.16,1356.23,1968.09Z" transform="translate(-480.19 -518.57)"/><path class="cls-19" d="M1035.87,3213.86s-4.08,25-3.56,33.84,99.1,13.43,100.1,6.77-16.3-17.23-28.47-21-47.79-13.7-47.79-13.7Z" transform="translate(-480.19 -518.57)"/><path class="cls-20" d="M1059.8,3189l-3.15,31s-11.45,7.57-21.54,1.73l-5-33.78Z" transform="translate(-480.19 -518.57)"/><path class="cls-21" d="M860,3254.32s-4.08,25-3.56,33.85,99.1,13.42,100.09,6.77-16.29-17.24-28.46-21-47.79-13.71-47.79-13.71Z" transform="translate(-480.19 -518.57)"/><path class="cls-22" d="M883.92,3229.44l-3.15,31s-11.45,7.57-21.54,1.72l-5.05-33.78Z" transform="translate(-480.19 -518.57)"/><path class="cls-23" d="M1041.91,2378.72q17.08,34.65,34.19,69.3c9.16,131.84,13.71,275.19,10.79,428.5-2.18,114.06-8.27,222.11-17,323.53l-46.35-2.12c-22.34-44.34-48.71-111.52-51.14-194.44-2.53-86.49,23.69-98,22-180.79-2.16-107.34-47.17-136-71.15-265.08-9.17-49.38-15.34-113.87-8-192.11Z" transform="translate(-480.19 -518.57)"/><path class="cls-24" d="M915.25,2365.51l68.4,7.13c41.05,71.43,52.51,145.78,45.31,178.66-10.19,46.53-37.15,61.43-35.67,108.14,1.47,46.22,28.7,58.21,46,112.69,12,37.72,8.81,72.4,2,140.22-13.7,136.61-46.69,178.39-19,223.18,7.85,12.73,22,27.88,49.71,39.45-.68,8.38-1.34,16.79-2.06,25.07l-46.35-2.12c-22.34-44.35-48.71-111.51-51.14-194.44-2.53-86.49,23.69-98,22-180.79-2.16-107.34-47.17-136-71.15-265.08C914.08,2508.24,907.91,2443.75,915.25,2365.51Z" transform="translate(-480.19 -518.57)"/><path class="cls-25" d="M980.61,2420.31c-21.39,116.64-40.28,241.47-55,373.86-17.79,159.84-27.29,310.54-31,450.46l-50.87,1.44c-66.82-132.19-70.9-221.81-61.27-280.16,3.71-22.49,13.8-66.58,16.1-132.47,1.6-45.93-1.33-80.89-5-122.91-8-92.13-17.76-112.24-19.16-182.71-1.31-66.14-1.58-99.6,17.29-119.14C841.39,2357.22,970.79,2415.75,980.61,2420.31Z" transform="translate(-480.19 -518.57)"/><path class="cls-26" d="M1347.35,1963.64l33.84-2.36c26.6,107.51,7.52,211.79-52.53,250.15-93.81,59.92-268.16-53-305.94-175.9-16.58-54-12.81-131.82,20.34-147,9.2-4.2,23.47-4.86,54.4,12.51,92.37,51.86,94.8,149.88,141.76,158.18C1260.1,2063,1293.81,2049.65,1347.35,1963.64Z" transform="translate(-480.19 -518.57)"/><path class="cls-27" d="M1089.07,2471.67c16.25-27-4.16-53-8.8-104-5.27-57.89,17-67.53,39.09-163.46,14.66-63.8,28.74-125,11.94-196.75-8-34.36-21.71-92.64-70-120.79-24.89-14.53-58.87-13.07-125.83-9.57-82.79,4.33-124.19,6.49-155.06,22.75-4.52,2.38-98.45,53.47-104.91,136.75-6.58,84.75,85.72,96.14,98,209.17,5.53,50.74-4.32,128.78-10.71,179.4-6.14,48.6-10.36,61-.77,75.76,23.12,35.46,93.89,25.35,235.43,5.14C1053.05,2498.11,1077,2491.79,1089.07,2471.67Z" transform="translate(-480.19 -518.57)"/><path class="cls-28" d="M873.72,2227.56c-6,22-27.51,38.48-42.5,92.07-3.23,11.57-26.27,93.95,3.61,114.23,17.27,11.71,32.77-10.48,74.66-13.37,72.61-5,107.19,56,154.62,39.33,8.23-2.89,19.09-9.06,29.94-23.22,2.16,12.76,1.79,23.85-5,35.07-12.12,20.12-36,26.44-91.54,34.37-141.54,20.21-212.31,30.32-235.43-5.14-9.59-14.72-5.37-27.16.77-75.76,6.39-50.62,16.24-128.66,10.71-179.4-12.31-113-104.61-124.42-98-209.17,1.76-22.66,10.09-42.84,21.24-60.4C813.88,2023.55,892.53,2158.34,873.72,2227.56Z" transform="translate(-480.19 -518.57)"/><path class="cls-29" d="M725.82,2394.28l23.43,15c4.2-4.85,13.94-14.65,29.15-18,17.13-3.77,36.8,1.63,37.25,7.1.37,4.38-11.6,8.8-13.46,9.48-14.94,5.52-26,.94-32.08,6.95-2.13,2.12-4.8,6.07-10.92,9.74a34.94,34.94,0,0,1-4.18,2.16c-10,3.87-27.09-13.49-28.57-15Z" transform="translate(-480.19 -518.57)"/><path class="cls-30" d="M795,2087c17-40.59,28.69-102.74,1.93-195-176.38,69.5-266.34,234.26-231.21,364.87C594.7,2364.53,700,2417,723.54,2428q8.19-18.66,16.4-37.33c-27.23-30.33-57.92-75.16-53.58-126.33C692.38,2193.41,760.72,2169.2,795,2087Z" transform="translate(-480.19 -518.57)"/><path class="cls-31" d="M931.19,1793.57s-1.39,30.85-11,54c-8.66,20.88-54.18,34-63.41,38.67s17.29,18.28,43.92,21,102.67-3.37,116.38-13.46-11-9.34-30-16.32-30-44.14-26.64-61S931.19,1793.57,931.19,1793.57Z" transform="translate(-480.19 -518.57)"/><path class="cls-32" d="M973.3,1782.38c13.82-13.57,15.75-15.16,17.26-19.85,6-18.84-8.57-44.63-27.73-51-1-.33-13.85-4.44-18.75,1.13-4.17,4.74,2,11.28-1,20.4-2.73,8.54-10.14,9.18-23.86,20.38-11.31,9.23-18.33,15-19.95,23-3.35,16.63,16.79,40.73,34.61,40.08C940.34,1816.33,942.08,1813.06,973.3,1782.38Z" transform="translate(-480.19 -518.57)"/><path class="cls-33" d="M935.67,1819.14s14.69,16.63,37.06,11.13c20-4.92,14.93-50.9.27-58.24-4.89-2.45-13.78-2.25-20.46,1-3.95,1.9-5,3.88-11.56,6.86-6,2.75-7.91,2.37-9.52,4.31-2,2.42-2.89,7.63,3.44,20.22-4.57-3.23-9.47-3.91-12.49-1.77a7,7,0,0,0-2.23,3.11C918.27,1811.42,924.19,1817.21,935.67,1819.14Z" transform="translate(-480.19 -518.57)"/><path class="cls-34" d="M2610.94,1196.59l5.17,27.91h0l-106.44.25-923.59,2.19c-23.76.06-45.62,19.7-48.87,43.87L1316.73,2744.34c-3.28,24.39,34.68,61.62,58.3,63.44l409.75,31.49v-.49l612.92,47h0l1.48.62c26.18,2,50.18-17,53.58-42.73,0,0,0,.11,0,.1l206.47-1573.25C2662.63,1245,2637.26,1196.52,2610.94,1196.59Z" transform="translate(-480.19 -518.57)"/><path class="cls-35" d="M2431.91,2813c-3.38,25.77-27.39,45-53.56,43l-1025.24-78.72c-23.6-1.81-40-23.06-36.75-47.45l200.42-1489.2c3.26-24.16,25.1-43.81,48.85-43.87l1031-2.84c26.31-.07,45,20.56,41.63,46.08Z" transform="translate(-480.19 -518.57)"/><path class="cls-7" d="M2445.53,1994.05c-1.68,12.76-13.6,22.28-26.63,21.8l-902.33-32.93c-11.91-.43-20.29-10.24-18.65-22.43L1515.66,1829c1.63-12.18,12.5-20.42,24.43-20.09L2443.21,1834c13,.37,22.27,9.57,20.59,22.33Z" transform="translate(-480.19 -518.57)"/><path class="cls-7" d="M2410.58,2261.22c-1.68,12.79-13.61,23.7-26.63,23.05l-901.65-44.54c-11.9-.59-20.18-12-18.54-24.18l17.88-134c1.64-12.2,12.61-22.65,24.52-22.17l902.2,36.39c13,.53,22.23,12.31,20.55,25.08Z" transform="translate(-480.19 -518.57)"/><path class="cls-36" d="M2463.88,1855.78a24.66,24.66,0,0,0-6.89-1.14l-903.14-25.06c-11.91-.35-22.79,7.92-24.41,20.07l-17.77,131.49c0,.35-.07.66-.1,1-9.16-2.58-15-11.26-13.67-21.66L1515.67,1829c1.62-12.15,12.49-20.42,24.41-20.07L2443.22,1834C2456,1834.36,2465.22,1843.28,2463.88,1855.78Z" transform="translate(-480.19 -518.57)"/><path class="cls-37" d="M2429.1,2117.87a21.16,21.16,0,0,0-7-1.48L1519.94,2080c-11.92-.48-22.9,10-24.52,22.17l-17.9,134a19.87,19.87,0,0,0-.18,2.55c-9.16-3-15-12.81-13.6-23.21l17.91-134c1.62-12.19,12.6-22.65,24.51-22.17l902.18,36.39A21.82,21.82,0,0,1,2429.1,2117.87Z" transform="translate(-480.19 -518.57)"/><path class="cls-38" d="M2170.79,2477.77c2.66-20.17-11.6-38.75-31.87-39.92l-466.75-26.8c-19.33-1.11-37.19,15.17-39.82,34.81L1613.09,2591c-2.63,19.67,10.78,38.49,30.1,39.81l466.51,31.92c20.26,1.39,38.92-15.72,41.59-35.92Z" transform="translate(-480.19 -518.57)"/><path class="cls-39" d="M2206,1499.64c-6.14,46.41-30,88.3-63.88,119.11-36.53,33.23-84.65,53.44-134.69,52.48-49.79-1-91.7-22.72-118.61-56.68-24.82-31.31-37-73-30.89-118.67,12.67-94.93,99.89-171.67,195.6-171.44C2150.18,1324.66,2218.82,1403.09,2206,1499.64Z" transform="translate(-480.19 -518.57)"/><path class="cls-7" d="M2113,1446.89c-5.52,41.58-43.9,74.89-85.57,74.39-41.5-.49-70.56-34.36-65.06-75.64s43.48-74.56,85-74.37C2089,1371.46,2118.48,1405.31,2113,1446.89Z" transform="translate(-480.19 -518.57)"/><path class="cls-7" d="M2142.15,1618.75c-36.53,33.23-84.65,53.44-134.69,52.48-49.79-1-91.7-22.72-118.61-56.68,30.8-42.92,81.6-71.45,135.55-70.75C2078.64,1544.51,2122.36,1574.56,2142.15,1618.75Z" transform="translate(-480.19 -518.57)"/><path class="cls-40" d="M2638.28,1240,2431.91,2813c-3.38,25.76-28.92,44.92-55.07,42.91l-615.77-47.28a328,328,0,0,1-70.53-109,336.16,336.16,0,0,1-18.73-68c-11.43-66.42-7-141.91,9.67-216a713.08,713.08,0,0,1,58.65-164.19c20.57-40.63,44.78-77.78,71.81-109,19.46-22.47,40.5-44.3,62.71-65.71,26.76-25.84,55.22-51.06,84.56-76,68.39-58.27,141.62-115.24,209.42-175.4,156.45-138.78,283.36-293.85,252.83-515.11-1-7-10.51-60.34-22.69-115.66l196.36-.54C2621.43,1193.89,2641.63,1214.53,2638.28,1240Z" transform="translate(-480.19 -518.57)"/></g></g></svg>