<svg id="Layer_1" data-name="Layer 1" xmlns="http://www.w3.org/2000/svg" xmlns:xlink="http://www.w3.org/1999/xlink" viewBox="0 0 1792.43 791.06"><defs><style>.cls-1{fill:#0bcbff;}.cls-2{clip-path:url(#clip-path);}.cls-3{fill:#fff;}.cls-4{opacity:0.35;}.cls-5{fill:#371a45;}.cls-6{fill:#ff1564;}.cls-7{fill:none;stroke:#293856;stroke-linecap:round;stroke-width:32.75px;}.cls-17,.cls-7{stroke-miterlimit:10;}.cls-8{fill:#293856;}.cls-9{fill:#22a7f0;}.cls-10{opacity:0.7;}.cls-11{fill:#afafb2;}.cls-12{fill:#32b1d1;}.cls-13{opacity:0.4;}.cls-14{opacity:0.3;}.cls-15{opacity:0.5;}.cls-16{fill:#111a28;}.cls-17{font-size:338.81px;fill:#1b1464;stroke:#1b1464;stroke-width:19px;font-family:Comfortaa-Bold, Comfortaa;font-weight:700;}.cls-18{letter-spacing:-0.04em;}.cls-19{letter-spacing:-0.02em;}</style><clipPath id="clip-path" transform="translate(-42.07 -113.94)"><ellipse class="cls-1" cx="419.01" cy="517.13" rx="311.37" ry="323.49"/></clipPath></defs><ellipse class="cls-1" cx="376.94" cy="403.19" rx="311.37" ry="323.49"/><g class="cls-2"><path class="cls-3" d="M605,428.8H788.88c6.11,0,9.34-7.79,5.12-12.47-3.64-4.05-9.34-5.79-16.12-4-2-15.92-13.83-28.15-28.18-28.15a25.86,25.86,0,0,0-16.63,6.19c-3.82-22.13-20.76-38.81-41.07-38.81s-37.29,16.71-41.1,38.87a34.86,34.86,0,0,0-21.44-7.5c-17.13,0-31.64,8.86-36.67,29.07C590.68,420.47,596.69,428.8,605,428.8Z" transform="translate(-42.07 -113.94)"/><path class="cls-3" d="M220.66,634.13h-172c-5.72,0-8.74-7.29-4.79-11.66,3.41-3.78,8.74-5.41,15.08-3.77,1.84-14.89,12.94-26.33,26.36-26.33a24.17,24.17,0,0,1,15.55,5.79c3.58-20.7,19.42-36.3,38.42-36.3s34.87,15.63,38.43,36.36a32.59,32.59,0,0,1,20.06-7c16,0,29.59,8.29,34.29,27.2C234,626.34,228.41,634.13,220.66,634.13Z" transform="translate(-42.07 -113.94)"/></g><path class="cls-3" d="M478.35,813.37a577,577,0,0,1-153-23.7c-10.48-3.27-18.87-13.89-15.85-25.62q17.46-59.16,34.91-118.33c3-10.22,12.72-15.88,21.77-13.07a450.31,450.31,0,0,0,117.24,18.16c9.46.05,17.15,8.41,17.17,19.1q.07,61.88.16,123.76C500.3,805.81,489.3,813.42,478.35,813.37Z" transform="translate(-42.07 -113.94)"/><g class="cls-4"><path class="cls-5" d="M500.64,750.84l.06,42.83c-.4,12.14-11.4,19.75-22.35,19.71a577.51,577.51,0,0,1-153.06-23.71c-10.48-3.27-18.86-13.89-15.83-25.62q6-20.47,12.07-40.95c-3,10.23,3.44,21.74,14.53,25.18a541.44,541.44,0,0,0,143.62,22.24C491.26,770.59,500.66,761.54,500.64,750.84Z" transform="translate(-42.07 -113.94)"/></g><path class="cls-5" d="M361.42,631.93a15.71,15.71,0,0,1,4.71.72,450.31,450.31,0,0,0,117.24,18.16c9.46.05,17.15,8.41,17.17,19.1q.07,61.88.16,123.76c-.4,12.1-11.33,19.7-22.24,19.7h-.11a577,577,0,0,1-153-23.7c-10.48-3.27-18.87-13.89-15.85-25.62q17.46-59.16,34.91-118.33c2.49-8.46,9.56-13.79,17.06-13.79m0-7.51h0c-11,0-20.61,7.67-24,19.1l-34.9,118.33a2,2,0,0,0-.07.26c-4.23,16.38,7.23,30.54,20.75,34.75l.1,0a581.33,581.33,0,0,0,154.89,24h.25c14.05,0,28.91-10.09,29.47-27v-.27l-.15-114.91V669.9a27.74,27.74,0,0,0-7-18.68,23.41,23.41,0,0,0-17.28-7.93,442.58,442.58,0,0,1-115.34-17.86,23,23,0,0,0-6.72-1Z" transform="translate(-42.07 -113.94)"/><path class="cls-3" d="M596.63,707a24.09,24.09,0,0,1-4.94,8.5c-7.91,9-20.39,9.11-20.39,9.11s10.32,4.82,4,11.55c-4.32,4.64-54.83,12-86.8-29.73-1.42-1.85-2.79-3.8-4.13-5.84l-7.64-43.71L472,629.83s3.78,3.25,9.91,8.21c2.92,2.36,6.38,5.11,10.21,8.08,19.48,15.07,48.74,35.78,67.61,40.14,7.19,1.67,13.31,2.82,18.39,3.83C594.35,693.29,600,695,596.63,707Z" transform="translate(-42.07 -113.94)"/><g class="cls-4"><path class="cls-5" d="M575.33,736.19c-4.51,4.85-59.39,12.71-90.93-35.57L472,629.83l1.23,1L477,656.62c21.2,68,95.65,84.42,97,71.82.08-.74.82-1.32,0-2.16C576.49,728.25,579.42,731.82,575.33,736.19Z" transform="translate(-42.07 -113.94)"/></g><g class="cls-4"><path class="cls-5" d="M596.63,707a24.09,24.09,0,0,1-4.94,8.5c-6.83,7.79-17.06,8.92-19.73,9.08a68.55,68.55,0,0,0-11.09-6s18.84.62,30.82-10.57a20.06,20.06,0,0,0,4.94-8.5c.14-.48.26-1,.36-1.39C597.88,700.26,597.75,703.1,596.63,707Z" transform="translate(-42.07 -113.94)"/></g><g class="cls-4"><path class="cls-5" d="M573.94,726.28a15.82,15.82,0,0,0-2.64-1.64s.24,0,.66,0A16.65,16.65,0,0,1,573.94,726.28Z" transform="translate(-42.07 -113.94)"/></g><path class="cls-5" d="M556,743.61c-2.55,0-5.18-.12-7.81-.35-16-1.45-45.91-8.63-66.76-40.53a3.85,3.85,0,0,1,1-5.22,3.54,3.54,0,0,1,5,1c16.19,24.78,38.23,33.38,53.87,36.24,16.53,3,29.32.32,31.55-1.25.43-.47,1-1.25.92-1.82-.22-1.23-2.46-2.92-3.92-3.61a3.81,3.81,0,0,1-2-4.21,3.63,3.63,0,0,1,3.5-3c.1,0,11-.24,17.73-7.89a19.79,19.79,0,0,0,4.15-7c.94-3.32,1.05-5.51.35-6.7-1.43-2.44-7.55-3.81-16-5.49l-2.47-.49c-4.65-.91-9.91-1.95-16-3.36-30.88-7.15-86.88-55.17-89.25-57.21a3.86,3.86,0,0,1-.48-5.29,3.52,3.52,0,0,1,5.09-.49c.57.49,57,48.9,86.21,55.65,6,1.39,11.21,2.41,15.8,3.32l2.49.48c10.94,2.17,17.79,3.76,20.85,9,2.41,4.09,1.49,9,.42,12.74a28,28,0,0,1-5.74,10,30.5,30.5,0,0,1-14.77,9,9.33,9.33,0,0,1,1.24,3.2c.39,2.07.19,5.23-2.9,8.55C575.17,741.77,566.23,743.61,556,743.61Z" transform="translate(-42.07 -113.94)"/><path class="cls-5" d="M321.14,479.74a3.67,3.67,0,0,1-3.6-3.43c-1.94-22.92,5.06-34.5,11.24-44.71,5.94-9.82,11.06-18.3,7.47-36.22-4.11-20.53-6.06-28.37-6.08-28.45a3.76,3.76,0,0,1,2.58-4.58,3.62,3.62,0,0,1,4.42,2.69c.08.32,2,8,6.17,28.81s-2.23,31.49-8.44,41.75c-5.84,9.66-11.88,19.65-10.16,40a3.71,3.71,0,0,1-3.28,4.07Z" transform="translate(-42.07 -113.94)"/><path class="cls-6" d="M341.68,360.85l9,18.19c2.65,5.34-.39,11.89-6.09,12.95a54.16,54.16,0,0,1-6.7.77,36.5,36.5,0,0,1-9.56-.64,9.06,9.06,0,0,1-6.15-12.72l8.59-18.55Z" transform="translate(-42.07 -113.94)"/><g class="cls-4"><path class="cls-5" d="M325,383.21a37,37,0,0,0,9.56.63,52.86,52.86,0,0,0,6.71-.76,8.85,8.85,0,0,0,7.05-8.77l-6.68-13.46H330.8l-8.59,18.55a9.3,9.3,0,0,0-.7,2.17A8.69,8.69,0,0,0,325,383.21Z" transform="translate(-42.07 -113.94)"/></g><path class="cls-5" d="M335.56,396.82a39.08,39.08,0,0,1-8-.78,12.54,12.54,0,0,1-8.78-7,13.34,13.34,0,0,1-.08-11.4l9.65-20.8H344l10.09,20.35a13.37,13.37,0,0,1,.1,11.74,12.36,12.36,0,0,1-8.92,7,55.69,55.69,0,0,1-7.18.82C337.25,396.79,336.4,396.82,335.56,396.82Zm-2.34-32-7.55,16.28a5.07,5.07,0,0,0,0,4.37,4.89,4.89,0,0,0,3.41,2.71,33.59,33.59,0,0,0,8.6.56,50.23,50.23,0,0,0,6.24-.71,4.69,4.69,0,0,0,3.37-2.65,5.17,5.17,0,0,0,0-4.54l-8-16Z" transform="translate(-42.07 -113.94)"/><path class="cls-3" d="M474.71,618" transform="translate(-42.07 -113.94)"/><path class="cls-7" d="M474.71,618" transform="translate(-42.07 -113.94)"/><path class="cls-8" d="M346.77,550.62c0,.12,0,.23,0,.35a60.46,60.46,0,0,0,3.71,5Z" transform="translate(-42.07 -113.94)"/><path class="cls-3" d="M396.31,618.91l-15.66,17.93-.6.68-20.33,23.26a43.22,43.22,0,0,1-4.52-4c-12.39-12.35-45.71-55-40.45-153.12a36.14,36.14,0,0,1-10.32-7.08c-12.6-12-1.26-40.83,4.37-50.1,6.2-10.23,12.76-6,13.57-5.42,4.09-4.11,10.29-5.08,19.47-1.83,23,8.11,23.74,24.34,23.74,24.34.8,3.44,2.49,13.39,4.76,26.71,1.68,9.95,3.67,21.79,5.81,34.22,4.62,26.75,10,56.2,14.44,75.37C392.75,609.05,394.71,615.89,396.31,618.91Z" transform="translate(-42.07 -113.94)"/><g class="cls-4"><path class="cls-5" d="M373.46,645.06l-13.73,15.72a41.08,41.08,0,0,1-4.53-4c-12.39-12.35-45.71-55-40.46-153.12a36.26,36.26,0,0,1-10.31-7.07c-7.07-6.75-6.6-18.8-3.83-29.7,1.86,33,26.17,31,33.6,29.74,3.28-.55,4.71-11.33,4.71-11.33-.37,6.91,1.53,14-.68,20-2.87,7.79-12,8.55-12.63,19.24-4.23,77.71,34.72,107.58,45.77,118.6C372.16,643.86,372.86,644.52,373.46,645.06Z" transform="translate(-42.07 -113.94)"/></g><path class="cls-5" d="M399.51,613.89a3.57,3.57,0,0,1-3.1-1.82c-16.74-29-26.26-94-31.38-129-1.29-8.83-2.31-15.8-3-18.71l-.07-.33,0-.34c0-.53-1.18-13.86-21.29-21-6.3-2.23-11.11-2.31-14.3-.26-3.54,2.28-5.78,7.45-6.87,15.82-.89,6.88,1.76,11.77,4.72,12.34,3.5.68,8.66-4.61,11.73-17.83a3.62,3.62,0,0,1,4.36-2.78A3.77,3.77,0,0,1,343,454.6c-4.47,19.31-13.31,24.78-20.09,23.46-7.36-1.44-11.9-10.35-10.56-20.73,1.4-10.74,4.74-17.67,10.23-21.2,5.19-3.34,11.87-3.5,20.43-.48,23.27,8.21,25.88,24.46,26.16,27.3.72,3.3,1.69,9.94,3,19,4.69,32,14.43,98.52,30.43,126.22a3.85,3.85,0,0,1-1.24,5.16A3.53,3.53,0,0,1,399.51,613.89Z" transform="translate(-42.07 -113.94)"/><path class="cls-5" d="M359.72,664.53a3.47,3.47,0,0,1-2.09-.69c-.56-.41-13.72-10.35-26-35.29-11-22.37-23.49-61.71-20.6-122.59a43,43,0,0,1-9-6.62c-14-13.35-3.29-43.28,3.75-54.88,2.91-4.81,6.38-7.62,10.31-8.35a11.13,11.13,0,0,1,8.59,2,3.85,3.85,0,0,1,.68,5.26,3.53,3.53,0,0,1-5.07.71h0a4.16,4.16,0,0,0-3-.57c-1.8.38-3.66,2.09-5.39,5-4.94,8.13-15.74,35.08-5,45.33a33.37,33.37,0,0,0,9.17,6.34l2.44,1-.14,2.72c-3.25,60.28,8.77,98.93,19.43,120.74,11.51,23.55,23.93,33,24.06,33.14a3.86,3.86,0,0,1,.82,5.24A3.58,3.58,0,0,1,359.72,664.53Z" transform="translate(-42.07 -113.94)"/><path class="cls-5" d="M323.73,577.7a44.06,44.06,0,0,1-6.08-.35,3.73,3.73,0,0,1-3-4.28,3.62,3.62,0,0,1,4.11-3.15h0c1.64.25,40.5,5.7,55.82-36.53a3.56,3.56,0,0,1,4.65-2.19,3.8,3.8,0,0,1,2.11,4.84C367.73,573.5,336.86,577.7,323.73,577.7Z" transform="translate(-42.07 -113.94)"/><path class="cls-5" d="M321.56,509a20.23,20.23,0,0,1-8.24-1.92,3.8,3.8,0,0,1-1.9-4.93,3.56,3.56,0,0,1,4.75-2c3.72,1.66,6.85,1.72,9.56.2,5.35-3,9.61-12.35,12-26.35,1.9-11.09-1.21-13.84-1.24-13.86a.87.87,0,0,0,.23.14l3.56-6.53c1.26.74,7.37,5.24,4.57,21.57-2.87,16.77-8.15,27.42-15.69,31.65A15.37,15.37,0,0,1,321.56,509Z" transform="translate(-42.07 -113.94)"/><path class="cls-3" d="M485.27,698.57,484,707l-.45-3.67A26.15,26.15,0,0,1,485.27,698.57Z" transform="translate(-42.07 -113.94)"/><path class="cls-3" d="M517.25,883.67c-25.9,21.4-63.54,21.52-76.64,9.42-13.28-12.27-16.75-36.46-21.55-63.53-2-11.37-4.64-29.29-4.64-29.29a47.17,47.17,0,0,1-11.48,0,36.71,36.71,0,0,1-10.41-2.65s-5.73,13.93-13.94,33.12c-10.48,24.51-25.87,46.23-34.12,52.7-10.4,8.16-49.88-4.19-69.65-31.77-11.59-16.17-13.45-37.11-2.64-46.8a19.82,19.82,0,0,1,7.35-4.13c13.37-4.23,28.91,2.16,28.91,2.16,4.57-19.77,9.5-38.17,14.47-55q4.72-16,9.42-30.06c8.63-26,16.81-46.77,22.87-61.1,6.21-14.65,10.2-22.59,10.2-22.59A51.42,51.42,0,0,1,370,621.68a.93.93,0,0,0,.05-.1,51.86,51.86,0,0,1,20.52-21.73c10-5.66,23.87-8.84,42.92-5.9,31.83,4.91,43.85,25.34,48.18,43,.09.35.18.71.25,1.06a82.21,82.21,0,0,1,1.94,14.47c.07,1.65.1,3.19.09,4.58a63.64,63.64,0,0,1-.45,7.85s2.69,15.22,5,41.52c.82,9.41,1.61,20.25,2.2,32.32.43,8.91.77,18.49.94,28.67,0,1,0,2,.05,3,.25,18.36,0,38.57-1.15,60.21,0,0,14-.67,26,6.76a27.29,27.29,0,0,1,9.83,10C533.07,859.52,527.83,874.93,517.25,883.67Z" transform="translate(-42.07 -113.94)"/><g class="cls-4"><path class="cls-5" d="M517.25,883.67c-25.9,21.4-63.55,21.52-76.64,9.42-13.29-12.27-16.75-36.46-21.55-63.52-2-11.39-4.64-29.3-4.64-29.3a47.17,47.17,0,0,1-11.48,0,36.37,36.37,0,0,1-10.41-2.66s-5.73,13.94-13.94,33.13c-10.48,24.51-25.87,46.23-34.12,52.7-10.41,8.17-49.88-4.19-69.64-31.77-11.6-16.18-13.46-37.11-2.65-46.8a47.14,47.14,0,0,1,31.74,15c12.56,13.31,33.91,40.24,43.81,35.39s20.38-32.81,21-44.79-6.21-25.28-2.52-25.89,11.25,6.45,12.42,2.62-8.74-15.63-4.95-20.87C376.05,763,388,782,402.36,784.2c18.78,2.82,31.55-13.21,38.73-9.28,2.88,1.58-12.33,14.42-8.63,16.38s13.77,0,14.41,3.37c1.46,7.76-18,15.36-18.4,23.91s6,49,17.27,49.94c5.33.46,22.26-4.45,39-10.94,15.84-6.13,27.51-17.88,41.66-10.15C533.07,859.53,527.83,874.93,517.25,883.67Z" transform="translate(-42.07 -113.94)"/></g><path class="cls-5" d="M468,905c-12.46,0-23.36-3.19-29.76-9.11-13.34-12.32-17.25-34.6-21.77-60.39l-.93-5.25c-1.47-8.29-3.27-20.13-4.13-25.94a55.82,55.82,0,0,1-8.81-.27,43.25,43.25,0,0,1-8.05-1.69c-2.16,5.23-6.78,16.31-12.62,29.95-10.68,25-26.31,47.16-35.24,54.17-4.81,3.78-12.55,3.57-18.19,2.73-16.85-2.5-41.73-14.6-56.53-35.25-9.25-12.91-12.8-29-9-40.89,2.51-7.95,7.9-13.45,15.58-15.88,10.32-3.27,21.57-.84,27.36.91,23.62-99.83,59.41-166.84,59.77-167.52a3.55,3.55,0,0,1,4.92-1.44,3.84,3.84,0,0,1,1.39,5.12c-.36.67-36.62,68.62-60,169.56L311,808l-3.87-1.6c-.14,0-14.56-5.84-26.51-2a15.94,15.94,0,0,0-10.82,11c-3.06,9.68.06,23,8,34.05,13.56,18.93,36.34,30,51.75,32.3,5.88.88,10.67.39,12.81-1.29,8-6.29,22.92-27.66,33-51.22,8.11-19,13.86-33,13.92-33.09l1.45-3.51,3.36,1.56a33.74,33.74,0,0,0,9.31,2.36,45.43,45.43,0,0,0,10.56,0l3.57-.56.55,3.71c0,.18,2.63,18,4.62,29.18l.92,5.28c4.29,24.42,8,45.51,19.47,56.12s46.79,11.28,72-9.55c7-5.81,11.24-14.84,10.71-23-.46-7-4.25-12.91-11-17.07-10.94-6.78-23.88-6.25-24-6.24l-4,.19.21-4.14c5-95.72-6.79-171.46-6.91-172.21a3.74,3.74,0,0,1,3-4.32,3.63,3.63,0,0,1,4.15,3.1c.12.75,11.72,75.2,7.2,169.94,5.33.32,15.15,1.7,24.07,7.22,8.73,5.41,13.87,13.58,14.48,23,.7,10.71-4.45,22-13.42,29.39A82.84,82.84,0,0,1,468,905Z" transform="translate(-42.07 -113.94)"/><g class="cls-4"><path class="cls-5" d="M491.72,770.46c-10.37-9.25-24.41-13-31.68-14.46l-.83,5.93c-.41,8.25-8.08,14-15.73,11.74-11-3.2-25.82-7.23-37.15-9.08s-26-3.51-37-4.63c-7.87-.8-13-9-10.59-16.76l.6-3.36c-9.76-.7-24.87-.08-36.39,8.08,3.14-10.67,6.31-20.7,9.42-30.06,12.49-7.72,29.56-7.24,38.28-6.35,3.92-5,8.21-9,11-8.74,35.48,3.9,58.94,10.64,70.71,14.71,1.94.68,3.73,3.95,5.21,8.11,3.17.49,20.45,3.5,33.18,13.19.43,8.91.77,18.49.94,28.67C491.69,768.45,491.71,769.45,491.72,770.46Z" transform="translate(-42.07 -113.94)"/></g><path class="cls-3" d="M452.32,745.58s30.5,3.07,41.84,23.89c0,0,6.57-12.56,2.91-23.74-7.61-23.28-43.07-27.9-43.07-27.9Z" transform="translate(-42.07 -113.94)"/><g class="cls-4"><path class="cls-5" d="M494.16,769.47c-11.34-20.82-41.84-23.89-41.84-23.89L454,717.83s.38,0,1.06.17l-1,15.83s30.5,3.06,41.84,23.89a36.72,36.72,0,0,0,2.21-5.54C498.46,761.24,494.16,769.47,494.16,769.47Z" transform="translate(-42.07 -113.94)"/></g><path class="cls-5" d="M494.23,777.22l-3.22-5.9c-10.26-18.84-38.75-22-39-22L448.5,749l2.13-35.35,3.82.5c1.54.2,37.8,5.19,46,30.41,4.12,12.6-2.85,26.17-3.15,26.74Zm-38.09-34.88c7.66,1.34,26.08,5.84,37.13,19.3,1.17-4.09,2-9.64.38-14.7-5.42-16.55-27.36-22.8-36.3-24.69Z" transform="translate(-42.07 -113.94)"/><path class="cls-3" d="M372,732.43s-29.92-6.83-46.88,9.36c0,0-2.53-14,4.26-23.51,14.13-19.73,49.24-12.79,49.24-12.79Z" transform="translate(-42.07 -113.94)"/><g class="cls-4"><path class="cls-5" d="M378.59,705.49,372,732.43s-29.92-6.83-46.88,9.36c0,0-1.62-8.95,1.19-17.38a39.91,39.91,0,0,0,.46,6.51c17-16.19,46.88-9.36,46.88-9.36l4-16.24Z" transform="translate(-42.07 -113.94)"/></g><path class="cls-5" d="M322.93,748.53l-1.1-6.1c-.11-.64-2.71-15.65,4.86-26.21,15.2-21.21,51-14.41,52.52-14.11l3.46.68-8.28,33.71-3.13-.71c-.32-.07-28.48-6.22-43.93,8.54Zm41.63-40.77c-10.71,0-25.1,2.17-32.56,12.57-3.25,4.55-4,10.49-4.05,14.87,14.64-9.68,34-7.9,41.57-6.72l5-20.12A84.24,84.24,0,0,0,364.56,707.76Z" transform="translate(-42.07 -113.94)"/><path class="cls-3" d="M362.21,734.34c-2.27,7.3,2.54,14.9,9.88,15.64,10.27,1,24.09,2.61,34.58,4.32s24.45,5.49,34.67,8.48c7.15,2.09,14.31-3.25,14.69-10.95l2.1-14.91c.27-5.38-3.6-24.88-8.52-26.59-11-3.8-32.88-10.09-66-13.73-5.45-.6-17,16.57-18.64,22Z" transform="translate(-42.07 -113.94)"/><g class="cls-4"><path class="cls-5" d="M362.21,734.34c-2.27,7.3,2.54,14.9,9.88,15.64,10.27,1,24.09,2.61,34.58,4.32s24.45,5.49,34.67,8.48c7.15,2.09,14.31-3.25,14.69-10.95l2.1-14.91c.27-5.38-3.6-24.88-8.52-26.59-11-3.8-32.88-10.09-66-13.73-5.45-.6-17,16.57-18.64,22Z" transform="translate(-42.07 -113.94)"/></g><path class="cls-5" d="M444.5,766.68a14.13,14.13,0,0,1-4.05-.59c-9.85-2.87-23.78-6.67-34.3-8.39s-24.51-3.28-34.38-4.29a14.73,14.73,0,0,1-11-6.91,15.87,15.87,0,0,1-1.79-13l2.83-16c1.55-5,13.66-25.28,22.14-24.36,34,3.73,56.37,10.31,66.7,13.89,7.86,2.73,11,25.82,10.78,30l0,.33-2.08,14.76a15.51,15.51,0,0,1-6.18,11.59A14.38,14.38,0,0,1,444.5,766.68Zm-76.31-47.23-2.83,15.95a8.83,8.83,0,0,0,.95,7.33,8.2,8.2,0,0,0,6.1,3.83c10,1,24.09,2.6,34.77,4.34,10.84,1.78,25.05,5.64,35.06,8.57a8,8,0,0,0,7.05-1.29,8.63,8.63,0,0,0,3.43-6.53l0-.32,2.08-14.74c.21-5.91-3.75-21.42-6.37-23-10-3.46-31.86-9.87-65.2-13.54C380.14,700.33,370.05,713.88,368.19,719.45Zm-6,14.89h0Z" transform="translate(-42.07 -113.94)"/><path class="cls-3" d="M443.38,749.4c-10.23-3-24.11-6.75-34.68-8.48s-24.31-3.27-34.58-4.32c-7.34-.75-12.15-8.35-9.88-15.64l3.38-10.89,5.77-18.6a11.58,11.58,0,0,1,12.25-8.25c33.12,3.64,55,9.92,66,13.73a12,12,0,0,1,7.86,12l-.16,3.28-1.28,26.22C457.68,746.15,450.52,751.49,443.38,749.4Z" transform="translate(-42.07 -113.94)"/><g class="cls-4"><path class="cls-5" d="M443.38,749.4c-10.23-3-24.11-6.75-34.68-8.48s-24.31-3.27-34.58-4.32c-7.34-.75-12.15-8.35-9.88-15.64l3.38-10.89c2.75,22.76,55.81,28.59,58.26,17.37.22-1,.55-7.31,1.22-8.05,2-2.22,5.88,2.26,9.72,3.22,3.49.87,7.79-1.17,8.88,1.4.51,1.22-.93,6.78-1.22,8a5.61,5.61,0,0,1-.91,2c10.93-3.19,13.27-11.08,15.77-21.87l-1.28,26.22C457.68,746.15,450.52,751.49,443.38,749.4Z" transform="translate(-42.07 -113.94)"/></g><path class="cls-5" d="M446.53,753.29a14.59,14.59,0,0,1-4.06-.58c-9.84-2.88-23.77-6.67-34.29-8.39S383.67,741,373.8,740a14.77,14.77,0,0,1-11-6.91,15.89,15.89,0,0,1-1.71-13.22l9.14-29.48A15,15,0,0,1,386,679.8c34,3.73,56.37,10.3,66.7,13.89a15.49,15.49,0,0,1,10.13,15.44l-1.45,29.49a15.58,15.58,0,0,1-6.19,11.77A14.43,14.43,0,0,1,446.53,753.29Zm-62.11-66.7a8.34,8.34,0,0,0-7.88,5.94L367.39,722a8.83,8.83,0,0,0,.95,7.33,8.21,8.21,0,0,0,6.1,3.84c10,1,24.09,2.59,34.77,4.34,10.84,1.77,25.05,5.64,35.06,8.56a7.93,7.93,0,0,0,7.05-1.28,8.63,8.63,0,0,0,3.43-6.53l1.45-29.49a8.6,8.6,0,0,0-5.61-8.57c-10.08-3.49-32-9.9-65.3-13.57A8.46,8.46,0,0,0,384.42,686.59ZM364.24,721h0Z" transform="translate(-42.07 -113.94)"/><path class="cls-9" d="M429.12,718.47c.18-.79.44-5.86,1-6.46,1.6-1.77,4.71,1.82,7.8,2.59" transform="translate(-42.07 -113.94)"/><path class="cls-9" d="M445,722.91c-.83,3.61-5.32,5.6-10,4.43s-7.85-5.05-7-8.67c.21-.9.51-6.7,1.12-7.38,1.83-2,5.38,2.07,8.91,3,3.2.8,7.14-1.07,8.14,1.29C446.63,716.65,445.31,721.75,445,722.91Z" transform="translate(-42.07 -113.94)"/><g class="cls-4"><path class="cls-5" d="M445,722.91c-.83,3.61-5.32,5.6-10,4.43s-7.85-5.05-7-8.67c.21-.9.51-6.7,1.12-7.38,1.83-2,5.38,2.07,8.91,3,3.2.8,7.14-1.07,8.14,1.29C446.63,716.65,445.31,721.75,445,722.91Z" transform="translate(-42.07 -113.94)"/></g><path class="cls-5" d="M437.67,729.39a12.49,12.49,0,0,1-3.05-.38c-5.59-1.39-9.28-6.21-8.24-10.74,0-.21.13-1.1.2-1.82.4-4.16.63-5.57,1.32-6.34,2-2.23,4.76-.6,7,.72a14.22,14.22,0,0,0,3.56,1.74,11.59,11.59,0,0,0,3.4.08c2.13-.16,4.79-.35,5.87,2.19.48,1.14.25,3.15-.9,7.94l-.13.53h0C445.8,727,442.05,729.39,437.67,729.39Zm-7.24-16.94c-.23.9-.44,3.18-.56,4.35a20,20,0,0,1-.27,2.27c-.61,2.64,2,5.66,5.79,6.59s7.43-.51,8-3.15l.13-.56c1-4,1.08-5.32,1.05-5.78-.28-.26-1.7-.15-2.57-.09a14,14,0,0,1-4.4-.16,17.19,17.19,0,0,1-4.45-2.11A10.5,10.5,0,0,0,430.43,712.45ZM445,722.91h0Zm-.44-6.84Z" transform="translate(-42.07 -113.94)"/><ellipse class="cls-9" cx="437.63" cy="713.41" rx="6.72" ry="8.79" transform="matrix(0.26, -0.96, 0.96, 0.26, -408.24, 832.66)"/><g class="cls-10"><path class="cls-3" d="M439.14,710.31c3.44.85,6,3.15,6.86,5.74a4.48,4.48,0,0,0,.16-.52c.83-3.62-2.31-7.5-7-8.67s-9.2.82-10,4.43a5.41,5.41,0,0,0,.16,2.93C430.39,710.93,434.66,709.19,439.14,710.31Z" transform="translate(-42.07 -113.94)"/></g><path class="cls-5" d="M438.83,722a12.76,12.76,0,0,1-3.09-.39c-5.59-1.39-9.28-6.21-8.24-10.74A7.54,7.54,0,0,1,432,705.7a11.69,11.69,0,0,1,7.5-.51c5.59,1.39,9.28,6.21,8.24,10.74a7.52,7.52,0,0,1-4.53,5.19A10.8,10.8,0,0,1,438.83,722Zm-2.4-13.77a7.61,7.61,0,0,0-3.11.62,4.22,4.22,0,0,0-2.6,2.82c-.61,2.64,2,5.66,5.79,6.59A8.46,8.46,0,0,0,442,718a4.22,4.22,0,0,0,2.6-2.82c.61-2.64-2.05-5.66-5.79-6.59A9.47,9.47,0,0,0,436.43,708.25Z" transform="translate(-42.07 -113.94)"/><path class="cls-5" d="M411,744.18a3.25,3.25,0,0,1-.44,0,2.86,2.86,0,0,1-2.29-3.28l3.68-24.31a3,3,0,0,0-1.12-2.85l-7-5.38a8.85,8.85,0,0,1-3.29-8.34l2.21-14.55a2.77,2.77,0,0,1,3.16-2.38,2.85,2.85,0,0,1,2.29,3.28L406,700.88a3,3,0,0,0,1.12,2.85l7,5.38a8.84,8.84,0,0,1,3.29,8.34l-3.69,24.31A2.79,2.79,0,0,1,411,744.18Z" transform="translate(-42.07 -113.94)"/><path class="cls-11" d="M341.82,884.9c-11.86,4.37-41.29-5.1-60.53-25.39h0a74.17,74.17,0,0,1-6.45-7.8c-8.86-12.36-12-27.49-8.22-38.26,4.68-3.46,12.09-5.14,22.89,2.21,10.29,7,19.11,18.73,26,28.05h0c.93,1.25,1.83,2.46,2.69,3.6C328.35,860.8,347.4,875.07,341.82,884.9Z" transform="translate(-42.07 -113.94)"/><g class="cls-4"><path class="cls-5" d="M341.82,884.9c-11.86,4.37-41.29-5.1-60.53-25.39,6.74,3.89,16.44,7.28,26.26,3,8.59-3.72,9.4-11.65,8-18.82.93,1.25,1.83,2.46,2.69,3.6C328.35,860.8,347.4,875.07,341.82,884.9Z" transform="translate(-42.07 -113.94)"/></g><g class="cls-10"><path class="cls-3" d="M311.7,838.59a225.84,225.84,0,0,0-19-13.58,39.78,39.78,0,0,0-6.55-3.37c-9.24-3.64-18.86,3.18-19.64,12.78-2-7.53-2.08-14.94.06-21,4.68-3.46,12.09-5.14,22.89,2.21C298,821.42,305.46,830.4,311.7,838.59Z" transform="translate(-42.07 -113.94)"/></g><path class="cls-11" d="M517.25,883.67a73.16,73.16,0,0,1-12.89,8.52c-24.19,12.62-52.71,11.1-63.75.9a35.14,35.14,0,0,1-3.38-3.62,7.32,7.32,0,0,1,.36-5.25c4-8.93,15-10.34,29.24-14,8.94-2.27,19.18-5.43,29.77-11.85,12.79-7.75,25.67-12.47,32.36-3.83C530.9,865.1,525.82,876.58,517.25,883.67Z" transform="translate(-42.07 -113.94)"/><g class="cls-4"><path class="cls-5" d="M504.36,892.19c-24.19,12.62-52.71,11.1-63.75.9a35.14,35.14,0,0,1-3.38-3.62,7.32,7.32,0,0,1,.36-5.25c4-8.93,15-10.34,29.24-14-.55,3.53-.8,9.57,2.45,14.81C474.77,893.94,494.53,893.17,504.36,892.19Z" transform="translate(-42.07 -113.94)"/></g><g class="cls-10"><path class="cls-3" d="M522.1,878.74a31.32,31.32,0,0,0,2.12-6.8c1.5-8-4.78-15.21-12.53-14.16-5.95.8-12.86,4.09-19.75,8.27-14.61,8.85-30.62,8.87-43.38,9.11,11.34-4.26,29.12-5.29,48-16.76,12.79-7.75,25.67-12.47,32.36-3.83C530.49,862.92,527.63,871.86,522.1,878.74Z" transform="translate(-42.07 -113.94)"/></g><path class="cls-5" d="M335,889.34c-17.19,0-46.23-12.42-62.83-35.58-9.5-13.26-12.91-29.55-8.67-41.51l.36-1,.83-.62c5.14-3.79,13.93-6.5,26.63,2.14,11,7.46,20,19.62,27.26,29.39.78,1.05,1.53,2.07,2.26,3,2.78,3.71,6.37,7.59,9.84,11.35,9.91,10.71,19.26,20.83,14,30.1l-.61,1.08-1.14.42A23.21,23.21,0,0,1,335,889.34Zm6.82-4.44h0Zm-72.44-69.24c-2.87,9.63.31,23.12,8.1,34,17.44,24.33,49.77,35.2,61.9,32.4,1.09-5-6.62-13.32-13.47-20.74-3.59-3.88-7.3-7.89-10.3-11.88l-2.28-3.06c-6.95-9.36-15.61-21-25.64-27.84C280.43,813.59,274.28,812.63,269.38,815.66Z" transform="translate(-42.07 -113.94)"/><path class="cls-5" d="M302.12,599.25a3.66,3.66,0,0,1-3.58-3.26c-2.43-18.8,6.57-28.19,13.15-35s8.18-9,3.48-15.38c-18.72-25.32-8.2-45.2-7.74-46a3.54,3.54,0,0,1,4.93-1.41,3.85,3.85,0,0,1,1.37,5.11c-.38.72-8.47,16.6,7.17,37.75,8.77,11.86,1.94,19-4.09,25.26S303.75,579.87,305.7,595a3.72,3.72,0,0,1-3.1,4.22A2.59,2.59,0,0,1,302.12,599.25Z" transform="translate(-42.07 -113.94)"/><path class="cls-5" d="M468,904.7c-12.38,0-23.19-3.17-29.55-9a38.1,38.1,0,0,1-3.7-4l-.42-.51-.2-.64a10.77,10.77,0,0,1,.5-7.74c4.09-9.27,13.72-11.59,25.91-14.52,9.8-2.36,22-5.3,34.44-12.84,6.55-4,26.5-16.07,36.61-3l.52.67.15.85c2.12,11.48-3,24.21-12.9,32.43h0A82.51,82.51,0,0,1,468,904.7Zm-27.7-16.86a32.71,32.71,0,0,0,2.56,2.68c11.57,10.68,47.06,11.39,72.37-9.54h0c7.66-6.32,11.87-16.21,10.67-24.86-4.58-4.93-13.62-3.2-27.58,5.27C485,869.44,472.22,872.51,462,875c-10.82,2.61-18.64,4.49-21.37,10.68A3.87,3.87,0,0,0,440.25,887.84Z" transform="translate(-42.07 -113.94)"/><path class="cls-12" d="M489.23,659.06" transform="translate(-42.07 -113.94)"/><path class="cls-5" d="M417.91,828.86a2.69,2.69,0,0,1-2.39-1.49,2.88,2.88,0,0,1,1.11-3.82c1.78-1,43.78-24.08,65.69-15.18A19.68,19.68,0,0,1,494,821a2.84,2.84,0,0,1-1.67,3.59,2.69,2.69,0,0,1-3.45-1.74,14.2,14.2,0,0,0-8.49-9.19c-19.6-8-60.74,14.67-61.15,14.9A2.61,2.61,0,0,1,417.91,828.86Z" transform="translate(-42.07 -113.94)"/><path class="cls-5" d="M383.16,823.83a2.69,2.69,0,0,1-2.13-1.07c-.26-.34-26.15-34-49.85-36.43a21.77,21.77,0,0,0-17.5,5.71,2.65,2.65,0,0,1-3.83-.3,2.89,2.89,0,0,1,.3-4,27.14,27.14,0,0,1,21.56-7c26,2.62,52.46,37.07,53.58,38.54a2.9,2.9,0,0,1-.45,4A2.64,2.64,0,0,1,383.16,823.83Z" transform="translate(-42.07 -113.94)"/><path class="cls-5" d="M381.59,781.62a68.51,68.51,0,0,0,6.05,7.54c1,1.13,2.16,2.11,3.21,3.11s2.16,1.86,3.16,3l.21.23a3,3,0,0,1-.08,4.08,2.73,2.73,0,0,1-3.1.53,14.21,14.21,0,0,1-4.38-3.35,19.83,19.83,0,0,1-3.07-4.54,26.52,26.52,0,0,1-2-5,21.44,21.44,0,0,1-.8-5.3.43.43,0,0,1,.41-.43.39.39,0,0,1,.33.18Z" transform="translate(-42.07 -113.94)"/><path class="cls-5" d="M428.19,791.52a13,13,0,0,1-1.95,4.19,19.24,19.24,0,0,1-3.05,3.45,17.67,17.67,0,0,1-3.75,2.59,12.14,12.14,0,0,1-4.3,1.28,2.82,2.82,0,0,1-3-2.64,2.92,2.92,0,0,1,1.32-2.73l.26-.17a12.4,12.4,0,0,1,1.69-.81c.56-.26,1.15-.43,1.71-.67,1.14-.42,2.3-.81,3.48-1.25a36.39,36.39,0,0,0,6.94-3.67l.05,0a.4.4,0,0,1,.57.12A.45.45,0,0,1,428.19,791.52Z" transform="translate(-42.07 -113.94)"/><path class="cls-5" d="M265.35,830.69a2.22,2.22,0,0,1-2.17-1.91,2.28,2.28,0,0,1,1.8-2.65c1.32-.23,2.85-.44,4.62-.68,6.91-1,17.35-2.39,25.1-6.85a2.17,2.17,0,0,1,3,.9,2.33,2.33,0,0,1-.86,3.11c-8.48,4.88-19.42,6.39-26.66,7.39-1.73.23-3.23.44-4.46.66A2.31,2.31,0,0,1,265.35,830.69Z" transform="translate(-42.07 -113.94)"/><path class="cls-5" d="M271.14,848.11a2.23,2.23,0,0,1-2.18-2,2.28,2.28,0,0,1,1.87-2.59c7.87-1.15,29.69-5.36,36.14-11a2.16,2.16,0,0,1,3.11.29,2.35,2.35,0,0,1-.28,3.23c-8.73,7.59-37.15,11.82-38.35,12Z" transform="translate(-42.07 -113.94)"/><path class="cls-5" d="M285,865.44a2.22,2.22,0,0,1-2.18-2,2.28,2.28,0,0,1,1.86-2.6c.27,0,27.13-4.14,36.13-10.72a2.16,2.16,0,0,1,3.08.55,2.36,2.36,0,0,1-.54,3.2c-9.86,7.21-36.89,11.34-38,11.52Z" transform="translate(-42.07 -113.94)"/><path class="cls-5" d="M304.65,879.32a2.3,2.3,0,0,1-.13-4.58c.2,0,20.37-1.4,29.82-9.28a2.14,2.14,0,0,1,3.1.35,2.36,2.36,0,0,1-.34,3.23c-10.54,8.8-31.42,10.22-32.31,10.28Z" transform="translate(-42.07 -113.94)"/><path class="cls-5" d="M527.76,870.82c-6.8,0-19.49-3.92-26.58-14.71a2.35,2.35,0,0,1,.57-3.19,2.16,2.16,0,0,1,3.07.6c6.09,9.26,17.3,12.71,22.94,12.71a2.3,2.3,0,0,1,0,4.59Z" transform="translate(-42.07 -113.94)"/><path class="cls-5" d="M518.34,885l-.27,0a49.51,49.51,0,0,1-32.2-20.52,2.35,2.35,0,0,1,.51-3.2,2.15,2.15,0,0,1,3.08.53,45.6,45.6,0,0,0,29.14,18.63,2.28,2.28,0,0,1,1.93,2.55A2.25,2.25,0,0,1,518.34,885Z" transform="translate(-42.07 -113.94)"/><path class="cls-5" d="M498.18,897.37a2.3,2.3,0,0,1-.68-.11c-.76-.26-18.94-6.49-31.83-25.88a2.36,2.36,0,0,1,.56-3.19,2.16,2.16,0,0,1,3.07.58,64.23,64.23,0,0,0,29.55,24.12,2.32,2.32,0,0,1,1.43,2.89A2.22,2.22,0,0,1,498.18,897.37Z" transform="translate(-42.07 -113.94)"/><path class="cls-5" d="M474.76,903.18a2.09,2.09,0,0,1-1-.23c-.89-.45-21.88-11.18-23.67-28.79a2.27,2.27,0,0,1,2-2.52,2.22,2.22,0,0,1,2.43,2c1.53,15.06,21,25,21.21,25.14a2.35,2.35,0,0,1,1,3.07A2.21,2.21,0,0,1,474.76,903.18Z" transform="translate(-42.07 -113.94)"/><ellipse class="cls-6" cx="294.44" cy="127.59" rx="104.78" ry="123.6"/><g class="cls-13"><path class="cls-3" d="M425,173.11c-19.2-26.52-47.78-43.34-79.67-43.34-57.87,0-104.78,55.34-104.78,123.6a139.53,139.53,0,0,0,16.25,66.12c-15.65-21.59-25.1-49.62-25.1-80.25,0-68.27,46.9-123.6,104.77-123.6C373.77,115.64,406.47,138.56,425,173.11Z" transform="translate(-42.07 -113.94)"/></g><g class="cls-4"><path class="cls-5" d="M329.89,356c57.86,0,104.77-55.33,104.77-123.6,0-26.7-7.18-51.41-19.39-71.63l-.12-.5a143.89,143.89,0,0,1,4.5,35.93c0,68.26-46.91,123.6-104.78,123.6-31.93,0-60.53-16.85-79.74-43.43a132.93,132.93,0,0,0,16.23,37.84C270.55,339.78,298.61,356,329.89,356Z" transform="translate(-42.07 -113.94)"/></g><path class="cls-5" d="M336.51,369.12c-59.89,0-108.62-57.24-108.62-127.59s48.73-127.59,108.62-127.59,108.62,57.23,108.62,127.59S396.4,369.12,336.51,369.12Zm0-247.2c-55.65,0-100.93,53.66-100.93,119.61s45.28,119.6,100.93,119.6,100.93-53.65,100.93-119.6S392.16,121.92,336.51,121.92Z" transform="translate(-42.07 -113.94)"/><g class="cls-14"><path class="cls-3" d="M271.25,226.29c-6.37-11.59-6.47-39.86,17.77-59.47,20-16.21,37.19-7.09,36.08,1.68s-9,13.45-14.17,42C306.64,234.13,288,256.69,271.25,226.29Z" transform="translate(-42.07 -113.94)"/></g><path class="cls-5" d="M562.25,717.38a14.23,14.23,0,0,0,2.21,1.52A15.66,15.66,0,0,0,566.9,720a19.66,19.66,0,0,0,2.58.69c.44.08.88.15,1.31.2A6.35,6.35,0,0,0,572,721a3.78,3.78,0,0,1,4.14,3.43,3.86,3.86,0,0,1-3.3,4.3,3.53,3.53,0,0,1-1.49-.14l-.64-.2a14.39,14.39,0,0,1-1.78-.7c-.55-.25-1.07-.51-1.59-.79a25.52,25.52,0,0,1-2.95-1.9,20.35,20.35,0,0,1-2.66-2.34,18.11,18.11,0,0,1-2.19-2.81,1.94,1.94,0,0,1,.48-2.62,1.77,1.77,0,0,1,2.14.08Z" transform="translate(-42.07 -113.94)"/><path class="cls-3" d="M546.73,613.21h0a2.25,2.25,0,0,1-1.78-2.6l10.53-64a2.17,2.17,0,0,1,2.5-1.84h0c12.39,2.2,20.71,14.41,18.6,27.28L573,593.89C570.87,606.76,559.11,615.41,546.73,613.21Z" transform="translate(-42.07 -113.94)"/><path class="cls-5" d="M550.61,614.14a22.38,22.38,0,0,1-4-.35,2.71,2.71,0,0,1-1.77-1.16,2.88,2.88,0,0,1-.46-2.12l10.52-64a2.76,2.76,0,0,1,3.16-2.32c12.67,2.25,21.22,14.79,19,28L573.54,594A24.17,24.17,0,0,1,564,609.68,22.55,22.55,0,0,1,550.61,614.14Zm7-68.79a1.6,1.6,0,0,0-.93.31,1.65,1.65,0,0,0-.65,1.08l-10.53,64a1.65,1.65,0,0,0,1.31,1.92h0a21.39,21.39,0,0,0,16.56-3.91,23,23,0,0,0,9-14.92L576,572a23.6,23.6,0,0,0-3.76-17.2,21.93,21.93,0,0,0-14.37-9.4Z" transform="translate(-42.07 -113.94)"/><g class="cls-4"><path class="cls-5" d="M574.67,583.67,573,593.9c-2.12,12.86-13.88,21.51-26.27,19.32a2.25,2.25,0,0,1-1.77-2.61l2.8-17a2.2,2.2,0,0,0,1.72,1.67l1.46.25A22.49,22.49,0,0,0,574.67,583.67Z" transform="translate(-42.07 -113.94)"/></g><path class="cls-5" d="M550.62,616.82a25.39,25.39,0,0,1-4.42-.39h0a5.27,5.27,0,0,1-3.44-2.25,5.65,5.65,0,0,1-.9-4.12l10.52-64a5.55,5.55,0,0,1,2.17-3.58,5.12,5.12,0,0,1,4-.93c14.08,2.5,23.57,16.43,21.17,31l-3.59,21.81a26.87,26.87,0,0,1-10.57,17.43A25,25,0,0,1,550.62,616.82Zm-2.4-6.68a18.91,18.91,0,0,0,13.67-3.6,20.33,20.33,0,0,0,8-13.2l3.59-21.81a20.88,20.88,0,0,0-3.33-15.21,19.45,19.45,0,0,0-11.74-8.11Zm-1-.15Z" transform="translate(-42.07 -113.94)"/><path class="cls-3" d="M354.73,508.7h0a2.24,2.24,0,0,1,1.78,2.6l-10.53,64a2.17,2.17,0,0,1-2.5,1.84h0c-12.39-2.2-20.71-14.41-18.6-27.28L328.47,528C330.59,515.15,342.35,506.5,354.73,508.7Z" transform="translate(-42.07 -113.94)"/><path class="cls-5" d="M343.85,577.73a2.49,2.49,0,0,1-.47,0c-12.67-2.25-21.22-14.79-19.05-28l3.59-21.81a24.17,24.17,0,0,1,9.51-15.69,22.48,22.48,0,0,1,17.4-4.11h0a2.71,2.71,0,0,1,1.77,1.16,2.88,2.88,0,0,1,.46,2.12l-10.52,64a2.85,2.85,0,0,1-1.12,1.84A2.66,2.66,0,0,1,343.85,577.73Zm7-68.79a21.51,21.51,0,0,0-12.77,4.24A23,23,0,0,0,329,528.11l-3.59,21.82c-2.06,12.53,6.07,24.46,18.13,26.6a1.51,1.51,0,0,0,1.2-.28,1.65,1.65,0,0,0,.65-1.08l10.53-64a1.69,1.69,0,0,0-.27-1.24,1.56,1.56,0,0,0-1-.68h0A21.11,21.11,0,0,0,350.85,508.94Z" transform="translate(-42.07 -113.94)"/><g class="cls-4"><path class="cls-5" d="M348.91,557.52,346,575.27a2.18,2.18,0,0,1-2.51,1.84,22.71,22.71,0,0,1-15.23-10.39,24.33,24.33,0,0,1-3.35-16.89l1.51-9.19A23.12,23.12,0,0,0,344.58,558l2.24.4A2.15,2.15,0,0,0,348.91,557.52Z" transform="translate(-42.07 -113.94)"/></g><path class="cls-5" d="M343.85,580.41a5.47,5.47,0,0,1-.9-.08c-14.08-2.5-23.57-16.43-21.16-31.05l3.59-21.82A26.82,26.82,0,0,1,335.94,510a25,25,0,0,1,19.32-4.56h0a5.27,5.27,0,0,1,3.44,2.25,5.65,5.65,0,0,1,.9,4.12l-10.52,64a5.51,5.51,0,0,1-2.17,3.57A5.14,5.14,0,0,1,343.85,580.41Zm7-68.79a19,19,0,0,0-11.29,3.75,20.31,20.31,0,0,0-8,13.19L328,550.38c-1.77,10.74,4.94,21,15.07,23.32l10.19-61.93A19,19,0,0,0,350.86,511.62Z" transform="translate(-42.07 -113.94)"/><ellipse class="cls-3" cx="408.67" cy="447.02" rx="106.45" ry="110.6"/><path class="cls-5" d="M450.94,672.18a103.87,103.87,0,0,1-25.67-3.24c-27.76-7.06-51.21-24.94-66-50.34a114.17,114.17,0,0,1-12.43-84.11c6.8-28.84,24-53.21,48.46-68.6A102.88,102.88,0,0,1,476.21,453c57.32,14.59,92.52,74.9,78.48,134.45-6.81,28.84-24,53.21-48.46,68.61A103.44,103.44,0,0,1,450.94,672.18Zm-.39-221.28a102.25,102.25,0,0,0-54.71,16c-24.18,15.23-41.21,39.34-47.94,67.88A113,113,0,0,0,360.2,618c14.66,25.12,37.87,42.81,65.34,49.81A101.85,101.85,0,0,0,505.65,655c24.18-15.23,41.21-39.34,47.94-67.88l.55.14-.55-.14a113,113,0,0,0-12.3-83.22c-14.67-25.13-37.87-42.82-65.34-49.81A102.65,102.65,0,0,0,450.55,450.9Z" transform="translate(-42.07 -113.94)"/><g class="cls-4"><path class="cls-5" d="M556.65,572.16a112.71,112.71,0,0,1-2.51,15.12c-14,59.32-71.63,95.63-128.74,81.1s-92-74.42-78.06-133.75c.41-1.7.85-3.4,1.32-5.06C343.3,583.63,377,634.89,429.24,648.19,484.7,662.3,540.65,628.46,556.65,572.16Z" transform="translate(-42.07 -113.94)"/></g><path class="cls-5" d="M450.94,674.86a106.4,106.4,0,0,1-26.28-3.31C396.23,664.31,372.21,646,357,620a116.86,116.86,0,0,1-12.73-86.13c14.38-61,73.83-98.44,132.53-83.49,28.43,7.24,52.45,25.54,67.63,51.55a116.89,116.89,0,0,1,12.73,86.14h0c-7,29.54-24.59,54.49-49.62,70.26A105.92,105.92,0,0,1,450.94,674.86Zm-.38-221.28a99.77,99.77,0,0,0-53.38,15.6C373.58,484,357,507.57,350.4,535.41a110.23,110.23,0,0,0,12,81.2c14.31,24.51,37,41.77,63.75,48.59a99.31,99.31,0,0,0,78.16-12.47c23.6-14.86,40.21-38.38,46.78-66.23a110.21,110.21,0,0,0-12-81.19c-14.31-24.52-37-41.78-63.75-48.6A100.47,100.47,0,0,0,450.56,453.58Zm103.58,133.7h0Z" transform="translate(-42.07 -113.94)"/><path class="cls-5" d="M553.16,590a100.05,100.05,0,0,1-30.41,52.64c-11.13,10.13-50.56,23.13-93.55,13.32-39.86-9.1-71.19-39.75-77-53.91a102.69,102.69,0,0,1-5.32-61.13c12.31-55.83,63.57-68,120.53-54.43S565.47,534.13,553.16,590Z" transform="translate(-42.07 -113.94)"/><path class="cls-5" d="M460.68,662.71a144.73,144.73,0,0,1-32.15-3.61c-41.43-9.46-73.1-40.88-79.19-55.82a106.08,106.08,0,0,1-5.49-63.14c6.07-27.52,21.38-46.22,45.49-55.56,21-8.14,48.25-8.6,78.81-1.32s54.91,20,70.4,36.83c17.79,19.32,23.74,43.07,17.67,70.59A103.15,103.15,0,0,1,524.82,645C516.49,652.63,491.9,662.71,460.68,662.71ZM427.44,484.64c-13.39,0-25.49,2-35.9,6.06-22,8.53-36,25.65-41.56,50.9a99.36,99.36,0,0,0,5.15,59.13c5.48,13.44,36,43.14,74.74,52,43,9.8,80.93-3.59,90.81-12.59a96.56,96.56,0,0,0,29.41-50.91h0c5.57-25.24.16-47-16.08-64.62-14.64-15.89-37.9-28-67.26-35A170.52,170.52,0,0,0,427.44,484.64Z" transform="translate(-42.07 -113.94)"/><g class="cls-15"><ellipse class="cls-3" cx="521.31" cy="574.39" rx="19.47" ry="13.72" transform="translate(-242.97 743.48) rotate(-69.17)"/></g><g class="cls-15"><ellipse class="cls-3" cx="496.68" cy="608.31" rx="8.91" ry="7.48" transform="translate(-308.18 681.12) rotate(-64.53)"/></g><g class="cls-4"><path class="cls-16" d="M544.58,533.1c9.85,15.5,13.52,34.43,8.58,56.85a100.09,100.09,0,0,1-30.41,52.64c-11.13,10.13-50.56,23.13-93.55,13.32a128.63,128.63,0,0,1-40.88-17.67c53.09,10.88,101.16-5.14,115-17.71a126.8,126.8,0,0,0,38.59-66.8A116,116,0,0,0,544.58,533.1Z" transform="translate(-42.07 -113.94)"/></g><path class="cls-5" d="M555.07,542.15a3.11,3.11,0,0,1-2.46-1.24l-.26-.36-.18-.42c-11.81-29.49-42.26-52-83.53-61.86-41.5-9.88-78.42-2.87-101.3,19.22l-.42.34a3.06,3.06,0,0,1-4.35-.91,3.34,3.34,0,0,1,.57-4.29c24.43-23.52,63.39-31.08,106.91-20.73,43.24,10.3,75.27,34.22,87.89,65.64a3.35,3.35,0,0,1-.92,3.91A3.09,3.09,0,0,1,555.07,542.15Z" transform="translate(-42.07 -113.94)"/><g class="cls-15"><path class="cls-3" d="M362.75,579.59s-4.5-59,28.91-74.18,74.49-5.28,72.92-2.77c0,0-48,.62-74.07,33.75C370.43,561.94,362.75,579.59,362.75,579.59Z" transform="translate(-42.07 -113.94)"/></g><path class="cls-5" d="M514,731.64a2.75,2.75,0,0,1-2.7-2.58c-2.85-35.6,23.78-54.61,24.92-55.4a2.65,2.65,0,0,1,3.76.77,2.88,2.88,0,0,1-.74,3.91c-.28.2-25.11,18-22.53,50.25a2.79,2.79,0,0,1-2.48,3Z" transform="translate(-42.07 -113.94)"/><text class="cls-17" transform="translate(712.97 559.25) scale(0.94 1)">d<tspan class="cls-18" x="238.18" y="0">r</tspan><tspan class="cls-19" x="389.29" y="0">e</tspan><tspan x="592.92" y="0">am</tspan></text></svg>