<svg xmlns="http://www.w3.org/2000/svg" viewBox="0 0 1100 800"><defs><style>.cls-1{fill:#fff;}.cls-2{fill:#f1f2f2;}.cls-3{fill:#aa6755;}.cls-4{fill:#1a3151;}.cls-5{fill:#162a42;}.cls-6{fill:#eaedef;}.cls-7{fill:#3ababa;}.cls-8{fill:#eac1a4;}.cls-9{fill:#145566;}.cls-10{fill:#c8d6a1;}.cls-11{fill:#d9a3a3;}.cls-12{fill:#b5d6ca;}.cls-13{fill:#d1e7f5;}</style></defs><g id="Background"><rect class="cls-1" width="1100" height="800"/></g><g id="Shadow"><path class="cls-2" d="M517,668.12c-29.11.08-58.22.76-87.27,3.89-11,1.18-21.69,3.78-32.67,4.82-21.93,2.09-43.47,6-65.48,7.8-17.73,1.45-35.53,2.3-53.21,4.14A193.28,193.28,0,0,1,227,687.25c-12.18-2.11-24.41-3.3-36.38-6.68-13.38-3.79-27.93-6.5-41.88-6.4-19.89.13-39.26.15-58.3,6.84-6.68,2.35-14.86,6.21-19.94,11.14C58.92,703.43,57.35,731.58,69,743.28c19.54,19.69,61.23,27.42,88.62,27.79,30,.39,59.16-1.76,89.21-3,27.92-1.18,55.78-2.86,83.75-2.8,57.13.12,114.26,0,171.29-3.69,53.57-3.48,107.28-2.28,161-2.28,55.06,0,109.75.41,164.41,7.5,23.82,3.09,48.08,4.17,72,6.33,21.44,1.94,42,0,63.39-1.82a155.32,155.32,0,0,0,52-13.51c12.89-6,35.88-24.5,39.83-38.75,11.09-39.93-156.22-39-181.9-38.88-28.74.1-57.7,1-86.42,0-12.08-.44-24-2.73-35.77-5.24s-23.57-1.86-35.48-2.91c-49.65-4.37-99.42-3.73-149.23-3.73C549.46,668.21,533.24,668.07,517,668.12Z"/></g><g id="Object"><path class="cls-3" d="M329.08,243.39l6.07-4.09,6.94,3.09,3.46,6.46-2.45,4.92-6.21,2.74,2.15.84-.6,1.76-9.63,3.17c-2-2.54-9.2-5.13-10.24-6.49l6.71-4.59Z"/><polygon class="cls-4" points="200.84 480.56 133.57 455.82 147.44 573.67 139.4 675.33 139.19 676.01 139.35 676.03 139.33 676.25 152.6 677.52 152.6 677.5 153.1 677.56 182.72 586.98 198.41 490.49 198.41 490.49 200.84 480.56"/><polygon class="cls-5" points="151.91 682.15 138.15 681.8 134.63 693.41 134.98 693.52 134.89 693.53 157.64 707.01 168.46 708.21 169.84 695.85 166.91 693.71 151.91 682.15"/><polygon class="cls-4" points="246.66 482.58 226.47 684.35 213.16 684.96 199.78 576.01 176.59 467.51 246.66 482.58"/><polygon class="cls-5" points="226.44 689.04 244.07 699.04 242.42 707.36 210.91 702.61 212.76 690.62 226.44 689.04"/><path class="cls-6" d="M278.2,533.26c4.26-3,4.35-8.1,4.34-13.26,0-9.68-1.75-19.57-4-29-4.23-17.64-9-38.89-11.12-61.75-5.44-59.09-24.1-98.75-24.1-98.75l-6-16c-1.19-2.09-2.43-4.16-3.73-6.19-7.52-11.8-20.58-31.86-34.54-35.14l-.88-.2c-14.69-3.22-33.5-1.73-46.77,5.41a46.65,46.65,0,0,0-7,4.95c-6.49,5.24-11.78,8.07-14.58,16.05-2.42,6.92-3,14.48-4.33,21.65-2.72,14.58-4.34,29.34-6.51,44-4.08,27.5-7.54,55.09-11.89,82.55-2.25,14.13-4.51,28.29-5.56,42.57-.94,12.62-12.33,25.44-18.73,36.76-2.23,3.94,29.76,14.14,32.62,14.81,13.27,3.08,27.39,2.3,41.07,2.36q45,.19,89.86-2.77c9.94-.66,22.19-2.56,31-7.51A9.47,9.47,0,0,0,278.2,533.26Z"/><path class="cls-7" d="M181.7,271.33s-16.88-4.56-19.21,33.53-6.22,134.51-11.67,161-13.6,78.28-13.6,78.28l51.7,1.8L248,541.23s-20.21-37.32-23.32-63.76,2.33-126-10.89-163.27S197.81,272,181.7,271.33Z"/><polygon class="cls-6" points="217.03 315.86 254.71 336.34 277.42 328.57 335.53 264.68 320.09 250.72 258.42 298.93 209.87 277.75 217.03 315.86"/><path class="cls-4" d="M205.25,241.14c2.56,7.67-1.14,15.85-4.39,22.84-2.87,6.2-3.88,10.28,3.43,12,4.12.94,11.42,2.7,15-.46,2.73-2.38,1.19-9.76-.14-12.69-1-2.24-3.7-3.37-4.66-5.64a7.89,7.89,0,0,1-.46-3,40.9,40.9,0,0,1,1.69-12.24c.8-2.7,1.88-5.34,2.12-8.14.35-4.06-2.52-8.78-4-12.51-2.8-6.94-12.57-16.24-20.74-10.8-1.86,1.24-3,3.34-3.85,5.38a9.88,9.88,0,0,0-1.08,3.83c-.06,5.33,4.8,6.23,8.16,8.76A26.72,26.72,0,0,1,205.25,241.14Z"/><path class="cls-3" d="M189.7,271.07c7.09-1.67,12.64-7.62,15.3-14.4s2.81-14.3,2.07-21.55c-2.45-24.12-32.46-22.57-42.62-4.08C155.6,247.15,169.08,275.93,189.7,271.07Z"/><path class="cls-3" d="M189.7,268.48l-.36,8.24a1.26,1.26,0,0,1-1.63,1.45l-6.72-.23a7.29,7.29,0,0,1-3.24-.62c-2.14-1.15-2.58-4.05-2.24-6.46s1.2-4.83.69-7.2c4.63,2.27,9-2.87,13.64-.6Z"/><path class="cls-4" d="M180,193.31C172.14,196,167.09,204,159.4,207.13c-4.41,1.83-9.62,2.06-13.22,5.2-8.06,7-1.58,21.77-8.21,30.16-1.37,1.75-3.23,3.07-4.61,4.81-3,3.75-3.38,8.88-3.64,13.67a15.47,15.47,0,0,0,.11,3.33c1,11.06,17.09,10.36,23.47,9.65,7-.78,4.66-4.67,4.66-4.67l-.25-.31a13.39,13.39,0,0,1,4.7-12.13c1.31-1.07,2.86-1.91,3.78-3.32,2.07-3.17.1-7.36.4-11.13,1.23-15.18,26.71-11.93,33.9-22.74C209.31,206.39,194.9,188.25,180,193.31Z"/><polygon class="cls-8" points="781.37 278.21 772.51 273.26 770.21 264.6 768.13 264.16 767.48 266.7 763.51 260.06 757.6 257.97 750.76 262.75 748.22 270.99 753.68 277.28 763.06 280.51 774.89 287.82 781.37 278.21"/><polygon class="cls-6" points="782.21 272.58 768.92 288.31 818.12 336.04 831.38 340.32 887.87 295.27 872.76 264.42 830.63 300.23 782.21 272.58"/><polygon class="cls-4" points="975.03 691.14 977 700.19 961.37 713.08 950.59 705.95 957.42 694.98 973.05 682.1 975.03 691.14"/><polygon class="cls-9" points="920.36 412.9 937.8 453.13 939.45 566.3 975.31 688.03 958.64 695.42 885.45 554.08 877.12 509.31 873.8 415.02 920.36 412.9"/><polygon class="cls-9" points="835.9 421.92 834.53 540.52 856.88 693.44 874.07 693.44 884.92 552.34 908.44 411.24 835.9 421.92"/><polygon class="cls-4" points="873.97 691.4 873.97 700.69 855.38 709.98 846.09 700.69 855.38 691.4 873.97 691.4"/><path class="cls-6" d="M869.75,261.32l45.65-1.7s27.31,24,41.42,86.23c14.37,63.41-2.65,154.68-2.65,154.68s-122.48-16.32-142.56-18.84L842.25,356.5Z"/><path class="cls-8" d="M886.11,266l16-1.56a80.33,80.33,0,0,0-.85-12.78c4.44-1.55,9.58-3.89,10.36-8.53a13.17,13.17,0,0,0-.25-4.42q-1.56-9.08-3.11-18.14a16.1,16.1,0,0,0-1.88-6c-2-3.14-5.85-4.52-9.52-5.17-9.36-1.63-19.55.38-26.82,6.5a14.53,14.53,0,0,0-4.53,6c-1.32,3.67-.34,7.72.64,11.49l2.73,10.44c1,4,2.55,8.56,6.41,10.06,2,.8,4.46.57,6.31,1.75C884.86,257.64,884.41,262.5,886.11,266Z"/><path class="cls-4" d="M834,205.57a51.51,51.51,0,0,1,1.31-12.11c1.42-6.49,9.08-9.41,15.71-9.87,14.32-1,28.14-7.49,42.13-2.48,8,2.87,18.73,3.56,26,7.6a21.31,21.31,0,0,1,7.31,7.22,32.19,32.19,0,0,1,0,34,45.35,45.35,0,0,1-5,6.3c-3.78,4.09-8.3,9.14-13.49,10.65-.12-4.64,4.13-19.28.57-23.09-5.65-6-18.45-4-25.47-2.48-7.66,1.61-14.49,7-22.08,8.17-5.47.83-12.44-1.86-17.08-4.69C836.64,220.39,834.21,213.06,834,205.57Z"/><path class="cls-10" d="M882.34,267l-48,192-3.94,25.18L890.2,492s-2.36-91.93-1.57-104.18,9.66-38.77,11-67.33c.78-16.52,6-46.2,2.36-55.86Z"/><path class="cls-11" d="M489.66,479.79v52a14.43,14.43,0,0,0,.39-3.27V446.16h-.39Z"/><path class="cls-11" d="M489.68,409.89V359a14.35,14.35,0,0,0-.41,3.31v81.5h.39V409.89Z"/><path class="cls-11" d="M474.38,594a14,14,0,0,0-5.58,1.81A99.77,99.77,0,0,1,452,604c5.56-1.84,11.06-4.83,16.83-8A18.1,18.1,0,0,1,474.38,594Z"/><path class="cls-11" d="M527.28,358.06A99.31,99.31,0,0,1,510.53,350a14.12,14.12,0,0,0-5.58-1.81,18.1,18.1,0,0,1,5.51,2C516.23,353.23,521.73,356.22,527.28,358.06Z"/><path class="cls-11" d="M489.65,604.87V712.44h.41V608.18A14.35,14.35,0,0,0,489.65,604.87Z"/><path class="cls-11" d="M338.58,424.42a14,14,0,0,1,2.14,7.75,14,14,0,0,0-2.09-8.91c-5.74-9.2-9.41-19.42-9.36-29.06C328.91,404.18,332.62,414.85,338.58,424.42Z"/><path class="cls-11" d="M404.09,396.79c-.45,9.26-5.1,18.06-10.18,26.95a14.06,14.06,0,0,0-1.87,7.12,14,14,0,0,1,1.83-5.94C399.16,415.66,404,406.48,404.09,396.79Z"/><path class="cls-11" d="M489.67,285.87V175.2h-.39V282.6A14.49,14.49,0,0,0,489.67,285.87Z"/><path class="cls-4" d="M474.38,594a18.1,18.1,0,0,0-5.51,2c-5.77,3.13-11.27,6.12-16.83,8-8.36,2.85-17,3.29-26.19-1.73-18.82-10.24-25.79-35.56-14.93-54,13.38-22.75,37.72-20,57.4-7.67a14.21,14.21,0,0,0,21.34-8.79V446.16h0v-2.38h-.39v1.92H402.49A14.26,14.26,0,0,1,392,430.86a14.06,14.06,0,0,1,1.87-7.12c5.08-8.89,9.73-17.69,10.18-26.95A29.84,29.84,0,0,0,400.27,382c-10.22-18.83-35.54-25.81-54-15-11.69,6.87-16.63,16.64-17,27.18,0,9.64,3.62,19.86,9.36,29.06a14,14,0,0,1,2.09,8.91A14.27,14.27,0,0,1,330,445.7H254.53c-.25.38-.51.75-.75,1.14-6.51,10.65-5.17,18.56,4.55,25.26,6.22,4.29,12.79,8,18.25,13.54,8.32,8.5,8.86,13.51,2.5,24C271.93,521.49,272,522,283,530.37c3,2.26,6.07,4,1.93,8.22-6.1,6.28-3.92,12.41,1.33,17,7.37,6.42,8.48,14.66,7.09,23.88-1.2,8-3,16-4.49,24-4.06,21.55,1.59,31.55,21.06,37.21,20.33,5.91,40.55.79,60.82-1.16,13.58-1.31,26.95-6,40.85-2.6,9,2.23,14,7.75,15.16,17.85,1.69,14.74,6.08,28.82,8.59,43.32,2,11.83,7.19,15.52,17.84,15,8.92-.4,21.69-.59,36.5-.64V604.87A14.26,14.26,0,0,0,474.38,594Z"/><path class="cls-9" d="M563.13,243a14.2,14.2,0,0,0,22.79,3.59c16.29-16.51,39.31-24.89,57.62-5.87,14.84,15.42,13.94,41.67-2,56-7.82,7-16.28,8.6-25.08,7.77-5.83-.5-11.87-2.13-18.21-3.84a18,18,0,0,0-5.82-.62,14.24,14.24,0,0,0-12.33,14.08l11.83,49.53h0l7.86,33h0l.28,1.19.27,1.12.38-.09,85.44-20.4a14.21,14.21,0,0,1,12,18.11c-4.48,15.29-8,30.15,3.75,43.25,14.31,15.94,40.55,16.85,56,2,19-18.29,10.67-41.32-5.83-57.62a14.22,14.22,0,0,1,2.28-22l52.24-12.47a180.67,180.67,0,0,0-.57-56C797,248,779.24,212.64,751.21,187c-57.51-52.69-123.87-67.1-194.33-55.9a166.52,166.52,0,0,0-19.46,4.32l13.63,57.08Z"/><polygon class="cls-12" points="489.67 443.78 489.66 443.78 489.66 446.16 489.66 446.16 489.67 445.01 489.67 443.78"/><path class="cls-13" d="M650.67,713.12c12.71-.69,6.54-8.63.68-21-47.57-100,9.09-180.58,18.37-191.86a202.23,202.23,0,0,0,32-54.15H648a14.21,14.21,0,0,0-7.34,20.9c12.26,19.69,15.05,44-7.71,57.4-18.45,10.85-43.77,3.87-54-15-8.41-15.47-1.51-29.1,6.4-42.94a14.21,14.21,0,0,0-7.49-20.4H490.05V528.5a14.43,14.43,0,0,1-.39,3.27v.35a14.22,14.22,0,0,1-21.29,8.59c-19.69-12.27-44-15.06-57.4,7.69-10.85,18.46-2.82,43.34,16,53.57,9.1,4.94,17.14,4.63,25.07,2a99.77,99.77,0,0,0,16.76-8.11,14,14,0,0,1,5.58-1.81c7.24-1.28,13.64,2.73,15.27,10.59v.24a14.35,14.35,0,0,1,.4,3.31V712.43C547.38,712.22,635,714,650.67,713.12Z"/><path class="cls-4" d="M489.65,604.87v-.24c-1.63-7.86-8-11.87-15.27-10.59A14.26,14.26,0,0,1,489.65,604.87Z"/><path class="cls-4" d="M468.32,540.56c-19.68-12.28-44-15.08-57.4,7.67-10.86,18.44-3.89,43.76,14.93,54,9.24,5,17.83,4.58,26.19,1.73-7.93,2.64-16,2.95-25.07-2-18.82-10.23-26.85-35.11-16-53.57,13.38-22.75,37.71-20,57.4-7.69a14.22,14.22,0,0,0,21.29-8.59v-.35A14.21,14.21,0,0,1,468.32,540.56Z"/><path class="cls-12" d="M568.41,302.33C555,279.58,530.68,282.38,511,294.66a14.21,14.21,0,0,1-21.33-8.79,14.49,14.49,0,0,1-.4-3.27V175.21c-29.33,1.33-57.86,10.16-85.24,23.58-7.36,3.61-14.6,7.56-21.77,11.62-50.34,28.51-78.35,72.28-76,136.42,1.34,36-14.69,62.19-38.36,84.21-4.29,4-8.54,7.94-12,12.72-.47.63-.91,1.28-1.35,1.94H330a14.27,14.27,0,0,0,10.73-13.53,14,14,0,0,0-2.14-7.75c-6-9.57-9.68-20.24-9.31-30.22.38-10.54,5.32-20.31,17-27.18,18.45-10.85,43.77-3.87,54,15a29.84,29.84,0,0,1,3.82,14.81c-.1,9.69-4.93,18.87-10.22,28.13a14,14,0,0,0-1.83,5.94,14.26,14.26,0,0,0,10.45,14.84h86.78V362.28A14.3,14.3,0,0,1,505,348.14a14.12,14.12,0,0,1,5.58,1.81,99.31,99.31,0,0,0,16.75,8.11c8.37,2.85,17,3.29,26.2-1.74C572.3,346.09,579.26,320.77,568.41,302.33Z"/><polygon class="cls-6" points="922.6 296.17 864.18 351.32 777.53 325.49 771.33 344.99 866.57 388.55 891.63 388.55 944.58 343.5 922.6 296.17"/><polygon class="cls-8" points="771.89 343.23 756.81 343.5 747.6 330.51 771.01 317.49 777.53 325.49 771.89 343.23"/><polygon class="cls-3" points="287.17 376.22 286.89 385.01 302.4 390.66 311.35 383.88 311.35 373.65 302.72 373.17 302.45 370.92 299.62 369.1 287.17 376.22"/><path class="cls-6" d="M157.68,310.46l64,54.48,68,1.32s-2.76,29.2-2.73,26.77-75.26,7.28-75.26,7.28l-66.8-47.21Z"/></g></svg>