<svg xmlns="http://www.w3.org/2000/svg" viewBox="0 0 750 500"><defs><style>.cls-1{fill:#fff;}.cls-2{fill:#ffdcec;}.cls-3{fill:#f2b1d2;}.cls-4{fill:#6a59e3;}.cls-5{fill:#210055;}.cls-6{fill:#330e8e;}.cls-7{fill:#ff928f;}.cls-8{fill:#398aaa;}.cls-9{fill:#efae95;}.cls-10{fill:#4492b9;}.cls-11{fill:#fec5a7;}.cls-12{fill:#e56000;}.cls-13{fill:#efb59e;}.cls-14{fill:#d69580;}.cls-15{fill:#485999;}.cls-16,.cls-17{fill:#04061b;}.cls-16{opacity:0.67;}.cls-18{fill:#ffc117;}.cls-19{fill:#e5aa17;}.cls-20{fill:#1f2647;}.cls-21{fill:#f77721;}.cls-22{fill:#52aacc;}.cls-23{fill:#401caf;}.cls-24{fill:#5636dd;}.cls-25{fill:#f9bb5a;}.cls-26{fill:#ffeabb;}.cls-27{fill:#efad45;}.cls-28{fill:#f9c5e0;}.cls-29{fill:#8baf7c;}.cls-30{fill:#31177a;}.cls-31{fill:#5f824d;}.cls-32{fill:#7fa56d;}.cls-33{fill:#b14a00;}.cls-34{fill:#993f02;}.cls-35{fill:#ffdc97;}.cls-36{fill:#c65202;}</style></defs><g id="BACKGROUND"><rect class="cls-1" width="750" height="500"/></g><g id="OBJECTS"><path class="cls-2" d="M622,422.4c-25,6.06-55,2.24-78.36,2.24H205.72c-26,0-54.33,4.37-78.42-6.7-21.59-9.92-38-30.61-43-53.83-6.09-28.45,4.48-59.44,25.46-79.6,10-9.6,22-16.83,32.63-25.7s20.26-20.11,22.85-33.72c2.43-12.76-1.6-25.73-3.79-38.54-2.33-13.59-1.89-27.77,2.91-40.7C189.58,78,256.58,97.25,268.23,95c21.41-4.12,32.86-26.7,47.47-42.88C334,31.82,360.83,19.9,388.11,17.87c56.29-4.2,129.25,31.3,146.81,88.1,6.18,20,8.25,41.1,15,60.89s19.66,39.13,39.4,46c9.26,3.24,19.26,3.5,28.82,5.7,12.6,2.89,24.69,9.51,32.32,19.95s10.16,25,4.68,36.69c-3.72,8-10.58,14-15.81,21s-8.88,16.65-5,24.55c3.32,6.81,11,10.08,17,14.69,15.1,11.61,19.89,33.92,13,51.66C656.12,408,640.43,417.91,622,422.4Z"/><path class="cls-3" d="M83.37,358.59c.25,1.85.58,3.69,1,5.52,5,23.22,21.37,43.91,43,53.83,24.09,11.07,52.44,6.7,78.42,6.7H543.61c23.36,0,53.4,3.82,78.36-2.24,18.46-4.49,34.15-14.38,42.29-35.22a47.67,47.67,0,0,0,1.67-28.59Z"/><path class="cls-4" d="M298,452.18c48.88,3.26,106.31-.91,155.28.81-1.3-3.76-24.1-29.36-24.78-29.73s-79.8-2.43-89.08-1.52C339.46,421.74,305.65,445.79,298,452.18Z"/><rect class="cls-5" x="358.93" y="135.17" width="119.68" height="289.47"/><polygon class="cls-6" points="348.62 122.79 348.62 424.64 358.93 424.64 358.93 135.17 478.61 135.17 478.61 424.64 488.11 424.64 488.11 122.79 348.62 122.79"/><path class="cls-7" d="M327.42,361.61a25.78,25.78,0,0,1,2-6.66q6.18-24.66,13.67-48.95c4-13,11.63-34.89,21.53-45,6.34,1.65,12.82,2.95,19.19,4.35l.26.3a12.94,12.94,0,0,0,1.87,3.2,25.75,25.75,0,0,1,3.5,21.74c-2.17,7.28-8.73,13.33-15.77,16.17-.44.18-4.12,26.39-6,31.48A117.27,117.27,0,0,1,361,352.87c-2.22,4.09-5.23,7.77-7.85,11.6,0,1.29-.05,2.58,0,3.87.1,4.45,1.42,9,2.15,13.35,3.29,19.55-2.2,38.59-5.75,57.77a54.41,54.41,0,0,1-7.09.48c-2-6.35-1.83-10.9-3.54-18.2-4.07-17.36-8.73-34-11.14-51.69A31.47,31.47,0,0,1,327.42,361.61Z"/><path class="cls-8" d="M386,268.82a12.94,12.94,0,0,1-1.87-3.2l-.26-.3c-6.37-1.4-12.85-2.7-19.19-4.35-9.9,10.14-17.52,32.06-21.53,45q-7.49,24.28-13.67,48.95a25.78,25.78,0,0,0-2,6.66,31.47,31.47,0,0,0,.36,8.44c2.23,16.3,7.15,51.05,7.15,51.05,5.8.32,15.81-1.6,20.94-1.29,2.35-12.51,1.58-25.35-.57-38.12-.73-4.38-2.05-8.9-2.15-13.35,0-1.29,0-2.58,0-3.87,2.62-3.83,5.63-7.51,7.85-11.6a117.27,117.27,0,0,0,6.67-14.66c1.9-5.09,7.23-30.33,7.67-30.51,7-2.84,11.95-9.86,14.12-17.14A25.75,25.75,0,0,0,386,268.82Z"/><path class="cls-9" d="M404.73,263.57a87.37,87.37,0,0,1-24.39.58c-.43,1.59-1.71,3.78-2,4.83a77.82,77.82,0,0,0-2.82,14.49,200.75,200.75,0,0,0-.77,29.22c1.17,34.17,6.06,85.74,12.35,121.46,3.34.23,6.65.7,10,1,.28,0,.16-5.59.43-5.57,3.54-18.08,9-28.77,7.31-47.52-.44-5-1.23-9.92-1.06-14.91.18-5.48,1.53-10.85,2.47-16.25a338.43,338.43,0,0,0,2.4-39.76C408.87,286.16,405.62,270.39,404.73,263.57Z"/><path class="cls-10" d="M401.61,422.06c3.44-15,4.65-23.16,3.16-40-.44-5-1.23-9.92-1.06-14.91.18-5.48,1.53-10.85,2.47-16.25a338.43,338.43,0,0,0,2.4-39.76c.29-25-3-40.79-3.85-47.61a87.37,87.37,0,0,1-24.39.58c-.43,1.59-1.71,3.78-2,4.83a77.82,77.82,0,0,0-2.82,14.49,200.75,200.75,0,0,0-.77,29.22c1.06,31,3.58,73.92,9,108.73C388.16,421.6,397.19,421.93,401.61,422.06Z"/><path class="cls-11" d="M319.91,237.16c-.28,7.16-.25,14.62,2.8,21.1.7,1.49,1.7,3,3.27,3.5a5.45,5.45,0,0,0,4.4-1c5.64-3.71,7.56-11,8.22-17.75a84,84,0,0,0-.34-19.47c-.63-4.72-4.83-18.53-11.9-12.55C320,216.33,320.2,229.67,319.91,237.16Z"/><path class="cls-9" d="M324.55,238.72a43.51,43.51,0,0,1,13.14,9.95,44.75,44.75,0,0,0,.91-5.7,84,84,0,0,0-.34-19.47c-.63-4.72-4.83-18.53-11.9-12.55-6.21,5.27-6.17,18.17-6.44,25.74Q322.29,237.59,324.55,238.72Z"/><path class="cls-12" d="M340.73,239.24a72,72,0,0,0-.32-15.94c-.64-4.72-7-18.33-14.05-12.35-5.34,4.54-8.24,14.27-8.5,21.85C318.9,232.92,339.56,238.41,340.73,239.24Z"/><path class="cls-9" d="M435.38,182c-4.81,5.12-22.24,18.71-25.27,19.24-8,1.42-17.68-10.09-13.69-18,1.54-3.06,20.63-14.24,27.4-16.67,4.7-1.69,10-2.83,14.34.17a6.8,6.8,0,0,1,2.94,4c.55,2.59-1,5.14-2.49,7.32A33.93,33.93,0,0,1,435.38,182Z"/><path class="cls-9" d="M441.65,172.2a6.73,6.73,0,0,1-1.28,2.31,8.68,8.68,0,0,1-3.53,2.51c-3.22,1.23-6.83.43-10.13-.54a107,107,0,0,1-11.54-4.12c-3.71-1.56-7.26-4-11-5.31-8-2.81-15.8-6.65-23.51-10.24l-2.16-1c-1.16-.55-2.33-1.1-3.49-1.67a2.16,2.16,0,0,1-.2-.36.88.88,0,0,1,.09-1.07.53.53,0,0,0,.06-.1.54.54,0,0,0,.16-.22H376c.84.09,2,.83,2.82.43a12.25,12.25,0,0,1-3.32-1.55,1.14,1.14,0,0,1-.47-.57,1.2,1.2,0,0,1,.16-.8,16.43,16.43,0,0,1,1.89-3,4.54,4.54,0,0,1,2.25-1.75,5.12,5.12,0,0,1,2.45.15c4.05.95,7.9,2.5,11.92,3.53s8.3,2.21,12.4,3.46q11.49,3.49,22.52,7.9a37.46,37.46,0,0,1,8.28,4.19c2.17,1.58,4.91,3.6,4.9,6.61A4.86,4.86,0,0,1,441.65,172.2Z"/><path class="cls-12" d="M391.18,223.86c1,7,2.78,13.91,4.18,20.86,1.28,6.36,3.17,13.66,3.14,20.14,0,1.91-.31,4-1.76,5.27s-3.38,1.26-5.2,1.26c-11.14,0-22.64-.28-32.81-4.85A11.57,11.57,0,0,0,360,252.88c-3.41-5.38-8.39-10.26-12.66-15-6-6.63-12.53-12.85-17.6-20.22-1.37-2-2.68-4.29-2.26-6.66a9,9,0,0,1,2.84-4.51,48.24,48.24,0,0,1,14-9.95,65.91,65.91,0,0,1,11.31-3.62c3.4-.8,6.95-3.33,10.44-3.47a111.89,111.89,0,0,1,15,.56,7.61,7.61,0,0,1,3.92,1.18c1.77,1.32,2.2,3.75,2.51,5.93Z"/><path class="cls-11" d="M353.25,185.83a13,13,0,0,0,4.75,4.31c1.23.67,3,.11,2.87,1.8a8.21,8.21,0,0,1-1.42,3.93,15.43,15.43,0,0,1-3.86,3.87A14.53,14.53,0,0,1,348,202.9a8.28,8.28,0,0,1-4.69-1.13,6.41,6.41,0,0,1-1.79-1.57c-.66-.88-.38-1,.47-1.67a3.37,3.37,0,0,1,.88-.51.61.61,0,0,1-.08-.27c-.17-1.39-1.1-2.55-1.75-3.79a5.13,5.13,0,0,1,.53-6.68,39.23,39.23,0,0,1,2.69-2.93,23.68,23.68,0,0,1,2.56-2.34c.68-.5.88-3.64,1.79-3.56S350.88,182.81,353.25,185.83Z"/><path class="cls-9" d="M348.28,191.27a7.48,7.48,0,0,1-5.88,5.24c-.37-.88-.95-1.7-1.4-2.55a5.13,5.13,0,0,1,.53-6.68,39.23,39.23,0,0,1,2.69-2.93,24.19,24.19,0,0,1,2.23-2.07A10.39,10.39,0,0,1,348.28,191.27Z"/><path class="cls-13" d="M351.56,173.61a3.67,3.67,0,0,1,2-.38,3.51,3.51,0,0,1,2.83,2.16,3.83,3.83,0,0,1-.46,3.56,4.26,4.26,0,0,1-3.17,1.74,3,3,0,0,1-1.22-.16c-1.19-.48-1.92-2.16-2.08-3.37A3.77,3.77,0,0,1,351.56,173.61Z"/><path class="cls-9" d="M349.57,177.83a4.86,4.86,0,0,1,.91-1.42,2.78,2.78,0,0,1,2.2-1,1.73,1.73,0,0,1,1.53,2.14c-.53,1.82-2.48,2.22-4.08,1.69A6.1,6.1,0,0,1,349.57,177.83Z"/><path class="cls-14" d="M352.17,175.45h0a.15.15,0,0,1,0-.11c.05-.34.74-.35,1-.35a1.55,1.55,0,0,1,1.34.92c0,.06-.07.11-.11.06a2,2,0,0,0-1.17-.67c-.14,0-.69,0-.79.14a.14.14,0,0,1-.2,0h0Z"/><path class="cls-14" d="M352.43,177.77a1.62,1.62,0,0,1,0-1.24c0-.08.16,0,.14.06a2.07,2.07,0,0,0,.15,1.07,1.4,1.4,0,0,0,.41.67.89.89,0,0,1,.26.21.12.12,0,0,1-.1.19C352.8,178.74,352.58,178.16,352.43,177.77Z"/><path class="cls-13" d="M331.33,180.16a3.16,3.16,0,0,0-1.77.6,3.66,3.66,0,0,0-1.33,3.25,3.81,3.81,0,0,0,1.92,2.92,3.55,3.55,0,0,0,3.31,0,2.68,2.68,0,0,0,.92-.72c.75-1,.6-2.81.2-3.95A3.41,3.41,0,0,0,331.33,180.16Z"/><path class="cls-9" d="M334.76,182.93a4.29,4.29,0,0,0-1.35-.82,2.31,2.31,0,0,0-2.22.13,1.81,1.81,0,0,0-.3,2.6c1.22,1.35,3,.78,4-.45A5.89,5.89,0,0,0,334.76,182.93Z"/><path class="cls-14" d="M331.64,182.07v0h0a.15.15,0,0,0,0-.11c-.18-.27-.75,0-.95.16a1.6,1.6,0,0,0-.67,1.44c0,.08.1.07.11,0a2,2,0,0,1,.65-1.13c.11-.07.57-.32.7-.26a.12.12,0,0,0,.17-.07h0Z"/><path class="cls-14" d="M332.44,184.23a1.62,1.62,0,0,0-.55-1.08c-.06-.06-.14.06-.09.12a2.11,2.11,0,0,1,.35,1,1.51,1.51,0,0,1,0,.79.91.91,0,0,0-.12.31.11.11,0,0,0,.17.11C332.57,185.26,332.48,184.65,332.44,184.23Z"/><path class="cls-15" d="M405.53,196.76a1,1,0,0,1,.32.34.09.09,0,0,1-.14.11,2,2,0,0,1-.28-.37C405.41,196.78,405.48,196.74,405.53,196.76Z"/><path class="cls-11" d="M347.68,166c2,1.23,3,3.62,3.52,5.92a21.77,21.77,0,0,1,0,10.46,15.39,15.39,0,0,1-5.79,8.65c-2.36,1.66-5.63,2.48-8.1,1.05a8.81,8.81,0,0,1-3.22-3.9,30.15,30.15,0,0,1-3.19-11.69,13.37,13.37,0,0,1,.14-3.46,9.82,9.82,0,0,1,3.9-5.91C338.24,164.75,344.12,163.82,347.68,166Z"/><path class="cls-14" d="M339.41,182.24a6.39,6.39,0,0,1-.41-1c-.17-.62-.44-1.19-.61-1.81s-.47-1.33-.7-2c0-.11.11-.21.18-.1a10.17,10.17,0,0,1,.66,1.55c.18.43.35.91.49,1.36s.37,1,.58,1.51c.11.26.22.65.51.76a1.47,1.47,0,0,0,1.08-.19c.24-.12.46.25.22.36a1.76,1.76,0,0,1-1.56.14A1.22,1.22,0,0,1,339.41,182.24Z"/><path class="cls-14" d="M340.52,184.86c.23-.05.39.11.6.18a1.17,1.17,0,0,0,1.13-.1,1.55,1.55,0,0,0,.63-.93,4.63,4.63,0,0,0,.14-1.17.11.11,0,0,1,.2-.08,1.94,1.94,0,0,1,.07,1.26,2,2,0,0,1-.63,1.13,1.68,1.68,0,0,1-1,.43,1.45,1.45,0,0,1-.5-.08l-.31-.11c-.07,0-.18-.15-.27-.14C340.31,185.3,340.27,184.91,340.52,184.86Z"/><path class="cls-16" d="M348.15,167.72a.54.54,0,0,1,.34-.21,3.55,3.55,0,0,1,2.36.17,2.47,2.47,0,0,1,1.57,1.29.8.8,0,0,1,.05.21c0,.19-.2.33-.39.4a2.17,2.17,0,0,1-1.46-.12,8.14,8.14,0,0,1-1.66-.71c-.35-.2-.72-.44-.81-.8A.36.36,0,0,1,348.15,167.72Z"/><path class="cls-16" d="M340.84,175.37a.4.4,0,0,1,.13-.32,2.79,2.79,0,0,1,1.75-.94,2.06,2.06,0,0,1,1.74.29.44.44,0,0,1,.13.14.47.47,0,0,1-.07.49,1.74,1.74,0,0,1-1.09.57,6.54,6.54,0,0,1-1.53.19,1.24,1.24,0,0,1-1-.25A.33.33,0,0,1,340.84,175.37Z"/><path class="cls-16" d="M332,177.14a.4.4,0,0,1,.13-.32,2.79,2.79,0,0,1,1.75-.94,2.06,2.06,0,0,1,1.74.29.44.44,0,0,1,.13.14.47.47,0,0,1-.07.49,1.74,1.74,0,0,1-1.09.57,7.12,7.12,0,0,1-1.52.2,1.31,1.31,0,0,1-1-.26A.3.3,0,0,1,332,177.14Z"/><path class="cls-17" d="M341.89,178.19a.9.9,0,0,0,1.23.38.91.91,0,1,0-1.23-.38Z"/><path class="cls-17" d="M334.78,179.89a.77.77,0,1,0,.24-1.15A.84.84,0,0,0,334.78,179.89Z"/><path class="cls-9" d="M345.48,179a1.25,1.25,0,0,1,1.11.85,1,1,0,0,1-.08.59,3.05,3.05,0,0,1-2.34,1.6c-1,.23-3.37-.37-2.34-1.87C342.43,179.32,344.52,178.86,345.48,179Z"/><path class="cls-9" d="M337.84,182.36a1.25,1.25,0,0,1,1.11.86,1,1,0,0,1-.08.58,3.09,3.09,0,0,1-2.34,1.61c-1,.23-3.37-.38-2.34-1.87C334.79,182.67,336.88,182.21,337.84,182.36Z"/><path class="cls-15" d="M414,183.49a.84.84,0,0,1,.37.25.09.09,0,0,1-.11.13c-.11-.09-.26-.16-.33-.28A.06.06,0,0,1,414,183.49Z"/><path class="cls-18" d="M349.75,177.61a2.18,2.18,0,0,0,1.47-.3,34.13,34.13,0,0,0,1.1-8.75,9.44,9.44,0,0,0-.42-2.54c-1.36-4-9.86-6.83-10.27-.83-.21,3,3,3.57,4.89,4.94C348.92,171.87,349.41,174.86,349.75,177.61Z"/><path class="cls-19" d="M330.15,176.65a13.37,13.37,0,0,1-.1-4.89,3.12,3.12,0,0,1,2.07-.52.49.49,0,0,1,.31.11.54.54,0,0,1,.13.35,8,8,0,0,1-.3,2.37,35.59,35.59,0,0,0-.78,6,3.11,3.11,0,0,1-.38-.25C330.87,178.75,330.43,177.74,330.15,176.65Z"/><path class="cls-20" d="M339.69,429.11c-.08.64-.13,1.41-.21,1.7a16.1,16.1,0,0,1-1.16,2.9c-1.72,3.35-4,5.74-7.69,6.73-2,.54-4,1-6,1.48a3.68,3.68,0,0,0-1.22.42,1.19,1.19,0,0,0-.58,1.09,1.34,1.34,0,0,0,.59.86c1.44,1.11,14.15.54,14.15.54,6.3-.67,9.77-1.23,9.77-1.23l2.58-.11h0l-.05,1.46h2.85a152,152,0,0,0,0-15.83Z"/><path class="cls-20" d="M385.52,425.43c-.32,2.14,0,4.21-.66,6.36a23,23,0,0,1-3.14,6.62c-2.52,3.73-5.86,6.82-9.16,9.88a12,12,0,0,0,6.14-.31,49.32,49.32,0,0,0,9.21-3.3c1.54-.74,3.06-1.56,4.52-2.45a45.41,45.41,0,0,1,4.17-2.75,7.26,7.26,0,0,1,.09,1.32h.11l2.76-.16a154.87,154.87,0,0,0-.88-16c0-.11-11.93.72-13.16.75Z"/><path class="cls-18" d="M349.35,165.23a9.26,9.26,0,0,1-4.76,7.14,5.24,5.24,0,0,1-2.75.72,1.65,1.65,0,0,1-.81-.23c-.73-.47-.61-1.57-.37-2.41a12.12,12.12,0,0,1-5.5,4.56,2.49,2.49,0,0,1-1.92.18,1.83,1.83,0,0,1-1-1.43,4.91,4.91,0,0,1,.16-1.79,11.89,11.89,0,0,1-1.65,2.84,3.38,3.38,0,0,1-2.87,1.6,2.51,2.51,0,0,1-1.8-1.4,6.19,6.19,0,0,1-.58-2.29c-.29-2.84.07-6,2.16-8a2,2,0,0,1,1.64-.68c-1.65-.34-2.5-2.42-2-4a5.73,5.73,0,0,1,3.59-3.32,8.82,8.82,0,0,1,5.51-.34,6.78,6.78,0,0,1,4.22,3.45c1.07-1.66,3.35-2.19,5.29-1.79a8.31,8.31,0,0,1,5.55,4.2,9.87,9.87,0,0,1,.84,7,2.15,2.15,0,0,1-.53,1.09,1.63,1.63,0,0,1-2.21-.34,4.74,4.74,0,0,1-.83-2.31"/><path class="cls-11" d="M295.62,219.8c-2.94-2.47-6.69-5.91-10.69-4.45-2,.72-4.19,3.05-5.94,4.27l-6.53,4.57a3.48,3.48,0,0,0-1.55,1.74s2.73-.39,3-.47a26.46,26.46,0,0,0,3-1.17c-2.7,2-5.46,3.82-8.13,5.82-.34.25-.7.73-.41,1s.51.13.76.05a37.29,37.29,0,0,0,4.24-1.6,1.53,1.53,0,0,1,.46-.14,1.35,1.35,0,0,1,.83.29l.08.05a6,6,0,0,0,5.6.81c2-.69,4-1.58,6-2.45q3.31,4.2,6.77,8.28,7.58,8.93,15.86,17.21c2.64,2.63,5.39,5.26,8.72,6.91,5.21,2.58,14.75,2.2,12.24-6.07a17.53,17.53,0,0,0-3.68-5.9,155.35,155.35,0,0,0-17.71-17.65q-2-1.71-3.95-3.43c-2.68-2.32-5.31-4.73-8.08-6.94Z"/><path class="cls-20" d="M387.76,367.59a5.14,5.14,0,0,1-4.19-2,9.42,9.42,0,0,1-1.71-5.35l.64,0a8.74,8.74,0,0,0,1.58,5,4.29,4.29,0,0,0,4.5,1.62c2.06-.71,2.89-3.22,3.43-5.57l.63.14c-.58,2.53-1.49,5.22-3.85,6A4,4,0,0,1,387.76,367.59Z"/><path class="cls-20" d="M333.4,365.78a7.6,7.6,0,0,0,7.22-5.7l-.63-.15a6.89,6.89,0,0,1-7.06,5.18,3.18,3.18,0,0,1-1.24-.3c-1.06-.52-1.54-1.79-1.94-3.05l-.61.19c.44,1.39,1,2.8,2.26,3.44a4,4,0,0,0,1.47.37Z"/><polygon class="cls-21" points="341.86 240.85 316.08 235.7 316.08 227.16 342.66 234.09 341.86 240.85"/><rect class="cls-22" x="332.67" y="415.46" width="25.13" height="6.12"/><path class="cls-22" d="M387.28,415.46H381.8v6.12h5.48C387.22,421.24,387.37,417.17,387.28,415.46Z"/><path class="cls-20" d="M346.62,203.15a7.42,7.42,0,0,1-3.14-.62,4.43,4.43,0,0,1-2.61-3.42l.32,0a4.11,4.11,0,0,0,2.43,3.16,8,8,0,0,0,4.17.53,15.68,15.68,0,0,0,13.31-11.51l.32.08a16,16,0,0,1-13.6,11.75Q347.19,203.15,346.62,203.15Z"/><polygon class="cls-23" points="478.61 425.67 395.49 465.39 395.49 109.74 478.61 135.41 478.61 425.67"/><rect class="cls-24" x="387.28" y="109.74" width="8.21" height="355.65"/><polygon class="cls-6" points="475.71 233.12 414.18 256 405.48 248.91 404.51 211.7 467.33 201.39 472.81 201.88 475.71 233.12"/><polygon class="cls-25" points="471.84 229.26 408.22 249.71 408.22 211.7 471.84 201.88 471.84 229.26"/><polygon class="cls-26" points="405.48 248.91 408.22 249.71 408.22 211.7 405.48 210.9 405.48 248.91"/><polygon class="cls-27" points="467.33 201.39 405.48 210.9 408.22 211.7 471.84 201.88 467.33 201.39"/><path class="cls-20" d="M407.69,210.89l-.56-.31c5.3-9.62,11.16-19.43,16.83-28.93,6.41-10.73,13-21.83,18.93-32.76l.3-.57.27.59c4.06,8.71,8.71,17.78,13.2,26.56s9.16,17.87,13.22,26.59l-.59.27c-4.05-8.71-8.7-17.79-13.2-26.56-4.4-8.59-8.95-17.47-12.94-26-5.82,10.76-12.33,21.67-18.64,32.22C418.85,191.47,413,201.29,407.69,210.89Z"/><path class="cls-20" d="M423.48,217.66l-.64-.08-2.22,18.32-2.79-7.42,2-8.18-.62-.15-1.8,7.26-2.51-6.68-.6.23,2.84,7.56-2.24,9.07a125.43,125.43,0,0,1-3.12-18.37l-.64.06A127.75,127.75,0,0,0,414.61,239l.32,1.24,2.63-10.66,3.39,9Z"/><path class="cls-20" d="M431.8,235.07l-5.71,1.8c0-4.55,0-9.15.19-13.72l4.53-1.29-.18-.62-4.33,1.23c.07-1.74.14-3.49.23-5.22,2.1-.7,3.19-1,5.28-1.53l-.15-.63c-2.14.54-3.25.85-5.42,1.57a.35.35,0,0,0-.22.08l-.14,0V217a.36.36,0,0,0,0,.1c-.36,6.69-.51,13.49-.45,20.19v.44l6.54-2.06Z"/><path class="cls-20" d="M463.14,228.59v-.46c-.05-6.31.07-12.7.36-19a.28.28,0,0,1,0-.09v-.22l.13-.05a.29.29,0,0,1,.21-.08c1.76-.68,2.67-1,4.41-1.48l.18.62a43.84,43.84,0,0,0-4.28,1.43c-.28,6.11-.4,12.3-.36,18.42l4.57-1.66.22.6Z"/><rect class="cls-20" x="463.45" y="213.62" width="4.16" height="0.64" transform="translate(-43.55 156.23) rotate(-18.21)"/><rect class="cls-20" x="433.29" y="214.87" width="0.64" height="20.21"/><rect class="cls-20" x="433.43" y="233.99" width="5.21" height="0.64" transform="translate(-46.46 123.75) rotate(-15.35)"/><path class="cls-20" d="M450.07,231.53a1.8,1.8,0,0,1-1.5-1,4.45,4.45,0,0,1-.47-1.65h0c-.7-5-1.23-10.31-.4-15.11.32-1.91,1.26-2.87,2.87-2.93a2.44,2.44,0,0,1,1.87.66,4.42,4.42,0,0,1,.92,3.33l-.22,7.27a20.85,20.85,0,0,1-1.23,7.78c-.44,1-1,1.56-1.75,1.61Zm.63-20h-.11c-1.29,0-2,.78-2.26,2.39-.81,4.71-.28,10,.41,14.91h0a4.22,4.22,0,0,0,.38,1.42,1.18,1.18,0,0,0,1,.63c.57,0,1-.68,1.2-1.21a20.5,20.5,0,0,0,1.18-7.55l.21-7.27A3.84,3.84,0,0,0,452,212,1.73,1.73,0,0,0,450.7,211.52Z"/><path class="cls-20" d="M454.2,230.05l-.19-.62c.05,0,.06,0,.06,0a.66.66,0,0,0,0-.21,1.08,1.08,0,0,1,.05-.49c0-1.19.07-2.38.11-3.56.15-4.8.3-9.34.05-14.07h0c0-.29.26-.49.65-.49h.21l.09.2c1.59,3.81,2.62,6.48,3.07,7.92l-.62.19c-.41-1.32-1.32-3.69-2.71-7,.2,4.49,0,9-.09,13.33,0,1.2-.08,2.41-.11,3.62v.07l0,.07a.86.86,0,0,0,0,.24A.78.78,0,0,1,454.2,230.05Z"/><path class="cls-20" d="M460.83,228.72l-.19-17.22-2.34,7.39-.62-.2,2.83-8.92v0a.4.4,0,0,1,.44-.2.39.39,0,0,1,.3.38l.22,18.8Z"/><path class="cls-20" d="M442.45,233.31a5.76,5.76,0,0,1-.7-.05,3.35,3.35,0,0,1-2.49-2.09,8.6,8.6,0,0,1-.5-3l-.42-9.71a34.69,34.69,0,0,1,0-4.56,1.78,1.78,0,0,1,.3-1,1.8,1.8,0,0,1,1-.56c1.14-.32,3.21-.76,4.23-.09s1.28,3.13,1.11,4.18l-.64-.1c.16-.93-.09-3.06-.82-3.54s-2-.32-3.71.17a1.24,1.24,0,0,0-.62.33,1.26,1.26,0,0,0-.16.62,33.64,33.64,0,0,0,0,4.49l.42,9.7a7.93,7.93,0,0,0,.46,2.83,2.72,2.72,0,0,0,2,1.7c.73.1,2.48.16,3-1.52a13.37,13.37,0,0,0,.28-3.27c0-.73,0-1.43.08-2l.64.07c-.06.55-.07,1.23-.08,2a13.52,13.52,0,0,1-.3,3.44A2.83,2.83,0,0,1,442.45,233.31Z"/><rect class="cls-28" x="555.8" y="247.93" width="32.02" height="12.76" rx="4.6"/><rect class="cls-28" x="535.86" y="263.67" width="32.02" height="12.76" rx="4.6"/><rect class="cls-28" x="572.09" y="263.67" width="32.02" height="12.76" rx="4.6"/><rect class="cls-28" x="551.33" y="279.41" width="32.02" height="12.76" rx="4.6"/><rect class="cls-28" x="586.47" y="279.68" width="32.02" height="12.76" rx="4.6"/><rect class="cls-28" x="516.86" y="279.68" width="32.02" height="12.76" rx="4.6"/><rect class="cls-28" x="130.64" y="329.77" width="32.02" height="12.76" rx="4.6"/><rect class="cls-28" x="114.7" y="313.34" width="32.02" height="12.76" rx="4.6"/><rect class="cls-28" x="138.37" y="296.92" width="32.02" height="12.76" rx="4.6"/><rect class="cls-28" x="521.34" y="247.93" width="32.02" height="12.76" rx="4.6"/><rect class="cls-28" x="538.03" y="233.27" width="32.02" height="12.76" rx="4.6"/><rect class="cls-28" x="252.2" y="151.8" width="32.02" height="12.76" rx="4.6" transform="translate(536.43 316.36) rotate(180)"/><rect class="cls-28" x="272.15" y="136.06" width="32.02" height="12.76" rx="4.6" transform="translate(576.32 284.88) rotate(180)"/><rect class="cls-28" x="235.92" y="136.06" width="32.02" height="12.76" rx="4.6" transform="translate(503.86 284.88) rotate(180)"/><rect class="cls-28" x="256.68" y="120.32" width="32.02" height="12.76" rx="4.6" transform="translate(545.38 253.4) rotate(-180)"/><rect class="cls-28" x="221.53" y="120.05" width="32.02" height="12.76" rx="4.6" transform="translate(475.09 252.86) rotate(180)"/><rect class="cls-28" x="291.15" y="120.05" width="32.02" height="12.76" rx="4.6" transform="translate(614.32 252.86) rotate(180)"/><rect class="cls-28" x="243.31" y="104.1" width="32.02" height="12.76" rx="4.6" transform="translate(518.64 220.96) rotate(180)"/><rect class="cls-28" x="286.67" y="151.8" width="32.02" height="12.76" rx="4.6" transform="translate(605.36 316.36) rotate(180)"/><rect class="cls-28" x="269.98" y="166.46" width="32.02" height="12.76" rx="4.6" transform="translate(571.98 345.67) rotate(180)"/><path class="cls-29" d="M312.75,343.27c1.55,1.44,3.48,2.53,4.63,4.31a6.57,6.57,0,0,1-1,8.08c-1.62,1.53-4.05,2.21-5.23,4.11-1.64,2.62,0,6.07,2,8.39s4.63,4.46,5.26,7.49a8.63,8.63,0,0,1-2.48,7.45,20.41,20.41,0,0,1-6.84,4.35,4.74,4.74,0,0,0-2.2,1.47c-.71,1.07-.41,2.48-.23,3.76a12.14,12.14,0,0,1-1.66,8.38,8.27,8.27,0,0,1-7.42,3.77c-3.76-.38-6.65-3.9-7.35-7.62s.34-7.55,1.78-11.06,3.26-6.87,4.21-10.54a5.53,5.53,0,0,0,.14-3c-.64-2-3-2.8-4.61-4.16a7.16,7.16,0,0,1-1.19-9.24c1.52-2.15,4.09-3.25,6.21-4.8s4-4.23,3-6.68c-.33-.86-1-1.58-1.27-2.47a4.54,4.54,0,0,1,.24-3,8.18,8.18,0,0,1,7.57-4.84C310.74,337.4,310.06,340.79,312.75,343.27Z"/><path class="cls-30" d="M302.08,397.93a8.32,8.32,0,0,1-.89,4l-.33-.16a7.89,7.89,0,0,0,.86-3.81Z"/><path class="cls-30" d="M298.58,394.24a5.62,5.62,0,0,1-.91,4.3l-.3-.21a5.27,5.27,0,0,0,.85-4Z"/><path class="cls-30" d="M294.72,394.07l.29.21a5.11,5.11,0,0,0-.75,4.32l-.35.1A5.45,5.45,0,0,1,294.72,394.07Z"/><path class="cls-30" d="M296.17,388.09l.18.31c-1,.61-1.41,1.89-1.75,3.14l-.35-.1A5.18,5.18,0,0,1,296.17,388.09Z"/><path class="cls-30" d="M303.63,389.67a7.69,7.69,0,0,1-.69,4.2l-.33-.16a7.32,7.32,0,0,0,.66-4Z"/><path class="cls-30" d="M302.53,385.1l.17.32a3.51,3.51,0,0,0-1.79,3.29l-.36,0A3.88,3.88,0,0,1,302.53,385.1Z"/><path class="cls-30" d="M309.61,380.24a4.61,4.61,0,0,1-.21,2.82,4.46,4.46,0,0,1-1.5,1.46,4.77,4.77,0,0,0-1.31,1.21l-.31-.2a5.14,5.14,0,0,1,1.41-1.3,3.15,3.15,0,0,0,1.56-3.94Z"/><path class="cls-30" d="M307.42,375.82a4.8,4.8,0,0,1,0,4.2l-.32-.16a4.45,4.45,0,0,0,0-3.87Z"/><path class="cls-30" d="M302.14,376.66a9.36,9.36,0,0,1-.27,3.76l-.35-.1a9,9,0,0,0,.26-3.61Z"/><path class="cls-30" d="M299,378l.28.23a5.56,5.56,0,0,0-1.2,4.06l-.37,0A5.84,5.84,0,0,1,299,378Z"/><path class="cls-30" d="M315.84,375.1a9.66,9.66,0,0,1-.86,6l-.32-.16a9.33,9.33,0,0,0,.82-5.81Z"/><path class="cls-30" d="M312,370.64a13.41,13.41,0,0,1,.92,4.11l-.36,0a13.13,13.13,0,0,0-.9-4Z"/><path class="cls-30" d="M306.93,367.14a2.8,2.8,0,0,1,1,2l.33,2-.36.06-.32-2a2.52,2.52,0,0,0-.82-1.79Z"/><path class="cls-30" d="M304.91,364.88l.33.16a7.38,7.38,0,0,0-.37,5.68l-.34.12A7.81,7.81,0,0,1,304.91,364.88Z"/><path class="cls-30" d="M308.92,358.76l.31.19a7.44,7.44,0,0,0-1.12,4.05h-.36A7.74,7.74,0,0,1,308.92,358.76Z"/><path class="cls-30" d="M305.32,356.86l.33.16a7,7,0,0,0-.64,3.89l-.36,0A7.42,7.42,0,0,1,305.32,356.86Z"/><path class="cls-30" d="M304.26,355l.18.32a4.14,4.14,0,0,0-2.09,3.63H302A4.52,4.52,0,0,1,304.26,355Z"/><path class="cls-30" d="M312.75,350.33c0,1.9-1.38,3.48-2.75,4.94l-.27-.25c1.38-1.46,2.63-2.92,2.65-4.7Z"/><path class="cls-30" d="M309.78,345.88a7.59,7.59,0,0,1-.58,4.48l-.33-.16a7.23,7.23,0,0,0,.56-4.25Z"/><path class="cls-30" d="M313.82,349.58a2.74,2.74,0,0,1,.19,3.5l-.28-.23a2.36,2.36,0,0,0-.16-3Z"/><path class="cls-30" d="M298.52,364.48a5.12,5.12,0,0,1,.17,5l-.32-.17a4.74,4.74,0,0,0-.15-4.63Z"/><path class="cls-31" d="M280.34,386.78c-1.78-1.14-3.87-1.86-5.32-3.4a6.58,6.58,0,0,1-.47-8.13c1.33-1.8,3.59-2.9,4.42-5,1.13-2.88-1.06-6-3.48-7.91s-5.36-3.55-6.52-6.42a8.62,8.62,0,0,1,1.1-7.77,20.35,20.35,0,0,1,6-5.5,4.81,4.81,0,0,0,1.89-1.85c.51-1.18,0-2.51-.44-3.73a12.16,12.16,0,0,1,.13-8.55,8.25,8.25,0,0,1,6.62-5c3.78-.3,7.25,2.64,8.61,6.17s1,7.5.22,11.2-2,7.35-2.26,11.12a5.62,5.62,0,0,0,.41,3c1,1.87,3.45,2.22,5.28,3.27a7.15,7.15,0,0,1,2.83,8.88c-1.11,2.39-3.44,3.92-5.25,5.83s-3.15,4.88-1.76,7.11c.49.79,1.26,1.38,1.7,2.2a4.54,4.54,0,0,1,.29,3,8.19,8.19,0,0,1-6.57,6.13C283.37,392.2,283.43,388.75,280.34,386.78Z"/><path class="cls-30" d="M289.39,367.23l.34-.12a4.57,4.57,0,0,1,1.16-4.69l-.25-.27A4.94,4.94,0,0,0,289.39,367.23Z"/><path class="cls-30" d="M288.2,342.86a8.26,8.26,0,0,0,1.28-5l-.36,0a7.9,7.9,0,0,1-1.23,4.76Z"/><path class="cls-30" d="M286,341.85a20.17,20.17,0,0,0,.87-3.42l-.36-.06a18.3,18.3,0,0,1-.86,3.35Z"/><path class="cls-30" d="M284.89,347.76l.36,0a15.66,15.66,0,0,1,.8-3.36l-.35-.12A16.24,16.24,0,0,0,284.89,347.76Z"/><path class="cls-30" d="M282.61,345.35l.37,0a9.64,9.64,0,0,1,1.47-4.6l-.31-.2A10.18,10.18,0,0,0,282.61,345.35Z"/><path class="cls-30" d="M281.11,343.66l.27-.25a2.22,2.22,0,0,1-.12-2.19,11.9,11.9,0,0,1,.86-2l-.32-.17a12,12,0,0,0-.89,2.08A2.53,2.53,0,0,0,281.11,343.66Z"/><path class="cls-30" d="M289.41,347.82l.36,0a6.42,6.42,0,0,1,1.36-4.5l-.28-.23A6.77,6.77,0,0,0,289.41,347.82Z"/><rect class="cls-30" x="286.23" y="333.82" width="4.4" height="0.36" transform="translate(-72.42 588.04) rotate(-84.33)"/><path class="cls-30" d="M291.52,337.34a6.91,6.91,0,0,0,.29-5.35l-.34.12a6.52,6.52,0,0,1-.27,5.07Z"/><path class="cls-30" d="M285,335.46a13,13,0,0,0,.58-5.32l-.36,0a12.75,12.75,0,0,1-.56,5.17Z"/><path class="cls-30" d="M281.55,334.66a20.67,20.67,0,0,0,.63-4.28h-.36a20.68,20.68,0,0,1-.62,4.2Z"/><path class="cls-30" d="M279.62,332.92l.2-.31a2,2,0,0,1-.6-2.09,8,8,0,0,1,.49-1.34c.14-.33.28-.66.4-1l-.35-.11c-.11.33-.25.66-.39,1a8.31,8.31,0,0,0-.5,1.4A2.35,2.35,0,0,0,279.62,332.92Z"/><path class="cls-30" d="M283.92,329.16l.36.07a14.75,14.75,0,0,0,.21-3.38l-.36,0A13.94,13.94,0,0,1,283.92,329.16Z"/><rect class="cls-30" x="287.45" y="326.03" width="0.36" height="3.14" transform="translate(-32 31.14) rotate(-5.87)"/><path class="cls-30" d="M291.07,331.77l.36,0c-.18-1.23-.39-2.48-.62-3.7a1.68,1.68,0,0,0-.58-1.18l-.21.3a1.37,1.37,0,0,1,.44.94C290.68,329.3,290.89,330.54,291.07,331.77Z"/><path class="cls-30" d="M286.83,350.83a10.16,10.16,0,0,0,1.33-4l-.36,0a9.72,9.72,0,0,1-1.28,3.88Z"/><path class="cls-30" d="M282.49,350.82a9.15,9.15,0,0,0,1.44-3l-.35-.1a8.86,8.86,0,0,1-1.38,2.85Z"/><path class="cls-30" d="M279.47,350a29.19,29.19,0,0,0,1.87-4l-.34-.13a31,31,0,0,1-1.84,3.91Z"/><path class="cls-30" d="M276.53,348.77h.36a4.14,4.14,0,0,1,1.64-3.23l-.22-.29A4.49,4.49,0,0,0,276.53,348.77Z"/><path class="cls-30" d="M279.44,339.47h.36a16.27,16.27,0,0,1,.25-3l-.36-.06A16.18,16.18,0,0,0,279.44,339.47Z"/><path class="cls-30" d="M289.05,357l.33-.15a5.56,5.56,0,0,1,.17-4.73l-.32-.17A5.85,5.85,0,0,0,289.05,357Z"/><path class="cls-30" d="M285.43,358.27l.33-.16a5.29,5.29,0,0,1-.35-3.75l-.35-.1A5.68,5.68,0,0,0,285.43,358.27Z"/><path class="cls-30" d="M281.75,356.62l.35-.1a5.54,5.54,0,0,1,.32-4l-.33-.16A5.93,5.93,0,0,0,281.75,356.62Z"/><path class="cls-30" d="M278,356.06l.36-.06a6.77,6.77,0,0,1,.37-3.51l-.33-.14A7,7,0,0,0,278,356.06Z"/><path class="cls-30" d="M274.14,355.61l.36,0a10.07,10.07,0,0,1,.4-4.08l-.35-.11A10.63,10.63,0,0,0,274.14,355.61Z"/><path class="cls-30" d="M272,353.84l.32-.16a3.33,3.33,0,0,1,.4-3.53l0,0V350a5.3,5.3,0,0,1,2.2-3.77l-.19-.31a5.63,5.63,0,0,0-2.37,4A3.69,3.69,0,0,0,272,353.84Z"/><rect class="cls-30" x="283.05" y="358.11" width="0.36" height="4.68" transform="translate(-5.42 4.33) rotate(-0.87)"/><path class="cls-30" d="M279.84,363.13l.32-.17a4.81,4.81,0,0,1-.14-4.11l-.34-.15A5.21,5.21,0,0,0,279.84,363.13Z"/><path class="cls-30" d="M275.74,359.92l.35-.09a14,14,0,0,1-.35-2.49h-.37A14.74,14.74,0,0,0,275.74,359.92Z"/><path class="cls-30" d="M272.9,357.44l.25-.27a5.2,5.2,0,0,1-1.36-2.14l-.35.12A5.66,5.66,0,0,0,272.9,357.44Z"/><rect class="cls-30" x="287.15" y="358.05" width="0.36" height="1.57" transform="translate(-90.18 96.52) rotate(-16.52)"/><path class="cls-30" d="M292,358.37a1.33,1.33,0,0,0-.05-1.21l-.31.17a1,1,0,0,1,0,.89Z"/><path class="cls-30" d="M282,370.51a5.84,5.84,0,0,0,.12-4.84l-.33.14a5.49,5.49,0,0,1-.12,4.54Z"/><path class="cls-30" d="M279.71,370.5l.36.08a9.88,9.88,0,0,0,.11-3.43l-.36.05A9.38,9.38,0,0,1,279.71,370.5Z"/><path class="cls-30" d="M282.85,375.9a4.82,4.82,0,0,0,1.32-4.15l-.36.07a4.43,4.43,0,0,1-1.21,3.82Z"/><path class="cls-30" d="M279,377.33a24.21,24.21,0,0,0,2.16-3.41l-.32-.17a24.09,24.09,0,0,1-2.13,3.36Z"/><path class="cls-30" d="M276.86,379.14l.35-.12a5.11,5.11,0,0,1,1.71-5.6l-.22-.29A5.49,5.49,0,0,0,276.86,379.14Z"/><path class="cls-30" d="M281.41,381.93l.28-.23a2.76,2.76,0,0,1-.32-2.93l-.32-.16A3.11,3.11,0,0,0,281.41,381.93Z"/><path class="cls-30" d="M284.83,378.53l.36.05c.1-.85.17-1.71.19-2.56H285C285,376.85,284.93,377.7,284.83,378.53Z"/><path class="cls-30" d="M286.3,375.74a7.2,7.2,0,0,0,.38-2.56h-.36a6.94,6.94,0,0,1-.37,2.43Z"/><path class="cls-31" d="M266,407.44c-2.11-.06-4.28.41-6.31-.17a6.57,6.57,0,0,1-4.61-6.71c.21-2.23,1.58-4.34,1.21-6.55-.51-3.05-4-4.57-7.06-5s-6.43-.28-8.9-2.12a8.65,8.65,0,0,1-3.07-7.23,20.3,20.3,0,0,1,2.25-7.79,4.73,4.73,0,0,0,.67-2.56c-.17-1.27-1.33-2.13-2.31-3a12.16,12.16,0,0,1-4.3-7.38,8.24,8.24,0,0,1,3.06-7.73c3.08-2.21,7.57-1.48,10.56.84s4.74,5.89,6,9.47,2.1,7.31,3.81,10.69a5.44,5.44,0,0,0,1.91,2.37c1.81,1.09,4.1.12,6.21.07a7.15,7.15,0,0,1,7,6.15c.29,2.61-.91,5.13-1.48,7.7s-.17,5.8,2.17,7c.83.42,1.79.52,2.59,1a4.56,4.56,0,0,1,1.79,2.4,8.18,8.18,0,0,1-2.46,8.64C271.4,410.51,269.66,407.52,266,407.44Z"/><path class="cls-30" d="M263.65,386l.23-.28a4.57,4.57,0,0,1-1.44-4.62l-.35-.1A4.93,4.93,0,0,0,263.65,386Z"/><path class="cls-30" d="M250,365.78a8.31,8.31,0,0,0-1.47-4.93l-.3.2a8,8,0,0,1,1.41,4.72Z"/><path class="cls-30" d="M247.59,366.07a19.67,19.67,0,0,0-1-3.38l-.34.13a19.23,19.23,0,0,1,1,3.32Z"/><path class="cls-30" d="M249.73,371.68l.33-.15a15.76,15.76,0,0,1-1.05-3.29l-.36.08A16.05,16.05,0,0,0,249.73,371.68Z"/><path class="cls-30" d="M246.54,370.79l.32-.17a9.62,9.62,0,0,1-1.12-4.7h-.36A9.87,9.87,0,0,0,246.54,370.79Z"/><path class="cls-30" d="M244.38,370.12l.1-.35c-.58-.17-1-.78-1.23-1.81a12.2,12.2,0,0,1-.31-2.17h-.36a12,12,0,0,0,.31,2.24C243.16,369.21,243.67,369.9,244.38,370.12Z"/><path class="cls-30" d="M253.63,369.4l.29-.21a6.46,6.46,0,0,1-1.16-4.56l-.36-.05A6.79,6.79,0,0,0,253.63,369.4Z"/><rect class="cls-30" x="245.47" y="355.88" width="0.36" height="4.4" transform="translate(-130.04 140.32) rotate(-25.45)"/><path class="cls-30" d="M250,359.34a6.92,6.92,0,0,0-2.52-4.74l-.23.29a6.5,6.5,0,0,1,2.38,4.48Z"/><path class="cls-30" d="M243.44,361.1a13,13,0,0,0-2.25-4.85l-.29.21a12.78,12.78,0,0,1,2.19,4.73Z"/><path class="cls-30" d="M240.1,362.19a20.79,20.79,0,0,0-1.67-4l-.32.18a20.61,20.61,0,0,1,1.64,3.91Z"/><path class="cls-30" d="M237.55,361.7l0-.37a2,2,0,0,1-1.6-1.48,7.89,7.89,0,0,1-.28-1.4,8,8,0,0,0-.18-1.07l-.35.08a9.38,9.38,0,0,1,.17,1,8.34,8.34,0,0,0,.3,1.47A2.36,2.36,0,0,0,237.55,361.7Z"/><path class="cls-30" d="M239.29,356.26l.34-.13a14,14,0,0,0-1.56-3l-.3.2A14,14,0,0,1,239.29,356.26Z"/><rect class="cls-30" x="241.48" y="351.43" width="0.36" height="3.14" transform="translate(-163.75 216.42) rotate(-36.99)"/><path class="cls-30" d="M246.76,354.8l.28-.23c-.79-1-1.61-1.92-2.44-2.85a1.68,1.68,0,0,0-1.11-.71l0,.36a1.4,1.4,0,0,1,.86.59C245.15,352.89,246,353.84,246.76,354.8Z"/><path class="cls-30" d="M253,373.31a10.23,10.23,0,0,0-.94-4.15l-.33.16a9.81,9.81,0,0,1,.9,4Z"/><path class="cls-30" d="M249.26,375.54a9.07,9.07,0,0,0-.3-3.28l-.35.1a8.82,8.82,0,0,1,.29,3.15Z"/><path class="cls-30" d="M246.25,376.4a30.25,30.25,0,0,0-.44-4.35l-.36.07a29.43,29.43,0,0,1,.44,4.29Z"/><path class="cls-30" d="M243.1,376.87l.31-.19a4.13,4.13,0,0,1-.27-3.61l-.33-.13A4.46,4.46,0,0,0,243.1,376.87Z"/><path class="cls-30" d="M240.78,367.4l.31-.19a15.89,15.89,0,0,1-1.36-2.74l-.34.13A16.59,16.59,0,0,0,240.78,367.4Z"/><path class="cls-30" d="M258.07,377.44l.21-.29A5.61,5.61,0,0,1,256,373l-.36,0A5.84,5.84,0,0,0,258.07,377.44Z"/><path class="cls-30" d="M255.63,380.4l.19-.31a5.29,5.29,0,0,1-2.23-3l-.35.1A5.65,5.65,0,0,0,255.63,380.4Z"/><path class="cls-30" d="M251.62,380.89l.25-.27a5.51,5.51,0,0,1-1.82-3.62l-.36,0A5.92,5.92,0,0,0,251.62,380.89Z"/><path class="cls-30" d="M248.08,382.37l.28-.24a6.63,6.63,0,0,1-1.5-3.2l-.36.06A7,7,0,0,0,248.08,382.37Z"/><path class="cls-30" d="M244.58,384l.29-.22A10.18,10.18,0,0,1,243.1,380l-.35.09A10.56,10.56,0,0,0,244.58,384Z"/><path class="cls-30" d="M241.83,383.55l.19-.3a3.32,3.32,0,0,1-1.48-3.23V380l0-.06a5.27,5.27,0,0,1-.07-4.36l-.32-.17a5.65,5.65,0,0,0,0,4.66A3.69,3.69,0,0,0,241.83,383.55Z"/><rect class="cls-30" x="254.69" y="381.06" width="0.36" height="4.68" transform="matrix(0.85, -0.53, 0.53, 0.85, -164.3, 192.99)"/><path class="cls-30" d="M253.35,387.45l.19-.31a4.83,4.83,0,0,1-2.25-3.45l-.36.05A5.17,5.17,0,0,0,253.35,387.45Z"/><path class="cls-30" d="M248.18,386.82l.26-.26a14.18,14.18,0,0,1-1.6-1.95l-.3.2A15.14,15.14,0,0,0,248.18,386.82Z"/><path class="cls-30" d="M244.47,386.16l.08-.36a5.25,5.25,0,0,1-2.28-1.12L242,385A5.67,5.67,0,0,0,244.47,386.16Z"/><rect class="cls-30" x="257.36" y="379.12" width="0.36" height="1.57" transform="translate(-196.68 314.07) rotate(-47.62)"/><path class="cls-30" d="M261.29,377.1a1.36,1.36,0,0,0-.67-1l-.18.31a1,1,0,0,1,.48.74Z"/><path class="cls-30" d="M259,392.65a5.87,5.87,0,0,0-2.4-4.22l-.21.3a5.53,5.53,0,0,1,2.25,3.95Z"/><path class="cls-30" d="M257.05,393.83l.35-.12a10,10,0,0,0-1.68-3l-.28.23A9.6,9.6,0,0,1,257.05,393.83Z"/><path class="cls-30" d="M262.53,396.82a4.79,4.79,0,0,0-1-4.22l-.27.23a4.43,4.43,0,0,1,.93,3.91Z"/><path class="cls-30" d="M259.93,400.06a24.64,24.64,0,0,0,.09-4l-.37,0a25.2,25.2,0,0,1-.08,4Z"/><path class="cls-30" d="M259.07,402.69l.24-.28a5.09,5.09,0,0,1-1.43-5.67l-.34-.14A5.49,5.49,0,0,0,259.07,402.69Z"/><path class="cls-30" d="M264.41,402.73l.12-.34a2.72,2.72,0,0,1-1.78-2.34l-.37,0A3.1,3.1,0,0,0,264.41,402.73Z"/><path class="cls-30" d="M265.58,398.06l.33-.15c-.35-.78-.74-1.55-1.16-2.29l-.31.18C264.85,396.53,265.24,397.29,265.58,398.06Z"/><path class="cls-30" d="M265.39,394.9a7.12,7.12,0,0,0-1-2.38l-.31.2a6.84,6.84,0,0,1,1,2.26Z"/><path class="cls-32" d="M294.05,397.21c-1.59-.84-3.41-1.31-4.74-2.52a5.57,5.57,0,0,1-.95-6.84c1-1.61,2.84-2.7,3.39-4.52.77-2.5-1.3-5-3.48-6.44s-4.77-2.65-5.95-5a7.35,7.35,0,0,1,.4-6.65,17.16,17.16,0,0,1,4.66-5.06,4,4,0,0,0,1.48-1.69c.35-1-.21-2.13-.63-3.13a10.3,10.3,0,0,1-.47-7.24,7,7,0,0,1,5.25-4.71c3.17-.51,6.31,1.74,7.7,4.64s1.37,6.27,1,9.46-1.17,6.34-1.15,9.56a4.63,4.63,0,0,0,.55,2.52c1,1.51,3.07,1.64,4.69,2.41a6,6,0,0,1,3,7.31c-.77,2.1-2.64,3.56-4,5.29s-2.32,4.34-1,6.14c.47.63,1.16,1.08,1.59,1.74a3.88,3.88,0,0,1,.45,2.51,7,7,0,0,1-5.14,5.63C297,401.58,296.79,398.66,294.05,397.21Z"/><path class="cls-30" d="M293.37,355.88H293a7.9,7.9,0,0,0-.91-3.78l.33-.17A8.37,8.37,0,0,1,293.37,355.88Z"/><path class="cls-30" d="M295.57,356.35l-.36-.05a7.58,7.58,0,0,0-.71-4.37l.33-.16A8,8,0,0,1,295.57,356.35Z"/><path class="cls-30" d="M294,363.15l-.32-.18a5,5,0,0,0,.56-3.5l.36-.08A5.36,5.36,0,0,1,294,363.15Z"/><path class="cls-30" d="M290.54,362l-.31-.19a6.25,6.25,0,0,0,.57-5.31l.34-.12A6.59,6.59,0,0,1,290.54,362Z"/><path class="cls-30" d="M286.76,368.44a3.63,3.63,0,0,1-.23-3.1,10.3,10.3,0,0,1,1.53-2.68l.3.21a10,10,0,0,0-1.49,2.59,3.27,3.27,0,0,0,.2,2.78Z"/><path class="cls-30" d="M290.26,371.73a4.74,4.74,0,0,1-1.37-4.38l.35.07a4.39,4.39,0,0,0,1.27,4.05Z"/><path class="cls-30" d="M294.67,370.84A4.47,4.47,0,0,1,293.1,367l.36,0a4.17,4.17,0,0,0,1.44,3.53Z"/><path class="cls-30" d="M297.68,367.73a12.51,12.51,0,0,1-.33-2.87h.36a11.87,11.87,0,0,0,.33,2.78Z"/><path class="cls-30" d="M298.63,358.16h-.36a13.63,13.63,0,0,0-.43-3.11l.35-.09A13.78,13.78,0,0,1,298.63,358.16Z"/><path class="cls-30" d="M298.43,349.89a5.61,5.61,0,0,0-1.46-2.76l.25-.25a5.78,5.78,0,0,1,1.56,2.94Z"/><rect class="cls-30" x="289.5" y="347.37" width="3.5" height="0.36" transform="translate(-62.39 631.37) rotate(-88.79)"/><path class="cls-30" d="M289.68,353.39a7.26,7.26,0,0,1-1-2.88l.36-.05a7.09,7.09,0,0,0,1,2.74Z"/><rect class="cls-30" x="294.39" y="345.88" width="0.36" height="3.18" transform="translate(-48.51 47.8) rotate(-8.57)"/><path class="cls-30" d="M291.35,376.79c-.82-1-1.66-1.93-2.51-2.87l.27-.24c.85.94,1.7,1.91,2.52,2.87Z"/><path class="cls-30" d="M295,378.75a7.65,7.65,0,0,0-2-4.17l.26-.25a8.07,8.07,0,0,1,2.09,4.36Z"/><path class="cls-30" d="M297.87,378.39a6.74,6.74,0,0,0-1.74-4.17l.27-.25a7.14,7.14,0,0,1,1.84,4.4Z"/><path class="cls-30" d="M301.53,377.48h-.36A4,4,0,0,0,299,374l.16-.32A4.33,4.33,0,0,1,301.53,377.48Z"/><path class="cls-30" d="M296.83,383.77l-.32-.17a5,5,0,0,0,.12-3.28l.36-.06A5.29,5.29,0,0,1,296.83,383.77Z"/><path class="cls-30" d="M299.6,385.28l-.32-.18a7.16,7.16,0,0,0,.94-4l.36,0A7.51,7.51,0,0,1,299.6,385.28Z"/><path class="cls-30" d="M302,386.85l-.3-.2a7.32,7.32,0,0,0,1.18-3.16l.36.05A7.75,7.75,0,0,1,302,386.85Z"/><path class="cls-30" d="M291.67,389.94a2.4,2.4,0,0,1,.09-1.93,8.12,8.12,0,0,1,.66-1.11c.11-.15.21-.31.31-.47a7.86,7.86,0,0,0,1-2.27l.35.09a8.15,8.15,0,0,1-1,2.37,5.72,5.72,0,0,1-.32.48,7.69,7.69,0,0,0-.62,1.06,2,2,0,0,0-.1,1.62Z"/><path class="cls-30" d="M294.7,393a3.16,3.16,0,0,1-.63-2.5,5.27,5.27,0,0,1,1-2.34l.29.21a5,5,0,0,0-1,2.19,2.76,2.76,0,0,0,.55,2.2Z"/><path class="cls-30" d="M298.52,393.49a4.3,4.3,0,0,1-1.15-3.89l.36.08a3.88,3.88,0,0,0,1,3.55Z"/><path class="cls-30" d="M301.34,394.86l-.46-.9a2.42,2.42,0,0,1-.33-2l.34.15a2.09,2.09,0,0,0,.31,1.7l.46.9Z"/><path class="cls-30" d="M291.86,394.3a4.76,4.76,0,0,1-2-3.05,2,2,0,0,1,.24-1.57l.3.22a1.61,1.61,0,0,0-.18,1.28,4.4,4.4,0,0,0,1.87,2.82Z"/><path class="cls-30" d="M294.71,396.79a3.81,3.81,0,0,1-1.85-3l.36,0a3.47,3.47,0,0,0,1.67,2.73Z"/><rect class="cls-30" x="298.37" y="396.3" width="0.36" height="2.32" transform="translate(-192.95 323.1) rotate(-44.48)"/><path class="cls-30" d="M301.88,397h-.36a1,1,0,0,0-.32-.71l.24-.28A1.34,1.34,0,0,1,301.88,397Z"/><path class="cls-32" d="M277.41,394.92c1.32-1.65,3.07-3,3.94-4.94a6.58,6.58,0,0,0-2.19-7.84c-1.84-1.27-4.34-1.58-5.79-3.28-2-2.35-.93-6,.74-8.61s3.91-5.1,4.09-8.18a8.66,8.66,0,0,0-3.57-7,20.25,20.25,0,0,0-7.42-3.28,4.72,4.72,0,0,1-2.38-1.13c-.87-1-.78-2.39-.79-3.68a12.18,12.18,0,0,0-2.9-8,8.25,8.25,0,0,0-7.89-2.62c-3.67.94-6,4.85-6.14,8.63s1.47,7.42,3.41,10.67,4.25,6.31,5.74,9.79a5.6,5.6,0,0,1,.59,3c-.33,2.08-2.55,3.21-3.94,4.8a7.16,7.16,0,0,0,.21,9.32c1.82,1.9,4.52,2.59,6.85,3.81s4.55,3.6,4,6.16c-.21.91-.75,1.71-.9,2.63a4.53,4.53,0,0,0,.69,2.92,8.2,8.2,0,0,0,8.2,3.67C276.3,401,275.13,397.79,277.41,394.92Z"/><path class="cls-30" d="M258.72,342.47a8.31,8.31,0,0,0-1.48-3.8l-.3.21a7.73,7.73,0,0,1,1.41,3.63Z"/><path class="cls-30" d="M255.8,346.64a5.61,5.61,0,0,0-1.54-4.11l-.26.25a5.27,5.27,0,0,1,1.44,3.84Z"/><path class="cls-30" d="M252,347.39l.26-.26a5.08,5.08,0,0,1-1.39-4.16l-.36-.05A5.5,5.5,0,0,0,252,347.39Z"/><path class="cls-30" d="M254.33,353.08l.14-.34c-1.09-.45-1.68-1.65-2.2-2.83l-.33.14C252.49,351.31,253.12,352.58,254.33,353.08Z"/><path class="cls-30" d="M261.48,350.41a7.7,7.7,0,0,0-1.31-4.05l-.3.2a7.3,7.3,0,0,1,1.24,3.86Z"/><path class="cls-30" d="M261.07,355.09l.12-.34a3.49,3.49,0,0,1-2.25-3l-.37,0A3.89,3.89,0,0,0,261.07,355.09Z"/><path class="cls-30" d="M268.8,358.84a4.67,4.67,0,0,0-.63-2.76,4.59,4.59,0,0,0-1.7-1.22,4.88,4.88,0,0,1-1.48-1l-.27.24a5.09,5.09,0,0,0,1.59,1.08,4.24,4.24,0,0,1,1.57,1.12,4.28,4.28,0,0,1,.56,2.54Z"/><path class="cls-30" d="M267.29,363.53a4.81,4.81,0,0,0-.59-4.15l-.3.21a4.47,4.47,0,0,1,.55,3.83Z"/><path class="cls-30" d="M262,363.5a9.32,9.32,0,0,0-.83-3.68l-.33.15a9,9,0,0,1,.79,3.53Z"/><path class="cls-30" d="M258.67,362.66l.25-.27a5.57,5.57,0,0,1-1.8-3.83h-.36A5.85,5.85,0,0,0,258.67,362.66Z"/><path class="cls-30" d="M275.72,363a9.65,9.65,0,0,0-1.74-5.84l-.3.21a9.36,9.36,0,0,1,1.68,5.61Z"/><path class="cls-30" d="M272.54,368a13.48,13.48,0,0,0,.3-4.2l-.36,0a13.41,13.41,0,0,1-.29,4.09Z"/><path class="cls-30" d="M268.1,372.2a2.84,2.84,0,0,0,.66-2.16l0-2h-.36l0,2a2.52,2.52,0,0,1-.54,1.89Z"/><path class="cls-30" d="M266.44,374.73l.3-.21a7.41,7.41,0,0,1-1.2-5.56l-.36-.07A7.75,7.75,0,0,0,266.44,374.73Z"/><path class="cls-30" d="M271.32,380.19l.28-.24a7.52,7.52,0,0,1-1.72-3.84l-.36.05A7.87,7.87,0,0,0,271.32,380.19Z"/><path class="cls-30" d="M268,382.6l.3-.21a7,7,0,0,1-1.21-3.75h-.36A7.46,7.46,0,0,0,268,382.6Z"/><path class="cls-30" d="M267.27,384.62l.13-.34a4.16,4.16,0,0,1-2.61-3.29l-.36.05A4.56,4.56,0,0,0,267.27,384.62Z"/><path class="cls-30" d="M276.36,388c-.31-1.88-1.88-3.24-3.46-4.48l-.22.29c1.58,1.24,3,2.5,3.32,4.25Z"/><path class="cls-30" d="M274.09,392.79a7.57,7.57,0,0,0-1.24-4.34l-.3.2a7.36,7.36,0,0,1,1.18,4.13Z"/><path class="cls-30" d="M277.54,388.53a2.75,2.75,0,0,0-.34-3.49l-.25.27a2.34,2.34,0,0,1,.29,3Z"/><path class="cls-30" d="M260.19,376.07a5.13,5.13,0,0,0-.58-5l-.3.22a4.71,4.71,0,0,1,.54,4.6Z"/><path class="cls-29" d="M270,362.16c-1.35,1.19-3,2.07-4,3.56a5.58,5.58,0,0,0,.67,6.87c1.35,1.34,3.4,2,4.36,3.6,1.34,2.26-.1,5.15-1.87,7.08s-4,3.69-4.62,6.24a7.32,7.32,0,0,0,2,6.37,17.17,17.17,0,0,0,5.72,3.83A4,4,0,0,1,274,401c.58.92.3,2.11.12,3.19a10.3,10.3,0,0,0,1.24,7.14,7,7,0,0,0,6.21,3.35c3.21-.24,5.73-3.17,6.4-6.31s-.14-6.42-1.28-9.42-2.63-5.9-3.37-9a4.66,4.66,0,0,1-.05-2.59c.58-1.69,2.6-2.31,4-3.44a6.05,6.05,0,0,0,1.2-7.81c-1.24-1.86-3.4-2.84-5.17-4.2s-3.28-3.67-2.41-5.73c.3-.72.87-1.32,1.13-2.06a3.89,3.89,0,0,0-.14-2.54,7,7,0,0,0-6.32-4.27C271.82,357.22,272.33,360.11,270,362.16Z"/><path class="cls-30" d="M279,402.5l-.35.09a7.88,7.88,0,0,1,0,3.89l.35.09A8.25,8.25,0,0,0,279,402.5Z"/><path class="cls-30" d="M281.06,401.53l-.34.13a7.55,7.55,0,0,1,.34,4.41l.35.08A7.92,7.92,0,0,0,281.06,401.53Z"/><path class="cls-30" d="M278,395.27l-.26.25a5,5,0,0,1,1.37,3.28h.36A5.33,5.33,0,0,0,278,395.27Z"/><path class="cls-30" d="M274.86,397.25l-.26.26a6.18,6.18,0,0,1,1.79,5l.36,0A6.59,6.59,0,0,0,274.86,397.25Z"/><path class="cls-30" d="M269.66,391.84a3.6,3.6,0,0,0,.5,3.06,10.09,10.09,0,0,0,2.12,2.25l.24-.27a10,10,0,0,1-2-2.17A3.23,3.23,0,0,1,270,392Z"/><path class="cls-30" d="M272.29,387.81a4.78,4.78,0,0,0-.31,4.59l.33-.15a4.44,4.44,0,0,1,.28-4.24Z"/><path class="cls-30" d="M276.78,387.65a4.5,4.5,0,0,0-.62,4.11l.35-.12a4.13,4.13,0,0,1,.57-3.77Z"/><path class="cls-30" d="M280.44,390a12.59,12.59,0,0,0,.35,2.87l.36-.09a11.32,11.32,0,0,1-.34-2.78Z"/><path class="cls-30" d="M283.61,399l-.35.08a13.59,13.59,0,0,1,.3,3.12h.37A13.83,13.83,0,0,0,283.61,399Z"/><path class="cls-30" d="M285.35,407.13a5.55,5.55,0,0,1-.77,3l.31.18a5.78,5.78,0,0,0,.82-3.22Z"/><rect class="cls-30" x="278.74" y="409.35" width="0.36" height="3.5" transform="translate(-95.59 84.69) rotate(-14.77)"/><path class="cls-30" d="M276,405.79a7.25,7.25,0,0,0-.32,3l.37,0a6.86,6.86,0,0,1,.29-2.88Z"/><rect class="cls-30" x="281.99" y="408.8" width="0.36" height="3.18" transform="translate(-34.6 26.08) rotate(-4.99)"/><path class="cls-30" d="M272.17,382.65c-.57,1.12-1.17,2.26-1.78,3.37l.32.17c.61-1.11,1.21-2.25,1.78-3.38Z"/><path class="cls-30" d="M275.22,379.89a7.74,7.74,0,0,1-1,4.52l.31.18a8,8,0,0,0,1-4.73Z"/><path class="cls-30" d="M278.13,379.56a6.83,6.83,0,0,1-.71,4.46l.32.18a7.13,7.13,0,0,0,.75-4.71Z"/><path class="cls-30" d="M281.9,379.58l-.35.09a4,4,0,0,1-1.32,3.89l.23.28A4.35,4.35,0,0,0,281.9,379.58Z"/><path class="cls-30" d="M275.85,374.57l-.27.25a4.94,4.94,0,0,1,.89,3.15l.36,0A5.23,5.23,0,0,0,275.85,374.57Z"/><path class="cls-30" d="M278.19,372.46l-.26.25a7.16,7.16,0,0,1,1.84,3.63l.36-.06A7.59,7.59,0,0,0,278.19,372.46Z"/><path class="cls-30" d="M280.14,370.36l-.25.27a7.32,7.32,0,0,1,1.89,2.8l.34-.13A7.85,7.85,0,0,0,280.14,370.36Z"/><path class="cls-30" d="M269.4,369.78a2.29,2.29,0,0,0,.54,1.85,6.61,6.61,0,0,0,.9.93l.41.39a8.16,8.16,0,0,1,1.47,2l.32-.17a8.21,8.21,0,0,0-1.54-2.07l-.42-.4a7.13,7.13,0,0,1-.86-.88,2,2,0,0,1-.47-1.55Z"/><path class="cls-30" d="M271.63,366.14a3.14,3.14,0,0,0,0,2.57,5.33,5.33,0,0,0,1.55,2l.24-.28a4.88,4.88,0,0,1-1.45-1.89,2.78,2.78,0,0,1,0-2.28Z"/><path class="cls-30" d="M275.22,364.72a4.28,4.28,0,0,0-.2,4l.32-.16a3.9,3.9,0,0,1,.19-3.69Z"/><path class="cls-30" d="M277.64,362.73l-.24,1a2.47,2.47,0,0,0,.16,2l.28-.23a2,2,0,0,1-.08-1.72l.23-1Z"/><path class="cls-30" d="M268.55,365.5a4.81,4.81,0,0,0-1.26,3.45,2,2,0,0,0,.6,1.46l.23-.28a1.61,1.61,0,0,1-.47-1.2,4.4,4.4,0,0,1,1.17-3.18Z"/><path class="cls-30" d="M270.74,362.41a3.84,3.84,0,0,0-1.09,3.37l.36-.07a3.44,3.44,0,0,1,1-3Z"/><rect class="cls-30" x="273.16" y="360.68" width="2.32" height="0.36" transform="translate(-176.22 410.73) rotate(-59.07)"/><path class="cls-30" d="M277.66,360.52l-.35.09a1,1,0,0,1-.14.76l.29.21A1.29,1.29,0,0,0,277.66,360.52Z"/><polygon class="cls-33" points="300.75 449.06 261.85 449.06 248.74 394.1 310.61 394.1 300.75 449.06"/><path class="cls-34" d="M265.51,438.54a37.79,37.79,0,0,1,8.93-23.93c5.23-6.1,13.37-9.27,21.14-10.46a49.54,49.54,0,0,1,13.27-.27l1.76-9.78H248.74l13.11,55h5.26A35.26,35.26,0,0,1,265.51,438.54Z"/><rect class="cls-33" x="239.86" y="388.89" width="77.23" height="10.01"/><path class="cls-35" d="M294.86,331.58c-1.39,9-5.29,17.32-9.15,25.53l-18.18,38.71c-2.78,5.92-5.59,11.9-9.66,17-1.8,2.26-7.1,9.13-10.52,7.54-4-1.85-1.54-8.13-.57-10.86a285.86,285.86,0,0,1,12.27-28.86,183.84,183.84,0,0,1,15.5-26.78,129.06,129.06,0,0,1,9.74-12.14C286.11,339.75,294.51,333.86,294.86,331.58Z"/><path class="cls-25" d="M217,407.63c-9.86-14.54-16.62-30.92-23.3-47.17,22.71,12.4,36,38.77,33.43,64.35C224.83,418.44,220.71,413.17,217,407.63Z"/><path class="cls-35" d="M217,398.24a74.71,74.71,0,0,0-9.69-7.14A156.19,156.19,0,0,0,217,407.63c3.76,5.54,7.88,10.81,10.13,17.18a65.11,65.11,0,0,0-.44-16.33A66.11,66.11,0,0,0,217,398.24Z"/><path class="cls-35" d="M231.66,335.79c-1.73,4.55,1.36,13.06,1.74,17.9q.71,9.29,1,18.59.68,18.95-.22,37.89c-.13,2.75,1.53,14.25-3.72,14.62-4.34.31-4.18-10.68-4.59-13.42a188.81,188.81,0,0,1-2.15-35.68A126.6,126.6,0,0,1,231.66,335.79Z"/><path class="cls-26" d="M214,404.22a26.27,26.27,0,0,0-21.56.31c-6.25,3.07-10.89,8.8-14,15.06s-4.69,13.11-6.3,19.9c5.88-7.82,13.16-14.86,22.11-18.82a35.81,35.81,0,0,1,16.26-3.09c5.48.31,11.84,5.61,16.64,5.28C237.63,422.17,217.43,405.68,214,404.22Z"/><path class="cls-25" d="M243,406.37c0-7.13-2-14.15-2.06-21.28s1.75-14.35,3.63-21.34q5.17-19.23,10.92-38.31c2,22.69,3.43,45.8-.4,68.38-1.48,8.74-3.59,25.3-10.08,31.9-3.86,3.92-5.17,1.73-4.94-2.45C240.41,417.63,243.05,412.26,243,406.37Z"/><path class="cls-27" d="M241,385.09c.09,7.13,2.05,14.15,2.06,21.28,0,5.89-2.63,11.26-2.93,16.9-.23,4.18,1.08,6.37,4.94,2.45s6.09-11.13,7.64-18.25a119.53,119.53,0,0,0-.81-14.13c-.19-1.59-.29-2.34-.55-4s-.52-3.12-.85-4.66a66.29,66.29,0,0,0-2.51-9,37,37,0,0,0-3.8-7.72l-.49-.74C242.17,373.13,240.91,379.06,241,385.09Z"/><path class="cls-26" d="M227.73,363.53c11.24,9.11,15.82,24,18.88,38.13,1,4.41-1.12,23.87,5.75,21.49,4.22-1.45,8.5-13,10.67-16.71l10.21-17.36c1-1.73,2.48-3.7,4.47-3.49L288,403.32a148.15,148.15,0,0,0-6.18-32.72c-.41-1.31-.92-2.72-2.1-3.41-2.31-1.36-5,1-6.63,3.1A158.24,158.24,0,0,0,251,411.6c-1.78,4.83-3.55,11.95-10.15,10.39-4.85-1.14-7.41-7.2-9.09-11.32-2.92-7.19-4.21-15.28-4.82-23C226.68,384.75,228.9,364.47,227.73,363.53Z"/><polygon class="cls-12" points="254.03 454.13 226.79 454.17 217.56 420.49 260.89 420.44 254.03 454.13"/><path class="cls-36" d="M229.35,447.71A21.55,21.55,0,0,1,235.57,433c3.66-3.75,9.36-5.69,14.8-6.43a39.61,39.61,0,0,1,9.3-.18l1.22-6-43.33.05,9.23,33.68h3.68A19.2,19.2,0,0,1,229.35,447.71Z"/><rect class="cls-12" x="211.34" y="417.27" width="54.09" height="6.13" transform="translate(-0.5 0.28) rotate(-0.07)"/></g></svg>