<svg id="Layer_1" data-name="Layer 1" xmlns="http://www.w3.org/2000/svg" xmlns:xlink="http://www.w3.org/1999/xlink" viewBox="0 0 2343.09 3761.11"><defs><style>.cls-1{fill:none;}.cls-2{opacity:0.2;}.cls-3{fill:#371a45;}.cls-4{fill:#fff;}.cls-5{isolation:isolate;}.cls-6{fill:#22a7f0;}.cls-7{opacity:0.35;}.cls-8{opacity:0.25;}.cls-9{fill:#00bdff;}.cls-10{fill:#0f0b56;}.cls-11{opacity:0.5;}.cls-12{opacity:0.7;}.cls-13{fill:#111a28;}.cls-14{clip-path:url(#clip-path);}.cls-15{fill:#5ce205;}.cls-16{fill:#54a520;}.cls-17{opacity:0.4;}.cls-18{opacity:0.6;}</style><clipPath id="clip-path" transform="translate(-1066.4 75.92)"><circle class="cls-1" cx="2427.78" cy="960.68" r="683.23"/></clipPath></defs><g class="cls-2"><ellipse class="cls-3" cx="692.37" cy="3598.48" rx="673.73" ry="162.63"/></g><rect class="cls-4" x="1277.49" y="2703.74" width="963.9" height="749.34" rx="103.77" transform="translate(2452.48 6232.74) rotate(180)"/><path class="cls-3" d="M2137.62,3473.08H1381.26a123.92,123.92,0,0,1-123.77-123.77v-541.8a123.91,123.91,0,0,1,123.77-123.77h756.36a123.91,123.91,0,0,1,123.77,123.77v541.8A123.91,123.91,0,0,1,2137.62,3473.08Zm-756.36-749.34a83.86,83.86,0,0,0-83.77,83.77v541.8a83.87,83.87,0,0,0,83.77,83.77h756.36a83.87,83.87,0,0,0,83.77-83.77v-541.8a83.86,83.86,0,0,0-83.77-83.77Z" transform="translate(-1066.4 75.92)"/><g class="cls-5"><path class="cls-4" d="M1243,3413.57c141.93,192.48,479.53,186.15,574.84,186.15a265.56,265.56,0,0,0,40.68-3c63.51-9.92,84.86-41.18,84.86-41.18s214.51-25.22,318.65-161.41c59.19-77.44,55.51-148.21,41.32-194.88-10.74-35.44-27.53-57-27.53-57s140.8-3.14,235.42-107.28,82.06-334.41,28.42-369.11S2432.35,2647,2432.35,2647s-15.76-63.12-72.54-34.7-34.7,123-34.7,123c-6.87,16.73-9.47,34.05-9.76,50a193,193,0,0,0,9.76,63.56c-106,54.47-156.75,7.36-216.42-39-2.51-2-5.06-3.92-7.61-5.89-24.19-18.45-58.7-38.42-101.15-56.09-68-28.22-156.36-50.4-255.64-50.4-380.78,0-517.12,195.57-532.87,299.71s56.78,123,56.78,123-1.82,1.13-5,3.29C1236.55,3142.33,1115.87,3241.31,1243,3413.57Z" transform="translate(-1066.4 75.92)"/></g><path class="cls-3" d="M1797.38,3617.24c-118.32,0-430.19-5.73-568.49-193.28-48.15-65.25-67.76-128.06-58.29-186.69,9-55.77,42.78-94.26,65.56-114.51-24-17.64-53.19-54.76-42-128.23,4-26.24,25.54-118.27,136.44-200.35,101-74.73,244-114.23,413.73-114.23,164.53,0,300.75,59.29,367.4,110.07,5.68,4.34,11.27,8.71,16.8,13.05,52.07,40.82,93.75,73.48,175.67,36.48-5.49-22.12-12.22-64.71,2.79-105.81-4.18-22.67-15.18-107.06,45-137.14,26.77-13.4,46.67-9.64,58.66-4.13,17.16,7.89,27.29,23,32.86,34.61a158.44,158.44,0,0,1,105.62,24.11c30.73,19.88,42.09,74.91,46.13,105.94,12,92.09-5.37,217.37-71.1,289.64-73.24,80.61-171.26,103.74-219.25,110.36,22.25,44.38,52.48,141-29,247.64-97.92,128-284.46,161.5-323.53,167.22-10.69,11.4-37.72,33.68-91.19,42a284.83,284.83,0,0,1-43.38,3.2h-20.43ZM1744.29,2715c-346.66,0-498.25,170.33-515.57,284.83-13.28,87.5,43.33,103.33,43.9,103.48a17.49,17.49,0,0,1,4.81,31.8c-.15.1-1.69,1.07-4.26,2.84-13.39,9.45-58.37,45.31-68,105-7.91,49,9.55,102.92,51.91,160.32h0c132.58,179.8,448.23,179.31,551.87,179h8.88a248.88,248.88,0,0,0,38-2.79c54-8.43,72.48-32.93,73.24-34a17,17,0,0,1,12.24-7.29c2.08-.24,208.5-26.1,306.81-154.66,94.24-123.3,17.19-226.19,13.87-230.51a17.52,17.52,0,0,1,13.43-28.22c1.32,0,134.66-4.47,222.86-101.55,57.89-63.66,72.87-180.22,62.28-261.58-6.43-49.47-20.41-74.59-30.42-81.07-45.82-29.64-91-17.36-92.93-16.82a17.57,17.57,0,0,1-21.82-12.57c-1.49-5.67-7.92-21.74-19.45-27-7.3-3.3-16.81-2.06-28.28,3.68-43.68,21.82-25.66,102.62-25.47,103.43a17.64,17.64,0,0,1-.87,10.62c-19.27,46.79,0,100.31.24,100.85a17.51,17.51,0,0,1-8.42,21.61c-110.57,56.85-169.36,10.77-226.22-33.8-5.41-4.23-10.87-8.51-16.42-12.75C2028.16,2770.39,1900.11,2715,1744.29,2715Z" transform="translate(-1066.4 75.92)"/><g class="cls-5"><rect class="cls-4" x="1327" y="3102.32" width="840.35" height="140.91" rx="70.45" transform="translate(2427.95 6421.47) rotate(-180)"/></g><path class="cls-3" d="M2096.89,3258.23H1397.45a85.46,85.46,0,0,1,0-170.91h699.44a85.46,85.46,0,1,1,0,170.91Zm-699.44-140.91a55.46,55.46,0,0,0,0,110.91h699.44a55.46,55.46,0,1,0,0-110.91Z" transform="translate(-1066.4 75.92)"/><path class="cls-3" d="M1461.11,2911.41l-22,67.86a20.23,20.23,0,1,1-38.48-12.48,20.6,20.6,0,0,1,2.7-5.41l41.08-58.33a9.45,9.45,0,0,1,16.71,8.36Z" transform="translate(-1066.4 75.92)"/><path class="cls-4" d="M1522.76,3086.61V3285c0,36.82,29,66.94,64.42,66.94H1939c35.46,0,64.42-30.12,64.42-66.94V3086.61c0-36.78-29-66.9-64.42-66.9H1587.18c-28.3,0-52.51,19.23-61.1,45.74A69,69,0,0,0,1522.76,3086.61Z" transform="translate(-1066.4 75.92)"/><path class="cls-3" d="M1937.21,3366.92H1589a81.31,81.31,0,0,1-81.22-81.22V3085.94a81.32,81.32,0,0,1,81.22-81.23h348.23a81.31,81.31,0,0,1,81.22,81.23V3285.7A81.31,81.31,0,0,1,1937.21,3366.92ZM1589,3034.71a51.28,51.28,0,0,0-51.22,51.23V3285.7a51.28,51.28,0,0,0,51.22,51.22h348.23a51.28,51.28,0,0,0,51.22-51.22V3085.94a51.28,51.28,0,0,0-51.22-51.23Z" transform="translate(-1066.4 75.92)"/><ellipse class="cls-6" cx="572.06" cy="3261.74" rx="55.56" ry="57.69"/><path class="cls-4" d="M1582.89,3185.84a59.12,59.12,0,0,0,1.09,11.45c5.13-26.42,27.59-46.3,54.49-46.3s49.35,19.88,54.45,46.3a59.12,59.12,0,0,0,1.09-11.45c0-31.87-24.86-57.72-55.54-57.72S1582.89,3154,1582.89,3185.84Z" transform="translate(-1066.4 75.92)"/><g class="cls-7"><path class="cls-3" d="M1582.9,3185.81c0,31.89,24.89,57.69,55.56,57.69s55.55-25.8,55.55-57.69a60.3,60.3,0,0,0-2-15.45c-6.53,24.32-28.06,42.2-53.54,42.2s-47-17.88-53.54-42.2A59.87,59.87,0,0,0,1582.9,3185.81Z" transform="translate(-1066.4 75.92)"/></g><path class="cls-3" d="M1638.46,3258.51c-38.91,0-70.56-32.61-70.56-72.69s31.65-72.7,70.56-72.7,70.56,32.61,70.56,72.7S1677.37,3258.51,1638.46,3258.51Zm0-115.39c-22.36,0-40.56,19.16-40.56,42.7s18.2,42.69,40.56,42.69,40.56-19.15,40.56-42.69S1660.82,3143.12,1638.46,3143.12Z" transform="translate(-1066.4 75.92)"/><path class="cls-3" d="M1795.9,3366.92a15,15,0,0,1-15-15V3250.38c0-29.58,13.64-57.9,36.48-75.75l8.93-7c15.63-12.21,25-31.69,25-52.11v-95.82a15,15,0,0,1,30,0v95.82c0,29.57-13.63,57.89-36.47,75.75l-8.94,7c-15.62,12.21-24.95,31.69-24.95,52.11v101.54A15,15,0,0,1,1795.9,3366.92Z" transform="translate(-1066.4 75.92)"/><g class="cls-5"><path class="cls-4" d="M1362.84,2957.71s110.42,23.66,184.56,96.22,112.06,170.74,47.33,209.81c-91.49,55.21-193-131-332.31-139.66" transform="translate(-1066.4 75.92)"/></g><path class="cls-3" d="M1364.13,2951.71a297.54,297.54,0,0,1,51.75,11.93,373.86,373.86,0,0,1,49.3,19.7c31.82,15.65,62.33,35,88.67,59.89,26,24.66,48.8,52.72,66,84.94,8.48,16.14,15.53,33.42,19.28,52.18,3.66,18.56,3.95,39.57-4.54,59.16a77.3,77.3,0,0,1-18.28,25.64,89.42,89.42,0,0,1-25.88,16.67,79.85,79.85,0,0,1-30.78,6.27,98.33,98.33,0,0,1-29.93-4.94c-18.7-6.1-34.68-15.63-49.65-25.58s-28.87-20.8-42.61-31.47c-27.43-21.31-53.9-42.85-82.4-60-28.32-17.16-58.9-29.87-90.29-31.74a15,15,0,1,1,1.78-29.94h.07a193,193,0,0,1,54.82,11.89,288,288,0,0,1,49.13,24c30.84,18.68,58.39,40.8,85.36,62.24,13.5,10.69,26.91,21.22,40.63,30.6s27.81,17.66,42.08,22.4,28.2,5.25,40.85-.07a61.38,61.38,0,0,0,17.66-11.14,49.51,49.51,0,0,0,11.84-16.21c5.68-12.29,6.27-27.58,3.51-42.8s-8.55-30.57-15.93-45.15c-14.89-29.21-35.81-56-59.62-79.37-23.65-23.17-51.93-41.89-81.88-57.3s-61.59-28.51-93.51-39.85l-.3-.1a6.15,6.15,0,0,1,2.87-11.89Z" transform="translate(-1066.4 75.92)"/><g class="cls-5"><path class="cls-4" d="M1858.49,3352.13v244.6c63.51-9.92,84.86-41.18,84.86-41.18s214.51-25.22,318.65-161.41,33.45-232.08,13.79-251.86c-66.64-67.05-174,9.13-246.47,85.17C1960.17,3300,1858.49,3352.13,1858.49,3352.13Z" transform="translate(-1066.4 75.92)"/></g><path class="cls-3" d="M1858.49,3611.73a15,15,0,0,1-15-15v-244.6a15,15,0,0,1,8.16-13.35c1-.51,100.3-51.87,166.81-121.67,40.83-42.85,120.4-114.85,194.54-115.63h1.22c28,0,52.27,10.17,72.21,30.24,4.51,4.52,108.85,112.75-12.51,271.54-98.22,128.44-286.34,161.16-322.88,166.41-10,10.72-37,33.57-90.23,41.89A15.11,15.11,0,0,1,1858.49,3611.73Zm15-250.59v217.28c42-10.53,56.89-30.54,57.58-31.49a15.45,15.45,0,0,1,10.52-6.27c2.08-.25,209.53-26.21,308.5-155.63,105.64-138.23,18.81-228.41,15.06-232.18-14.51-14.59-31.59-21.47-51.84-21.37-46.1.48-109.21,39.24-173.13,106.32C1980.74,3300.18,1899.43,3347,1873.49,3361.14Z" transform="translate(-1066.4 75.92)"/><g class="cls-5"><path class="cls-4" d="M1243,3413.57c141.93,192.48,479.53,186.15,574.84,186.15a265.56,265.56,0,0,0,40.68-3c63.51-9.92,84.86-41.18,84.86-41.18,36.27-58.35,14.72-173.48-72.59-200.33a115.8,115.8,0,0,0-12.27-3.09c-68.9-14.18-176.13,12.86-213.28-8-39.46-22.09-178.79-111.65-272.72-179.43-42.11-30.42-80.14-40-109.25-41.27C1236.55,3142.33,1115.87,3241.31,1243,3413.57Z" transform="translate(-1066.4 75.92)"/></g><path class="cls-3" d="M1797.4,3614.74c-118,0-428.94-5.71-566.5-192.27-47.73-64.69-67.19-126.86-57.83-184.8,11.66-72.16,65.35-115,81.53-126.44a15.23,15.23,0,0,1,9.3-2.73c39.8,1.74,79.29,16.58,117.37,44.1,95.21,68.69,234.82,158.09,271.26,178.49,15.8,8.85,55.24,6.46,93.4,4.16,39.89-2.41,81.15-4.9,115.59,2.19a130.2,130.2,0,0,1,13.71,3.46c40.89,12.58,72.45,43.57,88.8,87.25,17.39,46.46,14.27,99.58-7.94,135.32l-.35.54c-1,1.5-25.81,36.75-94.93,47.54a282.5,282.5,0,0,1-43,3.17H1797.4Zm-529.65-476c-17.1,13-56.1,48.21-65.06,103.68-8,49.67,9.59,104.25,52.36,162.21h0c133.32,180.82,450,180.24,553.89,180.06h8.87a252.52,252.52,0,0,0,38.38-2.81c53-8.28,72.53-31.9,74.7-34.74,17-27.72,19-71.23,5-108.5-13-34.77-37.73-59.32-69.58-69.11a102.69,102.69,0,0,0-10.77-2.71c-30.66-6.31-69.89-3.95-107.85-1.65-46.36,2.79-86.39,5.21-109.86-7.94-37.92-21.21-176.5-109.87-274.17-180.34C1332.14,3154.11,1299.89,3141.29,1267.75,3138.78Z" transform="translate(-1066.4 75.92)"/><path class="cls-3" d="M1277.49,3465.58a12.51,12.51,0,0,1-11.88-8.6c-59.34-180.75,114.38-290.46,116.14-291.55a12.5,12.5,0,0,1,13.14,21.27c-6.54,4.06-158.66,100.65-105.53,262.48a12.5,12.5,0,0,1-8,15.78A12.65,12.65,0,0,1,1277.49,3465.58Z" transform="translate(-1066.4 75.92)"/><path class="cls-3" d="M2195.73,3470.76a12.5,12.5,0,0,1-10.8-18.77c15.16-26.14,34.29-105.56-7.62-171.32-45.41-71.27-105.48-82.81-106.08-82.91a12.5,12.5,0,0,1,4.43-24.61c2.89.52,71.51,13.68,122.74,94.08,44.26,69.48,31.42,157.2,8.15,197.3A12.49,12.49,0,0,1,2195.73,3470.76Z" transform="translate(-1066.4 75.92)"/><path class="cls-3" d="M2167.86,3137l-43.37-21.16a15,15,0,0,1-8.25-11.2l0-.25h0a496.18,496.18,0,0,0-8.81-50.11q-5.68-25.09-13.68-49.59a443.3,443.3,0,0,0-18.64-47.88,362.21,362.21,0,0,0-24.65-44.91l-.18-.27a8,8,0,0,1,13.19-9,377.29,377.29,0,0,1,29.05,45.43,466.08,466.08,0,0,1,22.83,48.72q10,25,17.71,50.77a526,526,0,0,1,12.91,52.77h0l-8.29-11.45L2181,3110a15,15,0,0,1-13.16,27Z" transform="translate(-1066.4 75.92)"/><path class="cls-3" d="M2282.47,3156.91a15,15,0,0,1-10.62-4.41c-114.44-114.8-53.22-277.81-50.56-284.7a15,15,0,0,1,28,10.81h0c-.59,1.5-56.69,151.88,43.82,252.7a15,15,0,0,1-10.63,25.6Z" transform="translate(-1066.4 75.92)"/><path class="cls-3" d="M2341.2,2842a26.23,26.23,0,0,0,1.12,3.32c.48,1.28,1.07,2.6,1.63,3.92,1.19,2.62,2.47,5.28,3.89,7.88a134.25,134.25,0,0,0,9.55,15.26,140.49,140.49,0,0,0,11.62,14.14,153.62,153.62,0,0,0,13.44,12.79l.35.3a9.58,9.58,0,0,1-11,15.6A176.83,176.83,0,0,1,2353.9,2904a166.69,166.69,0,0,1-16.62-13.5,164.19,164.19,0,0,1-15-15.73c-2.35-2.8-4.59-5.73-6.79-8.75-1.08-1.55-2.17-3.06-3.21-4.71a62.44,62.44,0,0,1-3.28-5.53l-1.56-3a18,18,0,0,1,31.87-16.66A18.19,18.19,0,0,1,2341.2,2842Z" transform="translate(-1066.4 75.92)"/><path class="cls-3" d="M2371.68,2780.83c-32.08,0-54.73-21-63.47-34.86a20,20,0,0,1,33.71-21.52c2.65,4,16.93,22.92,43,14a20,20,0,1,1,12.94,37.85A80.58,80.58,0,0,1,2371.68,2780.83Z" transform="translate(-1066.4 75.92)"/><path class="cls-3" d="M2462.83,3275.05a14.89,14.89,0,0,1-8.84-2.9c-3.73-2.73-91.53-68.33-91.53-178.72,0-35,11.52-60.32,24.85-89.64C2407.2,2960,2432,2905.54,2432,2787.7V1521.62a15,15,0,0,1,30,0V2787.7c0,124.33-27.38,184.54-47.36,228.51-12.38,27.22-22.16,48.72-22.16,77.22,0,94.88,78.49,154,79.29,154.54a15,15,0,0,1-8.92,27.08Z" transform="translate(-1066.4 75.92)"/><g class="cls-5"><path class="cls-4" d="M2502.82,2878s-93.6,6.74-108.32-90.34c-17.35-114.46,37.85-140.75,37.85-140.75s35.57-12.62,102.55,40" transform="translate(-1066.4 75.92)"/></g><path class="cls-3" d="M2503.27,2884.32a91.09,91.09,0,0,1-20.94,1.55,113.4,113.4,0,0,1-20.8-2.63,100.54,100.54,0,0,1-67.32-51.57c-3.9-6.33-6.07-13.2-8.69-20-1.46-3.37-2-6.86-2.89-10.32l-2.45-10.41c-4.5-26.6-6.74-54.1-1.89-82.3,1-7,3-14,5-21l3.87-10.36c1.42-3.42,3.18-6.77,4.79-10.14,1.81-3.32,3.83-6.57,5.87-9.8a105.51,105.51,0,0,1,7.15-9.26,84.43,84.43,0,0,1,8.47-8.57c1.65-1.33,3.12-2.67,5-4,.92-.64,1.76-1.26,2.77-1.91l1.61-1,.87-.51,1.32-.69-1.29.68a39.27,39.27,0,0,1,6.19-2.78c1.58-.52,3.21-1.08,4.72-1.46a84.82,84.82,0,0,1,8.89-1.79,100.68,100.68,0,0,1,16.74-.85,152.92,152.92,0,0,1,31.09,4.34c5,1,9.77,2.64,14.67,3.95,4.74,1.58,9.48,3.15,14.15,4.84s9.21,3.61,13.71,5.57l13.35,6.12a17.5,17.5,0,0,1-14.43,31.88l-.71-.32-12.1-5.4-12.18-4.9c-4.07-1.5-8.16-2.88-12.25-4.27-4.09-1.1-8.19-2.56-12.28-3.39a118.6,118.6,0,0,0-24.1-3.58,79.37,79.37,0,0,0-11.12.29c-1.69.24-3.37.47-4.82.83-.76.15-1.33.37-2,.53-.28,0-1.53.66-.24-.06l-1.29.68c.63-.33-.22.15-.39.24l-1.22.81c-.84.5-1.75,1.35-2.65,2a52.83,52.83,0,0,0-5.23,5.07,73.05,73.05,0,0,0-4.83,5.92c-1.42,2.21-2.89,4.39-4.23,6.7-1.18,2.43-2.53,4.75-3.65,7.26l-3.1,7.69c-1.59,5.42-3.37,10.77-4.31,16.52-4.8,22.64-4,47.47-.86,71.75l1.6,8.51c.6,2.81.83,5.8,1.89,8.39,1.84,5.33,3.19,11,6,15.77,1.33,2.42,2.19,5.2,3.85,7.39l4.63,6.86c1.58,2.27,3.64,4.11,5.42,6.22a38.31,38.31,0,0,0,2.82,3l3.16,2.7a101,101,0,0,0,29.16,17.46,161.18,161.18,0,0,0,34.64,9.08l.64.1a6.33,6.33,0,0,1,.26,12.47Z" transform="translate(-1066.4 75.92)"/><g class="cls-8"><path class="cls-3" d="M1246.16,3418.44c140.2,192.48,473.68,186.15,567.83,186.15a259.29,259.29,0,0,0,40.19-3c62.73-9.92,83.82-41.18,83.82-41.18s211.9-25.22,314.77-161.41c58.46-77.44,54.83-148.21,40.82-194.88-37,101.14-274.59,378.38-685.92,277.43s-296.06-340.74-296.06-340.74c130.89,47.36,267.21,178.64,267.21,178.64,62.43,29.12,115.41,35.43,147.28,36.71,90.22,3.61,230.24-24.39,257-107.05a99.86,99.86,0,0,0,4.15-39.74c-61.33,30-113.09,39.43-149.85,42.24-99.67,7.63-213.1-23.49-213.11-23.49h0s-16.72,19-22.83,20.71c-18.47,5.15-36-7.42-49.06-22.63-.05-.1-.1-.1-.15-.15-1.35-1.27-2.66-2.55-4-3.87-34.18-34.75-52.84-83.73-90.56-114.6-23-18.79-51.34-29.35-77.37-43.58s-51.34-34.2-60.31-62.72c-9.5-30.23,3.49-66.15,30-83,6.16-3.92,18.23-8.14,31-10.15,11.1-4.76,23.41-5.84,34.76-1.62,18.47,6.87,24.24,24.88,11.2,39.8-.73.83-1.46,1.62-2.23,2.35-12.66,12.91-28.22,18.21-4.9,31.07,33.35,18.45,67.39,33,98.75,54.57,3.2,2.21,6.4,4.47,9.55,6.82,1.89-66.94,57.69-97.51,57.69-97.51,177.64,35.8,322.76-9.88,422.6-65.56a11.94,11.94,0,0,1,14.52,2l.06.06c58.66,62,100.4,140.41,118.24,224.38,62.68,19.53,128.71,34.21,193.52,24.29,66.81-10.25,129.25-47.45,170.5-101.63s60.89-124.81,53.62-192.88c-39.08,19.29-88.91-.58-114.85-35.87s-32.28-81.71-30.49-125.69c-10.33,17.57-33.74,25.92-52.65,18.75s-31.17-29.05-27.53-49.17c-14.6,34.84-23.9,79.06.87,107.33,8.53,9.71,20.07,16.09,29.76,24.63,24.53,21.6,35.05,54.82,44.56,86.28-18.57,1.52-36.17-8.93-49.94-21.64s-25.16-27.93-39.8-39.61a112.58,112.58,0,0,0-13.38-9.17,195,195,0,0,0,9.65,63.55c-5.09,2.65-10.08,5.05-14.93,7.26.73,8.93-.15,18.6-1.26,28-2.67,22.91-13.24,45.78-32.09,58.69-19.25,13.15-44.46,14.38-67.15,9.38-53.37-11.69-95.5-53.6-126.19-99.34-20.27-30.15-37-62.71-55.34-94.13l-4.35-2.61a17.61,17.61,0,0,1-5.36-1.9c-4.32-2-8.68-3.88-13.19-5.79-.44-.2-.87-.39-1.36-.59-67.19-28.22-154.45-50.4-252.52-50.4-376.14,0-510.82,195.57-526.38,299.71s56.09,123,56.09,123-1.79,1.13-4.9,3.29C1239.81,3147.2,1120.6,3246.19,1246.16,3418.44Z" transform="translate(-1066.4 75.92)"/></g><path class="cls-9" d="M2364.68,1722.5c0,47.07,38.2,54.12,85.26,54.12,34.14,0,63.62-3.73,77.16-23.76,5.19-7.58,8-17.49,8-30.36,0-47.06-38.14-116.33-85.2-116.33-34.51,0-64.24,37.25-77.63,75.7C2367.38,1695.83,2364.68,1710,2364.68,1722.5Z" transform="translate(-1066.4 75.92)"/><path class="cls-3" d="M2449.92,1792.47c-30.25,0-101.08,0-101.08-70,0-53.24,42.44-132.21,101.08-132.21s101.08,79,101.08,132.21C2551,1792.47,2480.17,1792.47,2449.92,1792.47Zm0-170.44c-34.41,0-69.36,58.46-69.36,100.49,0,25.35,10.73,38.23,69.36,38.23s69.36-12.88,69.36-38.23C2519.28,1680.49,2484.33,1622,2449.92,1622Z" transform="translate(-1066.4 75.92)"/><g class="cls-2"><path class="cls-10" d="M2372.31,1681.87c51.94,1.87,97.14,27.87,141.4,62.53a72.4,72.4,0,0,0,13.39,8.46c5.19-7.58,8-17.49,8-30.36,0-47.06-38.14-116.33-85.2-116.33C2415.43,1606.17,2385.7,1643.42,2372.31,1681.87Z" transform="translate(-1066.4 75.92)"/></g><path class="cls-4" d="M2244.53,2412.58h0a10.88,10.88,0,0,1-12.22-9.48l-45-318.94a11.08,11.08,0,0,1,9.09-12.66h0c61.75-9.23,119.15,35.3,128.2,99.46L2340,2279.72C2349,2343.87,2306.29,2403.36,2244.53,2412.58Z" transform="translate(-1066.4 75.92)"/><path class="cls-3" d="M2243,2416.29a14,14,0,0,1-8.42-2.83,14.74,14.74,0,0,1-5.8-9.86l-45-318.94a14.71,14.71,0,0,1,12.12-16.72,113.15,113.15,0,0,1,84.86,21.6c26,19.38,42.81,48.12,47.44,80.92l15.34,108.75c9.31,66-34.86,127.42-98.46,136.92A14.82,14.82,0,0,1,2243,2416.29Zm-30.32-342.41a106.56,106.56,0,0,0-15.7,1.17,7.51,7.51,0,0,0-6.07,8.61l45,318.93a7.61,7.61,0,0,0,3,5.11A6.79,6.79,0,0,0,2244,2409h0c59.71-8.91,101.16-66.69,92.4-128.8l-15.34-108.76c-4.35-30.89-20.2-57.93-44.62-76.16A106.32,106.32,0,0,0,2212.65,2073.88Z" transform="translate(-1066.4 75.92)"/><g class="cls-8"><path class="cls-3" d="M2332.77,2228.72l7.2,51c9,64.13-33.68,123.62-95.44,132.87a10.9,10.9,0,0,1-12.23-9.5l-12-84.78a10.7,10.7,0,0,0,10.63,5.12l7.28-1.11C2287,2315.05,2324,2276.35,2332.77,2228.72Z" transform="translate(-1066.4 75.92)"/></g><path class="cls-3" d="M2242.93,2432.7a30.33,30.33,0,0,1-18.2-6.09,31.07,31.07,0,0,1-12.22-20.73l-45-318.93c-2.38-16.94,9.26-32.74,25.95-35.24a129.4,129.4,0,0,1,97.09,24.68c29.5,22,48.63,54.61,53.88,91.77l15.34,108.76c10.56,74.89-39.81,144.61-112.28,155.44h0A31.81,31.81,0,0,1,2242.93,2432.7Zm-34.53-342.31,42.39,300.53c45.8-11.83,76.41-58.47,69.37-108.41l-15.34-108.76c-3.74-26.52-17.31-49.71-38.2-65.3A89.85,89.85,0,0,0,2208.4,2090.39Z" transform="translate(-1066.4 75.92)"/><path class="cls-4" d="M1183,2222.83h0a10.88,10.88,0,0,1,12.22,9.48l45,318.93a11.1,11.1,0,0,1-9.1,12.67h0c-61.75,9.22-119.15-35.31-128.2-99.46l-15.34-108.76C1078.56,2291.53,1121.28,2232.05,1183,2222.83Z" transform="translate(-1066.4 75.92)"/><path class="cls-3" d="M1214.9,2568.71a113.42,113.42,0,0,1-68.07-22.85c-26-19.38-42.81-48.11-47.44-80.91l-15.34-108.76c-9.31-66,34.86-127.42,98.46-136.92a14,14,0,0,1,10.51,2.67,14.82,14.82,0,0,1,5.8,9.87l45,318.93a14.71,14.71,0,0,1-12.12,16.72A113.35,113.35,0,0,1,1214.9,2568.71Zm-30.32-342.41a7,7,0,0,0-1,.08h0c-59.71,8.92-101.16,66.7-92.41,128.8l15.35,108.76c4.35,30.89,20.2,57.94,44.62,76.17a106,106,0,0,0,79.49,20.25,7.52,7.52,0,0,0,6.07-8.62l-45-318.93a7.63,7.63,0,0,0-3-5.11A6.93,6.93,0,0,0,1184.58,2226.3Z" transform="translate(-1066.4 75.92)"/><g class="cls-8"><path class="cls-3" d="M1227.79,2462.76l12.47,88.48a11.11,11.11,0,0,1-9.11,12.67c-32.42,4.83-63.66-5.13-87.33-25a118.42,118.42,0,0,1-40.86-74.45l-6.47-45.82c23.21,37.58,66.22,59.76,111.5,53l11.2-1.67A11,11,0,0,0,1227.79,2462.76Z" transform="translate(-1066.4 75.92)"/></g><path class="cls-3" d="M1214.86,2585.13A129.67,129.67,0,0,1,1137,2559c-29.5-22-48.63-54.61-53.88-91.77l-15.34-108.76c-10.56-74.88,39.81-144.61,112.29-155.43a30.21,30.21,0,0,1,22.75,5.75,31,31,0,0,1,12.22,20.72l45,318.93c2.37,16.94-9.26,32.75-26,35.24A130.33,130.33,0,0,1,1214.86,2585.13Zm-38.08-340.65c-45.81,11.83-76.42,58.48-69.37,108.41l15.34,108.76c3.74,26.52,17.31,49.72,38.2,65.31a89.91,89.91,0,0,0,58.22,18.06Z" transform="translate(-1066.4 75.92)"/><ellipse class="cls-4" cx="1713.85" cy="2317.69" rx="528.74" ry="549.11" transform="matrix(1, -0.04, 0.04, 1, -1149.25, 139.54)"/><path class="cls-3" d="M1714.7,2870.39c-124.34,0-244-44.76-340.56-128.13-112.41-97.06-180.31-233.77-191.17-384.93-21.85-303.95,198.52-569,491.24-590.89,138.12-10.29,272.79,34.68,379.34,126.69,112.42,97.06,180.31,233.76,191.17,384.93h0c21.86,304-198.52,569-491.24,590.89Q1734.05,2870.39,1714.7,2870.39ZM1713,1772.18q-19.07,0-38.23,1.43c-288.78,21.56-506.18,283.19-484.62,583.21,10.73,149.24,77.75,284.19,188.71,380,105.1,90.75,238,135.15,374.11,125,288.78-21.57,506.17-283.2,484.61-583.21h0c-10.73-149.24-77.74-284.2-188.7-380C1953.63,1816.34,1835.59,1772.18,1713,1772.18Z" transform="translate(-1066.4 75.92)"/><g class="cls-7"><path class="cls-3" d="M2230.64,2202.88a564.49,564.49,0,0,1,10.51,75.44c21.7,302.46-196.73,565.28-487.94,587.06s-544.91-205.85-566.68-508.3c-.63-8.7-1.06-17.42-1.27-26C1240,2595,1475,2783.81,1741.42,2763.92,2024.25,2742.77,2238.4,2494.27,2230.64,2202.88Z" transform="translate(-1066.4 75.92)"/></g><path class="cls-3" d="M1714.68,2886.8c-128.27,0-251.7-46.16-351.26-132.12-115.74-99.94-185.64-240.63-196.82-396.17-22.49-313,204.68-585.9,506.39-608.43,142.42-10.66,281.41,35.75,391.29,130.63,115.73,99.93,185.63,240.63,196.81,396.17h0c22.5,312.95-204.67,585.89-506.39,608.42Q1734.65,2886.8,1714.68,2886.8ZM1713,1788.59q-18.45,0-37,1.38c-279.78,20.9-490.39,274.65-469.47,565.67,10.41,144.86,75.43,275.83,183.06,368.76,101.78,87.88,230.4,130.84,362.17,121,279.78-20.9,490.38-274.66,469.46-565.68h0c-10.41-144.86-75.42-275.82-183.06-368.76C1945.91,1831.35,1831.63,1788.59,1713,1788.59Z" transform="translate(-1066.4 75.92)"/><path class="cls-3" d="M2240.47,2292.5a507,507,0,0,1-65.69,296.85c-37.56,65.53-204.55,189.36-422.11,211.09-201.71,20.15-395.07-75-443.3-132.79a503.7,503.7,0,0,1-115.64-280.44c-24.5-283.26,199.64-421.89,488.7-448S2216,2009.24,2240.47,2292.5Z" transform="translate(-1066.4 75.92)"/><g class="cls-11"><ellipse class="cls-4" cx="2067.04" cy="2269.41" rx="97.12" ry="67.84" transform="translate(-1421.57 4231.01) rotate(-85.57)"/></g><g class="cls-11"><ellipse class="cls-4" cx="2000.9" cy="2468.66" rx="44.51" ry="36.93" transform="translate(-1849.02 4077.52) rotate(-79.82)"/></g><g class="cls-12"><path class="cls-13" d="M2115.81,2037.45c69.47,57.63,114.79,141.27,124.65,255a507.19,507.19,0,0,1-65.67,296.86c-37.57,65.53-204.58,189.36-422.12,211.11-76.82,7.7-152.4-1.36-219.25-18.73,266.86-32.67,470.19-184.51,516.76-265.78,63.59-110.92,95.13-240.91,83.36-376.74A576.29,576.29,0,0,0,2115.81,2037.45Z" transform="translate(-1066.4 75.92)"/></g><path class="cls-3" d="M1212.25,2157.1a15,15,0,0,1-12.94-22.57c80.44-149.69,253.14-247,473.91-267,219.22-19.81,405.66,42.27,511.72,170.38a15,15,0,0,1-19.68,22.45l-1.6-1.1-1.34-1.63c-99.57-120.77-276.88-179.18-486.4-160.22-210.73,19.07-374.89,110.8-450.38,251.66l-1.27,2A15,15,0,0,1,1212.25,2157.1Z" transform="translate(-1066.4 75.92)"/><g class="cls-11"><path class="cls-4" d="M1325.85,2545.09s-108.64-271.8,26.72-396.28,344-142.9,340.32-128.56c0,0-225.91,79-299.87,276.77C1336,2449.56,1325.85,2545.09,1325.85,2545.09Z" transform="translate(-1066.4 75.92)"/></g><path class="cls-9" d="M1825.31,638.49q-4.89,9.13-9.5,18.36c-163.81,329.49-36.88,731.65,289.78,906.34s731.62,56.93,914.69-262.26c3.41-6,6.74-12,10-18.09a681.27,681.27,0,0,0,75.63-237.53c33.54-269.12-96.21-543.22-346.67-682.08-3-1.72-6.16-3.38-9.27-5.05s-6.27-3.35-9.42-4.94c-254.61-131.19-554.55-86.85-759.69,90.45A681,681,0,0,0,1825.31,638.49Z" transform="translate(-1066.4 75.92)"/><g class="cls-14"><path class="cls-15" d="M2057.33,1329.86c4.13-33.6,23.83-64.68,52.36-82.53,36.62-22.91,46.26-75.09,52.31-112.55,4.87-30.22,24.63-53.26,53.61-31.51,66.6,50,167.23-20.34,188.54-89.9,19-74.52,3-140.63-33.23-205.48-25.19-45-80.43-59.91-125.69-39.32-53.36,24.27-133.15-57.74-140.23-110-.81-6-1.22-14,1-18.68,22.66-47.25,95.69-48.26,118.81-3.17,15,29.19,47.33,40.57,76.92,25.85,54.4-27,70.59-2.72,87.34,50.4,5.4,17.12,4.6,47.78,26,35.35,21-12.22,39.45-37.28,29.41-61.91-24.5-60.06-47.07-123.73-60.91-188.1-.9-4.2-4.91-10-7.78-10.36-66.34-8.85-56.94-94.43-68.63-142.61-4.12-17-.38-24.6,10.68-31,11.29-6.49,16.24,1.38,20.19,13.35,6.64,20.08,13.15,40.25,19.91,60.26,3.47,10.27,4.4,25.75,15.76,24.4,13.3-1.58,20.56-17.52,20.2-32.2-1-42.05-10.83-89.24-35.43-123.92-18.62-26.26-55.46-45.91-85.69-27-37.54,23.48-66.18,20.18-105.93-1.68-16.7-9.18-34.65-19.12-52.42-25-30-10-51-35-57.74-66-7.26-30.93-31.34-53.76-62-60.48-19.31-4.23-31.55-15.33-36.55-38.9-8.91-42-40.91-74.35-80.2-88.85-58.4-21.58-107.19-19.67-151.17,23.16-12,11.69-24,6.66-35.36,3.89-29.63-7.26-61.34-13-89.44-20.91-21.3-6-52.39,3.33-66.73,20.13C1525.56-14,1514.67-13.07,1504-14.91c-14.67-2.52-30.52-3.24-44.4-5.25-33.49-4.83-48,1.66-66.54,31.46C1385.2,40.79,1403.83,81,1431.44,89a120.07,120.07,0,0,0,27,4.38c26,1.17,29.85,17.65,20.21,50.28-20.7,70-.24,174.54,74.26,202.83,18.07,6.86,28,14.31,18.63,43.06-4.88,15-7.93,32.89-.89,48.78,16.13,36.43,24.2,77.26,12,115.59-9.57,30.13,19,53.89,46.76,38.62a880.14,880.14,0,0,0,88-55.87c21.8-15.62,33.84-10.16,42.08,18.61,7.11,24.8,19.31,50.12,24.61,74,6.74,30.48,31.53,52.12,60,29.7,32.32-19.31,49.57-26.53,82.08-17.34,11.52,3.25,24.65-.88,36.11-9.08,11.64-8.33,25.13-17.56,30.45,6.06,5,22.24-13.2,20.34-21.6,26.82-15.24,11.77-31.76,21-47.64,30.44-27.88,16.66-31.73,44.22-14.64,70.64,16.66,25.75,48.79,47.52,79.67,27.46,20.76-12.38,41.19-25.4,61.88-37.81,9.8-5.88,19.18-16.53,27.35,5.91,8.67,23.8-4.9,25.17-14,31-36.2,23-72.55,45.68-109.53,67.37a70.07,70.07,0,0,0-27.74,90.93c32.32,67.8,23.91,139.91-2.59,214.3-10.84,30.44-19.17,60.58-26.78,92.14-15.48,62.59,11.46,157.41,80.57,176.35,27.52,7,50.93-11.67,59.62-36.88C2044.83,1375.57,2051,1352.32,2057.33,1329.86Z" transform="translate(-1066.4 75.92)"/><path class="cls-15" d="M3379.77,935.5c30.71-58.9,27.59-105.79-38.27-133.38q-145.76-68.31-287.29-144.83c-15.9-8.59-32.17-18.84-47-1.47-12.56,14.68-12.26,33.63-6.66,53.83,9.95,35.84-16.69,44-41.85,55.33-21.2,9.56-43.84-4.13-60.56-21.87-14.7-15.61,1.29-34,4.84-50.74,2.48-11.72,9.61-24.09.92-34.72-9-11-18.77-1.1-26.86,4.17-16.23,10.56-31.44,11.86-48.83,1.31-15.22-9.24-31.8-9.21-44.16,8.29-12.24,17.32-11,39-4.49,58.87,26.6,80.83,56.78,162.9,82.8,241.54,11.18,33.77,48,46.25,77.33,59.45s29.21,46.34,15.63,70.93c-5.6,10.14-11.71,17.45-21,13.37-37.15-16.24-69.33,10.3-97.6,28.82-21.71,14.22-51.18,22.65-76.33,8.57-30.1-16.83-55.23-15.79-85.87,1.49-24,13.56-57.91,34-87.13,24.77-38.11-12-61.28,98.65-54.37,127.54,18.94,79.06,45.36,163.77,72.74,241.76,14.88,42.38,16.32,84.77,1.41,125.52-7.46,20.4-13.61,44.42-19.33,67.08-3.54,14-14.21,30.94-6.95,42.15,9,14,23.55,0,34.67-6.18,37.61-21.15,61.93-62.12,73.93-102.12,8.9-29.69,19.17-60.14,26.2-90,14-59.53,37-122.41,93.28-155.57,51-33,72.21-137.92,58.57-191.27-3.56-13.95-21-29.26-6.85-44.38,14.79-15.76,34.55-36.27,53.73-28,39.31,16.89,83.68-6.71,115.05-29.52,30.59-22.23,61.48-44.6,95.34-62.06,49.76-25.2,65.09-82.44,83.33-129.18,15.48-39.68,75.28-82.81,118-76.1C3357.35,873.74,3366.5,909.83,3379.77,935.5Z" transform="translate(-1066.4 75.92)"/><path class="cls-15" d="M1180.28,829.5a17.21,17.21,0,0,0-1.22,3.58c-2.13,18.86-24.08,37.6-7.49,54.81,15.82,16.41,48,33.82,71.61,21.91,35.71-10.33,49.64-7.68,79.73,10.12,24.23,14.33,56,14.77,75.68-8.78,22.71-25.5,21.74-61.48,11.48-91.83-16-47.31-60.29-97.43-112.77-96C1245.25,724.76,1197.12,783.06,1180.28,829.5Z" transform="translate(-1066.4 75.92)"/><path class="cls-15" d="M2731.72,306.25c-12.14-7.11-25-14.7-36.48-21.17-24.46-13.83-66.37-51.95-90.11-13-34,55.79-42.42,108.46-23.36,167.19,16.22,50,36.16,103.78,51.52,156.62,12.87,44.3,30.23,50.31,59.51,26.31,16.86-13.82,36.22-26.37,43.39-49.1,11.76-37.29,40.06-64.68,74.06-81.92,18.83-9.55,39.14-24,33.74-58.69-4.66-30-10.11-67.66-39.56-83.69-23.93-13-48.5-28.13-72.78-42.35Z" transform="translate(-1066.4 75.92)"/><path class="cls-15" d="M2922.38,591.54c20.79,13.51,38.72,23.18,58.56,15.55,8.37-3.22,15.49-9.76,17.41-19.83,2.64-13.83-8.34-16.8-15.5-21.35-12-7.67-24.59-14.08-36.83-21.43-21.78-13.06-46.79-20.43-55.07,12.65C2883.32,587.57,2914.88,579.1,2922.38,591.54Z" transform="translate(-1066.4 75.92)"/><path class="cls-15" d="M1583.87,672c-30.18-3.48-75.36,18-90.65,40.16-9.77,14.18,3.3,22.95,10.82,24.48,22.61,4.6,76.7-22.08,90.7-42.41C1599.88,686.81,1595.94,677.52,1583.87,672Z" transform="translate(-1066.4 75.92)"/><path class="cls-15" d="M1891.85,1167.7c5.69-25.76,8.75-59.45-15.31-76.57-18-12.81-21.34,14.11-25.41,29-7,25.52-10.51,59.28,14.58,76.57C1885.83,1210.51,1884.33,1180.88,1891.85,1167.7Z" transform="translate(-1066.4 75.92)"/><path class="cls-15" d="M1391.52,213.56c-5.59,31.55,21.87,92.7,46.14,99.55,6.38,1.8,17.62-5.34,14.48-13.9-9.71-29.89-17.45-66.15-43.17-85.36C1404.35,210.41,1394,205.22,1391.52,213.56Z" transform="translate(-1066.4 75.92)"/><path class="cls-15" d="M1390.87,694.93c9.16-.14,25.58,22.56,32.2-6.34,7.07-30.88-12.82-42.77-33.4-47.77-11-2.67-27.19-19.77-33.47,1.3C1346.74,668.68,1365.73,689.8,1390.87,694.93Z" transform="translate(-1066.4 75.92)"/><path class="cls-15" d="M1108.79,839.14c1.24,9.92-19.5,22.87.42,28.7,20.78,6.09,32.16-12.78,37.51-32.76,3.08-11.49,18.15-29.51,1.86-35.06C1120.45,790.44,1118.45,821.43,1108.79,839.14Z" transform="translate(-1066.4 75.92)"/><path class="cls-15" d="M2440,473.91c-6.28,21.6-17.23,53.79,6,69.08,14.57,9.6,17.35-14,20-26.34,4.79-21.91,17.89-54.79-3.22-71.72C2444.59,430.34,2448.74,468.16,2440,473.91Z" transform="translate(-1066.4 75.92)"/><path class="cls-15" d="M1480,579.66c-6.13,22.19-12.64,44.57,9.55,52.59,17.71,6.41,16.7-16.65,21.57-28.57,8.46-20.71,4.7-41.07-10.31-49C1482.62,545,1485.92,571.23,1480,579.66Z" transform="translate(-1066.4 75.92)"/><path class="cls-15" d="M2478.07,530.92c-3.79,14.31-2.41,25.76,9.42,31.61,8.05,4,14.36,1.56,17.61-9.53,4.07-13.85,1.71-26.23-7.71-34.12C2487.31,510.43,2482,519.45,2478.07,530.92Z" transform="translate(-1066.4 75.92)"/><path class="cls-16" d="M1974.83,1444.72c-78.42-21.48-104.27-124.85-88.3-189.44,8.73-36.18,17.34-65.81,27.11-93.24,29.52-82.9,30.48-148.33,3-205.94a80.74,80.74,0,0,1,32.07-105.05c40.31-23.64,79.53-48.32,109.2-67.17,1.78-1.13,3.7-2.13,5.62-3.12,6.85-3.52,7.9-4.06,4-14.87a30.93,30.93,0,0,0-2.72-5.87c-1.31.72-3.05,1.88-4.33,2.74-1.47,1-2.94,2-4.42,2.85-9.79,5.88-19.53,11.89-29.27,17.9-10.84,6.7-21.7,13.4-32.28,19.7-13.3,8.64-28.19,11.53-43.07,8.35-19.23-4.11-38.57-18.7-51.73-39-10.62-16.42-14.31-33.39-10.65-49.08,3.47-14.91,13.46-27.66,28.87-36.87,2.73-1.63,5.49-3.26,8.25-4.89,12.89-7.61,26.22-15.48,38.31-24.81,3.53-2.73,7.52-4.25,11-5.6,8-3.08,8.18-3.14,6.59-10.18a21.83,21.83,0,0,0-2.22-6.37c-2.88.84-8.62,4.94-11.21,6.8-15.22,10.88-31.36,14.67-45.44,10.7-28.59-8.07-42.83-2.08-72.93,15.86-13.75,10.61-28.79,13.76-42.46,8.89-16.56-5.91-29.41-22.83-34.37-45.25-2.83-12.8-7.78-26.09-13-40.15-4-10.85-8.22-22.07-11.42-33.25-4.59-16-8.93-18.65-10.14-19.07-1-.35-5-.9-15.08,6.33a889.52,889.52,0,0,1-89.08,56.56c-16.79,9.23-35.77,8-49.5-3.34s-18.76-29.8-12.93-48.16c10-31.54,6.11-67.82-11.61-107.86-6.94-15.68-6.78-34.19.49-56.58,7.19-22.13,1.54-24.28-12.12-29.46-84.92-32.25-101.52-146.25-80.86-216.15,6.14-20.76,4.75-28.87,2.5-32s-8.15-4-12.72-4.23a130.57,130.57,0,0,1-29.58-4.8c-32.86-9.52-55.6-54.62-45.91-91l.42-1.58.87-1.39c20.6-33.11,39.42-42,77.37-36.49,5.8.83,11.95,1.44,18.48,2.08,8.62.85,17.53,1.72,26.21,3.21,9.71,1.68,15.42-.17,21.09-6.8,17-19.85,52.66-30.64,78-23.55,16.51,4.61,34.8,8.62,52.48,12.49,12.09,2.65,24.58,5.38,36.62,8.33,1.31.32,2.63.67,4,1,10.36,2.74,15.18,3.71,21.18-2.13,43.5-42.36,95.17-50.48,162.58-25.58,45.21,16.69,77.77,52.89,87.09,96.83,3.85,18.11,12,27,28.21,30.5,35.23,7.73,62.16,34,70.32,68.81,6.08,27.78,25,49.44,50.52,57.93,18.45,6.14,37.06,16.38,53.48,25.41l.75.42c39,21.45,63,21.95,94.88,2,35.61-22.27,78.31-1.19,100.39,30,30.88,43.53,36.71,100.12,37.44,130,.48,19.23-9.82,40.94-29.83,43.32-18.47,2.21-23.33-16.59-25.67-25.61-.55-2.13-1.08-4.24-1.73-6.15-4.45-13.18-8.8-26.44-13.15-39.7q-3.39-10.32-6.78-20.62a34.68,34.68,0,0,0-3.35-7.84c-.28.13-.62.3-1,.53-5.52,3.18-8.85,5.09-5.5,18.91,2.86,11.78,4.46,25.16,6.16,39.32,6.27,52.32,13.76,89.77,53.29,95,9.1,1.21,15.54,12,17,18.9,11.89,55.29,31.06,114.48,60.35,186.27,12,29.55-8,60.34-34,75.47-8.17,4.75-15.66,5.66-22.25,2.68-11.52-5.2-14.39-19.66-16.93-32.42a120.11,120.11,0,0,0-2.72-11.77c-8.62-27.34-17-46.66-29.78-52.09-9.35-4-23.17-1.3-42.27,8.2-34.43,17.12-73.76,3.94-91.51-30.66-8.73-17-27.59-27.38-49.08-27.11-17.4.23-39.71,8.24-50.14,30-.35.77-1.11,4.71-.05,12.52,4.19,31,38.72,75.15,73.88,94.57,13.67,7.54,33.6,14.89,51,7,52.33-23.8,112.41-4.92,139.75,43.93,41.59,74.32,52.48,142.17,34.29,213.52l-.14.51c-14.28,46.59-60.52,92.1-109.95,108.2-35.34,11.51-69.29,7-95.6-12.77-7.72-5.79-14.31-7.64-19.6-5.51-7.69,3.1-14.23,14.88-16.67,30-7.3,45.33-18.36,95.72-57.29,120.08a103.61,103.61,0,0,0-47.31,74.6l-3.76,13.88c-5.17,18.53-10.51,37.69-16.75,55.8-8.58,24.87-31.09,46.5-59.92,45.69A59,59,0,0,1,1974.83,1444.72Zm129.06-206.65c31.18-19.51,40.77-64.44,47.32-105,3.8-23.57,14.76-40.63,30.06-46.81,8.85-3.56,23.13-5,40.9,8.3,26.21,19.67,55.64,16,75.71,9.47,42.39-13.81,83.5-54,95.75-93.59,16.63-65.49,6.38-128.15-32.25-197.19-21.74-38.85-69.73-53.77-111.63-34.7-20.3,9.24-44.72,6.56-70.6-7.75-41.71-23-79.82-72.71-85-110.75-1.45-10.69-.78-19,2-24.87,12.35-25.76,39-42,69.56-42.43,29.8-.4,56.28,14.54,68.83,39,12.32,24,38.53,32.88,62.33,21.06,25.51-12.68,44.74-15.46,60.55-8.74,20.55,8.73,31.33,31.58,42.07,65.63a135.07,135.07,0,0,1,3.31,14.07c.94,4.74,2.61,13.15,4.42,16.27a15.39,15.39,0,0,0,2.34-1.15c14.46-8.4,33-28.21,24.78-48.33-29.78-73-49.31-133.35-61.47-189.92a8.26,8.26,0,0,0-1.11-2.21c-57-9.26-63.95-67.11-69.54-113.73-1.61-13.5-3.14-26.25-5.69-36.77-5.06-20.85-.32-33.71,15.84-43,7-4,13.56-4.86,19.61-2.54,9.24,3.53,13.48,13.06,16.41,21.93q3.42,10.32,6.79,20.67c4.33,13.19,8.66,26.39,13.1,39.52.8,2.38,1.49,5,2.18,7.66a57.17,57.17,0,0,0,2.9,9.19c5.45-1.6,9.84-10.94,9.6-20.88-.67-27.37-5.91-79.07-33.42-117.87-14-19.69-45.23-40.18-71-24.06-44.45,27.81-78.92,19.57-117-1.37l-.75-.41c-16.37-9-33.29-18.31-49.85-23.82-32.94-11-57.23-38.62-64.93-73.84-6.18-26.35-26.75-46.39-53.69-52.29-24.6-5.4-39.29-20.88-44.9-47.31-7.76-36.56-35.16-66.79-73.29-80.88-60.2-22.22-102-16-139.76,20.75-15.13,14.72-31.32,10.44-42,7.59-1.2-.31-2.39-.63-3.57-.91-11.77-2.89-24.14-5.6-36.09-8.21-18-3.94-36.58-8-53.69-12.8-17.42-4.87-43.86,3.09-55.48,16.7-10.66,12.49-24.2,17.12-41.41,14.15-7.9-1.36-16.41-2.19-24.65-3-6.48-.64-13.18-1.3-19.46-2.2-29.06-4.19-39.14.23-54.79,25-5.5,24.4,10.42,56.89,31.24,62.91a109.07,109.07,0,0,0,24.47,4c13.71.61,23.65,5.11,29.54,13.38,9.85,13.81,5.53,34.46.67,50.9-20.6,69.67,2.12,164.64,67.66,189.53,23.27,8.84,36.45,21.85,25.14,56.64-5.53,17-6,30.45-1.29,41,19.95,45.05,24.14,86.54,12.45,123.31-3.11,9.81-.88,19,6,24.67s16.18,6,25.11,1.07a869.28,869.28,0,0,0,86.87-55.17c13.52-9.69,25-12.7,35-9.21,14.25,5,20.5,21.6,24,33.69,3,10.36,7,21.18,10.9,31.64,5.27,14.15,10.72,28.78,13.87,43.06,3.23,14.58,11.23,26.12,20.38,29.39,6.7,2.39,14.16.4,22.18-5.93l1.16-.79c34.07-20.35,54.12-28.81,90.66-18.48,7.44,2.11,17.21-.61,26.77-7.45,8.42-6,19.94-14.26,31.86-9.73,11.58,4.41,14.61,17.86,15.61,22.28,5.75,25.48-11.7,32.17-20.09,35.38a28.64,28.64,0,0,0-5.49,2.49c-13.17,10.17-27.09,18.39-40.56,26.34l-8.15,4.83c-10.35,6.18-16.67,13.94-18.8,23.07-2.27,9.77.39,20.93,7.72,32.25,10.08,15.58,24.26,26.62,37.93,29.53,9.23,2,18.18.19,27-5.51,10.84-6.47,21.6-13.11,32.35-19.75,9.82-6.06,19.63-12.12,29.51-18,1.17-.7,2.34-1.49,3.5-2.26,5.8-3.89,13.74-9.22,23.19-6.13s14,12.86,16.55,19.94c10.53,28.91-5.76,37.28-14.51,41.77-1.33.69-2.67,1.35-3.89,2.13-29.82,18.95-69.26,43.76-109.86,67.58a59,59,0,0,0-23.41,76.8c30.13,63.19,29.44,134-2.15,222.67-9.64,27.06-17.8,55.13-26.47,91.09-13.52,54.69,8.13,145.46,72.64,163.14,22.93,5.82,40.25-11.4,46.6-29.85,6-17.49,11.29-36.33,16.37-54.55l3.22-11.51A125.72,125.72,0,0,1,2103.89,1238.07Z" transform="translate(-1066.4 75.92)"/><path class="cls-16" d="M2586.08,1799.75c-4-.86-9.81-3.39-14.43-10.53-8.23-12.72-2.65-27.71,1.83-39.76a114,114,0,0,0,3.7-11c5.23-20.74,11.75-46.55,19.66-68.16,13.55-37,13.06-76.79-1.46-118.15-30.65-87.3-55.92-171.28-73.05-242.84-6-25,7.65-105.18,36.33-131.94,12.33-11.5,24.17-11,31.93-8.56,23.39,7.34,53.34-9.62,75.21-22l3.28-1.86c34.65-19.55,63.53-20,96.57-1.51,26.28,14.7,56.4-2.54,65-8.18,2.91-1.91,5.87-3.9,8.87-5.92,26.87-18.15,60.33-40.73,99.1-23.77.29.13.49.19.54.23.52-.28,2.62-1.75,6.55-8.87,7.24-13.11,9.39-27.47,5.75-38.41-2.59-7.76-8.07-13.57-16.29-17.28-3.18-1.43-6.45-2.85-9.77-4.3-27.61-12-62-27-73.45-61.68-12.59-38-26.45-77.75-39.85-116.14-14.37-41.15-29.22-83.69-43-125.41-8.84-26.87-6.79-50.59,5.94-68.6,14.56-20.58,36.52-24.83,58.76-11.32,13,7.91,23.81,7.58,37.2-1.13,1-.68,2.11-1.44,3.21-2.22,6.54-4.65,23.92-17,38.07.3,10.39,12.72,6.26,26.61,3.24,36.76-.71,2.39-1.43,4.77-1.93,7.13-1.22,5.74-3.47,11.21-5.65,16.5-5.8,14.07-6.82,19.29-1.92,24.49,8.17,8.67,29.22,27.92,48.11,19.4,2.06-.93,4.14-1.84,6.21-2.75,25.11-11,36-16.84,29.6-39.7-7.54-27.17-4.63-48.06,8.89-63.86,19.83-23.18,42.85-10.66,58.08-2.37l2.44,1.33c95,51.27,191.45,99.9,286.32,144.37,31.07,13,51,31.23,59.29,54.12,9.27,25.66,4.18,56.54-15.56,94.4l-9.73,18.66-9.66-18.7c-2.73-5.29-5.3-11-7.77-16.49-9.57-21.28-18.61-41.38-37.92-44.41-37.69-5.93-92.62,34.67-106.13,69.28-2.31,5.93-4.58,12-6.88,18.22-16.16,43.52-34.48,92.83-81.61,116.7-33.55,17.3-64.24,39.61-93.92,61.19-48.64,35.36-91,45.7-125.79,30.71-11.53-5-26.8,9.86-41.45,25.47-3.91,4.16-3.45,7.2,2.91,19.11,2.55,4.76,5.18,9.69,6.56,15.08,14,54.75-6.86,166.65-63.61,203.39-54.8,32.31-75.92,96.42-88.19,148.66-5.23,22.23-12.24,44.82-19,66.66-2.5,8.05-5,16.07-7.37,24-14.68,49-43.49,88.52-79.07,108.53-1.86,1-3.83,2.33-5.86,3.65-7.07,4.6-15.66,10.19-25,9.92A21.15,21.15,0,0,1,2586.08,1799.75Zm332.59-644.1c27.26,11.72,62.35,2.19,104.31-28.32,30.35-22.06,61.73-44.87,96.83-63,39.56-20,55.58-63.15,71.07-104.84,2.34-6.31,4.65-12.52,7-18.56,16.74-42.91,81.25-90.53,129.87-82.93,28.56,4.48,41.84,29.38,51.93,51.44,8.68-22.37,10.23-40.78,4.77-55.88-6.2-17.15-21.63-30.69-47.59-41.58-95.66-44.82-192.51-93.64-287.85-145.11l-2.51-1.37c-17.86-9.71-23.73-11.13-31-2.61-8.55,10-9.95,23.91-4.43,43.81,11.67,42.07-19.28,55.64-41.88,65.56-2,.87-4,1.75-6,2.65-22.34,10.08-48.94,1.2-73-24.34-15.36-16.3-7.85-34.5-2.38-47.8a79.84,79.84,0,0,0,4.48-12.7c.65-3.07,1.52-6,2.37-8.84,2.73-9.19,3.57-13.28.78-16.69a6.58,6.58,0,0,0-.87-.91c-1.74.41-5.52,3.1-7.61,4.58-1.36,1-2.68,1.9-4,2.74-20.43,13.29-40.2,13.78-60.46,1.49-16.22-9.84-24.64-1.71-29.57,5.26-10.83,15.32-7.63,35.18-3,49.15,13.67,41.53,28.49,84,42.83,125,13.43,38.47,27.32,78.25,40,116.48,8.41,25.42,35.36,37.16,61.43,48.51,3.4,1.48,6.75,2.94,10,4.41,13.82,6.22,23.52,16.7,28,30.29,5.54,16.63,2.79,37.52-7.35,55.88-9.85,17.86-21.62,23.93-35,18.11-27.74-12.15-53.36,5.14-78.12,21.85-3.08,2.08-6.12,4.13-9.12,6.09-29.9,19.59-62.66,23-87.65,9-26.21-14.66-47.29-14.25-75.16,1.47l-3.25,1.84c-25.35,14.36-60.07,34-92.53,23.84-1.46-.46-4.88-1.52-10.47,3.69-21.55,20.1-34.7,91.21-30,110.87,17,70.85,42,154.08,72.42,240.69,16.24,46.27,16.7,91,1.36,132.9-7.52,20.55-13.88,45.75-19,66a128.23,128.23,0,0,1-4.4,13.28c-2.78,7.47-6.24,16.76-4,20.27.41.64.71.94.73,1,2.41.05,8.84-4.13,12.32-6.4,2.46-1.6,4.87-3.15,7.1-4.39,30.66-17.25,55.74-52.14,68.81-95.74,2.41-8,4.91-16.11,7.43-24.22,6.66-21.49,13.55-43.71,18.6-65.19,13.27-56.47,36.44-126,98-162.25,47.25-30.59,66.44-130.43,53.93-179.39-.73-2.83-2.64-6.41-4.66-10.2-5.59-10.46-14.95-28,.43-44.36,12.42-13.23,31.89-34,53.6-33.36A33.5,33.5,0,0,1,2918.67,1155.65ZM2894.31,663.5Z" transform="translate(-1066.4 75.92)"/><path class="cls-16" d="M1317.35,929.32c-28.31-16.74-39-18.22-70.23-9.28-29.83,14.18-66.88-7.41-83.42-24.56-16.12-16.73-7.25-35.37-1.38-47.71,2.76-5.78,5.36-11.24,5.89-15.9a19,19,0,0,1,1.54-5.45l.26-.64c16.71-46.09,67.15-111.73,127-113.38,57.56-1.66,105.65,50.82,123.42,103.41C1434,856,1429,893.4,1407,918.15c-12.88,15.42-31.62,23.14-51.45,22.58A79.57,79.57,0,0,1,1317.35,929.32Zm-19.74-195.07c-44.39,1.22-90.11,52.29-107,98.92-.2.57-.43,1.13-.66,1.68l-.08.2c-1.07,8-4.62,15.5-7.78,22.12-6.48,13.62-7.54,18-2.61,23.14,12.92,13.41,40.56,29,58.81,19.74l1.89-.75c37.45-10.82,54.79-8.63,88.34,11.21,18.78,11.11,45.16,13.45,62-6.64,24-27,14.5-65.67,9.29-81.06-14.42-42.67-53.42-87.29-98.26-88.56C1300.18,734.21,1298.89,734.21,1297.61,734.25ZM1189.92,834.33v0Z" transform="translate(-1066.4 75.92)"/><path class="cls-16" d="M2655.35,645.73c-14.41-4.47-24.45-18.89-32.56-46.77-9.71-33.42-21.37-67.5-32.63-100.45-6.62-19.35-12.87-37.63-18.78-55.85-19.67-60.6-11.91-116.61,24.42-176.24,7.07-11.62,16.3-18.78,27.43-21.3,22.41-5.06,45.81,10.17,64.59,22.43,4.66,3,9.06,5.9,12.8,8,10.16,5.75,21.48,12.38,32.4,18.78l11.55,7v0l14.34,8.5c16.77,10,34.11,20.28,50.75,29.34,33.76,18.37,40.22,59.92,44.93,90.25l.21,1.35c7.21,46.38-26.8,63.62-39.6,70.12-24.32,12.33-56,35.43-68.58,75.45-7.18,22.74-24.52,36.48-39.81,48.6-2.38,1.89-4.76,3.77-7.08,5.67-9.21,7.55-22.37,16.78-36.39,16.38A29.8,29.8,0,0,1,2655.35,645.73Zm34.51-351.14c-4.34-2.45-9-5.51-14-8.74-15.32-10-34.39-22.46-47.82-19.42-5.21,1.18-9.66,4.9-13.6,11.36-33.21,54.52-40.09,103.29-22.3,158.13,5.86,18.05,12.08,36.25,18.67,55.52,11.35,33.19,23.09,67.51,33,101.42,7.34,25.25,14.45,30.88,18,32,5,1.56,13.31-2.28,24-11.08,2.42-2,4.88-3.93,7.35-5.89,14.09-11.16,27.39-21.71,32.55-38,14.91-47.26,51.48-74.14,79.54-88.37,20.16-10.23,31.86-21.7,27.88-47.27l-.21-1.35c-4.45-28.69-9.5-61.21-33.77-74.42-17-9.26-34.53-19.67-51.48-29.74-7.21-4.29-14.42-8.57-21.6-12.78l-7.39-4.33.06-.22C2709,305.59,2699,299.73,2689.86,294.59Z" transform="translate(-1066.4 75.92)"/><path class="cls-16" d="M2916.42,600.7l-2.05-1.29-1.29-2.15c-.94-1.06-5.53-2.48-8.28-3.33-10.35-3.2-31.87-9.85-24.45-39.46,3.79-15.12,11.15-25,21.89-29.48,13-5.36,29.11-2,49.4,10.12,5,3,10.12,5.89,15.2,8.74,7.19,4,14.62,8.22,21.87,12.84,1,.64,2.12,1.24,3.24,1.86,6.76,3.72,20.82,11.45,17.14,30.76-2.45,12.8-11.28,23-24.23,28a49.88,49.88,0,0,1-19.56,3.43C2948.23,620.24,2932.37,611.07,2916.42,600.7Zm-5.82-55.52c-4,1.65-7,6.56-9,14.6-2.39,9.53-1.25,9.89,9.7,13.27,6.22,1.92,13.8,4.27,18.79,10.43,20.33,13.07,33.36,18.65,47,13.42,4.12-1.59,9.3-4.9,10.6-11.69.63-3.29.71-3.71-6.2-7.51-1.54-.85-3.05-1.69-4.43-2.57-6.76-4.3-13.61-8.15-20.86-12.23-5.26-3-10.52-5.92-15.73-9-12.12-7.27-19.88-9.32-24.7-9.45A12.27,12.27,0,0,0,2910.6,545.18Z" transform="translate(-1066.4 75.92)"/><path class="cls-16" d="M1501.86,747.39c-7.9-1.6-17.58-7.45-21.39-16.9-1.81-4.48-3.73-13.63,3.75-24.48,18.19-26.4,68.2-48.61,100.9-44.83l1.7.2,1.56.71c9.8,4.45,16.43,11.35,18.67,19.45a22.36,22.36,0,0,1-3.31,18.93c-14.66,21.28-66.21,48.43-95.63,47.6A35.81,35.81,0,0,1,1501.86,747.39Zm.36-29c-1.17,1.71-1.76,3.24-1.49,3.91.56,1.38,3.33,3.23,5.49,3.67,17.54,3.54,67.31-20.18,79.53-37.91.31-.45.28-.57.24-.69-.23-.83-1.6-2.76-5.15-4.65C1554.07,680.64,1514.42,700.69,1502.22,718.4Z" transform="translate(-1066.4 75.92)"/><path class="cls-16" d="M1859.51,1205.66c-16.56-11.41-33.29-36-18.92-88.46.51-1.85,1-3.89,1.52-6,3.07-12.7,6.9-28.51,19.32-33.15,4.65-1.73,12.15-2.42,21.44,4.19,33.73,24,23.14,72,19.65,87.84l-.35,1.62-.83,1.44c-1.48,2.6-2.72,7.12-3.93,11.5-2.79,10.15-6,21.66-16.47,25.49a18,18,0,0,1-6.7,1.08C1869.6,1211.06,1864.67,1209.21,1859.51,1205.66ZM1870.2,1100a14,14,0,0,0-1.34-.86c-2.19,3.44-4.39,12.52-5.51,17.15-.57,2.36-1.12,4.62-1.68,6.66-8.82,32.16-5.37,53.92,10.24,64.68.52.36,1,.64,1.35.86a84.61,84.61,0,0,0,3.08-9.7c1.4-5.07,2.84-10.3,5.16-14.91C1888.45,1131.29,1884.76,1110.38,1870.2,1100Z" transform="translate(-1066.4 75.92)"/><path class="cls-16" d="M1434.69,323.63c-31-8.75-60.13-77-53.93-112l.3-1.23A16.52,16.52,0,0,1,1391.78,199c9.75-3.21,19.84,3.19,23.73,6.09,24.86,18.57,34.46,49.94,42.93,77.62,1.36,4.45,2.71,8.85,4,12.73,2.6,7.11.91,14.85-4.52,20.71a25.38,25.38,0,0,1-18.7,8.14A19.1,19.1,0,0,1,1434.69,323.63Zm7.06-21.05v0Zm-4.21-13.47c-7.85-25.67-16-52.21-35.11-66.5-.25-.19-.51-.37-.77-.55-.66,29.12,22.45,74.89,38.37,80.35a4.84,4.84,0,0,0,1.42-.74C1440.13,297.58,1438.85,293.37,1437.54,289.11Z" transform="translate(-1066.4 75.92)"/><path class="cls-16" d="M1394.77,708.21a43.06,43.06,0,0,0-4.42-2.35h-.51l-1.16-.24c-17.63-3.6-32.19-13.55-40-27.3-6.78-12-7.79-25.72-2.91-39.61,2.53-8.29,6.89-13.8,13-16.37,9.69-4.11,19.4,1,26.49,4.66a41,41,0,0,0,7,3.19c45.65,11.11,45.57,42.87,41.46,60.83-1,4.22-3.9,17.06-14.33,21.62a18.49,18.49,0,0,1-8,1.55C1404.91,714,1399.06,710.66,1394.77,708.21Zm-28.09-63-.18.55c-2.84,8-2.41,15.29,1.27,21.81,4.46,7.92,13.58,14,24.48,16.45,5,.39,9.44,2.93,13.4,5.2,1.38.79,3.43,2,4.93,2.62a27.63,27.63,0,0,0,1.84-5.72c3.06-13.38,2.45-28-25.33-34.71-4.17-1-8.1-3.07-11.91-5.05a53.75,53.75,0,0,0-7.62-3.52A17.1,17.1,0,0,0,1366.68,645.24Z" transform="translate(-1066.4 75.92)"/><path class="cls-16" d="M1106.14,878.33c-3-.88-12.07-3.54-15.41-12.1s1.19-15.93,4.47-21.4a36.83,36.83,0,0,0,2.67-5l-.36-2.88,1.69-3.1a103.79,103.79,0,0,0,5.33-12.57c5.61-14.81,16-42.4,47.58-31.65,8.09,2.76,11.68,7.78,13.27,11.51,4.14,9.76-.77,20.21-4.71,28.6a61.3,61.3,0,0,0-3.4,8.11c-3.46,13-10.51,30-24.45,37.85a32.37,32.37,0,0,1-17,4.15A38.4,38.4,0,0,1,1106.14,878.33ZM1125,829.06c-1.61,4.27-3.27,8.66-5.28,12.77-.52,5.53-3.37,10.27-5.75,14.24-.27.45-.58,1-.89,1.5,4.64,1.16,7.38.08,9.06-.87,5.62-3.15,10.74-12.07,14.05-24.45a73.27,73.27,0,0,1,4.73-11.75c1.3-2.76,3.54-7.54,4.09-10.16C1135.55,807.14,1132.77,808.44,1125,829.06Z" transform="translate(-1066.4 75.92)"/><path class="cls-16" d="M2441.43,549.83c-27.1-17.86-17-52.18-10.3-74.89l1.82-6.22,2.16-1.42c1.1-1.65,2.34-7.18,3.1-10.53,2.17-9.63,4.41-19.6,13.06-22.63,5.15-1.8,10.75-.32,16.63,4.39,22,17.64,14.29,47.53,8.68,69.35-1,3.7-1.87,7.24-2.59,10.53-.27,1.25-.55,2.63-.84,4.08-2.28,11.38-5.11,25.54-15.32,29.8a14.72,14.72,0,0,1-6.11,1.13A19.63,19.63,0,0,1,2441.43,549.83Zm12.76-89.45c-1.58,7-3.08,13.71-7,18l-.34,1.15c-7.31,24.83-12.09,46.23,3.6,56.57a8.39,8.39,0,0,0,1.29.73c2.37-2.75,4.43-13,5.34-17.59.31-1.56.61-3,.9-4.38.76-3.46,1.72-7.2,2.72-11.1,6.05-23.5,9.66-42.28-3-52.48-.31-.25-.59-.46-.84-.64A78.47,78.47,0,0,0,2454.19,460.38Z" transform="translate(-1066.4 75.92)"/><path class="cls-16" d="M1485.82,642.53c-31.42-11.36-22.5-43.6-16.59-64.94l.69-2.6,1.09-1.55c.67-1.11,1.52-5,2.07-7.48,1.82-8.23,4.08-18.47,13.36-22.75,5.74-2.64,12.3-2.05,19.49,1.77,19.82,10.54,26.11,36.38,15.29,62.84a64.42,64.42,0,0,0-2.39,8.67c-2.1,9-4.7,20.27-14.15,25.41a19.78,19.78,0,0,1-10.18,2.39A28.06,28.06,0,0,1,1485.82,642.53Zm8.6-71.86c-1,4.61-2.06,9.35-4.31,13.39-7.48,27.18-6.86,34.3,3.14,37.92a10.61,10.61,0,0,0,1.07.33c1.23-2.17,2.46-7.45,3.22-10.75a80,80,0,0,1,3.45-12c6.35-15.53,4.27-29.9-5-35.12C1495.38,566.35,1494.82,568.9,1494.42,570.67Z" transform="translate(-1066.4 75.92)"/><path class="cls-16" d="M2483.85,569.88c-14.41-7.14-19-21-13.71-41.06l.16-.53c2.78-8.2,7.08-17.93,15.83-20.38,3.72-1.05,9.63-1.09,16.53,4.69,11.65,9.76,15.41,25.33,10.31,42.71-2.36,8-6.39,13.35-12,15.79a16.85,16.85,0,0,1-7.37,1.4A23.53,23.53,0,0,1,2483.85,569.88Zm2.07-36.6c-4.46,17.13,1.82,20.23,5.2,21.9,2.09,1,3.12,1,3.29.91.4-.17,1.68-1.48,2.83-5.4,2.28-7.78,3.25-18.52-5.11-25.53a10.68,10.68,0,0,0-1.72-1.21C2489.68,524.74,2488.06,527,2485.92,533.28Z" transform="translate(-1066.4 75.92)"/></g><g class="cls-17"><path class="cls-4" d="M2359.4,420c-151.4-8.08-358.28,72.81-409.34,252.1-48.44,170.05,117.74,64,212.81-35.78C2241.27,554,2463.37,425.59,2359.4,420Z" transform="translate(-1066.4 75.92)"/></g><g class="cls-18"><path class="cls-4" d="M2768.62,418.15c-3-1.72-6.16-3.38-9.27-5s-6.27-3.35-9.42-5C2495.31,277,2195.38,321.3,1990.24,498.61a681.24,681.24,0,0,0-155.56,194.8c-3.25,6.08-6.43,12.21-9.49,18.36a679.76,679.76,0,0,0-65.7,391,680.32,680.32,0,0,1,56.32-445.89q4.59-9.23,9.5-18.36a681,681,0,0,1,155.55-194.8c205.14-177.3,505.08-221.64,759.69-90.46,3.15,1.6,6.3,3.28,9.42,4.95s6.23,3.33,9.27,5.05c196.89,109.16,319.12,301.91,346.14,510.1C3065.52,686.56,2948.07,517.64,2768.62,418.15Z" transform="translate(-1066.4 75.92)"/></g><circle class="cls-1" cx="1361.38" cy="1036.6" r="683.23"/><path class="cls-3" d="M2252.2,1637.91l-.33-.09c-54-15.22-87.86-26.56-133.81-49.8-244.29-120.79-397.17-374.79-389.47-647.11,10.91-385.54,333.43-690.32,719-679.42s690.33,333.43,679.43,719-333.43,690.32-719,679.42A702.6,702.6,0,0,1,2252.2,1637.91ZM1761.06,941.83c-7.34,259.68,138.44,501.89,371.53,617.13,43.91,22.21,75,32.63,127.92,47.55a670.24,670.24,0,0,0,148.43,20.9c367.63,10.4,675.18-280.24,685.58-647.87S2814.28,304.35,2446.64,294,1771.46,574.2,1761.06,941.83Zm495.16,680.35h0Z" transform="translate(-1066.4 75.92)"/><g class="cls-7"><path class="cls-3" d="M2112.46,1514.2c326.61,174.64,731.6,56.92,914.69-262.26,3.41-6,6.71-12,10-18.08a679.5,679.5,0,0,0,75.05-410.1,681.11,681.11,0,0,1-69,195.1c-3.26,6.08-6.56,12.12-10,18.08-183.09,319.18-588.08,436.94-914.69,262.26-202.2-108.09-327.85-303.33-355.39-514.53C1709,1070.29,1842.55,1369.87,2112.46,1514.2Z" transform="translate(-1066.4 75.92)"/></g></svg>