<svg id="Layer_1" data-name="Layer 1" xmlns="http://www.w3.org/2000/svg" viewBox="0 0 3648 3444"><defs><style>.cls-1{fill:#f0d9e7;}.cls-2{fill:#353164;}.cls-10,.cls-11,.cls-12,.cls-13,.cls-14,.cls-15,.cls-16,.cls-17,.cls-18,.cls-19,.cls-2,.cls-20,.cls-21,.cls-22,.cls-23,.cls-24,.cls-25,.cls-26,.cls-27,.cls-28,.cls-29,.cls-3,.cls-30,.cls-31,.cls-32,.cls-4,.cls-5,.cls-6,.cls-7,.cls-8,.cls-9{fill-rule:evenodd;}.cls-3{fill:#e3ab84;}.cls-4{fill:#5c65a7;}.cls-5{fill:#3f467b;}.cls-6{fill:#593720;}.cls-7{fill:#ebc5b8;}.cls-8{fill:#d67f54;}.cls-9{fill:#d57c62;}.cls-10{fill:#b58460;}.cls-11{fill:#39271f;}.cls-12{fill:#da9077;}.cls-13{fill:#3f2716;}.cls-14{fill:#fff;}.cls-15{fill:#e4ae7c;}.cls-16{fill:#c09162;}.cls-17{fill:#7b8fc6;}.cls-18{fill:#e8b649;}.cls-19{fill:#34345f;}.cls-20{fill:#20201e;}.cls-21{fill:#4e2c0b;}.cls-22{fill:#d17b65;}.cls-23{fill:#160831;}.cls-24{fill:#ebebeb;}.cls-25{fill:#2e1e11;}.cls-26{fill:#434174;}.cls-27{fill:#c4c4c4;}.cls-28{fill:#787498;}.cls-29{fill:#b97c18;}.cls-30{fill:#e3a844;}.cls-31{fill:#afb0b0;}.cls-32{fill:#5a3c2c;}</style></defs><rect class="cls-1" width="3648" height="3444"/><path class="cls-2" d="M2999.69,2225.61s22.79-29.91,55.68-21.15,57,83.61,73.16,108,50.4,90.35,13.13,104.07-82.49-93.33-122.21-107.33S2988.6,2246.31,2999.69,2225.61Z" transform="translate(0 -6)"/><path class="cls-3" d="M2994.35,2228c11.52-17.91,63.85,20.1,81,47,17.88,28,53.19,73.53-6,83.61-17.62-21.09-38.83-43.53-66-57.41S2983.92,2247.46,2994.35,2228Z" transform="translate(0 -6)"/><path class="cls-2" d="M2923.48,2013.94s5.06-37.06,38.1-45.25,91.17,45.56,117.41,59.08,88.81,54.59,63.09,84.49-118.28-41.76-159.88-34.86S2924.07,2037.33,2923.48,2013.94Z" transform="translate(0 -6)"/><path class="cls-3" d="M2920,2018.57c1.17-21.16,65.68-13.16,94,2,29.49,15.84,82.88,38.57,36.24,75.84-25.84-9.92-55.47-19.3-86.06-18.34S2920.56,2040.59,2920,2018.57Z" transform="translate(0 -6)"/><path class="cls-4" d="M2723.25,1763.69s-69,10.9-93.12,96.84S2511,2305.6,2535.7,2371s80.75,59,144.57,45.54,273.51-77,312.59-82.73c66.84-9.88,30.6-137.11-44.28-135.32-53.41,1.28-233.14,59.64-233.14,59.64S2983.74,1773.31,2723.25,1763.69Z" transform="translate(0 -6)"/><path class="cls-4" d="M2636,2412.06s39.73,14.11,92.48-37.2,285.23-274.48,285.23-274.48-18.89-71.82-98.33-91.07S2546.12,2336.39,2636,2412.06Z" transform="translate(0 -6)"/><path class="cls-4" d="M2867.16,1797s56,41,65.12,123.14-33.86,146.22-117.22,264.22-159.54,228.3-159.54,228.3-43,7.7-71-42.32,50.79-241.14,50.79-241.14,80.76-200.09,69-280.89S2867.16,1797,2867.16,1797Z" transform="translate(0 -6)"/><path class="cls-5" d="M2866.45,1798a1.14,1.14,0,0,1-.22-1.61,1.19,1.19,0,0,1,1.64-.23c.16.13,56.4,41.34,65.58,123.93,4.58,41.28-3.92,78-24,119.26S2857.73,2126,2816,2185.06l-17.19,24.35q-8.51,12.09-16.84,23.94a1.19,1.19,0,0,1-1.63.29,1.15,1.15,0,0,1-.29-1.61q8.31-11.82,16.84-23.93c6.45-9.17,12.21-17.33,17.18-24.37,41.65-59,73.22-104.47,93.19-145.41s28.36-77.21,23.83-118C2922.05,1838.71,2866.62,1798.08,2866.45,1798Z" transform="translate(0 -6)"/><path class="cls-5" d="M2703.2,1848.51a1.16,1.16,0,0,1,1-1.31,1.18,1.18,0,0,1,1.33,1c11.77,81.12-68.86,280.91-69.1,281.49l0,.08c-1.31,3.2-78.36,190.88-50.82,240.06a100.71,100.71,0,0,0,16.62,22.44c13.1,13.06,28.13,19.12,43.73,19.81s32-4,47.55-12.47a157.41,157.41,0,0,0,34.17-25.55c12.82-12.47,35.32-34.2,62.2-60.08l.06-.07c34.79-33.51,77.06-74.16,115.4-111a1.19,1.19,0,0,1,1.65,0,1.14,1.14,0,0,1,0,1.63c-38.38,36.89-80.68,77.56-115.39,111l-.06.07c-27.44,26.43-50.06,48.26-62.2,60.07a160.15,160.15,0,0,1-34.68,25.93c-15.93,8.64-32.65,13.46-48.78,12.75s-31.75-7-45.3-20.5a103.85,103.85,0,0,1-17-22.94c-28.1-50.19,49.52-239.15,50.71-242l0-.06C2634.47,2128.24,2714.88,1929,2703.2,1848.51Z" transform="translate(0 -6)"/><path class="cls-5" d="M2771.48,2272.57a1.18,1.18,0,0,1-1.44.82,1.15,1.15,0,0,1-.82-1.41l8.15-30a183.63,183.63,0,0,1-13.86,20.39,178.06,178.06,0,0,1-23.65,24.88,1.18,1.18,0,0,1-1.65-.11,1.14,1.14,0,0,1,.11-1.63,175.74,175.74,0,0,0,23.34-24.55,178.54,178.54,0,0,0,18.35-28.65,1.18,1.18,0,0,1,1.39-.67,1.16,1.16,0,0,1,.83,1.41Z" transform="translate(0 -6)"/><path class="cls-5" d="M2684.63,1865.47a1.17,1.17,0,0,1,2.32.34c0,.16-9.35,59,8.5,70a1.14,1.14,0,0,1,.36,1.59,1.17,1.17,0,0,1-1.61.37C2675,1926,2684.6,1865.64,2684.63,1865.47Z" transform="translate(0 -6)"/><path class="cls-6" d="M2949.68,1125s-71.63-30.78-114.61,7-68.38,88.51-74.89,152-28.3,140,26.4,199,36.23,89.08,28.41,155.78,151,64.63,169.2,3.73c23.45-78.24,44.29-43.61,86-93.63s63.82-139.81,16.93-205.22S3023.27,1252,3021.32,1225,2988.76,1125,2949.68,1125Z" transform="translate(0 -6)"/><path class="cls-3" d="M2698.57,757.31l-41.53,2s-24.51,212.25-4.3,267.4,90.93,12.19,90.93,12.19C2749.31,1013.07,2724.26,852.87,2698.57,757.31Z" transform="translate(0 -6)"/><path class="cls-3" d="M2649.13,1015.28s24.54,299.49,18.77,359.78,105.37,10.26,103.2,3.85c0,0-26.71-307.19-26.71-355.29S2649.13,1015.28,2649.13,1015.28Z" transform="translate(0 -6)"/><path class="cls-3" d="M2931.3,1403.28c102.23,1.24,166.32,9.86,272.86-6.42,0,0,42.33-3.84,35.82,37.84-11.33,72.53-208.31,67-292.4,102C2905.9,1554,2854.46,1436,2931.3,1403.28Z" transform="translate(0 -6)"/><path class="cls-3" d="M3196.35,1398.79s42-14.75,137.08-21.16,196.66-35.92,196.66-35.92l14.32,51.77s-149.77,54-234.43,64.31-127,25.65-127,25.65S3130.25,1411.61,3196.35,1398.79Z" transform="translate(0 -6)"/><path class="cls-7" d="M2791.62,1359s-74.89-25.66-127,25.65-88.27,99.11-73.93,165.81,13.37,208.71-3.56,284.39c0,0,39.07,51.31,173.22,35.91s146.53-38.47,146.53-38.47-64-122.74-62.94-156.71c.79-24.38,30.1-85.34,52.71-113.2,32.72-40.31,62.32-44.33,62.32-44.33C3060.23,1348.23,2897.58,1417,2791.62,1359Z" transform="translate(0 -6)"/><path class="cls-7" d="M2640.79,1302.13c11.6-35.91,119.35-104.33,123.55-75.41s4.85,111.15,22.76,139c5.34,8.32-144.27,82.93-144.65,81.12C2638.54,1428.94,2670.56,1391.22,2640.79,1302.13Z" transform="translate(0 -6)"/><path class="cls-3" d="M2897.13,1325.87l-19.47,70.93c-7.37,52.3-110.73,11-97.16-38.1l27.26-72Z" transform="translate(0 -6)"/><path class="cls-8" d="M2897.13,1325.87l-14.35,52.24c-22.47,26.66-95.19-5.66-92.15-46.15l32-91Z" transform="translate(0 -6)"/><path class="cls-3" d="M2822.15,1282.17c-21.75-107.07-7.13-202,125.72-158.59,115.59,37.75,32.05,238.74-34.11,245.47S2824.1,1291.78,2822.15,1282.17Z" transform="translate(0 -6)"/><path class="cls-3" d="M2796.82,1198c-21.47-.91-27,67.64,6.17,76.21C2837,1283,2845.73,1200.06,2796.82,1198Z" transform="translate(0 -6)"/><path class="cls-7" d="M2876.67,1581.28s16.22-24.72,46.83-37.14c20.6-8.36,64.52,1.7,94.13-6.5,18.22-5,64-133,54.88-135.55-22.85-6.53-93.3-3.61-153.54-11.31S2856.48,1517.79,2876.67,1581.28Z" transform="translate(0 -6)"/><path class="cls-6" d="M2840.63,1246.6c85.38-63.51,114.35-26.19,126.63-81.87,13.55-61.47-60.7-110.46-116.57-64.13-22.73,18.85-29.31,40.58-65.75,58.12-48.43,23.31-31.27,143.34-1.53,193.13C2791.41,1365.26,2806.42,1272.05,2840.63,1246.6Z" transform="translate(0 -6)"/><path class="cls-9" d="M2643.85,1406a1.18,1.18,0,0,1-1.65-.15,1.14,1.14,0,0,1,.16-1.62,175.82,175.82,0,0,1,38.9-23.45,168.92,168.92,0,0,1,42.54-12.62,1.15,1.15,0,1,1,.36,2.28,166.35,166.35,0,0,0-41.95,12.45A173.4,173.4,0,0,0,2643.85,1406Z" transform="translate(0 -6)"/><path class="cls-9" d="M2666.35,1568.42a1.15,1.15,0,0,1,.49-1.56,1.17,1.17,0,0,1,1.58.49c8.59,16,24.09,34.54,45.94,49.17a149.07,149.07,0,0,0,63.36,24,1.14,1.14,0,0,1,1,1.29,1.16,1.16,0,0,1-1.32,1,151.3,151.3,0,0,1-64.35-24.35C2690.85,1603.56,2675.08,1584.66,2666.35,1568.42Z" transform="translate(0 -6)"/><path class="cls-10" d="M2678.59,1038.15a1.16,1.16,0,0,1-1.58-.47,1.14,1.14,0,0,1,.47-1.56,57.42,57.42,0,0,1,39.61-3.49,1.16,1.16,0,0,1,.81,1.43,1.18,1.18,0,0,1-1.45.8A54.84,54.84,0,0,0,2678.59,1038.15Z" transform="translate(0 -6)"/><path class="cls-10" d="M3238.33,1413.37a1.14,1.14,0,0,1,.2-1.62,1.18,1.18,0,0,1,1.65.2s7.11,8.75,8.85,33.69a1.17,1.17,0,0,1-2.34.15C3245,1421.57,3238.35,1413.39,3238.33,1413.37Z" transform="translate(0 -6)"/><path class="cls-9" d="M2843.82,1668.07a1.2,1.2,0,0,1,1.64-.26,1.16,1.16,0,0,1,.26,1.62l-31,42.38a1.19,1.19,0,0,1-1.63.26,1.14,1.14,0,0,1-.27-1.61Z" transform="translate(0 -6)"/><path class="cls-11" d="M2894.08,1240.32a2.92,2.92,0,0,1-3.67,1.87,2.86,2.86,0,0,1-1.9-3.61,12.5,12.5,0,0,1,2.15-4,12.64,12.64,0,0,1,3.47-3,12.84,12.84,0,0,1,17.45,4.39,12.41,12.41,0,0,1,.36,12.15,3,3,0,0,1-4,1.25,2.87,2.87,0,0,1-1.26-3.89,6.6,6.6,0,0,0-.19-6.57,6.83,6.83,0,0,0-4.21-3.09,6.9,6.9,0,0,0-7.08,2.32A6.7,6.7,0,0,0,2894.08,1240.32Z" transform="translate(0 -6)"/><path class="cls-12" d="M2885.09,1262c3.41,6.06,1.14,11.83-5.08,12.88s-14-3-17.44-9.06-1.14-11.82,5.08-12.87S2881.68,1256,2885.09,1262Z" transform="translate(0 -6)"/><path class="cls-12" d="M2966.45,1297.12c-6.82,1.68-9.55,7.25-6.08,12.44s11.82,8,18.64,6.35,9.54-7.26,6.07-12.44S2973.27,1295.44,2966.45,1297.12Z" transform="translate(0 -6)"/><path class="cls-13" d="M2924.81,1212.3c-.27-.29-.55-.56-.83-.84a29.17,29.17,0,0,0-23-7.63c-2.07.33-10.63,2.68-9.65,5.3.64.52,8.35,0,10.47.24a27.85,27.85,0,0,1,8.75,2.43,24.65,24.65,0,0,1,6.92,4.76c.06,0,.44.45.52.54,4.17,4.79,3,6.21,7.65,5.32C2932.47,1221.88,2928.13,1216.32,2924.81,1212.3Z" transform="translate(0 -6)"/><path class="cls-13" d="M2975.6,1234.34c.4,0,.79,0,1.19,0a28.51,28.51,0,0,1,12.12,3.43,27.42,27.42,0,0,1,9.26,7.88c1.17,1.72,5.28,9.48,2.66,10.57-.82-.11-5.73-6-7.32-7.36a27.43,27.43,0,0,0-7.79-4.63,24.49,24.49,0,0,0-8.25-1.72c-.07,0-.63,0-.75,0-6.41.28-6.65,2.11-9.18-1.87C2963.26,1235.38,2970.35,1234.7,2975.6,1234.34Z" transform="translate(0 -6)"/><path class="cls-14" d="M2886,1287.32q14,5.75,27.74,11.64t27.58,12c-6.28,14.28-22.84,13.28-36.14,7.59l0,0-.05,0C2891.77,1312.81,2879.71,1301.6,2886,1287.32Z" transform="translate(0 -6)"/><path class="cls-8" d="M2895,1324.3a1.14,1.14,0,0,1,.25-1.61,1.18,1.18,0,0,1,1.64.25,11.67,11.67,0,0,0,4.74,3.57,11.34,11.34,0,0,0,5.78.93,1.16,1.16,0,1,1,.31,2.29,13.7,13.7,0,0,1-7-1.11A14,14,0,0,1,2895,1324.3Z" transform="translate(0 -6)"/><path class="cls-8" d="M2924.83,1285.54a1.14,1.14,0,0,1-.6-1.51,1.17,1.17,0,0,1,1.53-.61,57.4,57.4,0,0,0,8.33,3c2.13.52,3.83.61,4.22-.28,1.34-3,6.61-23.58,6.63-23.64a1.17,1.17,0,0,1,1.42-.84,1.15,1.15,0,0,1,.85,1.4c0,.06-5.32,20.74-6.75,24-1,2.25-3.7,2.39-6.93,1.61A60.26,60.26,0,0,1,2924.83,1285.54Z" transform="translate(0 -6)"/><path class="cls-11" d="M2963.83,1270.45a3,3,0,0,1-3.68,1.88,2.87,2.87,0,0,1-1.9-3.62,12.48,12.48,0,0,1,5.63-7,12.83,12.83,0,0,1,17.44,4.39h0a12.42,12.42,0,0,1,.36,12.16,3,3,0,0,1-4,1.24,2.86,2.86,0,0,1-1.26-3.89,6.64,6.64,0,0,0-.2-6.57h0a6.86,6.86,0,0,0-4.22-3.09,7,7,0,0,0-5.21.73,6.7,6.7,0,0,0-1.86,1.59A6.61,6.61,0,0,0,2963.83,1270.45Z" transform="translate(0 -6)"/><path class="cls-6" d="M2963.17,1176.85c16.94,8.34,31.95,56,23,108.45-5.85,34.24,52.57,3.75,40.38-39.12-15.32-53.82-5.56-183.62-107.46-121.21C2871.84,1153.9,2963.17,1176.85,2963.17,1176.85Z" transform="translate(0 -6)"/><path class="cls-3" d="M2711.14,872.29l.49-82-64.38-22.1,2.36,119.93S2709.91,926.81,2711.14,872.29Z" transform="translate(0 -6)"/><path class="cls-15" d="M2686.49,794.58s-29.41-1.18-39-14.09c-8.61-11.58-15.12-59.81-5.05-71.29,2.91-6.4,7.07-12.28,11.25-12,5.85.46,8,7.15,8,7.15s3.28-14.77,12.18-13.84a13.08,13.08,0,0,1,10.73,7.31l.6-.1c.32-3.57,1.89-13.17,9.53-13,9.36.23,14.05,9.46,13.58,12.92s4.92-10.38,11.71-9.46,10.31,6,10.54,12.46c.06,1.53.11,3.23.17,4.95C2744.68,729,2713.44,798.39,2686.49,794.58Z" transform="translate(0 -6)"/><path class="cls-3" d="M2708.2,796.28c8.81-13.36,40-45.57,31.08-64.13-8.65-18-62.54-17.49-49.87-2.22,7.08,8.53,23.45,10.71,23.45,10.71C2683.3,744.42,2657.85,781.65,2708.2,796.28Z" transform="translate(0 -6)"/><path class="cls-10" d="M2731.93,726a1.14,1.14,0,0,1,0,1.63,1.18,1.18,0,0,1-1.65,0c-7.49-7.66-21.14-9.5-30.84-7.83a24.15,24.15,0,0,0-6.76,2.1,7.17,7.17,0,0,0-3.4,3c-.56,1.23-.29,2.69,1.08,4.35,6.78,8.17,22.66,10.29,22.7,10.3a1.17,1.17,0,0,1,1,1.3,1.18,1.18,0,0,1-1.08,1,42.85,42.85,0,0,0-23.31,11c-5.81,5.47-9.38,12.29-8.86,19a1.18,1.18,0,0,1-2.35.17c-.56-7.47,3.3-14.94,9.61-20.87a45.38,45.38,0,0,1,19-10.52c-5.57-1.43-13.92-4.39-18.55-10-2-2.43-2.33-4.72-1.4-6.76a9.35,9.35,0,0,1,4.46-4.11,26,26,0,0,1,7.44-2.32C2709.29,715.69,2723.85,717.7,2731.93,726Z" transform="translate(0 -6)"/><path class="cls-16" d="M2644.54,724.29a1.17,1.17,0,0,1,2.34-.11c.58,11.39,1.78,18.53,3.77,23.11a12.29,12.29,0,0,0,8.08,7.46,2.76,2.76,0,0,0,.76.15c1.16.06,2.13-.88,2.93-2.54a28.66,28.66,0,0,0,2-8.38c.85-6.9.76-15.93.22-24.52-.47-7.36-2.07-12.81-4.19-16.44a12.74,12.74,0,0,0-3.63-4.13,5.8,5.8,0,0,0-3.62-1.11,5.17,5.17,0,0,0-2.27.7c-5.55,3.15-6.2,10.84-6.21,10.86a1.17,1.17,0,0,1-2.34-.2s.76-8.89,7.38-12.66a7.53,7.53,0,0,1,3.29-1h0a8.09,8.09,0,0,1,5.1,1.51,14.71,14.71,0,0,1,4.32,4.89c2.3,3.91,4,9.7,4.51,17.45.55,8.71.64,17.88-.23,24.92a30.66,30.66,0,0,1-2.26,9.1c-1.22,2.55-2.91,4-5.18,3.86a5.92,5.92,0,0,1-1.37-.27,14.44,14.44,0,0,1-9.49-8.74C2646.39,743.37,2645.14,736,2644.54,724.29Z" transform="translate(0 -6)"/><path class="cls-16" d="M2664.53,744.72a1.15,1.15,0,0,1,.68-1.49,1.17,1.17,0,0,1,1.51.67,14.52,14.52,0,0,0,4.32,6.33,7.73,7.73,0,0,0,3.43,1.6,6.81,6.81,0,0,0,3.53-.35,10.29,10.29,0,0,0,4.28-3.27c2.75-3.39,4.38-13.82,4.47-24.88.1-10.34-1.18-21.14-4.14-27.2a10.59,10.59,0,0,0-3.41-4.26,6.26,6.26,0,0,0-5-.85,13.5,13.5,0,0,0-5.35,2.83,18.9,18.9,0,0,0-5.6,7.47,1.19,1.19,0,0,1-1.5.71,1.15,1.15,0,0,1-.71-1.48,21.2,21.2,0,0,1,6.31-8.47,15.65,15.65,0,0,1,6.33-3.31,8.58,8.58,0,0,1,6.88,1.19,13,13,0,0,1,4.19,5.17c3.12,6.39,4.47,17.57,4.37,28.22-.1,11.51-1.91,22.51-5,26.29a12.62,12.62,0,0,1-5.28,4,9,9,0,0,1-4.77.46,9.93,9.93,0,0,1-4.48-2.07A16.84,16.84,0,0,1,2664.53,744.72Z" transform="translate(0 -6)"/><path class="cls-16" d="M2684.78,745.85a1.14,1.14,0,0,1,.36-1.59,1.18,1.18,0,0,1,1.62.35c1.33,2.07,3.39,2.54,5.65,2.25a30.8,30.8,0,0,0,7.87-2.68c4.51-2,4.7-5.26,4.7-5.27a1.17,1.17,0,0,1,2.34.18s-.28,4.6-6.08,7.19a31.7,31.7,0,0,1-8.52,2.86C2689.59,749.55,2686.73,748.86,2684.78,745.85Z" transform="translate(0 -6)"/><path class="cls-16" d="M2709.42,717.25a1.17,1.17,0,0,1-1.32,1,1.16,1.16,0,0,1-1-1.3c1.28-8.65,1.46-14.59.6-19.1a19.55,19.55,0,0,0-5.45-10.41,6.19,6.19,0,0,0-3.29-1.9,8.4,8.4,0,0,0-4.61.45h0a13.85,13.85,0,0,0-4.51,2.79A12.45,12.45,0,0,0,2686,695a1.17,1.17,0,0,1-1.39.89,1.15,1.15,0,0,1-.9-1.38,14.72,14.72,0,0,1,4.55-7.39,16.31,16.31,0,0,1,5.29-3.27h0a10.71,10.71,0,0,1,5.92-.55,8.62,8.62,0,0,1,4.51,2.59,21.75,21.75,0,0,1,6,11.56C2710.9,702.19,2710.72,708.36,2709.42,717.25Z" transform="translate(0 -6)"/><path class="cls-16" d="M2710,696a1.18,1.18,0,0,1-1.6.46,1.16,1.16,0,0,1-.46-1.57,16.07,16.07,0,0,1,5.51-5.77,12.76,12.76,0,0,1,5.51-1.88,10.13,10.13,0,0,1,5.73,1.16,12.29,12.29,0,0,1,4.49,4.36c5.59,8.86,3.93,32.91,3.92,33a1.16,1.16,0,0,1-1.24,1.08,1.15,1.15,0,0,1-1.1-1.22c0-.07,1.61-23.4-3.57-31.62a10,10,0,0,0-3.63-3.55,7.62,7.62,0,0,0-4.4-.89,10.35,10.35,0,0,0-4.47,1.54A13.6,13.6,0,0,0,2710,696Z" transform="translate(0 -6)"/><path class="cls-15" d="M3475.72,1377.84s10.83,27,26.38,31.62c13.93,4.18,62.32-5.67,70-18.83,5.19-4.81,9.45-10.63,7.75-14.4-2.37-5.29-9.48-5-9.48-5s13.07-7.92,9.25-15.89a13.15,13.15,0,0,0-10.55-7.56c0-.2-.07-.4-.1-.59,3.32-1.48,12-6.11,9.31-13.14-3.32-8.63-13.72-9.94-16.88-8.37s8.34-8,5.21-14-9.15-7.6-15.42-5.69l-4.81,1.48C3519.36,1302.11,3463.17,1354,3475.72,1377.84Z" transform="translate(0 -6)"/><path class="cls-3" d="M3466.92,1358.22c9.91-12.6,30.49-52.22,51.22-50,20.13,2.1,37.41,52.37,18.59,45.63-10.52-3.77-18-18.27-18-18.27C3524.86,1364.26,3497.57,1400.21,3466.92,1358.22Z" transform="translate(0 -6)"/><path class="cls-10" d="M3525.53,1315.06a1.15,1.15,0,0,1-.59-1.53,1.18,1.18,0,0,1,1.55-.57c10.6,4.79,17.33,17.66,19,27.81a25,25,0,0,1,.24,7.68,9.22,9.22,0,0,1-2.47,5.5c-1.64,1.54-3.95,2-6.93.93-6.89-2.46-12.48-9.24-15.68-14a44,44,0,0,1-3.82,21.15c-3.6,7.81-9.49,13.87-16.84,15.81a1.18,1.18,0,0,1-1.43-.82,1.15,1.15,0,0,1,.83-1.41c6.62-1.75,12-7.32,15.3-14.53a41.27,41.27,0,0,0,2.87-25.35,1.17,1.17,0,0,1,.6-1.28,1.19,1.19,0,0,1,1.59.5s7.29,14.1,17.37,17.71c2,.73,3.53.49,4.53-.43a7.14,7.14,0,0,0,1.76-4.15,23,23,0,0,0-.23-7C3541.6,1331.58,3535.33,1319.5,3525.53,1315.06Z" transform="translate(0 -6)"/><path class="cls-16" d="M3556.27,1391.44a1.18,1.18,0,0,1,1.46.78,1.16,1.16,0,0,1-.8,1.43c-11.39,3.31-18.89,4.57-24.21,4.21-5.59-.39-8.83-2.51-11.52-5.95a5.61,5.61,0,0,1-.71-1.18c-.86-2.06,0-4.11,2-6.09a31.74,31.74,0,0,1,8-5.09c6.48-3.14,15.3-6.09,23.82-8.44,7.59-2.1,13.7-2.42,18.21-1.58a15.18,15.18,0,0,1,6.11,2.42,7.9,7.9,0,0,1,3.13,4.24,7.12,7.12,0,0,1,.13,3.38c-1.43,7.4-9.69,11-9.71,11a1.18,1.18,0,0,1-1.55-.58,1.14,1.14,0,0,1,.59-1.52s7.17-3.16,8.37-9.36a5,5,0,0,0-.09-2.34,5.62,5.62,0,0,0-2.25-3,12.83,12.83,0,0,0-5.16-2c-4.18-.78-9.93-.47-17.14,1.53-8.42,2.33-17.11,5.22-23.43,8.29a29.21,29.21,0,0,0-7.36,4.67c-1.33,1.29-1.92,2.5-1.47,3.56a3.08,3.08,0,0,0,.39.66,12.41,12.41,0,0,0,9.82,5C3537.92,1395.9,3545.16,1394.66,3556.27,1391.44Z" transform="translate(0 -6)"/><path class="cls-16" d="M3530.83,1379.5a1.16,1.16,0,1,1-.07,2.31,17.3,17.3,0,0,1-8.67-2.29,9.79,9.79,0,0,1-3.47-3.48,8.6,8.6,0,0,1-1.12-4.59,12.21,12.21,0,0,1,2.08-6.22c2.61-4.11,12.56-9.42,23.56-13.31,10.17-3.6,21.34-6,28.49-5.24a12.94,12.94,0,0,1,6.33,2.19,8.24,8.24,0,0,1,3.42,6,15,15,0,0,1-1.09,7,21.26,21.26,0,0,1-6,8.66,1.18,1.18,0,0,1-1.65-.18,1.14,1.14,0,0,1,.18-1.62,18.92,18.92,0,0,0,5.31-7.68,12.93,12.93,0,0,0,1-5.91,6,6,0,0,0-2.47-4.39,10.81,10.81,0,0,0-5.21-1.76c-6.79-.76-17.56,1.62-27.44,5.12-10.57,3.74-20,8.69-22.37,12.36a10,10,0,0,0-1.72,5.06,6.29,6.29,0,0,0,.83,3.4,7.65,7.65,0,0,0,2.65,2.66A15,15,0,0,0,3530.83,1379.5Z" transform="translate(0 -6)"/><path class="cls-16" d="M3523.52,1361.1a1.16,1.16,0,0,1,.88,1.39,1.15,1.15,0,0,1-1.4.86c-3.53-.81-5.13-3.25-5.78-6.29a30.63,30.63,0,0,1-.07-8.87c.57-6.24,4.89-8,4.9-8a1.19,1.19,0,0,1,1.53.62,1.13,1.13,0,0,1-.62,1.51s-3,1.25-3.48,6.11a29.14,29.14,0,0,0,0,8.19C3520,1358.79,3521.11,1360.55,3523.52,1361.1Z" transform="translate(0 -6)"/><path class="cls-16" d="M3543.36,1333.06a1.17,1.17,0,0,1-1.58-.49,1.14,1.14,0,0,1,.5-1.56c8.09-4.15,14-6.35,18.84-7.08a22.43,22.43,0,0,1,13.06,1.8,8.52,8.52,0,0,1,4,3.34,10.26,10.26,0,0,1,1.43,5.68,15.57,15.57,0,0,1-1.38,6,14.86,14.86,0,0,1-5.59,6.68,1.18,1.18,0,0,1-1.61-.38,1.16,1.16,0,0,1,.38-1.59,12.43,12.43,0,0,0,4.67-5.63,13.23,13.23,0,0,0,1.19-5.11,8,8,0,0,0-1.09-4.43,6.22,6.22,0,0,0-2.91-2.44,20.41,20.41,0,0,0-11.78-1.63C3556.86,1326.91,3551.22,1329,3543.36,1333.06Z" transform="translate(0 -6)"/><path class="cls-16" d="M3564.25,1325a1.18,1.18,0,0,1-1.66.09,1.15,1.15,0,0,1-.09-1.63,13.36,13.36,0,0,0,3.18-6,10.27,10.27,0,0,0,0-4.68,7.53,7.53,0,0,0-2.3-3.79,10.15,10.15,0,0,0-4.6-2.2c-9.59-2.11-31.43,7.09-31.49,7.11a1.16,1.16,0,0,1-1.53-.61,1.12,1.12,0,0,1,.62-1.51c.06,0,22.57-9.51,32.9-7.24a12.35,12.35,0,0,1,5.66,2.73,9.72,9.72,0,0,1,3,5,12.19,12.19,0,0,1,0,5.73A15.68,15.68,0,0,1,3564.25,1325Z" transform="translate(0 -6)"/><path class="cls-13" d="M2785.53,1311.32a1.18,1.18,0,0,1-2.35,0c0-24.53,6.18-46.55,17.7-64.06a89.42,89.42,0,0,1,48.6-36.63l2-.63c40.32-12.71,70.93-22.35,84.61-34.23s17-31.92,17-32a1.17,1.17,0,0,1,2.31.37c0,.06-3.38,20.81-17.79,33.33-14,12.21-44.85,21.92-85.44,34.7l-2,.64a87.09,87.09,0,0,0-47.34,35.68C2791.58,1265.64,2785.53,1287.23,2785.53,1311.32Z" transform="translate(0 -6)"/><path class="cls-13" d="M2943.79,1127.8a1.2,1.2,0,0,1,1.64-.28,1.15,1.15,0,0,1,.27,1.61c-10.44,14.4-18.59,24.68-30.67,32.6s-27.93,13.35-53.79,18.07c-25.5,4.66-43.26,12.64-55.56,22s-19,20.06-22.71,30.28c-7.37,20.58-4.92,43.93-4.92,44a1.14,1.14,0,0,1-1.05,1.25,1.17,1.17,0,0,1-1.28-1c0-.07-2.51-23.93,5-45,3.8-10.59,10.85-21.69,23.49-31.34s30.66-17.73,56.57-22.47c25.52-4.66,41.14-10,52.92-17.73S2933.5,1142,2943.79,1127.8Z" transform="translate(0 -6)"/><path class="cls-13" d="M2775,1210.63a1.18,1.18,0,0,1-1.57.49,1.14,1.14,0,0,1-.51-1.55c6.26-11.93,12.42-23.24,21.93-32.29s22.39-15.84,41.94-18.53c25.95-3.57,42.65-20.19,55.58-33.06,6.12-6.09,11.42-11.36,16.55-14.15,16.45-9,33.18,5,33.22,5a1.14,1.14,0,0,1,.16,1.62,1.18,1.18,0,0,1-1.65.15s-15.56-13-30.6-4.77c-4.84,2.64-10,7.79-16,13.75-13.18,13.12-30.19,30-56.92,33.73-19,2.61-31.43,9.13-40.64,17.9S2781.21,1198.88,2775,1210.63Z" transform="translate(0 -6)"/><path class="cls-13" d="M2993.42,1178.75a1.14,1.14,0,0,1,.56-1.53,1.19,1.19,0,0,1,1.56.55c9,19,9.78,38.56,10.53,58.19.83,22,1.66,44,14.28,65,9.57,15.91,20.56,30.77,30.33,44,14.93,20.17,27,36.54,27,47.22a1.18,1.18,0,0,1-2.35,0c0-10-11.9-26-26.57-45.87-9.83-13.27-20.87-28.2-30.45-44.15-12.92-21.5-13.77-43.81-14.62-66.07C3003,1216.64,3002.25,1197.29,2993.42,1178.75Z" transform="translate(0 -6)"/><path class="cls-3" d="M1631.17,1251s53.44,85.44,61.76,142.16-37.51,72.72-43.06,124.66c-3.49,32.65-9.5,156.31-9.17,247.88-70.2,54.85-177.35,51.84-261.49-42.49,15.71-43.49,23-82.5,26.2-128.31,4.11-58.22-36.84-249-89.45-285C1380.77,1230.78,1576.67,1223.59,1631.17,1251Z" transform="translate(0 -6)"/><path class="cls-2" d="M1339.26,1818.71s-11.3-26.73-42-13.82-58.52,89.5-70.82,115.34-36.31,94.33,1.71,102.6,67-101.54,103.52-120.43S1352.88,1837.27,1339.26,1818.71Z" transform="translate(0 -6)"/><path class="cls-3" d="M1334,1836.64c-13.65-15.8-48.28,11.72-61.17,40.09-13.43,29.54-41.33,78.39,17.42,80.2,14.15-22.81,31.57-47.41,56-64.5S1346.78,1854.1,1334,1836.64Z" transform="translate(0 -6)"/><path class="cls-3" d="M1282.78,1988.12s-12.49-58.09-12.49-76.55,18.39-43.74,55.18-38.27,62.46,93,62.46,93S1285.9,2036.65,1282.78,1988.12Z" transform="translate(0 -6)"/><path class="cls-17" d="M1646.82,2260.44c-8.06-8.35-39.18-41.83-78.46-100.44-45.8-68.34-60.37-90.21-60.37-90.21s-20.82-59.46-4.17-77.23,41-47.85,115.2,37.59C1706.67,2131,1679.11,2293.86,1646.82,2260.44Z" transform="translate(0 -6)"/><path class="cls-17" d="M1634.36,1723.73s96.75,232.26,123.12,379.89-29.15,169.49-29.15,169.49c-18.74,5.64-47.19,9.06-77.73-10.08s-6.24-107.47-118.67-275.59S1424.08,1671.79,1634.36,1723.73Z" transform="translate(0 -6)"/><path class="cls-17" d="M1399.38,1949.84s-44.42-17.76-75.65-8.2-52,33.49-46.5,69.71,34.7,271.33,96.47,302.77S1513.19,2214.33,1399.38,1949.84Z" transform="translate(0 -6)"/><path class="cls-17" d="M1559,1748.9s-27.76,314.39-50,467.48-134.64,97.74-134.64,97.74-31.23-195.47-47.88-278.85-15.18-212,42-326.31S1559,1748.9,1559,1748.9Z" transform="translate(0 -6)"/><path class="cls-5" d="M1533.24,1762.35a1.16,1.16,0,0,1,1-1.32,1.18,1.18,0,0,1,1.34,1c2.77,18.15,5.64,47.71,5.07,100s-4.56,127.31-15.49,236.4a1.17,1.17,0,0,1-1.28,1,1.15,1.15,0,0,1-1-1.26c10.92-109,14.91-184,15.48-236.18S1536,1780.43,1533.24,1762.35Z" transform="translate(0 -6)"/><path class="cls-5" d="M1358.3,2235.2a1.17,1.17,0,0,1-1.34,1,1.15,1.15,0,0,1-1-1.32c2.2-13.39-.42-28.72-2.64-41.8l-.54-3.21c-4.23-25.17-9.08-50.33-13.92-75.48-11-57.06-22-114-25.64-170.83a1.16,1.16,0,0,1,1.1-1.22,1.17,1.17,0,0,1,1.25,1.08c3.66,56.68,14.62,113.55,25.59,170.55,4.85,25.14,9.7,50.32,13.93,75.53l.55,3.2C1357.92,2205.91,1360.56,2221.43,1358.3,2235.2Z" transform="translate(0 -6)"/><path class="cls-5" d="M1621,2175.27a1.15,1.15,0,0,1-.85,1.4,1.18,1.18,0,0,1-1.43-.84,510.19,510.19,0,0,0-26.67-78c-13.13-30.31-31.38-65-57.46-104.33a1.14,1.14,0,0,1,.34-1.6,1.19,1.19,0,0,1,1.62.34c26.16,39.45,44.49,74.26,57.66,104.69A513.28,513.28,0,0,1,1621,2175.27Z" transform="translate(0 -6)"/><path class="cls-5" d="M1596.44,2152.29a1.17,1.17,0,0,1-2.34,0,49.36,49.36,0,0,1,9.48-26.8,1.2,1.2,0,0,1,1.65-.26,1.15,1.15,0,0,1,.25,1.62A46.83,46.83,0,0,0,1596.44,2152.29Z" transform="translate(0 -6)"/><path class="cls-5" d="M1346.65,2222.74a1.19,1.19,0,0,1-1.49.73,1.16,1.16,0,0,1-.73-1.47,62.51,62.51,0,0,1,9.88-17.35,1.19,1.19,0,0,1,1.65-.18,1.15,1.15,0,0,1,.18,1.62A60.26,60.26,0,0,0,1346.65,2222.74Z" transform="translate(0 -6)"/><path class="cls-5" d="M1538,1916.63a1.16,1.16,0,1,1,0-2.31c32.52-.86,38.85-40.38,37.76-79.9-.58-21.45-3.37-42.93-5.37-58.37-.61-4.75-1.15-8.93-1.52-12.24a1.16,1.16,0,0,1,1-1.27,1.18,1.18,0,0,1,1.29,1c.39,3.5.92,7.58,1.52,12.19,2,15.49,4.8,37,5.39,58.6C1579.19,1875,1572.45,1915.71,1538,1916.63Z" transform="translate(0 -6)"/><path class="cls-6" d="M1401.4,960.36c8.65-59.2-62-46.36-81.54-16.42-18.66,28.59-10.52,75.17,23,80.29C1393.05,1031.89,1397.61,1009.3,1401.4,960.36Z" transform="translate(0 -6)"/><path class="cls-18" d="M1366,959.1c13.65-12.79,33.42-14.14,44.16-3s8.39,30.5-5.26,43.29-33.42,14.15-44.16,3S1352.31,971.89,1366,959.1Z" transform="translate(0 -6)"/><path class="cls-3" d="M1934.27,1089.22l58,14.54c-8.61,15.69-50.79,133.85-85,199.86-24.74,47.82-40,54.5-100.68,57.3-61.39,2.83-145.65-4.69-182.19-13.67l3.58-96c45.84,9.27,128.55,20.54,185.11,19.62C1842.23,1234.35,1913.1,1140.92,1934.27,1089.22Z" transform="translate(0 -6)"/><path class="cls-3" d="M1145.72,1603.66c57.2-3.85,233.4-184.3,234.91-232.71,1.59-50.85-20.82-92.27-20.82-92.27s-56.64,31.48-112.36,111c-53.57,76.41-113.65,135-113.65,135S1096.44,1580.43,1145.72,1603.66Z" transform="translate(0 -6)"/><path class="cls-3" d="M1537.24,1177.21c10.71,49.31,39.84,154.76-36.87,158.24-67.9,3.07-38.93-74.94-65.72-154.44Z" transform="translate(0 -6)"/><path class="cls-8" d="M1541.29,1195.37c2.14,9.69,5.25,27.74,7.11,38.77-21.89,32.51-86.27,11.35-107.69-31.44-1.63-7.17-6.51-25-9-32.32C1476.27,1168.74,1504.12,1169.84,1541.29,1195.37Z" transform="translate(0 -6)"/><path class="cls-3" d="M1428.76,1167.43c-40.17-98.27-74.4-184.2,61.65-203,45.82-6.34,80.3,11.2,97.08,49.76,9.86,22.65,18.91,60.92,20,88.24,2.07,53.55-18.07,100.15-37.08,111.31C1541,1232.36,1448,1214.51,1428.76,1167.43Z" transform="translate(0 -6)"/><path class="cls-3" d="M969.13,1417.38l54.76-2.48s56.82,60.83,130.85,92.52c72,30.8,10.41,100-12.5,97.27S1004.9,1542.26,969.13,1417.38Z" transform="translate(0 -6)"/><path class="cls-10" d="M1818.52,1270.53a1.17,1.17,0,0,1-.39-1.6,1.2,1.2,0,0,1,1.62-.38c.07,0,24,14.36,28.75,36.42a1.17,1.17,0,0,1-2.29.47C1841.68,1284.37,1818.59,1270.57,1818.52,1270.53Z" transform="translate(0 -6)"/><path class="cls-10" d="M1151.4,1505.16a1.19,1.19,0,0,1,1.63-.28,1.15,1.15,0,0,1,.29,1.61,59.79,59.79,0,0,0-9.2,24.34,1.18,1.18,0,0,1-2.33-.32A62.54,62.54,0,0,1,1151.4,1505.16Z" transform="translate(0 -6)"/><path class="cls-10" d="M1153.17,1505.39a1.16,1.16,0,1,1,.42,2.28,61.66,61.66,0,0,0-23.89,11,1.19,1.19,0,0,1-1.64-.22,1.15,1.15,0,0,1,.22-1.62A64.54,64.54,0,0,1,1153.17,1505.39Z" transform="translate(0 -6)"/><path class="cls-4" d="M1631.17,1251s53.44,85.44,61.76,142.16-22.57,100.51-28.12,152.45c-3.39,31.69-5.34,128.32,34.79,204.52-63.77,72.67-268.84,71.2-365.1-22.15,45.62-46.62,50.66-80.88,57-108.87,1-4.55-5.92-15.13-5.1-19.59s8.86-9.4,9.14-14c1.94-32.42-13.44-71.69-24.35-121.79,67.82-56.6,22.87-153.92,4.86-196.54a299.24,299.24,0,0,1,38-13.72c14.29,21.78,24.43,109.09,87.9,119.89,22.29,3.8,89-2.83,105.77-17.56,24.44-21.41,4.77-77.5-11.4-115C1610.69,1243.29,1622.66,1246.72,1631.17,1251Z" transform="translate(0 -6)"/><path class="cls-19" d="M1507,1543.79a1.17,1.17,0,0,1-1.31-1,1.14,1.14,0,0,1,1-1.29c19.31-2.48,36.93-5.38,55.49-11.36s38-15.07,61.09-29.94a1.19,1.19,0,0,1,1.63.33,1.15,1.15,0,0,1-.34,1.61c-23.25,15-42.92,24.15-61.66,30.2S1526.43,1541.29,1507,1543.79Z" transform="translate(0 -6)"/><path class="cls-10" d="M1366.34,1408.22a1.18,1.18,0,0,1-1.62.37,1.13,1.13,0,0,1-.38-1.58s6.53-10.61,23.66-16.66a1.18,1.18,0,0,1,1.5.7,1.14,1.14,0,0,1-.71,1.47C1372.44,1398.3,1366.36,1408.19,1366.34,1408.22Z" transform="translate(0 -6)"/><path class="cls-10" d="M1280.76,1968.18a1.16,1.16,0,0,1-1,1.31,1.17,1.17,0,0,1-1.34-1c-1.59-10.35-3.69-25.55-5.55-40-1.8-13.88-3.36-27-4.05-34.37a1.17,1.17,0,0,1,2.34-.21c.68,7.35,2.24,20.44,4,34.29C1277,1942.49,1279.14,1957.64,1280.76,1968.18Z" transform="translate(0 -6)"/><path class="cls-20" d="M1486.15,1087a11.5,11.5,0,0,1,5.06,14.7,9.86,9.86,0,0,1-13.82,4.63,11.5,11.5,0,0,1-5.06-14.69A9.86,9.86,0,0,1,1486.15,1087Z" transform="translate(0 -6)"/><path class="cls-20" d="M1563.35,1075a11.26,11.26,0,0,0,.47,15.41,10.09,10.09,0,0,0,14.72.21,11.29,11.29,0,0,0-.48-15.42A10.07,10.07,0,0,0,1563.35,1075Z" transform="translate(0 -6)"/><path class="cls-12" d="M1480.76,1128.11c6.69,3.81,8.21,10.69,3.41,15.35s-14.11,5.34-20.8,1.52-8.2-10.69-3.4-15.35S1474.08,1124.29,1480.76,1128.11Z" transform="translate(0 -6)"/><path class="cls-12" d="M1583.13,1112.23c-5,5.62-3.94,12.57,2.27,15.53s15.24.79,20.19-4.84,3.93-12.57-2.27-15.52S1588.08,1106.61,1583.13,1112.23Z" transform="translate(0 -6)"/><path class="cls-21" d="M1566.65,1144.46a1.17,1.17,0,0,1,1.48-.74,1.16,1.16,0,0,1,.74,1.46,23.1,23.1,0,0,1-9.59,11.81,45.28,45.28,0,0,1-17.76,6.42h-.09a45.78,45.78,0,0,1-19-.67,25.19,25.19,0,0,1-13.33-8.26,1.14,1.14,0,0,1,.19-1.62,1.18,1.18,0,0,1,1.65.18,22.85,22.85,0,0,0,12.12,7.47,43.45,43.45,0,0,0,18,.62l.12,0h0a42.93,42.93,0,0,0,16.8-6.06A20.88,20.88,0,0,0,1566.65,1144.46Z" transform="translate(0 -6)"/><path class="cls-8" d="M1537.12,1180.11a1.14,1.14,0,0,1-.62-1.51,1.17,1.17,0,0,1,1.53-.62,12,12,0,0,0,6.34.66,11,11,0,0,0,5.61-2.49,1.19,1.19,0,0,1,1.66.07,1.14,1.14,0,0,1-.07,1.63,13.23,13.23,0,0,1-6.84,3.07A14.3,14.3,0,0,1,1537.12,1180.11Z" transform="translate(0 -6)"/><path class="cls-8" d="M1532.84,1132.15a1.15,1.15,0,1,1-.36-2.28,56.28,56.28,0,0,0,9.14-1.95c2.21-.76,3.76-1.7,3.54-2.89-.69-3.73-8.6-26.58-8.62-26.65a1.16,1.16,0,0,1,.73-1.47,1.18,1.18,0,0,1,1.49.73c0,.06,8,23,8.7,27,.49,2.66-1.78,4.34-5.07,5.48A58.7,58.7,0,0,1,1532.84,1132.15Z" transform="translate(0 -6)"/><path class="cls-6" d="M1401.14,1128.43c-43.92-13.26-57.2-113.05-31.68-145.31,50.55-63.93,129.5-61.84,177.44-38.45,69.89,34.09,46.16,84.36,45.24,82.47-6.77-14-30.12-30.79-48.7-28.77-3.74,56.76-76.29,68.29-93,86.16-19.9,21.31-12.25,80.1-16.6,73.83S1408.08,1125.82,1401.14,1128.43Z" transform="translate(0 -6)"/><path class="cls-13" d="M1485.23,1057l-1.24-.32a28.52,28.52,0,0,0-13.37.24,27.31,27.31,0,0,0-11.43,5.92c-1.61,1.54-7.68,8.81-5.22,10.77.88.11,7.33-4.87,9.3-5.92a27.09,27.09,0,0,1,9.16-2.79,24.69,24.69,0,0,1,9,.51c.09,0,.67.18.79.21,6.58,2.16,6.4,4.23,9.95.62C1497.78,1061.71,1490.58,1058.92,1485.23,1057Z" transform="translate(0 -6)"/><path class="cls-13" d="M1552.86,1046.51l1.06-.67a27.73,27.73,0,0,1,12.71-3.81,28.65,28.65,0,0,1,12.92,2.14c2.07,1,10.4,6,8.77,8.6-.78.37-8.66-2.39-10.9-2.78a27.39,27.39,0,0,0-9.64.12,23.82,23.82,0,0,0-8.28,3.19c-.07,0-.56.36-.66.43-5.45,4-4.53,5.92-9.18,3.59C1542.7,1054.75,1548.49,1049.94,1552.86,1046.51Z" transform="translate(0 -6)"/><path class="cls-15" d="M1007.64,1426s-28,6.58-40.55-3.08c-11.22-8.65-30.34-52.38-24-65.82,1-6.79,3.35-13.42,7.37-14.2,5.64-1.09,9.43,4.66,9.43,4.66s-.89-14.77,7.74-16.22a13,13,0,0,1,12.08,4.08l.54-.25c-.67-3.45-1.77-12.9,5.47-14.71,8.89-2.23,15.78,5.23,16.27,8.62s1.84-11.07,8.49-12,11.32,3,13.28,9c.47,1.42,1,3,1.49,4.62C1044.79,1349,1034.05,1422.51,1007.64,1426Z" transform="translate(0 -6)"/><path class="cls-3" d="M1028.55,1421.89c4.69-14.88,25.39-53.37,12-68.51-13-14.72-63.62-.15-47.58,10.92,9,6.19,25,4,25,4C991.12,1379.55,977.17,1421.27,1028.55,1421.89Z" transform="translate(0 -6)"/><path class="cls-10" d="M1032,1349.45a1.14,1.14,0,0,1,.42,1.58,1.18,1.18,0,0,1-1.6.41c-9.12-5.26-22.46-3.42-31.13.69a23.51,23.51,0,0,0-5.8,3.73,6.94,6.94,0,0,0-2.38,3.71c-.19,1.3.45,2.6,2.17,3.79,8.59,5.92,24.11,3.78,24.15,3.77a1.16,1.16,0,0,1,.62,2.21,41.36,41.36,0,0,0-19,16.48c-4,6.67-5.53,14-3.24,20.21a1.16,1.16,0,0,1-.7,1.49,1.18,1.18,0,0,1-1.5-.7c-2.55-6.89-.92-14.94,3.42-22.17a44,44,0,0,1,15-14.85c-5.64.1-14.23-.52-20.07-4.55-2.56-1.77-3.49-3.85-3.15-6a9.08,9.08,0,0,1,3.09-5,25.82,25.82,0,0,1,6.4-4.14C1007.86,1345.68,1022.12,1343.77,1032,1349.45Z" transform="translate(0 -6)"/><path class="cls-16" d="M949.17,1370.73a1.15,1.15,0,0,1,.74-1.46,1.17,1.17,0,0,1,1.48.73c3.61,10.56,6.67,17,9.78,20.76a12.12,12.12,0,0,0,9.59,4.91,2.65,2.65,0,0,0,.76-.05c1.09-.24,1.75-1.37,2.05-3.14a28,28,0,0,0-.33-8.42,139.58,139.58,0,0,0-6.4-23.14c-2.42-6.81-5.39-11.52-8.36-14.38a12.4,12.4,0,0,0-4.53-2.94,5.66,5.66,0,0,0-3.69-.1,5,5,0,0,0-1.93,1.24c-4.38,4.42-2.93,11.82-2.92,11.84a1.16,1.16,0,0,1-.94,1.35,1.19,1.19,0,0,1-1.37-.92s-1.69-8.6,3.54-13.88a7.29,7.29,0,0,1,2.85-1.81,8,8,0,0,1,5.21.09,14.68,14.68,0,0,1,5.41,3.48c3.22,3.08,6.4,8.1,8.95,15.27,2.86,8,5.42,16.68,6.5,23.55a29.71,29.71,0,0,1,.32,9.15c-.46,2.74-1.68,4.53-3.86,5a5.08,5.08,0,0,1-1.37.11,14.27,14.27,0,0,1-11.31-5.76C956.06,1388.22,952.88,1381.59,949.17,1370.73Z" transform="translate(0 -6)"/><path class="cls-16" d="M973.5,1384.75a1.14,1.14,0,0,1,.24-1.61,1.19,1.19,0,0,1,1.64.24,14.43,14.43,0,0,0,5.77,4.82,7.61,7.61,0,0,0,3.65.61,6.46,6.46,0,0,0,3.22-1.25,9.82,9.82,0,0,0,3.13-4.19c1.68-3.9.4-14.14-2.49-24.58-2.7-9.76-6.8-19.6-11.22-24.52a10.42,10.42,0,0,0-4.34-3.12,6.13,6.13,0,0,0-5,.51,13,13,0,0,0-4.26,4.06,18.33,18.33,0,0,0-3.27,8.49,1.17,1.17,0,0,1-1.25,1.08,1.16,1.16,0,0,1-1.09-1.23,20.68,20.68,0,0,1,3.67-9.64,15.18,15.18,0,0,1,5.08-4.78,8.36,8.36,0,0,1,6.82-.68,12.8,12.8,0,0,1,5.35,3.78c4.67,5.21,8.95,15.4,11.73,25.45,3,10.87,4.26,21.7,2.38,26.08a12.2,12.2,0,0,1-3.9,5.15,8.75,8.75,0,0,1-4.38,1.69,10,10,0,0,1-4.79-.78A16.71,16.71,0,0,1,973.5,1384.75Z" transform="translate(0 -6)"/><path class="cls-16" d="M992.88,1380.53a1.15,1.15,0,0,1-.09-1.63,1.2,1.2,0,0,1,1.66-.09c1.8,1.59,3.85,1.49,5.9.63a29.07,29.07,0,0,0,6.68-4.57c3.69-3.07,3-6.14,3-6.15a1.16,1.16,0,0,1,.91-1.37,1.18,1.18,0,0,1,1.39.89s1,4.43-3.79,8.4a31.39,31.39,0,0,1-7.27,4.93C998.43,1382.76,995.53,1382.86,992.88,1380.53Z" transform="translate(0 -6)"/><path class="cls-16" d="M1008.43,1347.14a1.16,1.16,0,0,1-1,1.29,1.17,1.17,0,0,1-1.32-1c-1.13-8.46-2.56-14.1-4.58-18.13a19.47,19.47,0,0,0-7.92-8.37A6.28,6.28,0,0,0,990,1320a8.18,8.18,0,0,0-4.2,1.62,13.38,13.38,0,0,0-3.48,3.8,12.05,12.05,0,0,0-2,6.83,1.17,1.17,0,0,1-2.34.14,14.36,14.36,0,0,1,2.3-8.17,15.69,15.69,0,0,1,4.11-4.46,10.41,10.41,0,0,1,5.45-2.06,8.49,8.49,0,0,1,5,1.26,21.61,21.61,0,0,1,8.8,9.32C1005.76,1332.55,1007.26,1338.41,1008.43,1347.14Z" transform="translate(0 -6)"/><path class="cls-16" d="M1003.23,1326.94a1.18,1.18,0,0,1-1.41.87,1.17,1.17,0,0,1-.88-1.39,15.4,15.4,0,0,1,3.64-6.89,12.34,12.34,0,0,1,4.69-3.22,9.81,9.81,0,0,1,5.72-.4,12.15,12.15,0,0,1,5.42,2.94c7.66,6.89,12.57,30,12.59,30.06a1.16,1.16,0,0,1-.91,1.37,1.18,1.18,0,0,1-1.39-.89c0-.07-4.78-22.45-11.87-28.83a9.89,9.89,0,0,0-4.36-2.4,7.61,7.61,0,0,0-4.37.31,10,10,0,0,0-3.78,2.62A13,13,0,0,0,1003.23,1326.94Z" transform="translate(0 -6)"/><path class="cls-15" d="M1950.06,1106.46s28,6.58,40.54-3.08c11.22-8.65,30.35-52.37,24-65.82-1-6.79-3.35-13.42-7.36-14.2-5.64-1.09-9.43,4.66-9.43,4.66s.88-14.76-7.75-16.22a13,13,0,0,0-12.08,4.08c-.17-.08-.35-.17-.53-.24.67-3.45,1.76-12.91-5.47-14.72-8.88-2.23-15.79,5.24-16.28,8.62s-1.83-11.07-8.48-12-11.32,2.95-13.29,9c-.46,1.42-1,3-1.49,4.62C1912.9,1029.52,1923.65,1103,1950.06,1106.46Z" transform="translate(0 -6)"/><path class="cls-3" d="M1929.16,1102.4c-4.7-14.89-25.39-53.38-12-68.52,13-14.72,63.62-.14,47.58,10.93-9,6.18-25,4-25,4C1966.58,1060.05,1980.53,1101.77,1929.16,1102.4Z" transform="translate(0 -6)"/><path class="cls-10" d="M1926.92,1031.94a1.18,1.18,0,0,1-1.6-.41,1.13,1.13,0,0,1,.42-1.58c9.84-5.68,24.1-3.77,33.32.6a25.28,25.28,0,0,1,6.39,4.13,9,9,0,0,1,3.1,5c.33,2.17-.59,4.25-3.15,6-5.84,4-14.42,4.65-20.07,4.55a43.88,43.88,0,0,1,15,14.85c4.34,7.23,6,15.28,3.42,22.18a1.18,1.18,0,0,1-1.5.69,1.15,1.15,0,0,1-.7-1.48c2.29-6.2.76-13.55-3.24-20.22a41.37,41.37,0,0,0-19-16.48,1.15,1.15,0,0,1-.7-1.22,1.18,1.18,0,0,1,1.32-1s15.56,2.15,24.15-3.77c1.73-1.19,2.37-2.49,2.17-3.79a7,7,0,0,0-2.38-3.71,23.32,23.32,0,0,0-5.8-3.73C1949.38,1028.52,1936,1026.68,1926.92,1031.94Z" transform="translate(0 -6)"/><path class="cls-16" d="M2006.3,1050.5a1.19,1.19,0,0,1,1.49-.73,1.15,1.15,0,0,1,.74,1.46c-3.71,10.86-6.89,17.49-10.17,21.49a14.28,14.28,0,0,1-11.32,5.76,5.08,5.08,0,0,1-1.36-.1c-2.18-.48-3.4-2.28-3.87-5a30.07,30.07,0,0,1,.33-9.15c1.08-6.87,3.63-15.49,6.5-23.55,2.56-7.17,5.74-12.18,8.94-15.27a14.84,14.84,0,0,1,5.41-3.48,8,8,0,0,1,5.22-.09,7.36,7.36,0,0,1,2.85,1.81c5.23,5.29,3.54,13.85,3.54,13.88a1.18,1.18,0,0,1-2.31-.43s1.46-7.42-2.91-11.84a5.14,5.14,0,0,0-1.94-1.24,5.75,5.75,0,0,0-3.7.1,12.72,12.72,0,0,0-4.52,2.94c-3,2.86-5.94,7.57-8.37,14.38-2.82,7.95-5.34,16.43-6.4,23.14a27.91,27.91,0,0,0-.32,8.42c.31,1.77.95,2.9,2,3.14a2.63,2.63,0,0,0,.76.05,12,12,0,0,0,9.59-4.91C1999.65,1067.48,2002.69,1061.07,2006.3,1050.5Z" transform="translate(0 -6)"/><path class="cls-16" d="M1982.32,1063.88a1.18,1.18,0,0,1,1.64-.24,1.15,1.15,0,0,1,.24,1.62,16.76,16.76,0,0,1-6.74,5.57,9.86,9.86,0,0,1-4.79.78,8.82,8.82,0,0,1-4.38-1.69,12.24,12.24,0,0,1-3.91-5.15c-1.87-4.38-.62-15.21,2.39-26.08,2.78-10,7.06-20.24,11.74-25.45a12.78,12.78,0,0,1,5.34-3.78,8.4,8.4,0,0,1,6.82.68,15.19,15.19,0,0,1,5.08,4.78,20.68,20.68,0,0,1,3.67,9.64,1.15,1.15,0,0,1-1.09,1.23,1.17,1.17,0,0,1-1.25-1.08,18.29,18.29,0,0,0-3.27-8.48,12.65,12.65,0,0,0-4.27-4.06,6.07,6.07,0,0,0-4.94-.52,10.53,10.53,0,0,0-4.35,3.12c-4.41,4.93-8.51,14.76-11.22,24.52-2.88,10.45-4.16,20.68-2.48,24.59a9.84,9.84,0,0,0,3.13,4.18,6.46,6.46,0,0,0,3.22,1.25,7.46,7.46,0,0,0,3.65-.6A14.55,14.55,0,0,0,1982.32,1063.88Z" transform="translate(0 -6)"/><path class="cls-16" d="M1963.26,1059.31a1.18,1.18,0,0,1,1.65.1,1.13,1.13,0,0,1-.1,1.62c-2.64,2.34-5.54,2.24-8.38,1a31.66,31.66,0,0,1-7.28-4.93c-4.76-4-3.79-8.38-3.78-8.4a1.18,1.18,0,0,1,1.39-.89,1.15,1.15,0,0,1,.9,1.37s-.69,3.08,3,6.16a29.34,29.34,0,0,0,6.68,4.56C1959.4,1060.8,1961.44,1060.91,1963.26,1059.31Z" transform="translate(0 -6)"/><path class="cls-16" d="M1951.6,1027.94a1.17,1.17,0,0,1-1.32,1,1.14,1.14,0,0,1-1-1.29c1.16-8.73,2.66-14.59,4.79-18.85a21.69,21.69,0,0,1,8.81-9.32,8.49,8.49,0,0,1,5-1.26,10.49,10.49,0,0,1,5.45,2.06,16,16,0,0,1,4.11,4.46,14.36,14.36,0,0,1,2.3,8.17,1.18,1.18,0,0,1-2.35-.13,12,12,0,0,0-2-6.84,13.34,13.34,0,0,0-3.48-3.79,8,8,0,0,0-4.2-1.62,6.13,6.13,0,0,0-3.6.92,19.46,19.46,0,0,0-7.93,8.38C1954.16,1013.84,1952.72,1019.48,1951.6,1027.94Z" transform="translate(0 -6)"/><path class="cls-16" d="M1956.76,1006.92a1.16,1.16,0,0,1-.89,1.39,1.17,1.17,0,0,1-1.4-.87,13.1,13.1,0,0,0-3.08-5.85,10.06,10.06,0,0,0-3.79-2.61,7.54,7.54,0,0,0-4.37-.32,10,10,0,0,0-4.36,2.4c-7.09,6.38-11.85,28.76-11.87,28.83a1.19,1.19,0,0,1-1.4.89,1.14,1.14,0,0,1-.89-1.37c0-.07,4.92-23.17,12.58-30.06a12.1,12.1,0,0,1,5.42-2.94,9.86,9.86,0,0,1,5.73.41,12.23,12.23,0,0,1,4.68,3.22A15.41,15.41,0,0,1,1956.76,1006.92Z" transform="translate(0 -6)"/><path class="cls-15" d="M1414.17,1121.26c-1-5.67-25.37-10.37-31.62,9s10.35,44.64,37.43,44.39,18.75-4.23,18.75-4.23Z" transform="translate(0 -6)"/><path class="cls-8" d="M1394.46,1143a1.17,1.17,0,0,1-2.34.2c-.47-5.29.27-8.85,1.78-11a6.34,6.34,0,0,1,4.71-2.83,11.41,11.41,0,0,1,5.76,1.14c4.75,2.14,9.88,7,12.94,12.56a46.89,46.89,0,0,1,4.11,9.26v0a4.9,4.9,0,0,1,.18,1.59c-.12,1-.66,1.55-1.69,1.42a2.93,2.93,0,0,1-1.47-.75,9,9,0,0,0-7.16-2.25,4.22,4.22,0,0,0-2,.87,2.76,2.76,0,0,0-.93,1.56c-.3,1.42.31,3.4,2.32,5.85a1.14,1.14,0,0,1-.18,1.63,1.18,1.18,0,0,1-1.65-.18c-2.5-3.06-3.22-5.71-2.79-7.76a5.06,5.06,0,0,1,1.69-2.85,6.58,6.58,0,0,1,3.06-1.39,11.09,11.09,0,0,1,8,2,51.24,51.24,0,0,0-3.65-7.9c-2.83-5.1-7.53-9.61-11.86-11.56a9,9,0,0,0-4.52-.94,4.1,4.1,0,0,0-3,1.82C1394.62,1135.17,1394,1138.23,1394.46,1143Z" transform="translate(0 -6)"/><path class="cls-22" d="M1418.72,1176.7c-4.35.37-7,10.65-5.89,23s5.51,22,9.85,21.59,7-10.65,5.88-23S1423.06,1176.32,1418.72,1176.7Z" transform="translate(0 -6)"/><path class="cls-22" d="M1417.84,1166.85a5.67,5.67,0,1,0,6,5.18A5.58,5.58,0,0,0,1417.84,1166.85Z" transform="translate(0 -6)"/><path class="cls-19" d="M1586.67,1606.42a1.19,1.19,0,0,1-1.64-.28,1.15,1.15,0,0,1,.29-1.61c15.93-11,30.17-21.67,43.76-35.45s26.56-30.76,40-54.48a1.18,1.18,0,0,1,1.59-.45,1.15,1.15,0,0,1,.46,1.57c-13.52,23.92-26.61,41-40.34,55S1602.69,1595.32,1586.67,1606.42Z" transform="translate(0 -6)"/><path class="cls-19" d="M1642.25,1580.9a1.19,1.19,0,0,1-1.63.32,1.16,1.16,0,0,1-.32-1.61,200.1,200.1,0,0,0,15.06-26.38,273.83,273.83,0,0,0,13.31-34,1.18,1.18,0,0,1,1.47-.76,1.16,1.16,0,0,1,.77,1.45,275.8,275.8,0,0,1-13.43,34.25A201.23,201.23,0,0,1,1642.25,1580.9Z" transform="translate(0 -6)"/><path class="cls-20" d="M1427.62,1112.34a1.17,1.17,0,0,1-1.31,1,1.16,1.16,0,0,1-1-1.29c3.41-26,20.71-47.32,37.59-68.15,5.91-7.29,11.78-14.52,17-21.86,19.36-27.42-11-58.53-11.1-58.62a1.14,1.14,0,0,1,0-1.63,1.17,1.17,0,0,1,1.65,0c.1.09,31.79,32.55,11.33,61.53-5.21,7.37-11.11,14.65-17.06,22C1448,1065.92,1431,1087,1427.62,1112.34Z" transform="translate(0 -6)"/><path class="cls-20" d="M1442.41,965.56A1.15,1.15,0,0,1,1443,964a1.17,1.17,0,0,1,1.55.56c9,19.06,3.27,28.68-6.83,45.52-3.22,5.37-6.88,11.48-10.61,18.82a136.75,136.75,0,0,0-12.51,35.69c-2.64,13.7-2.12,24.41-.28,30.06a1.17,1.17,0,0,1-2.24.7c-1.93-5.94-2.5-17.09.22-31.18a138.83,138.83,0,0,1,12.72-36.3c3.8-7.48,7.46-13.6,10.68-19C1445.38,992.75,1450.92,983.52,1442.41,965.56Z" transform="translate(0 -6)"/><path class="cls-20" d="M1392.23,1087.16a1.15,1.15,0,0,1-.52,1.55,1.18,1.18,0,0,1-1.57-.52,107.42,107.42,0,0,1-12.07-49c.07-16.75,4.52-32.3,12.54-44.89,15.58-24.47,30.07-28.67,30.11-28.68a1.16,1.16,0,0,1,1.46.76,1.13,1.13,0,0,1-.77,1.44s-13.7,4-28.82,27.71c-7.79,12.23-12.11,27.36-12.18,43.67A105.11,105.11,0,0,0,1392.23,1087.16Z" transform="translate(0 -6)"/><path class="cls-20" d="M1488.8,959.28a1.16,1.16,0,1,1-.2-2.31c11.11-1,27.77.15,45,6.13a102.16,102.16,0,0,1,37.24,22.4,1.14,1.14,0,0,1,0,1.63,1.18,1.18,0,0,1-1.66,0,99.66,99.66,0,0,0-36.38-21.87C1516,959.43,1499.66,958.35,1488.8,959.28Z" transform="translate(0 -6)"/><path class="cls-20" d="M1465.68,945.62a1.19,1.19,0,0,1-1.62-.36,1.15,1.15,0,0,1,.36-1.6c6.91-4.27,20.9-4.91,35.2-3.5,16.8,1.65,34.15,6.15,40.82,10.9a1.16,1.16,0,0,1,.26,1.62,1.19,1.19,0,0,1-1.64.25c-6.37-4.54-23.23-8.86-39.67-10.48C1485.54,941.09,1472.09,941.65,1465.68,945.62Z" transform="translate(0 -6)"/><path class="cls-23" d="M864,2613.42c5.33,47.38-78.69,230.56-125,184.1-31.38-31.47,19.18-108.25,6.87-190.64C729.88,2500.12,858.7,2566.53,864,2613.42Z" transform="translate(0 -6)"/><path class="cls-23" d="M1098.24,2205.32c48.41,0,224,102.42,172,142.66-35.21,27.24-107.13-30.71-191.63-27.74C969.12,2324.09,1050.34,2205.32,1098.24,2205.32Z" transform="translate(0 -6)"/><path class="cls-17" d="M452,2430.48l284.57,204.7c58.22-14.63,70.45-50,39.87-85.89L568.63,2305.45S406.69,2358.22,452,2430.48Z" transform="translate(0 -6)"/><path class="cls-17" d="M759,2237.73l294.82,2.09c23.45,5.14,36.49,28.37,37,49.07.42,16.71-5.37,31.29-35.28,38l-279.91,62.8-36.16,3.08S609.51,2313,759,2237.73Z" transform="translate(0 -6)"/><path class="cls-17" d="M676.06,1794.83s74.27,189.48,102.61,370.75-1.31,229.63-44.91,227.05c-130-7.69-267.68-484.29-259.87-577.34C480.51,1736.44,676.06,1794.83,676.06,1794.83Z" transform="translate(0 -6)"/><path class="cls-17" d="M560,2043.11s29.2,204,13.48,299.1c-11,66.8-91.94,130.74-128.26,83.5C397.78,2364,384,2064.44,378.76,1874.25c-1.4-50.61,54.42-145.63,53.75-174.21l94.94,115.33Z" transform="translate(0 -6)"/><path class="cls-5" d="M785.92,2229.75a1.29,1.29,0,0,1,2.57-.26q1.14,10.65,2,20.36t1.4,19.18a1.29,1.29,0,0,1-2.58.15q-.56-9.12-1.4-19.12c-.57-6.62-1.21-13.39-2-20.31Zm-201.58-21.68a1.25,1.25,0,0,1-.67,1.66,1.29,1.29,0,0,1-1.69-.66c-33.16-75.31-49.77-138.66-56.15-197.83s-2.53-114.14,5.23-172.73a1.29,1.29,0,0,1,1.44-1.1,1.27,1.27,0,0,1,1.11,1.43C525.88,1897.24,522,1952,528.4,2011S551.31,2133,584.34,2208.07Z" transform="translate(0 -6)"/><path class="cls-5" d="M819,2260a1.24,1.24,0,0,1-.39,1.75,1.3,1.3,0,0,1-1.78-.38,82.3,82.3,0,0,0-12.74-15.55c-4.91-4.56-10.5-8.23-16.72-10a1.27,1.27,0,0,1-.88-1.57,1.29,1.29,0,0,1,1.6-.87c6.66,1.89,12.59,5.77,17.77,10.58A85.48,85.48,0,0,1,819,2260Z" transform="translate(0 -6)"/><path class="cls-5" d="M576.71,2316.56a1.31,1.31,0,0,1,1.39-1.18,1.29,1.29,0,0,1,1.19,1.37q-.48,6.21-1.15,12c-.44,3.75-.95,7.41-1.54,10.93a109.2,109.2,0,0,1-8.42,27.28,130.56,130.56,0,0,1-15.71,25.93,1.31,1.31,0,0,1-1.81.24,1.25,1.25,0,0,1-.24-1.78,128.28,128.28,0,0,0,15.4-25.42,106.73,106.73,0,0,0,8.24-26.66q.84-5.16,1.51-10.82T576.71,2316.56Z" transform="translate(0 -6)"/><path class="cls-5" d="M573.93,2319.89a1.27,1.27,0,0,1,.2-1.79,1.3,1.3,0,0,1,1.81.21c6.56,8.07,12.15,20.57,14.87,34.25,2.39,12,2.58,25-.73,36.8a1.29,1.29,0,0,1-1.59.88,1.26,1.26,0,0,1-.9-1.56c3.19-11.35,3-23.94.68-35.63C585.63,2339.75,580.24,2327.65,573.93,2319.89Z" transform="translate(0 -6)"/><path class="cls-5" d="M483.56,1923.4a1.29,1.29,0,0,1,2.58,0c0,.39,1.15,135.59,47.19,134.71a1.27,1.27,0,1,1,0,2.54C484.72,2061.56,483.57,1923.8,483.56,1923.4Z" transform="translate(0 -6)"/><path class="cls-3" d="M258.43,877.48l-34.36,30.1s59.4,149.75,108.31,222.5,83.39-13.53,83.39-13.53C381.79,1045.54,344.78,996.65,258.43,877.48Z" transform="translate(0 -6)"/><path class="cls-3" d="M408.72,1102.79c61.65,117.92,89.42,126.12,161.3,211.34-27.64,21.54-54.16,60.38-71.88,118.95C443,1333.89,381.77,1228.6,332.72,1129.63Z" transform="translate(0 -6)"/><path class="cls-3" d="M267.83,890.42,255.24,778.93c-21.92,1.71-16.59,30.15-17.87,46C207.8,865.27,246.82,910.58,267.83,890.42Z" transform="translate(0 -6)"/><path class="cls-3" d="M264.71,886.16c-2.65-12.51-24.68-73.07-48-76.31-16.33-2.27-44.06,51-32.38,71.68C223.47,950.8,256.1,924.52,264.71,886.16Z" transform="translate(0 -6)"/><path class="cls-3" d="M202.28,849.89l-63.76-59.4s4.66-11.17,24,1.6,50.26,38,50.26,38Z" transform="translate(0 -6)"/><path class="cls-3" d="M222.44,843.53C222,842.89,169,774.05,177,767.1s52.14,49.81,59.54,58.37Z" transform="translate(0 -6)"/><path class="cls-3" d="M197.72,870.78l-70.91-52.93s3.26-11.52,24.07-.66,54.81,33,54.81,33Z" transform="translate(0 -6)"/><path class="cls-3" d="M205.93,892l-80.62-41.29s.94-11.79,23.67-4.26,60.74,24.12,60.74,24.12Z" transform="translate(0 -6)"/><path class="cls-10" d="M236.32,824.21a1.3,1.3,0,0,1,1.8-.29,1.26,1.26,0,0,1,.3,1.77c-6.79,9.25-9.87,18.76-10.37,27.63a45.09,45.09,0,0,0,7.29,27.31,1.26,1.26,0,0,1-.38,1.76,1.3,1.3,0,0,1-1.79-.37,47.55,47.55,0,0,1-7.69-28.83C226,843.86,229.23,833.89,236.32,824.21Z" transform="translate(0 -6)"/><path class="cls-10" d="M404.09,1129.06a1.31,1.31,0,0,1,1.76-.48,1.27,1.27,0,0,1,.49,1.74s-6.74,12.07-28,11.15a1.27,1.27,0,1,1,.12-2.54C398.12,1139.78,404.07,1129.09,404.09,1129.06Z" transform="translate(0 -6)"/><path class="cls-3" d="M1245.85,1702.46l-31.78,38.67s-169.9-56.51-253.46-105.63,10.79-90.8,10.79-90.8C1052.27,1577.77,1108.64,1615.26,1245.85,1702.46Z" transform="translate(0 -6)"/><path class="cls-3" d="M987.1,1551.61C852.55,1491,842,1461.44,743.34,1388.15c-22.57,31-64.49,61.61-128.84,83.76,113.34,54.52,233.81,115.27,346.59,163.2Z" transform="translate(0 -6)"/><path class="cls-3" d="M1231,1693l124.86,7.88c-.78,23.78-32.74,19.48-50.36,21.68C1262.05,1756.54,1209.56,1716.69,1231,1693Z" transform="translate(0 -6)"/><path class="cls-3" d="M1235.85,1696.11c14.08,2.22,82.68,22.93,87.49,48,3.37,17.53-54.6,50.23-78.21,38.67C1165.94,1744,1193.55,1707.38,1235.85,1696.11Z" transform="translate(0 -6)"/><path class="cls-3" d="M1279.46,1761.72l69.46,65.84s12.21-5.61-3-25.8S1301,1749.4,1301,1749.4Z" transform="translate(0 -6)"/><path class="cls-3" d="M1285.52,1739.61c.73.48,80.16,54.14,87.48,45.14s-58.16-53.78-68.09-61.34Z" transform="translate(0 -6)"/><path class="cls-3" d="M1256.43,1767.71l62.61,73.91s12.66-4.11-.5-26-39.54-57.53-39.54-57.53Z" transform="translate(0 -6)"/><path class="cls-3" d="M1232.31,1759.93l50.15,85s13.08-1.61,3.53-25.8-30-64.39-30-64.39Z" transform="translate(0 -6)"/><path class="cls-10" d="M1304.65,1721.52a1.31,1.31,0,0,1,1.81.21,1.26,1.26,0,0,1-.2,1.79c-10.4,8.14-21.32,12.14-31.67,13.17a54.23,54.23,0,0,1-32.45-6.82,1.25,1.25,0,0,1-.45-1.74,1.31,1.31,0,0,1,1.77-.45,51.58,51.58,0,0,0,30.88,6.48C1284.22,1733.18,1294.67,1729.34,1304.65,1721.52Z" transform="translate(0 -6)"/><path class="cls-10" d="M956.62,1555.7a1.31,1.31,0,0,1,1.78.4,1.25,1.25,0,0,1-.41,1.75s-11.7,7-9.74,28.37a1.28,1.28,0,0,1-2.56.22C943.58,1563.56,956.58,1555.72,956.62,1555.7Z" transform="translate(0 -6)"/><path class="cls-24" d="M447.12,1161.19c3.9-2.61,46.79,59.82,95.59,110.91,20.58,21.55,64.13,47.38,84.34,59.17,46.72,27.26-158.76,200.56-157.69,114.72.67-53.5-84.34-136.09-112.07-158.78C344.65,1276.87,394,1196.65,447.12,1161.19Z" transform="translate(0 -6)"/><path class="cls-24" d="M535.43,1268.42c-31.16-24.18-150.19,348.49-175.37,641.08,124.16,171.61,241.76,43.3,413.75,26.1-25.71-73.9-94.61-151-80-197.49,12.09-38.32,105.3-317.76,104.31-318.78C663.39,1279.07,600.59,1319,535.43,1268.42Z" transform="translate(0 -6)"/><path class="cls-24" d="M666,1499.17c28.29,24.47,36.18,74,67.18,92.75,4.12,2.5,18.93-16.06,35.26-12,35.61,9,76.5,36.83,103.31,50.41,19.65-48.27,33.31-89,68.39-102-18.07-13.4-86.34-77.82-145.94-124.58-25.21-19.77-57.86-34.07-69.93-46C674.74,1329.14,632.42,1399.33,666,1499.17Z" transform="translate(0 -6)"/><path class="cls-3" d="M650,1244.53c-12.89,17.79-33.94,45.61-47.65,73.4-56.65,114.84,77.91,75.14,98,35.47,10.34-20.46,22.36-43.9,41.86-65.37Z" transform="translate(0 -6)"/><path class="cls-8" d="M602.69,1317.24c20.13,37.77,75,33.53,108.09,16.07,8.2-15,18-30.58,31.39-45.28C669.63,1253.8,643.31,1235.59,602.69,1317.24Z" transform="translate(0 -6)"/><path class="cls-3" d="M773.13,1280.43c69.56-86.74,111.3-164-13.1-214.5-117.18-47.55-194.62,179.65-147.69,230.82C653.52,1341.64,735.18,1327.76,773.13,1280.43Z" transform="translate(0 -6)"/><path class="cls-20" d="M729.82,1206.71a10.6,10.6,0,0,0-9.25,11.55,10.18,10.18,0,0,0,11.31,9.17,10.6,10.6,0,0,0,9.25-11.55A10.18,10.18,0,0,0,729.82,1206.71Z" transform="translate(0 -6)"/><path class="cls-20" d="M662.39,1168.17a10.6,10.6,0,0,1-5.24,13.84,10.16,10.16,0,0,1-13.63-5.08,10.6,10.6,0,0,1,5.24-13.85A10.17,10.17,0,0,1,662.39,1168.17Z" transform="translate(0 -6)"/><path class="cls-12" d="M722,1246c-7.35,1.08-10.9,6.78-7.93,12.74s11.35,9.91,18.7,8.83,10.9-6.77,7.92-12.73S729.32,1244.94,722,1246Z" transform="translate(0 -6)"/><path class="cls-12" d="M632.55,1194.91c2.8,6.88-.3,12.84-6.94,13.3s-14.3-4.74-17.11-11.63.3-12.84,6.94-13.3S629.74,1188,632.55,1194.91Z" transform="translate(0 -6)"/><path class="cls-13" d="M740,1179.78c.41,0,.82.09,1.24.16a29,29,0,0,1,12.25,5,28.67,28.67,0,0,1,8.69,9.48c1,2,4.33,10.76,1.46,11.66-.85-.21-5.25-7-6.74-8.71a28.21,28.21,0,0,0-7.56-5.83,25.13,25.13,0,0,0-8.42-2.73c-.08,0-.66-.08-.79-.09-6.74-.4-7.22,1.55-9.37-3C727,1179.57,734.49,1179.61,740,1179.78Z" transform="translate(0 -6)"/><path class="cls-13" d="M680.94,1146c-.25-.34-.5-.66-.76-1a29.08,29.08,0,0,0-10.53-8,28.57,28.57,0,0,0-12.58-2.68c-2.21.14-11.46,1.74-10.77,4.67.61.62,8.73.94,10.92,1.38a28.27,28.27,0,0,1,8.85,3.56,25.28,25.28,0,0,1,6.64,5.87c.06,0,.4.53.47.63,3.77,5.61,2.34,7,7.35,6.55C687.75,1157.14,683.91,1150.69,680.94,1146Z" transform="translate(0 -6)"/><path class="cls-8" d="M650.83,1276.1a1.27,1.27,0,0,1,1.31,1.24,1.28,1.28,0,0,1-1.26,1.3,14.54,14.54,0,0,1-7.33-2,13.93,13.93,0,0,1-5.37-5.26,1.26,1.26,0,0,1,.53-1.72,1.31,1.31,0,0,1,1.75.53,11.35,11.35,0,0,0,4.38,4.25A11.86,11.86,0,0,0,650.83,1276.1Z" transform="translate(0 -6)"/><path class="cls-8" d="M673.86,1229a1.26,1.26,0,0,1,.47,1.74,1.29,1.29,0,0,1-1.76.46,61.45,61.45,0,0,1-8.17-5.29c-2.72-2.24-4.29-4.64-3-7,1.9-3.32,16.43-21.39,16.47-21.44a1.3,1.3,0,0,1,1.81-.21,1.26,1.26,0,0,1,.21,1.79s-14.43,18-16.23,21.11c-.53.92.6,2.29,2.37,3.74A58.65,58.65,0,0,0,673.86,1229Z" transform="translate(0 -6)"/><path class="cls-25" d="M706.93,1202.85a1.93,1.93,0,0,1-3.86.09s0-6-9.11-11.15-14.14-2.2-14.16-2.19a2,2,0,0,1-2.64-.71,1.89,1.89,0,0,1,.72-2.6s7-4.09,18,2.2S706.93,1202.83,706.93,1202.85Z" transform="translate(0 -6)"/><path class="cls-14" d="M629.22,1227.23c10.62,12.88,51.86,36.32,67.16,39.21C674.32,1288.67,621,1257.63,629.22,1227.23Z" transform="translate(0 -6)"/><path class="cls-25" d="M745.8,1196l-.36-.19a29.27,29.27,0,0,0-22.26-2.51,30.64,30.64,0,0,0-18,14l-.22.39a30.83,30.83,0,0,0-3.11,23.13A29.45,29.45,0,0,0,715.66,1249l.36.19a29.27,29.27,0,0,0,22.26,2.51,30.64,30.64,0,0,0,18.05-14l.22-.39a30.83,30.83,0,0,0,3.11-23.13A29.45,29.45,0,0,0,745.8,1196Zm3.43-6.85.45.25a37,37,0,0,1,17.47,22.87,38.35,38.35,0,0,1-3.84,28.79l-.28.47A38.39,38.39,0,0,1,740.4,1259a37.13,37.13,0,0,1-28.18-3.19l-.44-.26a37,37,0,0,1-17.47-22.87,38.36,38.36,0,0,1,3.84-28.79l.28-.47a38.39,38.39,0,0,1,22.63-17.52A37.06,37.06,0,0,1,749.23,1189.13Z" transform="translate(0 -6)"/><path class="cls-25" d="M664,1149.22l-.36-.2a29.25,29.25,0,0,0-22.25-2.51,30.7,30.7,0,0,0-18.06,14l-.22.39A30.85,30.85,0,0,0,620,1184a29.43,29.43,0,0,0,13.86,18.18l.36.2a29.31,29.31,0,0,0,22.26,2.5,30.6,30.6,0,0,0,18-14l.22-.38a30.85,30.85,0,0,0,3.11-23.14A29.36,29.36,0,0,0,664,1149.22Zm3.44-6.86.44.26a37,37,0,0,1,17.47,22.87,38.28,38.28,0,0,1-3.84,28.78l-.28.47a38.36,38.36,0,0,1-22.63,17.52,37.06,37.06,0,0,1-28.17-3.19l-.45-.26a37,37,0,0,1-17.47-22.87,38.32,38.32,0,0,1,3.84-28.78l.28-.48a38.43,38.43,0,0,1,22.63-17.52A37.09,37.09,0,0,1,667.42,1142.36Z" transform="translate(0 -6)"/><path class="cls-15" d="M782.51,1257.18c2.51-4.9,26-2.71,26.39,16.66s-21.72,38-46.38,30.55-16-8.87-16-8.87Z" transform="translate(0 -6)"/><path class="cls-8" d="M796.79,1283.11a1.3,1.3,0,0,1-1.68.72,1.27,1.27,0,0,1-.73-1.65c1.66-4.15,2-7.07,1.36-9a3.64,3.64,0,0,0-2.16-2.37,8.26,8.26,0,0,0-4.3-.33c-4.46.61-9.95,3.46-13.91,7.33a52.69,52.69,0,0,0-5.2,5.82,10.64,10.64,0,0,1,7.53.52,6.32,6.32,0,0,1,2.47,2.14,5,5,0,0,1,.8,3.16c-.18,2-1.59,4.31-4.77,6.47a1.3,1.3,0,0,1-1.79-.32,1.26,1.26,0,0,1,.33-1.77c2.45-1.67,3.53-3.27,3.65-4.6a2.39,2.39,0,0,0-.39-1.56,3.67,3.67,0,0,0-1.49-1.26,8.42,8.42,0,0,0-7,.14,3,3,0,0,1-1.63.31,1.44,1.44,0,0,1-1.3-1.94,4.61,4.61,0,0,1,.64-1.51,46.18,46.18,0,0,1,6.33-7.4c4.33-4.24,10.41-7.36,15.37-8a10.9,10.9,0,0,1,5.66.51,6.11,6.11,0,0,1,3.63,3.94C799,1274.87,798.69,1278.36,796.79,1283.11Z" transform="translate(0 -6)"/><path class="cls-26" d="M858.76,1129.61c-27.14-63.07-60.07-128.75-124.14-75.71-62.4-45-105.46,50.9-110.07,75-5.94,31,9.54-1,28-16s39.74-19.8,53.7-14.66c-21.33,54.1,64.65,84.35,76.61,106.81,14.24,26.78-29,73.52-23,68.14C773.16,1261.2,898.79,1222.64,858.76,1129.61Z" transform="translate(0 -6)"/><path class="cls-25" d="M764.27,1237a1.87,1.87,0,0,1-.39-2.66,2,2,0,0,1,2.71-.39L789.65,1251a1.87,1.87,0,0,1,.39,2.66,2,2,0,0,1-2.71.38Z" transform="translate(0 -6)"/><path class="cls-27" d="M635.53,1745.09a1.27,1.27,0,0,1-1-1.48,1.29,1.29,0,0,1,1.5-1c12.93,2.34,23.24,3.87,31.16,5,10.31,1.53,16.62,2.46,20,3.95,3.68,1.6,4.32,3.68,2.74,7.16-3.87,8.6-51.73,25.81-51.86,25.86a1.3,1.3,0,0,1-1.66-.75,1.27,1.27,0,0,1,.77-1.64c.13,0,47-16.9,50.4-24.49.84-1.87.51-3-1.43-3.83-3-1.33-9.22-2.24-19.35-3.74C658.92,1749,648.71,1747.47,635.53,1745.09Z" transform="translate(0 -6)"/><path class="cls-24" d="M416.34,1637.86c1.51-56.75,31.68-206.67,38.53-221.41s102.87-122.72,102.87-122.72-34.9,362.57-75.8,449.24S416.34,1637.86,416.34,1637.86Z" transform="translate(0 -6)"/><path class="cls-27" d="M472.25,1604.82a1.27,1.27,0,1,1,.14-2.53c106.31,5.41,183.1,63,183.33,63.2a1.25,1.25,0,0,1,.26,1.77,1.31,1.31,0,0,1-1.81.26C654,1667.35,577.78,1610.2,472.25,1604.82Z" transform="translate(0 -6)"/><path class="cls-27" d="M456.25,1423.91a1.3,1.3,0,0,1-1.49,1,1.28,1.28,0,0,1-1.06-1.47c2.35-13.89,4.2-30.63,5.54-46.64,1.77-21.13,2.66-40.95,2.66-51.16a1.29,1.29,0,0,1,2.58,0c0,10.25-.89,30.15-2.66,51.37C460.47,1393.1,458.61,1409.92,456.25,1423.91Z" transform="translate(0 -6)"/><path class="cls-27" d="M741.8,1591.75a1.3,1.3,0,0,1-1.81.21,1.25,1.25,0,0,1-.22-1.78,175.34,175.34,0,0,1,29.17-28.58c17.29-13.57,33.11-21.62,36.64-23.07a1.29,1.29,0,0,1,1.68.69,1.26,1.26,0,0,1-.69,1.66c-3.45,1.42-19,9.32-36,22.71A172.23,172.23,0,0,0,741.8,1591.75Z" transform="translate(0 -6)"/><path class="cls-27" d="M747.52,1581.36a1.29,1.29,0,0,1-1.55,1,1.27,1.27,0,0,1-1-1.53c5-21.26,30.15-74.28,30.22-74.43a1.29,1.29,0,0,1,1.71-.62,1.27,1.27,0,0,1,.64,1.69C777.5,1507.57,752.51,1560.35,747.52,1581.36Z" transform="translate(0 -6)"/><path class="cls-28" d="M755.85,1053.79a1.31,1.31,0,0,1,1.8-.36,1.27,1.27,0,0,1,.36,1.77c-13.54,20-21,38.4-19.31,55.6s12.46,33.25,35.4,48.76q5,3.39,9.22,6.85c17.09,14,23.73,28.11,25.07,40.19a41.9,41.9,0,0,1-6.82,28.21c-.53.77-1.09,1.49-1.64,2.14a1.31,1.31,0,0,1-1.82.17,1.27,1.27,0,0,1-.17-1.79,23.19,23.19,0,0,0,1.5-2,39.38,39.38,0,0,0,6.39-26.5c-1.28-11.5-7.68-25-24.16-38.51-2.71-2.23-5.71-4.47-9-6.71-23.63-16-34.76-32.69-36.51-50.61S742,1074.25,755.85,1053.79Z" transform="translate(0 -6)"/><path class="cls-28" d="M779.5,1065.65a1.3,1.3,0,0,1,1.72-.62,1.27,1.27,0,0,1,.63,1.68c-5.79,12.35-7.94,27.27-3.8,43.92,3.58,14.35,11.82,30,26.42,46.44,32.58,36.66,15.72,64.34,15.67,64.42a1.29,1.29,0,0,1-1.76.46,1.25,1.25,0,0,1-.47-1.73c0-.08,16-26.2-15.38-61.48-14.9-16.76-23.32-32.78-27-47.51C771.25,1094,773.49,1078.48,779.5,1065.65Z" transform="translate(0 -6)"/><path class="cls-28" d="M842.23,1202a1.29,1.29,0,0,1-2.58,0c0-24.23-7.44-37-18.72-56.29-2.42-4.14-5-8.57-7.6-13.24-15.77-28.32-9.27-52.12-9.25-52.19a1.29,1.29,0,0,1,2.5.64c0,.06-6.26,22.89,9,50.33,2.75,4.94,5.25,9.21,7.57,13.19C834.66,1164.1,842.23,1177.08,842.23,1202Z" transform="translate(0 -6)"/><path class="cls-28" d="M704.88,1071.2a1.28,1.28,0,1,1,0,2.55c-13,0-22.31,3.07-30.09,8.32s-14.15,12.85-20.92,21.74a1.31,1.31,0,0,1-1.81.26,1.27,1.27,0,0,1-.26-1.78c6.93-9.09,13.4-16.82,21.54-22.32S691.35,1071.2,704.88,1071.2Z" transform="translate(0 -6)"/><path class="cls-2" d="M1883.31,2622.21s1.85-34.69-26.89-47.76-91.17,26.16-117.49,34.06-90.58,34.8-72.33,66.45,115.26-18.1,152-4.77S1878.68,2643.46,1883.31,2622.21Z" transform="translate(0 -6)"/><path class="cls-3" d="M1885.67,2627c2.63-19.53-57.65-23.14-86.16-14.05-29.67,9.48-82.38,21.18-46.3,63.1,25.32-4.69,54-8.23,81.75-2.18S1881.32,2647,1885.67,2627Z" transform="translate(0 -6)"/><path class="cls-2" d="M2585.86,2599.22s9-33.58,40.44-37.36,78.66,52.4,101.26,67.85,75.42,60.44,48.2,85.07-104.1-52-143.25-50.37S2583.65,2620.85,2585.86,2599.22Z" transform="translate(0 -6)"/><path class="cls-3" d="M2582.11,2603.1c3.56-19.38,62.08-4.65,86.38,12.6,25.32,18,71.85,45,24.47,74-22.64-12.09-48.85-24.11-77.16-26.71S2580,2623.44,2582.11,2603.1Z" transform="translate(0 -6)"/><path class="cls-17" d="M2398.86,2644.59,2584,2603.76c15.53,1.77,32.39,30.75,33.64,47.95,1,13.87-2.69,25.53-21.36,35.42l-156.73,83.09c-26.65,7.31-63.76-9.7-81.71-44.24C2345.81,2702.89,2349.32,2686,2398.86,2644.59Z" transform="translate(0 -6)"/><path class="cls-17" d="M2116.6,2647.34,1879,2613.15c-20.12,2.36-42.92,32.11-45.14,49.43-1.79,14,1.81,26.69,26.32,34.81l229.42,76.05C2172.62,2788.91,2202.72,2702.08,2116.6,2647.34Z" transform="translate(0 -6)"/><path class="cls-17" d="M2410.06,2251s64.49,214.55,74.28,368.86-22.18,146.21-79.63,146.53S2285.84,2537.52,2254.1,2482,2240,2247.33,2240,2247.33Z" transform="translate(0 -6)"/><path class="cls-17" d="M2111.47,2232s-58.72,159.59-60.7,337-8.49,195.05,42.95,207.52c11.89,2.89,41.29-.66,54-11.87,42.34-37.27,69.86-142.23,99-231.93,37.86-116.66,10.76-284.87,10.76-284.87Z" transform="translate(0 -6)"/><path class="cls-5" d="M2159.57,2730.63a1.09,1.09,0,0,1-1.51.28,1.06,1.06,0,0,1-.29-1.48c15.36-22.55,30.49-51.5,44.58-83.07a1181.58,1181.58,0,0,0,43.32-114,1.08,1.08,0,0,1,1.37-.69,1.05,1.05,0,0,1,.7,1.34,1180.05,1180.05,0,0,1-43.4,114.16C2190.2,2678.89,2175,2708,2159.57,2730.63Z" transform="translate(0 -6)"/><path class="cls-5" d="M2298.16,2375.81a1.08,1.08,0,0,1,2.16.15c-1,13.21-2.18,28.09-3.55,41.09s-2.87,24.2-4.43,29.94l-.71,2.62c-5.22,19.38-9.85,36.51-32.12,37.74a1.07,1.07,0,1,1-.13-2.13c20.7-1.15,25.14-17.59,30.14-36.16l.72-2.62c1.52-5.63,3-16.67,4.37-29.61S2297.18,2389,2298.16,2375.81Z" transform="translate(0 -6)"/><path class="cls-5" d="M2061.61,2730.54a1.06,1.06,0,0,1,.6-1.39,1.11,1.11,0,0,1,1.42.61c.11.26.24.56.41.88,2.57,5,10.29,12.17,21.57,16.5s26.21,5.8,43-.78c2-.8,4-1.69,6.13-2.73a1.08,1.08,0,0,1,1.46.47,1.06,1.06,0,0,1-.48,1.44c-2.11,1.05-4.22,2-6.31,2.8-17.38,6.83-32.83,5.33-44.59.81s-20-12.19-22.73-17.54C2061.92,2731.26,2061.75,2730.9,2061.61,2730.54Z" transform="translate(0 -6)"/><path class="cls-5" d="M2272.56,2371.73a1.09,1.09,0,0,1,2.17.19c-4.4,49.9-13.63,116.63-13.65,116.81a1.08,1.08,0,0,1-1.23.92,1.06,1.06,0,0,1-.93-1.2C2258.94,2488.26,2268.18,2421.56,2272.56,2371.73Z" transform="translate(0 -6)"/><path class="cls-5" d="M2043.58,2664.65a1.09,1.09,0,0,1-2.16-.27c1.36-10.7,3.23-19.35,4.86-23.71a11.65,11.65,0,0,1,1.29-2.65c.74-1,1.56-1.33,2.42-.83a1.92,1.92,0,0,1,.82.92c1.25,2.49,3.11,14.38,4.33,22.14.44,2.78.78,5,1,6.09a1.09,1.09,0,0,1-2.14.41c-.2-1-.56-3.32-1-6.19-1.1-7.08-2.77-17.68-3.88-20.9a11.75,11.75,0,0,0-.78,1.75C2046.74,2645.63,2044.91,2654.1,2043.58,2664.65Z" transform="translate(0 -6)"/><path class="cls-5" d="M2486,2652.66a1.09,1.09,0,0,1-2.17-.19c.86-10.58.81-19.25.12-23.7a10.81,10.81,0,0,0-.4-1.87c-1.75,2.94-5.55,13-8.09,19.71-1,2.71-1.86,4.9-2.25,5.85a1.1,1.1,0,0,1-1.43.58,1.07,1.07,0,0,1-.59-1.4c.43-1,1.23-3.14,2.23-5.77,2.78-7.36,7-18.63,8.77-20.83a2.15,2.15,0,0,1,1-.74c1-.3,1.69.16,2.19,1.3a11.65,11.65,0,0,1,.73,2.86C2486.78,2633.05,2486.84,2641.9,2486,2652.66Z" transform="translate(0 -6)"/><path class="cls-5" d="M2074.93,2366a1.11,1.11,0,0,1-1.43-.58,1.08,1.08,0,0,1,.6-1.4c3-1.2,5.74-2.23,8.49-3.24,19.27-7.15,37-13.74,41.9-47.95l5.67-39.83a1.09,1.09,0,0,1,2.16.3l-5.68,39.82c-5,35.48-23.38,42.28-43.28,49.67C2080.51,2363.79,2077.63,2364.85,2074.93,2366Z" transform="translate(0 -6)"/><path class="cls-5" d="M2444,2374.46a1.06,1.06,0,0,1,.3,1.48,1.09,1.09,0,0,1-1.51.29c-2.43-1.61-5-3.23-7.6-4.83-18-11.19-34.54-21.49-32.21-57.23l2.61-40.14a1.09,1.09,0,0,1,1.16-1,1.07,1.07,0,0,1,1,1.14l-2.61,40.13c-2.24,34.47,13.79,44.46,31.21,55.29C2438.82,2371.14,2441.33,2372.71,2444,2374.46Z" transform="translate(0 -6)"/><path class="cls-3" d="M2799.38,1584.77l33.06,19.65s-75.1,184.12-116.33,220.41-79.78-29.57-79.78-29.57C2643.27,1771.75,2735.55,1651.7,2799.38,1584.77Z" transform="translate(0 -6)"/><path class="cls-10" d="M2691.65,1821.81a1.07,1.07,0,0,1-.32,1.48,1.09,1.09,0,0,1-1.5-.31,50.24,50.24,0,0,0-29.47-19.15,1.07,1.07,0,1,1,.47-2.09A52.6,52.6,0,0,1,2691.65,1821.81Z" transform="translate(0 -6)"/><path class="cls-3" d="M2737.57,1673.28,2774,1606l62.52,9.92-55.68,97S2714.14,1718.38,2737.57,1673.28Z" transform="translate(0 -6)"/><path class="cls-15" d="M2792.54,1620.48s24.57,11.83,38.21,5.44c12.22-5.72,39.16-42.3,36.07-56.06.5-6.5-.27-13.12-3.83-14.66-5-2.17-9.71,2.38-9.71,2.38s3.93-13.49-3.76-16.61a12.34,12.34,0,0,0-12,1.31l-.45-.33c1.34-3.06,4.36-11.59-2-14.76-7.77-3.88-15.73,1.63-16.9,4.66s.64-10.63-5.33-12.82-11.11.42-14.2,5.59l-2.36,4C2774.37,1541.61,2768.81,1611.88,2792.54,1620.48Z" transform="translate(0 -6)"/><path class="cls-3" d="M2774,1612.44c-1.2-14.76-12.25-54.63,3.35-65.92,15.15-11,58.95,12.88,41.75,19.85-9.6,3.9-24-1.43-24-1.43C2817.64,1580.87,2821.76,1622.37,2774,1612.44Z" transform="translate(0 -6)"/><path class="cls-10" d="M2786.82,1546.7a1.09,1.09,0,0,1-1.36-.7,1.06,1.06,0,0,1,.71-1.34c10.3-3.25,23.1,1.44,30.71,7.37a24.27,24.27,0,0,1,5,5.12,8.57,8.57,0,0,1,1.79,5.3c-.15,2.07-1.43,3.8-4.17,4.91-6.29,2.55-14.43,1.34-19.63.09a41.26,41.26,0,0,1,10.83,16.87c2.5,7.58,2.3,15.37-1.5,21.22a1.11,1.11,0,0,1-1.51.33,1.07,1.07,0,0,1-.33-1.48c3.44-5.28,3.57-12.41,1.27-19.41a39,39,0,0,0-14.11-19.14,1.06,1.06,0,0,1-.42-1.28,1.09,1.09,0,0,1,1.39-.63s14,5.19,23.19,1.45c1.86-.75,2.73-1.84,2.82-3.08a6.51,6.51,0,0,0-1.42-3.94,22.1,22.1,0,0,0-4.6-4.66C2808.36,1548.12,2796.39,1543.69,2786.82,1546.7Z" transform="translate(0 -6)"/><path class="cls-16" d="M2856.47,1580.17a1.11,1.11,0,0,1,1.5-.37,1.06,1.06,0,0,1,.36,1.47c-5.72,9.29-10.06,14.79-13.94,17.82a13.65,13.65,0,0,1-11.68,3,5.14,5.14,0,0,1-1.24-.38c-1.9-.88-2.65-2.79-2.51-5.41a28.86,28.86,0,0,1,2.23-8.4,135.89,135.89,0,0,1,11-20.48c3.88-6.12,7.88-10.11,11.5-12.31a14.12,14.12,0,0,1,5.73-2.11,7.53,7.53,0,0,1,4.84,1,6.79,6.79,0,0,1,2.24,2.25c3.74,6,.37,13.53.36,13.55a1.1,1.1,0,0,1-1.43.57,1.06,1.06,0,0,1-.57-1.41s2.92-6.59-.2-11.59a4.78,4.78,0,0,0-1.55-1.55,5.36,5.36,0,0,0-3.45-.67,12,12,0,0,0-4.83,1.81c-3.36,2-7.11,5.8-10.79,11.61a133.67,133.67,0,0,0-10.81,20.13,26.7,26.7,0,0,0-2.08,7.74c-.09,1.7.27,2.89,1.26,3.35a3,3,0,0,0,.68.21,11.6,11.6,0,0,0,10-2.59C2846.71,1594.54,2850.89,1589.22,2856.47,1580.17Z" transform="translate(0 -6)"/><path class="cls-16" d="M2831.42,1587.66a1.09,1.09,0,0,1,1.53.11,1.06,1.06,0,0,1-.1,1.51,16.12,16.12,0,0,1-7.41,3.78,9.37,9.37,0,0,1-4.59-.26,8.23,8.23,0,0,1-3.69-2.45,11.51,11.51,0,0,1-2.53-5.56c-.81-4.43,2.64-14.2,7.71-23.65,4.7-8.75,10.81-17.3,16.23-21.17a12.29,12.29,0,0,1,5.74-2.4,7.9,7.9,0,0,1,6.15,2,14.12,14.12,0,0,1,3.69,5.46,19.44,19.44,0,0,1,1.37,9.66,1.09,1.09,0,0,1-2.15-.33,17.29,17.29,0,0,0-1.24-8.54,12.06,12.06,0,0,0-3.1-4.64,5.8,5.8,0,0,0-4.49-1.5,10.13,10.13,0,0,0-4.69,2c-5.14,3.67-11,11.94-15.58,20.43-4.88,9.08-8.23,18.31-7.49,22.27a9.27,9.27,0,0,0,2,4.53,6.15,6.15,0,0,0,2.73,1.83,7.24,7.24,0,0,0,3.52.18A13.88,13.88,0,0,0,2831.42,1587.66Z" transform="translate(0 -6)"/><path class="cls-16" d="M2814.72,1579.53a1.1,1.1,0,0,1,1.48.41,1.07,1.07,0,0,1-.42,1.46c-2.93,1.61-5.58.93-8-.76a29.47,29.47,0,0,1-5.7-6c-3.56-4.64-1.74-8.5-1.74-8.51a1.1,1.1,0,0,1,1.43-.56,1.07,1.07,0,0,1,.56,1.41s-1.3,2.74,1.49,6.36a27.81,27.81,0,0,0,5.22,5.61C2810.81,1580.13,2812.7,1580.64,2814.72,1579.53Z" transform="translate(0 -6)"/><path class="cls-16" d="M2810.52,1548.05a1.11,1.11,0,0,1-1.41.65,1.07,1.07,0,0,1-.64-1.38c2.91-7.84,5.54-13,8.42-16.47A20.77,20.77,0,0,1,2827,1524a8,8,0,0,1,4.84-.14,9.77,9.77,0,0,1,4.61,3,14.79,14.79,0,0,1,2.85,5,13.49,13.49,0,0,1,.41,8,1.1,1.1,0,0,1-1.35.74,1,1,0,0,1-.73-1.32,11.48,11.48,0,0,0-.39-6.75,12.7,12.7,0,0,0-2.43-4.24,7.67,7.67,0,0,0-3.56-2.37,5.93,5.93,0,0,0-3.55.12,18.73,18.73,0,0,0-9.12,6.14C2815.86,1535.51,2813.35,1540.44,2810.52,1548.05Z" transform="translate(0 -6)"/><path class="cls-16" d="M2819.72,1529.65a1.08,1.08,0,0,1-1.08,1.08,1.09,1.09,0,0,1-1.1-1.07,12.25,12.25,0,0,0-1.62-6.06,9.64,9.64,0,0,0-3-3.21,7.23,7.23,0,0,0-4-1.18,9.5,9.5,0,0,0-4.56,1.33c-7.91,4.46-17.05,24.23-17.08,24.28a1.1,1.1,0,0,1-1.45.53,1.06,1.06,0,0,1-.53-1.42c0-.06,9.44-20.44,18-25.25a11.56,11.56,0,0,1,5.62-1.62,9.3,9.3,0,0,1,5.2,1.55,11.52,11.52,0,0,1,3.66,3.93A14.48,14.48,0,0,1,2819.72,1529.65Z" transform="translate(0 -6)"/><path class="cls-29" d="M2815.62,1668.15c-2.43-23.31-46.43-47.59-65.78-37.37l-33.5,43.38,64,47.69C2795.23,1707.78,2805.72,1692.93,2815.62,1668.15Z" transform="translate(0 -6)"/><path class="cls-30" d="M2708.75,1659.94c-17.14,16.06-56.3,75.39-92.12,104.1-6.29,5-19.52-2-25.48.72-4.6,2.13.63,20-6.33,21.93-53.23,14.84-170.86,19.45-212.21,20.57-46.76,1.28-48.3,193.62,20.51,176.17,83.05-21.06,175.72-17.64,252.55-65.91,17.79-11.17,28.59-28.85,44-44,47-46,83.06-98.62,99.23-123.42,23.29-35.73,22.66-43.63,11.26-59C2772,1653.11,2725,1644.72,2708.75,1659.94Z" transform="translate(0 -6)"/><path class="cls-29" d="M2621.55,1775a1.08,1.08,0,0,1-.7-1.35,1.1,1.1,0,0,1,1.37-.69c.09,0,29,8.94,46,40.88a1.07,1.07,0,0,1-.46,1.45,1.09,1.09,0,0,1-1.46-.46C2649.75,1783.72,2621.64,1775.08,2621.55,1775Z" transform="translate(0 -6)"/><path class="cls-29" d="M2625.07,1784.71a1.05,1.05,0,0,1,0-1.51,1.09,1.09,0,0,1,1.53,0c.07.06,21.5,21.2,21.44,57.24a1.09,1.09,0,0,1-2.17,0C2645.94,1805.29,2625.13,1784.77,2625.07,1784.71Z" transform="translate(0 -6)"/><path class="cls-29" d="M2465.32,1907.2a1.13,1.13,0,0,1,1.52-.28,1.06,1.06,0,0,1,.29,1.49c-33.47,48.31-36.93,65.4-36.94,65.46a1.08,1.08,0,0,1-1.3.81,1.07,1.07,0,0,1-.86-1.11c0-1.87.49-47.07,4.58-88.67a1.08,1.08,0,0,1,2.15.22c-3.19,32.56-4.16,67.35-4.44,81.73C2433.92,1958,2443,1939.4,2465.32,1907.2Z" transform="translate(0 -6)"/><path class="cls-3" d="M1739.28,1558.65l-34,18s65.65,187.59,105,225.86,81.18-25.6,81.18-25.6C1885.69,1753.09,1799.63,1628.64,1739.28,1558.65Z" transform="translate(0 -6)"/><path class="cls-10" d="M1836.6,1802a1.12,1.12,0,0,1-1.53.24,1.08,1.08,0,0,1-.24-1.51,52.75,52.75,0,0,1,31.79-18.52,1.08,1.08,0,1,1,.38,2.12A50.26,50.26,0,0,0,1836.6,1802Z" transform="translate(0 -6)"/><path class="cls-3" d="M1796.51,1650.09l-32.91-69-62.95,6.83,50.69,99.6S1817.63,1696.28,1796.51,1650.09Z" transform="translate(0 -6)"/><path class="cls-15" d="M1744.29,1594.65s-25.13,10.6-38.44,3.55c-11.91-6.31-37-44.17-33.17-57.77-.17-6.51.94-13.08,4.57-14.45,5.1-1.92,9.58,2.86,9.58,2.86s-3.24-13.67,4.59-16.4a12.32,12.32,0,0,1,12,1.9l.46-.31c-1.17-3.13-3.75-11.79,2.71-14.64,8-3.5,15.63,2.39,16.65,5.48s-.1-10.64,6-12.54,11.08,1,13.9,6.29c.66,1.26,1.41,2.67,2.15,4.09C1766.45,1516.78,1768.43,1587.24,1744.29,1594.65Z" transform="translate(0 -6)"/><path class="cls-3" d="M1763.18,1587.53c2-14.67,15-54,0-66-14.58-11.7-59.54,10-42.71,17.77,9.4,4.37,24-.25,24-.25C1721.24,1553.85,1715,1595.1,1763.18,1587.53Z" transform="translate(0 -6)"/><path class="cls-10" d="M1754.51,1519.23a1.07,1.07,0,0,1,.64,1.39,1.09,1.09,0,0,1-1.4.62c-9.4-3.47-21.59.37-29,5.59a21.85,21.85,0,0,0-4.82,4.42,6.45,6.45,0,0,0-1.62,3.87c0,1.24.84,2.37,2.66,3.21,9,4.18,23.19-.29,23.23-.31a1.09,1.09,0,0,1,1.36.71,1.06,1.06,0,0,1-.49,1.25A39,39,0,0,0,1730,1558.4c-2.66,6.88-2.88,14,.28,19.44a1.07,1.07,0,0,1-.4,1.47,1.09,1.09,0,0,1-1.49-.4c-3.51-6-3.3-13.82-.43-21.27a41.29,41.29,0,0,1,11.67-16.31c-5.26,1-13.45,1.8-19.59-1.06-2.68-1.24-3.88-3-3.93-5.11a8.57,8.57,0,0,1,2.07-5.2,24.13,24.13,0,0,1,5.3-4.88C1731.37,1519.54,1744.38,1515.49,1754.51,1519.23Z" transform="translate(0 -6)"/><path class="cls-16" d="M1680.57,1552.25a1.07,1.07,0,0,1,.45-1.45,1.11,1.11,0,0,1,1.47.44c5.11,9.32,9,14.83,12.54,17.88a11.61,11.61,0,0,0,9.81,3.08,3.12,3.12,0,0,0,.7-.17c1-.41,1.43-1.58,1.43-3.3a26.56,26.56,0,0,0-1.7-7.83,132.18,132.18,0,0,0-9.77-20.63c-3.38-6-6.93-9.93-10.18-12.13a12,12,0,0,0-4.73-2,5.41,5.41,0,0,0-3.49.5,4.59,4.59,0,0,0-1.61,1.47c-3.38,4.84-.8,11.54-.79,11.56a1.06,1.06,0,0,1-.65,1.38,1.1,1.1,0,0,1-1.4-.63s-3-7.76,1-13.52a6.91,6.91,0,0,1,2.35-2.13,7.53,7.53,0,0,1,4.89-.74,14.06,14.06,0,0,1,5.61,2.38c3.51,2.38,7.31,6.56,10.86,12.86a134.55,134.55,0,0,1,9.94,21,28.3,28.3,0,0,1,1.8,8.51c0,2.62-.83,4.49-2.78,5.28a4.87,4.87,0,0,1-1.25.31,13.58,13.58,0,0,1-11.51-3.59C1689.88,1567.52,1685.82,1561.82,1680.57,1552.25Z" transform="translate(0 -6)"/><path class="cls-16" d="M1705.63,1561.51a1.06,1.06,0,0,1,0-1.52,1.11,1.11,0,0,1,1.54,0,13.72,13.72,0,0,0,6.2,3.61,7.22,7.22,0,0,0,3.52,0,6.18,6.18,0,0,0,2.82-1.68,9.48,9.48,0,0,0,2.26-4.43c.92-3.93-2-13.31-6.36-22.62-4.13-8.71-9.57-17.26-14.52-21.17a10,10,0,0,0-4.58-2.23,5.79,5.79,0,0,0-4.57,1.27,12.21,12.21,0,0,0-3.33,4.48,17.29,17.29,0,0,0-1.67,8.47,1.08,1.08,0,0,1-1,1.18,1.1,1.1,0,0,1-1.2-1,19.66,19.66,0,0,1,1.86-9.58,14.27,14.27,0,0,1,4-5.27,7.9,7.9,0,0,1,6.25-1.71,12.13,12.13,0,0,1,5.61,2.68c5.22,4.13,10.89,13,15.13,21.93,4.59,9.69,7.54,19.62,6.5,24a11.51,11.51,0,0,1-2.8,5.42,8.26,8.26,0,0,1-3.82,2.27,9.35,9.35,0,0,1-4.59,0A16,16,0,0,1,1705.63,1561.51Z" transform="translate(0 -6)"/><path class="cls-16" d="M1723.06,1554.48a1.07,1.07,0,0,1-.34-1.48,1.1,1.1,0,0,1,1.5-.34c2,1.21,3.87.79,5.65-.34a28.32,28.32,0,0,0,5.51-5.34c3-3.48,1.8-6.27,1.8-6.28a1.07,1.07,0,0,1,.63-1.38,1.09,1.09,0,0,1,1.4.62s1.63,4-2.17,8.41a29.42,29.42,0,0,1-6,5.76C1728.6,1555.68,1725.91,1556.23,1723.06,1554.48Z" transform="translate(0 -6)"/><path class="cls-16" d="M1732.1,1520.8a1.07,1.07,0,0,1-.72,1.34,1.1,1.1,0,0,1-1.36-.71c-2.44-7.74-4.7-12.79-7.25-16.24a18.66,18.66,0,0,0-8.8-6.58h0a5.93,5.93,0,0,0-3.5-.28,7.59,7.59,0,0,0-3.67,2.19,12.54,12.54,0,0,0-2.65,4.11v0a11.4,11.4,0,0,0-.7,6.68,1.07,1.07,0,0,1-.82,1.29,1.1,1.1,0,0,1-1.31-.81,13.61,13.61,0,0,1,.79-7.94l0-.05a14.71,14.71,0,0,1,3.11-4.81,9.79,9.79,0,0,1,4.74-2.79,8,8,0,0,1,4.78.37l.06,0a20.57,20.57,0,0,1,9.75,7.32C1727.23,1507.58,1729.59,1512.83,1732.1,1520.8Z" transform="translate(0 -6)"/><path class="cls-16" d="M1723.93,1502.72a1.09,1.09,0,0,1-1.15,1,1.08,1.08,0,0,1-1-1.14,14.55,14.55,0,0,1,2.27-7,11.58,11.58,0,0,1,3.85-3.75,9.3,9.3,0,0,1,5.28-1.28,11.47,11.47,0,0,1,5.53,1.89c8.29,5.22,16.66,26,16.69,26.11a1.07,1.07,0,0,1-.61,1.39,1.1,1.1,0,0,1-1.42-.6c0-.06-8.14-20.25-15.83-25.09a9.29,9.29,0,0,0-4.49-1.56,7.16,7.16,0,0,0-4,1,9.59,9.59,0,0,0-3.12,3.06A12.43,12.43,0,0,0,1723.93,1502.72Z" transform="translate(0 -6)"/><path class="cls-30" d="M2256.2,1897.46c-36.5-11-87.75-59.16-103.15-91.49-11.19-23.5-13.63-56.92,4-83.62,21-31.77,65.45-55.1,86.57-55.84,86.39-3,181.44,42.48,139.26,139.26C2370.33,1834.67,2322.38,1890,2256.2,1897.46Z" transform="translate(0 -6)"/><path class="cls-29" d="M2257.2,1878.8c-32.39-9.77-63.25-51.36-76.92-80.06-9.13-19.16-17.3-48.12-7-70.61,14.27-31.08,52.74-53.53,72.76-54.23,55.59-2,105.72,19.51,124.24,58.18,7,14.65,4.73,37.49,3.45,54.09C2371.63,1814,2315.9,1872.21,2257.2,1878.8Z" transform="translate(0 -6)"/><path class="cls-13" d="M2373.75,1553.42c35.11-2.7,46.53,45.45,25.44,68,9.65,30.08-13.79,72.59-42.14,54.6-21.91-13.92-19.47-67.35-19.47-67.35S2334.14,1551.78,2373.75,1553.42Z" transform="translate(0 -6)"/><path class="cls-29" d="M2080.12,2321.53c78.25,40.95,312,32,367.74-9.42,0,0,18.93-16.35-2.26-52.58-18.38-31.44-279.28-10.54-348.15-4.46-20.34,1.8-17.72,12.17-18.18,27.74S2075.23,2319,2080.12,2321.53Z" transform="translate(0 -6)"/><path class="cls-29" d="M1718.82,1641.12c3.61-23.16,48.78-45.24,67.6-34.07l31.25,45-66.3,44.48C1737.17,1681.71,1727.45,1666.36,1718.82,1641.12Z" transform="translate(0 -6)"/><path class="cls-30" d="M2118.55,1799.8s122.65,3,163.87,4.64,40.71,1,121.49,6.63,10.36,156.53,14.65,225c1.66,26.33,2.9,79.56,6.15,115.76,4,44.36,16.95,71.19,16.74,94.4-.28,32.32-17.7,36.24-40.59,41.06-75.45,15.9-206.75,9.33-276.44-4.26-27.33-5.33-37.29-15.86-41-45-9.12-72.39,37.93-180,.4-275.59C2062.22,1907.23,2084.79,1820.76,2118.55,1799.8Z" transform="translate(0 -6)"/><path class="cls-30" d="M1826,1638.19c16.3,16.88,52.4,78.07,86.71,108.5,6,5.35,19.6-1.06,25.41,2,4.49,2.35-1.64,19.93,5.21,22.21,52.41,17.45,169.66,27.85,210.9,31,46.64,3.58,38.41,195.75-29.43,174.94-81.88-25.12-174.61-26.28-248.88-78.26-17.2-12-27.09-30.23-41.72-46.08-44.55-48.27-78-102.58-92.83-128.15-21.45-36.84-20.42-44.69-8.25-59.49C1763.18,1628.25,1810.51,1622.18,1826,1638.19Z" transform="translate(0 -6)"/><path class="cls-8" d="M2209.09,1726.13l90.25-3.22,22.34,86.32c8.62,78.59-98.54,93-105.59,12.42Z" transform="translate(0 -6)"/><path class="cls-3" d="M2219.14,1756.93c-16.14-26.17-24.41-41.59-28.69-86.43-4.46-46.6,13.53-110.46,76-115.77s110.48,30.58,110.32,95.79C2376.59,1733.29,2321.27,1861.32,2219.14,1756.93Z" transform="translate(0 -6)"/><path class="cls-30" d="M2379.61,1725.34c9.63,32.67,5.74,49.06,3.32,80.43s-60.1,83.85-126,91.6c-2.76-24.56,16.43-59.32,50.74-80.54C2320.85,1808.7,2363.48,1796.43,2379.61,1725.34Z" transform="translate(0 -6)"/><path class="cls-30" d="M2256.2,1897.46c-36.5-11-87.75-59.16-103.15-91.49s-11.67-52,17-73.63c-4.53,13.83-6.82,42,43.64,70.86,49.44,28.31,45.94,76.18,45.56,93.89C2258.24,1897.22,2257.22,1897.35,2256.2,1897.46Z" transform="translate(0 -6)"/><path class="cls-13" d="M2394.73,1588.18c-3,22.88-32.64,31.33-52.41,11.46-13.35,12.94-56.86,13.9-69.23-6.29-14.49,11.53-17.66,14.86-39.06,12.81,6.76,14.42-21.68,88.31-28.19,92.13-5.93-19-18.3-21.88-22.24-21-34.79,8.11-62.67-45.39-29.68-65-29.26-30.9-23.81-71.83,18.3-82.17-11.57-46,37.16-65.33,59.83-44.94,2.66-35.47,65.11-31,65.77-2.46,19.32-35.24,75.88-8,66.75,24.09C2400.84,1495.54,2441.06,1561.32,2394.73,1588.18Z" transform="translate(0 -6)"/><path class="cls-3" d="M2208,1720.91c-35.56,14.73-56.82-53.84-22.62-57.61C2213.86,1660.16,2211.45,1699,2208,1720.91Z" transform="translate(0 -6)"/><path class="cls-29" d="M2259.21,1896a1.09,1.09,0,0,1,1.14,1,1.07,1.07,0,0,1-1,1.11c-19.74.95-45.75-13.12-67.47-32-22.66-19.66-40.72-44.6-42.11-63.12a1.09,1.09,0,0,1,2.17-.15c1.35,17.95,19.1,42.32,41.38,61.66C2214.62,1883.09,2240.06,1896.92,2259.21,1896Z" transform="translate(0 -6)"/><path class="cls-29" d="M2380.76,1811.7a1.1,1.1,0,0,1,1.34-.77,1.07,1.07,0,0,1,.76,1.32c-4.52,16.48-18.2,38.14-40.58,55.63a144.55,144.55,0,0,1-67.39,28.83,1.08,1.08,0,0,1-1.25-.89,1.07,1.07,0,0,1,.91-1.23,142.29,142.29,0,0,0,66.37-28.39C2362.92,1849,2376.34,1827.81,2380.76,1811.7Z" transform="translate(0 -6)"/><path class="cls-29" d="M1906.65,1755.37a1.08,1.08,0,1,1,.56,2.08c-.08,0-28.59,7.27-46.69,37.57a1.1,1.1,0,0,1-1.49.38,1.06,1.06,0,0,1-.39-1.46C1877.2,1762.87,1906.58,1755.4,1906.65,1755.37Z" transform="translate(0 -6)"/><path class="cls-20" d="M2263,1662.27a9.57,9.57,0,0,1,1.86,13.56,10,10,0,0,1-13.8,1.83,9.57,9.57,0,0,1-1.86-13.56A10,10,0,0,1,2263,1662.27Z" transform="translate(0 -6)"/><path class="cls-20" d="M2337.35,1664.1a9.58,9.58,0,0,0-2.55,13.45,10,10,0,0,0,13.69,2.51,9.58,9.58,0,0,0,2.55-13.45A10,10,0,0,0,2337.35,1664.1Z" transform="translate(0 -6)"/><path class="cls-12" d="M2250,1697.1c5.5,4.37,5.58,10.58.2,13.86s-14.2,2.4-19.69-2-5.59-10.58-.2-13.86S2244.51,1692.73,2250,1697.1Z" transform="translate(0 -6)"/><path class="cls-12" d="M2348.58,1699.53c-5.72,4.09-6.11,10.29-.9,13.83s14.06,3.1,19.76-1,6.12-10.29.91-13.84S2354.28,1695.43,2348.58,1699.53Z" transform="translate(0 -6)"/><path class="cls-13" d="M2268,1636.1c-.36-.17-.73-.33-1.09-.48a28.68,28.68,0,0,0-12.52-1.91,28,28,0,0,0-11.82,3.33c-1.8,1.08-8.86,6.43-7,8.52.79.24,7.78-3.07,9.82-3.66a28,28,0,0,1,9.09-1,24.69,24.69,0,0,1,8.25,1.87c.08,0,.58.25.69.3,5.72,2.92,5.15,4.68,9.16,2.12C2278.77,1642.17,2272.6,1638.61,2268,1636.1Z" transform="translate(0 -6)"/><path class="cls-13" d="M2333.11,1637.7c.37-.15.74-.29,1.12-.42a28.74,28.74,0,0,1,12.59-1.29,28.15,28.15,0,0,1,11.63,3.9c1.75,1.17,8.54,6.87,6.52,8.86-.8.19-7.62-3.45-9.62-4.15a28.34,28.34,0,0,0-9-1.42,24.59,24.59,0,0,0-8.34,1.46c-.08,0-.6.23-.7.27-5.86,2.63-5.38,4.42-9.26,1.66C2322,1643.24,2328.36,1640,2333.11,1637.7Z" transform="translate(0 -6)"/><path class="cls-14" d="M2269.78,1727q15.16.2,30.26.56t30.25.93c-.39,15.63-16.18,20.82-30.74,20.46h-.1C2284.89,1748.63,2269.38,1742.66,2269.78,1727Z" transform="translate(0 -6)"/><path class="cls-8" d="M2292.36,1758a1.06,1.06,0,0,1-.36-1.48,1.11,1.11,0,0,1,1.51-.34,12.06,12.06,0,0,0,5.82,1.58,11.42,11.42,0,0,0,5.77-1.29,1.11,1.11,0,0,1,1.49.4,1.06,1.06,0,0,1-.4,1.46,13.43,13.43,0,0,1-6.92,1.57A14.09,14.09,0,0,1,2292.36,1758Z" transform="translate(0 -6)"/><path class="cls-8" d="M2297.84,1708.07a1.08,1.08,0,0,1-1.06-1.1,1.09,1.09,0,0,1,1.12-1,59.72,59.72,0,0,0,8.92-.24c2.22-.32,3.87-.88,3.89-1.92.09-3.37-2.84-24.42-2.85-24.48a1.08,1.08,0,0,1,2.15-.28c0,.06,3,21.3,2.89,24.82-.07,2.4-2.5,3.51-5.77,4A61,61,0,0,1,2297.84,1708.07Z" transform="translate(0 -6)"/><path class="cls-8" d="M2181.87,1689.62a1.09,1.09,0,0,1-2.17-.07c.1-4.11,1-6.79,2.35-8.36a5.09,5.09,0,0,1,4-1.82,8.82,8.82,0,0,1,4.37,1.38,23.47,23.47,0,0,1,8.84,10.73l0,.09a35.65,35.65,0,0,1,2.29,7.35,3.91,3.91,0,0,1,0,1.33,1.22,1.22,0,0,1-1.64,1.08,2.38,2.38,0,0,1-1.15-.75,6.68,6.68,0,0,0-5.09-2.25,3.08,3.08,0,0,0-1.47.46,1.91,1.91,0,0,0-.77,1c-.33,1,0,2.51,1.23,4.49a1.06,1.06,0,0,1-.33,1.48,1.1,1.1,0,0,1-1.51-.33c-1.67-2.59-2-4.73-1.46-6.3A4,4,0,0,1,2191,1697a5.18,5.18,0,0,1,2.54-.83,8.54,8.54,0,0,1,5.65,1.86,41.36,41.36,0,0,0-1.92-5.68l0-.08a21.28,21.28,0,0,0-7.93-9.7,6.81,6.81,0,0,0-3.26-1.08,3,3,0,0,0-2.32,1.07C2182.66,1683.79,2182,1686,2181.87,1689.62Z" transform="translate(0 -6)"/><path class="cls-31" d="M2273.17,1737.87a1.08,1.08,0,1,1,.06-2.15l53.18,1.31a1.08,1.08,0,1,1-.07,2.15Z" transform="translate(0 -6)"/><path class="cls-29" d="M1901.75,1765.35a1.08,1.08,0,0,1,1.47,1.58c-.07,0-21.9,19.52-23.63,54.64a1.09,1.09,0,0,1-2.17-.11C1879.19,1785.46,1901.68,1765.41,1901.75,1765.35Z" transform="translate(0 -6)"/><path class="cls-29" d="M2054.68,1898.25a1.06,1.06,0,0,1,.37-1.47,1.09,1.09,0,0,1,1.49.35c20.64,33.26,28.78,52.24,31.93,61.28.45-14.36,1.24-49.14-.29-81.84a1.09,1.09,0,0,1,2.17-.09c2,41.82.13,87.1.06,88.79a1.06,1.06,0,0,1-.92,1,1.09,1.09,0,0,1-1.25-.88S2085.64,1948.13,2054.68,1898.25Z" transform="translate(0 -6)"/><path class="cls-16" d="M2130,2228.63a1.09,1.09,0,0,1-1.06,1.11,1.08,1.08,0,0,1-1.12-1,237.64,237.64,0,0,1,2.7-45.65,1.12,1.12,0,0,1,.45-.7c1.3-1,37.49-28.79,44-51.41s.41-26.11.4-26.11a1.07,1.07,0,0,1-.34-1.49,1.1,1.1,0,0,1,1.5-.32s7.53,4.38.54,28.5c-6.48,22.43-40.76,49.41-44.49,52.29A236.93,236.93,0,0,0,2130,2228.63Z" transform="translate(0 -6)"/><path class="cls-16" d="M2388.27,2235.13a1.09,1.09,0,0,1-2.17-.19,236.49,236.49,0,0,0-.33-44.89c-3.58-3.06-36.45-31.7-41.78-54.42-5.75-24.43,2-28.42,2-28.44a1.11,1.11,0,0,1,1.49.41,1.05,1.05,0,0,1-.41,1.45s-6.31,3.24-.94,26.1,39.95,52.32,41.35,53.52a1,1,0,0,1,.42.72A235.38,235.38,0,0,1,2388.27,2235.13Z" transform="translate(0 -6)"/><path class="cls-32" d="M2377.73,1523.92a1.08,1.08,0,0,1-.43-1.46,1.12,1.12,0,0,1,1.49-.42,26.14,26.14,0,0,1,4.25,2.9,33.43,33.43,0,0,1,10.67,18.1c1.57,6.93,1,14.13-2.09,19.68a18,18,0,0,1-2.2,3.15c-6.19,7.18-10.11,9.35-12.23,9.94a16.12,16.12,0,0,1-3.43,17.69c-8.49,8.83-21.65,4.71-21.69,4.7a1.08,1.08,0,0,1-.73-1.34,1.1,1.1,0,0,1,1.36-.72s11.93,3.73,19.48-4.12,2.46-16.56,2.45-16.59a1,1,0,0,1-.05-.9,1.1,1.1,0,0,1,1.41-.61s2.61,1.2,11.77-9.44a16.67,16.67,0,0,0,1.95-2.8c2.85-5.07,3.34-11.72,1.88-18.17a31.29,31.29,0,0,0-10-16.94A23,23,0,0,0,2377.73,1523.92Z" transform="translate(0 -6)"/><path class="cls-32" d="M2250.6,1498.44a1.09,1.09,0,0,1-1.5.33,1.07,1.07,0,0,1-.34-1.48,28.38,28.38,0,0,1,5.37-6.08,34.65,34.65,0,0,1,17-7.76c6.22-1,12.55-.09,17.69,3.12a20.46,20.46,0,0,1,4.55,3.85c5.94,6.72,8.76,10.09,10.09,11.77a24.82,24.82,0,0,1,25.91-10.73c18.71,3.48,19.07,23.38,19.08,23.43a1.08,1.08,0,0,1-1.06,1.1,1.07,1.07,0,0,1-1.12-1s-.33-18.22-17.3-21.38a22.75,22.75,0,0,0-24.38,10.92,1.13,1.13,0,0,1-.81.62,1.09,1.09,0,0,1-1.26-.88s.09-.08-10.79-12.41a18.47,18.47,0,0,0-4.08-3.45c-4.65-2.91-10.45-3.68-16.19-2.8a32.39,32.39,0,0,0-15.92,7.27A25.72,25.72,0,0,0,2250.6,1498.44Z" transform="translate(0 -6)"/></svg>