<svg id="Layer_1" data-name="Layer 1" xmlns="http://www.w3.org/2000/svg" viewBox="0 0 466.01 553.45"><defs><style>.cls-1{fill:#f2f2f2;}.cls-2{fill:#ccc;}.cls-3{fill:#3f3d56;}.cls-4{fill:#2f2e41;}.cls-5{fill:#ec77e4;}.cls-6{fill:#e6e6e6;}.cls-7{fill:#a0616a;}.cls-8{opacity:0.2;isolation:isolate;}.cls-9{font-size:72px;fill:none;stroke:#2a3386;stroke-miterlimit:10;stroke-width:6px;font-family:Dosis-Regular, Dosis;}.cls-10{letter-spacing:-0.04em;}</style></defs><path class="cls-1" d="M520.85,255.62a226.49,226.49,0,0,1-54.9,148c-1.29,1.51-2.6,3-3.94,4.47a233.5,233.5,0,0,1-54.42,44.45q-7,4.14-14.28,7.79l-1.49.73-1.78.86a232.19,232.19,0,0,1-38.31,14.47c-1.37.38-2.74.75-4.12,1.11A236,236,0,0,1,294.53,485l-2.74.05-.93,0h-3a236.27,236.27,0,0,1-56.07-6.69q-2.76-.66-5.49-1.4a232,232,0,0,1-28.19-9.56q-7.26-3-14.26-6.42c-1.05-.52-2.11-1.05-3.15-1.59-.44-.21-.88-.44-1.31-.66a233.81,233.81,0,0,1-65.83-50.86c-1.29-1.42-2.56-2.87-3.81-4.32-83-96.88-70.48-241.65,27.89-323.36q5.9-4.89,12.09-9.38,2-1.45,4-2.85l.8-.54A233,233,0,0,1,232.8,32.62c1.6-.39,3.2-.75,4.81-1.1a238.77,238.77,0,0,1,92.46-1.59c1.6.29,3.21.59,4.8.92a233.54,233.54,0,0,1,78.29,31.31c.53.33,1.06.66,1.59,1,1.08.68,2.15,1.38,3.2,2.09C482.32,107.87,520.9,179.25,520.85,255.62Z" transform="translate(-54.84 -26.17)"/><path class="cls-2" d="M229,374.33l-74.47,6.51-.8.07V68l.8-.54a233.39,233.39,0,0,1,50-26.16L208.32,93l.35,4.73L212.43,149l1.16,15.77L228.85,372.5Z" transform="translate(-54.84 -26.17)"/><path class="cls-2" d="M413.16,62.16c.53.33,1.06.66,1.59,1V380.91l-1.59-.14-73.67-6.44.14-1.83,15.26-207.77L356.05,149l3.77-51.26.34-4.73,4-54.2A233.08,233.08,0,0,1,413.16,62.16Z" transform="translate(-54.84 -26.17)"/><path class="cls-2" d="M413.16,62.16V385.24c0,6.2-4.34,11.25-9.68,11.25H164.19c-4.41,0-8.16-3.47-9.3-8.19a12.62,12.62,0,0,1-.37-3.06V67.44l-.8.54q-2,1.39-4,2.85V385.24a18.1,18.1,0,0,0,5,12.71,14,14,0,0,0,6.28,3.7,12.46,12.46,0,0,0,3.21.42H403.48a12.56,12.56,0,0,0,3.23-.42c6.43-1.71,11.24-8.41,11.24-16.41v-320c-1.05-.71-2.12-1.41-3.2-2.09C414.22,62.82,413.69,62.49,413.16,62.16Z" transform="translate(-54.84 -26.17)"/><rect class="cls-2" x="97.28" y="66.8" width="263.44" height="4.73"/><path class="cls-2" d="M232.8,32.62c1.6-.39,3.2-.75,4.81-1.1V160H232.8Z" transform="translate(-54.84 -26.17)"/><path class="cls-2" d="M330.07,29.93c1.6.29,3.21.59,4.8.92V160h-4.8Z" transform="translate(-54.84 -26.17)"/><path class="cls-2" d="M445.58,372.5H130.1a21.3,21.3,0,1,0,0,42.59H445.58a21.74,21.74,0,0,0,16.23-7.24,21.34,21.34,0,0,0,2.43-3.31,20.17,20.17,0,0,0,1.41-2.83,21.18,21.18,0,0,0-12-27.68,22,22,0,0,0-8.07-1.53Z" transform="translate(-54.84 -26.17)"/><rect class="cls-2" x="98.88" y="122.78" width="261.84" height="15.77"/><path class="cls-2" d="M282.24,144.23H287a8.74,8.74,0,0,1,8.81,8.67H273.43A8.74,8.74,0,0,1,282.24,144.23Z" transform="translate(-54.84 -26.17)"/><path class="cls-3" d="M466,403.57a230.86,230.86,0,0,1-22.67,23H132.41a232,232,0,0,1-22.67-23Z" transform="translate(-54.84 -26.17)"/><path class="cls-4" d="M313.87,324H261.53a2.62,2.62,0,0,0-.83.13,2.73,2.73,0,0,0-2,2.62v81.42h57.93V326.71a2.77,2.77,0,0,0-2.8-2.75Zm-19.81,40.17a5.9,5.9,0,0,1-1.26,3.65,6.22,6.22,0,0,1-8.65,1.19,6.09,6.09,0,0,1-2.46-4.84v-9.45a6.19,6.19,0,0,1,12.37,0Z" transform="translate(-54.84 -26.17)"/><path class="cls-3" d="M258.56,405.53v7.85a1.55,1.55,0,0,0,1.56,1.54h55.17a1.56,1.56,0,0,0,1.56-1.54v-7.85Z" transform="translate(-54.84 -26.17)"/><path class="cls-3" d="M400.54,196.89H176.81a7.19,7.19,0,0,0-7.25,7.14V352.7a7.2,7.2,0,0,0,7.25,7.14H400.54a7.21,7.21,0,0,0,7.26-7.14V204A7.21,7.21,0,0,0,400.54,196.89Z" transform="translate(-54.84 -26.17)"/><path class="cls-5" d="M398.67,202.05h-220a3.85,3.85,0,0,0-3.87,3.83v145a3.84,3.84,0,0,0,3.87,3.81h220a3.86,3.86,0,0,0,3.88-3.81v-145A3.85,3.85,0,0,0,398.67,202.05Z" transform="translate(-54.84 -26.17)"/><path class="cls-4" d="M358.18,414.79l-2-9.5a2.37,2.37,0,0,0-1.5-1.72,2.27,2.27,0,0,0-.86-.16H227a2.27,2.27,0,0,0-.86.16,2.37,2.37,0,0,0-1.5,1.72l-2,9.5a2.37,2.37,0,0,0,1.86,2.81,2.83,2.83,0,0,0,.5,0H355.82a2.36,2.36,0,0,0,1.87-.88A2.33,2.33,0,0,0,358.18,414.79Z" transform="translate(-54.84 -26.17)"/><path class="cls-3" d="M228.29,405.12h3.24a.39.39,0,0,1,.4.39v1.6a.39.39,0,0,1-.4.39h-3.24a.38.38,0,0,1-.39-.39v-1.6A.38.38,0,0,1,228.29,405.12Z" transform="translate(-54.84 -26.17)"/><path class="cls-3" d="M236.35,405.12h3.25a.39.39,0,0,1,.39.39v1.6a.39.39,0,0,1-.39.39h-3.25a.39.39,0,0,1-.39-.39v-1.6A.39.39,0,0,1,236.35,405.12Z" transform="translate(-54.84 -26.17)"/><path class="cls-3" d="M244.41,405.12h3.25a.38.38,0,0,1,.39.39v1.6a.38.38,0,0,1-.39.39h-3.25a.39.39,0,0,1-.39-.39v-1.6A.39.39,0,0,1,244.41,405.12Z" transform="translate(-54.84 -26.17)"/><path class="cls-3" d="M252.48,405.12h3.24a.38.38,0,0,1,.39.39v1.6a.38.38,0,0,1-.39.39h-3.24a.39.39,0,0,1-.4-.39v-1.6A.39.39,0,0,1,252.48,405.12Z" transform="translate(-54.84 -26.17)"/><path class="cls-3" d="M260.54,405.12h3.24a.39.39,0,0,1,.4.39v1.6a.39.39,0,0,1-.4.39h-3.24a.38.38,0,0,1-.39-.39v-1.6A.38.38,0,0,1,260.54,405.12Z" transform="translate(-54.84 -26.17)"/><path class="cls-3" d="M268.6,405.12h3.25a.39.39,0,0,1,.39.39v1.6a.39.39,0,0,1-.39.39H268.6a.38.38,0,0,1-.39-.39v-1.6A.38.38,0,0,1,268.6,405.12Z" transform="translate(-54.84 -26.17)"/><path class="cls-3" d="M276.66,405.12h3.25a.38.38,0,0,1,.39.39v1.6a.38.38,0,0,1-.39.39h-3.25a.39.39,0,0,1-.39-.39v-1.6A.39.39,0,0,1,276.66,405.12Z" transform="translate(-54.84 -26.17)"/><path class="cls-3" d="M284.73,405.12H288a.38.38,0,0,1,.39.39v1.6a.38.38,0,0,1-.39.39h-3.24a.39.39,0,0,1-.4-.39v-1.6A.39.39,0,0,1,284.73,405.12Z" transform="translate(-54.84 -26.17)"/><path class="cls-3" d="M292.79,405.12H296a.39.39,0,0,1,.4.39v1.6a.39.39,0,0,1-.4.39h-3.24a.39.39,0,0,1-.4-.39v-1.6A.39.39,0,0,1,292.79,405.12Z" transform="translate(-54.84 -26.17)"/><path class="cls-3" d="M300.85,405.12h3.24a.39.39,0,0,1,.4.39v1.6a.39.39,0,0,1-.4.39h-3.24a.38.38,0,0,1-.39-.39v-1.6A.38.38,0,0,1,300.85,405.12Z" transform="translate(-54.84 -26.17)"/><path class="cls-3" d="M308.91,405.12h3.25a.39.39,0,0,1,.39.39v1.6a.39.39,0,0,1-.39.39h-3.25a.39.39,0,0,1-.39-.39v-1.6A.39.39,0,0,1,308.91,405.12Z" transform="translate(-54.84 -26.17)"/><path class="cls-3" d="M317,405.12h3.24a.38.38,0,0,1,.39.39v1.6a.38.38,0,0,1-.39.39H317a.39.39,0,0,1-.4-.39v-1.6A.39.39,0,0,1,317,405.12Z" transform="translate(-54.84 -26.17)"/><path class="cls-3" d="M325,405.12h3.24a.39.39,0,0,1,.4.39v1.6a.39.39,0,0,1-.4.39H325a.39.39,0,0,1-.4-.39v-1.6A.39.39,0,0,1,325,405.12Z" transform="translate(-54.84 -26.17)"/><path class="cls-3" d="M333.1,405.12h3.24a.39.39,0,0,1,.4.39v1.6a.39.39,0,0,1-.4.39H333.1a.38.38,0,0,1-.39-.39v-1.6A.38.38,0,0,1,333.1,405.12Z" transform="translate(-54.84 -26.17)"/><path class="cls-3" d="M341.16,405.12h3.25a.39.39,0,0,1,.39.39v1.6a.39.39,0,0,1-.39.39h-3.25a.38.38,0,0,1-.39-.39v-1.6A.38.38,0,0,1,341.16,405.12Z" transform="translate(-54.84 -26.17)"/><path class="cls-3" d="M349.22,405.12h3.25a.38.38,0,0,1,.39.39v1.6a.38.38,0,0,1-.39.39h-3.25a.39.39,0,0,1-.39-.39v-1.6A.39.39,0,0,1,349.22,405.12Z" transform="translate(-54.84 -26.17)"/><path class="cls-3" d="M228.19,409.09h3.25a.38.38,0,0,1,.39.39v1.6a.38.38,0,0,1-.39.39h-3.25a.39.39,0,0,1-.39-.39v-1.6A.39.39,0,0,1,228.19,409.09Z" transform="translate(-54.84 -26.17)"/><path class="cls-3" d="M236.26,409.09h3.24a.38.38,0,0,1,.39.39v1.6a.38.38,0,0,1-.39.39h-3.24a.39.39,0,0,1-.4-.39v-1.6A.39.39,0,0,1,236.26,409.09Z" transform="translate(-54.84 -26.17)"/><path class="cls-3" d="M244.32,409.09h3.24a.39.39,0,0,1,.4.39v1.6a.39.39,0,0,1-.4.39h-3.24a.38.38,0,0,1-.39-.39v-1.6A.38.38,0,0,1,244.32,409.09Z" transform="translate(-54.84 -26.17)"/><path class="cls-3" d="M252.38,409.09h3.25a.39.39,0,0,1,.39.39v1.6a.39.39,0,0,1-.39.39h-3.25a.38.38,0,0,1-.39-.39v-1.6A.38.38,0,0,1,252.38,409.09Z" transform="translate(-54.84 -26.17)"/><path class="cls-3" d="M260.44,409.09h3.25a.38.38,0,0,1,.39.39v1.6a.38.38,0,0,1-.39.39h-3.25a.39.39,0,0,1-.39-.39v-1.6A.39.39,0,0,1,260.44,409.09Z" transform="translate(-54.84 -26.17)"/><path class="cls-3" d="M268.51,409.09h3.24a.38.38,0,0,1,.39.39v1.6a.38.38,0,0,1-.39.39h-3.24a.39.39,0,0,1-.4-.39v-1.6A.39.39,0,0,1,268.51,409.09Z" transform="translate(-54.84 -26.17)"/><path class="cls-3" d="M276.57,409.09h3.24a.39.39,0,0,1,.4.39v1.6a.39.39,0,0,1-.4.39h-3.24a.38.38,0,0,1-.39-.39v-1.6A.38.38,0,0,1,276.57,409.09Z" transform="translate(-54.84 -26.17)"/><path class="cls-3" d="M284.63,409.09h3.24a.39.39,0,0,1,.4.39v1.6a.39.39,0,0,1-.4.39h-3.24a.38.38,0,0,1-.39-.39v-1.6A.38.38,0,0,1,284.63,409.09Z" transform="translate(-54.84 -26.17)"/><path class="cls-3" d="M292.69,409.09h3.25a.39.39,0,0,1,.39.39v1.6a.39.39,0,0,1-.39.39h-3.25a.39.39,0,0,1-.39-.39v-1.6A.39.39,0,0,1,292.69,409.09Z" transform="translate(-54.84 -26.17)"/><path class="cls-3" d="M300.76,409.09H304a.38.38,0,0,1,.39.39v1.6a.38.38,0,0,1-.39.39h-3.24a.39.39,0,0,1-.4-.39v-1.6A.39.39,0,0,1,300.76,409.09Z" transform="translate(-54.84 -26.17)"/><path class="cls-3" d="M308.82,409.09h3.24a.39.39,0,0,1,.4.39v1.6a.39.39,0,0,1-.4.39h-3.24a.39.39,0,0,1-.4-.39v-1.6A.39.39,0,0,1,308.82,409.09Z" transform="translate(-54.84 -26.17)"/><path class="cls-3" d="M316.88,409.09h3.24a.39.39,0,0,1,.4.39v1.6a.39.39,0,0,1-.4.39h-3.24a.38.38,0,0,1-.39-.39v-1.6A.38.38,0,0,1,316.88,409.09Z" transform="translate(-54.84 -26.17)"/><path class="cls-3" d="M324.94,409.09h3.25a.39.39,0,0,1,.39.39v1.6a.39.39,0,0,1-.39.39h-3.25a.39.39,0,0,1-.39-.39v-1.6A.39.39,0,0,1,324.94,409.09Z" transform="translate(-54.84 -26.17)"/><path class="cls-3" d="M333,409.09h3.25a.38.38,0,0,1,.39.39v1.6a.38.38,0,0,1-.39.39H333a.39.39,0,0,1-.39-.39v-1.6A.39.39,0,0,1,333,409.09Z" transform="translate(-54.84 -26.17)"/><path class="cls-3" d="M341.07,409.09h3.24a.38.38,0,0,1,.39.39v1.6a.38.38,0,0,1-.39.39h-3.24a.39.39,0,0,1-.4-.39v-1.6A.39.39,0,0,1,341.07,409.09Z" transform="translate(-54.84 -26.17)"/><path class="cls-3" d="M349.13,409.09h3.24a.39.39,0,0,1,.4.39v1.6a.39.39,0,0,1-.4.39h-3.24a.38.38,0,0,1-.39-.39v-1.6A.38.38,0,0,1,349.13,409.09Z" transform="translate(-54.84 -26.17)"/><path class="cls-3" d="M266.89,413.85h31.47a.4.4,0,0,1,.39.39v1.61a.4.4,0,0,1-.39.39H266.89a.4.4,0,0,1-.39-.39v-1.61A.4.4,0,0,1,266.89,413.85Z" transform="translate(-54.84 -26.17)"/><path class="cls-3" d="M387.61,222H181.77a.81.81,0,1,1,0-1.61H387.61a.81.81,0,1,1,0,1.61Z" transform="translate(-54.84 -26.17)"/><ellipse class="cls-3" cx="140.94" cy="185.29" rx="4.8" ry="4.83"/><ellipse class="cls-3" cx="157.51" cy="185.29" rx="4.8" ry="4.83"/><ellipse class="cls-3" cx="174.08" cy="185.29" rx="4.8" ry="4.83"/><path class="cls-3" d="M377.64,207.83H365.86a.88.88,0,0,0-.87.9.89.89,0,0,0,.87.85h11.78a.88.88,0,0,0,0-1.75Z" transform="translate(-54.84 -26.17)"/><path class="cls-3" d="M377.64,211.12H365.86a.88.88,0,0,0,0,1.76h11.78a.88.88,0,1,0,0-1.76Z" transform="translate(-54.84 -26.17)"/><path class="cls-3" d="M377.64,214.42H365.86a.88.88,0,0,0-.87.9.89.89,0,0,0,.87.85h11.78a.88.88,0,0,0,0-1.75Z" transform="translate(-54.84 -26.17)"/><path class="cls-6" d="M195.29,240.76h4.22a2.3,2.3,0,0,1,2.33,2.28h0a2.3,2.3,0,0,1-2.33,2.29h-4.22A2.3,2.3,0,0,1,193,243h0A2.3,2.3,0,0,1,195.29,240.76Z" transform="translate(-54.84 -26.17)"/><path class="cls-6" d="M243.66,240.76h4.23a2.3,2.3,0,0,1,2.32,2.28h0a2.3,2.3,0,0,1-2.32,2.29h-4.23a2.3,2.3,0,0,1-2.32-2.29h0A2.3,2.3,0,0,1,243.66,240.76Z" transform="translate(-54.84 -26.17)"/><path class="cls-6" d="M257.37,240.76h4.22a2.3,2.3,0,0,1,2.33,2.28h0a2.3,2.3,0,0,1-2.33,2.29h-4.22A2.3,2.3,0,0,1,255,243h0A2.3,2.3,0,0,1,257.37,240.76Z" transform="translate(-54.84 -26.17)"/><path class="cls-6" d="M208.44,240.37h26.29a2.31,2.31,0,0,1,2.32,2.29h0a2.31,2.31,0,0,1-2.32,2.29H208.44a2.31,2.31,0,0,1-2.32-2.29h0A2.31,2.31,0,0,1,208.44,240.37Z" transform="translate(-54.84 -26.17)"/><path class="cls-6" d="M272.94,240.37h26.29a2.31,2.31,0,0,1,2.32,2.29h0a2.31,2.31,0,0,1-2.32,2.29H272.94a2.31,2.31,0,0,1-2.32-2.29h0A2.31,2.31,0,0,1,272.94,240.37Z" transform="translate(-54.84 -26.17)"/><path class="cls-6" d="M208.19,251.08h4.22a2.3,2.3,0,0,1,2.33,2.28h0a2.3,2.3,0,0,1-2.33,2.29h-4.22a2.3,2.3,0,0,1-2.33-2.29h0A2.3,2.3,0,0,1,208.19,251.08Z" transform="translate(-54.84 -26.17)"/><path class="cls-6" d="M256.56,251.08h4.23a2.3,2.3,0,0,1,2.32,2.28h0a2.3,2.3,0,0,1-2.32,2.29h-4.23a2.3,2.3,0,0,1-2.32-2.29h0A2.3,2.3,0,0,1,256.56,251.08Z" transform="translate(-54.84 -26.17)"/><path class="cls-6" d="M270.26,251.08h4.23a2.3,2.3,0,0,1,2.33,2.28h0a2.3,2.3,0,0,1-2.33,2.29h-4.23a2.3,2.3,0,0,1-2.32-2.29h0A2.3,2.3,0,0,1,270.26,251.08Z" transform="translate(-54.84 -26.17)"/><path class="cls-6" d="M221.34,250.7h26.29A2.3,2.3,0,0,1,250,253h0a2.3,2.3,0,0,1-2.32,2.29H221.34A2.3,2.3,0,0,1,219,253h0A2.3,2.3,0,0,1,221.34,250.7Z" transform="translate(-54.84 -26.17)"/><path class="cls-6" d="M285.84,250.7h26.29a2.3,2.3,0,0,1,2.32,2.28h0a2.3,2.3,0,0,1-2.32,2.29H285.84a2.3,2.3,0,0,1-2.32-2.29h0A2.3,2.3,0,0,1,285.84,250.7Z" transform="translate(-54.84 -26.17)"/><path class="cls-6" d="M221.08,261.4h4.23a2.3,2.3,0,0,1,2.33,2.28h0a2.3,2.3,0,0,1-2.33,2.29h-4.23a2.3,2.3,0,0,1-2.32-2.29h0A2.3,2.3,0,0,1,221.08,261.4Z" transform="translate(-54.84 -26.17)"/><path class="cls-6" d="M269.46,261.4h4.23a2.3,2.3,0,0,1,2.32,2.28h0a2.3,2.3,0,0,1-2.32,2.29h-4.23a2.3,2.3,0,0,1-2.32-2.29h0A2.3,2.3,0,0,1,269.46,261.4Z" transform="translate(-54.84 -26.17)"/><path class="cls-6" d="M283.16,261.4h4.23a2.3,2.3,0,0,1,2.33,2.28h0a2.3,2.3,0,0,1-2.33,2.29h-4.23a2.3,2.3,0,0,1-2.32-2.29h0A2.3,2.3,0,0,1,283.16,261.4Z" transform="translate(-54.84 -26.17)"/><path class="cls-6" d="M234.24,261h26.29a2.3,2.3,0,0,1,2.32,2.28h0a2.3,2.3,0,0,1-2.32,2.29H234.24a2.3,2.3,0,0,1-2.32-2.29h0A2.3,2.3,0,0,1,234.24,261Z" transform="translate(-54.84 -26.17)"/><path class="cls-6" d="M298.74,261H325a2.3,2.3,0,0,1,2.32,2.28h0a2.3,2.3,0,0,1-2.32,2.29H298.74a2.3,2.3,0,0,1-2.32-2.29h0A2.3,2.3,0,0,1,298.74,261Z" transform="translate(-54.84 -26.17)"/><path class="cls-6" d="M234,271.72h4.23a2.3,2.3,0,0,1,2.33,2.29h0a2.3,2.3,0,0,1-2.33,2.28H234a2.3,2.3,0,0,1-2.32-2.28h0A2.3,2.3,0,0,1,234,271.72Z" transform="translate(-54.84 -26.17)"/><path class="cls-6" d="M282.36,271.72h4.23a2.3,2.3,0,0,1,2.32,2.29h0a2.3,2.3,0,0,1-2.32,2.28h-4.23A2.3,2.3,0,0,1,280,274h0A2.3,2.3,0,0,1,282.36,271.72Z" transform="translate(-54.84 -26.17)"/><path class="cls-6" d="M296.06,271.72h4.23a2.3,2.3,0,0,1,2.33,2.29h0a2.3,2.3,0,0,1-2.33,2.28h-4.23a2.3,2.3,0,0,1-2.32-2.28h0A2.3,2.3,0,0,1,296.06,271.72Z" transform="translate(-54.84 -26.17)"/><path class="cls-6" d="M247.14,271.34h26.29a2.3,2.3,0,0,1,2.32,2.28h0a2.3,2.3,0,0,1-2.32,2.29H247.14a2.3,2.3,0,0,1-2.32-2.29h0A2.3,2.3,0,0,1,247.14,271.34Z" transform="translate(-54.84 -26.17)"/><path class="cls-6" d="M243.66,312.76h4.23a2.31,2.31,0,0,1,2.32,2.29h0a2.3,2.3,0,0,1-2.32,2.28h-4.23a2.3,2.3,0,0,1-2.32-2.28h0A2.31,2.31,0,0,1,243.66,312.76Z" transform="translate(-54.84 -26.17)"/><path class="cls-6" d="M257.37,312.76h4.22a2.31,2.31,0,0,1,2.33,2.29h0a2.3,2.3,0,0,1-2.33,2.28h-4.22a2.3,2.3,0,0,1-2.33-2.28h0A2.31,2.31,0,0,1,257.37,312.76Z" transform="translate(-54.84 -26.17)"/><path class="cls-6" d="M272.94,313.14h26.29a2.31,2.31,0,0,1,2.32,2.29h0a2.31,2.31,0,0,1-2.32,2.29H272.94a2.31,2.31,0,0,1-2.32-2.29h0A2.31,2.31,0,0,1,272.94,313.14Z" transform="translate(-54.84 -26.17)"/><path class="cls-6" d="M195.29,312.76h4.22a2.31,2.31,0,0,1,2.33,2.29h0a2.3,2.3,0,0,1-2.33,2.28h-4.22a2.3,2.3,0,0,1-2.33-2.28h0A2.31,2.31,0,0,1,195.29,312.76Z" transform="translate(-54.84 -26.17)"/><path class="cls-6" d="M208.44,313.14h26.29a2.31,2.31,0,0,1,2.32,2.29h0a2.31,2.31,0,0,1-2.32,2.29H208.44a2.31,2.31,0,0,1-2.32-2.29h0A2.31,2.31,0,0,1,208.44,313.14Z" transform="translate(-54.84 -26.17)"/><path class="cls-6" d="M208.19,302.44h4.22a2.3,2.3,0,0,1,2.33,2.29h0a2.3,2.3,0,0,1-2.33,2.28h-4.22a2.3,2.3,0,0,1-2.33-2.28h0A2.3,2.3,0,0,1,208.19,302.44Z" transform="translate(-54.84 -26.17)"/><path class="cls-6" d="M256.56,302.44h4.23a2.3,2.3,0,0,1,2.32,2.29h0a2.3,2.3,0,0,1-2.32,2.28h-4.23a2.3,2.3,0,0,1-2.32-2.28h0A2.3,2.3,0,0,1,256.56,302.44Z" transform="translate(-54.84 -26.17)"/><path class="cls-6" d="M270.26,302.44h4.23a2.3,2.3,0,0,1,2.33,2.29h0a2.3,2.3,0,0,1-2.33,2.28h-4.23a2.3,2.3,0,0,1-2.32-2.28h0A2.3,2.3,0,0,1,270.26,302.44Z" transform="translate(-54.84 -26.17)"/><path class="cls-6" d="M221.34,302.82h26.29a2.31,2.31,0,0,1,2.32,2.29h0a2.3,2.3,0,0,1-2.32,2.28H221.34a2.3,2.3,0,0,1-2.32-2.28h0A2.31,2.31,0,0,1,221.34,302.82Z" transform="translate(-54.84 -26.17)"/><path class="cls-6" d="M221.08,292.12h4.23a2.3,2.3,0,0,1,2.33,2.29h0a2.3,2.3,0,0,1-2.33,2.28h-4.23a2.3,2.3,0,0,1-2.32-2.28h0A2.3,2.3,0,0,1,221.08,292.12Z" transform="translate(-54.84 -26.17)"/><path class="cls-6" d="M269.46,292.12h4.23a2.3,2.3,0,0,1,2.32,2.29h0a2.3,2.3,0,0,1-2.32,2.28h-4.23a2.3,2.3,0,0,1-2.32-2.28h0A2.3,2.3,0,0,1,269.46,292.12Z" transform="translate(-54.84 -26.17)"/><path class="cls-6" d="M283.16,292.12h4.23a2.3,2.3,0,0,1,2.33,2.29h0a2.3,2.3,0,0,1-2.33,2.28h-4.23a2.3,2.3,0,0,1-2.32-2.28h0A2.3,2.3,0,0,1,283.16,292.12Z" transform="translate(-54.84 -26.17)"/><path class="cls-6" d="M234.24,292.5h26.29a2.3,2.3,0,0,1,2.32,2.29h0a2.3,2.3,0,0,1-2.32,2.28H234.24a2.3,2.3,0,0,1-2.32-2.28h0A2.3,2.3,0,0,1,234.24,292.5Z" transform="translate(-54.84 -26.17)"/><path class="cls-6" d="M234,281.8h4.23a2.3,2.3,0,0,1,2.33,2.28h0a2.3,2.3,0,0,1-2.33,2.29H234a2.3,2.3,0,0,1-2.32-2.29h0A2.3,2.3,0,0,1,234,281.8Z" transform="translate(-54.84 -26.17)"/><path class="cls-6" d="M282.36,281.8h4.23a2.3,2.3,0,0,1,2.32,2.28h0a2.3,2.3,0,0,1-2.32,2.29h-4.23a2.3,2.3,0,0,1-2.32-2.29h0A2.3,2.3,0,0,1,282.36,281.8Z" transform="translate(-54.84 -26.17)"/><path class="cls-6" d="M296.06,281.8h4.23a2.3,2.3,0,0,1,2.33,2.28h0a2.3,2.3,0,0,1-2.33,2.29h-4.23a2.3,2.3,0,0,1-2.32-2.29h0A2.3,2.3,0,0,1,296.06,281.8Z" transform="translate(-54.84 -26.17)"/><path class="cls-6" d="M247.14,282.18h26.29a2.3,2.3,0,0,1,2.32,2.29h0a2.3,2.3,0,0,1-2.32,2.28H247.14a2.3,2.3,0,0,1-2.32-2.28h0A2.3,2.3,0,0,1,247.14,282.18Z" transform="translate(-54.84 -26.17)"/><path class="cls-3" d="M390.08,461.87l-1.48.73c-12.74,6.27-22.93,9.83-36.87,13.74-1.18-12.94-2.31-35.69-3.42-49.79-.29-3.66-.58-6.73-.86-8.9a11.78,11.78,0,0,0-.71-3.37l.05,3.37.12,8.9.7,50.9A236,236,0,0,1,294.53,485l-2.74.05-.93,0h-3a236.27,236.27,0,0,1-56.07-6.69c.4-12.81.79-35.3,1.17-51.83.08-3.23.15-6.24.23-8.9.16-5.68.32-9.78.47-11.15a3,3,0,0,0-.31.77,75.74,75.74,0,0,0-1.53,10.38c-.28,2.66-.56,5.67-.84,8.9-1.5,17.18-3.07,40.52-4.68,50.43a232,232,0,0,1-28.19-9.56q-7.26-3-14.26-6.42c.89-5.72,1.82-12.12,2.77-18.77.74-5.15,1.5-10.45,2.29-15.68,1.21-8.08,2.45-16,3.71-23,1.83-10.2,3.72-18.39,5.59-22.15,1.77-3.58,3.55-7.1,5.27-10.48.59-1.18,1.19-2.35,1.77-3.48l.41-.8c1.23-2.39,2.43-4.67,3.56-6.82,1-1.83,1.91-3.56,2.79-5.16,2.12-3.87,3.93-7,5.27-8.91a44.49,44.49,0,0,1,23.6-17.64l.25-.06.17.07,16.48-5,2.41-.73,1.62-.5,5.71-4.28,3.11-2.32,2.91-2.19,5.69-4.26L314.46,311l6.86,16.27,15.37,5.53.26-.12.24-.1.24.07A44.53,44.53,0,0,1,361,350.3c.75,1.12,1.67,2.6,2.71,4.38.89,1.52,1.86,3.25,2.9,5.16,1.5,2.73,3.12,5.8,4.85,9.13.38.73.77,1.47,1.15,2.23.72,1.4,1.45,2.82,2.19,4.28,1.71,3.37,3.49,6.9,5.26,10.48,1.54,3.1,3.1,9.49,4.63,17.61,1.27,6.75,2.52,14.7,3.74,23,1.6,10.74-.1,23.59,1.34,33.47Z" transform="translate(-54.84 -26.17)"/><ellipse class="cls-7" cx="233.5" cy="229.36" rx="40.99" ry="40.36"/><path class="cls-4" d="M355.93,202.05a21.19,21.19,0,0,0-3.2-5.16c-6.22-7.49-17.54-10.78-29.16-1.92a12.42,12.42,0,0,0-6.73.38,10.3,10.3,0,0,0-2.84,1.54,12.68,12.68,0,0,0-4,5.16,11.84,11.84,0,0,0-.89,3.36,41,41,0,0,0-9.05-3.36,49.37,49.37,0,0,0-23.49,0,29.49,29.49,0,0,0-7.08,2.76c-3.77,2.14-5.94,4.85-6.33,7.86a23.09,23.09,0,0,0-15.32,7.74c-.47.52-.93,1.06-1.36,1.61a25.78,25.78,0,0,0-5.42,15.92v1h1a22,22,0,0,1,8.18,1.57A22.72,22.72,0,0,1,255,243.1a24.25,24.25,0,0,1,2.72,2.23,26.63,26.63,0,0,1,4.93,6.39A29.35,29.35,0,0,1,266,271.34a28,28,0,0,1-1.23,4.57,29.43,29.43,0,0,1-3,6.06,2.39,2.39,0,0,1-.13.21c-.54.85-1.06,1.72-1.54,2.59-.37.65-.7,1.32-1,2a41.38,41.38,0,0,0-2.32,5.75,42.37,42.37,0,0,0-2,10.75c-.05,1-.07,1.94,0,2.91a41.23,41.23,0,0,0,.83,7.43c.07.33.15.66.22,1l.59,2.53,1.39,6.05,1,4.16.9,3.86,1.32-1.87c.45-.64,1.59-2.59,3.11-5.35,1-1.8,2.18-4,3.44-6.31,1.77-3.29,3.7-7,5.6-10.63l2.25-4.41c1.39-2.74,2.7-5.38,3.82-7.73,1-2.17,1.91-4.09,2.56-5.63.2,1,.37,2,.5,3.06s.25,2.11.31,3.18l0,.48,0,.65v.19l.86.11a76.54,76.54,0,0,0,14.83.12h0a61.18,61.18,0,0,0,19-4.54,39.61,39.61,0,0,0,9.52-5.75,32.53,32.53,0,0,0,3.75-3.58c.29-.33.58-.66.85-1a32.23,32.23,0,0,0,4.07-6.27,33.58,33.58,0,0,0,1.89-4.57c3.09-9.24,2.92-20.76-.53-34.45a7.79,7.79,0,0,0,2.63-1c2.53-1.5,4.29-4.47,4.84-8.11l.87.23a24.25,24.25,0,0,0,8.07-6,17.65,17.65,0,0,0,1.24-1.61A18.61,18.61,0,0,0,355.93,202.05Z" transform="translate(-54.84 -26.17)"/><polygon class="cls-8" points="166.35 377.36 173.2 351.32 179.25 373.79 166.35 377.36"/><path class="cls-4" d="M403.48,386.57c-2.45,33.25.09,47.89-13.44,75.3a232.19,232.19,0,0,1-38.31,14.47c-1.37.38-2.74.75-4.12,1.11A236,236,0,0,1,294.53,485l-2.74.05-.93,0h-3a236.27,236.27,0,0,1-56.07-6.69q-2.76-.66-5.49-1.4a232,232,0,0,1-28.19-9.56q-7.26-3-14.26-6.42c-1.05-.52-2.11-1.05-3.15-1.59-5.35-9.25-8.39-20.51-8.45-34C175.94,402.06,395.31,366.47,403.48,386.57Z" transform="translate(-54.84 -26.17)"/><path class="cls-8" d="M403.48,392.26c.12-2.06.26-4.18.42-6.4-8.17-20.1-227.54,15.49-231.24,38.8,0,2.14.11,4.22.26,6.24C181.88,407.89,390.28,374.06,403.48,392.26Z" transform="translate(-54.84 -26.17)"/><path class="cls-4" d="M186.34,297.82a5.08,5.08,0,0,0-4.75-5.4,5.43,5.43,0,0,0-.7,0,5.6,5.6,0,0,0-.81.1L148,299.64a5.29,5.29,0,0,0-3.4,2.57,7.28,7.28,0,0,0-1.39.2,7.68,7.68,0,0,0-5.88,9.18,7.8,7.8,0,0,0,9.32,5.78,7.93,7.93,0,0,0,3.14-1.49L160.69,346a5.13,5.13,0,0,0,5.59,2.42l20.84-4.64a5.12,5.12,0,0,0,4-4.54ZM146.2,315.23a5.57,5.57,0,0,1-6.66-4.15,5.49,5.49,0,0,1,4.18-6.55c.1,0,.2,0,.3,0a5.15,5.15,0,0,0,.69,2.59l4,6.83A5.22,5.22,0,0,1,146.2,315.23Z" transform="translate(-54.84 -26.17)"/><path class="cls-3" d="M180.89,292.41c.31,4-6.63,8.58-15.92,10.4-8.54,1.72-16.18.52-18.34-2.62a5.1,5.1,0,0,1,1.4-.55l32.05-7.13A5.6,5.6,0,0,1,180.89,292.41Z" transform="translate(-54.84 -26.17)"/><path class="cls-7" d="M158.72,393.69l18-8.86-15-39.9-3.95-20.12a15.55,15.55,0,0,0-25.22-8.66h0a15.05,15.05,0,0,0-2,21.06l14.68,18.07Z" transform="translate(-54.84 -26.17)"/><path class="cls-3" d="M176.73,377.44l-24,11.82,18.22,56.22a24.83,24.83,0,0,0,18,16.45h0a25.15,25.15,0,0,0,27.2-11.27l48.31-81.55A24.89,24.89,0,0,0,256.24,335h0a25.74,25.74,0,0,0-35.18,7.78,26.06,26.06,0,0,0-1.34,2.36L190.23,407Z" transform="translate(-54.84 -26.17)"/><path class="cls-5" d="M169.3,326.64a.31.31,0,0,1-.13,0l-5.24-1.77a.4.4,0,0,1-.25-.51.64.64,0,0,1,.08-.14l3.9-4.18a.41.41,0,0,1,.57,0,.39.39,0,0,1,0,.56h0l-3.49,3.73,4.66,1.58a.39.39,0,0,1,.25.51A.4.4,0,0,1,169.3,326.64Z" transform="translate(-54.84 -26.17)"/><path class="cls-5" d="M176.49,325.19a.4.4,0,0,1-.41-.4.41.41,0,0,1,.13-.29l3.54-3.37L175,319.2a.39.39,0,0,1-.22-.52.4.4,0,0,1,.53-.21h0l5.33,2.16a.4.4,0,0,1,.22.52.64.64,0,0,1-.1.13l-4,3.8A.43.43,0,0,1,176.49,325.19Z" transform="translate(-54.84 -26.17)"/><path class="cls-5" d="M170.4,329.06h-.12a.4.4,0,0,1-.26-.5h0l3.72-11.91a.39.39,0,0,1,.5-.26.4.4,0,0,1,.27.49l-3.72,11.91A.4.4,0,0,1,170.4,329.06Z" transform="translate(-54.84 -26.17)"/><text class="cls-9" transform="translate(133.31 533.39)">SIS<tspan class="cls-10" x="86.83" y="0">W</tspan><tspan x="140.83" y="0">A</tspan></text></svg>