<svg id="Layer_1" data-name="Layer 1" xmlns="http://www.w3.org/2000/svg" viewBox="0 0 547.35 474.73"><defs><style>.cls-1{fill:#e6e6e6;}.cls-2{fill:#fff;}.cls-3{fill:#f2f2f2;}.cls-4{fill:#ffb8b8;}.cls-5{fill:#ffb6b6;}.cls-6{fill:#2f2e41;}.cls-7{fill:#3f3d56;}.cls-8{fill:#cacaca;}.cls-9{fill:#ec77e4;}.cls-10{fill:#d1d3d4;}.cls-11{font-size:72px;fill:none;stroke:#2a3386;stroke-miterlimit:10;stroke-width:6px;font-family:Dosis-Regular, Dosis;}</style></defs><path class="cls-1" d="M483.5,345H188.74a10.09,10.09,0,0,1-9.9-10.25V86.39a10.1,10.1,0,0,1,9.9-10.26H483.5a10.11,10.11,0,0,1,9.91,10.26V334.78A10.09,10.09,0,0,1,483.5,345Z" transform="translate(-94.99 -37.9)"/><path class="cls-2" d="M195.43,83.43a9.72,9.72,0,0,0-9.54,9.88V327.87a9.71,9.71,0,0,0,9.54,9.87H397.18c49.23-.06,89.12-41.35,89.18-92.3V93.31a9.73,9.73,0,0,0-9.54-9.88Z" transform="translate(-94.99 -37.9)"/><path class="cls-1" d="M429.75,188.92H376.3a4.28,4.28,0,0,1-4.2-4.35V157a4.28,4.28,0,0,1,4.2-4.35h53.45A4.28,4.28,0,0,1,434,157c3.31,9.74,3.78,19,0,27.53A4.28,4.28,0,0,1,429.75,188.92Z" transform="translate(-94.99 -37.9)"/><path class="cls-2" d="M423.42,186.26H378a3.63,3.63,0,0,1-3.57-3.69V159.18a3.63,3.63,0,0,1,3.57-3.7h45.41a3.63,3.63,0,0,1,3.57,3.7c3.07,8.33,3.56,16.21,0,23.39A3.63,3.63,0,0,1,423.42,186.26Z" transform="translate(-94.99 -37.9)"/><path class="cls-1" d="M421,203.34H385a4.13,4.13,0,0,1,0-8.26h36a4.13,4.13,0,0,1,0,8.26Z" transform="translate(-94.99 -37.9)"/><path class="cls-1" d="M396.76,161.79a1.6,1.6,0,0,0-1.56,1.62v17.53a1.59,1.59,0,0,0,1.56,1.61,1.55,1.55,0,0,0,.78-.21l14.94-8.82a1.64,1.64,0,0,0,.58-2.2,1.51,1.51,0,0,0-.59-.61L397.53,162A1.59,1.59,0,0,0,396.76,161.79Z" transform="translate(-94.99 -37.9)"/><path class="cls-3" d="M614.79,423.13a6.54,6.54,0,0,0-7.12-2.36l-.28.09L604.88,431c-.38-1.51-1.18-4.92-1.69-8.26l0-.28-.25.12a33.87,33.87,0,0,0-7.34,4.57,36.91,36.91,0,0,0-13.16,27.44v.32l.33-.13,7.13-2.63A20.87,20.87,0,0,0,607,445.52c2.88-3.14,4.86-7.19,6.77-11.1.56-1.14,1.13-2.32,1.72-3.45A7.2,7.2,0,0,0,614.79,423.13Z" transform="translate(-94.99 -37.9)"/><path class="cls-4" d="M432.71,164.57a5.18,5.18,0,0,0,6.05,4.24,5.24,5.24,0,0,0,.88-.26L461,194.2l2.7-9.47-21.13-23.47a5.11,5.11,0,0,0-6.89-2.62A5.42,5.42,0,0,0,432.71,164.57Z" transform="translate(-94.99 -37.9)"/><polygon class="cls-5" points="423.61 410.75 416.56 410.75 413.2 382.6 423.61 382.6 423.61 410.75"/><path class="cls-6" d="M518.41,446.27l-7.53-3.17-.22-.09-4.16,3.26a9,9,0,0,0-8.85,9.16v.29h22.74v-9.45Z" transform="translate(-94.99 -37.9)"/><polygon class="cls-5" points="473.92 410.75 466.86 410.75 463.51 382.6 473.92 382.6 473.92 410.75"/><path class="cls-6" d="M568.71,446.27l-7.53-3.17L561,443l-4.16,3.26a9,9,0,0,0-8.85,9.16v.29H570.7v-9.45Z" transform="translate(-94.99 -37.9)"/><path class="cls-6" d="M552.26,280.54s8.84,9.53,8.84,17.35-2.21,18.57,0,20.92,5,5.21,1.66,8.65-5,5.15-2.76,7.44,1.1,42.33,1.1,42.33L572.71,431H558.09l-18.55-53.79-5-44.62-16.09,42.91,1.77,56L505,431l-6.33-59.51s9.4-56.6,7.74-58.05,0-4.38,0-4.38l4.43-21.67Z" transform="translate(-94.99 -37.9)"/><path class="cls-7" d="M534.94,213s3-12.27-10.85-15.79-53.46-8-53.46-8l-20-22-6.78,10.19,22.44,28.86,53.17,11.3Z" transform="translate(-94.99 -37.9)"/><path class="cls-1" d="M447.13,176.66a10.08,10.08,0,0,0,1.44-2.76l2.87-7.3-.75,0a7.46,7.46,0,0,0-8.69,6.15,6.13,6.13,0,0,0-.11.86,5,5,0,0,0,.47,2.73,2.86,2.86,0,0,0,2.1,1.6A3.14,3.14,0,0,0,447.13,176.66Z" transform="translate(-94.99 -37.9)"/><path class="cls-1" d="M508,290.33l-1.65,12.44s3.31,3.69,5,3.23,7.74-3.14,7.74-3.14,7.19,4.06,11.06,4.52,24.32-2.3,24.87-3.69,7-6.79,7-6.79l-2.55-15.79Z" transform="translate(-94.99 -37.9)"/><path class="cls-7" d="M561.84,246.8s-1.41,12-.3,13.1-1.11,8.05-3.32,12.63,1.66,5.15,1.66,8.58,1.66,16,1.66,16-17.14,1.15-19.9-1.71-7.19-.57-13.27,5.72-19.29,1.14-22.05-1.72,2.15-13.16,3.8-15.15-1.59.31-3.25-6,1.6-5.72,4.36-8.58,0-8-2.21-13.16-.55-43.48-.55-52.64,12.16-10.29,12.16-10.29l4.81-6.27L529,182.7l6.93-.28h.19l6.7-.28,3.26,3.93,7.18,8.66,8.3,1.72c6.63,2.28,5,16.59,5,16.59Z" transform="translate(-94.99 -37.9)"/><ellipse class="cls-5" cx="440.58" cy="127.33" rx="14.21" ry="14.71"/><path class="cls-6" d="M552.05,160.28c-3.91-2.48-3.41-9-7.18-11.23a13,13,0,0,0-12.39-.54,7.33,7.33,0,0,0-8,1.88,14,14,0,0,0-3.61,8.4,32.55,32.55,0,0,0,.66,9.44l.63-3.73L533.4,162l-3,2.77a19.73,19.73,0,0,0,14.87-2.41c4.88,2.27,4,7.35-.29,14.09C546.67,179.27,556.5,163.11,552.05,160.28Z" transform="translate(-94.99 -37.9)"/><path class="cls-1" d="M546.06,186.06l-.1.07a7.3,7.3,0,0,1-3.88,1.09,6.71,6.71,0,0,1-4.93-1.6c-.73-.71-3.61.79-5.5,1.62a8.1,8.1,0,0,1-6.21.07L529,182.7l5.83-1.33h1.46l6.53.76Z" transform="translate(-94.99 -37.9)"/><path class="cls-8" d="M641.47,456.43l-197.8.23a.9.9,0,0,1,0-1.8h0l197.8-.23a.9.9,0,0,1,0,1.8Z" transform="translate(-94.99 -37.9)"/><polygon class="cls-7" points="309.64 117.29 308.18 117.29 308.18 9.53 365.44 9.53 365.44 11.04 309.64 11.04 309.64 117.29"/><path class="cls-9" d="M505,37.9H466.37a9.8,9.8,0,0,0,0,19.58H505a9.8,9.8,0,0,0,0-19.58Z" transform="translate(-94.99 -37.9)"/><ellipse class="cls-9" cx="308.07" cy="118.15" rx="8.7" ry="9"/><path class="cls-3" d="M298.27,189.86l38.15-9.13,10.95-2.62c1.37-.33.8-2.52-.57-2.19l-38.15,9.14-10.95,2.62c-1.37.33-.8,2.51.57,2.18Z" transform="translate(-94.99 -37.9)"/><path class="cls-3" d="M337.66,166.07l20.42,9.72a6.76,6.76,0,0,1,1.94,1.09c.56.57.15,1.12-.31,1.61a48,48,0,0,1-4.35,3.72l-8.7,7.32c-1.09.92.45,2.52,1.53,1.61l7.58-6.38,3.79-3.18c1.07-.91,2.38-1.83,2.81-3.27.91-3-2.67-4.22-4.66-5.17l-8.89-4.23-10.05-4.78c-1.26-.61-2.38,1.33-1.11,1.94Z" transform="translate(-94.99 -37.9)"/><path class="cls-1" d="M619.47,240.08c-3.64-2.55-8.06-3.5-12.38-3.82a127.16,127.16,0,0,0-14.74,0q-7.65.32-15.27,1.14t-15.15,2.19a107.18,107.18,0,0,0-13.34,3,35.25,35.25,0,0,0-11.54,5.77,21.1,21.1,0,0,0-6.78,9.28,17.87,17.87,0,0,0-.66,10.89,13.27,13.27,0,0,0,2.48,4.77,17.38,17.38,0,0,0,4.63,3.79c3.6,2.13,7.69,3.41,11,6.14a16.17,16.17,0,0,1,2.34,2.41,4.19,4.19,0,0,0,1.88,1.53,3.73,3.73,0,0,0,4.12-1.1,14.42,14.42,0,0,0,1.63-3l1.72-3.43a5.31,5.31,0,0,1,.43-.86c.13-.16-.1,0-.06,0l.11,0a2.39,2.39,0,0,1,.44-.18q2.38-.94,4.8-1.83c5.93-2.18,11.93-4.2,18-5.83a86.21,86.21,0,0,1,9.54-2.07c4.16-.61,8.38-.54,12.56-1,4.5-.45,9.14-1.39,13-4a17.3,17.3,0,0,0,7-8.66,12.47,12.47,0,0,0,.58-5.36A14.44,14.44,0,0,0,619.47,240.08Z" transform="translate(-94.99 -37.9)"/><path class="cls-2" d="M612,242.38c-3.29-2.3-7.28-3.16-11.19-3.45a116.06,116.06,0,0,0-13.32,0q-6.91.28-13.8,1T560,242A99.65,99.65,0,0,0,548,244.68a32,32,0,0,0-10.43,5.22,18.94,18.94,0,0,0-6.12,8.39,16.08,16.08,0,0,0-.6,9.84,11.87,11.87,0,0,0,2.25,4.31,15.76,15.76,0,0,0,4.17,3.42c3.26,1.93,7,3.09,9.91,5.55a14,14,0,0,1,2.11,2.18A3.87,3.87,0,0,0,551,285a3.39,3.39,0,0,0,3.73-1,13.56,13.56,0,0,0,1.47-2.7l1.55-3.11a5.05,5.05,0,0,1,.39-.77c.12-.15-.09,0-.05,0s.07,0,.09,0a3.33,3.33,0,0,1,.4-.16c1.44-.56,2.89-1.11,4.34-1.65,5.36-2,10.79-3.8,16.3-5.27a76.77,76.77,0,0,1,8.61-1.87c3.76-.55,7.58-.49,11.36-.87,4.06-.4,8.26-1.26,11.75-3.57a15.71,15.71,0,0,0,6.31-7.83,11.19,11.19,0,0,0,.53-4.84A13.07,13.07,0,0,0,612,242.38Z" transform="translate(-94.99 -37.9)"/><path class="cls-1" d="M605.14,246.55l-53.57,10.23a1.19,1.19,0,0,1-1.39-1,1.22,1.22,0,0,1,.94-1.43h0l53.57-10.22a1.18,1.18,0,0,1,1.38,1,1.22,1.22,0,0,1-1,1.43Z" transform="translate(-94.99 -37.9)"/><path class="cls-1" d="M606.46,254l-53.57,10.23a1.19,1.19,0,0,1-1.39-1,1.23,1.23,0,0,1,.94-1.44h0L606,251.54a1.19,1.19,0,0,1,1.38,1,1.22,1.22,0,0,1-.95,1.43Z" transform="translate(-94.99 -37.9)"/><path class="cls-1" d="M560.45,270.39l-6.24,1.2a1.19,1.19,0,0,1-1.38-1,1.22,1.22,0,0,1,.95-1.43L560,268a1.19,1.19,0,0,1,1.38,1A1.23,1.23,0,0,1,560.45,270.39Z" transform="translate(-94.99 -37.9)"/><ellipse class="cls-10" cx="460.03" cy="258.15" rx="5.04" ry="5.21"/><path class="cls-1" d="M278.67,187.53H232.91a8.18,8.18,0,0,1-8-8.29V148a8.17,8.17,0,0,1,8-8.29h45.76a8.17,8.17,0,0,1,8,8.29v31.22A8.17,8.17,0,0,1,278.67,187.53Z" transform="translate(-94.99 -37.9)"/><path class="cls-2" d="M273.64,185.85H233.81a7.11,7.11,0,0,1-7-7.22V151.46a7.09,7.09,0,0,1,7-7.21h39.83a7.09,7.09,0,0,1,7,7.21v27.17A7.11,7.11,0,0,1,273.64,185.85Z" transform="translate(-94.99 -37.9)"/><path class="cls-1" d="M285.11,215.65H226.4a1.42,1.42,0,0,1,0-2.84h58.71a1.41,1.41,0,0,1,1.37,1.43A1.39,1.39,0,0,1,285.11,215.65Z" transform="translate(-94.99 -37.9)"/><path class="cls-1" d="M285.11,207.55H226.4a1.41,1.41,0,0,1-1.37-1.43,1.39,1.39,0,0,1,1.37-1.41h58.71a1.42,1.42,0,0,1,0,2.84Z" transform="translate(-94.99 -37.9)"/><path class="cls-1" d="M285.11,223.75H226.4a1.42,1.42,0,0,1,0-2.83h58.71a1.42,1.42,0,0,1,0,2.83Z" transform="translate(-94.99 -37.9)"/><path class="cls-1" d="M285.11,231.85H226.4a1.42,1.42,0,0,1,0-2.83h58.71a1.42,1.42,0,0,1,0,2.83Z" transform="translate(-94.99 -37.9)"/><path class="cls-1" d="M285.11,240H226.4a1.42,1.42,0,0,1,0-2.84h58.71a1.42,1.42,0,0,1,0,2.84Z" transform="translate(-94.99 -37.9)"/><path class="cls-1" d="M285.11,248.06H226.4a1.42,1.42,0,0,1,0-2.84h58.71a1.41,1.41,0,0,1,1.37,1.43A1.39,1.39,0,0,1,285.11,248.06Z" transform="translate(-94.99 -37.9)"/><polygon class="cls-7" points="157.83 191.58 159.29 191.58 159.29 249.62 53.99 249.62 53.99 248.11 157.83 248.11 157.83 191.58"/><path class="cls-9" d="M104.45,297.05H143a9.8,9.8,0,0,0,0-19.59H104.45a9.8,9.8,0,0,0,0,19.59Z" transform="translate(-94.99 -37.9)"/><ellipse class="cls-9" cx="159.57" cy="186.96" rx="8.7" ry="9"/><path class="cls-3" d="M299.5,227.35c12.77,2.81,9.52,3.36,22.29,6.17l11,2.41c1.38.31,1.76-1.92.38-2.22-12.77-2.81-9.52-3.36-22.29-6.17l-11-2.41c-1.37-.31-1.75,1.92-.38,2.22Z" transform="translate(-94.99 -37.9)"/><path class="cls-3" d="M328.91,220.78l14.53,17.75a7,7,0,0,1,1.31,1.83c.27.76-.32,1.08-.94,1.33a44.84,44.84,0,0,1-5.46,1.46L327.48,246c-1.37.35-.63,2.48.72,2.13l9.48-2.46,4.73-1.23c1.34-.35,2.9-.61,3.88-1.73,2.06-2.34-.69-5-2.1-6.72l-6.33-7.73-7.15-8.73c-.9-1.11-2.71.16-1.8,1.27Z" transform="translate(-94.99 -37.9)"/><ellipse class="cls-1" cx="279.99" cy="239.33" rx="20.22" ry="20.93"/><ellipse class="cls-2" cx="278.02" cy="241.68" rx="15.37" ry="15.91"/><path class="cls-1" d="M370.25,290.47a2.2,2.2,0,0,1-1.8-.93l-5.52-7.61a2.39,2.39,0,0,1,.45-3.26,2.21,2.21,0,0,1,3.15.46h0l3.61,5,9.27-14.39a2.21,2.21,0,0,1,3.12-.65,2.38,2.38,0,0,1,.62,3.23h0l-11,17.13a2.21,2.21,0,0,1-1.81,1Z" transform="translate(-94.99 -37.9)"/><path class="cls-4" d="M563.8,298.79a5.46,5.46,0,0,0,1.83-7.32,5,5,0,0,0-.53-.77l16.24-29.36-9.53.54L557.5,290.33a5.5,5.5,0,0,0-.08,7.6,5.07,5.07,0,0,0,6.38.86Z" transform="translate(-94.99 -37.9)"/><path class="cls-7" d="M545.51,195.86s17.19-5.72,21.62,8,19.29,50.93,19.29,50.93l-16,33.75-7.18-8,7.68-23.46-22.12-34.33Z" transform="translate(-94.99 -37.9)"/><path class="cls-1" d="M571,285.1a9.6,9.6,0,0,0-1.94-2.4l-5.49-5.47-.31.71a7.87,7.87,0,0,0,2.3,10.63,6.79,6.79,0,0,0,.74.43,4.68,4.68,0,0,0,2.62.56,2.83,2.83,0,0,0,2.21-1.43A3.37,3.37,0,0,0,571,285.1Z" transform="translate(-94.99 -37.9)"/><polygon class="cls-7" points="279.82 267.49 278.36 267.49 278.36 325.53 327.61 325.53 327.61 324.02 279.82 324.02 279.82 267.49"/><path class="cls-9" d="M476.59,363.16a9.65,9.65,0,0,0-9.47-9.79H428.54a9.8,9.8,0,0,0,0,19.59h38.58A9.65,9.65,0,0,0,476.59,363.16Z" transform="translate(-94.99 -37.9)"/><ellipse class="cls-9" cx="278.07" cy="262.86" rx="8.7" ry="9"/><text class="cls-11" transform="translate(80.34 454.67)">GURU BK</text></svg>